<svg xmlns="http://www.w3.org/2000/svg" width="30" height="34"><path fill="#FFF" fill-rule="evenodd" d="M15.006.434c4.908 0 8.887 4.09 8.887 9.134v4.566h1.48c2.455 0 4.444 2.046 4.444 4.568v10.656c0 2.522-1.99 4.567-4.443 4.567H4.638c-2.454 0-4.444-2.045-4.444-4.567V18.702c0-2.522 1.99-4.567 4.444-4.567h1.48V9.567c0-4.954 3.839-8.987 8.626-9.13zM25.374 17.18H4.638c-.818 0-1.481.682-1.481 1.523v10.656c0 .84.663 1.522 1.48 1.522h20.737c.818 0 1.48-.682 1.48-1.522V18.702c0-.841-.662-1.523-1.48-1.523zM15.006 3.48c-3.272 0-5.925 2.726-5.925 6.089v4.566h11.85V9.568c0-3.287-2.534-5.965-5.703-6.085z"/></svg>