<?xml version="1.0" standalone="no"?>
<!DOCTYPE svg PUBLIC "-//W3C//DTD SVG 1.1//EN" "http://www.w3.org/Graphics/SVG/1.1/DTD/svg11.dtd" >
<svg xmlns="http://www.w3.org/2000/svg" xmlns:xlink="http://www.w3.org/1999/xlink" version="1.1">
<metadata>
Created by FontForge 20190801 at Tue Nov 27 17:16:57 2018
 By Jimmy Wärting
Copyright \(c\) 2018 by Fontfabric LLC. All rights reserved.
</metadata>
<defs>
<font id="PantonDemo-Black" horiz-adv-x="0" >
  <font-face 
    font-family="Panton Black Caps"
    font-weight="390"
    font-stretch="normal"
    units-per-em="1000"
    panose-1="0 0 4 0 0 0 0 0 0 0"
    ascent="800"
    descent="-200"
    cap-height="710"
    bbox="-412.127 -260 1262 993.307"
    underline-thickness="50"
    underline-position="-100"
    stemh="121"
    stemv="188"
    unicode-range="U+0020-25CA"
  />
<missing-glyph horiz-adv-x="690" 
d="M98 0c-32 0 -43 11 -43 42v626c0 31 11 42 43 42h499c32 0 43 -11 43 -42v-626c0 -31 -11 -42 -43 -42h-499zM442 175v361h-189v-361h189z" />
    <glyph glyph-name=".notdef" horiz-adv-x="690" 
d="M98 0c-32 0 -43 11 -43 42v626c0 31 11 42 43 42h499c32 0 43 -11 43 -42v-626c0 -31 -11 -42 -43 -42h-499zM442 175v361h-189v-361h189z" />
    <glyph glyph-name="A" unicode="A" horiz-adv-x="692" 
d="M34 0c-31 0 -37 14 -27 41l230 634c10 29 24 35 52 35h114c28 0 42 -7 52 -33l231 -636c10 -27 1 -41 -29 -41h-108c-51 0 -67 11 -75 42l-22 72h-218l-23 -72c-9 -31 -23 -42 -72 -42h-105zM406 271l-37 117c-20 68 -22 141 -22 141h-10s1 -72 -19 -140l-37 -118h125z
" />
    <glyph glyph-name="A" unicode="a" horiz-adv-x="692" 
d="M34 0c-31 0 -37 14 -27 41l230 634c10 29 24 35 52 35h114c28 0 42 -7 52 -33l231 -636c10 -27 1 -41 -29 -41h-108c-51 0 -67 11 -75 42l-22 72h-218l-23 -72c-9 -31 -23 -42 -72 -42h-105zM406 271l-37 117c-20 68 -22 141 -22 141h-10s1 -72 -19 -140l-37 -118h125z
" />
    <glyph glyph-name="Aacute" unicode="&#xc1;" horiz-adv-x="692" 
d="M286 757c-24 -7 -35 -9 -46 5l-27 33c-16 19 -15 28 2 38l141 81c23 13 46 19 66 -3l51 -58c18 -19 19 -31 -5 -40zM34 0c-31 0 -37 14 -27 41l230 634c10 29 24 35 52 35h114c28 0 42 -7 52 -33l231 -636c10 -27 1 -41 -29 -41h-108c-51 0 -67 11 -75 42l-22 72h-218
l-23 -72c-9 -31 -23 -42 -72 -42h-105zM406 271l-37 117c-20 68 -22 141 -22 141h-10s1 -72 -19 -140l-37 -118h125z" />
    <glyph glyph-name="Aacute" unicode="&#xe1;" horiz-adv-x="692" 
d="M286 757c-24 -7 -35 -9 -46 5l-27 33c-16 19 -15 28 2 38l141 81c23 13 46 19 66 -3l51 -58c18 -19 19 -31 -5 -40zM34 0c-31 0 -37 14 -27 41l230 634c10 29 24 35 52 35h114c28 0 42 -7 52 -33l231 -636c10 -27 1 -41 -29 -41h-108c-51 0 -67 11 -75 42l-22 72h-218
l-23 -72c-9 -31 -23 -42 -72 -42h-105zM406 271l-37 117c-20 68 -22 141 -22 141h-10s1 -72 -19 -140l-37 -118h125z" />
    <glyph glyph-name="Abreve" unicode="&#x102;" horiz-adv-x="692" 
d="M346 754c-88 0 -150 38 -176 106c-7 19 -2 27 17 35l66 25c22 8 28 5 38 -12c12 -22 29 -33 55 -33c25 0 41 11 54 33c10 17 16 19 36 13l70 -26c19 -7 24 -16 17 -35c-26 -68 -88 -106 -177 -106zM34 0c-31 0 -37 14 -27 41l230 634c10 29 24 35 52 35h114
c28 0 42 -7 52 -33l231 -636c10 -27 1 -41 -29 -41h-108c-51 0 -67 11 -75 42l-22 72h-218l-23 -72c-9 -31 -23 -42 -72 -42h-105zM406 271l-37 117c-20 68 -22 141 -22 141h-10s1 -72 -19 -140l-37 -118h125z" />
    <glyph glyph-name="Abreve" unicode="&#x103;" horiz-adv-x="692" 
d="M346 754c-88 0 -150 38 -176 106c-7 19 -2 27 17 35l66 25c22 8 28 5 38 -12c12 -22 29 -33 55 -33c25 0 41 11 54 33c10 17 16 19 36 13l70 -26c19 -7 24 -16 17 -35c-26 -68 -88 -106 -177 -106zM34 0c-31 0 -37 14 -27 41l230 634c10 29 24 35 52 35h114
c28 0 42 -7 52 -33l231 -636c10 -27 1 -41 -29 -41h-108c-51 0 -67 11 -75 42l-22 72h-218l-23 -72c-9 -31 -23 -42 -72 -42h-105zM406 271l-37 117c-20 68 -22 141 -22 141h-10s1 -72 -19 -140l-37 -118h125z" />
    <glyph glyph-name="Acircumflex" unicode="&#xc2;" horiz-adv-x="692" 
d="M171 754c-32 0 -31 18 -15 34l102 102c27 27 34 30 77 30h32c35 0 44 -3 71 -30l102 -102c16 -16 17 -34 -15 -34h-84c-39 0 -51 2 -66 21l-29 36l-31 -35c-17 -20 -28 -22 -65 -22h-79zM34 0c-31 0 -37 14 -27 41l230 634c10 29 24 35 52 35h114c28 0 42 -7 52 -33
l231 -636c10 -27 1 -41 -29 -41h-108c-51 0 -67 11 -75 42l-22 72h-218l-23 -72c-9 -31 -23 -42 -72 -42h-105zM406 271l-37 117c-20 68 -22 141 -22 141h-10s1 -72 -19 -140l-37 -118h125z" />
    <glyph glyph-name="Acircumflex" unicode="&#xe2;" horiz-adv-x="692" 
d="M171 754c-32 0 -31 18 -15 34l102 102c27 27 34 30 77 30h32c35 0 44 -3 71 -30l102 -102c16 -16 17 -34 -15 -34h-84c-39 0 -51 2 -66 21l-29 36l-31 -35c-17 -20 -28 -22 -65 -22h-79zM34 0c-31 0 -37 14 -27 41l230 634c10 29 24 35 52 35h114c28 0 42 -7 52 -33
l231 -636c10 -27 1 -41 -29 -41h-108c-51 0 -67 11 -75 42l-22 72h-218l-23 -72c-9 -31 -23 -42 -72 -42h-105zM406 271l-37 117c-20 68 -22 141 -22 141h-10s1 -72 -19 -140l-37 -118h125z" />
    <glyph glyph-name="Adieresis" unicode="&#xc4;" horiz-adv-x="692" 
d="M234 759c-55 0 -71 18 -71 71v13c0 54 16 71 71 71h8c56 0 74 -17 74 -71v-13c0 -53 -18 -71 -74 -71h-8zM450 759c-56 0 -74 18 -74 71v13c0 54 18 71 74 71h7c56 0 72 -17 72 -71v-13c0 -53 -16 -71 -72 -71h-7zM34 0c-31 0 -37 14 -27 41l230 634c10 29 24 35 52 35
h114c28 0 42 -7 52 -33l231 -636c10 -27 1 -41 -29 -41h-108c-51 0 -67 11 -75 42l-22 72h-218l-23 -72c-9 -31 -23 -42 -72 -42h-105zM406 271l-37 117c-20 68 -22 141 -22 141h-10s1 -72 -19 -140l-37 -118h125z" />
    <glyph glyph-name="Adieresis" unicode="&#xe4;" horiz-adv-x="692" 
d="M234 759c-55 0 -71 18 -71 71v13c0 54 16 71 71 71h8c56 0 74 -17 74 -71v-13c0 -53 -18 -71 -74 -71h-8zM450 759c-56 0 -74 18 -74 71v13c0 54 18 71 74 71h7c56 0 72 -17 72 -71v-13c0 -53 -16 -71 -72 -71h-7zM34 0c-31 0 -37 14 -27 41l230 634c10 29 24 35 52 35
h114c28 0 42 -7 52 -33l231 -636c10 -27 1 -41 -29 -41h-108c-51 0 -67 11 -75 42l-22 72h-218l-23 -72c-9 -31 -23 -42 -72 -42h-105zM406 271l-37 117c-20 68 -22 141 -22 141h-10s1 -72 -19 -140l-37 -118h125z" />
    <glyph glyph-name="Agrave" unicode="&#xc0;" horiz-adv-x="692" 
d="M228 814c-24 8 -23 20 -6 40l51 60c19 22 43 16 66 3l141 -83c18 -10 18 -20 3 -38l-28 -34c-10 -13 -22 -12 -46 -4zM34 0c-31 0 -37 14 -27 41l230 634c10 29 24 35 52 35h114c28 0 42 -7 52 -33l231 -636c10 -27 1 -41 -29 -41h-108c-51 0 -67 11 -75 42l-22 72h-218
l-23 -72c-9 -31 -23 -42 -72 -42h-105zM406 271l-37 117c-20 68 -22 141 -22 141h-10s1 -72 -19 -140l-37 -118h125z" />
    <glyph glyph-name="Agrave" unicode="&#xe0;" horiz-adv-x="692" 
d="M228 814c-24 8 -23 20 -6 40l51 60c19 22 43 16 66 3l141 -83c18 -10 18 -20 3 -38l-28 -34c-10 -13 -22 -12 -46 -4zM34 0c-31 0 -37 14 -27 41l230 634c10 29 24 35 52 35h114c28 0 42 -7 52 -33l231 -636c10 -27 1 -41 -29 -41h-108c-51 0 -67 11 -75 42l-22 72h-218
l-23 -72c-9 -31 -23 -42 -72 -42h-105zM406 271l-37 117c-20 68 -22 141 -22 141h-10s1 -72 -19 -140l-37 -118h125z" />
    <glyph glyph-name="Amacron" unicode="&#x100;" horiz-adv-x="692" 
d="M224 778c-28 0 -36 7 -36 36v42c0 29 11 36 36 36h244c28 0 36 -7 36 -36v-42c0 -29 -8 -36 -36 -36h-244zM34 0c-31 0 -37 14 -27 41l230 634c10 29 24 35 52 35h114c28 0 42 -7 52 -33l231 -636c10 -27 1 -41 -29 -41h-108c-51 0 -67 11 -75 42l-22 72h-218l-23 -72
c-9 -31 -23 -42 -72 -42h-105zM406 271l-37 117c-20 68 -22 141 -22 141h-10s1 -72 -19 -140l-37 -118h125z" />
    <glyph glyph-name="Amacron" unicode="&#x101;" horiz-adv-x="692" 
d="M224 778c-28 0 -36 7 -36 36v42c0 29 11 36 36 36h244c28 0 36 -7 36 -36v-42c0 -29 -8 -36 -36 -36h-244zM34 0c-31 0 -37 14 -27 41l230 634c10 29 24 35 52 35h114c28 0 42 -7 52 -33l231 -636c10 -27 1 -41 -29 -41h-108c-51 0 -67 11 -75 42l-22 72h-218l-23 -72
c-9 -31 -23 -42 -72 -42h-105zM406 271l-37 117c-20 68 -22 141 -22 141h-10s1 -72 -19 -140l-37 -118h125z" />
    <glyph glyph-name="Aogonek" unicode="&#x104;" horiz-adv-x="692" 
d="M578 -246c-47 0 -96 11 -107 67c-12 60 22 126 75 179c-52 1 -63 11 -72 42l-22 72h-217l-23 -72c-10 -31 -23 -42 -73 -42h-105c-31 0 -37 14 -27 41l231 634c10 29 23 35 52 35h113c29 0 42 -7 52 -33l232 -637c6 -17 5 -27 -5 -35c-55 -51 -71 -99 -68 -121
c1 -11 8 -18 18 -18c6 0 12 1 18 5c11 8 20 5 24 -6l20 -46c7 -15 5 -23 -5 -30c-28 -22 -71 -35 -111 -35zM406 271l-36 117c-21 68 -23 141 -23 141h-9s0 -72 -20 -140l-37 -118h125z" />
    <glyph glyph-name="Aogonek" unicode="&#x105;" horiz-adv-x="692" 
d="M578 -246c-47 0 -96 11 -107 67c-12 60 22 126 75 179c-52 1 -63 11 -72 42l-22 72h-217l-23 -72c-10 -31 -23 -42 -73 -42h-105c-31 0 -37 14 -27 41l231 634c10 29 23 35 52 35h113c29 0 42 -7 52 -33l232 -637c6 -17 5 -27 -5 -35c-55 -51 -71 -99 -68 -121
c1 -11 8 -18 18 -18c6 0 12 1 18 5c11 8 20 5 24 -6l20 -46c7 -15 5 -23 -5 -30c-28 -22 -71 -35 -111 -35zM406 271l-36 117c-21 68 -23 141 -23 141h-9s0 -72 -20 -140l-37 -118h125z" />
    <glyph glyph-name="Aring" unicode="&#xc5;" horiz-adv-x="692" 
d="M34 0c-31 0 -37 14 -27 41l233 631c-25 22 -38 52 -38 89c0 84 61 132 146 132c84 0 142 -51 142 -132c0 -36 -12 -67 -37 -88l233 -632c10 -27 1 -41 -29 -41h-108c-51 0 -67 11 -75 42l-22 72h-218l-23 -72c-9 -31 -23 -42 -72 -42h-105zM348 719c23 0 40 15 40 40
s-17 41 -40 41c-27 0 -45 -16 -45 -41c0 -23 18 -40 45 -40zM406 271l-36 117c-20 68 -23 139 -23 139h-10s0 -70 -20 -138l-36 -118h125z" />
    <glyph glyph-name="Aring" unicode="&#xe5;" horiz-adv-x="692" 
d="M34 0c-31 0 -37 14 -27 41l233 631c-25 22 -38 52 -38 89c0 84 61 132 146 132c84 0 142 -51 142 -132c0 -36 -12 -67 -37 -88l233 -632c10 -27 1 -41 -29 -41h-108c-51 0 -67 11 -75 42l-22 72h-218l-23 -72c-9 -31 -23 -42 -72 -42h-105zM348 719c23 0 40 15 40 40
s-17 41 -40 41c-27 0 -45 -16 -45 -41c0 -23 18 -40 45 -40zM406 271l-36 117c-20 68 -23 139 -23 139h-10s0 -70 -20 -138l-36 -118h125z" />
    <glyph glyph-name="Aringacute" unicode="&#x1fa;" horiz-adv-x="691" 
d="M297 867c-23 -5 -34 -6 -44 3l-26 26c-15 13 -6 24 11 32l125 56c22 10 44 15 62 -1l46 -45c16 -15 17 -24 -5 -29zM33 0c-31 0 -38 14 -27 41l230 605c-22 18 -35 45 -35 75c0 83 62 131 146 131s143 -51 143 -131c0 -30 -11 -56 -34 -75l229 -605c10 -27 1 -41 -29 -41
h-108c-51 0 -67 11 -75 42l-22 72h-218l-23 -72c-9 -31 -23 -42 -72 -42h-105zM348 682c22 0 39 16 39 41s-17 41 -39 41c-27 0 -44 -16 -44 -41c0 -23 17 -41 44 -41zM405 271l-37 117c-20 68 -22 141 -22 141h-10s1 -72 -19 -140l-37 -118h125z" />
    <glyph glyph-name="Aringacute" unicode="&#x1fb;" horiz-adv-x="691" 
d="M297 867c-23 -5 -34 -6 -44 3l-26 26c-15 13 -6 24 11 32l125 56c22 10 44 15 62 -1l46 -45c16 -15 17 -24 -5 -29zM33 0c-31 0 -38 14 -27 41l230 605c-22 18 -35 45 -35 75c0 83 62 131 146 131s143 -51 143 -131c0 -30 -11 -56 -34 -75l229 -605c10 -27 1 -41 -29 -41
h-108c-51 0 -67 11 -75 42l-22 72h-218l-23 -72c-9 -31 -23 -42 -72 -42h-105zM348 682c22 0 39 16 39 41s-17 41 -39 41c-27 0 -44 -16 -44 -41c0 -23 17 -41 44 -41zM405 271l-37 117c-20 68 -22 141 -22 141h-10s1 -72 -19 -140l-37 -118h125z" />
    <glyph glyph-name="Atilde" unicode="&#xc3;" horiz-adv-x="692" 
d="M190 763c-17 0 -23 8 -23 23c0 95 38 123 96 123c76 0 103 -41 135 -41c10 0 15 6 15 22c0 14 5 19 19 19h60c19 0 24 -7 24 -23c0 -93 -34 -123 -98 -123c-74 0 -100 42 -133 42c-9 0 -14 -7 -14 -22c0 -14 -6 -20 -20 -20h-61zM34 0c-31 0 -37 14 -27 41l230 634
c10 29 24 35 52 35h114c28 0 42 -7 52 -33l231 -636c10 -27 1 -41 -29 -41h-108c-51 0 -67 11 -75 42l-22 72h-218l-23 -72c-9 -31 -23 -42 -72 -42h-105zM406 271l-37 117c-20 68 -22 141 -22 141h-10s1 -72 -19 -140l-37 -118h125z" />
    <glyph glyph-name="Atilde" unicode="&#xe3;" horiz-adv-x="692" 
d="M190 763c-17 0 -23 8 -23 23c0 95 38 123 96 123c76 0 103 -41 135 -41c10 0 15 6 15 22c0 14 5 19 19 19h60c19 0 24 -7 24 -23c0 -93 -34 -123 -98 -123c-74 0 -100 42 -133 42c-9 0 -14 -7 -14 -22c0 -14 -6 -20 -20 -20h-61zM34 0c-31 0 -37 14 -27 41l230 634
c10 29 24 35 52 35h114c28 0 42 -7 52 -33l231 -636c10 -27 1 -41 -29 -41h-108c-51 0 -67 11 -75 42l-22 72h-218l-23 -72c-9 -31 -23 -42 -72 -42h-105zM406 271l-37 117c-20 68 -22 141 -22 141h-10s1 -72 -19 -140l-37 -118h125z" />
    <glyph glyph-name="AE" unicode="&#xc6;" horiz-adv-x="909" 
d="M28 0c-31 0 -41 16 -27 41l414 634c16 26 23 35 52 35h365c31 0 42 -11 42 -42v-90c0 -32 -11 -42 -42 -42h-196v-90h142c32 0 43 -11 43 -43v-89c0 -32 -11 -43 -43 -43h-142v-96h204c32 0 42 -10 42 -42v-91c0 -31 -10 -42 -42 -42h-346c-31 0 -42 11 -42 42v63h-201
l-42 -68c-17 -26 -26 -37 -79 -37h-102zM452 256v164l-104 -164h104z" />
    <glyph glyph-name="AE" unicode="&#xe6;" horiz-adv-x="909" 
d="M28 0c-31 0 -41 16 -27 41l414 634c16 26 23 35 52 35h365c31 0 42 -11 42 -42v-90c0 -32 -11 -42 -42 -42h-196v-90h142c32 0 43 -11 43 -43v-89c0 -32 -11 -43 -43 -43h-142v-96h204c32 0 42 -10 42 -42v-91c0 -31 -10 -42 -42 -42h-346c-31 0 -42 11 -42 42v63h-201
l-42 -68c-17 -26 -26 -37 -79 -37h-102zM452 256v164l-104 -164h104z" />
    <glyph glyph-name="AEacute" unicode="&#x1fc;" horiz-adv-x="909" 
d="M584 757c-24 -7 -35 -9 -46 5l-27 33c-16 19 -15 28 2 38l141 81c23 13 46 19 66 -3l51 -58c18 -19 19 -31 -5 -40zM28 0c-31 0 -41 16 -27 41l414 634c16 26 23 35 52 35h365c31 0 42 -11 42 -42v-90c0 -32 -11 -42 -42 -42h-196v-90h142c32 0 43 -11 43 -43v-89
c0 -32 -11 -43 -43 -43h-142v-96h204c32 0 42 -10 42 -42v-91c0 -31 -10 -42 -42 -42h-346c-31 0 -42 11 -42 42v63h-201l-42 -68c-17 -26 -26 -37 -79 -37h-102zM452 256v164l-104 -164h104z" />
    <glyph glyph-name="AEacute" unicode="&#x1fd;" horiz-adv-x="909" 
d="M584 757c-24 -7 -35 -9 -46 5l-27 33c-16 19 -15 28 2 38l141 81c23 13 46 19 66 -3l51 -58c18 -19 19 -31 -5 -40zM28 0c-31 0 -41 16 -27 41l414 634c16 26 23 35 52 35h365c31 0 42 -11 42 -42v-90c0 -32 -11 -42 -42 -42h-196v-90h142c32 0 43 -11 43 -43v-89
c0 -32 -11 -43 -43 -43h-142v-96h204c32 0 42 -10 42 -42v-91c0 -31 -10 -42 -42 -42h-346c-31 0 -42 11 -42 42v63h-201l-42 -68c-17 -26 -26 -37 -79 -37h-102zM452 256v164l-104 -164h104z" />
    <glyph glyph-name="B" unicode="B" horiz-adv-x="662" 
d="M95 0c-32 0 -42 11 -42 42v626c0 31 10 42 42 42h293c138 0 221 -67 221 -189c0 -67 -21 -112 -72 -147v-4c64 -28 101 -85 101 -172c0 -129 -105 -198 -246 -198h-297zM347 440c40 0 62 15 62 54s-22 56 -62 56h-97v-110h97zM366 161c43 0 65 18 65 60
c0 40 -22 58 -65 58h-116v-118h116z" />
    <glyph glyph-name="B" unicode="b" horiz-adv-x="662" 
d="M95 0c-32 0 -42 11 -42 42v626c0 31 10 42 42 42h293c138 0 221 -67 221 -189c0 -67 -21 -112 -72 -147v-4c64 -28 101 -85 101 -172c0 -129 -105 -198 -246 -198h-297zM347 440c40 0 62 15 62 54s-22 56 -62 56h-97v-110h97zM366 161c43 0 65 18 65 60
c0 40 -22 58 -65 58h-116v-118h116z" />
    <glyph glyph-name="C" unicode="C" horiz-adv-x="655" 
d="M343 -15c-197 0 -307 107 -307 279v182c0 172 110 279 307 279c154 0 250 -63 291 -175c11 -29 3 -43 -26 -54l-107 -38c-31 -9 -43 -4 -54 27c-18 45 -47 65 -104 65c-79 0 -110 -34 -110 -103v-184c0 -69 31 -103 110 -103c56 0 88 22 104 65c12 31 25 38 54 27
l107 -38c29 -10 37 -25 26 -54c-41 -112 -137 -175 -291 -175z" />
    <glyph glyph-name="C" unicode="c" horiz-adv-x="655" 
d="M343 -15c-197 0 -307 107 -307 279v182c0 172 110 279 307 279c154 0 250 -63 291 -175c11 -29 3 -43 -26 -54l-107 -38c-31 -9 -43 -4 -54 27c-18 45 -47 65 -104 65c-79 0 -110 -34 -110 -103v-184c0 -69 31 -103 110 -103c56 0 88 22 104 65c12 31 25 38 54 27
l107 -38c29 -10 37 -25 26 -54c-41 -112 -137 -175 -291 -175z" />
    <glyph glyph-name="Cacute" unicode="&#x106;" horiz-adv-x="655" 
d="M285 757c-24 -7 -35 -9 -46 5l-27 33c-16 19 -15 28 2 38l141 81c23 13 46 19 66 -3l51 -58c18 -19 19 -31 -5 -40zM343 -15c-197 0 -307 107 -307 279v182c0 172 110 279 307 279c154 0 250 -63 291 -175c11 -29 3 -43 -26 -54l-107 -38c-31 -9 -43 -4 -54 27
c-18 45 -47 65 -104 65c-79 0 -110 -34 -110 -103v-184c0 -69 31 -103 110 -103c56 0 88 22 104 65c12 31 25 38 54 27l107 -38c29 -10 37 -25 26 -54c-41 -112 -137 -175 -291 -175z" />
    <glyph glyph-name="Cacute" unicode="&#x107;" horiz-adv-x="655" 
d="M285 757c-24 -7 -35 -9 -46 5l-27 33c-16 19 -15 28 2 38l141 81c23 13 46 19 66 -3l51 -58c18 -19 19 -31 -5 -40zM343 -15c-197 0 -307 107 -307 279v182c0 172 110 279 307 279c154 0 250 -63 291 -175c11 -29 3 -43 -26 -54l-107 -38c-31 -9 -43 -4 -54 27
c-18 45 -47 65 -104 65c-79 0 -110 -34 -110 -103v-184c0 -69 31 -103 110 -103c56 0 88 22 104 65c12 31 25 38 54 27l107 -38c29 -10 37 -25 26 -54c-41 -112 -137 -175 -291 -175z" />
    <glyph glyph-name="Ccaron" unicode="&#x10c;" horiz-adv-x="655" 
d="M331 754c-38 0 -46 2 -73 29l-101 102c-16 16 -20 35 12 35h84c39 0 50 -3 65 -22l31 -34l30 34c16 19 28 22 65 22h76c33 0 29 -19 13 -35l-100 -102c-27 -27 -35 -29 -75 -29h-27zM343 -15c-197 0 -307 107 -307 279v182c0 172 110 279 307 279c154 0 250 -63 291 -175
c11 -29 3 -43 -26 -54l-107 -38c-31 -9 -43 -4 -54 27c-18 45 -47 65 -104 65c-79 0 -110 -34 -110 -103v-184c0 -69 31 -103 110 -103c56 0 88 22 104 65c12 31 25 38 54 27l107 -38c29 -10 37 -25 26 -54c-41 -112 -137 -175 -291 -175z" />
    <glyph glyph-name="Ccaron" unicode="&#x10d;" horiz-adv-x="655" 
d="M331 754c-38 0 -46 2 -73 29l-101 102c-16 16 -20 35 12 35h84c39 0 50 -3 65 -22l31 -34l30 34c16 19 28 22 65 22h76c33 0 29 -19 13 -35l-100 -102c-27 -27 -35 -29 -75 -29h-27zM343 -15c-197 0 -307 107 -307 279v182c0 172 110 279 307 279c154 0 250 -63 291 -175
c11 -29 3 -43 -26 -54l-107 -38c-31 -9 -43 -4 -54 27c-18 45 -47 65 -104 65c-79 0 -110 -34 -110 -103v-184c0 -69 31 -103 110 -103c56 0 88 22 104 65c12 31 25 38 54 27l107 -38c29 -10 37 -25 26 -54c-41 -112 -137 -175 -291 -175z" />
    <glyph glyph-name="Ccedilla" unicode="&#xc7;" horiz-adv-x="655" 
d="M315 -245c-23 0 -49 2 -74 11c-21 8 -27 16 -27 31v42c0 19 9 28 31 16c18 -9 32 -15 56 -15c25 0 34 10 34 23c0 15 -9 21 -42 22h-21c-19 0 -23 9 -13 30l32 73c-164 17 -255 120 -255 276v182c0 172 110 279 307 279c154 0 250 -63 291 -175c11 -29 3 -43 -26 -54
l-107 -38c-31 -9 -43 -4 -54 27c-18 45 -47 65 -104 65c-79 0 -110 -34 -110 -103v-184c0 -69 31 -103 110 -103c56 0 88 22 104 65c12 31 25 38 54 27l107 -38c29 -10 37 -25 26 -54c-37 -102 -119 -163 -247 -173l-13 -33h9c57 -1 89 -45 83 -99
c-9 -79 -81 -100 -151 -100z" />
    <glyph glyph-name="Ccedilla" unicode="&#xe7;" horiz-adv-x="655" 
d="M315 -245c-23 0 -49 2 -74 11c-21 8 -27 16 -27 31v42c0 19 9 28 31 16c18 -9 32 -15 56 -15c25 0 34 10 34 23c0 15 -9 21 -42 22h-21c-19 0 -23 9 -13 30l32 73c-164 17 -255 120 -255 276v182c0 172 110 279 307 279c154 0 250 -63 291 -175c11 -29 3 -43 -26 -54
l-107 -38c-31 -9 -43 -4 -54 27c-18 45 -47 65 -104 65c-79 0 -110 -34 -110 -103v-184c0 -69 31 -103 110 -103c56 0 88 22 104 65c12 31 25 38 54 27l107 -38c29 -10 37 -25 26 -54c-37 -102 -119 -163 -247 -173l-13 -33h9c57 -1 89 -45 83 -99
c-9 -79 -81 -100 -151 -100z" />
    <glyph glyph-name="Ccircumflex" unicode="&#x108;" horiz-adv-x="655" 
d="M170 754c-32 0 -31 18 -15 34l102 102c27 27 34 30 77 30h32c35 0 44 -3 71 -30l102 -102c16 -16 17 -34 -15 -34h-84c-39 0 -51 2 -66 21l-29 36l-31 -35c-17 -20 -28 -22 -65 -22h-79zM343 -15c-197 0 -307 107 -307 279v182c0 172 110 279 307 279
c154 0 250 -63 291 -175c11 -29 3 -43 -26 -54l-107 -38c-31 -9 -43 -4 -54 27c-18 45 -47 65 -104 65c-79 0 -110 -34 -110 -103v-184c0 -69 31 -103 110 -103c56 0 88 22 104 65c12 31 25 38 54 27l107 -38c29 -10 37 -25 26 -54c-41 -112 -137 -175 -291 -175z" />
    <glyph glyph-name="Ccircumflex" unicode="&#x109;" horiz-adv-x="655" 
d="M170 754c-32 0 -31 18 -15 34l102 102c27 27 34 30 77 30h32c35 0 44 -3 71 -30l102 -102c16 -16 17 -34 -15 -34h-84c-39 0 -51 2 -66 21l-29 36l-31 -35c-17 -20 -28 -22 -65 -22h-79zM343 -15c-197 0 -307 107 -307 279v182c0 172 110 279 307 279
c154 0 250 -63 291 -175c11 -29 3 -43 -26 -54l-107 -38c-31 -9 -43 -4 -54 27c-18 45 -47 65 -104 65c-79 0 -110 -34 -110 -103v-184c0 -69 31 -103 110 -103c56 0 88 22 104 65c12 31 25 38 54 27l107 -38c29 -10 37 -25 26 -54c-41 -112 -137 -175 -291 -175z" />
    <glyph glyph-name="Cdotaccent" unicode="&#x10a;" horiz-adv-x="655" 
d="M341 757c-58 0 -75 17 -75 75v8c0 58 17 75 75 75h6c59 0 75 -17 75 -75v-8c0 -58 -16 -75 -75 -75h-6zM343 -15c-197 0 -307 107 -307 279v182c0 172 110 279 307 279c154 0 250 -63 291 -175c11 -29 3 -43 -26 -54l-107 -38c-31 -9 -43 -4 -54 27
c-18 45 -47 65 -104 65c-79 0 -110 -34 -110 -103v-184c0 -69 31 -103 110 -103c56 0 88 22 104 65c12 31 25 38 54 27l107 -38c29 -10 37 -25 26 -54c-41 -112 -137 -175 -291 -175z" />
    <glyph glyph-name="Cdotaccent" unicode="&#x10b;" horiz-adv-x="655" 
d="M341 757c-58 0 -75 17 -75 75v8c0 58 17 75 75 75h6c59 0 75 -17 75 -75v-8c0 -58 -16 -75 -75 -75h-6zM343 -15c-197 0 -307 107 -307 279v182c0 172 110 279 307 279c154 0 250 -63 291 -175c11 -29 3 -43 -26 -54l-107 -38c-31 -9 -43 -4 -54 27
c-18 45 -47 65 -104 65c-79 0 -110 -34 -110 -103v-184c0 -69 31 -103 110 -103c56 0 88 22 104 65c12 31 25 38 54 27l107 -38c29 -10 37 -25 26 -54c-41 -112 -137 -175 -291 -175z" />
    <glyph glyph-name="D" unicode="D" horiz-adv-x="681" 
d="M95 0c-32 0 -42 11 -42 42v626c0 31 10 42 42 42h244c197 0 307 -107 307 -279v-151c0 -172 -110 -280 -307 -280h-244zM332 175c81 0 116 37 116 108v144c0 71 -35 109 -116 109h-82v-361h82z" />
    <glyph glyph-name="D" unicode="d" horiz-adv-x="681" 
d="M95 0c-32 0 -42 11 -42 42v626c0 31 10 42 42 42h244c197 0 307 -107 307 -279v-151c0 -172 -110 -280 -307 -280h-244zM332 175c81 0 116 37 116 108v144c0 71 -35 109 -116 109h-82v-361h82z" />
    <glyph glyph-name="Eth" unicode="&#xd0;" horiz-adv-x="710" 
d="M124 0c-31 0 -42 11 -42 42v254h-46c-19 0 -25 5 -25 27v75c0 20 8 26 25 26h46v244c0 31 11 42 42 42h244c197 0 307 -107 307 -279v-151c0 -172 -110 -280 -307 -280h-244zM361 175c82 0 117 37 117 108v144c0 71 -35 109 -117 109h-81v-112h82c19 0 24 -6 24 -26v-75
c0 -22 -5 -27 -24 -27h-82v-121h81z" />
    <glyph glyph-name="Eth" unicode="&#xf0;" horiz-adv-x="710" 
d="M124 0c-31 0 -42 11 -42 42v254h-46c-19 0 -25 5 -25 27v75c0 20 8 26 25 26h46v244c0 31 11 42 42 42h244c197 0 307 -107 307 -279v-151c0 -172 -110 -280 -307 -280h-244zM361 175c82 0 117 37 117 108v144c0 71 -35 109 -117 109h-81v-112h82c19 0 24 -6 24 -26v-75
c0 -22 -5 -27 -24 -27h-82v-121h81z" />
    <glyph glyph-name="Dcaron" unicode="&#x10e;" horiz-adv-x="681" 
d="M304 754c-38 0 -46 2 -73 29l-101 102c-16 16 -20 35 12 35h84c39 0 50 -3 65 -22l31 -34l30 34c16 19 28 22 65 22h76c33 0 29 -19 13 -35l-100 -102c-27 -27 -35 -29 -75 -29h-27zM95 0c-32 0 -42 11 -42 42v626c0 31 10 42 42 42h244c197 0 307 -107 307 -279v-151
c0 -172 -110 -280 -307 -280h-244zM332 175c81 0 116 37 116 108v144c0 71 -35 109 -116 109h-82v-361h82z" />
    <glyph glyph-name="Dcaron" unicode="&#x10f;" horiz-adv-x="681" 
d="M304 754c-38 0 -46 2 -73 29l-101 102c-16 16 -20 35 12 35h84c39 0 50 -3 65 -22l31 -34l30 34c16 19 28 22 65 22h76c33 0 29 -19 13 -35l-100 -102c-27 -27 -35 -29 -75 -29h-27zM95 0c-32 0 -42 11 -42 42v626c0 31 10 42 42 42h244c197 0 307 -107 307 -279v-151
c0 -172 -110 -280 -307 -280h-244zM332 175c81 0 116 37 116 108v144c0 71 -35 109 -116 109h-82v-361h82z" />
    <glyph glyph-name="Dcroat" unicode="&#x110;" horiz-adv-x="710" 
d="M124 0c-31 0 -42 11 -42 42v254h-46c-19 0 -25 5 -25 27v75c0 20 8 26 25 26h46v244c0 31 11 42 42 42h244c197 0 307 -107 307 -279v-151c0 -172 -110 -280 -307 -280h-244zM361 175c82 0 117 37 117 108v144c0 71 -35 109 -117 109h-81v-112h82c19 0 24 -6 24 -26v-75
c0 -22 -5 -27 -24 -27h-82v-121h81z" />
    <glyph glyph-name="Dcroat" unicode="&#x111;" horiz-adv-x="710" 
d="M124 0c-31 0 -42 11 -42 42v254h-46c-19 0 -25 5 -25 27v75c0 20 8 26 25 26h46v244c0 31 11 42 42 42h244c197 0 307 -107 307 -279v-151c0 -172 -110 -280 -307 -280h-244zM361 175c82 0 117 37 117 108v144c0 71 -35 109 -117 109h-81v-112h82c19 0 24 -6 24 -26v-75
c0 -22 -5 -27 -24 -27h-82v-121h81z" />
    <glyph glyph-name="E" unicode="E" horiz-adv-x="592" 
d="M95 0c-32 0 -42 11 -42 42v626c0 31 10 42 42 42h419c32 0 43 -11 43 -42v-90c0 -32 -11 -42 -43 -42h-264v-90h211c32 0 43 -11 43 -43v-89c0 -32 -11 -43 -43 -43h-211v-96h273c31 0 42 -10 42 -42v-91c0 -31 -11 -42 -42 -42h-428z" />
    <glyph glyph-name="E" unicode="e" horiz-adv-x="592" 
d="M95 0c-32 0 -42 11 -42 42v626c0 31 10 42 42 42h419c32 0 43 -11 43 -42v-90c0 -32 -11 -42 -43 -42h-264v-90h211c32 0 43 -11 43 -43v-89c0 -32 -11 -43 -43 -43h-211v-96h273c31 0 42 -10 42 -42v-91c0 -31 -11 -42 -42 -42h-428z" />
    <glyph glyph-name="Eacute" unicode="&#xc9;" horiz-adv-x="592" 
d="M245 757c-24 -7 -35 -9 -46 5l-27 33c-16 19 -15 28 2 38l141 81c23 13 46 19 66 -3l51 -58c18 -19 19 -31 -5 -40zM95 0c-32 0 -42 11 -42 42v626c0 31 10 42 42 42h419c32 0 43 -11 43 -42v-90c0 -32 -11 -42 -43 -42h-264v-90h211c32 0 43 -11 43 -43v-89
c0 -32 -11 -43 -43 -43h-211v-96h273c31 0 42 -10 42 -42v-91c0 -31 -11 -42 -42 -42h-428z" />
    <glyph glyph-name="Eacute" unicode="&#xe9;" horiz-adv-x="592" 
d="M245 757c-24 -7 -35 -9 -46 5l-27 33c-16 19 -15 28 2 38l141 81c23 13 46 19 66 -3l51 -58c18 -19 19 -31 -5 -40zM95 0c-32 0 -42 11 -42 42v626c0 31 10 42 42 42h419c32 0 43 -11 43 -42v-90c0 -32 -11 -42 -43 -42h-264v-90h211c32 0 43 -11 43 -43v-89
c0 -32 -11 -43 -43 -43h-211v-96h273c31 0 42 -10 42 -42v-91c0 -31 -11 -42 -42 -42h-428z" />
    <glyph glyph-name="Ebreve" unicode="&#x114;" horiz-adv-x="592" 
d="M305 754c-88 0 -150 38 -176 106c-7 19 -2 27 17 35l66 25c22 8 28 5 38 -12c12 -22 29 -33 55 -33c25 0 41 11 54 33c10 17 16 19 36 13l70 -26c19 -7 24 -16 17 -35c-26 -68 -88 -106 -177 -106zM95 0c-32 0 -42 11 -42 42v626c0 31 10 42 42 42h419
c32 0 43 -11 43 -42v-90c0 -32 -11 -42 -43 -42h-264v-90h211c32 0 43 -11 43 -43v-89c0 -32 -11 -43 -43 -43h-211v-96h273c31 0 42 -10 42 -42v-91c0 -31 -11 -42 -42 -42h-428z" />
    <glyph glyph-name="Ebreve" unicode="&#x115;" horiz-adv-x="592" 
d="M305 754c-88 0 -150 38 -176 106c-7 19 -2 27 17 35l66 25c22 8 28 5 38 -12c12 -22 29 -33 55 -33c25 0 41 11 54 33c10 17 16 19 36 13l70 -26c19 -7 24 -16 17 -35c-26 -68 -88 -106 -177 -106zM95 0c-32 0 -42 11 -42 42v626c0 31 10 42 42 42h419
c32 0 43 -11 43 -42v-90c0 -32 -11 -42 -43 -42h-264v-90h211c32 0 43 -11 43 -43v-89c0 -32 -11 -43 -43 -43h-211v-96h273c31 0 42 -10 42 -42v-91c0 -31 -11 -42 -42 -42h-428z" />
    <glyph glyph-name="Ecaron" unicode="&#x11a;" horiz-adv-x="592" 
d="M291 754c-38 0 -46 2 -73 29l-101 102c-16 16 -20 35 12 35h84c39 0 50 -3 65 -22l31 -34l30 34c16 19 28 22 65 22h76c33 0 29 -19 13 -35l-100 -102c-27 -27 -35 -29 -75 -29h-27zM95 0c-32 0 -42 11 -42 42v626c0 31 10 42 42 42h419c32 0 43 -11 43 -42v-90
c0 -32 -11 -42 -43 -42h-264v-90h211c32 0 43 -11 43 -43v-89c0 -32 -11 -43 -43 -43h-211v-96h273c31 0 42 -10 42 -42v-91c0 -31 -11 -42 -42 -42h-428z" />
    <glyph glyph-name="Ecaron" unicode="&#x11b;" horiz-adv-x="592" 
d="M291 754c-38 0 -46 2 -73 29l-101 102c-16 16 -20 35 12 35h84c39 0 50 -3 65 -22l31 -34l30 34c16 19 28 22 65 22h76c33 0 29 -19 13 -35l-100 -102c-27 -27 -35 -29 -75 -29h-27zM95 0c-32 0 -42 11 -42 42v626c0 31 10 42 42 42h419c32 0 43 -11 43 -42v-90
c0 -32 -11 -42 -43 -42h-264v-90h211c32 0 43 -11 43 -43v-89c0 -32 -11 -43 -43 -43h-211v-96h273c31 0 42 -10 42 -42v-91c0 -31 -11 -42 -42 -42h-428z" />
    <glyph glyph-name="Ecircumflex" unicode="&#xca;" horiz-adv-x="592" 
d="M130 754c-32 0 -31 18 -15 34l102 102c27 27 34 30 77 30h32c35 0 44 -3 71 -30l102 -102c16 -16 17 -34 -15 -34h-84c-39 0 -51 2 -66 21l-29 36l-31 -35c-17 -20 -28 -22 -65 -22h-79zM95 0c-32 0 -42 11 -42 42v626c0 31 10 42 42 42h419c32 0 43 -11 43 -42v-90
c0 -32 -11 -42 -43 -42h-264v-90h211c32 0 43 -11 43 -43v-89c0 -32 -11 -43 -43 -43h-211v-96h273c31 0 42 -10 42 -42v-91c0 -31 -11 -42 -42 -42h-428z" />
    <glyph glyph-name="Ecircumflex" unicode="&#xea;" horiz-adv-x="592" 
d="M130 754c-32 0 -31 18 -15 34l102 102c27 27 34 30 77 30h32c35 0 44 -3 71 -30l102 -102c16 -16 17 -34 -15 -34h-84c-39 0 -51 2 -66 21l-29 36l-31 -35c-17 -20 -28 -22 -65 -22h-79zM95 0c-32 0 -42 11 -42 42v626c0 31 10 42 42 42h419c32 0 43 -11 43 -42v-90
c0 -32 -11 -42 -43 -42h-264v-90h211c32 0 43 -11 43 -43v-89c0 -32 -11 -43 -43 -43h-211v-96h273c31 0 42 -10 42 -42v-91c0 -31 -11 -42 -42 -42h-428z" />
    <glyph glyph-name="Edieresis" unicode="&#xcb;" horiz-adv-x="592" 
d="M193 759c-55 0 -71 18 -71 71v13c0 54 16 71 71 71h8c56 0 74 -17 74 -71v-13c0 -53 -18 -71 -74 -71h-8zM409 759c-56 0 -74 18 -74 71v13c0 54 18 71 74 71h7c56 0 72 -17 72 -71v-13c0 -53 -16 -71 -72 -71h-7zM95 0c-32 0 -42 11 -42 42v626c0 31 10 42 42 42h419
c32 0 43 -11 43 -42v-90c0 -32 -11 -42 -43 -42h-264v-90h211c32 0 43 -11 43 -43v-89c0 -32 -11 -43 -43 -43h-211v-96h273c31 0 42 -10 42 -42v-91c0 -31 -11 -42 -42 -42h-428z" />
    <glyph glyph-name="Edieresis" unicode="&#xeb;" horiz-adv-x="592" 
d="M193 759c-55 0 -71 18 -71 71v13c0 54 16 71 71 71h8c56 0 74 -17 74 -71v-13c0 -53 -18 -71 -74 -71h-8zM409 759c-56 0 -74 18 -74 71v13c0 54 18 71 74 71h7c56 0 72 -17 72 -71v-13c0 -53 -16 -71 -72 -71h-7zM95 0c-32 0 -42 11 -42 42v626c0 31 10 42 42 42h419
c32 0 43 -11 43 -42v-90c0 -32 -11 -42 -43 -42h-264v-90h211c32 0 43 -11 43 -43v-89c0 -32 -11 -43 -43 -43h-211v-96h273c31 0 42 -10 42 -42v-91c0 -31 -11 -42 -42 -42h-428z" />
    <glyph glyph-name="Edotaccent" unicode="&#x116;" horiz-adv-x="592" 
d="M301 757c-58 0 -75 17 -75 75v8c0 58 17 75 75 75h6c59 0 75 -17 75 -75v-8c0 -58 -16 -75 -75 -75h-6zM95 0c-32 0 -42 11 -42 42v626c0 31 10 42 42 42h419c32 0 43 -11 43 -42v-90c0 -32 -11 -42 -43 -42h-264v-90h211c32 0 43 -11 43 -43v-89c0 -32 -11 -43 -43 -43
h-211v-96h273c31 0 42 -10 42 -42v-91c0 -31 -11 -42 -42 -42h-428z" />
    <glyph glyph-name="Edotaccent" unicode="&#x117;" horiz-adv-x="592" 
d="M301 757c-58 0 -75 17 -75 75v8c0 58 17 75 75 75h6c59 0 75 -17 75 -75v-8c0 -58 -16 -75 -75 -75h-6zM95 0c-32 0 -42 11 -42 42v626c0 31 10 42 42 42h419c32 0 43 -11 43 -42v-90c0 -32 -11 -42 -43 -42h-264v-90h211c32 0 43 -11 43 -43v-89c0 -32 -11 -43 -43 -43
h-211v-96h273c31 0 42 -10 42 -42v-91c0 -31 -11 -42 -42 -42h-428z" />
    <glyph glyph-name="Egrave" unicode="&#xc8;" horiz-adv-x="592" 
d="M187 814c-24 8 -23 20 -6 40l51 60c19 22 43 16 66 3l141 -83c18 -10 18 -20 3 -38l-28 -34c-10 -13 -22 -12 -46 -4zM95 0c-32 0 -42 11 -42 42v626c0 31 10 42 42 42h419c32 0 43 -11 43 -42v-90c0 -32 -11 -42 -43 -42h-264v-90h211c32 0 43 -11 43 -43v-89
c0 -32 -11 -43 -43 -43h-211v-96h273c31 0 42 -10 42 -42v-91c0 -31 -11 -42 -42 -42h-428z" />
    <glyph glyph-name="Egrave" unicode="&#xe8;" horiz-adv-x="592" 
d="M187 814c-24 8 -23 20 -6 40l51 60c19 22 43 16 66 3l141 -83c18 -10 18 -20 3 -38l-28 -34c-10 -13 -22 -12 -46 -4zM95 0c-32 0 -42 11 -42 42v626c0 31 10 42 42 42h419c32 0 43 -11 43 -42v-90c0 -32 -11 -42 -43 -42h-264v-90h211c32 0 43 -11 43 -43v-89
c0 -32 -11 -43 -43 -43h-211v-96h273c31 0 42 -10 42 -42v-91c0 -31 -11 -42 -42 -42h-428z" />
    <glyph glyph-name="Emacron" unicode="&#x112;" horiz-adv-x="592" 
d="M183 778c-28 0 -36 7 -36 36v42c0 29 11 36 36 36h244c28 0 36 -7 36 -36v-42c0 -29 -8 -36 -36 -36h-244zM95 0c-32 0 -42 11 -42 42v626c0 31 10 42 42 42h419c32 0 43 -11 43 -42v-90c0 -32 -11 -42 -43 -42h-264v-90h211c32 0 43 -11 43 -43v-89
c0 -32 -11 -43 -43 -43h-211v-96h273c31 0 42 -10 42 -42v-91c0 -31 -11 -42 -42 -42h-428z" />
    <glyph glyph-name="Emacron" unicode="&#x113;" horiz-adv-x="592" 
d="M183 778c-28 0 -36 7 -36 36v42c0 29 11 36 36 36h244c28 0 36 -7 36 -36v-42c0 -29 -8 -36 -36 -36h-244zM95 0c-32 0 -42 11 -42 42v626c0 31 10 42 42 42h419c32 0 43 -11 43 -42v-90c0 -32 -11 -42 -43 -42h-264v-90h211c32 0 43 -11 43 -43v-89
c0 -32 -11 -43 -43 -43h-211v-96h273c31 0 42 -10 42 -42v-91c0 -31 -11 -42 -42 -42h-428z" />
    <glyph glyph-name="Eogonek" unicode="&#x118;" horiz-adv-x="592" 
d="M449 -246c-49 0 -95 15 -106 69c-13 59 24 127 77 177h-325c-32 0 -42 11 -42 42v626c0 31 10 42 42 42h419c32 0 43 -11 43 -42v-90c0 -32 -11 -42 -43 -42h-264v-90h211c32 0 43 -11 43 -43v-89c0 -32 -11 -43 -43 -43h-211v-96h273c31 0 42 -10 42 -42v-91
c0 -16 -3 -25 -10 -33c-32 -38 -75 -79 -69 -126c1 -11 7 -17 18 -17c6 0 11 2 17 5c11 8 19 5 24 -6l20 -46c6 -15 4 -23 -5 -30c-29 -23 -70 -35 -111 -35z" />
    <glyph glyph-name="Eogonek" unicode="&#x119;" horiz-adv-x="592" 
d="M449 -246c-49 0 -95 15 -106 69c-13 59 24 127 77 177h-325c-32 0 -42 11 -42 42v626c0 31 10 42 42 42h419c32 0 43 -11 43 -42v-90c0 -32 -11 -42 -43 -42h-264v-90h211c32 0 43 -11 43 -43v-89c0 -32 -11 -43 -43 -43h-211v-96h273c31 0 42 -10 42 -42v-91
c0 -16 -3 -25 -10 -33c-32 -38 -75 -79 -69 -126c1 -11 7 -17 18 -17c6 0 11 2 17 5c11 8 19 5 24 -6l20 -46c6 -15 4 -23 -5 -30c-29 -23 -70 -35 -111 -35z" />
    <glyph glyph-name="F" unicode="F" horiz-adv-x="579" 
d="M95 0c-32 0 -42 11 -42 42v626c0 31 10 42 42 42h419c32 0 43 -11 43 -42v-90c0 -32 -11 -42 -43 -42h-264v-117h211c32 0 43 -11 43 -42v-90c0 -32 -11 -42 -43 -42h-211v-203c0 -31 -10 -42 -42 -42h-113z" />
    <glyph glyph-name="F" unicode="f" horiz-adv-x="579" 
d="M95 0c-32 0 -42 11 -42 42v626c0 31 10 42 42 42h419c32 0 43 -11 43 -42v-90c0 -32 -11 -42 -43 -42h-264v-117h211c32 0 43 -11 43 -42v-90c0 -32 -11 -42 -43 -42h-211v-203c0 -31 -10 -42 -42 -42h-113z" />
    <glyph glyph-name="G" unicode="G" horiz-adv-x="681" 
d="M343 -15c-197 0 -307 107 -307 279v182c0 172 110 279 307 279c154 0 250 -63 291 -175c11 -29 3 -43 -26 -54l-107 -38c-31 -9 -43 -4 -54 27c-18 45 -47 65 -104 65c-79 0 -110 -34 -110 -103v-184c0 -69 31 -103 110 -103c67 0 108 25 108 68v20h-96
c-31 0 -42 11 -42 42v75c0 32 11 43 42 43h253c31 0 42 -11 42 -43v-132c0 -141 -110 -248 -307 -248z" />
    <glyph glyph-name="G" unicode="g" horiz-adv-x="681" 
d="M343 -15c-197 0 -307 107 -307 279v182c0 172 110 279 307 279c154 0 250 -63 291 -175c11 -29 3 -43 -26 -54l-107 -38c-31 -9 -43 -4 -54 27c-18 45 -47 65 -104 65c-79 0 -110 -34 -110 -103v-184c0 -69 31 -103 110 -103c67 0 108 25 108 68v20h-96
c-31 0 -42 11 -42 42v75c0 32 11 43 42 43h253c31 0 42 -11 42 -43v-132c0 -141 -110 -248 -307 -248z" />
    <glyph glyph-name="Gbreve" unicode="&#x11e;" horiz-adv-x="681" 
d="M343 764c-88 0 -150 38 -176 106c-7 19 -2 27 17 35l66 25c22 8 28 5 38 -12c12 -22 29 -33 55 -33c25 0 41 11 54 33c10 17 16 19 36 13l70 -26c19 -7 24 -16 17 -35c-26 -68 -88 -106 -177 -106zM343 -15c-197 0 -307 107 -307 279v182c0 172 110 279 307 279
c154 0 250 -63 291 -175c11 -29 3 -43 -26 -54l-107 -38c-31 -9 -43 -4 -54 27c-18 45 -47 65 -104 65c-79 0 -110 -34 -110 -103v-184c0 -69 31 -103 110 -103c67 0 108 25 108 68v20h-96c-31 0 -42 11 -42 42v75c0 32 11 43 42 43h253c31 0 42 -11 42 -43v-132
c0 -141 -110 -248 -307 -248z" />
    <glyph glyph-name="Gbreve" unicode="&#x11f;" horiz-adv-x="681" 
d="M343 764c-88 0 -150 38 -176 106c-7 19 -2 27 17 35l66 25c22 8 28 5 38 -12c12 -22 29 -33 55 -33c25 0 41 11 54 33c10 17 16 19 36 13l70 -26c19 -7 24 -16 17 -35c-26 -68 -88 -106 -177 -106zM343 -15c-197 0 -307 107 -307 279v182c0 172 110 279 307 279
c154 0 250 -63 291 -175c11 -29 3 -43 -26 -54l-107 -38c-31 -9 -43 -4 -54 27c-18 45 -47 65 -104 65c-79 0 -110 -34 -110 -103v-184c0 -69 31 -103 110 -103c67 0 108 25 108 68v20h-96c-31 0 -42 11 -42 42v75c0 32 11 43 42 43h253c31 0 42 -11 42 -43v-132
c0 -141 -110 -248 -307 -248z" />
    <glyph glyph-name="Gcircumflex" unicode="&#x11c;" horiz-adv-x="681" 
d="M168 764c-32 0 -31 18 -15 34l102 102c27 27 34 30 77 30h32c35 0 44 -3 71 -30l102 -102c16 -16 17 -34 -15 -34h-84c-39 0 -51 2 -66 21l-29 36l-31 -35c-17 -20 -28 -22 -65 -22h-79zM343 -15c-197 0 -307 107 -307 279v182c0 172 110 279 307 279
c154 0 250 -63 291 -175c11 -29 3 -43 -26 -54l-107 -38c-31 -9 -43 -4 -54 27c-18 45 -47 65 -104 65c-79 0 -110 -34 -110 -103v-184c0 -69 31 -103 110 -103c67 0 108 25 108 68v20h-96c-31 0 -42 11 -42 42v75c0 32 11 43 42 43h253c31 0 42 -11 42 -43v-132
c0 -141 -110 -248 -307 -248z" />
    <glyph glyph-name="Gcircumflex" unicode="&#x11d;" horiz-adv-x="681" 
d="M168 764c-32 0 -31 18 -15 34l102 102c27 27 34 30 77 30h32c35 0 44 -3 71 -30l102 -102c16 -16 17 -34 -15 -34h-84c-39 0 -51 2 -66 21l-29 36l-31 -35c-17 -20 -28 -22 -65 -22h-79zM343 -15c-197 0 -307 107 -307 279v182c0 172 110 279 307 279
c154 0 250 -63 291 -175c11 -29 3 -43 -26 -54l-107 -38c-31 -9 -43 -4 -54 27c-18 45 -47 65 -104 65c-79 0 -110 -34 -110 -103v-184c0 -69 31 -103 110 -103c67 0 108 25 108 68v20h-96c-31 0 -42 11 -42 42v75c0 32 11 43 42 43h253c31 0 42 -11 42 -43v-132
c0 -141 -110 -248 -307 -248z" />
    <glyph glyph-name="uni0122" unicode="&#x122;" horiz-adv-x="681" 
d="M343 -15c-197 0 -307 107 -307 279v182c0 172 110 279 307 279c154 0 250 -63 291 -175c11 -29 3 -43 -26 -54l-107 -38c-31 -9 -43 -4 -54 27c-18 45 -47 65 -104 65c-79 0 -110 -34 -110 -103v-184c0 -69 31 -103 110 -103c67 0 108 25 108 68v20h-96
c-31 0 -42 11 -42 42v75c0 32 11 43 42 43h253c31 0 42 -11 42 -43v-132c0 -141 -110 -248 -307 -248zM283 -260c-22 0 -29 8 -27 30l17 140c3 30 14 42 44 42h89c35 0 44 -16 34 -42l-48 -137c-8 -23 -19 -33 -45 -33h-64z" />
    <glyph glyph-name="uni0122" unicode="&#x123;" horiz-adv-x="681" 
d="M343 -15c-197 0 -307 107 -307 279v182c0 172 110 279 307 279c154 0 250 -63 291 -175c11 -29 3 -43 -26 -54l-107 -38c-31 -9 -43 -4 -54 27c-18 45 -47 65 -104 65c-79 0 -110 -34 -110 -103v-184c0 -69 31 -103 110 -103c67 0 108 25 108 68v20h-96
c-31 0 -42 11 -42 42v75c0 32 11 43 42 43h253c31 0 42 -11 42 -43v-132c0 -141 -110 -248 -307 -248zM283 -260c-22 0 -29 8 -27 30l17 140c3 30 14 42 44 42h89c35 0 44 -16 34 -42l-48 -137c-8 -23 -19 -33 -45 -33h-64z" />
    <glyph glyph-name="Gdotaccent" unicode="&#x120;" horiz-adv-x="681" 
d="M339 767c-58 0 -75 17 -75 75v8c0 58 17 75 75 75h6c59 0 75 -17 75 -75v-8c0 -58 -16 -75 -75 -75h-6zM343 -15c-197 0 -307 107 -307 279v182c0 172 110 279 307 279c154 0 250 -63 291 -175c11 -29 3 -43 -26 -54l-107 -38c-31 -9 -43 -4 -54 27
c-18 45 -47 65 -104 65c-79 0 -110 -34 -110 -103v-184c0 -69 31 -103 110 -103c67 0 108 25 108 68v20h-96c-31 0 -42 11 -42 42v75c0 32 11 43 42 43h253c31 0 42 -11 42 -43v-132c0 -141 -110 -248 -307 -248z" />
    <glyph glyph-name="Gdotaccent" unicode="&#x121;" horiz-adv-x="681" 
d="M339 767c-58 0 -75 17 -75 75v8c0 58 17 75 75 75h6c59 0 75 -17 75 -75v-8c0 -58 -16 -75 -75 -75h-6zM343 -15c-197 0 -307 107 -307 279v182c0 172 110 279 307 279c154 0 250 -63 291 -175c11 -29 3 -43 -26 -54l-107 -38c-31 -9 -43 -4 -54 27
c-18 45 -47 65 -104 65c-79 0 -110 -34 -110 -103v-184c0 -69 31 -103 110 -103c67 0 108 25 108 68v20h-96c-31 0 -42 11 -42 42v75c0 32 11 43 42 43h253c31 0 42 -11 42 -43v-132c0 -141 -110 -248 -307 -248z" />
    <glyph glyph-name="H" unicode="H" horiz-adv-x="694" 
d="M95 0c-32 0 -42 11 -42 42v626c0 31 10 42 42 42h113c32 0 42 -11 42 -42v-221h194v221c0 31 11 42 43 42h113c31 0 42 -11 42 -42v-626c0 -31 -11 -42 -42 -42h-113c-32 0 -43 11 -43 42v231h-194v-231c0 -31 -10 -42 -42 -42h-113z" />
    <glyph glyph-name="H" unicode="h" horiz-adv-x="694" 
d="M95 0c-32 0 -42 11 -42 42v626c0 31 10 42 42 42h113c32 0 42 -11 42 -42v-221h194v221c0 31 11 42 43 42h113c31 0 42 -11 42 -42v-626c0 -31 -11 -42 -42 -42h-113c-32 0 -43 11 -43 42v231h-194v-231c0 -31 -10 -42 -42 -42h-113z" />
    <glyph glyph-name="Hbar" unicode="&#x126;" horiz-adv-x="726" 
d="M110 0c-32 0 -42 11 -42 42v481h-37c-19 0 -24 5 -24 26v53c0 20 8 26 24 26h37v40c0 31 10 42 42 42h113c32 0 42 -11 42 -42v-40h195v40c0 31 10 42 42 42h113c32 0 42 -11 42 -42v-40h38c19 0 24 -6 24 -26v-53c0 -21 -5 -26 -24 -26h-38v-481c0 -31 -10 -42 -42 -42
h-113c-32 0 -42 11 -42 42v231h-195v-231c0 -31 -10 -42 -42 -42h-113zM460 447v76h-195v-76h195z" />
    <glyph glyph-name="Hbar" unicode="&#x127;" horiz-adv-x="726" 
d="M110 0c-32 0 -42 11 -42 42v481h-37c-19 0 -24 5 -24 26v53c0 20 8 26 24 26h37v40c0 31 10 42 42 42h113c32 0 42 -11 42 -42v-40h195v40c0 31 10 42 42 42h113c32 0 42 -11 42 -42v-40h38c19 0 24 -6 24 -26v-53c0 -21 -5 -26 -24 -26h-38v-481c0 -31 -10 -42 -42 -42
h-113c-32 0 -42 11 -42 42v231h-195v-231c0 -31 -10 -42 -42 -42h-113zM460 447v76h-195v-76h195z" />
    <glyph glyph-name="Hcircumflex" unicode="&#x124;" horiz-adv-x="694" 
d="M172 754c-32 0 -31 18 -15 34l102 102c27 27 34 30 77 30h32c35 0 44 -3 71 -30l102 -102c16 -16 17 -34 -15 -34h-84c-39 0 -51 2 -66 21l-29 36l-31 -35c-17 -20 -28 -22 -65 -22h-79zM95 0c-32 0 -42 11 -42 42v626c0 31 10 42 42 42h113c32 0 42 -11 42 -42v-221h194
v221c0 31 11 42 43 42h113c31 0 42 -11 42 -42v-626c0 -31 -11 -42 -42 -42h-113c-32 0 -43 11 -43 42v231h-194v-231c0 -31 -10 -42 -42 -42h-113z" />
    <glyph glyph-name="Hcircumflex" unicode="&#x125;" horiz-adv-x="694" 
d="M172 754c-32 0 -31 18 -15 34l102 102c27 27 34 30 77 30h32c35 0 44 -3 71 -30l102 -102c16 -16 17 -34 -15 -34h-84c-39 0 -51 2 -66 21l-29 36l-31 -35c-17 -20 -28 -22 -65 -22h-79zM95 0c-32 0 -42 11 -42 42v626c0 31 10 42 42 42h113c32 0 42 -11 42 -42v-221h194
v221c0 31 11 42 43 42h113c31 0 42 -11 42 -42v-626c0 -31 -11 -42 -42 -42h-113c-32 0 -43 11 -43 42v231h-194v-231c0 -31 -10 -42 -42 -42h-113z" />
    <glyph glyph-name="I" unicode="I" horiz-adv-x="303" 
d="M93 0c-30 0 -40 10 -40 40v630c0 30 10 40 40 40h117c30 0 40 -10 40 -40v-630c0 -30 -10 -40 -40 -40h-117z" />
    <glyph glyph-name="I" unicode="i" horiz-adv-x="303" 
d="M93 0c-30 0 -40 10 -40 40v630c0 30 10 40 40 40h117c30 0 40 -10 40 -40v-630c0 -30 -10 -40 -40 -40h-117z" />
    <glyph glyph-name="IJ" unicode="&#x132;" horiz-adv-x="893" 
d="M93 0c-30 0 -40 10 -40 40v630c0 30 10 40 40 40h117c30 0 40 -10 40 -40v-630c0 -30 -10 -40 -40 -40h-117zM571 -15c-138 0 -221 62 -260 169c-11 29 -3 43 26 54l104 37c30 11 44 6 56 -25c17 -39 38 -60 78 -60c49 0 73 28 73 86v423c0 30 10 41 42 41h115
c30 0 41 -11 41 -41v-422c0 -164 -94 -262 -275 -262z" />
    <glyph glyph-name="IJ" unicode="&#x133;" horiz-adv-x="893" 
d="M93 0c-30 0 -40 10 -40 40v630c0 30 10 40 40 40h117c30 0 40 -10 40 -40v-630c0 -30 -10 -40 -40 -40h-117zM571 -15c-138 0 -221 62 -260 169c-11 29 -3 43 26 54l104 37c30 11 44 6 56 -25c17 -39 38 -60 78 -60c49 0 73 28 73 86v423c0 30 10 41 42 41h115
c30 0 41 -11 41 -41v-422c0 -164 -94 -262 -275 -262z" />
    <glyph glyph-name="Iacute" unicode="&#xcd;" horiz-adv-x="303" 
d="M92 757c-24 -7 -35 -9 -46 5l-27 33c-16 19 -15 28 2 38l141 81c23 13 46 19 66 -3l51 -58c18 -19 19 -31 -5 -40zM93 0c-30 0 -40 10 -40 40v630c0 30 10 40 40 40h117c30 0 40 -10 40 -40v-630c0 -30 -10 -40 -40 -40h-117z" />
    <glyph glyph-name="Iacute" unicode="&#xed;" horiz-adv-x="303" 
d="M92 757c-24 -7 -35 -9 -46 5l-27 33c-16 19 -15 28 2 38l141 81c23 13 46 19 66 -3l51 -58c18 -19 19 -31 -5 -40zM93 0c-30 0 -40 10 -40 40v630c0 30 10 40 40 40h117c30 0 40 -10 40 -40v-630c0 -30 -10 -40 -40 -40h-117z" />
    <glyph glyph-name="Ibreve" unicode="&#x12c;" horiz-adv-x="303" 
d="M152 754c-88 0 -150 38 -176 106c-7 19 -2 27 17 35l66 25c22 8 28 5 38 -12c12 -22 29 -33 55 -33c25 0 41 11 54 33c10 17 16 19 36 13l70 -26c19 -7 24 -16 17 -35c-26 -68 -88 -106 -177 -106zM93 0c-30 0 -40 10 -40 40v630c0 30 10 40 40 40h117
c30 0 40 -10 40 -40v-630c0 -30 -10 -40 -40 -40h-117z" />
    <glyph glyph-name="Ibreve" unicode="&#x12d;" horiz-adv-x="303" 
d="M152 754c-88 0 -150 38 -176 106c-7 19 -2 27 17 35l66 25c22 8 28 5 38 -12c12 -22 29 -33 55 -33c25 0 41 11 54 33c10 17 16 19 36 13l70 -26c19 -7 24 -16 17 -35c-26 -68 -88 -106 -177 -106zM93 0c-30 0 -40 10 -40 40v630c0 30 10 40 40 40h117
c30 0 40 -10 40 -40v-630c0 -30 -10 -40 -40 -40h-117z" />
    <glyph glyph-name="Icircumflex" unicode="&#xce;" horiz-adv-x="303" 
d="M-24 754c-32 0 -31 18 -15 34l102 102c27 27 34 30 77 30h32c35 0 44 -3 71 -30l102 -102c16 -16 17 -34 -15 -34h-84c-39 0 -51 2 -66 21l-29 36l-31 -35c-17 -20 -28 -22 -65 -22h-79zM93 0c-30 0 -40 10 -40 40v630c0 30 10 40 40 40h117c30 0 40 -10 40 -40v-630
c0 -30 -10 -40 -40 -40h-117z" />
    <glyph glyph-name="Icircumflex" unicode="&#xee;" horiz-adv-x="303" 
d="M-24 754c-32 0 -31 18 -15 34l102 102c27 27 34 30 77 30h32c35 0 44 -3 71 -30l102 -102c16 -16 17 -34 -15 -34h-84c-39 0 -51 2 -66 21l-29 36l-31 -35c-17 -20 -28 -22 -65 -22h-79zM93 0c-30 0 -40 10 -40 40v630c0 30 10 40 40 40h117c30 0 40 -10 40 -40v-630
c0 -30 -10 -40 -40 -40h-117z" />
    <glyph glyph-name="Idieresis" unicode="&#xcf;" horiz-adv-x="303" 
d="M40 759c-55 0 -71 18 -71 71v13c0 54 16 71 71 71h8c56 0 74 -17 74 -71v-13c0 -53 -18 -71 -74 -71h-8zM256 759c-56 0 -74 18 -74 71v13c0 54 18 71 74 71h7c56 0 72 -17 72 -71v-13c0 -53 -16 -71 -72 -71h-7zM93 0c-30 0 -40 10 -40 40v630c0 30 10 40 40 40h117
c30 0 40 -10 40 -40v-630c0 -30 -10 -40 -40 -40h-117z" />
    <glyph glyph-name="Idieresis" unicode="&#xef;" horiz-adv-x="303" 
d="M40 759c-55 0 -71 18 -71 71v13c0 54 16 71 71 71h8c56 0 74 -17 74 -71v-13c0 -53 -18 -71 -74 -71h-8zM256 759c-56 0 -74 18 -74 71v13c0 54 18 71 74 71h7c56 0 72 -17 72 -71v-13c0 -53 -16 -71 -72 -71h-7zM93 0c-30 0 -40 10 -40 40v630c0 30 10 40 40 40h117
c30 0 40 -10 40 -40v-630c0 -30 -10 -40 -40 -40h-117z" />
    <glyph glyph-name="Idotaccent" unicode="&#x130;" horiz-adv-x="303" 
d="M148 757c-58 0 -75 17 -75 75v8c0 58 17 75 75 75h6c59 0 75 -17 75 -75v-8c0 -58 -16 -75 -75 -75h-6zM93 0c-30 0 -40 10 -40 40v630c0 30 10 40 40 40h117c30 0 40 -10 40 -40v-630c0 -30 -10 -40 -40 -40h-117z" />
    <glyph glyph-name="Igrave" unicode="&#xcc;" horiz-adv-x="303" 
d="M33 814c-24 8 -23 20 -6 40l51 60c19 22 43 16 66 3l141 -83c18 -10 18 -20 3 -38l-28 -34c-10 -13 -22 -12 -46 -4zM93 0c-30 0 -40 10 -40 40v630c0 30 10 40 40 40h117c30 0 40 -10 40 -40v-630c0 -30 -10 -40 -40 -40h-117z" />
    <glyph glyph-name="Igrave" unicode="&#xec;" horiz-adv-x="303" 
d="M33 814c-24 8 -23 20 -6 40l51 60c19 22 43 16 66 3l141 -83c18 -10 18 -20 3 -38l-28 -34c-10 -13 -22 -12 -46 -4zM93 0c-30 0 -40 10 -40 40v630c0 30 10 40 40 40h117c30 0 40 -10 40 -40v-630c0 -30 -10 -40 -40 -40h-117z" />
    <glyph glyph-name="Imacron" unicode="&#x12a;" horiz-adv-x="303" 
d="M30 778c-28 0 -36 7 -36 36v42c0 29 11 36 36 36h244c28 0 36 -7 36 -36v-42c0 -29 -8 -36 -36 -36h-244zM93 0c-30 0 -40 10 -40 40v630c0 30 10 40 40 40h117c30 0 40 -10 40 -40v-630c0 -30 -10 -40 -40 -40h-117z" />
    <glyph glyph-name="Imacron" unicode="&#x12b;" horiz-adv-x="303" 
d="M30 778c-28 0 -36 7 -36 36v42c0 29 11 36 36 36h244c28 0 36 -7 36 -36v-42c0 -29 -8 -36 -36 -36h-244zM93 0c-30 0 -40 10 -40 40v630c0 30 10 40 40 40h117c30 0 40 -10 40 -40v-630c0 -30 -10 -40 -40 -40h-117z" />
    <glyph glyph-name="Iogonek" unicode="&#x12e;" horiz-adv-x="303" 
d="M144 -246c-47 0 -96 11 -107 67c-12 60 20 126 72 179c-47 0 -56 13 -56 45v625c0 30 10 40 40 40h117c30 0 40 -10 40 -40v-630c0 -18 -3 -28 -13 -36c-52 -54 -60 -98 -57 -120c1 -11 8 -18 18 -18c6 0 12 1 18 5c11 8 20 5 24 -6l20 -46c7 -15 5 -23 -5 -30
c-28 -22 -71 -35 -111 -35z" />
    <glyph glyph-name="Iogonek" unicode="&#x12f;" horiz-adv-x="303" 
d="M144 -246c-47 0 -96 11 -107 67c-12 60 20 126 72 179c-47 0 -56 13 -56 45v625c0 30 10 40 40 40h117c30 0 40 -10 40 -40v-630c0 -18 -3 -28 -13 -36c-52 -54 -60 -98 -57 -120c1 -11 8 -18 18 -18c6 0 12 1 18 5c11 8 20 5 24 -6l20 -46c7 -15 5 -23 -5 -30
c-28 -22 -71 -35 -111 -35z" />
    <glyph glyph-name="Itilde" unicode="&#x128;" horiz-adv-x="303" 
d="M-5 763c-17 0 -23 8 -23 23c0 95 38 123 96 123c76 0 103 -41 135 -41c10 0 15 6 15 22c0 14 5 19 19 19h60c19 0 24 -7 24 -23c0 -93 -34 -123 -98 -123c-74 0 -100 42 -133 42c-9 0 -14 -7 -14 -22c0 -14 -6 -20 -20 -20h-61zM93 0c-30 0 -40 10 -40 40v630
c0 30 10 40 40 40h117c30 0 40 -10 40 -40v-630c0 -30 -10 -40 -40 -40h-117z" />
    <glyph glyph-name="Itilde" unicode="&#x129;" horiz-adv-x="303" 
d="M-5 763c-17 0 -23 8 -23 23c0 95 38 123 96 123c76 0 103 -41 135 -41c10 0 15 6 15 22c0 14 5 19 19 19h60c19 0 24 -7 24 -23c0 -93 -34 -123 -98 -123c-74 0 -100 42 -133 42c-9 0 -14 -7 -14 -22c0 -14 -6 -20 -20 -20h-61zM93 0c-30 0 -40 10 -40 40v630
c0 30 10 40 40 40h117c30 0 40 -10 40 -40v-630c0 -30 -10 -40 -40 -40h-117z" />
    <glyph glyph-name="J" unicode="J" horiz-adv-x="591" 
d="M268 -15c-138 0 -221 62 -260 169c-11 29 -3 43 26 54l104 37c30 11 44 6 56 -25c17 -39 38 -60 78 -60c49 0 73 28 73 86v423c0 30 10 41 42 41h115c30 0 41 -11 41 -41v-422c0 -164 -94 -262 -275 -262z" />
    <glyph glyph-name="J" unicode="j" horiz-adv-x="591" 
d="M268 -15c-138 0 -221 62 -260 169c-11 29 -3 43 26 54l104 37c30 11 44 6 56 -25c17 -39 38 -60 78 -60c49 0 73 28 73 86v423c0 30 10 41 42 41h115c30 0 41 -11 41 -41v-422c0 -164 -94 -262 -275 -262z" />
    <glyph glyph-name="Jcircumflex" unicode="&#x134;" horiz-adv-x="591" 
d="M269 754c-32 0 -31 18 -15 34l102 102c27 27 34 30 77 30h32c35 0 44 -3 71 -30l102 -102c16 -16 17 -34 -15 -34h-84c-39 0 -51 2 -66 21l-29 36l-31 -35c-17 -20 -28 -22 -65 -22h-79zM268 -15c-138 0 -221 62 -260 169c-11 29 -3 43 26 54l104 37c30 11 44 6 56 -25
c17 -39 38 -60 78 -60c49 0 73 28 73 86v423c0 30 10 41 42 41h115c30 0 41 -11 41 -41v-422c0 -164 -94 -262 -275 -262z" />
    <glyph glyph-name="Jcircumflex" unicode="&#x135;" horiz-adv-x="591" 
d="M269 754c-32 0 -31 18 -15 34l102 102c27 27 34 30 77 30h32c35 0 44 -3 71 -30l102 -102c16 -16 17 -34 -15 -34h-84c-39 0 -51 2 -66 21l-29 36l-31 -35c-17 -20 -28 -22 -65 -22h-79zM268 -15c-138 0 -221 62 -260 169c-11 29 -3 43 26 54l104 37c30 11 44 6 56 -25
c17 -39 38 -60 78 -60c49 0 73 28 73 86v423c0 30 10 41 42 41h115c30 0 41 -11 41 -41v-422c0 -164 -94 -262 -275 -262z" />
    <glyph glyph-name="K" unicode="K" horiz-adv-x="659" 
d="M95 0c-32 0 -42 11 -42 42v626c0 31 10 42 42 42h113c32 0 42 -11 42 -42v-222l14 -1h8l144 228c19 31 29 37 80 37h115c30 0 40 -18 24 -44l-182 -289c24 -19 43 -44 61 -78l132 -250c14 -27 7 -49 -26 -49h-108c-53 0 -71 7 -88 42l-87 179c-16 33 -31 51 -69 51h-18
v-230c0 -31 -10 -42 -42 -42h-113z" />
    <glyph glyph-name="K" unicode="k" horiz-adv-x="659" 
d="M95 0c-32 0 -42 11 -42 42v626c0 31 10 42 42 42h113c32 0 42 -11 42 -42v-222l14 -1h8l144 228c19 31 29 37 80 37h115c30 0 40 -18 24 -44l-182 -289c24 -19 43 -44 61 -78l132 -250c14 -27 7 -49 -26 -49h-108c-53 0 -71 7 -88 42l-87 179c-16 33 -31 51 -69 51h-18
v-230c0 -31 -10 -42 -42 -42h-113z" />
    <glyph glyph-name="uni0136" unicode="&#x136;" horiz-adv-x="659" 
d="M95 0c-32 0 -42 11 -42 42v626c0 31 10 42 42 42h113c32 0 42 -11 42 -42v-222l14 -1h8l144 228c19 31 29 37 80 37h115c30 0 40 -18 24 -44l-182 -289c24 -19 43 -44 61 -78l132 -250c14 -27 7 -49 -26 -49h-108c-53 0 -71 7 -88 42l-87 179c-16 33 -31 51 -69 51h-18
v-230c0 -31 -10 -42 -42 -42h-113zM267 -260c-22 0 -29 8 -27 30l17 140c3 30 14 42 44 42h89c35 0 44 -16 34 -42l-48 -137c-8 -23 -19 -33 -45 -33h-64z" />
    <glyph glyph-name="uni0136" unicode="&#x137;" horiz-adv-x="659" 
d="M95 0c-32 0 -42 11 -42 42v626c0 31 10 42 42 42h113c32 0 42 -11 42 -42v-222l14 -1h8l144 228c19 31 29 37 80 37h115c30 0 40 -18 24 -44l-182 -289c24 -19 43 -44 61 -78l132 -250c14 -27 7 -49 -26 -49h-108c-53 0 -71 7 -88 42l-87 179c-16 33 -31 51 -69 51h-18
v-230c0 -31 -10 -42 -42 -42h-113zM267 -260c-22 0 -29 8 -27 30l17 140c3 30 14 42 44 42h89c35 0 44 -16 34 -42l-48 -137c-8 -23 -19 -33 -45 -33h-64z" />
    <glyph glyph-name="L" unicode="L" horiz-adv-x="546" 
d="M95 0c-32 0 -42 11 -42 42v626c0 31 10 42 42 42h113c32 0 42 -11 42 -42v-493h241c31 0 42 -10 42 -42v-91c0 -31 -11 -42 -42 -42h-396z" />
    <glyph glyph-name="L" unicode="l" horiz-adv-x="546" 
d="M95 0c-32 0 -42 11 -42 42v626c0 31 10 42 42 42h113c32 0 42 -11 42 -42v-493h241c31 0 42 -10 42 -42v-91c0 -31 -11 -42 -42 -42h-396z" />
    <glyph glyph-name="Lacute" unicode="&#x139;" horiz-adv-x="546" 
d="M92 757c-24 -7 -35 -9 -46 5l-27 33c-16 19 -15 28 2 38l141 81c23 13 46 19 66 -3l51 -58c18 -19 19 -31 -5 -40zM95 0c-32 0 -42 11 -42 42v626c0 31 10 42 42 42h113c32 0 42 -11 42 -42v-493h241c31 0 42 -10 42 -42v-91c0 -31 -11 -42 -42 -42h-396z" />
    <glyph glyph-name="Lacute" unicode="&#x13a;" horiz-adv-x="546" 
d="M92 757c-24 -7 -35 -9 -46 5l-27 33c-16 19 -15 28 2 38l141 81c23 13 46 19 66 -3l51 -58c18 -19 19 -31 -5 -40zM95 0c-32 0 -42 11 -42 42v626c0 31 10 42 42 42h113c32 0 42 -11 42 -42v-493h241c31 0 42 -10 42 -42v-91c0 -31 -11 -42 -42 -42h-396z" />
    <glyph glyph-name="Lcaron" unicode="&#x13d;" horiz-adv-x="549" 
d="M98 0c-31 0 -42 11 -42 42v626c0 31 11 42 42 42h113c32 0 43 -11 43 -42v-493h240c32 0 42 -10 42 -42v-91c0 -31 -10 -42 -42 -42h-396zM339 479c-22 0 -26 6 -24 26l19 166c3 30 13 39 44 39h90c35 0 42 -13 33 -39l-58 -158c-9 -26 -17 -34 -46 -34h-58z" />
    <glyph glyph-name="Lcaron" unicode="&#x13e;" horiz-adv-x="549" 
d="M98 0c-31 0 -42 11 -42 42v626c0 31 11 42 42 42h113c32 0 43 -11 43 -42v-493h240c32 0 42 -10 42 -42v-91c0 -31 -10 -42 -42 -42h-396zM339 479c-22 0 -26 6 -24 26l19 166c3 30 13 39 44 39h90c35 0 42 -13 33 -39l-58 -158c-9 -26 -17 -34 -46 -34h-58z" />
    <glyph glyph-name="uni013B" unicode="&#x13b;" horiz-adv-x="546" 
d="M95 0c-32 0 -42 11 -42 42v626c0 31 10 42 42 42h113c32 0 42 -11 42 -42v-493h241c31 0 42 -10 42 -42v-91c0 -31 -11 -42 -42 -42h-396zM213 -260c-22 0 -29 8 -27 30l17 140c3 30 14 42 44 42h89c35 0 44 -16 34 -42l-48 -137c-8 -23 -19 -33 -45 -33h-64z" />
    <glyph glyph-name="uni013B" unicode="&#x13c;" horiz-adv-x="546" 
d="M95 0c-32 0 -42 11 -42 42v626c0 31 10 42 42 42h113c32 0 42 -11 42 -42v-493h241c31 0 42 -10 42 -42v-91c0 -31 -11 -42 -42 -42h-396zM213 -260c-22 0 -29 8 -27 30l17 140c3 30 14 42 44 42h89c35 0 44 -16 34 -42l-48 -137c-8 -23 -19 -33 -45 -33h-64z" />
    <glyph glyph-name="Ldot" unicode="&#x13f;" horiz-adv-x="549" 
d="M95 0c-32 0 -42 11 -42 42v626c0 31 10 42 42 42h113c32 0 42 -11 42 -42v-493h241c31 0 42 -10 42 -42v-91c0 -31 -11 -42 -42 -42h-396zM389 314c-56 0 -75 18 -75 74v38c0 56 19 74 75 74h35c57 0 75 -18 75 -74v-38c0 -56 -18 -74 -75 -74h-35z" />
    <glyph glyph-name="Ldot" unicode="&#x140;" horiz-adv-x="549" 
d="M95 0c-32 0 -42 11 -42 42v626c0 31 10 42 42 42h113c32 0 42 -11 42 -42v-493h241c31 0 42 -10 42 -42v-91c0 -31 -11 -42 -42 -42h-396zM389 314c-56 0 -75 18 -75 74v38c0 56 19 74 75 74h35c57 0 75 -18 75 -74v-38c0 -56 -18 -74 -75 -74h-35z" />
    <glyph glyph-name="Lslash" unicode="&#x141;" horiz-adv-x="594" 
d="M142 0c-32 0 -42 11 -42 42v206l-40 -17c-23 -11 -32 -5 -41 12l-25 51c-8 16 -3 29 13 36l93 42v296c0 31 10 42 42 42h113c32 0 42 -11 42 -42v-208l113 50c23 10 33 4 41 -13l25 -51c7 -16 3 -28 -13 -35l-166 -74v-162h241c31 0 42 -10 42 -42v-91
c0 -31 -11 -42 -42 -42h-396z" />
    <glyph glyph-name="Lslash" unicode="&#x142;" horiz-adv-x="594" 
d="M142 0c-32 0 -42 11 -42 42v206l-40 -17c-23 -11 -32 -5 -41 12l-25 51c-8 16 -3 29 13 36l93 42v296c0 31 10 42 42 42h113c32 0 42 -11 42 -42v-208l113 50c23 10 33 4 41 -13l25 -51c7 -16 3 -28 -13 -35l-166 -74v-162h241c31 0 42 -10 42 -42v-91
c0 -31 -11 -42 -42 -42h-396z" />
    <glyph glyph-name="M" unicode="M" horiz-adv-x="829" 
d="M95 0c-32 0 -42 10 -42 41v628c0 31 10 41 42 41h94c34 0 47 -5 59 -31l165 -323l165 322c13 28 23 32 56 32h100c32 0 43 -10 43 -41v-628c0 -31 -11 -41 -43 -41h-109c-31 0 -42 10 -42 41v144c0 66 6 129 44 262h-10c-11 -33 -47 -125 -68 -166l-57 -113
c-10 -20 -20 -28 -47 -28h-67c-27 0 -37 6 -48 28l-59 113c-21 39 -52 130 -62 166h-10c36 -144 41 -194 41 -263v-143c0 -31 -11 -41 -43 -41h-102z" />
    <glyph glyph-name="M" unicode="m" horiz-adv-x="829" 
d="M95 0c-32 0 -42 10 -42 41v628c0 31 10 41 42 41h94c34 0 47 -5 59 -31l165 -323l165 322c13 28 23 32 56 32h100c32 0 43 -10 43 -41v-628c0 -31 -11 -41 -43 -41h-109c-31 0 -42 10 -42 41v144c0 66 6 129 44 262h-10c-11 -33 -47 -125 -68 -166l-57 -113
c-10 -20 -20 -28 -47 -28h-67c-27 0 -37 6 -48 28l-59 113c-21 39 -52 130 -62 166h-10c36 -144 41 -194 41 -263v-143c0 -31 -11 -41 -43 -41h-102z" />
    <glyph glyph-name="N" unicode="N" horiz-adv-x="704" 
d="M95 0c-32 0 -42 11 -42 42v626c0 31 10 42 42 42h118c22 0 33 -6 42 -20l164 -257c44 -68 53 -107 84 -182h8c-32 102 -45 151 -45 252v165c0 31 10 42 42 42h102c31 0 42 -11 42 -42v-626c0 -31 -11 -42 -42 -42h-113c-21 0 -32 6 -41 20l-154 238
c-44 69 -61 116 -88 205h-8c21 -94 33 -146 33 -258v-163c0 -31 -11 -42 -43 -42h-101z" />
    <glyph glyph-name="N" unicode="n" horiz-adv-x="704" 
d="M95 0c-32 0 -42 11 -42 42v626c0 31 10 42 42 42h118c22 0 33 -6 42 -20l164 -257c44 -68 53 -107 84 -182h8c-32 102 -45 151 -45 252v165c0 31 10 42 42 42h102c31 0 42 -11 42 -42v-626c0 -31 -11 -42 -42 -42h-113c-21 0 -32 6 -41 20l-154 238
c-44 69 -61 116 -88 205h-8c21 -94 33 -146 33 -258v-163c0 -31 -11 -42 -43 -42h-101z" />
    <glyph glyph-name="Nacute" unicode="&#x143;" horiz-adv-x="704" 
d="M295 757c-24 -7 -35 -9 -46 5l-27 33c-16 19 -15 28 2 38l141 81c23 13 46 19 66 -3l51 -58c18 -19 19 -31 -5 -40zM95 0c-32 0 -42 11 -42 42v626c0 31 10 42 42 42h118c22 0 33 -6 42 -20l164 -257c44 -68 53 -107 84 -182h8c-32 102 -45 151 -45 252v165
c0 31 10 42 42 42h102c31 0 42 -11 42 -42v-626c0 -31 -11 -42 -42 -42h-113c-21 0 -32 6 -41 20l-154 238c-44 69 -61 116 -88 205h-8c21 -94 33 -146 33 -258v-163c0 -31 -11 -42 -43 -42h-101z" />
    <glyph glyph-name="Nacute" unicode="&#x144;" horiz-adv-x="704" 
d="M295 757c-24 -7 -35 -9 -46 5l-27 33c-16 19 -15 28 2 38l141 81c23 13 46 19 66 -3l51 -58c18 -19 19 -31 -5 -40zM95 0c-32 0 -42 11 -42 42v626c0 31 10 42 42 42h118c22 0 33 -6 42 -20l164 -257c44 -68 53 -107 84 -182h8c-32 102 -45 151 -45 252v165
c0 31 10 42 42 42h102c31 0 42 -11 42 -42v-626c0 -31 -11 -42 -42 -42h-113c-21 0 -32 6 -41 20l-154 238c-44 69 -61 116 -88 205h-8c21 -94 33 -146 33 -258v-163c0 -31 -11 -42 -43 -42h-101z" />
    <glyph glyph-name="Ncaron" unicode="&#x147;" horiz-adv-x="704" 
d="M341 754c-38 0 -46 2 -73 29l-101 102c-16 16 -20 35 12 35h84c39 0 50 -3 65 -22l31 -34l30 34c16 19 28 22 65 22h76c33 0 29 -19 13 -35l-100 -102c-27 -27 -35 -29 -75 -29h-27zM95 0c-32 0 -42 11 -42 42v626c0 31 10 42 42 42h118c22 0 33 -6 42 -20l164 -257
c44 -68 53 -107 84 -182h8c-32 102 -45 151 -45 252v165c0 31 10 42 42 42h102c31 0 42 -11 42 -42v-626c0 -31 -11 -42 -42 -42h-113c-21 0 -32 6 -41 20l-154 238c-44 69 -61 116 -88 205h-8c21 -94 33 -146 33 -258v-163c0 -31 -11 -42 -43 -42h-101z" />
    <glyph glyph-name="Ncaron" unicode="&#x148;" horiz-adv-x="704" 
d="M341 754c-38 0 -46 2 -73 29l-101 102c-16 16 -20 35 12 35h84c39 0 50 -3 65 -22l31 -34l30 34c16 19 28 22 65 22h76c33 0 29 -19 13 -35l-100 -102c-27 -27 -35 -29 -75 -29h-27zM95 0c-32 0 -42 11 -42 42v626c0 31 10 42 42 42h118c22 0 33 -6 42 -20l164 -257
c44 -68 53 -107 84 -182h8c-32 102 -45 151 -45 252v165c0 31 10 42 42 42h102c31 0 42 -11 42 -42v-626c0 -31 -11 -42 -42 -42h-113c-21 0 -32 6 -41 20l-154 238c-44 69 -61 116 -88 205h-8c21 -94 33 -146 33 -258v-163c0 -31 -11 -42 -43 -42h-101z" />
    <glyph glyph-name="uni0145" unicode="&#x145;" horiz-adv-x="704" 
d="M95 0c-32 0 -42 11 -42 42v626c0 31 10 42 42 42h118c22 0 33 -6 42 -20l164 -257c44 -68 53 -107 84 -182h8c-32 102 -45 151 -45 252v165c0 31 10 42 42 42h102c31 0 42 -11 42 -42v-626c0 -31 -11 -42 -42 -42h-113c-21 0 -32 6 -41 20l-154 238
c-44 69 -61 116 -88 205h-8c21 -94 33 -146 33 -258v-163c0 -31 -11 -42 -43 -42h-101zM285 -260c-22 0 -29 8 -27 30l17 140c3 30 14 42 44 42h89c35 0 44 -16 34 -42l-48 -137c-8 -23 -19 -33 -45 -33h-64z" />
    <glyph glyph-name="uni0145" unicode="&#x146;" horiz-adv-x="704" 
d="M95 0c-32 0 -42 11 -42 42v626c0 31 10 42 42 42h118c22 0 33 -6 42 -20l164 -257c44 -68 53 -107 84 -182h8c-32 102 -45 151 -45 252v165c0 31 10 42 42 42h102c31 0 42 -11 42 -42v-626c0 -31 -11 -42 -42 -42h-113c-21 0 -32 6 -41 20l-154 238
c-44 69 -61 116 -88 205h-8c21 -94 33 -146 33 -258v-163c0 -31 -11 -42 -43 -42h-101zM285 -260c-22 0 -29 8 -27 30l17 140c3 30 14 42 44 42h89c35 0 44 -16 34 -42l-48 -137c-8 -23 -19 -33 -45 -33h-64z" />
    <glyph glyph-name="Eng" unicode="&#x14a;" horiz-adv-x="704" 
d="M398 -230c-30 0 -40 10 -40 39v85c0 30 10 39 40 39c49 0 65 25 65 69v9l-161 247c-44 69 -61 116 -88 205h-8c21 -94 33 -146 33 -258v-163c0 -31 -11 -42 -43 -42h-101c-32 0 -42 11 -42 42v626c0 31 10 42 42 42h118c22 0 33 -6 42 -20l164 -257
c44 -68 53 -107 84 -182h8c-32 102 -45 151 -45 252v165c0 31 10 42 42 42h102c31 0 42 -11 42 -42v-678c0 -153 -86 -220 -254 -220z" />
    <glyph glyph-name="Eng" unicode="&#x14b;" horiz-adv-x="704" 
d="M398 -230c-30 0 -40 10 -40 39v85c0 30 10 39 40 39c49 0 65 25 65 69v9l-161 247c-44 69 -61 116 -88 205h-8c21 -94 33 -146 33 -258v-163c0 -31 -11 -42 -43 -42h-101c-32 0 -42 11 -42 42v626c0 31 10 42 42 42h118c22 0 33 -6 42 -20l164 -257
c44 -68 53 -107 84 -182h8c-32 102 -45 151 -45 252v165c0 31 10 42 42 42h102c31 0 42 -11 42 -42v-678c0 -153 -86 -220 -254 -220z" />
    <glyph glyph-name="Ntilde" unicode="&#xd1;" horiz-adv-x="704" 
d="M199 763c-17 0 -23 8 -23 23c0 95 38 123 96 123c76 0 103 -41 135 -41c10 0 15 6 15 22c0 14 5 19 19 19h60c19 0 24 -7 24 -23c0 -93 -34 -123 -98 -123c-74 0 -100 42 -133 42c-9 0 -14 -7 -14 -22c0 -14 -6 -20 -20 -20h-61zM95 0c-32 0 -42 11 -42 42v626
c0 31 10 42 42 42h118c22 0 33 -6 42 -20l164 -257c44 -68 53 -107 84 -182h8c-32 102 -45 151 -45 252v165c0 31 10 42 42 42h102c31 0 42 -11 42 -42v-626c0 -31 -11 -42 -42 -42h-113c-21 0 -32 6 -41 20l-154 238c-44 69 -61 116 -88 205h-8c21 -94 33 -146 33 -258
v-163c0 -31 -11 -42 -43 -42h-101z" />
    <glyph glyph-name="Ntilde" unicode="&#xf1;" horiz-adv-x="704" 
d="M199 763c-17 0 -23 8 -23 23c0 95 38 123 96 123c76 0 103 -41 135 -41c10 0 15 6 15 22c0 14 5 19 19 19h60c19 0 24 -7 24 -23c0 -93 -34 -123 -98 -123c-74 0 -100 42 -133 42c-9 0 -14 -7 -14 -22c0 -14 -6 -20 -20 -20h-61zM95 0c-32 0 -42 11 -42 42v626
c0 31 10 42 42 42h118c22 0 33 -6 42 -20l164 -257c44 -68 53 -107 84 -182h8c-32 102 -45 151 -45 252v165c0 31 10 42 42 42h102c31 0 42 -11 42 -42v-626c0 -31 -11 -42 -42 -42h-113c-21 0 -32 6 -41 20l-154 238c-44 69 -61 116 -88 205h-8c21 -94 33 -146 33 -258
v-163c0 -31 -11 -42 -43 -42h-101z" />
    <glyph glyph-name="O" unicode="O" horiz-adv-x="686" 
d="M343 -15c-198 0 -307 107 -307 279v182c0 172 109 279 307 279c197 0 307 -107 307 -279v-182c0 -172 -110 -279 -307 -279zM343 160c69 0 109 33 109 96v198c0 63 -40 96 -109 96c-70 0 -110 -33 -110 -96v-198c0 -63 40 -96 110 -96z" />
    <glyph glyph-name="O" unicode="o" horiz-adv-x="686" 
d="M343 -15c-198 0 -307 107 -307 279v182c0 172 109 279 307 279c197 0 307 -107 307 -279v-182c0 -172 -110 -279 -307 -279zM343 160c69 0 109 33 109 96v198c0 63 -40 96 -109 96c-70 0 -110 -33 -110 -96v-198c0 -63 40 -96 110 -96z" />
    <glyph glyph-name="Oacute" unicode="&#xd3;" horiz-adv-x="686" 
d="M283 767c-24 -7 -35 -9 -46 5l-27 33c-16 19 -15 28 2 38l141 81c23 13 46 19 66 -3l51 -58c18 -19 19 -31 -5 -40zM343 -15c-198 0 -307 107 -307 279v182c0 172 109 279 307 279c197 0 307 -107 307 -279v-182c0 -172 -110 -279 -307 -279zM343 160c69 0 109 33 109 96
v198c0 63 -40 96 -109 96c-70 0 -110 -33 -110 -96v-198c0 -63 40 -96 110 -96z" />
    <glyph glyph-name="Oacute" unicode="&#xf3;" horiz-adv-x="686" 
d="M283 767c-24 -7 -35 -9 -46 5l-27 33c-16 19 -15 28 2 38l141 81c23 13 46 19 66 -3l51 -58c18 -19 19 -31 -5 -40zM343 -15c-198 0 -307 107 -307 279v182c0 172 109 279 307 279c197 0 307 -107 307 -279v-182c0 -172 -110 -279 -307 -279zM343 160c69 0 109 33 109 96
v198c0 63 -40 96 -109 96c-70 0 -110 -33 -110 -96v-198c0 -63 40 -96 110 -96z" />
    <glyph glyph-name="Obreve" unicode="&#x14e;" horiz-adv-x="686" 
d="M343 764c-88 0 -150 38 -176 106c-7 19 -2 27 17 35l66 25c22 8 28 5 38 -12c12 -22 29 -33 55 -33c25 0 41 11 54 33c10 17 16 19 36 13l70 -26c19 -7 24 -16 17 -35c-26 -68 -88 -106 -177 -106zM343 -15c-198 0 -307 107 -307 279v182c0 172 109 279 307 279
c197 0 307 -107 307 -279v-182c0 -172 -110 -279 -307 -279zM343 160c69 0 109 33 109 96v198c0 63 -40 96 -109 96c-70 0 -110 -33 -110 -96v-198c0 -63 40 -96 110 -96z" />
    <glyph glyph-name="Obreve" unicode="&#x14f;" horiz-adv-x="686" 
d="M343 764c-88 0 -150 38 -176 106c-7 19 -2 27 17 35l66 25c22 8 28 5 38 -12c12 -22 29 -33 55 -33c25 0 41 11 54 33c10 17 16 19 36 13l70 -26c19 -7 24 -16 17 -35c-26 -68 -88 -106 -177 -106zM343 -15c-198 0 -307 107 -307 279v182c0 172 109 279 307 279
c197 0 307 -107 307 -279v-182c0 -172 -110 -279 -307 -279zM343 160c69 0 109 33 109 96v198c0 63 -40 96 -109 96c-70 0 -110 -33 -110 -96v-198c0 -63 40 -96 110 -96z" />
    <glyph glyph-name="Ocircumflex" unicode="&#xd4;" horiz-adv-x="686" 
d="M168 764c-32 0 -31 18 -15 34l102 102c27 27 34 30 77 30h32c35 0 44 -3 71 -30l102 -102c16 -16 17 -34 -15 -34h-84c-39 0 -51 2 -66 21l-29 36l-31 -35c-17 -20 -28 -22 -65 -22h-79zM343 -15c-198 0 -307 107 -307 279v182c0 172 109 279 307 279
c197 0 307 -107 307 -279v-182c0 -172 -110 -279 -307 -279zM343 160c69 0 109 33 109 96v198c0 63 -40 96 -109 96c-70 0 -110 -33 -110 -96v-198c0 -63 40 -96 110 -96z" />
    <glyph glyph-name="Ocircumflex" unicode="&#xf4;" horiz-adv-x="686" 
d="M168 764c-32 0 -31 18 -15 34l102 102c27 27 34 30 77 30h32c35 0 44 -3 71 -30l102 -102c16 -16 17 -34 -15 -34h-84c-39 0 -51 2 -66 21l-29 36l-31 -35c-17 -20 -28 -22 -65 -22h-79zM343 -15c-198 0 -307 107 -307 279v182c0 172 109 279 307 279
c197 0 307 -107 307 -279v-182c0 -172 -110 -279 -307 -279zM343 160c69 0 109 33 109 96v198c0 63 -40 96 -109 96c-70 0 -110 -33 -110 -96v-198c0 -63 40 -96 110 -96z" />
    <glyph glyph-name="Odieresis" unicode="&#xd6;" horiz-adv-x="686" 
d="M231 769c-55 0 -71 18 -71 71v13c0 54 16 71 71 71h8c56 0 74 -17 74 -71v-13c0 -53 -18 -71 -74 -71h-8zM447 769c-56 0 -74 18 -74 71v13c0 54 18 71 74 71h7c56 0 72 -17 72 -71v-13c0 -53 -16 -71 -72 -71h-7zM343 -15c-198 0 -307 107 -307 279v182
c0 172 109 279 307 279c197 0 307 -107 307 -279v-182c0 -172 -110 -279 -307 -279zM343 160c69 0 109 33 109 96v198c0 63 -40 96 -109 96c-70 0 -110 -33 -110 -96v-198c0 -63 40 -96 110 -96z" />
    <glyph glyph-name="Odieresis" unicode="&#xf6;" horiz-adv-x="686" 
d="M231 769c-55 0 -71 18 -71 71v13c0 54 16 71 71 71h8c56 0 74 -17 74 -71v-13c0 -53 -18 -71 -74 -71h-8zM447 769c-56 0 -74 18 -74 71v13c0 54 18 71 74 71h7c56 0 72 -17 72 -71v-13c0 -53 -16 -71 -72 -71h-7zM343 -15c-198 0 -307 107 -307 279v182
c0 172 109 279 307 279c197 0 307 -107 307 -279v-182c0 -172 -110 -279 -307 -279zM343 160c69 0 109 33 109 96v198c0 63 -40 96 -109 96c-70 0 -110 -33 -110 -96v-198c0 -63 40 -96 110 -96z" />
    <glyph glyph-name="Ograve" unicode="&#xd2;" horiz-adv-x="686" 
d="M225 824c-24 8 -23 20 -6 40l51 60c19 22 43 16 66 3l141 -83c18 -10 18 -20 3 -38l-28 -34c-10 -13 -22 -12 -46 -4zM343 -15c-198 0 -307 107 -307 279v182c0 172 109 279 307 279c197 0 307 -107 307 -279v-182c0 -172 -110 -279 -307 -279zM343 160
c69 0 109 33 109 96v198c0 63 -40 96 -109 96c-70 0 -110 -33 -110 -96v-198c0 -63 40 -96 110 -96z" />
    <glyph glyph-name="Ograve" unicode="&#xf2;" horiz-adv-x="686" 
d="M225 824c-24 8 -23 20 -6 40l51 60c19 22 43 16 66 3l141 -83c18 -10 18 -20 3 -38l-28 -34c-10 -13 -22 -12 -46 -4zM343 -15c-198 0 -307 107 -307 279v182c0 172 109 279 307 279c197 0 307 -107 307 -279v-182c0 -172 -110 -279 -307 -279zM343 160
c69 0 109 33 109 96v198c0 63 -40 96 -109 96c-70 0 -110 -33 -110 -96v-198c0 -63 40 -96 110 -96z" />
    <glyph glyph-name="Ohungarumlaut" unicode="&#x150;" horiz-adv-x="686" 
d="M173 774c-25 5 -25 21 -13 38l71 95c17 24 35 32 65 26l67 -15c27 -6 30 -25 11 -42l-113 -95c-19 -16 -26 -20 -44 -15zM365 773c-25 5 -25 22 -11 38l75 96c19 23 36 32 66 24l69 -18c27 -8 32 -27 11 -43l-122 -92c-18 -15 -26 -19 -44 -15zM343 -15
c-198 0 -307 107 -307 279v182c0 172 109 279 307 279c197 0 307 -107 307 -279v-182c0 -172 -110 -279 -307 -279zM343 160c69 0 109 33 109 96v198c0 63 -40 96 -109 96c-70 0 -110 -33 -110 -96v-198c0 -63 40 -96 110 -96z" />
    <glyph glyph-name="Ohungarumlaut" unicode="&#x151;" horiz-adv-x="686" 
d="M173 774c-25 5 -25 21 -13 38l71 95c17 24 35 32 65 26l67 -15c27 -6 30 -25 11 -42l-113 -95c-19 -16 -26 -20 -44 -15zM365 773c-25 5 -25 22 -11 38l75 96c19 23 36 32 66 24l69 -18c27 -8 32 -27 11 -43l-122 -92c-18 -15 -26 -19 -44 -15zM343 -15
c-198 0 -307 107 -307 279v182c0 172 109 279 307 279c197 0 307 -107 307 -279v-182c0 -172 -110 -279 -307 -279zM343 160c69 0 109 33 109 96v198c0 63 -40 96 -109 96c-70 0 -110 -33 -110 -96v-198c0 -63 40 -96 110 -96z" />
    <glyph glyph-name="Omacron" unicode="&#x14c;" horiz-adv-x="686" 
d="M221 788c-28 0 -36 7 -36 36v42c0 29 11 36 36 36h244c28 0 36 -7 36 -36v-42c0 -29 -8 -36 -36 -36h-244zM343 -15c-198 0 -307 107 -307 279v182c0 172 109 279 307 279c197 0 307 -107 307 -279v-182c0 -172 -110 -279 -307 -279zM343 160c69 0 109 33 109 96v198
c0 63 -40 96 -109 96c-70 0 -110 -33 -110 -96v-198c0 -63 40 -96 110 -96z" />
    <glyph glyph-name="Omacron" unicode="&#x14d;" horiz-adv-x="686" 
d="M221 788c-28 0 -36 7 -36 36v42c0 29 11 36 36 36h244c28 0 36 -7 36 -36v-42c0 -29 -8 -36 -36 -36h-244zM343 -15c-198 0 -307 107 -307 279v182c0 172 109 279 307 279c197 0 307 -107 307 -279v-182c0 -172 -110 -279 -307 -279zM343 160c69 0 109 33 109 96v198
c0 63 -40 96 -109 96c-70 0 -110 -33 -110 -96v-198c0 -63 40 -96 110 -96z" />
    <glyph glyph-name="Oslash" unicode="&#xd8;" horiz-adv-x="686" 
d="M37 -42c-14 0 -16 9 -9 19l67 103c-39 47 -59 110 -59 184v182c0 172 109 279 307 279c61 0 113 -10 156 -29l27 41c10 15 15 16 34 16h96c12 0 15 -8 9 -18l-72 -109c37 -46 57 -107 57 -180v-182c0 -172 -110 -278 -307 -279c-59 0 -111 9 -153 27l-25 -38
c-10 -15 -12 -16 -35 -16h-93zM402 538c-16 8 -36 12 -59 12c-70 0 -110 -33 -110 -96v-146c0 -10 1 -18 1 -27zM343 160c69 0 109 33 109 96v167l-166 -253c16 -7 35 -10 57 -10z" />
    <glyph glyph-name="Oslash" unicode="&#xf8;" horiz-adv-x="686" 
d="M37 -42c-14 0 -16 9 -9 19l67 103c-39 47 -59 110 -59 184v182c0 172 109 279 307 279c61 0 113 -10 156 -29l27 41c10 15 15 16 34 16h96c12 0 15 -8 9 -18l-72 -109c37 -46 57 -107 57 -180v-182c0 -172 -110 -278 -307 -279c-59 0 -111 9 -153 27l-25 -38
c-10 -15 -12 -16 -35 -16h-93zM402 538c-16 8 -36 12 -59 12c-70 0 -110 -33 -110 -96v-146c0 -10 1 -18 1 -27zM343 160c69 0 109 33 109 96v167l-166 -253c16 -7 35 -10 57 -10z" />
    <glyph glyph-name="Oslashacute" unicode="&#x1fe;" horiz-adv-x="686" 
d="M283 767c-24 -7 -35 -9 -46 5l-27 33c-16 19 -15 28 2 38l141 81c23 13 46 19 66 -3l51 -58c18 -19 19 -31 -5 -40zM37 -42c-14 0 -16 9 -9 19l67 103c-39 47 -59 110 -59 184v182c0 172 109 279 307 279c61 0 113 -10 156 -29l27 41c10 15 15 16 34 16h96
c12 0 15 -8 9 -18l-72 -109c37 -46 57 -107 57 -180v-182c0 -172 -110 -278 -307 -279c-59 0 -111 9 -153 27l-25 -38c-10 -15 -12 -16 -35 -16h-93zM402 538c-16 8 -36 12 -59 12c-70 0 -110 -33 -110 -96v-146c0 -10 1 -18 1 -27zM343 160c69 0 109 33 109 96v167
l-166 -253c16 -7 35 -10 57 -10z" />
    <glyph glyph-name="Oslashacute" unicode="&#x1ff;" horiz-adv-x="686" 
d="M283 767c-24 -7 -35 -9 -46 5l-27 33c-16 19 -15 28 2 38l141 81c23 13 46 19 66 -3l51 -58c18 -19 19 -31 -5 -40zM37 -42c-14 0 -16 9 -9 19l67 103c-39 47 -59 110 -59 184v182c0 172 109 279 307 279c61 0 113 -10 156 -29l27 41c10 15 15 16 34 16h96
c12 0 15 -8 9 -18l-72 -109c37 -46 57 -107 57 -180v-182c0 -172 -110 -278 -307 -279c-59 0 -111 9 -153 27l-25 -38c-10 -15 -12 -16 -35 -16h-93zM402 538c-16 8 -36 12 -59 12c-70 0 -110 -33 -110 -96v-146c0 -10 1 -18 1 -27zM343 160c69 0 109 33 109 96v167
l-166 -253c16 -7 35 -10 57 -10z" />
    <glyph glyph-name="Otilde" unicode="&#xd5;" horiz-adv-x="686" 
d="M187 773c-17 0 -23 8 -23 23c0 95 38 123 96 123c76 0 103 -41 135 -41c10 0 15 6 15 22c0 14 5 19 19 19h60c19 0 24 -7 24 -23c0 -93 -34 -123 -98 -123c-74 0 -100 42 -133 42c-9 0 -14 -7 -14 -22c0 -14 -6 -20 -20 -20h-61zM343 -15c-198 0 -307 107 -307 279v182
c0 172 109 279 307 279c197 0 307 -107 307 -279v-182c0 -172 -110 -279 -307 -279zM343 160c69 0 109 33 109 96v198c0 63 -40 96 -109 96c-70 0 -110 -33 -110 -96v-198c0 -63 40 -96 110 -96z" />
    <glyph glyph-name="Otilde" unicode="&#xf5;" horiz-adv-x="686" 
d="M187 773c-17 0 -23 8 -23 23c0 95 38 123 96 123c76 0 103 -41 135 -41c10 0 15 6 15 22c0 14 5 19 19 19h60c19 0 24 -7 24 -23c0 -93 -34 -123 -98 -123c-74 0 -100 42 -133 42c-9 0 -14 -7 -14 -22c0 -14 -6 -20 -20 -20h-61zM343 -15c-198 0 -307 107 -307 279v182
c0 172 109 279 307 279c197 0 307 -107 307 -279v-182c0 -172 -110 -279 -307 -279zM343 160c69 0 109 33 109 96v198c0 63 -40 96 -109 96c-70 0 -110 -33 -110 -96v-198c0 -63 40 -96 110 -96z" />
    <glyph glyph-name="OE" unicode="&#x152;" horiz-adv-x="888" 
d="M343 -15c-198 0 -307 107 -307 279v182c0 172 109 279 307 279c43 0 82 -5 116 -15h351c32 0 43 -11 43 -42v-90c0 -32 -11 -42 -43 -42h-210v-90h157c32 0 43 -11 43 -43v-89c0 -32 -11 -43 -43 -43h-157v-96h219c31 0 42 -10 42 -42v-91c0 -31 -11 -42 -42 -42h-352
c-39 -12 -78 -15 -124 -15zM343 160c23 0 43 4 60 12v367c-17 7 -37 11 -60 11c-70 0 -110 -33 -110 -96v-198c0 -63 40 -96 110 -96z" />
    <glyph glyph-name="OE" unicode="&#x153;" horiz-adv-x="888" 
d="M343 -15c-198 0 -307 107 -307 279v182c0 172 109 279 307 279c43 0 82 -5 116 -15h351c32 0 43 -11 43 -42v-90c0 -32 -11 -42 -43 -42h-210v-90h157c32 0 43 -11 43 -43v-89c0 -32 -11 -43 -43 -43h-157v-96h219c31 0 42 -10 42 -42v-91c0 -31 -11 -42 -42 -42h-352
c-39 -12 -78 -15 -124 -15zM343 160c23 0 43 4 60 12v367c-17 7 -37 11 -60 11c-70 0 -110 -33 -110 -96v-198c0 -63 40 -96 110 -96z" />
    <glyph glyph-name="P" unicode="P" horiz-adv-x="651" 
d="M95 0c-32 0 -42 11 -42 42v626c0 31 10 42 42 42h276c156 0 258 -91 258 -250c0 -157 -101 -247 -256 -247h-123v-171c0 -31 -10 -42 -42 -42h-113zM349 388c47 0 75 29 75 74c0 44 -27 74 -75 74h-99v-148h99z" />
    <glyph glyph-name="P" unicode="p" horiz-adv-x="651" 
d="M95 0c-32 0 -42 11 -42 42v626c0 31 10 42 42 42h276c156 0 258 -91 258 -250c0 -157 -101 -247 -256 -247h-123v-171c0 -31 -10 -42 -42 -42h-113zM349 388c47 0 75 29 75 74c0 44 -27 74 -75 74h-99v-148h99z" />
    <glyph glyph-name="Thorn" unicode="&#xde;" horiz-adv-x="640" 
d="M94 0c-31 0 -42 11 -42 42v626c0 31 11 42 42 42h113c31 0 42 -11 42 -42v-48h108c161 0 265 -99 265 -261c0 -161 -104 -259 -265 -259h-108v-58c0 -31 -11 -42 -42 -42h-113zM332 275c53 0 86 36 86 85c0 48 -33 85 -86 85h-83v-170h83z" />
    <glyph glyph-name="Thorn" unicode="&#xfe;" horiz-adv-x="640" 
d="M94 0c-31 0 -42 11 -42 42v626c0 31 11 42 42 42h113c31 0 42 -11 42 -42v-48h108c161 0 265 -99 265 -261c0 -161 -104 -259 -265 -259h-108v-58c0 -31 -11 -42 -42 -42h-113zM332 275c53 0 86 36 86 85c0 48 -33 85 -86 85h-83v-170h83z" />
    <glyph glyph-name="Q" unicode="Q" horiz-adv-x="699" 
d="M456 -1c-33 -9 -71 -14 -113 -14c-198 0 -307 107 -307 279v182c0 172 109 279 307 279c197 0 307 -107 307 -279v-182c0 -65 -15 -120 -46 -164l54 -65c21 -24 20 -39 -5 -60l-73 -58c-23 -20 -39 -19 -59 5zM343 160c69 0 109 33 109 96v198c0 63 -40 96 -109 96
c-70 0 -110 -33 -110 -96v-198c0 -63 40 -96 110 -96z" />
    <glyph glyph-name="Q" unicode="q" horiz-adv-x="699" 
d="M456 -1c-33 -9 -71 -14 -113 -14c-198 0 -307 107 -307 279v182c0 172 109 279 307 279c197 0 307 -107 307 -279v-182c0 -65 -15 -120 -46 -164l54 -65c21 -24 20 -39 -5 -60l-73 -58c-23 -20 -39 -19 -59 5zM343 160c69 0 109 33 109 96v198c0 63 -40 96 -109 96
c-70 0 -110 -33 -110 -96v-198c0 -63 40 -96 110 -96z" />
    <glyph glyph-name="R" unicode="R" horiz-adv-x="665" 
d="M95 0c-32 0 -42 11 -42 42v626c0 31 10 42 42 42h285c151 0 249 -86 249 -241c0 -97 -40 -168 -108 -206c10 -13 19 -27 27 -43l90 -171c14 -27 7 -49 -26 -49h-108c-53 0 -75 13 -92 48l-64 137c-17 34 -34 51 -75 51h-23v-194c0 -31 -10 -42 -42 -42h-113zM358 403
c42 0 66 26 66 67s-23 66 -66 66h-108v-133h108z" />
    <glyph glyph-name="R" unicode="r" horiz-adv-x="665" 
d="M95 0c-32 0 -42 11 -42 42v626c0 31 10 42 42 42h285c151 0 249 -86 249 -241c0 -97 -40 -168 -108 -206c10 -13 19 -27 27 -43l90 -171c14 -27 7 -49 -26 -49h-108c-53 0 -75 13 -92 48l-64 137c-17 34 -34 51 -75 51h-23v-194c0 -31 -10 -42 -42 -42h-113zM358 403
c42 0 66 26 66 67s-23 66 -66 66h-108v-133h108z" />
    <glyph glyph-name="Racute" unicode="&#x154;" horiz-adv-x="665" 
d="M261 757c-24 -7 -35 -9 -46 5l-27 33c-16 19 -15 28 2 38l141 81c23 13 46 19 66 -3l51 -58c18 -19 19 -31 -5 -40zM95 0c-32 0 -42 11 -42 42v626c0 31 10 42 42 42h285c151 0 249 -86 249 -241c0 -97 -40 -168 -108 -206c10 -13 19 -27 27 -43l90 -171
c14 -27 7 -49 -26 -49h-108c-53 0 -75 13 -92 48l-64 137c-17 34 -34 51 -75 51h-23v-194c0 -31 -10 -42 -42 -42h-113zM358 403c42 0 66 26 66 67s-23 66 -66 66h-108v-133h108z" />
    <glyph glyph-name="Racute" unicode="&#x155;" horiz-adv-x="665" 
d="M261 757c-24 -7 -35 -9 -46 5l-27 33c-16 19 -15 28 2 38l141 81c23 13 46 19 66 -3l51 -58c18 -19 19 -31 -5 -40zM95 0c-32 0 -42 11 -42 42v626c0 31 10 42 42 42h285c151 0 249 -86 249 -241c0 -97 -40 -168 -108 -206c10 -13 19 -27 27 -43l90 -171
c14 -27 7 -49 -26 -49h-108c-53 0 -75 13 -92 48l-64 137c-17 34 -34 51 -75 51h-23v-194c0 -31 -10 -42 -42 -42h-113zM358 403c42 0 66 26 66 67s-23 66 -66 66h-108v-133h108z" />
    <glyph glyph-name="Rcaron" unicode="&#x158;" horiz-adv-x="665" 
d="M307 754c-38 0 -46 2 -73 29l-101 102c-16 16 -20 35 12 35h84c39 0 50 -3 65 -22l31 -34l30 34c16 19 28 22 65 22h76c33 0 29 -19 13 -35l-100 -102c-27 -27 -35 -29 -75 -29h-27zM95 0c-32 0 -42 11 -42 42v626c0 31 10 42 42 42h285c151 0 249 -86 249 -241
c0 -97 -40 -168 -108 -206c10 -13 19 -27 27 -43l90 -171c14 -27 7 -49 -26 -49h-108c-53 0 -75 13 -92 48l-64 137c-17 34 -34 51 -75 51h-23v-194c0 -31 -10 -42 -42 -42h-113zM358 403c42 0 66 26 66 67s-23 66 -66 66h-108v-133h108z" />
    <glyph glyph-name="Rcaron" unicode="&#x159;" horiz-adv-x="665" 
d="M307 754c-38 0 -46 2 -73 29l-101 102c-16 16 -20 35 12 35h84c39 0 50 -3 65 -22l31 -34l30 34c16 19 28 22 65 22h76c33 0 29 -19 13 -35l-100 -102c-27 -27 -35 -29 -75 -29h-27zM95 0c-32 0 -42 11 -42 42v626c0 31 10 42 42 42h285c151 0 249 -86 249 -241
c0 -97 -40 -168 -108 -206c10 -13 19 -27 27 -43l90 -171c14 -27 7 -49 -26 -49h-108c-53 0 -75 13 -92 48l-64 137c-17 34 -34 51 -75 51h-23v-194c0 -31 -10 -42 -42 -42h-113zM358 403c42 0 66 26 66 67s-23 66 -66 66h-108v-133h108z" />
    <glyph glyph-name="uni0156" unicode="&#x156;" horiz-adv-x="665" 
d="M95 0c-32 0 -42 11 -42 42v626c0 31 10 42 42 42h285c151 0 249 -86 249 -241c0 -97 -40 -168 -108 -206c10 -13 19 -27 27 -43l90 -171c14 -27 7 -49 -26 -49h-108c-53 0 -75 13 -92 48l-64 137c-17 34 -34 51 -75 51h-23v-194c0 -31 -10 -42 -42 -42h-113zM358 403
c42 0 66 26 66 67s-23 66 -66 66h-108v-133h108zM273 -260c-22 0 -29 8 -27 30l17 140c3 30 14 42 44 42h89c35 0 44 -16 34 -42l-48 -137c-8 -23 -19 -33 -45 -33h-64z" />
    <glyph glyph-name="uni0156" unicode="&#x157;" horiz-adv-x="665" 
d="M95 0c-32 0 -42 11 -42 42v626c0 31 10 42 42 42h285c151 0 249 -86 249 -241c0 -97 -40 -168 -108 -206c10 -13 19 -27 27 -43l90 -171c14 -27 7 -49 -26 -49h-108c-53 0 -75 13 -92 48l-64 137c-17 34 -34 51 -75 51h-23v-194c0 -31 -10 -42 -42 -42h-113zM358 403
c42 0 66 26 66 67s-23 66 -66 66h-108v-133h108zM273 -260c-22 0 -29 8 -27 30l17 140c3 30 14 42 44 42h89c35 0 44 -16 34 -42l-48 -137c-8 -23 -19 -33 -45 -33h-64z" />
    <glyph glyph-name="S" unicode="S" horiz-adv-x="651" 
d="M319 -15c-149 0 -253 51 -291 155c-10 30 -2 44 27 55l94 34c30 10 43 7 59 -22c18 -35 57 -53 113 -53c67 0 108 14 108 57c0 40 -52 50 -118 59c-117 17 -281 37 -281 231c0 132 106 224 297 224c148 0 232 -44 279 -140c14 -29 6 -44 -24 -56l-99 -43
c-28 -12 -39 -8 -54 21c-20 38 -56 52 -102 52c-68 0 -95 -17 -95 -52c0 -43 59 -52 131 -61c116 -16 266 -44 266 -233c0 -147 -133 -228 -310 -228z" />
    <glyph glyph-name="S" unicode="s" horiz-adv-x="651" 
d="M319 -15c-149 0 -253 51 -291 155c-10 30 -2 44 27 55l94 34c30 10 43 7 59 -22c18 -35 57 -53 113 -53c67 0 108 14 108 57c0 40 -52 50 -118 59c-117 17 -281 37 -281 231c0 132 106 224 297 224c148 0 232 -44 279 -140c14 -29 6 -44 -24 -56l-99 -43
c-28 -12 -39 -8 -54 21c-20 38 -56 52 -102 52c-68 0 -95 -17 -95 -52c0 -43 59 -52 131 -61c116 -16 266 -44 266 -233c0 -147 -133 -228 -310 -228z" />
    <glyph glyph-name="Sacute" unicode="&#x15a;" horiz-adv-x="651" 
d="M266 767c-24 -7 -35 -9 -46 5l-27 33c-16 19 -15 28 2 38l141 81c23 13 46 19 66 -3l51 -58c18 -19 19 -31 -5 -40zM319 -15c-149 0 -253 51 -291 155c-10 30 -2 44 27 55l94 34c30 10 43 7 59 -22c18 -35 57 -53 113 -53c67 0 108 14 108 57c0 40 -52 50 -118 59
c-117 17 -281 37 -281 231c0 132 106 224 297 224c148 0 232 -44 279 -140c14 -29 6 -44 -24 -56l-99 -43c-28 -12 -39 -8 -54 21c-20 38 -56 52 -102 52c-68 0 -95 -17 -95 -52c0 -43 59 -52 131 -61c116 -16 266 -44 266 -233c0 -147 -133 -228 -310 -228z" />
    <glyph glyph-name="Sacute" unicode="&#x15b;" horiz-adv-x="651" 
d="M266 767c-24 -7 -35 -9 -46 5l-27 33c-16 19 -15 28 2 38l141 81c23 13 46 19 66 -3l51 -58c18 -19 19 -31 -5 -40zM319 -15c-149 0 -253 51 -291 155c-10 30 -2 44 27 55l94 34c30 10 43 7 59 -22c18 -35 57 -53 113 -53c67 0 108 14 108 57c0 40 -52 50 -118 59
c-117 17 -281 37 -281 231c0 132 106 224 297 224c148 0 232 -44 279 -140c14 -29 6 -44 -24 -56l-99 -43c-28 -12 -39 -8 -54 21c-20 38 -56 52 -102 52c-68 0 -95 -17 -95 -52c0 -43 59 -52 131 -61c116 -16 266 -44 266 -233c0 -147 -133 -228 -310 -228z" />
    <glyph glyph-name="Scaron" unicode="&#x160;" horiz-adv-x="651" 
d="M312 764c-38 0 -46 2 -73 29l-101 102c-16 16 -20 35 12 35h84c39 0 50 -3 65 -22l31 -34l30 34c16 19 28 22 65 22h76c33 0 29 -19 13 -35l-100 -102c-27 -27 -35 -29 -75 -29h-27zM319 -15c-149 0 -253 51 -291 155c-10 30 -2 44 27 55l94 34c30 10 43 7 59 -22
c18 -35 57 -53 113 -53c67 0 108 14 108 57c0 40 -52 50 -118 59c-117 17 -281 37 -281 231c0 132 106 224 297 224c148 0 232 -44 279 -140c14 -29 6 -44 -24 -56l-99 -43c-28 -12 -39 -8 -54 21c-20 38 -56 52 -102 52c-68 0 -95 -17 -95 -52c0 -43 59 -52 131 -61
c116 -16 266 -44 266 -233c0 -147 -133 -228 -310 -228z" />
    <glyph glyph-name="Scaron" unicode="&#x161;" horiz-adv-x="651" 
d="M312 764c-38 0 -46 2 -73 29l-101 102c-16 16 -20 35 12 35h84c39 0 50 -3 65 -22l31 -34l30 34c16 19 28 22 65 22h76c33 0 29 -19 13 -35l-100 -102c-27 -27 -35 -29 -75 -29h-27zM319 -15c-149 0 -253 51 -291 155c-10 30 -2 44 27 55l94 34c30 10 43 7 59 -22
c18 -35 57 -53 113 -53c67 0 108 14 108 57c0 40 -52 50 -118 59c-117 17 -281 37 -281 231c0 132 106 224 297 224c148 0 232 -44 279 -140c14 -29 6 -44 -24 -56l-99 -43c-28 -12 -39 -8 -54 21c-20 38 -56 52 -102 52c-68 0 -95 -17 -95 -52c0 -43 59 -52 131 -61
c116 -16 266 -44 266 -233c0 -147 -133 -228 -310 -228z" />
    <glyph glyph-name="Scedilla" unicode="&#x15e;" horiz-adv-x="650" 
d="M313 -245c-24 0 -50 2 -75 11c-21 8 -26 16 -26 31l-1 42c0 19 9 28 32 16c17 -9 31 -15 55 -15c25 0 34 10 34 23c0 15 -9 21 -42 22h-20c-19 0 -23 9 -14 30l32 71c-133 6 -225 58 -260 154c-11 30 -3 44 27 55l94 34c30 10 43 7 59 -22c17 -35 56 -53 112 -53
c68 0 108 14 108 57c0 40 -52 50 -117 59c-117 17 -281 37 -281 231c0 132 106 224 296 224c148 0 232 -44 279 -140c15 -29 6 -44 -23 -56l-100 -43c-28 -12 -39 -8 -54 21c-19 38 -55 52 -102 52c-67 0 -95 -17 -95 -52c0 -43 59 -52 132 -61c115 -16 266 -44 266 -233
c0 -128 -100 -206 -244 -224l-14 -35h10c56 -1 88 -45 82 -99c-9 -79 -80 -100 -150 -100z" />
    <glyph glyph-name="Scedilla" unicode="&#x15f;" horiz-adv-x="650" 
d="M313 -245c-24 0 -50 2 -75 11c-21 8 -26 16 -26 31l-1 42c0 19 9 28 32 16c17 -9 31 -15 55 -15c25 0 34 10 34 23c0 15 -9 21 -42 22h-20c-19 0 -23 9 -14 30l32 71c-133 6 -225 58 -260 154c-11 30 -3 44 27 55l94 34c30 10 43 7 59 -22c17 -35 56 -53 112 -53
c68 0 108 14 108 57c0 40 -52 50 -117 59c-117 17 -281 37 -281 231c0 132 106 224 296 224c148 0 232 -44 279 -140c15 -29 6 -44 -23 -56l-100 -43c-28 -12 -39 -8 -54 21c-19 38 -55 52 -102 52c-67 0 -95 -17 -95 -52c0 -43 59 -52 132 -61c115 -16 266 -44 266 -233
c0 -128 -100 -206 -244 -224l-14 -35h10c56 -1 88 -45 82 -99c-9 -79 -80 -100 -150 -100z" />
    <glyph glyph-name="Scircumflex" unicode="&#x15c;" horiz-adv-x="651" 
d="M151 764c-32 0 -31 18 -15 34l102 102c27 27 34 30 77 30h32c35 0 44 -3 71 -30l102 -102c16 -16 17 -34 -15 -34h-84c-39 0 -51 2 -66 21l-29 36l-31 -35c-17 -20 -28 -22 -65 -22h-79zM319 -15c-149 0 -253 51 -291 155c-10 30 -2 44 27 55l94 34c30 10 43 7 59 -22
c18 -35 57 -53 113 -53c67 0 108 14 108 57c0 40 -52 50 -118 59c-117 17 -281 37 -281 231c0 132 106 224 297 224c148 0 232 -44 279 -140c14 -29 6 -44 -24 -56l-99 -43c-28 -12 -39 -8 -54 21c-20 38 -56 52 -102 52c-68 0 -95 -17 -95 -52c0 -43 59 -52 131 -61
c116 -16 266 -44 266 -233c0 -147 -133 -228 -310 -228z" />
    <glyph glyph-name="Scircumflex" unicode="&#x15d;" horiz-adv-x="651" 
d="M151 764c-32 0 -31 18 -15 34l102 102c27 27 34 30 77 30h32c35 0 44 -3 71 -30l102 -102c16 -16 17 -34 -15 -34h-84c-39 0 -51 2 -66 21l-29 36l-31 -35c-17 -20 -28 -22 -65 -22h-79zM319 -15c-149 0 -253 51 -291 155c-10 30 -2 44 27 55l94 34c30 10 43 7 59 -22
c18 -35 57 -53 113 -53c67 0 108 14 108 57c0 40 -52 50 -118 59c-117 17 -281 37 -281 231c0 132 106 224 297 224c148 0 232 -44 279 -140c14 -29 6 -44 -24 -56l-99 -43c-28 -12 -39 -8 -54 21c-20 38 -56 52 -102 52c-68 0 -95 -17 -95 -52c0 -43 59 -52 131 -61
c116 -16 266 -44 266 -233c0 -147 -133 -228 -310 -228z" />
    <glyph glyph-name="uni0218" unicode="&#x218;" horiz-adv-x="651" 
d="M319 -15c-149 0 -253 51 -291 155c-10 30 -2 44 27 55l94 34c30 10 43 7 59 -22c18 -35 57 -53 113 -53c67 0 108 14 108 57c0 40 -52 50 -118 59c-117 17 -281 37 -281 231c0 132 106 224 297 224c148 0 232 -44 279 -140c14 -29 6 -44 -24 -56l-99 -43
c-28 -12 -39 -8 -54 21c-20 38 -56 52 -102 52c-68 0 -95 -17 -95 -52c0 -43 59 -52 131 -61c116 -16 266 -44 266 -233c0 -147 -133 -228 -310 -228zM264 -260c-22 0 -29 8 -27 30l17 140c3 30 14 42 44 42h89c35 0 44 -16 34 -42l-48 -137c-8 -23 -19 -33 -45 -33h-64z
" />
    <glyph glyph-name="uni0218" unicode="&#x219;" horiz-adv-x="651" 
d="M319 -15c-149 0 -253 51 -291 155c-10 30 -2 44 27 55l94 34c30 10 43 7 59 -22c18 -35 57 -53 113 -53c67 0 108 14 108 57c0 40 -52 50 -118 59c-117 17 -281 37 -281 231c0 132 106 224 297 224c148 0 232 -44 279 -140c14 -29 6 -44 -24 -56l-99 -43
c-28 -12 -39 -8 -54 21c-20 38 -56 52 -102 52c-68 0 -95 -17 -95 -52c0 -43 59 -52 131 -61c116 -16 266 -44 266 -233c0 -147 -133 -228 -310 -228zM264 -260c-22 0 -29 8 -27 30l17 140c3 30 14 42 44 42h89c35 0 44 -16 34 -42l-48 -137c-8 -23 -19 -33 -45 -33h-64z
" />
    <glyph glyph-name="uni00DF" unicode="&#xdf;" horiz-adv-x="662" 
d="M498 426c102 -28 140 -106 140 -206c0 -156 -105 -220 -246 -220h-61c-26 0 -43 16 -43 42v77c0 23 19 42 43 42h40c38 0 60 18 60 67c0 39 -16 58 -53 58h-30c-23 0 -38 12 -38 42v59c0 20 5 32 15 48l69 115h-144v-508c0 -26 -16 -42 -42 -42h-113c-32 0 -42 11 -42 42
v626c0 31 10 42 42 42h459c32 0 42 -15 42 -42v-66c0 -22 -9 -37 -19 -54z" />
    <glyph glyph-name="uni00DF" unicode="&#x1e9e;" horiz-adv-x="662" 
d="M498 426c102 -28 140 -106 140 -206c0 -156 -105 -220 -246 -220h-61c-26 0 -43 16 -43 42v77c0 23 19 42 43 42h40c38 0 60 18 60 67c0 39 -16 58 -53 58h-30c-23 0 -38 12 -38 42v59c0 20 5 32 15 48l69 115h-144v-508c0 -26 -16 -42 -42 -42h-113c-32 0 -42 11 -42 42
v626c0 31 10 42 42 42h459c32 0 42 -15 42 -42v-66c0 -22 -9 -37 -19 -54z" />
    <glyph glyph-name="T" unicode="T" horiz-adv-x="607" 
d="M247 0c-32 0 -42 11 -42 42v494h-149c-32 0 -42 10 -42 42v90c0 31 10 42 42 42h495c32 0 42 -11 42 -42v-90c0 -32 -10 -42 -42 -42h-149v-494c0 -31 -10 -42 -42 -42h-113z" />
    <glyph glyph-name="T" unicode="t" horiz-adv-x="607" 
d="M247 0c-32 0 -42 11 -42 42v494h-149c-32 0 -42 10 -42 42v90c0 31 10 42 42 42h495c32 0 42 -11 42 -42v-90c0 -32 -10 -42 -42 -42h-149v-494c0 -31 -10 -42 -42 -42h-113z" />
    <glyph glyph-name="Tbar" unicode="&#x166;" horiz-adv-x="618" 
d="M253 0c-32 0 -43 11 -43 42v211h-95c-19 0 -25 5 -25 26v67c0 20 8 26 25 26h95v164h-148c-32 0 -43 10 -43 42v90c0 31 11 42 43 42h495c31 0 42 -11 42 -42v-90c0 -32 -11 -42 -42 -42h-149v-164h96c19 0 24 -6 24 -26v-67c0 -21 -5 -26 -24 -26h-96v-211
c0 -31 -11 -42 -42 -42h-113z" />
    <glyph glyph-name="Tbar" unicode="&#x167;" horiz-adv-x="618" 
d="M253 0c-32 0 -43 11 -43 42v211h-95c-19 0 -25 5 -25 26v67c0 20 8 26 25 26h95v164h-148c-32 0 -43 10 -43 42v90c0 31 11 42 43 42h495c31 0 42 -11 42 -42v-90c0 -32 -11 -42 -42 -42h-149v-164h96c19 0 24 -6 24 -26v-67c0 -21 -5 -26 -24 -26h-96v-211
c0 -31 -11 -42 -42 -42h-113z" />
    <glyph glyph-name="Tcaron" unicode="&#x164;" horiz-adv-x="607" 
d="M290 754c-38 0 -46 2 -73 29l-101 102c-16 16 -20 35 12 35h84c39 0 50 -3 65 -22l31 -34l30 34c16 19 28 22 65 22h76c33 0 29 -19 13 -35l-100 -102c-27 -27 -35 -29 -75 -29h-27zM247 0c-32 0 -42 11 -42 42v494h-149c-32 0 -42 10 -42 42v90c0 31 10 42 42 42h495
c32 0 42 -11 42 -42v-90c0 -32 -10 -42 -42 -42h-149v-494c0 -31 -10 -42 -42 -42h-113z" />
    <glyph glyph-name="Tcaron" unicode="&#x165;" horiz-adv-x="607" 
d="M290 754c-38 0 -46 2 -73 29l-101 102c-16 16 -20 35 12 35h84c39 0 50 -3 65 -22l31 -34l30 34c16 19 28 22 65 22h76c33 0 29 -19 13 -35l-100 -102c-27 -27 -35 -29 -75 -29h-27zM247 0c-32 0 -42 11 -42 42v494h-149c-32 0 -42 10 -42 42v90c0 31 10 42 42 42h495
c32 0 42 -11 42 -42v-90c0 -32 -10 -42 -42 -42h-149v-494c0 -31 -10 -42 -42 -42h-113z" />
    <glyph glyph-name="uni0163" unicode="&#x163;" horiz-adv-x="607" 
d="M247 0c-32 0 -42 11 -42 42v494h-149c-32 0 -42 10 -42 42v90c0 31 10 42 42 42h495c32 0 42 -11 42 -42v-90c0 -32 -10 -42 -42 -42h-149v-494c0 -31 -10 -42 -42 -42h-113zM224 -260c-22 0 -29 8 -27 30l17 140c3 30 14 42 44 42h89c35 0 44 -16 34 -42l-48 -137
c-8 -23 -19 -33 -45 -33h-64z" />
    <glyph glyph-name="uni0163" unicode="&#x21a;" horiz-adv-x="607" 
d="M247 0c-32 0 -42 11 -42 42v494h-149c-32 0 -42 10 -42 42v90c0 31 10 42 42 42h495c32 0 42 -11 42 -42v-90c0 -32 -10 -42 -42 -42h-149v-494c0 -31 -10 -42 -42 -42h-113zM224 -260c-22 0 -29 8 -27 30l17 140c3 30 14 42 44 42h89c35 0 44 -16 34 -42l-48 -137
c-8 -23 -19 -33 -45 -33h-64z" />
    <glyph glyph-name="U" unicode="U" horiz-adv-x="696" 
d="M348 -15c-197 0 -301 108 -301 275v408c0 31 11 42 42 42h113c32 0 43 -11 43 -42v-416c0 -59 34 -92 103 -92s104 33 104 92v416c0 31 10 42 42 42h113c32 0 42 -11 42 -42v-408c0 -167 -103 -275 -301 -275z" />
    <glyph glyph-name="U" unicode="u" horiz-adv-x="696" 
d="M348 -15c-197 0 -301 108 -301 275v408c0 31 11 42 42 42h113c32 0 43 -11 43 -42v-416c0 -59 34 -92 103 -92s104 33 104 92v416c0 31 10 42 42 42h113c32 0 42 -11 42 -42v-408c0 -167 -103 -275 -301 -275z" />
    <glyph glyph-name="Uacute" unicode="&#xda;" horiz-adv-x="696" 
d="M288 757c-24 -7 -35 -9 -46 5l-27 33c-16 19 -15 28 2 38l141 81c23 13 46 19 66 -3l51 -58c18 -19 19 -31 -5 -40zM348 -15c-197 0 -301 108 -301 275v408c0 31 11 42 42 42h113c32 0 43 -11 43 -42v-416c0 -59 34 -92 103 -92s104 33 104 92v416c0 31 10 42 42 42h113
c32 0 42 -11 42 -42v-408c0 -167 -103 -275 -301 -275z" />
    <glyph glyph-name="Uacute" unicode="&#xfa;" horiz-adv-x="696" 
d="M288 757c-24 -7 -35 -9 -46 5l-27 33c-16 19 -15 28 2 38l141 81c23 13 46 19 66 -3l51 -58c18 -19 19 -31 -5 -40zM348 -15c-197 0 -301 108 -301 275v408c0 31 11 42 42 42h113c32 0 43 -11 43 -42v-416c0 -59 34 -92 103 -92s104 33 104 92v416c0 31 10 42 42 42h113
c32 0 42 -11 42 -42v-408c0 -167 -103 -275 -301 -275z" />
    <glyph glyph-name="Ubreve" unicode="&#x16c;" horiz-adv-x="696" 
d="M348 754c-88 0 -150 38 -176 106c-7 19 -2 27 17 35l66 25c22 8 28 5 38 -12c12 -22 29 -33 55 -33c25 0 41 11 54 33c10 17 16 19 36 13l70 -26c19 -7 24 -16 17 -35c-26 -68 -88 -106 -177 -106zM348 -15c-197 0 -301 108 -301 275v408c0 31 11 42 42 42h113
c32 0 43 -11 43 -42v-416c0 -59 34 -92 103 -92s104 33 104 92v416c0 31 10 42 42 42h113c32 0 42 -11 42 -42v-408c0 -167 -103 -275 -301 -275z" />
    <glyph glyph-name="Ubreve" unicode="&#x16d;" horiz-adv-x="696" 
d="M348 754c-88 0 -150 38 -176 106c-7 19 -2 27 17 35l66 25c22 8 28 5 38 -12c12 -22 29 -33 55 -33c25 0 41 11 54 33c10 17 16 19 36 13l70 -26c19 -7 24 -16 17 -35c-26 -68 -88 -106 -177 -106zM348 -15c-197 0 -301 108 -301 275v408c0 31 11 42 42 42h113
c32 0 43 -11 43 -42v-416c0 -59 34 -92 103 -92s104 33 104 92v416c0 31 10 42 42 42h113c32 0 42 -11 42 -42v-408c0 -167 -103 -275 -301 -275z" />
    <glyph glyph-name="Ucircumflex" unicode="&#xdb;" horiz-adv-x="696" 
d="M173 754c-32 0 -31 18 -15 34l102 102c27 27 34 30 77 30h32c35 0 44 -3 71 -30l102 -102c16 -16 17 -34 -15 -34h-84c-39 0 -51 2 -66 21l-29 36l-31 -35c-17 -20 -28 -22 -65 -22h-79zM348 -15c-197 0 -301 108 -301 275v408c0 31 11 42 42 42h113c32 0 43 -11 43 -42
v-416c0 -59 34 -92 103 -92s104 33 104 92v416c0 31 10 42 42 42h113c32 0 42 -11 42 -42v-408c0 -167 -103 -275 -301 -275z" />
    <glyph glyph-name="Ucircumflex" unicode="&#xfb;" horiz-adv-x="696" 
d="M173 754c-32 0 -31 18 -15 34l102 102c27 27 34 30 77 30h32c35 0 44 -3 71 -30l102 -102c16 -16 17 -34 -15 -34h-84c-39 0 -51 2 -66 21l-29 36l-31 -35c-17 -20 -28 -22 -65 -22h-79zM348 -15c-197 0 -301 108 -301 275v408c0 31 11 42 42 42h113c32 0 43 -11 43 -42
v-416c0 -59 34 -92 103 -92s104 33 104 92v416c0 31 10 42 42 42h113c32 0 42 -11 42 -42v-408c0 -167 -103 -275 -301 -275z" />
    <glyph glyph-name="Udieresis" unicode="&#xdc;" horiz-adv-x="696" 
d="M236 759c-55 0 -71 18 -71 71v13c0 54 16 71 71 71h8c56 0 74 -17 74 -71v-13c0 -53 -18 -71 -74 -71h-8zM452 759c-56 0 -74 18 -74 71v13c0 54 18 71 74 71h7c56 0 72 -17 72 -71v-13c0 -53 -16 -71 -72 -71h-7zM348 -15c-197 0 -301 108 -301 275v408
c0 31 11 42 42 42h113c32 0 43 -11 43 -42v-416c0 -59 34 -92 103 -92s104 33 104 92v416c0 31 10 42 42 42h113c32 0 42 -11 42 -42v-408c0 -167 -103 -275 -301 -275z" />
    <glyph glyph-name="Udieresis" unicode="&#xfc;" horiz-adv-x="696" 
d="M236 759c-55 0 -71 18 -71 71v13c0 54 16 71 71 71h8c56 0 74 -17 74 -71v-13c0 -53 -18 -71 -74 -71h-8zM452 759c-56 0 -74 18 -74 71v13c0 54 18 71 74 71h7c56 0 72 -17 72 -71v-13c0 -53 -16 -71 -72 -71h-7zM348 -15c-197 0 -301 108 -301 275v408
c0 31 11 42 42 42h113c32 0 43 -11 43 -42v-416c0 -59 34 -92 103 -92s104 33 104 92v416c0 31 10 42 42 42h113c32 0 42 -11 42 -42v-408c0 -167 -103 -275 -301 -275z" />
    <glyph glyph-name="Ugrave" unicode="&#xd9;" horiz-adv-x="696" 
d="M230 814c-24 8 -23 20 -6 40l51 60c19 22 43 16 66 3l141 -83c18 -10 18 -20 3 -38l-28 -34c-10 -13 -22 -12 -46 -4zM348 -15c-197 0 -301 108 -301 275v408c0 31 11 42 42 42h113c32 0 43 -11 43 -42v-416c0 -59 34 -92 103 -92s104 33 104 92v416c0 31 10 42 42 42
h113c32 0 42 -11 42 -42v-408c0 -167 -103 -275 -301 -275z" />
    <glyph glyph-name="Ugrave" unicode="&#xf9;" horiz-adv-x="696" 
d="M230 814c-24 8 -23 20 -6 40l51 60c19 22 43 16 66 3l141 -83c18 -10 18 -20 3 -38l-28 -34c-10 -13 -22 -12 -46 -4zM348 -15c-197 0 -301 108 -301 275v408c0 31 11 42 42 42h113c32 0 43 -11 43 -42v-416c0 -59 34 -92 103 -92s104 33 104 92v416c0 31 10 42 42 42
h113c32 0 42 -11 42 -42v-408c0 -167 -103 -275 -301 -275z" />
    <glyph glyph-name="Uhungarumlaut" unicode="&#x170;" horiz-adv-x="696" 
d="M178 764c-25 5 -25 21 -13 38l71 95c17 24 35 32 65 26l67 -15c27 -6 30 -25 11 -42l-113 -95c-19 -16 -26 -20 -44 -15zM370 763c-25 5 -25 22 -11 38l75 96c19 23 36 32 66 24l69 -18c27 -8 32 -27 11 -43l-122 -92c-18 -15 -26 -19 -44 -15zM348 -15
c-197 0 -301 108 -301 275v408c0 31 11 42 42 42h113c32 0 43 -11 43 -42v-416c0 -59 34 -92 103 -92s104 33 104 92v416c0 31 10 42 42 42h113c32 0 42 -11 42 -42v-408c0 -167 -103 -275 -301 -275z" />
    <glyph glyph-name="Uhungarumlaut" unicode="&#x171;" horiz-adv-x="696" 
d="M178 764c-25 5 -25 21 -13 38l71 95c17 24 35 32 65 26l67 -15c27 -6 30 -25 11 -42l-113 -95c-19 -16 -26 -20 -44 -15zM370 763c-25 5 -25 22 -11 38l75 96c19 23 36 32 66 24l69 -18c27 -8 32 -27 11 -43l-122 -92c-18 -15 -26 -19 -44 -15zM348 -15
c-197 0 -301 108 -301 275v408c0 31 11 42 42 42h113c32 0 43 -11 43 -42v-416c0 -59 34 -92 103 -92s104 33 104 92v416c0 31 10 42 42 42h113c32 0 42 -11 42 -42v-408c0 -167 -103 -275 -301 -275z" />
    <glyph glyph-name="Umacron" unicode="&#x16a;" horiz-adv-x="696" 
d="M226 778c-28 0 -36 7 -36 36v42c0 29 11 36 36 36h244c28 0 36 -7 36 -36v-42c0 -29 -8 -36 -36 -36h-244zM348 -15c-197 0 -301 108 -301 275v408c0 31 11 42 42 42h113c32 0 43 -11 43 -42v-416c0 -59 34 -92 103 -92s104 33 104 92v416c0 31 10 42 42 42h113
c32 0 42 -11 42 -42v-408c0 -167 -103 -275 -301 -275z" />
    <glyph glyph-name="Umacron" unicode="&#x16b;" horiz-adv-x="696" 
d="M226 778c-28 0 -36 7 -36 36v42c0 29 11 36 36 36h244c28 0 36 -7 36 -36v-42c0 -29 -8 -36 -36 -36h-244zM348 -15c-197 0 -301 108 -301 275v408c0 31 11 42 42 42h113c32 0 43 -11 43 -42v-416c0 -59 34 -92 103 -92s104 33 104 92v416c0 31 10 42 42 42h113
c32 0 42 -11 42 -42v-408c0 -167 -103 -275 -301 -275z" />
    <glyph glyph-name="Uogonek" unicode="&#x172;" horiz-adv-x="696" 
d="M427 -246c-48 0 -91 15 -100 64c-11 52 18 117 64 169c-14 -2 -28 -2 -43 -2c-197 0 -301 108 -301 275v408c0 31 11 42 42 42h113c32 0 43 -11 43 -42v-416c0 -59 34 -92 103 -92s104 33 104 92v416c0 31 10 42 42 42h113c32 0 42 -11 42 -42v-408
c0 -88 -29 -160 -85 -208c-81 -74 -104 -146 -101 -168c2 -11 8 -18 18 -18c6 0 12 1 19 5c10 8 19 5 23 -6l21 -46c6 -15 4 -23 -6 -30c-28 -22 -71 -35 -111 -35z" />
    <glyph glyph-name="Uogonek" unicode="&#x173;" horiz-adv-x="696" 
d="M427 -246c-48 0 -91 15 -100 64c-11 52 18 117 64 169c-14 -2 -28 -2 -43 -2c-197 0 -301 108 -301 275v408c0 31 11 42 42 42h113c32 0 43 -11 43 -42v-416c0 -59 34 -92 103 -92s104 33 104 92v416c0 31 10 42 42 42h113c32 0 42 -11 42 -42v-408
c0 -88 -29 -160 -85 -208c-81 -74 -104 -146 -101 -168c2 -11 8 -18 18 -18c6 0 12 1 19 5c10 8 19 5 23 -6l21 -46c6 -15 4 -23 -6 -30c-28 -22 -71 -35 -111 -35z" />
    <glyph glyph-name="Uring" unicode="&#x16e;" horiz-adv-x="696" 
d="M349 746c-75 0 -130 43 -130 116c0 74 55 117 130 117s128 -45 128 -117s-53 -116 -128 -116zM349 827c21 0 35 14 35 35c0 22 -14 36 -35 36c-23 0 -38 -14 -38 -36c0 -20 15 -35 38 -35zM348 -15c-197 0 -301 108 -301 275v408c0 31 11 42 42 42h113
c32 0 43 -11 43 -42v-416c0 -59 34 -92 103 -92s104 33 104 92v416c0 31 10 42 42 42h113c32 0 42 -11 42 -42v-408c0 -167 -103 -275 -301 -275z" />
    <glyph glyph-name="Uring" unicode="&#x16f;" horiz-adv-x="696" 
d="M349 746c-75 0 -130 43 -130 116c0 74 55 117 130 117s128 -45 128 -117s-53 -116 -128 -116zM349 827c21 0 35 14 35 35c0 22 -14 36 -35 36c-23 0 -38 -14 -38 -36c0 -20 15 -35 38 -35zM348 -15c-197 0 -301 108 -301 275v408c0 31 11 42 42 42h113
c32 0 43 -11 43 -42v-416c0 -59 34 -92 103 -92s104 33 104 92v416c0 31 10 42 42 42h113c32 0 42 -11 42 -42v-408c0 -167 -103 -275 -301 -275z" />
    <glyph glyph-name="Utilde" unicode="&#x168;" horiz-adv-x="696" 
d="M192 763c-17 0 -23 8 -23 23c0 95 38 123 96 123c76 0 103 -41 135 -41c10 0 15 6 15 22c0 14 5 19 19 19h60c19 0 24 -7 24 -23c0 -93 -34 -123 -98 -123c-74 0 -100 42 -133 42c-9 0 -14 -7 -14 -22c0 -14 -6 -20 -20 -20h-61zM348 -15c-197 0 -301 108 -301 275v408
c0 31 11 42 42 42h113c32 0 43 -11 43 -42v-416c0 -59 34 -92 103 -92s104 33 104 92v416c0 31 10 42 42 42h113c32 0 42 -11 42 -42v-408c0 -167 -103 -275 -301 -275z" />
    <glyph glyph-name="Utilde" unicode="&#x169;" horiz-adv-x="696" 
d="M192 763c-17 0 -23 8 -23 23c0 95 38 123 96 123c76 0 103 -41 135 -41c10 0 15 6 15 22c0 14 5 19 19 19h60c19 0 24 -7 24 -23c0 -93 -34 -123 -98 -123c-74 0 -100 42 -133 42c-9 0 -14 -7 -14 -22c0 -14 -6 -20 -20 -20h-61zM348 -15c-197 0 -301 108 -301 275v408
c0 31 11 42 42 42h113c32 0 43 -11 43 -42v-416c0 -59 34 -92 103 -92s104 33 104 92v416c0 31 10 42 42 42h113c32 0 42 -11 42 -42v-408c0 -167 -103 -275 -301 -275z" />
    <glyph glyph-name="V" unicode="V" horiz-adv-x="686" 
d="M281 0c-29 0 -43 7 -52 33l-222 636c-10 27 -1 41 29 41h114c51 0 67 -11 74 -42l96 -342c16 -59 22 -129 22 -129h9s4 68 21 128l95 343c8 31 23 42 72 42h112c31 0 38 -14 28 -41l-221 -634c-10 -29 -23 -35 -52 -35h-125z" />
    <glyph glyph-name="V" unicode="v" horiz-adv-x="686" 
d="M281 0c-29 0 -43 7 -52 33l-222 636c-10 27 -1 41 29 41h114c51 0 67 -11 74 -42l96 -342c16 -59 22 -129 22 -129h9s4 68 21 128l95 343c8 31 23 42 72 42h112c31 0 38 -14 28 -41l-221 -634c-10 -29 -23 -35 -52 -35h-125z" />
    <glyph glyph-name="W" unicode="W" horiz-adv-x="943" 
d="M226 0c-29 0 -46 6 -52 33l-158 636c-7 28 -4 41 27 41h123c35 0 50 -6 56 -37l44 -262c8 -53 14 -149 14 -177h7c0 30 7 123 19 177l62 262c7 32 24 37 56 37h107c32 0 50 -6 56 -37l62 -262c12 -57 18 -148 19 -177h8c1 28 7 122 15 177l42 262c6 31 21 37 57 37h111
c31 0 34 -13 27 -41l-159 -634c-8 -29 -23 -35 -51 -35h-117c-29 0 -46 7 -52 33l-54 234c-13 63 -18 123 -19 180h-8c-2 -57 -8 -116 -22 -180l-54 -232c-7 -29 -24 -35 -52 -35h-114z" />
    <glyph glyph-name="W" unicode="w" horiz-adv-x="943" 
d="M226 0c-29 0 -46 6 -52 33l-158 636c-7 28 -4 41 27 41h123c35 0 50 -6 56 -37l44 -262c8 -53 14 -149 14 -177h7c0 30 7 123 19 177l62 262c7 32 24 37 56 37h107c32 0 50 -6 56 -37l62 -262c12 -57 18 -148 19 -177h8c1 28 7 122 15 177l42 262c6 31 21 37 57 37h111
c31 0 34 -13 27 -41l-159 -634c-8 -29 -23 -35 -51 -35h-117c-29 0 -46 7 -52 33l-54 234c-13 63 -18 123 -19 180h-8c-2 -57 -8 -116 -22 -180l-54 -232c-7 -29 -24 -35 -52 -35h-114z" />
    <glyph glyph-name="Wacute" unicode="&#x1e82;" horiz-adv-x="943" 
d="M418 757c-24 -7 -35 -9 -46 5l-27 33c-16 19 -15 28 2 38l141 81c23 13 46 19 66 -3l51 -58c18 -19 19 -31 -5 -40zM226 0c-29 0 -46 6 -52 33l-158 636c-7 28 -4 41 27 41h123c35 0 50 -6 56 -37l44 -262c8 -53 14 -149 14 -177h7c0 30 7 123 19 177l62 262
c7 32 24 37 56 37h107c32 0 50 -6 56 -37l62 -262c12 -57 18 -148 19 -177h8c1 28 7 122 15 177l42 262c6 31 21 37 57 37h111c31 0 34 -13 27 -41l-159 -634c-8 -29 -23 -35 -51 -35h-117c-29 0 -46 7 -52 33l-54 234c-13 63 -18 123 -19 180h-8c-2 -57 -8 -116 -22 -180
l-54 -232c-7 -29 -24 -35 -52 -35h-114z" />
    <glyph glyph-name="Wacute" unicode="&#x1e83;" horiz-adv-x="943" 
d="M418 757c-24 -7 -35 -9 -46 5l-27 33c-16 19 -15 28 2 38l141 81c23 13 46 19 66 -3l51 -58c18 -19 19 -31 -5 -40zM226 0c-29 0 -46 6 -52 33l-158 636c-7 28 -4 41 27 41h123c35 0 50 -6 56 -37l44 -262c8 -53 14 -149 14 -177h7c0 30 7 123 19 177l62 262
c7 32 24 37 56 37h107c32 0 50 -6 56 -37l62 -262c12 -57 18 -148 19 -177h8c1 28 7 122 15 177l42 262c6 31 21 37 57 37h111c31 0 34 -13 27 -41l-159 -634c-8 -29 -23 -35 -51 -35h-117c-29 0 -46 7 -52 33l-54 234c-13 63 -18 123 -19 180h-8c-2 -57 -8 -116 -22 -180
l-54 -232c-7 -29 -24 -35 -52 -35h-114z" />
    <glyph glyph-name="Wcircumflex" unicode="&#x174;" horiz-adv-x="943" 
d="M303 754c-32 0 -31 18 -15 34l102 102c27 27 34 30 77 30h32c35 0 44 -3 71 -30l102 -102c16 -16 17 -34 -15 -34h-84c-39 0 -51 2 -66 21l-29 36l-31 -35c-17 -20 -28 -22 -65 -22h-79zM226 0c-29 0 -46 6 -52 33l-158 636c-7 28 -4 41 27 41h123c35 0 50 -6 56 -37
l44 -262c8 -53 14 -149 14 -177h7c0 30 7 123 19 177l62 262c7 32 24 37 56 37h107c32 0 50 -6 56 -37l62 -262c12 -57 18 -148 19 -177h8c1 28 7 122 15 177l42 262c6 31 21 37 57 37h111c31 0 34 -13 27 -41l-159 -634c-8 -29 -23 -35 -51 -35h-117c-29 0 -46 7 -52 33
l-54 234c-13 63 -18 123 -19 180h-8c-2 -57 -8 -116 -22 -180l-54 -232c-7 -29 -24 -35 -52 -35h-114z" />
    <glyph glyph-name="Wcircumflex" unicode="&#x175;" horiz-adv-x="943" 
d="M303 754c-32 0 -31 18 -15 34l102 102c27 27 34 30 77 30h32c35 0 44 -3 71 -30l102 -102c16 -16 17 -34 -15 -34h-84c-39 0 -51 2 -66 21l-29 36l-31 -35c-17 -20 -28 -22 -65 -22h-79zM226 0c-29 0 -46 6 -52 33l-158 636c-7 28 -4 41 27 41h123c35 0 50 -6 56 -37
l44 -262c8 -53 14 -149 14 -177h7c0 30 7 123 19 177l62 262c7 32 24 37 56 37h107c32 0 50 -6 56 -37l62 -262c12 -57 18 -148 19 -177h8c1 28 7 122 15 177l42 262c6 31 21 37 57 37h111c31 0 34 -13 27 -41l-159 -634c-8 -29 -23 -35 -51 -35h-117c-29 0 -46 7 -52 33
l-54 234c-13 63 -18 123 -19 180h-8c-2 -57 -8 -116 -22 -180l-54 -232c-7 -29 -24 -35 -52 -35h-114z" />
    <glyph glyph-name="Wdieresis" unicode="&#x1e84;" horiz-adv-x="943" 
d="M366 759c-55 0 -71 18 -71 71v13c0 54 16 71 71 71h8c56 0 74 -17 74 -71v-13c0 -53 -18 -71 -74 -71h-8zM582 759c-56 0 -74 18 -74 71v13c0 54 18 71 74 71h7c56 0 72 -17 72 -71v-13c0 -53 -16 -71 -72 -71h-7zM226 0c-29 0 -46 6 -52 33l-158 636c-7 28 -4 41 27 41
h123c35 0 50 -6 56 -37l44 -262c8 -53 14 -149 14 -177h7c0 30 7 123 19 177l62 262c7 32 24 37 56 37h107c32 0 50 -6 56 -37l62 -262c12 -57 18 -148 19 -177h8c1 28 7 122 15 177l42 262c6 31 21 37 57 37h111c31 0 34 -13 27 -41l-159 -634c-8 -29 -23 -35 -51 -35h-117
c-29 0 -46 7 -52 33l-54 234c-13 63 -18 123 -19 180h-8c-2 -57 -8 -116 -22 -180l-54 -232c-7 -29 -24 -35 -52 -35h-114z" />
    <glyph glyph-name="Wdieresis" unicode="&#x1e85;" horiz-adv-x="943" 
d="M366 759c-55 0 -71 18 -71 71v13c0 54 16 71 71 71h8c56 0 74 -17 74 -71v-13c0 -53 -18 -71 -74 -71h-8zM582 759c-56 0 -74 18 -74 71v13c0 54 18 71 74 71h7c56 0 72 -17 72 -71v-13c0 -53 -16 -71 -72 -71h-7zM226 0c-29 0 -46 6 -52 33l-158 636c-7 28 -4 41 27 41
h123c35 0 50 -6 56 -37l44 -262c8 -53 14 -149 14 -177h7c0 30 7 123 19 177l62 262c7 32 24 37 56 37h107c32 0 50 -6 56 -37l62 -262c12 -57 18 -148 19 -177h8c1 28 7 122 15 177l42 262c6 31 21 37 57 37h111c31 0 34 -13 27 -41l-159 -634c-8 -29 -23 -35 -51 -35h-117
c-29 0 -46 7 -52 33l-54 234c-13 63 -18 123 -19 180h-8c-2 -57 -8 -116 -22 -180l-54 -232c-7 -29 -24 -35 -52 -35h-114z" />
    <glyph glyph-name="Wgrave" unicode="&#x1e80;" horiz-adv-x="943" 
d="M359 814c-24 8 -23 20 -6 40l51 60c19 22 43 16 66 3l141 -83c18 -10 18 -20 3 -38l-28 -34c-10 -13 -22 -12 -46 -4zM226 0c-29 0 -46 6 -52 33l-158 636c-7 28 -4 41 27 41h123c35 0 50 -6 56 -37l44 -262c8 -53 14 -149 14 -177h7c0 30 7 123 19 177l62 262
c7 32 24 37 56 37h107c32 0 50 -6 56 -37l62 -262c12 -57 18 -148 19 -177h8c1 28 7 122 15 177l42 262c6 31 21 37 57 37h111c31 0 34 -13 27 -41l-159 -634c-8 -29 -23 -35 -51 -35h-117c-29 0 -46 7 -52 33l-54 234c-13 63 -18 123 -19 180h-8c-2 -57 -8 -116 -22 -180
l-54 -232c-7 -29 -24 -35 -52 -35h-114z" />
    <glyph glyph-name="Wgrave" unicode="&#x1e81;" horiz-adv-x="943" 
d="M359 814c-24 8 -23 20 -6 40l51 60c19 22 43 16 66 3l141 -83c18 -10 18 -20 3 -38l-28 -34c-10 -13 -22 -12 -46 -4zM226 0c-29 0 -46 6 -52 33l-158 636c-7 28 -4 41 27 41h123c35 0 50 -6 56 -37l44 -262c8 -53 14 -149 14 -177h7c0 30 7 123 19 177l62 262
c7 32 24 37 56 37h107c32 0 50 -6 56 -37l62 -262c12 -57 18 -148 19 -177h8c1 28 7 122 15 177l42 262c6 31 21 37 57 37h111c31 0 34 -13 27 -41l-159 -634c-8 -29 -23 -35 -51 -35h-117c-29 0 -46 7 -52 33l-54 234c-13 63 -18 123 -19 180h-8c-2 -57 -8 -116 -22 -180
l-54 -232c-7 -29 -24 -35 -52 -35h-114z" />
    <glyph glyph-name="X" unicode="X" horiz-adv-x="668" 
d="M32 0c-30 0 -37 18 -21 42l206 320l-196 308c-15 22 -8 40 20 40h119c51 0 64 -4 83 -35l90 -155l89 155c19 33 32 35 77 35h128c28 0 34 -18 20 -40l-198 -308l208 -320c16 -22 10 -42 -21 -42h-128c-52 0 -64 3 -83 37l-95 165l-93 -165c-19 -31 -28 -37 -82 -37h-123z
" />
    <glyph glyph-name="X" unicode="x" horiz-adv-x="668" 
d="M32 0c-30 0 -37 18 -21 42l206 320l-196 308c-15 22 -8 40 20 40h119c51 0 64 -4 83 -35l90 -155l89 155c19 33 32 35 77 35h128c28 0 34 -18 20 -40l-198 -308l208 -320c16 -22 10 -42 -21 -42h-128c-52 0 -64 3 -83 37l-95 165l-93 -165c-19 -31 -28 -37 -82 -37h-123z
" />
    <glyph glyph-name="Y" unicode="Y" horiz-adv-x="679" 
d="M283 0c-32 0 -42 11 -42 42v233l-231 393c-14 23 -10 42 21 42h120c50 0 64 -2 83 -37l107 -205l110 205c19 35 33 37 82 37h114c31 0 35 -19 22 -42l-231 -393v-233c0 -31 -10 -42 -42 -42h-113z" />
    <glyph glyph-name="Y" unicode="y" horiz-adv-x="679" 
d="M283 0c-32 0 -42 11 -42 42v233l-231 393c-14 23 -10 42 21 42h120c50 0 64 -2 83 -37l107 -205l110 205c19 35 33 37 82 37h114c31 0 35 -19 22 -42l-231 -393v-233c0 -31 -10 -42 -42 -42h-113z" />
    <glyph glyph-name="Yacute" unicode="&#xdd;" horiz-adv-x="679" 
d="M283 757c-24 -7 -35 -9 -46 5l-27 33c-16 19 -15 28 2 38l141 81c23 13 46 19 66 -3l51 -58c18 -19 19 -31 -5 -40zM283 0c-32 0 -42 11 -42 42v233l-231 393c-14 23 -10 42 21 42h120c50 0 64 -2 83 -37l107 -205l110 205c19 35 33 37 82 37h114c31 0 35 -19 22 -42
l-231 -393v-233c0 -31 -10 -42 -42 -42h-113z" />
    <glyph glyph-name="Yacute" unicode="&#xfd;" horiz-adv-x="679" 
d="M283 757c-24 -7 -35 -9 -46 5l-27 33c-16 19 -15 28 2 38l141 81c23 13 46 19 66 -3l51 -58c18 -19 19 -31 -5 -40zM283 0c-32 0 -42 11 -42 42v233l-231 393c-14 23 -10 42 21 42h120c50 0 64 -2 83 -37l107 -205l110 205c19 35 33 37 82 37h114c31 0 35 -19 22 -42
l-231 -393v-233c0 -31 -10 -42 -42 -42h-113z" />
    <glyph glyph-name="Ycircumflex" unicode="&#x176;" horiz-adv-x="679" 
d="M167 754c-32 0 -31 18 -15 34l102 102c27 27 34 30 77 30h32c35 0 44 -3 71 -30l102 -102c16 -16 17 -34 -15 -34h-84c-39 0 -51 2 -66 21l-29 36l-31 -35c-17 -20 -28 -22 -65 -22h-79zM283 0c-32 0 -42 11 -42 42v233l-231 393c-14 23 -10 42 21 42h120
c50 0 64 -2 83 -37l107 -205l110 205c19 35 33 37 82 37h114c31 0 35 -19 22 -42l-231 -393v-233c0 -31 -10 -42 -42 -42h-113z" />
    <glyph glyph-name="Ycircumflex" unicode="&#x177;" horiz-adv-x="679" 
d="M167 754c-32 0 -31 18 -15 34l102 102c27 27 34 30 77 30h32c35 0 44 -3 71 -30l102 -102c16 -16 17 -34 -15 -34h-84c-39 0 -51 2 -66 21l-29 36l-31 -35c-17 -20 -28 -22 -65 -22h-79zM283 0c-32 0 -42 11 -42 42v233l-231 393c-14 23 -10 42 21 42h120
c50 0 64 -2 83 -37l107 -205l110 205c19 35 33 37 82 37h114c31 0 35 -19 22 -42l-231 -393v-233c0 -31 -10 -42 -42 -42h-113z" />
    <glyph glyph-name="Ydieresis" unicode="&#xff;" horiz-adv-x="679" 
d="M231 759c-55 0 -71 18 -71 71v13c0 54 16 71 71 71h8c56 0 74 -17 74 -71v-13c0 -53 -18 -71 -74 -71h-8zM447 759c-56 0 -74 18 -74 71v13c0 54 18 71 74 71h7c56 0 72 -17 72 -71v-13c0 -53 -16 -71 -72 -71h-7zM283 0c-32 0 -42 11 -42 42v233l-231 393
c-14 23 -10 42 21 42h120c50 0 64 -2 83 -37l107 -205l110 205c19 35 33 37 82 37h114c31 0 35 -19 22 -42l-231 -393v-233c0 -31 -10 -42 -42 -42h-113z" />
    <glyph glyph-name="Ydieresis" unicode="&#x178;" horiz-adv-x="679" 
d="M231 759c-55 0 -71 18 -71 71v13c0 54 16 71 71 71h8c56 0 74 -17 74 -71v-13c0 -53 -18 -71 -74 -71h-8zM447 759c-56 0 -74 18 -74 71v13c0 54 18 71 74 71h7c56 0 72 -17 72 -71v-13c0 -53 -16 -71 -72 -71h-7zM283 0c-32 0 -42 11 -42 42v233l-231 393
c-14 23 -10 42 21 42h120c50 0 64 -2 83 -37l107 -205l110 205c19 35 33 37 82 37h114c31 0 35 -19 22 -42l-231 -393v-233c0 -31 -10 -42 -42 -42h-113z" />
    <glyph glyph-name="Ygrave" unicode="&#x1ef2;" horiz-adv-x="679" 
d="M224 814c-24 8 -23 20 -6 40l51 60c19 22 43 16 66 3l141 -83c18 -10 18 -20 3 -38l-28 -34c-10 -13 -22 -12 -46 -4zM283 0c-32 0 -42 11 -42 42v233l-231 393c-14 23 -10 42 21 42h120c50 0 64 -2 83 -37l107 -205l110 205c19 35 33 37 82 37h114c31 0 35 -19 22 -42
l-231 -393v-233c0 -31 -10 -42 -42 -42h-113z" />
    <glyph glyph-name="Ygrave" unicode="&#x1ef3;" horiz-adv-x="679" 
d="M224 814c-24 8 -23 20 -6 40l51 60c19 22 43 16 66 3l141 -83c18 -10 18 -20 3 -38l-28 -34c-10 -13 -22 -12 -46 -4zM283 0c-32 0 -42 11 -42 42v233l-231 393c-14 23 -10 42 21 42h120c50 0 64 -2 83 -37l107 -205l110 205c19 35 33 37 82 37h114c31 0 35 -19 22 -42
l-231 -393v-233c0 -31 -10 -42 -42 -42h-113z" />
    <glyph glyph-name="Z" unicode="Z" horiz-adv-x="615" 
d="M70 0c-31 0 -42 11 -42 42v61c0 17 5 30 14 42l277 391h-244c-31 0 -42 10 -42 42v90c0 31 11 42 42 42h464c31 0 42 -11 42 -42v-60c0 -19 -5 -31 -14 -44l-276 -389h253c31 0 42 -10 42 -42v-91c0 -31 -11 -42 -42 -42h-474z" />
    <glyph glyph-name="Z" unicode="z" horiz-adv-x="615" 
d="M70 0c-31 0 -42 11 -42 42v61c0 17 5 30 14 42l277 391h-244c-31 0 -42 10 -42 42v90c0 31 11 42 42 42h464c31 0 42 -11 42 -42v-60c0 -19 -5 -31 -14 -44l-276 -389h253c31 0 42 -10 42 -42v-91c0 -31 -11 -42 -42 -42h-474z" />
    <glyph glyph-name="Zacute" unicode="&#x179;" horiz-adv-x="615" 
d="M253 757c-24 -7 -35 -9 -46 5l-27 33c-16 19 -15 28 2 38l141 81c23 13 46 19 66 -3l51 -58c18 -19 19 -31 -5 -40zM70 0c-31 0 -42 11 -42 42v61c0 17 5 30 14 42l277 391h-244c-31 0 -42 10 -42 42v90c0 31 11 42 42 42h464c31 0 42 -11 42 -42v-60
c0 -19 -5 -31 -14 -44l-276 -389h253c31 0 42 -10 42 -42v-91c0 -31 -11 -42 -42 -42h-474z" />
    <glyph glyph-name="Zacute" unicode="&#x17a;" horiz-adv-x="615" 
d="M253 757c-24 -7 -35 -9 -46 5l-27 33c-16 19 -15 28 2 38l141 81c23 13 46 19 66 -3l51 -58c18 -19 19 -31 -5 -40zM70 0c-31 0 -42 11 -42 42v61c0 17 5 30 14 42l277 391h-244c-31 0 -42 10 -42 42v90c0 31 11 42 42 42h464c31 0 42 -11 42 -42v-60
c0 -19 -5 -31 -14 -44l-276 -389h253c31 0 42 -10 42 -42v-91c0 -31 -11 -42 -42 -42h-474z" />
    <glyph glyph-name="Zcaron" unicode="&#x17d;" horiz-adv-x="615" 
d="M299 754c-38 0 -46 2 -73 29l-101 102c-16 16 -20 35 12 35h84c39 0 50 -3 65 -22l31 -34l30 34c16 19 28 22 65 22h76c33 0 29 -19 13 -35l-100 -102c-27 -27 -35 -29 -75 -29h-27zM70 0c-31 0 -42 11 -42 42v61c0 17 5 30 14 42l277 391h-244c-31 0 -42 10 -42 42v90
c0 31 11 42 42 42h464c31 0 42 -11 42 -42v-60c0 -19 -5 -31 -14 -44l-276 -389h253c31 0 42 -10 42 -42v-91c0 -31 -11 -42 -42 -42h-474z" />
    <glyph glyph-name="Zcaron" unicode="&#x17e;" horiz-adv-x="615" 
d="M299 754c-38 0 -46 2 -73 29l-101 102c-16 16 -20 35 12 35h84c39 0 50 -3 65 -22l31 -34l30 34c16 19 28 22 65 22h76c33 0 29 -19 13 -35l-100 -102c-27 -27 -35 -29 -75 -29h-27zM70 0c-31 0 -42 11 -42 42v61c0 17 5 30 14 42l277 391h-244c-31 0 -42 10 -42 42v90
c0 31 11 42 42 42h464c31 0 42 -11 42 -42v-60c0 -19 -5 -31 -14 -44l-276 -389h253c31 0 42 -10 42 -42v-91c0 -31 -11 -42 -42 -42h-474z" />
    <glyph glyph-name="Zdotaccent" unicode="&#x17b;" horiz-adv-x="615" 
d="M310 757c-58 0 -75 17 -75 75v8c0 58 17 75 75 75h6c59 0 75 -17 75 -75v-8c0 -58 -16 -75 -75 -75h-6zM70 0c-31 0 -42 11 -42 42v61c0 17 5 30 14 42l277 391h-244c-31 0 -42 10 -42 42v90c0 31 11 42 42 42h464c31 0 42 -11 42 -42v-60c0 -19 -5 -31 -14 -44
l-276 -389h253c31 0 42 -10 42 -42v-91c0 -31 -11 -42 -42 -42h-474z" />
    <glyph glyph-name="Zdotaccent" unicode="&#x17c;" horiz-adv-x="615" 
d="M310 757c-58 0 -75 17 -75 75v8c0 58 17 75 75 75h6c59 0 75 -17 75 -75v-8c0 -58 -16 -75 -75 -75h-6zM70 0c-31 0 -42 11 -42 42v61c0 17 5 30 14 42l277 391h-244c-31 0 -42 10 -42 42v90c0 31 11 42 42 42h464c31 0 42 -11 42 -42v-60c0 -19 -5 -31 -14 -44
l-276 -389h253c31 0 42 -10 42 -42v-91c0 -31 -11 -42 -42 -42h-474z" />
    <glyph glyph-name="uni1E9E.calt" horiz-adv-x="662" 
d="M498 426c102 -28 140 -106 140 -206c0 -156 -105 -220 -246 -220h-61c-26 0 -43 16 -43 42v77c0 23 19 42 43 42h40c38 0 60 18 60 67c0 39 -16 58 -53 58h-30c-23 0 -38 12 -38 42v59c0 20 5 32 15 48l69 115h-144v-508c0 -26 -16 -42 -42 -42h-113c-32 0 -42 11 -42 42
v626c0 31 10 42 42 42h459c32 0 42 -15 42 -42v-66c0 -22 -9 -37 -19 -54z" />
    <glyph glyph-name="ordfeminine" unicode="&#xaa;" horiz-adv-x="358" 
d="M177 352c-115 0 -144 37 -144 95c0 60 32 97 146 97c5 0 9 0 14 -1v16c0 15 -5 20 -18 20c-11 0 -19 -7 -27 -14c-17 -17 -26 -19 -50 -9l-37 19c-24 11 -30 23 -15 44c28 36 77 54 133 54c107 0 141 -53 141 -127v-129c0 -29 -8 -39 -37 -50c-23 -8 -58 -15 -106 -15z
M175 436c9 0 15 1 17 1c0 0 1 0 1 2v30h-18c-13 0 -18 -5 -18 -16c0 -14 5 -17 18 -17z" />
    <glyph glyph-name="ordmasculine" unicode="&#xba;" horiz-adv-x="356" 
d="M178 352c-94 0 -145 49 -145 130v61c0 81 51 131 145 131c96 0 146 -50 146 -131v-61c0 -81 -50 -130 -146 -130zM178 462c15 0 23 8 23 19v64c0 11 -8 19 -23 19s-23 -8 -23 -19v-64c0 -11 8 -19 23 -19z" />
    <glyph glyph-name="uni0410" unicode="&#x410;" horiz-adv-x="692" 
d="M34 0c-31 0 -37 14 -27 41l230 634c10 29 24 35 52 35h114c28 0 42 -7 52 -33l231 -636c10 -27 1 -41 -29 -41h-108c-51 0 -67 11 -75 42l-22 72h-218l-23 -72c-9 -31 -23 -42 -72 -42h-105zM406 271l-37 117c-20 68 -22 141 -22 141h-10s1 -72 -19 -140l-37 -118h125z
" />
    <glyph glyph-name="uni0410" unicode="&#x430;" horiz-adv-x="692" 
d="M34 0c-31 0 -37 14 -27 41l230 634c10 29 24 35 52 35h114c28 0 42 -7 52 -33l231 -636c10 -27 1 -41 -29 -41h-108c-51 0 -67 11 -75 42l-22 72h-218l-23 -72c-9 -31 -23 -42 -72 -42h-105zM406 271l-37 117c-20 68 -22 141 -22 141h-10s1 -72 -19 -140l-37 -118h125z
" />
    <glyph glyph-name="uni0411" unicode="&#x411;" horiz-adv-x="645" 
d="M94 0c-30 0 -41 10 -41 40v628c0 31 10 42 42 42h441c31 0 42 -11 42 -42v-78c0 -32 -11 -43 -42 -43h-286v-88h143c141 0 233 -87 233 -230c0 -141 -92 -229 -233 -229h-299zM351 163c48 0 73 23 73 67c0 43 -25 66 -73 66h-101v-133h101z" />
    <glyph glyph-name="uni0411" unicode="&#x431;" horiz-adv-x="645" 
d="M94 0c-30 0 -41 10 -41 40v628c0 31 10 42 42 42h441c31 0 42 -11 42 -42v-78c0 -32 -11 -43 -42 -43h-286v-88h143c141 0 233 -87 233 -230c0 -141 -92 -229 -233 -229h-299zM351 163c48 0 73 23 73 67c0 43 -25 66 -73 66h-101v-133h101z" />
    <glyph glyph-name="uni0412" unicode="&#x412;" horiz-adv-x="662" 
d="M95 0c-32 0 -42 11 -42 42v626c0 31 10 42 42 42h293c138 0 221 -67 221 -189c0 -67 -21 -112 -72 -147v-4c64 -28 101 -85 101 -172c0 -129 -105 -198 -246 -198h-297zM347 440c40 0 62 15 62 54s-22 56 -62 56h-97v-110h97zM366 161c43 0 65 18 65 60
c0 40 -22 58 -65 58h-116v-118h116z" />
    <glyph glyph-name="uni0412" unicode="&#x432;" horiz-adv-x="662" 
d="M95 0c-32 0 -42 11 -42 42v626c0 31 10 42 42 42h293c138 0 221 -67 221 -189c0 -67 -21 -112 -72 -147v-4c64 -28 101 -85 101 -172c0 -129 -105 -198 -246 -198h-297zM347 440c40 0 62 15 62 54s-22 56 -62 56h-97v-110h97zM366 161c43 0 65 18 65 60
c0 40 -22 58 -65 58h-116v-118h116z" />
    <glyph glyph-name="uni0413" unicode="&#x413;" horiz-adv-x="535" 
d="M95 0c-32 0 -42 11 -42 42v626c0 31 10 42 42 42h384c32 0 43 -11 43 -42v-90c0 -32 -11 -42 -43 -42h-229v-494c0 -31 -10 -42 -42 -42h-113z" />
    <glyph glyph-name="uni0413" unicode="&#x433;" horiz-adv-x="535" 
d="M95 0c-32 0 -42 11 -42 42v626c0 31 10 42 42 42h384c32 0 43 -11 43 -42v-90c0 -32 -11 -42 -43 -42h-229v-494c0 -31 -10 -42 -42 -42h-113z" />
    <glyph glyph-name="uni0414" unicode="&#x414;" horiz-adv-x="793" 
d="M61 -153c-31 0 -42 11 -42 42v244c0 32 11 42 42 42h22c51 43 80 106 80 265v228c0 31 11 42 43 42h436c32 0 43 -11 43 -42v-493h48c31 0 42 -10 42 -42v-244c0 -31 -11 -42 -42 -42h-110c-32 0 -43 11 -43 42v111h-366v-111c0 -31 -11 -42 -43 -42h-110zM487 175v360
h-130v-94c0 -122 -18 -205 -47 -266h177z" />
    <glyph glyph-name="uni0414" unicode="&#x434;" horiz-adv-x="793" 
d="M61 -153c-31 0 -42 11 -42 42v244c0 32 11 42 42 42h22c51 43 80 106 80 265v228c0 31 11 42 43 42h436c32 0 43 -11 43 -42v-493h48c31 0 42 -10 42 -42v-244c0 -31 -11 -42 -42 -42h-110c-32 0 -43 11 -43 42v111h-366v-111c0 -31 -11 -42 -43 -42h-110zM487 175v360
h-130v-94c0 -122 -18 -205 -47 -266h177z" />
    <glyph glyph-name="uni0415" unicode="&#x415;" horiz-adv-x="592" 
d="M95 0c-32 0 -42 11 -42 42v626c0 31 10 42 42 42h419c32 0 43 -11 43 -42v-90c0 -32 -11 -42 -43 -42h-264v-90h211c32 0 43 -11 43 -43v-89c0 -32 -11 -43 -43 -43h-211v-96h273c31 0 42 -10 42 -42v-91c0 -31 -11 -42 -42 -42h-428z" />
    <glyph glyph-name="uni0415" unicode="&#x435;" horiz-adv-x="592" 
d="M95 0c-32 0 -42 11 -42 42v626c0 31 10 42 42 42h419c32 0 43 -11 43 -42v-90c0 -32 -11 -42 -43 -42h-264v-90h211c32 0 43 -11 43 -43v-89c0 -32 -11 -43 -43 -43h-211v-96h273c31 0 42 -10 42 -42v-91c0 -31 -11 -42 -42 -42h-428z" />
    <glyph glyph-name="uni0401" unicode="&#x401;" horiz-adv-x="592" 
d="M193 759c-55 0 -71 18 -71 71v13c0 54 16 71 71 71h8c56 0 74 -17 74 -71v-13c0 -53 -18 -71 -74 -71h-8zM409 759c-56 0 -74 18 -74 71v13c0 54 18 71 74 71h7c56 0 72 -17 72 -71v-13c0 -53 -16 -71 -72 -71h-7zM95 0c-32 0 -42 11 -42 42v626c0 31 10 42 42 42h419
c32 0 43 -11 43 -42v-90c0 -32 -11 -42 -43 -42h-264v-90h211c32 0 43 -11 43 -43v-89c0 -32 -11 -43 -43 -43h-211v-96h273c31 0 42 -10 42 -42v-91c0 -31 -11 -42 -42 -42h-428z" />
    <glyph glyph-name="uni0401" unicode="&#x451;" horiz-adv-x="592" 
d="M193 759c-55 0 -71 18 -71 71v13c0 54 16 71 71 71h8c56 0 74 -17 74 -71v-13c0 -53 -18 -71 -74 -71h-8zM409 759c-56 0 -74 18 -74 71v13c0 54 18 71 74 71h7c56 0 72 -17 72 -71v-13c0 -53 -16 -71 -72 -71h-7zM95 0c-32 0 -42 11 -42 42v626c0 31 10 42 42 42h419
c32 0 43 -11 43 -42v-90c0 -32 -11 -42 -43 -42h-264v-90h211c32 0 43 -11 43 -43v-89c0 -32 -11 -43 -43 -43h-211v-96h273c31 0 42 -10 42 -42v-91c0 -31 -11 -42 -42 -42h-428z" />
    <glyph glyph-name="uni0416" unicode="&#x416;" horiz-adv-x="982" 
d="M40 0c-33 0 -40 22 -26 49l126 250c14 28 28 49 46 67l-161 300c-13 27 -6 44 24 44h115c51 0 64 -4 80 -37l118 -228c9 1 15 1 23 1h7v222c0 31 11 42 43 42h112c32 0 43 -11 43 -42v-222h7c8 0 15 0 22 -1l119 228c16 33 29 37 80 37h115c30 0 38 -18 24 -44l-161 -300
c17 -18 32 -39 46 -67l126 -250c14 -27 7 -49 -26 -49h-108c-53 0 -73 7 -88 42l-83 184c-15 33 -26 46 -65 46h-8v-230c0 -31 -11 -42 -43 -42h-112c-32 0 -43 11 -43 42v230h-7c-39 0 -52 -13 -66 -46l-83 -184c-16 -35 -35 -42 -88 -42h-108z" />
    <glyph glyph-name="uni0416" unicode="&#x436;" horiz-adv-x="982" 
d="M40 0c-33 0 -40 22 -26 49l126 250c14 28 28 49 46 67l-161 300c-13 27 -6 44 24 44h115c51 0 64 -4 80 -37l118 -228c9 1 15 1 23 1h7v222c0 31 11 42 43 42h112c32 0 43 -11 43 -42v-222h7c8 0 15 0 22 -1l119 228c16 33 29 37 80 37h115c30 0 38 -18 24 -44l-161 -300
c17 -18 32 -39 46 -67l126 -250c14 -27 7 -49 -26 -49h-108c-53 0 -73 7 -88 42l-83 184c-15 33 -26 46 -65 46h-8v-230c0 -31 -11 -42 -43 -42h-112c-32 0 -43 11 -43 42v230h-7c-39 0 -52 -13 -66 -46l-83 -184c-16 -35 -35 -42 -88 -42h-108z" />
    <glyph glyph-name="uni0417" unicode="&#x417;" horiz-adv-x="653" 
d="M343 -15c-174 0 -278 63 -320 175c-10 29 -3 44 27 54l98 35c30 11 42 4 54 -27c16 -43 57 -65 125 -65c69 0 91 19 91 59c0 42 -19 59 -62 59h-96c-31 0 -42 11 -42 43v82c0 32 11 43 42 43h80c41 0 61 15 61 55c0 39 -26 55 -78 55c-65 0 -101 -20 -119 -65
c-11 -31 -23 -37 -54 -27l-97 35c-30 11 -38 25 -27 54c41 112 142 175 316 175c170 0 259 -70 259 -208c0 -71 -24 -116 -77 -145c83 -38 102 -98 102 -170c0 -139 -89 -217 -283 -217z" />
    <glyph glyph-name="uni0417" unicode="&#x437;" horiz-adv-x="653" 
d="M343 -15c-174 0 -278 63 -320 175c-10 29 -3 44 27 54l98 35c30 11 42 4 54 -27c16 -43 57 -65 125 -65c69 0 91 19 91 59c0 42 -19 59 -62 59h-96c-31 0 -42 11 -42 43v82c0 32 11 43 42 43h80c41 0 61 15 61 55c0 39 -26 55 -78 55c-65 0 -101 -20 -119 -65
c-11 -31 -23 -37 -54 -27l-97 35c-30 11 -38 25 -27 54c41 112 142 175 316 175c170 0 259 -70 259 -208c0 -71 -24 -116 -77 -145c83 -38 102 -98 102 -170c0 -139 -89 -217 -283 -217z" />
    <glyph glyph-name="uni0418" unicode="&#x418;" horiz-adv-x="709" 
d="M95 0c-32 0 -42 11 -42 42v626c0 31 10 42 42 42h113c32 0 42 -11 42 -42v-171c0 -110 -6 -142 -37 -248h7c40 101 53 136 95 209l138 233c8 14 18 20 41 20h120c32 0 42 -11 42 -43v-626c0 -31 -10 -42 -42 -42h-112c-32 0 -43 11 -43 43v171c0 111 11 139 38 247h-8
c-37 -102 -51 -132 -94 -206l-138 -235c-8 -15 -19 -20 -41 -20h-121z" />
    <glyph glyph-name="uni0418" unicode="&#x438;" horiz-adv-x="709" 
d="M95 0c-32 0 -42 11 -42 42v626c0 31 10 42 42 42h113c32 0 42 -11 42 -42v-171c0 -110 -6 -142 -37 -248h7c40 101 53 136 95 209l138 233c8 14 18 20 41 20h120c32 0 42 -11 42 -43v-626c0 -31 -10 -42 -42 -42h-112c-32 0 -43 11 -43 43v171c0 111 11 139 38 247h-8
c-37 -102 -51 -132 -94 -206l-138 -235c-8 -15 -19 -20 -41 -20h-121z" />
    <glyph glyph-name="uni0419" unicode="&#x419;" horiz-adv-x="705" 
d="M360 747c-100 0 -171 40 -200 112c-8 20 -2 29 19 37l75 26c25 8 32 5 44 -13c13 -23 32 -35 62 -35c28 0 47 12 61 35c12 18 18 21 41 13l79 -26c22 -8 28 -17 20 -37c-30 -72 -101 -112 -201 -112zM95 0c-32 0 -42 11 -42 42v626c0 31 10 42 42 42h113
c32 0 42 -11 42 -42v-171c0 -110 -6 -142 -37 -248h7c40 101 53 136 95 209l138 233c8 14 18 20 41 20h120c32 0 42 -11 42 -43v-626c0 -31 -10 -42 -42 -42h-112c-32 0 -43 11 -43 43v171c0 111 11 139 38 247h-8c-37 -102 -51 -132 -94 -206l-138 -235
c-8 -15 -19 -20 -41 -20h-121z" />
    <glyph glyph-name="uni0419" unicode="&#x439;" horiz-adv-x="705" 
d="M360 747c-100 0 -171 40 -200 112c-8 20 -2 29 19 37l75 26c25 8 32 5 44 -13c13 -23 32 -35 62 -35c28 0 47 12 61 35c12 18 18 21 41 13l79 -26c22 -8 28 -17 20 -37c-30 -72 -101 -112 -201 -112zM95 0c-32 0 -42 11 -42 42v626c0 31 10 42 42 42h113
c32 0 42 -11 42 -42v-171c0 -110 -6 -142 -37 -248h7c40 101 53 136 95 209l138 233c8 14 18 20 41 20h120c32 0 42 -11 42 -43v-626c0 -31 -10 -42 -42 -42h-112c-32 0 -43 11 -43 43v171c0 111 11 139 38 247h-8c-37 -102 -51 -132 -94 -206l-138 -235
c-8 -15 -19 -20 -41 -20h-121z" />
    <glyph glyph-name="uni041A" unicode="&#x41a;" horiz-adv-x="659" 
d="M95 0c-32 0 -42 11 -42 42v626c0 31 10 42 42 42h113c32 0 42 -11 42 -42v-222l14 -1h8l144 228c19 31 29 37 80 37h115c30 0 40 -18 24 -44l-182 -289c24 -19 43 -44 61 -78l132 -250c14 -27 7 -49 -26 -49h-108c-53 0 -71 7 -88 42l-87 179c-16 33 -31 51 -69 51h-18
v-230c0 -31 -10 -42 -42 -42h-113z" />
    <glyph glyph-name="uni041A" unicode="&#x43a;" horiz-adv-x="659" 
d="M95 0c-32 0 -42 11 -42 42v626c0 31 10 42 42 42h113c32 0 42 -11 42 -42v-222l14 -1h8l144 228c19 31 29 37 80 37h115c30 0 40 -18 24 -44l-182 -289c24 -19 43 -44 61 -78l132 -250c14 -27 7 -49 -26 -49h-108c-53 0 -71 7 -88 42l-87 179c-16 33 -31 51 -69 51h-18
v-230c0 -31 -10 -42 -42 -42h-113z" />
    <glyph glyph-name="uni041B" unicode="&#x41b;" horiz-adv-x="702" 
d="M123 -7c-29 -15 -43 -8 -57 20l-57 102c-15 27 -8 41 20 57c60 36 109 80 109 268v228c0 31 10 42 42 42h427c32 0 42 -11 42 -42v-626c0 -31 -10 -42 -42 -42h-113c-32 0 -42 11 -42 42v493h-120v-94c0 -292 -91 -389 -209 -448z" />
    <glyph glyph-name="uni041B" unicode="&#x43b;" horiz-adv-x="702" 
d="M123 -7c-29 -15 -43 -8 -57 20l-57 102c-15 27 -8 41 20 57c60 36 109 80 109 268v228c0 31 10 42 42 42h427c32 0 42 -11 42 -42v-626c0 -31 -10 -42 -42 -42h-113c-32 0 -42 11 -42 42v493h-120v-94c0 -292 -91 -389 -209 -448z" />
    <glyph glyph-name="uni041C" unicode="&#x41c;" horiz-adv-x="829" 
d="M95 0c-32 0 -42 10 -42 41v628c0 31 10 41 42 41h94c34 0 47 -5 59 -31l165 -323l165 322c13 28 23 32 56 32h100c32 0 43 -10 43 -41v-628c0 -31 -11 -41 -43 -41h-109c-31 0 -42 10 -42 41v144c0 66 6 129 44 262h-10c-11 -33 -47 -125 -68 -166l-57 -113
c-10 -20 -20 -28 -47 -28h-67c-27 0 -37 6 -48 28l-59 113c-21 39 -52 130 -62 166h-10c36 -144 41 -194 41 -263v-143c0 -31 -11 -41 -43 -41h-102z" />
    <glyph glyph-name="uni041C" unicode="&#x43c;" horiz-adv-x="829" 
d="M95 0c-32 0 -42 10 -42 41v628c0 31 10 41 42 41h94c34 0 47 -5 59 -31l165 -323l165 322c13 28 23 32 56 32h100c32 0 43 -10 43 -41v-628c0 -31 -11 -41 -43 -41h-109c-31 0 -42 10 -42 41v144c0 66 6 129 44 262h-10c-11 -33 -47 -125 -68 -166l-57 -113
c-10 -20 -20 -28 -47 -28h-67c-27 0 -37 6 -48 28l-59 113c-21 39 -52 130 -62 166h-10c36 -144 41 -194 41 -263v-143c0 -31 -11 -41 -43 -41h-102z" />
    <glyph glyph-name="uni041D" unicode="&#x41d;" horiz-adv-x="694" 
d="M95 0c-32 0 -42 11 -42 42v626c0 31 10 42 42 42h113c32 0 42 -11 42 -42v-221h194v221c0 31 11 42 43 42h113c31 0 42 -11 42 -42v-626c0 -31 -11 -42 -42 -42h-113c-32 0 -43 11 -43 42v231h-194v-231c0 -31 -10 -42 -42 -42h-113z" />
    <glyph glyph-name="uni041D" unicode="&#x43d;" horiz-adv-x="694" 
d="M95 0c-32 0 -42 11 -42 42v626c0 31 10 42 42 42h113c32 0 42 -11 42 -42v-221h194v221c0 31 11 42 43 42h113c31 0 42 -11 42 -42v-626c0 -31 -11 -42 -42 -42h-113c-32 0 -43 11 -43 42v231h-194v-231c0 -31 -10 -42 -42 -42h-113z" />
    <glyph glyph-name="uni041E" unicode="&#x41e;" horiz-adv-x="686" 
d="M343 -15c-198 0 -307 107 -307 279v182c0 172 109 279 307 279c197 0 307 -107 307 -279v-182c0 -172 -110 -279 -307 -279zM343 160c69 0 109 33 109 96v198c0 63 -40 96 -109 96c-70 0 -110 -33 -110 -96v-198c0 -63 40 -96 110 -96z" />
    <glyph glyph-name="uni041E" unicode="&#x43e;" horiz-adv-x="686" 
d="M343 -15c-198 0 -307 107 -307 279v182c0 172 109 279 307 279c197 0 307 -107 307 -279v-182c0 -172 -110 -279 -307 -279zM343 160c69 0 109 33 109 96v198c0 63 -40 96 -109 96c-70 0 -110 -33 -110 -96v-198c0 -63 40 -96 110 -96z" />
    <glyph glyph-name="uni041F" unicode="&#x41f;" horiz-adv-x="689" 
d="M95 0c-32 0 -42 11 -42 42v626c0 31 10 42 42 42h500c31 0 42 -11 42 -42v-626c0 -31 -11 -42 -42 -42h-113c-32 0 -43 11 -43 42v494h-189v-494c0 -31 -10 -42 -42 -42h-113z" />
    <glyph glyph-name="uni041F" unicode="&#x43f;" horiz-adv-x="689" 
d="M95 0c-32 0 -42 11 -42 42v626c0 31 10 42 42 42h500c31 0 42 -11 42 -42v-626c0 -31 -11 -42 -42 -42h-113c-32 0 -43 11 -43 42v494h-189v-494c0 -31 -10 -42 -42 -42h-113z" />
    <glyph glyph-name="uni0420" unicode="&#x420;" horiz-adv-x="651" 
d="M95 0c-32 0 -42 11 -42 42v626c0 31 10 42 42 42h276c156 0 258 -91 258 -250c0 -157 -101 -247 -256 -247h-123v-171c0 -31 -10 -42 -42 -42h-113zM349 388c47 0 75 29 75 74c0 44 -27 74 -75 74h-99v-148h99z" />
    <glyph glyph-name="uni0420" unicode="&#x440;" horiz-adv-x="651" 
d="M95 0c-32 0 -42 11 -42 42v626c0 31 10 42 42 42h276c156 0 258 -91 258 -250c0 -157 -101 -247 -256 -247h-123v-171c0 -31 -10 -42 -42 -42h-113zM349 388c47 0 75 29 75 74c0 44 -27 74 -75 74h-99v-148h99z" />
    <glyph glyph-name="uni0421" unicode="&#x421;" horiz-adv-x="655" 
d="M343 -15c-197 0 -307 107 -307 279v182c0 172 110 279 307 279c154 0 250 -63 291 -175c11 -29 3 -43 -26 -54l-107 -38c-31 -9 -43 -4 -54 27c-18 45 -47 65 -104 65c-79 0 -110 -34 -110 -103v-184c0 -69 31 -103 110 -103c56 0 88 22 104 65c12 31 25 38 54 27
l107 -38c29 -10 37 -25 26 -54c-41 -112 -137 -175 -291 -175z" />
    <glyph glyph-name="uni0421" unicode="&#x441;" horiz-adv-x="655" 
d="M343 -15c-197 0 -307 107 -307 279v182c0 172 110 279 307 279c154 0 250 -63 291 -175c11 -29 3 -43 -26 -54l-107 -38c-31 -9 -43 -4 -54 27c-18 45 -47 65 -104 65c-79 0 -110 -34 -110 -103v-184c0 -69 31 -103 110 -103c56 0 88 22 104 65c12 31 25 38 54 27
l107 -38c29 -10 37 -25 26 -54c-41 -112 -137 -175 -291 -175z" />
    <glyph glyph-name="uni0422" unicode="&#x422;" horiz-adv-x="607" 
d="M247 0c-32 0 -42 11 -42 42v494h-149c-32 0 -42 10 -42 42v90c0 31 10 42 42 42h495c32 0 42 -11 42 -42v-90c0 -32 -10 -42 -42 -42h-149v-494c0 -31 -10 -42 -42 -42h-113z" />
    <glyph glyph-name="uni0422" unicode="&#x442;" horiz-adv-x="607" 
d="M247 0c-32 0 -42 11 -42 42v494h-149c-32 0 -42 10 -42 42v90c0 31 10 42 42 42h495c32 0 42 -11 42 -42v-90c0 -32 -10 -42 -42 -42h-149v-494c0 -31 -10 -42 -42 -42h-113z" />
    <glyph glyph-name="uni0423" unicode="&#x423;" horiz-adv-x="632" 
d="M162 0c-29 0 -32 16 -21 42l75 168l-212 458c-13 28 -7 42 24 42h118c47 0 62 -2 77 -37l97 -222l92 222c14 34 26 37 70 37h119c29 0 33 -14 21 -42l-264 -631c-13 -31 -25 -37 -69 -37h-127z" />
    <glyph glyph-name="uni0423" unicode="&#x443;" horiz-adv-x="632" 
d="M162 0c-29 0 -32 16 -21 42l75 168l-212 458c-13 28 -7 42 24 42h118c47 0 62 -2 77 -37l97 -222l92 222c14 34 26 37 70 37h119c29 0 33 -14 21 -42l-264 -631c-13 -31 -25 -37 -69 -37h-127z" />
    <glyph glyph-name="uni0424" unicode="&#x424;" horiz-adv-x="866" 
d="M377 -21c-32 0 -43 10 -43 42v44h-30c-187 0 -286 98 -286 265v54c0 168 99 266 286 266h30v43c0 31 11 42 43 42h112c32 0 42 -11 42 -42v-43h30c187 0 287 -98 287 -266v-54c0 -167 -100 -265 -287 -265h-30v-44c0 -32 -10 -42 -42 -42h-112zM334 235v246h-21
c-62 0 -93 -30 -93 -89v-69c0 -59 31 -88 93 -88h21zM553 235c62 0 93 29 93 88v69c0 59 -31 89 -93 89h-22v-246h22z" />
    <glyph glyph-name="uni0424" unicode="&#x444;" horiz-adv-x="866" 
d="M377 -21c-32 0 -43 10 -43 42v44h-30c-187 0 -286 98 -286 265v54c0 168 99 266 286 266h30v43c0 31 11 42 43 42h112c32 0 42 -11 42 -42v-43h30c187 0 287 -98 287 -266v-54c0 -167 -100 -265 -287 -265h-30v-44c0 -32 -10 -42 -42 -42h-112zM334 235v246h-21
c-62 0 -93 -30 -93 -89v-69c0 -59 31 -88 93 -88h21zM553 235c62 0 93 29 93 88v69c0 59 -31 89 -93 89h-22v-246h22z" />
    <glyph glyph-name="uni0425" unicode="&#x425;" horiz-adv-x="668" 
d="M32 0c-30 0 -37 18 -21 42l206 320l-196 308c-15 22 -8 40 20 40h119c51 0 64 -4 83 -35l90 -155l89 155c19 33 32 35 77 35h128c28 0 34 -18 20 -40l-198 -308l208 -320c16 -22 10 -42 -21 -42h-128c-52 0 -64 3 -83 37l-95 165l-93 -165c-19 -31 -28 -37 -82 -37h-123z
" />
    <glyph glyph-name="uni0425" unicode="&#x445;" horiz-adv-x="668" 
d="M32 0c-30 0 -37 18 -21 42l206 320l-196 308c-15 22 -8 40 20 40h119c51 0 64 -4 83 -35l90 -155l89 155c19 33 32 35 77 35h128c28 0 34 -18 20 -40l-198 -308l208 -320c16 -22 10 -42 -21 -42h-128c-52 0 -64 3 -83 37l-95 165l-93 -165c-19 -31 -28 -37 -82 -37h-123z
" />
    <glyph glyph-name="uni0427" unicode="&#x427;" horiz-adv-x="662" 
d="M454 0c-32 0 -42 11 -42 42v195c-21 -3 -56 -6 -103 -6c-198 0 -279 96 -279 277v160c0 31 10 42 42 42h113c32 0 42 -11 42 -42v-160c0 -62 38 -92 111 -92c35 0 60 4 74 7v245c0 31 10 42 42 42h113c32 0 42 -11 42 -42v-626c0 -31 -10 -42 -42 -42h-113z" />
    <glyph glyph-name="uni0427" unicode="&#x447;" horiz-adv-x="662" 
d="M454 0c-32 0 -42 11 -42 42v195c-21 -3 -56 -6 -103 -6c-198 0 -279 96 -279 277v160c0 31 10 42 42 42h113c32 0 42 -11 42 -42v-160c0 -62 38 -92 111 -92c35 0 60 4 74 7v245c0 31 10 42 42 42h113c32 0 42 -11 42 -42v-626c0 -31 -10 -42 -42 -42h-113z" />
    <glyph glyph-name="uni0426" unicode="&#x426;" horiz-adv-x="736" 
d="M572 -154c-31 0 -42 11 -42 43v111h-435c-32 0 -42 11 -42 42v626c0 31 10 42 42 42h113c32 0 42 -11 42 -42v-493h187v493c0 31 10 42 42 42h113c32 0 42 -11 42 -42v-493h41c32 0 42 -10 42 -42v-244c0 -32 -10 -43 -42 -43h-103z" />
    <glyph glyph-name="uni0426" unicode="&#x446;" horiz-adv-x="736" 
d="M572 -154c-31 0 -42 11 -42 43v111h-435c-32 0 -42 11 -42 42v626c0 31 10 42 42 42h113c32 0 42 -11 42 -42v-493h187v493c0 31 10 42 42 42h113c32 0 42 -11 42 -42v-493h41c32 0 42 -10 42 -42v-244c0 -32 -10 -43 -42 -43h-103z" />
    <glyph glyph-name="uni0428" unicode="&#x428;" horiz-adv-x="954" 
d="M95 0c-32 0 -42 11 -42 42v626c0 31 10 42 42 42h113c32 0 42 -11 42 -42v-493h128v493c0 31 11 42 43 42h113c31 0 42 -11 42 -42v-493h128v493c0 31 11 42 43 42h112c32 0 43 -11 43 -42v-626c0 -31 -11 -42 -43 -42h-764z" />
    <glyph glyph-name="uni0428" unicode="&#x448;" horiz-adv-x="954" 
d="M95 0c-32 0 -42 11 -42 42v626c0 31 10 42 42 42h113c32 0 42 -11 42 -42v-493h128v493c0 31 11 42 43 42h113c31 0 42 -11 42 -42v-493h128v493c0 31 11 42 43 42h112c32 0 43 -11 43 -42v-626c0 -31 -11 -42 -43 -42h-764z" />
    <glyph glyph-name="uni0429" unicode="&#x429;" horiz-adv-x="1003" 
d="M840 -154c-32 0 -42 10 -42 42v112h-703c-32 0 -42 11 -42 42v626c0 31 10 42 42 42h113c32 0 42 -11 42 -42v-493h128v493c0 31 11 42 43 42h113c31 0 42 -11 42 -42v-493h128v493c0 31 11 42 43 42h112c32 0 43 -11 43 -42v-493h41c31 0 42 -10 42 -42v-245
c0 -32 -11 -42 -42 -42h-103z" />
    <glyph glyph-name="uni0429" unicode="&#x449;" horiz-adv-x="1003" 
d="M840 -154c-32 0 -42 10 -42 42v112h-703c-32 0 -42 11 -42 42v626c0 31 10 42 42 42h113c32 0 42 -11 42 -42v-493h128v493c0 31 11 42 43 42h113c31 0 42 -11 42 -42v-493h128v493c0 31 11 42 43 42h112c32 0 43 -11 43 -42v-493h41c31 0 42 -10 42 -42v-245
c0 -32 -11 -42 -42 -42h-103z" />
    <glyph glyph-name="uni042C" unicode="&#x42c;" horiz-adv-x="651" 
d="M95 0c-32 0 -42 11 -42 42v626c0 31 10 42 42 42h113c32 0 42 -11 42 -42v-171h123c155 0 256 -90 256 -247c0 -159 -102 -250 -258 -250h-276zM349 175c48 0 75 29 75 74c0 44 -28 73 -75 73h-99v-147h99z" />
    <glyph glyph-name="uni042C" unicode="&#x44c;" horiz-adv-x="651" 
d="M95 0c-32 0 -42 11 -42 42v626c0 31 10 42 42 42h113c32 0 42 -11 42 -42v-171h123c155 0 256 -90 256 -247c0 -159 -102 -250 -258 -250h-276zM349 175c48 0 75 29 75 74c0 44 -28 73 -75 73h-99v-147h99z" />
    <glyph glyph-name="uni042A" unicode="&#x42a;" horiz-adv-x="785" 
d="M229 0c-32 0 -42 11 -42 42v493h-131c-31 0 -42 11 -42 42v91c0 31 11 42 42 42h286c32 0 42 -11 42 -42v-171h123c156 0 256 -90 256 -247c0 -159 -102 -250 -257 -250h-277zM483 175c48 0 75 29 75 74c0 44 -28 73 -75 73h-99v-147h99z" />
    <glyph glyph-name="uni042A" unicode="&#x44a;" horiz-adv-x="785" 
d="M229 0c-32 0 -42 11 -42 42v493h-131c-31 0 -42 11 -42 42v91c0 31 11 42 42 42h286c32 0 42 -11 42 -42v-171h123c156 0 256 -90 256 -247c0 -159 -102 -250 -257 -250h-277zM483 175c48 0 75 29 75 74c0 44 -28 73 -75 73h-99v-147h99z" />
    <glyph glyph-name="uni042B" unicode="&#x42b;" horiz-adv-x="943" 
d="M95 0c-32 0 -42 11 -42 42v626c0 31 10 42 42 42h113c32 0 42 -11 42 -42v-171h123c155 0 256 -90 256 -247c0 -159 -102 -250 -258 -250h-276zM732 0c-30 0 -40 10 -40 40v630c0 30 10 40 40 40h118c30 0 40 -10 40 -40v-630c0 -30 -10 -40 -40 -40h-118zM349 175
c48 0 75 29 75 74c0 44 -28 73 -75 73h-99v-147h99z" />
    <glyph glyph-name="uni042B" unicode="&#x44b;" horiz-adv-x="943" 
d="M95 0c-32 0 -42 11 -42 42v626c0 31 10 42 42 42h113c32 0 42 -11 42 -42v-171h123c155 0 256 -90 256 -247c0 -159 -102 -250 -258 -250h-276zM732 0c-30 0 -40 10 -40 40v630c0 30 10 40 40 40h118c30 0 40 -10 40 -40v-630c0 -30 -10 -40 -40 -40h-118zM349 175
c48 0 75 29 75 74c0 44 -28 73 -75 73h-99v-147h99z" />
    <glyph glyph-name="uni042D" unicode="&#x42d;" horiz-adv-x="659" 
d="M316 -15c-154 0 -250 63 -291 175c-11 29 -3 44 26 54l98 35c30 11 43 4 54 -27c17 -43 57 -65 113 -65c72 0 110 33 110 96v21h-167c-32 0 -43 11 -43 43v84c0 32 11 42 43 42h167v18c0 61 -40 92 -110 92c-57 0 -95 -20 -113 -65c-11 -31 -24 -37 -54 -27l-98 35
c-29 11 -37 25 -26 54c41 112 137 175 291 175c197 0 307 -107 307 -279v-182c0 -172 -110 -279 -307 -279z" />
    <glyph glyph-name="uni042D" unicode="&#x44d;" horiz-adv-x="659" 
d="M316 -15c-154 0 -250 63 -291 175c-11 29 -3 44 26 54l98 35c30 11 43 4 54 -27c17 -43 57 -65 113 -65c72 0 110 33 110 96v21h-167c-32 0 -43 11 -43 43v84c0 32 11 42 43 42h167v18c0 61 -40 92 -110 92c-57 0 -95 -20 -113 -65c-11 -31 -24 -37 -54 -27l-98 35
c-29 11 -37 25 -26 54c41 112 137 175 291 175c197 0 307 -107 307 -279v-182c0 -172 -110 -279 -307 -279z" />
    <glyph glyph-name="uni042E" unicode="&#x42e;" horiz-adv-x="973" 
d="M637 -15c-186 0 -298 102 -298 265v23h-89v-231c0 -31 -10 -42 -42 -42h-113c-32 0 -42 11 -42 42v626c0 31 10 42 42 42h113c32 0 42 -11 42 -42v-221h90v20c0 161 112 258 297 258c194 0 300 -107 300 -279v-182c0 -172 -106 -279 -300 -279zM637 160
c66 0 102 32 102 95v200c0 63 -36 95 -102 95c-65 0 -101 -32 -101 -95v-200c0 -63 36 -95 101 -95z" />
    <glyph glyph-name="uni042E" unicode="&#x44e;" horiz-adv-x="973" 
d="M637 -15c-186 0 -298 102 -298 265v23h-89v-231c0 -31 -10 -42 -42 -42h-113c-32 0 -42 11 -42 42v626c0 31 10 42 42 42h113c32 0 42 -11 42 -42v-221h90v20c0 161 112 258 297 258c194 0 300 -107 300 -279v-182c0 -172 -106 -279 -300 -279zM637 160
c66 0 102 32 102 95v200c0 63 -36 95 -102 95c-65 0 -101 -32 -101 -95v-200c0 -63 36 -95 101 -95z" />
    <glyph glyph-name="uni042F" unicode="&#x42f;" horiz-adv-x="664" 
d="M54 0c-33 0 -39 19 -25 49l81 171c9 17 18 33 28 46c-65 38 -102 108 -102 203c0 155 97 241 248 241h285c32 0 43 -11 43 -42v-626c0 -31 -11 -42 -43 -42h-112c-32 0 -43 11 -43 42v194h-27c-46 0 -62 -12 -78 -51l-58 -143c-15 -36 -36 -42 -89 -42h-108zM414 406v130
h-108c-43 0 -66 -25 -66 -66s24 -64 66 -64h108z" />
    <glyph glyph-name="uni042F" unicode="&#x44f;" horiz-adv-x="664" 
d="M54 0c-33 0 -39 19 -25 49l81 171c9 17 18 33 28 46c-65 38 -102 108 -102 203c0 155 97 241 248 241h285c32 0 43 -11 43 -42v-626c0 -31 -11 -42 -43 -42h-112c-32 0 -43 11 -43 42v194h-27c-46 0 -62 -12 -78 -51l-58 -143c-15 -36 -36 -42 -89 -42h-108zM414 406v130
h-108c-43 0 -66 -25 -66 -66s24 -64 66 -64h108z" />
    <glyph glyph-name="uni0414.loclBGR" horiz-adv-x="790" 
d="M60 -153c-32 0 -43 11 -43 42v243c0 31 11 41 43 41h33l190 502c11 29 23 35 52 35h113c29 0 42 -7 52 -33l191 -504h40c32 0 42 -10 42 -41v-243c0 -31 -10 -42 -42 -42h-110c-32 0 -42 11 -42 42v111h-367v-111c0 -31 -11 -42 -42 -42h-110zM488 173l-64 187
c-26 80 -30 169 -30 169h-9s-4 -89 -30 -169l-64 -187h197z" />
    <glyph glyph-name="uni041B.loclBGR" horiz-adv-x="672" 
d="M34 0c-31 0 -37 14 -27 41l220 634c10 29 24 35 52 35h114c28 0 42 -7 52 -33l221 -636c10 -27 1 -41 -29 -41h-107c-51 0 -67 11 -75 42l-95 342c-19 70 -22 145 -22 145h-10s0 -75 -20 -144l-95 -343c-9 -31 -23 -42 -73 -42h-106z" />
    <glyph glyph-name="uni0424.loclBGR" horiz-adv-x="902" 
d="M395 -86c-32 0 -42 11 -42 43v43h-30c-187 0 -286 98 -286 265v179c0 168 99 266 286 266h30v43c0 31 10 42 42 42h112c32 0 43 -11 43 -42v-43h30c187 0 286 -98 286 -266v-179c0 -167 -99 -265 -286 -265h-30v-43c0 -32 -11 -43 -43 -43h-112zM353 170v371h-21
c-62 0 -94 -30 -94 -89v-194c0 -59 32 -88 94 -88h21zM571 170c62 0 93 29 93 88v194c0 59 -31 89 -93 89h-21v-371h21z" />
    <glyph glyph-name="uni0414.ss01" horiz-adv-x="790" 
d="M60 -153c-32 0 -43 11 -43 42v243c0 31 11 41 43 41h33l190 502c11 29 23 35 52 35h113c29 0 42 -7 52 -33l191 -504h40c32 0 42 -10 42 -41v-243c0 -31 -10 -42 -42 -42h-110c-32 0 -42 11 -42 42v111h-367v-111c0 -31 -11 -42 -42 -42h-110zM488 173l-64 187
c-26 80 -30 169 -30 169h-9s-4 -89 -30 -169l-64 -187h197z" />
    <glyph glyph-name="uni041B.ss01" horiz-adv-x="672" 
d="M34 0c-31 0 -37 14 -27 41l220 634c10 29 24 35 52 35h114c28 0 42 -7 52 -33l221 -636c10 -27 1 -41 -29 -41h-107c-51 0 -67 11 -75 42l-95 342c-19 70 -22 145 -22 145h-10s0 -75 -20 -144l-95 -343c-9 -31 -23 -42 -73 -42h-106z" />
    <glyph glyph-name="uni0424.ss01" horiz-adv-x="902" 
d="M395 -86c-32 0 -42 11 -42 43v43h-30c-187 0 -286 98 -286 265v179c0 168 99 266 286 266h30v43c0 31 10 42 42 42h112c32 0 43 -11 43 -42v-43h30c187 0 286 -98 286 -266v-179c0 -167 -99 -265 -286 -265h-30v-43c0 -32 -11 -43 -43 -43h-112zM353 170v371h-21
c-62 0 -94 -30 -94 -89v-194c0 -59 32 -88 94 -88h21zM571 170c62 0 93 29 93 88v194c0 59 -31 89 -93 89h-21v-371h21z" />
    <glyph glyph-name="pi" unicode="&#x3c0;" horiz-adv-x="683" 
d="M498 0c-29 -12 -42 -9 -54 19c-25 55 -29 92 -29 147v192h-100v-320c0 -28 -10 -38 -38 -38h-110c-28 0 -38 10 -38 38v320c-13 0 -18 -2 -42 -12c-26 -10 -39 -9 -50 17l-35 78c-12 26 -8 38 18 50c50 21 87 29 155 29h447c29 0 38 -9 38 -38v-85c0 -28 -9 -39 -38 -39
h-21v-181c0 -36 1 -50 15 -81c13 -27 9 -44 -21 -56z" />
    <glyph glyph-name="zero" unicode="0" horiz-adv-x="652" 
d="M326 -15c-181 0 -285 100 -285 261v219c0 159 104 260 285 260s284 -101 284 -260v-219c0 -161 -103 -261 -284 -261zM326 160c54 0 87 28 87 78v235c0 50 -33 77 -87 77c-55 0 -87 -27 -87 -77v-235c0 -50 32 -78 87 -78z" />
    <glyph glyph-name="one" unicode="1" horiz-adv-x="453" 
d="M235 0c-32 0 -43 11 -43 42v418l-67 -38c-33 -19 -50 -12 -65 16l-47 85c-15 28 -7 42 20 58l195 112c23 14 34 17 60 17h60c31 0 42 -11 42 -42v-626c0 -31 -11 -42 -42 -42h-113z" />
    <glyph glyph-name="two" unicode="2" horiz-adv-x="617" 
d="M77 0c-32 0 -43 11 -43 42v80c0 136 101 183 194 223c80 34 155 63 155 139c0 39 -26 66 -69 66c-42 0 -65 -19 -87 -66c-14 -31 -24 -37 -54 -27l-106 40c-29 10 -38 24 -26 53c41 104 125 175 279 175c168 0 264 -104 264 -232c0 -155 -74 -212 -226 -266
c-54 -18 -118 -27 -118 -52v-6h287c32 0 43 -11 43 -43v-84c0 -31 -11 -42 -43 -42h-450z" />
    <glyph glyph-name="three" unicode="3" horiz-adv-x="630" 
d="M327 -15c-162 0 -254 63 -295 175c-11 29 -3 44 27 54l98 35c29 11 42 4 54 -27c16 -43 44 -65 101 -65c52 0 78 19 78 59c0 43 -23 59 -65 59h-62c-32 0 -42 11 -42 43v82c0 32 10 43 42 43h44c39 0 69 15 69 55c0 39 -22 55 -69 55c-56 0 -76 -20 -94 -65
c-12 -31 -24 -37 -54 -27l-98 35c-30 11 -37 25 -27 54c42 112 132 175 295 175c160 0 246 -82 246 -207c0 -63 -27 -113 -77 -146c68 -36 99 -96 99 -168c0 -138 -87 -219 -270 -219z" />
    <glyph glyph-name="four" unicode="4" horiz-adv-x="661" 
d="M404 0c-32 0 -42 11 -42 42v99h-303c-31 0 -42 11 -42 42v66c0 33 2 45 22 68l305 363c19 23 32 30 64 30h98c32 0 43 -11 43 -42v-373h50c32 0 43 -11 43 -42v-70c0 -31 -11 -42 -43 -42h-50v-99c0 -31 -11 -42 -43 -42h-102zM362 295v169l-140 -169h140z" />
    <glyph glyph-name="five" unicode="5" horiz-adv-x="617" 
d="M318 -15c-161 0 -249 53 -291 165c-11 30 -3 43 26 54l106 40c28 10 40 6 53 -25c15 -36 40 -57 97 -57c47 0 74 25 74 75c0 45 -27 68 -80 68h-208c-36 0 -47 15 -43 49l30 297c5 45 20 60 67 60h366c32 0 43 -11 43 -43v-90c0 -31 -11 -42 -43 -42h-248l-8 -70h68
c184 0 261 -105 261 -238c0 -137 -97 -243 -270 -243z" />
    <glyph glyph-name="six" unicode="6" horiz-adv-x="655" 
d="M331 -15c-190 0 -290 97 -290 269v202c0 172 101 269 290 269c148 0 237 -51 278 -159c12 -30 4 -43 -26 -54l-95 -36c-30 -12 -39 -2 -55 28c-15 32 -45 46 -99 46c-66 0 -96 -28 -96 -93v-15c25 4 57 8 104 8c192 0 279 -74 279 -230c0 -152 -109 -235 -290 -235z
M331 154c70 0 93 24 93 65c0 42 -23 63 -93 63c-46 0 -76 -6 -93 -11v-39c0 -49 25 -78 93 -78z" />
    <glyph glyph-name="seven" unicode="7" horiz-adv-x="572" 
d="M119 0c-31 0 -33 16 -21 42l230 494h-266c-32 0 -43 10 -43 42v90c0 31 11 42 43 42h453c31 0 42 -11 42 -42v-68c0 -24 -1 -34 -13 -59l-236 -504c-15 -31 -26 -37 -79 -37h-110z" />
    <glyph glyph-name="eight" unicode="8" horiz-adv-x="652" 
d="M325 -15c-210 0 -292 81 -292 204c0 83 52 137 98 166c-44 31 -75 81 -75 156c0 136 103 214 269 214c176 0 270 -73 270 -201c0 -72 -36 -118 -71 -147c55 -32 95 -82 95 -169c0 -131 -84 -223 -294 -223zM357 435c23 16 44 38 44 72s-25 54 -75 54
c-49 0 -70 -20 -70 -54c0 -36 26 -50 71 -63zM324 148c64 0 89 23 89 58c0 47 -44 53 -133 79c-24 -16 -50 -38 -50 -77c0 -38 28 -60 94 -60z" />
    <glyph glyph-name="nine" unicode="9" horiz-adv-x="655" 
d="M324 -15c-148 0 -237 51 -278 159c-12 30 -4 43 26 54l95 36c30 12 39 2 55 -27c15 -33 45 -47 99 -47c66 0 96 28 96 93v15c-25 -4 -57 -8 -104 -8c-192 0 -279 74 -279 230c0 152 109 235 290 235c190 0 290 -97 290 -269v-202c0 -172 -101 -269 -290 -269zM324 428
c46 0 76 6 93 11v39c0 49 -25 78 -93 78c-70 0 -93 -24 -93 -65c0 -42 23 -63 93 -63z" />
    <glyph glyph-name="zero.sinf" horiz-adv-x="391" 
d="M196 -127c-107 0 -167 57 -167 148v113c0 91 60 149 167 149c106 0 166 -58 166 -149v-113c0 -91 -60 -148 -166 -148zM196 -8c17 0 28 9 28 28v116c0 18 -11 26 -28 26c-18 0 -29 -8 -29 -26v-116c0 -19 11 -28 29 -28z" />
    <glyph glyph-name="one.sinf" horiz-adv-x="301" 
d="M163 -119c-33 0 -41 11 -41 40v190l-27 -15c-28 -15 -43 -9 -58 14l-24 40c-13 24 -8 39 16 53l105 60c14 9 27 12 47 12h33c38 0 45 -8 45 -42v-312c0 -29 -9 -40 -42 -40h-54z" />
    <glyph glyph-name="two.sinf" horiz-adv-x="379" 
d="M64 -119c-27 0 -36 9 -36 34v32c0 74 20 108 95 134l53 19c25 9 35 17 35 40c0 13 -7 23 -22 23c-14 0 -26 -5 -35 -23c-14 -26 -21 -35 -50 -24l-50 18c-27 10 -33 24 -21 55c24 59 71 94 163 94c99 0 156 -50 156 -127c0 -67 -23 -115 -95 -136l-43 -12
c-13 -3 -22 -6 -22 -10v-2h117c28 0 36 -9 36 -35v-46c0 -25 -7 -34 -34 -34h-247z" />
    <glyph glyph-name="three.sinf" horiz-adv-x="385" 
d="M196 -127c-92 0 -150 26 -172 94c-8 24 -6 38 17 46l43 16c30 11 41 4 53 -21c11 -23 30 -26 53 -26s34 6 34 19c0 16 -7 23 -30 23h-29c-23 0 -28 5 -28 29v50c0 25 4 31 31 31h20c18 0 30 5 30 22c0 14 -10 21 -30 21c-25 0 -41 -7 -52 -31c-11 -23 -22 -33 -52 -20
l-37 16c-18 7 -28 19 -19 45c23 64 75 96 168 96c97 0 152 -43 152 -117c0 -36 -8 -59 -39 -81c40 -20 51 -56 51 -94c0 -74 -54 -118 -164 -118z" />
    <glyph glyph-name="four.sinf" horiz-adv-x="403" 
d="M239 -119c-24 0 -31 9 -31 34v34h-159c-28 0 -36 10 -36 35v31c0 23 2 29 14 43l160 192c18 21 26 25 58 25h51c32 0 40 -9 40 -40v-179h11c29 0 33 -7 33 -29v-47c0 -23 -4 -31 -33 -31h-11v-34c0 -25 -8 -34 -32 -34h-65zM208 56v67l-54 -67h54z" />
    <glyph glyph-name="five.sinf" horiz-adv-x="381" 
d="M196 -127c-94 0 -142 30 -169 92c-12 29 -4 40 18 48l48 19c25 9 37 12 50 -17c12 -26 26 -32 48 -32c24 0 37 12 37 35c0 19 -10 34 -38 34h-119c-30 0 -38 10 -35 36l17 156c3 24 13 31 42 31h216c22 0 30 -7 30 -29v-45c0 -23 -5 -29 -30 -29h-140l-2 -25h31
c107 0 156 -53 156 -130c0 -79 -57 -144 -160 -144z" />
    <glyph glyph-name="six.sinf" horiz-adv-x="392" 
d="M198 -127c-111 0 -169 48 -169 147v116c0 98 59 147 174 147c80 0 130 -29 153 -68c11 -19 6 -31 -14 -41l-58 -29c-20 -11 -28 -4 -37 6s-21 22 -42 22c-24 0 -39 -6 -39 -34v-17c15 4 32 6 50 6c105 0 151 -43 151 -123c0 -88 -65 -132 -169 -132zM198 -19
c21 0 31 8 31 23c0 16 -8 23 -31 23c-10 0 -21 -2 -32 -6v-8c0 -22 11 -32 32 -32z" />
    <glyph glyph-name="seven.sinf" horiz-adv-x="347" 
d="M89 -119c-35 0 -39 11 -24 43l111 234h-128c-28 0 -32 9 -32 35v47c0 29 7 35 34 35h249c27 0 35 -6 35 -30v-34c0 -17 -3 -27 -9 -40l-124 -266c-9 -20 -16 -24 -52 -24h-60z" />
    <glyph glyph-name="eight.sinf" horiz-adv-x="399" 
d="M199 -127c-124 0 -175 43 -175 108c0 46 30 76 58 94c-26 21 -46 50 -46 91c0 75 63 117 163 117c106 0 163 -40 163 -106c0 -41 -19 -68 -42 -84c31 -21 54 -50 54 -96c0 -76 -51 -124 -175 -124zM208 135c12 7 22 16 22 29c0 11 -6 22 -32 22c-21 0 -30 -9 -30 -21
c0 -15 17 -22 40 -30zM201 -30c23 0 34 11 34 23c0 16 -16 24 -43 34c-16 -10 -29 -20 -29 -33s9 -24 38 -24z" />
    <glyph glyph-name="nine.sinf" horiz-adv-x="392" 
d="M189 -127c-80 0 -131 29 -153 68c-11 19 -6 31 14 41l58 29c20 11 28 3 36 -6c10 -10 22 -23 43 -23c24 0 39 7 39 34v18c-15 -4 -32 -6 -50 -6c-105 0 -151 43 -151 123c0 87 64 132 169 132c110 0 169 -48 169 -147v-116c0 -98 -60 -147 -174 -147zM194 129
c10 0 21 2 32 5v9c0 22 -11 32 -32 32s-31 -8 -31 -24c0 -15 8 -22 31 -22z" />
    <glyph glyph-name="zero.tf" horiz-adv-x="656" 
d="M328 -15c-189 0 -293 100 -293 261v219c0 159 104 260 293 260c187 0 291 -101 291 -260v-219c0 -161 -104 -261 -291 -261zM328 160c61 0 93 28 93 78v235c0 50 -32 77 -93 77c-63 0 -95 -27 -95 -77v-235c0 -50 32 -78 95 -78z" />
    <glyph glyph-name="one.tf" horiz-adv-x="656" 
d="M82 0c-31 0 -42 11 -42 42v84c0 32 11 43 42 43h161v291l-54 -32c-33 -19 -49 -12 -64 16l-48 85c-16 27 -8 42 20 58l182 106c24 14 34 17 60 17h60c32 0 42 -11 42 -42v-499h134c32 0 42 -11 42 -43v-84c0 -31 -10 -42 -42 -42h-493z" />
    <glyph glyph-name="two.tf" horiz-adv-x="656" 
d="M84 0c-31 0 -42 11 -42 42v80c0 136 101 184 195 223c80 34 179 63 179 139c0 39 -22 66 -77 66c-52 0 -82 -19 -104 -66c-14 -31 -24 -37 -54 -27l-105 40c-30 10 -38 24 -27 53c41 104 137 175 295 175c187 0 274 -98 274 -226c0 -150 -96 -215 -236 -266
c-54 -18 -128 -33 -128 -58v-6h307c32 0 43 -11 43 -43v-84c0 -31 -11 -42 -43 -42h-477z" />
    <glyph glyph-name="three.tf" horiz-adv-x="656" 
d="M342 -15c-162 0 -256 62 -296 175c-10 29 -3 44 27 54l98 35c30 11 42 4 54 -27c16 -43 45 -65 101 -65c57 0 83 19 83 59c0 43 -23 59 -70 59h-62c-31 0 -42 11 -42 43v82c0 32 11 43 42 43h45c42 0 72 15 72 55c0 39 -22 55 -73 55c-56 0 -77 -20 -94 -65
c-11 -31 -23 -37 -54 -27l-97 35c-30 11 -38 25 -27 54c41 112 131 175 295 175s250 -82 250 -207c0 -63 -28 -113 -78 -146c69 -36 99 -96 99 -168c0 -138 -86 -219 -273 -219z" />
    <glyph glyph-name="four.tf" horiz-adv-x="656" 
d="M402 0c-32 0 -43 11 -43 42v99h-282c-32 0 -43 11 -43 42v66c0 33 3 44 22 68l285 363c19 23 32 30 64 30h99c32 0 42 -11 42 -42v-373h35c32 0 42 -11 42 -42v-70c0 -31 -10 -42 -42 -42h-35v-99c0 -31 -10 -42 -42 -42h-102zM359 295v169l-120 -169h120z" />
    <glyph glyph-name="five.tf" horiz-adv-x="656" 
d="M339 -15c-161 0 -249 53 -291 165c-11 30 -3 43 26 54l106 40c28 10 40 6 53 -25c14 -36 40 -57 97 -57c47 0 74 25 74 75c0 45 -27 68 -80 68h-208c-36 0 -47 15 -44 49l31 297c5 45 20 60 67 60h366c32 0 43 -11 43 -43v-90c0 -31 -11 -42 -43 -42h-248l-8 -70h68
c184 0 261 -105 261 -238c0 -137 -97 -243 -270 -243z" />
    <glyph glyph-name="six.tf" horiz-adv-x="656" 
d="M328 -15c-191 0 -291 97 -291 269v202c0 172 101 269 291 269c149 0 237 -51 279 -159c11 -30 3 -43 -26 -54l-96 -36c-29 -12 -39 -2 -54 28c-16 32 -46 46 -100 46c-67 0 -97 -28 -97 -93v-15c25 4 58 8 105 8c193 0 279 -74 279 -230c0 -152 -109 -235 -290 -235z
M328 154c70 0 93 24 93 65c0 42 -22 63 -93 63c-47 0 -77 -6 -94 -11v-39c0 -49 25 -78 94 -78z" />
    <glyph glyph-name="seven.tf" horiz-adv-x="656" 
d="M154 0c-31 0 -34 16 -21 42l252 494h-298c-32 0 -43 10 -43 42v90c0 31 11 42 43 42h487c32 0 42 -11 42 -42v-68c0 -24 0 -34 -12 -59l-258 -504c-16 -31 -26 -37 -79 -37h-113z" />
    <glyph glyph-name="eight.tf" horiz-adv-x="656" 
d="M325 -15c-210 0 -292 81 -292 204c0 83 52 137 99 166c-45 31 -75 81 -75 156c0 136 102 214 268 214c177 0 271 -73 271 -201c0 -72 -37 -118 -71 -147c55 -32 94 -82 94 -169c0 -131 -83 -223 -294 -223zM357 435c24 16 44 38 44 72s-25 54 -74 54s-71 -20 -71 -54
c0 -36 26 -50 72 -63zM324 148c64 0 90 23 90 58c0 47 -45 53 -134 79c-24 -16 -50 -38 -50 -77c0 -38 28 -60 94 -60z" />
    <glyph glyph-name="nine.tf" horiz-adv-x="656" 
d="M326 -15c-149 0 -238 51 -279 159c-12 30 -4 43 26 54l95 36c30 12 39 2 55 -27c15 -33 45 -47 100 -47c67 0 97 28 97 93v15c-24 -4 -58 -8 -104 -8c-194 0 -281 74 -281 230c0 152 109 235 291 235c191 0 291 -97 291 -269v-202c0 -172 -101 -269 -291 -269zM326 428
c46 0 77 6 94 11v39c0 49 -25 78 -94 78c-71 0 -94 -24 -94 -65c0 -42 23 -63 94 -63z" />
    <glyph glyph-name="zero.dnom" horiz-adv-x="391" 
d="M196 -8c-107 0 -167 57 -167 149v113c0 91 60 149 167 149c106 0 166 -58 166 -149v-113c0 -92 -60 -149 -166 -149zM196 112c17 0 28 9 28 27v117c0 18 -11 26 -28 26c-18 0 -29 -8 -29 -26v-117c0 -18 11 -27 29 -27z" />
    <glyph glyph-name="one.dnom" horiz-adv-x="301" 
d="M163 0c-33 0 -41 11 -41 40v191l-27 -15c-28 -15 -43 -9 -58 14l-24 40c-13 24 -8 39 16 53l105 60c14 9 27 12 47 12h33c38 0 45 -8 45 -42v-313c0 -29 -9 -40 -42 -40h-54z" />
    <glyph glyph-name="two.dnom" horiz-adv-x="379" 
d="M64 0c-27 0 -36 9 -36 34v33c0 74 20 108 95 134l53 18c25 9 35 18 35 41c0 12 -7 23 -22 23c-14 0 -26 -6 -35 -23c-14 -26 -21 -35 -50 -24l-50 18c-27 10 -33 24 -21 54c24 59 71 95 163 95c99 0 156 -51 156 -128c0 -67 -23 -114 -95 -135l-43 -13
c-13 -2 -22 -5 -22 -10v-1h117c28 0 36 -9 36 -35v-47c0 -25 -7 -34 -34 -34h-247z" />
    <glyph glyph-name="three.dnom" horiz-adv-x="385" 
d="M196 -8c-92 0 -150 27 -172 95c-8 23 -6 38 17 46l43 15c30 11 41 5 53 -21c11 -23 30 -26 53 -26s34 7 34 20c0 16 -7 23 -30 23h-29c-23 0 -28 5 -28 29v50c0 24 4 31 31 31h20c18 0 30 5 30 21c0 15 -10 22 -30 22c-25 0 -41 -7 -52 -31c-11 -23 -22 -33 -52 -20
l-37 16c-18 7 -28 19 -19 45c23 63 75 96 168 96c97 0 152 -43 152 -117c0 -37 -8 -59 -39 -81c40 -20 51 -56 51 -95c0 -74 -54 -118 -164 -118z" />
    <glyph glyph-name="four.dnom" horiz-adv-x="403" 
d="M239 0c-24 0 -31 9 -31 34v35h-159c-28 0 -36 10 -36 35v30c0 23 2 29 14 44l160 192c18 21 26 25 58 25h51c32 0 40 -9 40 -40v-179h11c29 0 33 -8 33 -30v-46c0 -24 -4 -31 -33 -31h-11v-35c0 -25 -8 -34 -32 -34h-65zM208 176v66l-54 -66h54z" />
    <glyph glyph-name="five.dnom" horiz-adv-x="381" 
d="M196 -8c-94 0 -142 31 -169 92c-12 30 -4 40 18 49l48 19c25 9 37 12 50 -18c12 -25 26 -31 48 -31c24 0 37 12 37 34c0 20 -10 35 -38 35h-119c-30 0 -38 9 -35 36l17 156c3 24 13 31 42 31h216c22 0 30 -7 30 -29v-45c0 -23 -5 -29 -30 -29h-140l-2 -26h31
c107 0 156 -52 156 -130c0 -79 -57 -144 -160 -144z" />
    <glyph glyph-name="six.dnom" horiz-adv-x="392" 
d="M198 -8c-111 0 -169 49 -169 147v116c0 99 59 148 174 148c80 0 130 -29 153 -68c11 -19 6 -31 -14 -41l-58 -30c-20 -10 -28 -3 -37 7c-9 9 -21 22 -42 22c-24 0 -39 -7 -39 -34v-17c15 4 32 6 50 6c105 0 151 -43 151 -124c0 -87 -65 -132 -169 -132zM198 101
c21 0 31 7 31 23s-8 23 -31 23c-10 0 -21 -3 -32 -6v-9c0 -21 11 -31 32 -31z" />
    <glyph glyph-name="seven.dnom" horiz-adv-x="347" 
d="M89 0c-34 0 -39 11 -24 43l112 235h-129c-27 0 -32 9 -32 35v47c0 29 8 35 35 35h249c26 0 34 -6 34 -30v-34c0 -17 -2 -27 -9 -40l-123 -267c-10 -20 -16 -24 -53 -24h-60z" />
    <glyph glyph-name="eight.dnom" horiz-adv-x="399" 
d="M199 -9c-124 0 -175 44 -175 109c0 46 30 76 58 94c-26 21 -46 50 -46 91c0 75 63 118 163 118c106 0 163 -41 163 -107c0 -41 -19 -68 -42 -84c31 -21 54 -50 54 -96c0 -76 -51 -125 -175 -125zM208 254c12 7 22 16 22 29c0 11 -6 22 -32 22c-21 0 -30 -9 -30 -21
c0 -15 17 -22 40 -30zM201 89c23 0 34 11 34 23c0 16 -16 24 -43 34c-16 -10 -29 -20 -29 -33s9 -24 38 -24z" />
    <glyph glyph-name="nine.dnom" horiz-adv-x="392" 
d="M189 -8c-80 0 -131 29 -153 68c-11 19 -6 31 14 41l58 30c20 10 28 3 36 -7c10 -9 22 -22 43 -22c24 0 39 7 39 34v17c-15 -4 -32 -6 -50 -6c-105 0 -151 43 -151 124c0 87 64 132 169 132c110 0 169 -49 169 -147v-116c0 -99 -60 -148 -174 -148zM194 248
c10 0 21 3 32 6v9c0 21 -11 31 -32 31s-31 -7 -31 -23s8 -23 31 -23z" />
    <glyph glyph-name="zero.numr" horiz-adv-x="391" 
d="M196 312c-107 0 -167 57 -167 149v112c0 90 60 149 167 149c106 0 166 -59 166 -149v-112c0 -92 -60 -149 -166 -149zM196 432c17 0 28 9 28 27v114c0 19 -11 27 -28 27c-18 0 -29 -8 -29 -27v-114c0 -18 11 -27 29 -27z" />
    <glyph glyph-name="one.numr" horiz-adv-x="301" 
d="M163 320c-33 0 -41 11 -41 40v191l-27 -15c-28 -15 -43 -9 -58 14l-24 40c-13 24 -8 39 16 53l105 60c14 9 27 12 47 12h33c38 0 45 -8 45 -42v-313c0 -29 -9 -40 -42 -40h-54z" />
    <glyph glyph-name="two.numr" horiz-adv-x="379" 
d="M64 320c-27 0 -36 9 -36 34v33c0 74 20 108 95 134l53 18c25 9 35 18 35 41c0 13 -7 23 -22 23c-14 0 -26 -5 -35 -22c-14 -26 -21 -35 -50 -24l-50 18c-27 10 -32 23 -20 54c23 59 70 93 162 93c99 0 156 -50 156 -127c0 -67 -23 -114 -95 -135l-43 -13
c-13 -2 -22 -5 -22 -10v-1h117c28 0 36 -9 36 -35v-47c0 -25 -7 -34 -34 -34h-247z" />
    <glyph glyph-name="three.numr" horiz-adv-x="385" 
d="M196 312c-92 0 -150 27 -172 95c-8 23 -6 38 17 46l43 15c30 11 41 5 53 -21c11 -23 30 -26 53 -26s34 7 34 20c0 16 -7 23 -30 23h-29c-23 0 -28 5 -28 29v50c0 24 4 31 31 31h20c18 0 30 5 30 21c0 15 -10 22 -30 22c-25 0 -41 -7 -52 -31c-11 -23 -22 -33 -52 -20
l-37 16c-18 7 -27 18 -17 45c22 63 73 95 166 95c97 0 152 -42 152 -116c0 -37 -8 -59 -39 -81c37 -23 51 -60 51 -98c0 -74 -54 -115 -164 -115z" />
    <glyph glyph-name="four.numr" horiz-adv-x="403" 
d="M239 320c-24 0 -31 9 -31 34v35h-159c-28 0 -36 10 -36 35v30c0 23 2 29 14 44l160 192c18 21 26 25 58 25h51c32 0 40 -9 40 -40v-179h11c29 0 33 -8 33 -30v-46c0 -24 -4 -31 -33 -31h-11v-35c0 -25 -8 -34 -32 -34h-65zM208 496v66l-54 -66h54z" />
    <glyph glyph-name="five.numr" horiz-adv-x="381" 
d="M196 312c-94 0 -142 31 -169 92c-12 30 -4 40 18 49l48 19c25 9 37 12 50 -18c12 -25 26 -31 48 -31c24 0 37 12 37 34c0 20 -10 35 -38 35h-119c-30 0 -38 9 -35 36l17 156c3 24 13 31 42 31h216c22 0 30 -7 30 -29v-45c0 -23 -5 -29 -30 -29h-140l-2 -26h31
c107 0 156 -52 156 -130c0 -79 -57 -144 -160 -144z" />
    <glyph glyph-name="six.numr" horiz-adv-x="392" 
d="M198 312c-111 0 -169 49 -169 147v116c0 99 59 146 174 146c80 0 130 -27 153 -66c11 -19 6 -31 -14 -41l-58 -30c-20 -10 -28 -3 -37 7c-9 9 -21 22 -42 22c-24 0 -39 -7 -39 -34v-18c15 4 32 6 50 6c105 0 151 -42 151 -123c0 -87 -65 -132 -169 -132zM198 421
c21 0 31 7 31 23s-8 23 -31 23c-10 0 -21 -3 -32 -6v-9c0 -21 11 -31 32 -31z" />
    <glyph glyph-name="seven.numr" horiz-adv-x="347" 
d="M89 320c-34 0 -39 11 -24 43l112 235h-129c-27 0 -32 9 -32 34v48c0 28 8 34 35 34h249c26 0 34 -5 34 -30v-34c0 -17 -2 -27 -9 -40l-123 -266c-10 -20 -16 -24 -53 -24h-60z" />
    <glyph glyph-name="eight.numr" horiz-adv-x="399" 
d="M199 312c-126 0 -175 44 -175 108c0 47 30 76 58 94c-26 21 -46 48 -46 90c0 74 63 118 163 118c106 0 163 -41 163 -107c0 -42 -19 -67 -42 -83c31 -21 54 -49 54 -95c0 -76 -51 -125 -175 -125zM208 573c12 7 22 15 22 28c0 11 -6 22 -32 22c-21 0 -30 -9 -30 -20
c0 -16 17 -22 40 -30zM201 409c23 0 34 11 34 23c0 16 -16 24 -43 34c-16 -10 -29 -20 -29 -33s9 -24 38 -24z" />
    <glyph glyph-name="nine.numr" horiz-adv-x="392" 
d="M189 312c-80 0 -131 29 -153 68c-11 19 -6 31 14 41l58 30c20 10 28 3 36 -7c10 -9 22 -22 43 -22c24 0 39 7 39 34v17c-15 -4 -32 -6 -50 -6c-105 0 -151 43 -151 124c0 87 64 131 169 131c110 0 169 -48 169 -146v-116c0 -99 -60 -148 -174 -148zM194 568
c10 0 21 3 32 6v9c0 21 -11 32 -32 32s-31 -9 -31 -24c0 -16 8 -23 31 -23z" />
    <glyph glyph-name="zero.sups" horiz-adv-x="391" 
d="M196 408c-107 0 -167 57 -167 149v113c0 91 60 148 167 148c106 0 166 -57 166 -148v-113c0 -92 -60 -149 -166 -149zM196 528c17 0 28 9 28 27v117c0 18 -11 26 -28 26c-18 0 -29 -8 -29 -26v-117c0 -18 11 -27 29 -27z" />
    <glyph glyph-name="one.sups" horiz-adv-x="301" 
d="M163 416c-33 0 -41 11 -41 40v190l-27 -15c-28 -15 -43 -9 -58 14l-24 40c-13 24 -8 39 16 53l105 60c14 9 27 12 47 12h33c38 0 45 -8 45 -42v-312c0 -29 -9 -40 -42 -40h-54z" />
    <glyph glyph-name="two.sups" horiz-adv-x="379" 
d="M64 416c-27 0 -36 9 -36 34v32c0 74 20 108 95 134l53 19c25 9 35 17 35 40c0 13 -7 23 -22 23c-14 0 -26 -5 -35 -23c-14 -26 -21 -35 -50 -24l-50 18c-27 10 -33 24 -21 55c24 59 71 94 163 94c99 0 156 -50 156 -127c0 -66 -19 -113 -95 -136l-43 -12
c-13 -3 -22 -6 -22 -10v-2h117c28 0 36 -9 36 -35v-46c0 -25 -7 -34 -34 -34h-247z" />
    <glyph glyph-name="three.sups" horiz-adv-x="384" 
d="M196 408c-92 0 -150 26 -172 94c-8 24 -6 38 16 46l44 16c30 11 40 4 52 -21c11 -23 31 -26 54 -26s34 6 34 19c0 16 -7 23 -31 23h-28c-23 0 -28 5 -28 29v50c0 25 4 31 31 31h19c19 0 31 5 31 22c0 14 -10 21 -31 21c-25 0 -40 -7 -52 -31c-10 -23 -21 -33 -52 -20
l-37 16c-17 7 -27 19 -18 45c23 64 74 96 168 96c96 0 151 -43 151 -117c0 -36 -7 -59 -38 -81c39 -20 50 -56 50 -94c0 -74 -54 -118 -163 -118z" />
    <glyph glyph-name="four.sups" horiz-adv-x="401" 
d="M239 416c-24 0 -31 9 -31 34v35h-159c-28 0 -36 10 -36 35v30c0 23 2 29 14 43l160 192c18 21 26 25 58 25h49c32 0 40 -9 40 -40v-179h11c29 0 33 -7 33 -29v-46c0 -24 -4 -31 -33 -31h-11v-35c0 -25 -8 -34 -32 -34h-63zM208 591v67l-54 -67h54z" />
    <glyph glyph-name="five.sups" horiz-adv-x="380" 
d="M196 408c-94 0 -142 30 -169 92c-12 29 -4 40 18 48l48 19c25 9 37 12 50 -17c12 -26 26 -32 48 -32c24 0 37 12 37 35c0 19 -10 34 -38 34h-119c-30 0 -38 10 -35 36l17 156c3 24 13 31 42 31h216c22 0 30 -7 30 -29v-45c0 -23 -5 -29 -30 -29h-140l-2 -25h31
c107 0 156 -53 156 -130c0 -79 -57 -144 -160 -144z" />
    <glyph glyph-name="six.sups" horiz-adv-x="392" 
d="M198 408c-111 0 -169 48 -169 147v116c0 98 59 147 174 147c80 0 130 -29 153 -68c11 -19 6 -31 -14 -41l-58 -29c-20 -11 -28 -4 -37 6s-21 22 -42 22c-24 0 -39 -6 -39 -34v-17c15 4 32 6 50 6c105 0 151 -43 151 -123c0 -88 -65 -132 -169 -132zM198 516
c21 0 31 8 31 23c0 16 -8 23 -31 23c-10 0 -21 -2 -32 -6v-8c0 -22 11 -32 32 -32z" />
    <glyph glyph-name="seven.sups" horiz-adv-x="347" 
d="M89 416c-34 0 -39 11 -24 43l112 235h-129c-27 0 -32 9 -32 34v47c0 29 8 35 35 35h249c26 0 34 -6 34 -30v-34c0 -17 -2 -27 -9 -40l-123 -266c-10 -20 -16 -24 -53 -24h-60z" />
    <glyph glyph-name="eight.sups" horiz-adv-x="399" 
d="M199 408c-124 0 -175 44 -175 108c0 47 30 75 58 93c-26 20 -46 49 -46 91c0 74 63 118 163 118c106 0 163 -41 163 -107c0 -42 -19 -68 -42 -85c31 -20 54 -47 54 -93c0 -76 -51 -125 -175 -125zM208 669c12 7 22 16 22 29c0 11 -6 22 -32 22c-21 0 -30 -9 -30 -21
c0 -15 17 -23 40 -30zM201 506c23 0 34 10 34 23c0 16 -16 24 -43 33c-16 -9 -29 -19 -29 -33c0 -12 9 -23 38 -23z" />
    <glyph glyph-name="nine.sups" horiz-adv-x="392" 
d="M189 408c-80 0 -131 29 -153 68c-11 19 -6 31 14 41l58 29c20 11 28 3 36 -6c10 -10 22 -23 43 -23c24 0 39 7 39 34v18c-15 -4 -32 -6 -50 -6c-105 0 -151 43 -151 123c0 87 64 132 169 132c110 0 169 -48 169 -147v-116c0 -98 -60 -147 -174 -147zM194 664
c10 0 21 2 32 5v9c0 22 -11 32 -32 32s-31 -8 -31 -24c0 -15 8 -22 31 -22z" />
    <glyph glyph-name="fraction" unicode="&#x2044;" horiz-adv-x="268" 
d="M-175 0c-30 0 -38 19 -21 42l466 633c22 31 32 35 78 35h95c30 0 36 -17 21 -40l-465 -633c-25 -32 -33 -37 -83 -37h-91z" />
    <glyph glyph-name="onehalf" unicode="&#xbd;" horiz-adv-x="874" 
d="M180 315c-33 0 -42 11 -42 40v191l-26 -14c-28 -16 -43 -10 -58 14l-24 39c-14 24 -9 39 16 53l104 61c15 8 27 11 48 11h32c39 0 46 -8 46 -42v-313c0 -29 -9 -40 -42 -40h-54zM122 0c-31 0 -39 19 -22 42l466 633c23 31 32 35 78 35h72c30 0 36 -17 20 -40l-465 -633
c-24 -32 -33 -37 -83 -37h-66zM552 0c-27 0 -36 9 -36 34v33c0 74 20 108 95 134l53 18c25 9 35 18 35 41c0 12 -7 23 -22 23c-14 0 -26 -6 -35 -23c-14 -26 -21 -35 -50 -24l-50 18c-27 10 -33 24 -21 54c24 59 71 95 163 95c99 0 156 -51 156 -128
c0 -67 -23 -114 -95 -135l-43 -13c-13 -2 -22 -5 -22 -10v-1h117c28 0 36 -9 36 -35v-47c0 -25 -7 -34 -34 -34h-247z" />
    <glyph glyph-name="uni2153" unicode="&#x2153;" horiz-adv-x="880" 
d="M121 0c-30 0 -38 19 -21 42l466 633c22 31 32 35 78 35h72c30 0 36 -17 20 -40l-465 -633c-24 -32 -33 -37 -83 -37h-67zM180 311c-33 0 -42 11 -42 40v191l-26 -15c-28 -16 -43 -10 -58 14l-24 40c-14 24 -9 39 16 53l104 60c15 9 27 12 48 12h32c39 0 46 -8 46 -43
v-312c0 -29 -9 -40 -42 -40h-54zM686 -8c-91 0 -150 27 -172 95c-7 23 -5 38 17 46l44 15c30 11 40 5 52 -21c11 -23 30 -26 54 -26c23 0 34 7 34 20c0 16 -7 23 -31 23h-28c-23 0 -28 5 -28 29v50c0 24 4 31 31 31h19c19 0 31 5 31 21c0 15 -10 22 -31 22
c-25 0 -40 -7 -52 -31c-10 -23 -21 -33 -52 -20l-37 16c-17 7 -27 19 -18 45c23 63 74 96 167 96c97 0 152 -43 152 -117c0 -37 -7 -59 -38 -81c37 -23 50 -60 50 -98c0 -74 -54 -115 -164 -115z" />
    <glyph glyph-name="uni2154" unicode="&#x2154;" horiz-adv-x="937" 
d="M68 321c-27 0 -36 9 -36 34v33c0 74 20 108 95 134l53 18c25 9 35 18 35 41c0 13 -7 23 -22 23c-14 0 -26 -6 -35 -23c-13 -26 -21 -35 -50 -24l-49 18c-28 10 -34 24 -22 55c24 58 71 94 164 94c98 0 155 -50 155 -128c0 -67 -23 -114 -95 -135l-43 -12
c-13 -3 -21 -6 -21 -10v-2h117c27 0 35 -9 35 -35v-47c0 -24 -7 -34 -34 -34h-247zM185 0c-31 0 -39 19 -22 42l466 633c23 31 32 35 78 35h72c30 0 36 -17 20 -40l-465 -633c-24 -32 -33 -37 -83 -37h-66zM747 -8c-91 0 -150 27 -172 95c-8 23 -6 38 17 46l44 15
c30 11 40 5 52 -21c11 -23 30 -26 53 -26c24 0 34 7 34 20c0 16 -7 23 -30 23h-29c-22 0 -27 5 -27 29v50c0 24 4 31 30 31h20c19 0 30 5 30 21c0 15 -9 22 -30 22c-25 0 -40 -7 -52 -31c-11 -23 -21 -33 -52 -20l-37 16c-18 7 -28 19 -18 45c22 63 74 96 167 96
c97 0 152 -43 152 -117c0 -37 -8 -59 -39 -81c37 -23 51 -60 51 -98c0 -74 -54 -115 -164 -115z" />
    <glyph glyph-name="onequarter" unicode="&#xbc;" horiz-adv-x="863" 
d="M135 0c-30 0 -39 19 -21 42l466 633c22 31 32 35 78 35h71c30 0 36 -17 21 -40l-465 -633c-25 -32 -33 -37 -83 -37h-67zM180 312c-33 0 -42 11 -42 40v191l-26 -15c-28 -15 -43 -9 -58 14l-24 40c-14 24 -9 39 16 53l104 60c15 9 27 12 48 12h32c39 0 46 -8 46 -42v-313
c0 -29 -9 -40 -42 -40h-54zM692 0c-24 0 -31 9 -31 34v35h-159c-28 0 -36 10 -36 35v30c0 23 2 29 14 44l160 192c18 21 26 25 58 25h51c32 0 40 -9 40 -40v-179h11c29 0 33 -8 33 -30v-46c0 -24 -4 -31 -33 -31h-11v-35c0 -25 -8 -34 -32 -34h-65zM661 176v66l-55 -66h55z
" />
    <glyph glyph-name="threequarters" unicode="&#xbe;" horiz-adv-x="882" 
d="M203 314c-92 0 -151 26 -173 94c-7 24 -5 38 17 46l44 16c30 11 40 4 52 -21c11 -23 31 -26 54 -26s34 6 34 19c0 16 -7 23 -31 23h-28c-23 0 -28 5 -28 29v50c0 25 4 31 31 31h19c19 0 31 5 31 22c0 14 -10 21 -31 21c-25 0 -40 -6 -52 -30c-10 -24 -21 -34 -52 -21
l-37 17c-17 7 -27 18 -18 45c23 63 74 96 168 96c96 0 151 -44 151 -117c0 -37 -7 -59 -38 -81c37 -24 50 -60 50 -99c0 -74 -54 -114 -163 -114zM168 0c-30 0 -38 19 -21 42l466 633c22 31 32 35 78 35h72c30 0 36 -17 20 -40l-465 -633c-24 -32 -33 -37 -83 -37h-67z
M714 0c-24 0 -31 9 -31 34v35h-159c-28 0 -36 10 -36 35v30c0 23 2 29 14 44l160 192c17 21 26 25 58 25h51c32 0 40 -9 40 -40v-179h11c28 0 33 -8 33 -30v-46c0 -24 -5 -31 -33 -31h-11v-35c0 -25 -8 -34 -32 -34h-65zM683 176v66l-55 -66h55z" />
    <glyph glyph-name="oneeighth" unicode="&#x215b;" horiz-adv-x="897" 
d="M180 315c-33 0 -42 11 -42 40v191l-26 -14c-28 -16 -43 -10 -58 14l-24 39c-14 24 -9 39 16 53l104 61c15 8 27 11 48 11h32c39 0 46 -8 46 -42v-313c0 -29 -9 -40 -42 -40h-54zM127 0c-30 0 -38 19 -21 42l466 633c22 31 32 35 78 35h72c30 0 36 -17 20 -40l-465 -633
c-24 -32 -33 -37 -83 -37h-67zM691 -9c-124 0 -175 44 -175 109c0 46 30 76 58 94c-26 21 -46 50 -46 91c0 75 63 119 163 119c106 0 163 -42 163 -108c0 -41 -19 -68 -42 -84c31 -21 54 -50 54 -96c0 -76 -51 -125 -175 -125zM700 254c12 7 22 16 22 29c0 11 -5 22 -31 22
c-22 0 -31 -9 -31 -21c0 -15 18 -22 40 -30zM693 89c23 0 34 11 34 23c0 16 -16 24 -43 34c-16 -10 -29 -20 -29 -33s9 -24 38 -24z" />
    <glyph glyph-name="threeeighths" unicode="&#x215c;" horiz-adv-x="931" 
d="M203 314c-92 0 -151 26 -173 94c-7 24 -5 38 17 46l44 16c30 11 40 4 52 -21c11 -23 31 -26 54 -26s34 6 34 19c0 16 -7 23 -31 23h-28c-23 0 -28 5 -28 29v50c0 25 4 31 31 31h19c19 0 31 5 31 22c0 14 -10 21 -31 21c-25 0 -40 -6 -52 -30c-10 -24 -21 -34 -52 -21
l-37 17c-17 7 -27 18 -18 45c23 63 74 96 168 96c96 0 151 -44 151 -117c0 -37 -7 -59 -38 -81c39 -21 50 -57 50 -95c0 -74 -54 -118 -163 -118zM172 0c-30 0 -39 19 -21 42l466 633c22 31 31 35 77 35h72c30 0 36 -18 20 -40l-465 -633c-24 -33 -32 -37 -82 -37h-67z
M729 -9c-124 0 -175 44 -175 109c0 46 29 76 58 94c-26 21 -46 50 -46 91c0 75 63 119 163 119c106 0 163 -42 163 -108c0 -41 -19 -68 -42 -84c31 -21 54 -50 54 -96c0 -76 -51 -125 -175 -125zM738 254c12 7 22 16 22 29c0 11 -6 22 -32 22c-22 0 -30 -9 -30 -21
c0 -15 17 -22 40 -30zM731 89c23 0 34 11 34 23c0 16 -16 24 -43 34c-16 -10 -29 -20 -29 -33s9 -24 38 -24z" />
    <glyph glyph-name="fiveeighths" unicode="&#x215d;" horiz-adv-x="929" 
d="M200 313c-95 0 -143 31 -170 92c-12 29 -4 40 19 49l47 18c26 10 37 12 51 -17c11 -25 26 -31 48 -31c23 0 36 11 36 34c0 20 -10 35 -37 35h-120c-30 0 -37 9 -35 35l18 157c2 24 13 31 42 31h215c23 0 30 -7 30 -30v-45c0 -22 -5 -28 -30 -28h-139l-2 -26h31
c106 0 155 -52 155 -130c0 -79 -57 -144 -159 -144zM163 0c-30 0 -38 19 -21 42l466 633c22 31 32 35 78 35h72c30 0 36 -17 20 -40l-465 -633c-24 -32 -33 -37 -83 -37h-67zM726 -9c-124 0 -174 44 -174 109c0 46 29 76 58 94c-27 21 -46 50 -46 91c0 75 62 119 162 119
c107 0 164 -42 164 -108c0 -41 -20 -68 -43 -84c31 -21 55 -50 55 -96c0 -76 -52 -125 -176 -125zM736 254c11 7 22 16 22 29c0 11 -6 22 -32 22c-22 0 -30 -9 -30 -21c0 -15 17 -22 40 -30zM728 89c23 0 35 11 35 23c0 16 -16 24 -44 34c-15 -10 -28 -20 -28 -33
s8 -24 37 -24z" />
    <glyph glyph-name="seveneighths" unicode="&#x215e;" horiz-adv-x="869" 
d="M100 318c-35 0 -39 12 -24 43l111 235h-129c-27 0 -31 10 -31 35v47c0 29 7 35 34 35h249c27 0 34 -6 34 -30v-34c0 -17 -2 -27 -9 -40l-123 -267c-10 -19 -16 -24 -53 -24h-59zM93 0c-31 0 -39 19 -22 42l467 633c22 31 31 35 77 35h72c30 0 36 -17 20 -40l-465 -633
c-24 -32 -33 -37 -82 -37h-67zM668 -9c-124 0 -175 44 -175 109c0 46 29 76 58 94c-26 21 -46 50 -46 91c0 75 63 119 163 119c106 0 163 -42 163 -108c0 -41 -19 -68 -42 -84c31 -21 54 -50 54 -96c0 -76 -51 -125 -175 -125zM677 254c12 7 22 16 22 29c0 11 -6 22 -32 22
c-22 0 -30 -9 -30 -21c0 -15 17 -22 40 -30zM670 89c23 0 34 11 34 23c0 16 -16 24 -43 34c-16 -10 -29 -20 -29 -33s9 -24 38 -24z" />
    <glyph glyph-name="period" unicode="." horiz-adv-x="267" 
d="M115 -8c-60 0 -79 19 -79 78v41c0 59 19 78 79 78h37c60 0 79 -19 79 -78v-41c0 -59 -19 -78 -79 -78h-37z" />
    <glyph glyph-name="comma" unicode="," horiz-adv-x="264" 
d="M47 -122c-24 0 -30 6 -28 29l28 228c4 36 16 50 51 50h92c42 0 51 -19 40 -50l-75 -219c-9 -27 -21 -38 -52 -38h-56z" />
    <glyph glyph-name="colon" unicode=":" horiz-adv-x="288" 
d="M125 416c-59 0 -79 20 -79 79v40c0 59 20 79 79 79h38c59 0 79 -20 79 -79v-40c0 -59 -20 -79 -79 -79h-38zM125 66c-59 0 -79 20 -79 79v40c0 59 20 79 79 79h38c59 0 79 -20 79 -79v-40c0 -59 -20 -79 -79 -79h-38z" />
    <glyph glyph-name="semicolon" unicode=";" horiz-adv-x="289" 
d="M129 342c-60 0 -79 19 -79 78v41c0 59 19 78 79 78h38c59 0 78 -19 78 -78v-41c0 -59 -19 -78 -78 -78h-38zM49 -122c-25 0 -30 6 -28 29l27 228c5 36 17 50 52 50h92c41 0 51 -19 39 -50l-74 -219c-9 -27 -21 -38 -53 -38h-55z" />
    <glyph glyph-name="ellipsis" unicode="&#x2026;" horiz-adv-x="803" 
d="M115 -8c-60 0 -79 19 -79 78v41c0 59 19 78 79 78h37c60 0 79 -19 79 -78v-41c0 -59 -19 -78 -79 -78h-37zM383 -8c-60 0 -79 19 -79 78v41c0 59 19 78 79 78h37c60 0 79 -19 79 -78v-41c0 -59 -19 -78 -79 -78h-37zM650 -8c-59 0 -78 19 -78 78v41c0 59 19 78 78 78h38
c60 0 79 -19 79 -78v-41c0 -59 -19 -78 -79 -78h-38z" />
    <glyph glyph-name="exclam" unicode="!" horiz-adv-x="288" 
d="M103 233c-28 0 -36 9 -37 38l-17 431c-1 28 10 37 39 37h113c29 0 39 -9 38 -37l-17 -431c-1 -29 -9 -38 -38 -38h-81zM118 -8c-59 0 -78 19 -78 78v35c0 59 19 78 78 78h50c60 0 79 -19 79 -78v-35c0 -59 -19 -78 -79 -78h-50z" />
    <glyph glyph-name="exclamdown" unicode="&#xa1;" horiz-adv-x="281" 
d="M165 527c60 0 79 -18 79 -78v-34c0 -60 -19 -78 -79 -78h-50c-59 0 -78 18 -78 78v34c0 60 19 78 78 78h50zM181 287c29 0 37 -10 38 -39l17 -430c1 -28 -9 -38 -38 -38h-113c-29 0 -40 10 -39 38l17 430c1 29 9 39 37 39h81z" />
    <glyph glyph-name="question" unicode="?" horiz-adv-x="597" 
d="M227 217c-30 0 -40 9 -40 40c0 95 40 135 83 161c51 31 106 45 106 111c0 33 -23 57 -70 57c-53 0 -77 -27 -103 -85c-14 -31 -24 -37 -54 -27l-96 36c-29 11 -37 25 -26 54c42 104 125 175 280 175c167 0 264 -86 264 -208c0 -146 -116 -178 -176 -219
c-22 -15 -38 -31 -38 -55c0 -31 -10 -40 -40 -40h-90zM249 -8c-60 0 -79 19 -79 78v35c0 59 19 78 79 78h49c60 0 79 -19 79 -78v-35c0 -59 -19 -78 -79 -78h-49z" />
    <glyph glyph-name="questiondown" unicode="&#xbf;" horiz-adv-x="593" 
d="M346 526c59 0 79 -19 79 -78v-35c0 -59 -20 -78 -79 -78h-50c-59 0 -79 19 -79 78v35c0 59 20 78 79 78h50zM368 301c29 0 40 -9 40 -40c0 -95 -40 -135 -84 -161c-50 -31 -105 -45 -105 -111c0 -33 22 -57 70 -57c53 0 76 27 103 85c13 30 24 37 54 26l95 -35
c29 -11 38 -25 26 -55c-41 -103 -125 -174 -279 -174c-168 0 -264 86 -264 207c0 147 115 179 175 220c23 15 38 31 38 55c0 31 11 40 41 40h90z" />
    <glyph glyph-name="periodcentered" unicode="&#xb7;" horiz-adv-x="285" 
d="M124 210c-60 0 -79 19 -79 78v41c0 59 19 78 79 78h37c60 0 79 -19 79 -78v-41c0 -59 -19 -78 -79 -78h-37z" />
    <glyph glyph-name="bullet" unicode="&#x2022;" horiz-adv-x="400" 
d="M200 114c-85 0 -148 66 -148 150c0 85 63 149 148 149s147 -64 147 -149c0 -84 -62 -150 -147 -150z" />
    <glyph glyph-name="asterisk" unicode="*" horiz-adv-x="353" 
d="M76 432c-18 13 -18 23 -2 38l49 49l-69 11c-22 3 -27 14 -21 33l13 36c6 20 17 25 36 15l62 -32l-12 69c-4 19 4 29 24 29h39c23 0 29 -9 25 -29l-11 -69l62 32c20 11 29 6 36 -15l13 -37c6 -18 1 -29 -21 -32l-69 -11l49 -49c14 -13 15 -27 -2 -38l-32 -22
c-17 -12 -29 -11 -38 8l-31 60l-31 -60c-8 -18 -21 -23 -36 -11z" />
    <glyph glyph-name="numbersign" unicode="#" horiz-adv-x="771" 
d="M113 0c-28 0 -36 11 -27 38l27 93h-59c-28 0 -35 10 -28 38l26 83c8 27 21 35 51 35h57l29 97h-59c-29 0 -38 10 -29 37l26 83c8 28 21 35 50 35h58l28 96c8 27 21 38 49 38h91c29 0 36 -11 28 -38l-28 -96h88l28 96c9 27 20 38 49 38h91c29 0 36 -11 28 -38l-29 -96h59
c29 0 35 -9 28 -37l-24 -83c-8 -26 -23 -35 -51 -35h-58l-29 -97h60c29 0 37 -10 29 -37l-27 -83c-8 -27 -21 -36 -51 -36h-58l-27 -93c-8 -27 -20 -38 -49 -38h-91c-29 0 -36 11 -28 38l28 93h-88l-28 -93c-8 -27 -20 -38 -49 -38h-91zM415 287l30 97h-89l-29 -97h88z" />
    <glyph glyph-name="slash" unicode="/" horiz-adv-x="497" 
d="M50 -60c-29 0 -35 11 -26 35l261 700c11 28 22 35 51 35h112c28 0 34 -10 25 -35l-261 -700c-10 -27 -22 -35 -51 -35h-111z" />
    <glyph glyph-name="backslash" unicode="\" horiz-adv-x="498" 
d="M337 -60c-29 0 -41 8 -51 35l-262 700c-9 24 -3 35 25 35h112c29 0 40 -7 51 -35l262 -700c9 -24 3 -35 -26 -35h-111z" />
    <glyph glyph-name="parenleft" unicode="(" horiz-adv-x="322" 
d="M195 -164c-99 43 -152 123 -152 266v480c0 142 53 222 152 265c26 12 38 3 52 -24l48 -99c12 -26 6 -37 -21 -52c-35 -19 -50 -44 -50 -96v-469c0 -52 15 -76 50 -96c26 -15 34 -26 21 -52l-48 -98c-14 -28 -26 -37 -52 -25z" />
    <glyph glyph-name="parenright" unicode=")" horiz-adv-x="322" 
d="M127 -164c-26 -12 -38 -3 -52 25l-48 98c-13 26 -5 37 21 52c35 20 50 44 50 96v469c0 52 -14 77 -50 96c-27 15 -33 26 -21 52l48 99c14 27 26 36 52 24c99 -43 152 -123 152 -265v-480c0 -143 -53 -223 -152 -266z" />
    <glyph glyph-name="braceleft" unicode="{" horiz-adv-x="414" 
d="M261 -159c-116 0 -154 43 -154 142v184c0 43 -13 84 -63 84h-6c-23 0 -32 11 -32 37v101c0 27 8 39 32 39h6c50 0 63 41 63 83v189c0 99 39 144 151 144h98c29 0 38 -10 38 -38v-85c0 -28 -9 -37 -38 -37h-48c-14 0 -24 -11 -24 -23v-186c0 -66 -34 -109 -76 -135
c55 -24 76 -71 76 -137v-180c0 -12 10 -23 23 -23h49c29 0 38 -9 38 -37v-85c0 -28 -9 -37 -38 -37h-95z" />
    <glyph glyph-name="braceright" unicode="}" horiz-adv-x="414" 
d="M58 -159c-29 0 -38 9 -38 37v85c0 28 9 37 38 37h49c13 0 23 11 23 23v180c0 66 21 113 76 137c-42 26 -76 69 -76 135v186c0 12 -10 23 -24 23h-48c-29 0 -38 9 -38 37v85c0 28 9 38 38 38h98c112 0 151 -45 151 -144v-189c0 -42 13 -83 63 -83h6c24 0 32 -12 32 -39
v-101c0 -26 -9 -37 -32 -37h-6c-50 0 -63 -41 -63 -84v-184c0 -99 -38 -142 -154 -142h-95z" />
    <glyph glyph-name="bracketleft" unicode="[" horiz-adv-x="358" 
d="M90 -159c-31 0 -38 6 -38 38v926c0 32 7 39 38 39h211c32 0 38 -5 38 -37v-70c0 -31 -6 -36 -38 -36h-71v-716h71c32 0 38 -5 38 -37v-70c0 -32 -6 -37 -38 -37h-211z" />
    <glyph glyph-name="bracketright" unicode="]" horiz-adv-x="358" 
d="M56 -159c-32 0 -37 5 -37 37v70c0 32 5 37 37 37h71v716h-71c-32 0 -37 5 -37 36v70c0 32 5 37 37 37h211c32 0 39 -7 39 -39v-926c0 -32 -7 -38 -39 -38h-211z" />
    <glyph glyph-name="hyphen" unicode="-" horiz-adv-x="406" 
d="M88 258c-32 0 -43 11 -43 42v85c0 31 11 42 43 42h231c31 0 42 -11 42 -42v-85c0 -31 -11 -42 -42 -42h-231z" />
    <glyph glyph-name="endash" unicode="&#x2013;" horiz-adv-x="570" 
d="M88 254c-32 0 -43 11 -43 42v85c0 31 11 42 43 42h394c32 0 43 -11 43 -42v-85c0 -31 -11 -42 -43 -42h-394z" />
    <glyph glyph-name="emdash" unicode="&#x2014;" horiz-adv-x="782" 
d="M88 253c-32 0 -43 11 -43 42v86c0 32 11 43 43 43h606c32 0 42 -11 42 -43v-86c0 -31 -10 -42 -42 -42h-606z" />
    <glyph glyph-name="underscore" unicode="_" horiz-adv-x="509" 
d="M57 -169c-32 0 -42 10 -42 42v85c0 31 10 42 42 42h395c32 0 42 -11 42 -42v-85c0 -32 -10 -42 -42 -42h-395z" />
    <glyph glyph-name="quotesinglbase" unicode="&#x201a;" horiz-adv-x="234" 
d="M75 -154c-29 0 -38 10 -38 38v188c0 28 9 38 38 38h87c28 0 41 -10 38 -38l-22 -188c-3 -28 -12 -38 -41 -38h-62z" />
    <glyph glyph-name="quotedblbase" unicode="&#x201e;" horiz-adv-x="472" 
d="M49 -122c-24 0 -30 6 -28 29l28 228c4 36 17 50 51 50h92c42 0 51 -19 40 -50l-75 -219c-9 -27 -21 -38 -52 -38h-56zM257 -122c-25 0 -31 6 -28 29l27 228c5 36 17 50 52 50h92c41 0 51 -19 39 -50l-74 -219c-9 -27 -21 -38 -53 -38h-55z" />
    <glyph glyph-name="quotedblleft" unicode="&#x201c;" horiz-adv-x="474" 
d="M208 710c25 0 31 -6 28 -29l-27 -228c-5 -36 -17 -50 -52 -50h-92c-41 0 -50 19 -39 50l74 219c10 27 22 38 53 38h55zM416 710c25 0 31 -6 28 -29l-27 -228c-5 -36 -17 -50 -52 -50h-92c-41 0 -51 19 -39 50l74 219c10 27 21 38 53 38h55z" />
    <glyph glyph-name="quotedblright" unicode="&#x201d;" horiz-adv-x="470" 
d="M60 403c-25 0 -31 6 -28 29l27 228c5 36 17 50 52 50h92c41 0 50 -19 39 -50l-74 -219c-10 -28 -22 -38 -53 -38h-55zM267 403c-24 0 -30 6 -28 29l28 228c4 36 17 50 51 50h92c42 0 51 -19 40 -50l-75 -219c-9 -28 -21 -38 -52 -38h-56z" />
    <glyph glyph-name="quoteleft" unicode="&#x2018;" horiz-adv-x="266" 
d="M207 710c25 0 30 -6 28 -29l-28 -228c-4 -36 -16 -50 -51 -50h-92c-41 0 -51 19 -40 50l75 219c9 27 21 38 52 38h56z" />
    <glyph glyph-name="quoteright" unicode="&#x2019;" horiz-adv-x="262" 
d="M64 403c-25 0 -31 6 -28 29l27 228c5 37 17 51 52 51h92c41 0 50 -19 39 -51l-74 -219c-10 -27 -22 -38 -53 -38h-55z" />
    <glyph glyph-name="guillemotleft" unicode="&#xab;" horiz-adv-x="644" 
d="M33 333c-18 18 -18 30 0 48l197 199c17 17 31 18 48 0l54 -56c18 -18 18 -29 0 -47l-116 -117l114 -113c17 -17 17 -30 0 -48l-58 -57c-17 -18 -30 -17 -47 0zM296 333c-18 18 -17 30 0 48l198 199c16 17 30 18 48 0l54 -56c17 -18 17 -29 0 -47l-117 -117l114 -113
c18 -17 18 -30 0 -48l-57 -57c-18 -18 -31 -17 -47 0z" />
    <glyph glyph-name="guillemotright" unicode="&#xbb;" horiz-adv-x="644" 
d="M155 142c-16 -17 -29 -18 -47 0l-58 57c-17 18 -17 31 0 48l115 113l-117 117c-17 18 -17 29 0 47l54 56c18 18 32 17 48 0l197 -199c18 -18 19 -30 0 -48zM419 142c-17 -17 -30 -18 -47 0l-58 57c-17 18 -17 31 0 48l114 113l-116 117c-18 18 -18 29 0 47l54 56
c17 18 31 17 48 0l197 -199c17 -18 18 -30 0 -48z" />
    <glyph glyph-name="guilsinglleft" unicode="&#x2039;" horiz-adv-x="380" 
d="M33 333c-18 18 -18 30 0 48l197 199c17 17 31 18 48 0l54 -56c18 -18 18 -29 0 -47l-116 -117l114 -113c17 -17 17 -30 0 -48l-58 -57c-17 -18 -30 -17 -47 0z" />
    <glyph glyph-name="guilsinglright" unicode="&#x203a;" horiz-adv-x="380" 
d="M155 142c-17 -17 -30 -18 -47 0l-58 57c-17 18 -17 31 0 48l114 113l-116 117c-18 18 -18 29 0 47l54 56c17 18 32 17 48 0l197 -199c18 -18 18 -30 0 -48z" />
    <glyph glyph-name="quotedbl" unicode="&#x22;" horiz-adv-x="413" 
d="M77 446c-29 0 -35 3 -35 32v198c0 29 6 34 35 34h87c29 0 38 -5 35 -34l-21 -198c-3 -29 -10 -32 -40 -32h-61zM258 446c-29 0 -35 3 -35 32v198c0 29 6 34 35 34h87c29 0 38 -5 35 -34l-21 -198c-3 -29 -10 -32 -40 -32h-61z" />
    <glyph glyph-name="quotesingle" unicode="'" horiz-adv-x="232" 
d="M78 446c-28 0 -34 3 -34 32v198c0 29 6 34 34 34h88c28 0 38 -5 34 -34l-21 -198c-3 -29 -10 -32 -40 -32h-61z" />
    <glyph glyph-name="space" unicode=" " horiz-adv-x="180" 
 />
    <glyph glyph-name="uni00A0" unicode="&#xa0;" horiz-adv-x="180" 
 />
    <glyph glyph-name="CR" horiz-adv-x="326" 
 />
    <glyph glyph-name=".null" horiz-adv-x="604" 
 />
    <glyph glyph-name="cent" unicode="&#xa2;" horiz-adv-x="549" 
d="M238 -83c-29 0 -38 9 -38 38v37c-111 23 -161 100 -161 214v109c0 109 51 186 161 211v45c0 29 9 38 38 38h91c29 0 39 -9 39 -38v-46c76 -20 123 -70 144 -129c10 -30 2 -44 -26 -54l-94 -30c-30 -11 -43 -4 -55 26s-29 42 -59 42c-35 0 -53 -21 -53 -55v-130
c0 -35 19 -54 53 -54c30 0 47 11 59 41c12 29 25 34 55 25l96 -29c29 -9 39 -24 26 -55c-26 -63 -73 -108 -146 -127v-41c0 -29 -10 -38 -39 -38h-91z" />
    <glyph glyph-name="currency" unicode="&#xa4;" horiz-adv-x="649" 
d="M50 134c-20 20 -20 34 0 54l55 55c-13 29 -20 60 -20 94s7 65 20 94l-55 55c-20 20 -20 34 0 54l72 72c20 20 34 20 54 0l54 -54c29 12 62 20 96 20s65 -8 94 -20l54 54c20 20 34 20 54 0l72 -72c20 -20 20 -34 0 -54l-54 -53c13 -30 20 -62 20 -96s-7 -66 -20 -96
l54 -53c20 -20 20 -34 0 -54l-72 -72c-20 -20 -34 -20 -54 0l-54 54c-29 -12 -60 -20 -94 -20s-67 8 -96 20l-54 -54c-20 -20 -34 -20 -54 0zM326 255c45 0 81 36 81 82c0 45 -36 81 -81 81c-46 0 -82 -36 -83 -81c1 -49 37 -82 83 -82z" />
    <glyph glyph-name="dollar" unicode="$" horiz-adv-x="625" 
d="M262 -50c-29 0 -38 10 -38 38v34c-101 15 -164 61 -192 138c-10 28 -2 43 26 53l92 33c30 11 43 8 58 -21c15 -32 44 -49 99 -49c62 0 96 11 96 48c0 34 -43 44 -98 51c-109 15 -271 33 -271 217c0 106 65 175 190 197v34c0 29 9 38 38 38h103c29 0 39 -9 39 -38v-34
c86 -15 139 -55 172 -122c14 -28 6 -42 -23 -55l-97 -43c-27 -12 -38 -8 -53 21c-18 33 -39 49 -90 49c-60 0 -83 -14 -83 -45c0 -34 45 -43 103 -51c109 -14 264 -31 264 -217c0 -110 -69 -179 -193 -202v-36c0 -28 -10 -38 -39 -38h-103z" />
    <glyph glyph-name="Euro" unicode="&#x20ac;" horiz-adv-x="768" 
d="M453 -15c-176 0 -284 74 -304 225l-1 9h-98c-25 0 -32 9 -25 33l14 49c8 24 18 31 44 31h63v37h-52c-26 0 -32 9 -26 32l15 50c7 24 18 31 44 31h20v6c4 147 126 237 306 237c131 0 222 -43 270 -129c17 -29 8 -48 -23 -61l-93 -36c-29 -12 -40 -6 -57 13
c-12 11 -33 38 -101 38c-59 0 -102 -22 -102 -63v-5h165c25 0 32 -9 25 -33l-14 -49c-8 -23 -18 -31 -45 -31h-137v-37h127c25 0 32 -9 25 -33l-15 -49c-6 -23 -18 -31 -44 -31h-84v-7c6 -46 58 -55 96 -55c57 0 89 34 97 43c16 21 27 27 58 13l99 -38c31 -13 40 -32 23 -62
c-43 -84 -139 -128 -270 -128z" />
    <glyph glyph-name="florin" unicode="&#x192;" horiz-adv-x="486" 
d="M21 -220c-29 0 -39 10 -39 39v85c0 30 10 39 39 39c61 0 81 26 87 78l24 239h-65c-29 0 -38 10 -38 38v87c0 29 9 39 38 39h83l8 80c15 147 101 236 272 236c29 0 39 -10 39 -39v-85c0 -30 -10 -39 -39 -39c-61 0 -81 -23 -87 -78l-8 -75h75c29 0 38 -10 38 -39v-87
c0 -28 -9 -38 -38 -38h-92l-25 -244c-15 -147 -101 -236 -272 -236z" />
    <glyph glyph-name="uni20BD" unicode="&#x20bd;" horiz-adv-x="705" 
d="M145 0c-32 0 -43 11 -43 42v35h-36c-28 0 -38 9 -38 38v53c0 28 10 38 38 38h36v462c0 31 11 42 43 42h290c151 0 244 -84 244 -234c0 -151 -93 -235 -244 -235h-135v-35h254c29 0 38 -10 38 -38v-53c0 -29 -9 -38 -38 -38h-254v-35c0 -31 -11 -42 -43 -42h-112zM402 410
c50 0 72 22 72 66c0 43 -24 65 -74 65h-100v-131h102z" />
    <glyph glyph-name="sterling" unicode="&#xa3;" horiz-adv-x="678" 
d="M77 0c-32 0 -41 11 -41 42v85c0 19 3 35 21 37l5 2c28 9 42 32 43 65v22h-27c-31 0 -42 10 -42 42v61c0 32 11 43 42 43h31v98c0 126 94 228 260 228c152 0 235 -69 275 -169c12 -30 3 -43 -26 -54l-106 -39c-29 -10 -39 -3 -54 27c-21 43 -43 60 -83 60
c-41 0 -64 -25 -64 -62v-89h168c32 0 43 -11 43 -43v-61c0 -32 -11 -42 -43 -42h-173v-19c-3 -42 -20 -62 -44 -78l2 -6c11 2 71 19 154 19h179c32 0 43 -11 43 -43v-84c0 -31 -11 -42 -43 -42h-520z" />
    <glyph glyph-name="yen" unicode="&#xa5;" horiz-adv-x="708" 
d="M298 0c-32 0 -43 11 -43 42v69h-102c-28 0 -38 10 -38 38v48c0 28 10 38 38 38h106v35h-106c-28 0 -38 10 -38 38v48c0 28 10 38 38 38h52l-176 274c-15 23 -10 42 21 42h116c49 0 64 -2 82 -37l108 -205l110 205c18 35 33 37 82 37h110c31 0 36 -19 21 -42l-176 -274h52
c28 0 37 -10 37 -38v-48c0 -28 -9 -38 -37 -38h-107v-35h107c28 0 37 -10 37 -38v-48c0 -28 -9 -38 -37 -38h-102v-69c0 -31 -11 -42 -43 -42h-112z" />
    <glyph glyph-name="uni2219" unicode="&#x2219;" horiz-adv-x="279" 
d="M121 185c-60 0 -79 19 -79 78v41c0 59 19 78 79 78h37c60 0 79 -19 79 -78v-41c0 -59 -19 -78 -79 -78h-37z" />
    <glyph glyph-name="uni2215" unicode="&#x2215;" horiz-adv-x="670" 
d="M26 0c-30 0 -38 19 -21 42l466 633c22 31 32 35 78 35h96c30 0 36 -17 20 -40l-465 -633c-24 -32 -33 -37 -83 -37h-91z" />
    <glyph glyph-name="plus" unicode="+" horiz-adv-x="556" 
d="M238 77c-32 0 -42 10 -42 42v127h-126c-32 0 -42 10 -42 42v79c0 32 10 42 42 42h126v126c0 32 10 42 42 42h79c32 0 42 -10 42 -42v-126h127c32 0 42 -10 42 -42v-79c0 -32 -10 -42 -42 -42h-127v-127c0 -32 -10 -42 -42 -42h-79z" />
    <glyph glyph-name="minus" unicode="&#x2212;" horiz-adv-x="595" 
d="M90 241c-32 0 -43 11 -43 42v86c0 31 11 42 43 42h416c31 0 42 -11 42 -42v-86c0 -31 -11 -42 -42 -42h-416z" />
    <glyph glyph-name="multiply" unicode="&#xd7;" horiz-adv-x="539" 
d="M269 210l-104 -105c-22 -21 -36 -21 -57 0l-59 58c-20 21 -21 35 0 57l105 105l-105 105c-21 22 -21 36 0 57l59 58c21 21 35 21 57 0l104 -105l106 106c22 21 36 21 57 0l58 -58c21 -22 21 -36 0 -57l-106 -106l106 -106c21 -21 21 -36 0 -57l-58 -58
c-21 -21 -35 -21 -57 0z" />
    <glyph glyph-name="divide" unicode="&#xf7;" horiz-adv-x="559" 
d="M255 443c-58 0 -76 19 -76 76v10c0 58 18 76 76 76h49c58 0 76 -18 76 -76v-10c0 -57 -18 -76 -76 -76h-49zM72 241c-32 0 -43 11 -43 42v85c0 32 11 43 43 43h415c32 0 43 -11 43 -43v-85c0 -31 -11 -42 -43 -42h-415zM255 46c-58 0 -76 19 -76 76v11c0 57 18 76 76 76
h49c58 0 76 -19 76 -76v-11c0 -57 -18 -76 -76 -76h-49z" />
    <glyph glyph-name="equal" unicode="=" horiz-adv-x="600" 
d="M92 353c-32 0 -42 11 -42 42v85c0 32 10 43 42 43h416c32 0 42 -11 42 -43v-85c0 -31 -10 -42 -42 -42h-416zM92 130c-32 0 -42 11 -42 43v85c0 31 10 42 42 42h416c32 0 42 -11 42 -42v-85c0 -32 -10 -43 -42 -43h-416z" />
    <glyph glyph-name="notequal" unicode="&#x2260;" horiz-adv-x="593" 
d="M116 57c-9 0 -10 6 -6 14l30 59h-52c-32 0 -42 11 -42 43v85c0 31 10 42 42 42h139l27 53h-166c-32 0 -42 11 -42 42v85c0 32 10 43 42 43h253l31 60c6 12 10 12 24 12h76c9 0 10 -6 6 -13l-30 -59h56c32 0 42 -11 42 -43v-85c0 -31 -10 -42 -42 -42h-143l-27 -53h170
c32 0 42 -11 42 -42v-85c0 -32 -10 -43 -42 -43h-257l-31 -61c-6 -12 -9 -12 -26 -12h-74z" />
    <glyph glyph-name="greater" unicode="&#x3e;" horiz-adv-x="497" 
d="M92 48c-33 -18 -44 -5 -44 31v99c0 46 8 54 39 69l161 77v5l-162 78c-30 15 -38 23 -38 69v97c0 37 11 50 44 32l346 -188c25 -14 33 -24 33 -53v-76c0 -28 -8 -38 -33 -52z" />
    <glyph glyph-name="less" unicode="&#x3c;" horiz-adv-x="497" 
d="M59 236c-25 14 -34 23 -34 52v76c0 29 9 39 34 53l345 188c33 17 45 5 45 -32v-95c0 -46 -9 -54 -39 -69l-161 -78v-4l160 -78c31 -15 40 -22 40 -69v-101c0 -37 -12 -49 -45 -32z" />
    <glyph glyph-name="greaterequal" unicode="&#x2265;" horiz-adv-x="522" 
d="M95 208c-34 -16 -44 -6 -44 32v66c0 47 7 57 39 69l165 54v6l-166 56c-31 12 -38 24 -38 69v61c0 37 10 48 44 31l353 -143c27 -12 34 -24 34 -53v-52c0 -29 -7 -39 -34 -52zM93 29c-32 0 -42 10 -42 42v66c0 31 10 42 42 42h346c32 0 43 -11 43 -42v-66
c0 -32 -11 -42 -43 -42h-346z" />
    <glyph glyph-name="lessequal" unicode="&#x2264;" horiz-adv-x="522" 
d="M75 352c-27 13 -34 23 -34 52v52c0 29 7 41 34 53l352 143c34 17 45 6 45 -31v-61c0 -45 -7 -57 -38 -69l-166 -56v-6l165 -54c32 -12 39 -22 39 -69v-66c0 -38 -11 -48 -45 -32zM83 33c-32 0 -42 11 -42 42v66c0 32 10 42 42 42h346c32 0 43 -10 43 -42v-66
c0 -31 -11 -42 -43 -42h-346z" />
    <glyph glyph-name="plusminus" unicode="&#xb1;" horiz-adv-x="591" 
d="M256 245c-32 0 -42 10 -42 42v57h-127c-31 0 -42 10 -42 42v75c0 31 11 42 42 42h127v58c0 32 10 42 42 42h77c32 0 43 -10 43 -42v-58h127c32 0 42 -11 42 -42v-75c0 -32 -10 -42 -42 -42h-127v-57c0 -32 -11 -42 -43 -42h-77zM88 50c-32 0 -42 11 -42 42v79
c0 32 10 43 42 43h416c31 0 42 -11 42 -43v-79c0 -31 -11 -42 -42 -42h-416z" />
    <glyph glyph-name="approxequal" unicode="&#x2248;" horiz-adv-x="582" 
d="M393 340c-78 -3 -128 35 -179 35c-24 0 -42 -8 -57 -20c-26 -21 -40 -23 -58 2l-45 69c-19 26 -26 39 0 62c35 32 79 52 134 53c71 2 131 -38 183 -35c21 2 38 10 52 21c25 21 40 23 58 -2l45 -69c18 -26 26 -41 0 -62c-35 -33 -79 -53 -133 -54zM399 121
c-78 -4 -126 36 -185 36c-24 -1 -42 -9 -56 -21c-25 -21 -40 -23 -58 2l-45 69c-19 27 -25 39 0 62c35 32 79 53 133 54c75 2 132 -38 181 -36c23 1 41 9 55 21c26 21 40 23 58 -2l45 -69c18 -26 26 -40 0 -63c-33 -31 -76 -51 -128 -53z" />
    <glyph glyph-name="asciitilde" unicode="~" horiz-adv-x="574" 
d="M390 235c-82 0 -112 33 -164 33c-24 0 -42 -8 -56 -19c-25 -20 -34 -19 -55 2l-64 59c-22 21 -24 38 0 59c35 32 79 51 133 51c81 0 111 -34 164 -34c23 0 41 8 56 20c24 20 33 18 55 -2l63 -59c22 -21 24 -38 0 -59c-35 -32 -78 -51 -132 -51z" />
    <glyph glyph-name="logicalnot" unicode="&#xac;" horiz-adv-x="602" 
d="M405 127c-28 0 -38 9 -38 38v95h-291c-28 0 -38 9 -38 38v88c0 29 10 38 38 38h438c28 0 38 -9 38 -38v-221c0 -29 -10 -38 -38 -38h-109z" />
    <glyph glyph-name="asciicircum" unicode="^" horiz-adv-x="640" 
d="M62 520c-36 0 -44 17 -21 45l182 211c22 25 34 34 65 34h64c35 0 42 -9 64 -34l183 -211c23 -29 15 -45 -21 -45h-105c-47 0 -58 5 -81 34l-72 94h-3l-74 -94c-24 -30 -38 -34 -83 -34h-98z" />
    <glyph glyph-name="infinity" unicode="&#x221e;" horiz-adv-x="767" 
d="M219 93c-104 0 -186 83 -186 190c0 113 79 195 191 195c72 0 124 -40 161 -98c36 52 93 98 166 98c109 0 183 -79 183 -192c0 -116 -92 -193 -190 -193c-68 0 -125 34 -160 91c-28 -43 -83 -91 -165 -91zM218 240c25 0 45 20 66 47c-21 22 -37 44 -65 44
c-32 0 -47 -21 -47 -44c0 -26 17 -47 46 -47zM552 240c29 0 45 24 45 47c0 22 -14 44 -46 44c-26 0 -44 -17 -65 -44c23 -32 40 -47 66 -47z" />
    <glyph glyph-name="integral" unicode="&#x222b;" horiz-adv-x="416" 
d="M49 -220c-29 0 -39 10 -39 39v85c0 30 10 39 39 39c52 0 65 21 65 69v503c0 148 81 225 251 225c30 0 40 -10 40 -39v-85c0 -30 -10 -39 -40 -39c-52 0 -65 -23 -65 -74v-497c0 -149 -80 -226 -251 -226z" />
    <glyph glyph-name="uni2126" unicode="&#x2126;" horiz-adv-x="818" 
d="M80 0c-32 0 -42 11 -42 42v93c0 32 10 43 42 43h74c-39 29 -107 92 -107 216c0 194 150 330 361 330c212 0 363 -135 363 -328c0 -126 -63 -189 -110 -218h76c32 0 42 -11 42 -43v-93c0 -31 -10 -42 -42 -42h-269c-27 0 -38 11 -38 38v81c0 18 10 27 23 34
c75 44 126 122 126 211c0 108 -59 192 -171 192c-108 0 -170 -84 -170 -192c0 -87 44 -168 126 -211c14 -7 23 -16 23 -35v-80c0 -27 -11 -38 -38 -38h-269z" />
    <glyph glyph-name="uni2206" unicode="&#x2206;" horiz-adv-x="681" 
d="M67 0c-32 0 -43 11 -43 42v50c0 30 6 40 21 79l207 506c11 26 24 33 52 33h73c29 0 41 -7 52 -33l207 -506c16 -39 21 -49 21 -79v-50c0 -31 -11 -42 -42 -42h-548zM454 157l-75 209c-28 77 -34 126 -36 152h-10c-1 -26 -7 -75 -35 -152l-74 -209h230z" />
    <glyph glyph-name="product" unicode="&#x220f;" horiz-adv-x="735" 
d="M157 -100c-32 0 -42 11 -42 42v594h-47c-32 0 -43 10 -43 42v90c0 31 11 42 43 42h599c32 0 42 -11 42 -42v-90c0 -32 -10 -42 -42 -42h-47v-594c0 -31 -11 -42 -42 -42h-113c-31 0 -42 11 -42 42v594h-111v-594c0 -31 -11 -42 -43 -42h-112z" />
    <glyph glyph-name="summation" unicode="&#x2211;" horiz-adv-x="622" 
d="M72 -100c-31 0 -42 11 -42 42v61c0 17 4 30 14 42l184 263l-179 256c-9 13 -14 25 -14 44v60c0 31 11 42 42 42h464c31 0 42 -11 42 -42v-90c0 -32 -11 -42 -42 -42h-240l120 -179c24 -36 26 -58 0 -96l-124 -186h249c31 0 42 -10 42 -42v-91c0 -31 -11 -42 -42 -42h-474
z" />
    <glyph glyph-name="radical" unicode="&#x221a;" horiz-adv-x="766" 
d="M347 -106c-29 0 -43 7 -52 33l-128 351h-111c-32 0 -42 10 -42 42v85c0 32 10 42 42 42h188c53 0 67 -7 78 -37l55 -163c23 -68 25 -151 25 -151h10s2 83 20 150l132 467c8 30 19 37 66 37h105c30 0 36 -12 27 -41l-247 -780c-9 -28 -23 -35 -52 -35h-116z" />
    <glyph glyph-name="uni00B5" unicode="&#xb5;" horiz-adv-x="575" 
d="M87 -220c-28 0 -38 10 -38 38v664c0 28 10 38 38 38h110c28 0 38 -10 38 -38v-274c0 -40 19 -56 60 -56c17 0 26 2 40 5c5 1 7 4 7 9v316c0 28 10 38 39 38h109c29 0 38 -10 38 -38v-400c0 -25 -9 -41 -33 -55c-41 -26 -105 -42 -159 -42c-35 0 -67 4 -101 18v-185
c0 -28 -10 -38 -38 -38h-110z" />
    <glyph glyph-name="partialdiff" unicode="&#x2202;" horiz-adv-x="563" 
d="M278 -15c-164 0 -249 83 -249 219v82c0 130 89 207 222 207c48 0 79 -9 102 -23c-13 82 -57 110 -213 110c-32 0 -42 10 -42 41l-1 82c0 30 10 41 41 41c293 0 387 -112 387 -359v-181c0 -136 -85 -219 -247 -219zM278 146c40 0 61 18 61 53v92c0 35 -21 54 -61 54
c-42 0 -63 -19 -63 -54v-92c0 -35 21 -53 63 -53z" />
    <glyph glyph-name="percent" unicode="%" horiz-adv-x="907" 
d="M205 339c-116 0 -178 59 -178 155v74c0 97 62 157 178 157s178 -60 178 -157v-74c0 -96 -62 -155 -178 -155zM147 0c-30 0 -37 20 -21 42l465 633c22 31 32 35 77 35h96c28 0 36 -19 20 -40l-464 -633c-24 -32 -32 -37 -82 -37h-91zM205 467c28 0 43 13 43 37v55
c0 24 -15 37 -43 37c-29 0 -43 -13 -43 -37v-55c0 -24 14 -37 43 -37zM702 -14c-116 0 -179 58 -179 154v75c0 97 63 157 179 157s178 -60 178 -157v-75c0 -96 -62 -154 -178 -154zM702 114c28 0 43 13 43 37v55c0 24 -15 36 -43 36c-29 0 -42 -12 -42 -36v-55
c0 -24 13 -37 42 -37z" />
    <glyph glyph-name="perthousand" unicode="&#x2030;" horiz-adv-x="1288" 
d="M205 339c-116 0 -178 59 -178 155v74c0 97 62 157 178 157s178 -60 178 -157v-74c0 -96 -62 -155 -178 -155zM147 0c-30 0 -37 20 -21 42l465 633c22 31 32 35 77 35h96c28 0 36 -19 20 -40l-464 -633c-24 -32 -32 -37 -82 -37h-91zM205 467c28 0 43 13 43 37v55
c0 24 -15 37 -43 37c-29 0 -43 -13 -43 -37v-55c0 -24 14 -37 43 -37zM702 -15c-116 0 -179 58 -179 155v75c0 97 63 157 179 157s178 -60 178 -157v-75c0 -97 -62 -155 -178 -155zM1085 -15c-116 0 -179 58 -179 155v75c0 97 63 157 179 157c115 0 177 -60 177 -157v-75
c0 -97 -62 -155 -177 -155zM702 113c28 0 43 13 43 37v56c0 24 -15 36 -43 36c-29 0 -42 -12 -42 -36v-56c0 -24 13 -37 42 -37zM1085 113c28 0 42 13 42 37v56c0 24 -14 36 -42 36c-29 0 -43 -12 -43 -36v-56c0 -24 14 -37 43 -37z" />
    <glyph glyph-name="arrowup" unicode="&#x2191;" horiz-adv-x="749" 
d="M337 -7c-25 0 -34 9 -34 34v380l-88 -86c-17 -16 -27 -16 -44 0l-55 54c-18 17 -17 29 0 46l227 226c21 22 40 22 62 0l227 -226c16 -17 18 -29 0 -46l-56 -54c-17 -16 -27 -17 -43 0l-89 88v-382c0 -25 -9 -34 -34 -34h-73z" />
    <glyph glyph-name="uni2197" unicode="&#x2197;" horiz-adv-x="749" 
d="M267 361v-122c0 -23 -7 -32 -30 -32h-80c-23 0 -31 8 -31 31v321c0 31 13 44 44 44h320c24 0 33 -7 33 -32v-78c0 -23 -9 -31 -33 -31h-125l271 -270c17 -18 17 -32 0 -48l-52 -51c-18 -18 -30 -19 -48 -1z" />
    <glyph glyph-name="arrowright" unicode="&#x2192;" horiz-adv-x="749" 
d="M370 131c-16 18 -16 27 0 44l87 89h-381c-25 0 -34 8 -34 34v71c0 24 9 34 34 34h383l-90 90c-17 17 -16 26 0 44l55 55c17 18 29 16 46 0l226 -226c22 -22 22 -41 0 -63l-226 -226c-17 -17 -29 -18 -46 0z" />
    <glyph glyph-name="uni2198" unicode="&#x2198;" horiz-adv-x="749" 
d="M259 74c-24 0 -33 8 -33 33v77c0 24 9 32 32 32h125l-270 270c-18 17 -17 31 0 48l51 51c19 18 31 18 49 0l269 -268v122c0 22 7 32 30 32h80c23 0 30 -8 30 -32v-321c0 -31 -13 -44 -44 -44h-319z" />
    <glyph glyph-name="arrowdown" unicode="&#x2193;" horiz-adv-x="749" 
d="M116 237c-17 17 -18 29 0 45l55 55c17 16 27 16 44 0l88 -87v380c0 25 9 34 34 34h73c25 0 34 -9 34 -34v-382l89 89c16 17 26 16 43 0l56 -55c18 -16 16 -28 0 -45l-227 -227c-22 -22 -41 -22 -62 0z" />
    <glyph glyph-name="uni2199" unicode="&#x2199;" horiz-adv-x="749" 
d="M171 74c-31 0 -44 13 -44 44v321c0 24 7 32 30 32h80c23 0 30 -10 30 -32v-122l269 268c18 18 31 18 49 0l51 -51c17 -17 18 -31 0 -48l-270 -270h125c24 0 32 -8 32 -32v-77c0 -25 -9 -33 -32 -33h-320z" />
    <glyph glyph-name="arrowleft" unicode="&#x2190;" horiz-adv-x="749" 
d="M324 77c-16 -18 -28 -17 -45 0l-227 226c-22 22 -22 41 0 63l227 226c17 16 29 18 45 0l55 -55c16 -18 17 -27 0 -44l-90 -90h383c25 0 34 -10 34 -34v-71c0 -26 -9 -34 -34 -34h-380l86 -89c16 -17 16 -26 0 -44z" />
    <glyph glyph-name="uni2196" unicode="&#x2196;" horiz-adv-x="749" 
d="M114 144c-17 16 -18 30 0 48l270 270h-125c-23 0 -32 8 -32 31v78c0 25 9 32 33 32h319c31 0 44 -13 44 -44v-321c0 -23 -7 -31 -30 -31h-80c-23 0 -30 9 -30 32v122l-269 -269c-18 -18 -30 -17 -49 1z" />
    <glyph glyph-name="lozenge" unicode="&#x25ca;" horiz-adv-x="608" 
d="M272 0c-29 0 -36 10 -52 34l-189 292c-11 19 -11 37 0 58l189 292c16 24 23 34 52 34h64c29 0 37 -10 53 -34l188 -292c10 -21 11 -39 0 -58l-188 -292c-16 -24 -24 -34 -53 -34h-64zM308 213l85 142l-85 142h-5l-83 -142l83 -142h5z" />
    <glyph glyph-name="at" unicode="@" horiz-adv-x="909" 
d="M452 -132c-275 0 -419 149 -419 387v75c0 238 144 395 419 395c276 0 420 -157 420 -395v-75c0 -140 -80 -219 -181 -219c-46 0 -66 14 -92 37c-49 -16 -115 -25 -175 -25c-130 0 -190 65 -190 176v136c0 112 60 177 190 177c88 0 158 -17 199 -33c28 -11 33 -20 33 -49
v-271c0 -23 16 -30 34 -30c26 0 53 23 53 99v79c0 173 -99 279 -291 279c-191 0 -290 -106 -290 -279v-79c0 -174 99 -270 290 -270c70 0 175 13 218 21c27 5 32 2 32 -21v-55c0 -26 -6 -32 -30 -37c-33 -8 -110 -23 -220 -23zM440 171c39 0 70 4 79 7v220c0 4 -2 8 -7 10
c-17 3 -46 5 -72 5c-49 0 -69 -17 -69 -56v-130c0 -39 20 -56 69 -56z" />
    <glyph glyph-name="ampersand" unicode="&#x26;" horiz-adv-x="702" 
d="M258 -15c-140 0 -236 84 -236 222c0 91 49 151 120 191c-29 37 -45 82 -45 129c0 103 70 198 209 198c113 0 202 -80 202 -187c0 -78 -34 -133 -105 -175l-9 -5l65 -70l48 47c17 17 34 17 50 0l72 -70c13 -14 15 -26 -3 -44l-55 -54l120 -130c20 -20 14 -37 -17 -37h-129
c-27 0 -39 4 -56 22l-33 35c-70 -58 -129 -72 -198 -72zM310 483c28 16 38 33 38 57c0 25 -17 42 -42 42c-29 0 -45 -20 -45 -46c0 -22 7 -39 28 -64zM269 141c34 0 56 17 77 36l-96 104c-40 -21 -52 -50 -52 -75c0 -39 29 -65 71 -65z" />
    <glyph glyph-name="paragraph" unicode="&#xb6;" horiz-adv-x="703" 
d="M306 -89c-29 0 -38 10 -38 38v263c-145 3 -244 103 -244 249c0 148 101 249 249 249h334c29 0 38 -10 38 -38v-723c0 -28 -9 -38 -38 -38h-87c-29 0 -38 10 -38 38v587h-51v-587c0 -28 -10 -38 -38 -38h-87z" />
    <glyph glyph-name="section" unicode="&#xa7;" horiz-adv-x="627" 
d="M312 -219c-139 0 -236 50 -275 152c-11 30 -1 46 29 57l82 32c32 12 45 5 58 -28c16 -41 45 -54 101 -54c59 0 84 18 84 51c0 28 -32 38 -76 45c-102 18 -277 23 -277 197c0 61 28 109 79 142c-38 27 -65 70 -65 145c0 127 89 205 269 205c134 0 209 -45 253 -139
c15 -30 9 -45 -24 -60l-79 -34c-29 -13 -42 -9 -59 22c-20 39 -49 51 -92 51c-49 0 -70 -16 -70 -48c0 -30 36 -41 84 -51c98 -21 252 -39 252 -202c0 -54 -21 -98 -60 -130c38 -27 65 -71 65 -148c0 -122 -97 -205 -279 -205zM360 185c16 15 30 36 28 65
c-2 39 -39 53 -86 63c-10 1 -20 3 -30 6c-18 -15 -35 -37 -34 -67c2 -46 42 -57 92 -64z" />
    <glyph glyph-name="copyright" unicode="&#xa9;" horiz-adv-x="782" 
d="M392 -9c-227 0 -361 133 -361 359s134 360 361 360c225 0 358 -134 358 -360s-133 -359 -358 -359zM392 83c167 0 265 99 265 267s-98 267 -265 267c-169 0 -268 -99 -268 -267s99 -267 268 -267zM391 154c-101 0 -157 57 -157 145v100c0 89 56 145 157 145
c77 0 130 -32 152 -96c9 -28 4 -37 -18 -44l-48 -16c-23 -8 -30 -4 -39 20c-8 22 -22 29 -47 29c-30 0 -46 -13 -46 -37v-101c0 -24 16 -38 46 -38c24 0 39 9 47 29c9 24 17 29 39 21l48 -17c22 -8 27 -16 18 -43c-22 -64 -73 -97 -152 -97z" />
    <glyph glyph-name="registered" unicode="&#xae;" horiz-adv-x="460" 
d="M230 316c-126 0 -200 74 -200 200s74 200 200 200s199 -74 199 -200s-73 -200 -199 -200zM231 367c93 0 148 55 148 149c0 93 -55 148 -148 148c-94 0 -149 -55 -149 -148c0 -94 55 -149 149 -149zM165 417c-13 0 -17 3 -17 15v166c0 13 4 17 17 17h82
c45 0 75 -27 75 -72c0 -29 -12 -50 -33 -61l25 -36c12 -19 10 -29 -16 -29h-26c-17 0 -20 3 -27 15l-25 41h-9v-41c0 -12 -3 -15 -15 -15h-31zM242 529c9 0 14 5 14 14c0 7 -5 13 -14 13h-31v-27h31z" />
    <glyph glyph-name="uni2117" unicode="&#x2117;" horiz-adv-x="782" 
d="M392 -9c-227 0 -361 133 -361 359s134 360 361 360c225 0 358 -134 358 -360s-133 -359 -358 -359zM392 83c167 0 265 99 265 267s-98 267 -265 267c-169 0 -268 -99 -268 -267s99 -267 268 -267zM290 164c-24 0 -28 5 -28 27v316c0 22 4 27 28 27h134
c85 0 140 -45 140 -130s-55 -137 -140 -137h-56v-76c0 -22 -5 -27 -28 -27h-50zM413 364c26 0 38 14 38 35s-12 34 -38 34h-45v-69h45z" />
    <glyph glyph-name="trademark" unicode="&#x2122;" horiz-adv-x="637" 
d="M247 695c30 0 35 -4 35 -33v-21c0 -30 -5 -33 -35 -33h-41v-136c0 -23 -6 -29 -34 -29h-32c-26 0 -33 6 -33 29v136h-48c-24 0 -29 6 -29 27v33c0 20 5 27 29 27h188zM553 695c29 0 34 -4 34 -33v-190c0 -23 -4 -29 -31 -29h-24c-26 0 -31 6 -31 29v33c0 11 1 23 1 37
c-3 -5 -5 -9 -9 -15l-9 -14c-9 -13 -15 -17 -36 -17h-10c-18 0 -25 2 -35 15l-9 13c-3 5 -7 9 -10 14c1 -12 1 -23 1 -33v-33c0 -23 -3 -29 -30 -29h-24c-27 0 -31 6 -31 29v190c0 29 5 33 34 33h19c22 0 28 -5 40 -20l51 -85l49 84c9 12 18 21 39 21h21z" />
    <glyph glyph-name="degree" unicode="&#xb0;" horiz-adv-x="424" 
d="M213 365c-108 0 -191 83 -191 190c0 109 83 189 191 189c106 0 189 -80 189 -189c0 -104 -84 -190 -189 -190zM213 498c31 0 57 25 57 56s-26 58 -57 58c-32 0 -58 -27 -58 -58s26 -56 58 -56z" />
    <glyph glyph-name="bar" unicode="|" horiz-adv-x="283" 
d="M90 -147c-28 0 -38 10 -38 38v927c0 28 10 38 38 38h104c28 0 37 -10 37 -38v-927c0 -28 -9 -38 -37 -38h-104z" />
    <glyph glyph-name="brokenbar" unicode="&#xa6;" horiz-adv-x="289" 
d="M93 414c-29 0 -38 9 -38 38v366c0 28 9 38 38 38h103c29 0 38 -10 38 -38v-366c0 -29 -9 -38 -38 -38h-103zM93 -146c-29 0 -38 10 -38 38v366c0 29 9 38 38 38h103c29 0 38 -9 38 -38v-366c0 -28 -9 -38 -38 -38h-103z" />
    <glyph glyph-name="uni2113" unicode="&#x2113;" horiz-adv-x="497" 
d="M309 -6c-88 0 -163 25 -182 127l-1 5l-11 -6c-22 -12 -33 -10 -46 10l-43 75c-12 17 -11 36 7 47c31 19 59 37 84 54v212c0 164 91 214 184 214c116 0 170 -71 170 -177c0 -100 -36 -209 -197 -333v-25c0 -36 20 -50 45 -50c14 0 29 6 41 17c14 12 28 11 39 -3l62 -73
c8 -10 17 -23 -2 -41c-24 -22 -68 -53 -150 -53zM274 433c32 40 43 77 43 123c0 20 -6 30 -18 30c-13 0 -25 -12 -25 -69v-84z" />
    <glyph glyph-name="dagger" unicode="&#x2020;" horiz-adv-x="545" 
d="M222 -100c-32 0 -43 11 -43 42v414h-112c-32 0 -43 10 -43 42v90c0 32 11 43 43 43h112v137c0 32 11 43 43 43h102c32 0 42 -11 42 -43v-137h112c32 0 43 -11 43 -43v-90c0 -32 -11 -42 -43 -42h-112v-414c0 -31 -10 -42 -42 -42h-102z" />
    <glyph glyph-name="daggerdbl" unicode="&#x2021;" horiz-adv-x="574" 
d="M236 -100c-32 0 -43 11 -43 42v137h-112c-32 0 -42 11 -42 43v90c0 32 10 42 42 42h112v102h-112c-32 0 -43 10 -43 42v90c0 32 11 43 43 43h112v137c0 32 11 43 43 43h102c32 0 42 -11 42 -43v-137h112c32 0 43 -11 43 -43v-90c0 -32 -11 -42 -43 -42h-112v-102h113
c32 0 42 -10 42 -42v-90c0 -32 -10 -43 -42 -43h-113v-137c0 -31 -10 -42 -42 -42h-102z" />
    <glyph glyph-name="estimated" unicode="&#x212e;" horiz-adv-x="798" 
d="M403 -15c-204 0 -370 166 -370 370s166 370 370 370s370 -166 370 -370v-24c0 -17 -7 -25 -26 -25h-521v-169c48 -39 111 -62 177 -62c64 0 166 20 240 133c11 17 16 19 40 19h43c18 0 22 -5 14 -24c-58 -129 -187 -218 -337 -218zM580 396v175c-48 40 -110 64 -177 64
s-129 -24 -177 -64v-175h354z" />
    <glyph glyph-name="uni2116" unicode="&#x2116;" horiz-adv-x="1078" 
d="M861 338c-116 0 -178 59 -178 155v75c0 97 62 157 178 157s178 -60 178 -157v-75c0 -96 -62 -155 -178 -155zM98 0c-31 0 -42 11 -42 42v626c0 31 11 42 42 42h119c22 0 32 -6 41 -20l164 -257c45 -68 53 -107 84 -182h8c-31 102 -45 151 -45 252v165c0 31 11 42 43 42
h101c32 0 42 -11 42 -42v-626c0 -31 -10 -42 -42 -42h-112c-22 0 -32 6 -42 20l-154 238c-44 69 -61 116 -88 205h-8c21 -94 33 -146 33 -258v-163c0 -31 -11 -42 -42 -42h-102zM861 467c29 0 43 13 43 36v56c0 24 -14 37 -43 37s-42 -13 -42 -37v-56c0 -23 13 -36 42 -36z
M724 163c-31 0 -42 11 -42 42v64c0 32 11 42 42 42h274c32 0 43 -10 43 -42v-64c0 -31 -11 -42 -43 -42h-274z" />
    <glyph glyph-name="uni0308" unicode="&#x308;" 
d="M-336 577c-55 0 -71 19 -71 72v13c0 54 16 71 71 71h8c56 0 74 -17 74 -71v-13c0 -53 -18 -72 -74 -72h-8zM-120 577c-56 0 -74 19 -74 72v13c0 54 18 71 74 71h7c56 0 72 -17 72 -71v-13c0 -53 -16 -72 -72 -72h-7z" />
    <glyph glyph-name="uni0307" unicode="&#x307;" 
d="M-136 584c-57 0 -74 16 -74 72v11c0 56 17 73 74 73h49c57 0 74 -17 74 -73v-11c0 -56 -17 -72 -74 -72h-49z" />
    <glyph glyph-name="gravecomb" unicode="&#x300;" 
d="M-247 636c-24 9 -22 21 -5 40l53 56c20 22 43 16 66 2l139 -84c18 -10 18 -19 2 -38l-28 -33c-11 -13 -23 -11 -47 -3z" />
    <glyph glyph-name="acutecomb" unicode="&#x301;" 
d="M-178 576c-24 -8 -36 -10 -46 3l-29 33c-15 19 -15 28 2 38l140 84c23 14 45 20 66 -2l52 -56c18 -19 19 -31 -5 -40z" />
    <glyph glyph-name="uni030B" unicode="&#x30b;" 
d="M-368 580c-25 6 -25 21 -13 38l71 95c17 24 35 32 65 26l67 -14c27 -7 30 -25 11 -43l-113 -95c-19 -15 -26 -20 -44 -15zM-176 579c-25 5 -25 22 -11 39l75 95c19 24 36 32 66 24l69 -18c27 -8 32 -27 11 -43l-122 -91c-18 -15 -26 -20 -44 -15z" />
    <glyph glyph-name="uni0302" unicode="&#x302;" 
d="M-380 574c-32 0 -31 18 -15 34l102 102c27 27 34 30 76 30h28c35 0 44 -3 71 -30l102 -102c16 -16 17 -34 -15 -34h-84c-39 0 -51 2 -66 21l-29 36l-31 -35c-17 -20 -28 -22 -65 -22h-74z" />
    <glyph glyph-name="uni030C" unicode="&#x30c;" 
d="M-226 573c-38 0 -46 3 -73 30l-101 102c-16 16 -20 34 12 34h84c39 0 50 -3 65 -21l31 -35l30 34c16 19 28 22 65 22h76c33 0 29 -18 13 -34l-100 -102c-27 -28 -35 -30 -75 -30h-27z" />
    <glyph glyph-name="uni0306" unicode="&#x306;" 
d="M-151 574c-88 0 -150 37 -176 106c-7 19 -2 27 17 35l66 25c22 8 28 4 38 -12c12 -23 29 -33 55 -33c25 0 41 10 54 33c10 16 16 19 36 12l70 -25c19 -8 24 -16 17 -35c-26 -69 -88 -106 -177 -106z" />
    <glyph glyph-name="uni030A" unicode="&#x30a;" 
d="M-121 543c-75 0 -130 42 -130 115c0 75 55 118 130 118s128 -46 128 -118c0 -71 -53 -115 -128 -115zM-121 624c21 0 35 13 35 34c0 22 -14 36 -35 36c-23 0 -38 -14 -38 -36c0 -20 15 -34 38 -34z" />
    <glyph glyph-name="tildecomb" unicode="&#x303;" 
d="M-307 585c-17 0 -23 7 -23 23c0 94 38 123 96 123c76 0 103 -42 135 -42c10 0 15 7 15 22c0 14 5 20 19 20h60c19 0 24 -8 24 -23c0 -94 -34 -123 -98 -123c-74 0 -100 41 -133 41c-9 0 -14 -6 -14 -22c0 -14 -6 -19 -20 -19h-61z" />
    <glyph glyph-name="uni0304" unicode="&#x304;" 
d="M-298 596c-28 0 -36 7 -36 36v42c0 29 11 36 36 36h244c28 0 36 -7 36 -36v-42c0 -29 -8 -36 -36 -36h-244z" />
    <glyph glyph-name="uni0326" unicode="&#x326;" 
d="M-186 -260c-22 0 -29 8 -27 30l17 140c3 30 14 42 44 42h89c35 0 44 -16 34 -42l-48 -137c-8 -23 -19 -33 -45 -33h-64z" />
    </font>
</defs>
</svg>
