<?xml version="1.0" standalone="no"?>
<!DOCTYPE svg PUBLIC "-//W3C//DTD SVG 1.1//EN" "http://www.w3.org/Graphics/SVG/1.1/DTD/svg11.dtd" >
<svg xmlns="http://www.w3.org/2000/svg" xmlns:xlink="http://www.w3.org/1999/xlink" version="1.1">
<metadata>
Created by FontForge 20190801 at Tue Nov 27 17:17:52 2018
 By Jimmy Wärting
Copyright \(c\) 2018 by Fontfabric LLC. All rights reserved.
</metadata>
<defs>
<font id="PantonDemo-Light" horiz-adv-x="0" >
  <font-face 
    font-family="Panton Light Caps"
    font-weight="290"
    font-stretch="normal"
    units-per-em="1000"
    panose-1="0 0 3 0 0 0 0 0 0 0"
    ascent="800"
    descent="-200"
    cap-height="710"
    bbox="-364.216 -253 1158 958.633"
    underline-thickness="50"
    underline-position="-100"
    stemh="35"
    stemv="44"
    unicode-range="U+0020-25CA"
  />
<missing-glyph horiz-adv-x="717" 
d="M120 0c-10 0 -13 3 -13 13v684c0 10 3 13 13 13h482c9 0 13 -3 13 -13v-684c0 -10 -4 -13 -13 -13h-482zM569 43v624h-416v-624h416z" />
    <glyph glyph-name=".notdef" horiz-adv-x="717" 
d="M120 0c-10 0 -13 3 -13 13v684c0 10 3 13 13 13h482c9 0 13 -3 13 -13v-684c0 -10 -4 -13 -13 -13h-482zM569 43v624h-416v-624h416z" />
    <glyph glyph-name="A" unicode="A" horiz-adv-x="664" 
d="M37 0c-11 0 -12 5 -9 12l277 691c3 9 8 12 17 12h19c10 0 14 -3 17 -12l277 -691c4 -7 2 -12 -9 -12h-18c-15 0 -20 2 -23 11l-88 221h-332l-88 -221c-4 -9 -8 -11 -23 -11h-17zM483 271l-142 354c-6 20 -8 39 -9 44h-3c-1 -5 -2 -24 -8 -43l-142 -355h304z" />
    <glyph glyph-name="A" unicode="a" horiz-adv-x="664" 
d="M37 0c-11 0 -12 5 -9 12l277 691c3 9 8 12 17 12h19c10 0 14 -3 17 -12l277 -691c4 -7 2 -12 -9 -12h-18c-15 0 -20 2 -23 11l-88 221h-332l-88 -221c-4 -9 -8 -11 -23 -11h-17zM483 271l-142 354c-6 20 -8 39 -9 44h-3c-1 -5 -2 -24 -8 -43l-142 -355h304z" />
    <glyph glyph-name="Aacute" unicode="&#xc1;" horiz-adv-x="664" 
d="M254 765c-8 -3 -12 -3 -16 1l-7 8c-5 7 -5 10 2 14l169 107c8 4 16 6 22 -2l10 -11c6 -7 6 -11 -2 -15zM37 0c-11 0 -12 5 -9 12l277 691c3 9 8 12 17 12h19c10 0 14 -3 17 -12l277 -691c4 -7 2 -12 -9 -12h-18c-15 0 -20 2 -23 11l-88 221h-332l-88 -221
c-4 -9 -8 -11 -23 -11h-17zM483 271l-142 354c-6 20 -8 39 -9 44h-3c-1 -5 -2 -24 -8 -43l-142 -355h304z" />
    <glyph glyph-name="Aacute" unicode="&#xe1;" horiz-adv-x="664" 
d="M254 765c-8 -3 -12 -3 -16 1l-7 8c-5 7 -5 10 2 14l169 107c8 4 16 6 22 -2l10 -11c6 -7 6 -11 -2 -15zM37 0c-11 0 -12 5 -9 12l277 691c3 9 8 12 17 12h19c10 0 14 -3 17 -12l277 -691c4 -7 2 -12 -9 -12h-18c-15 0 -20 2 -23 11l-88 221h-332l-88 -221
c-4 -9 -8 -11 -23 -11h-17zM483 271l-142 354c-6 20 -8 39 -9 44h-3c-1 -5 -2 -24 -8 -43l-142 -355h304z" />
    <glyph glyph-name="Abreve" unicode="&#x102;" horiz-adv-x="664" 
d="M332 764c-80 0 -129 36 -150 112c-2 6 0 9 5 11l17 6c7 2 10 1 12 -5c17 -62 53 -90 116 -90c62 0 99 28 116 90c2 6 4 7 11 5l17 -6c6 -2 8 -5 6 -11c-22 -76 -70 -112 -150 -112zM37 0c-11 0 -12 5 -9 12l277 691c3 9 8 12 17 12h19c10 0 14 -3 17 -12l277 -691
c4 -7 2 -12 -9 -12h-18c-15 0 -20 2 -23 11l-88 221h-332l-88 -221c-4 -9 -8 -11 -23 -11h-17zM483 271l-142 354c-6 20 -8 39 -9 44h-3c-1 -5 -2 -24 -8 -43l-142 -355h304z" />
    <glyph glyph-name="Abreve" unicode="&#x103;" horiz-adv-x="664" 
d="M332 764c-80 0 -129 36 -150 112c-2 6 0 9 5 11l17 6c7 2 10 1 12 -5c17 -62 53 -90 116 -90c62 0 99 28 116 90c2 6 4 7 11 5l17 -6c6 -2 8 -5 6 -11c-22 -76 -70 -112 -150 -112zM37 0c-11 0 -12 5 -9 12l277 691c3 9 8 12 17 12h19c10 0 14 -3 17 -12l277 -691
c4 -7 2 -12 -9 -12h-18c-15 0 -20 2 -23 11l-88 221h-332l-88 -221c-4 -9 -8 -11 -23 -11h-17zM483 271l-142 354c-6 20 -8 39 -9 44h-3c-1 -5 -2 -24 -8 -43l-142 -355h304z" />
    <glyph glyph-name="Acircumflex" unicode="&#xc2;" horiz-adv-x="664" 
d="M178 764c-11 0 -11 5 -6 10l133 112c11 11 13 12 24 12h6c10 0 12 -1 23 -12l133 -112c5 -5 5 -10 -6 -10h-19c-10 0 -14 1 -20 7l-115 95l-115 -95c-7 -6 -10 -7 -20 -7h-18zM37 0c-11 0 -12 5 -9 12l277 691c3 9 8 12 17 12h19c10 0 14 -3 17 -12l277 -691
c4 -7 2 -12 -9 -12h-18c-15 0 -20 2 -23 11l-88 221h-332l-88 -221c-4 -9 -8 -11 -23 -11h-17zM483 271l-142 354c-6 20 -8 39 -9 44h-3c-1 -5 -2 -24 -8 -43l-142 -355h304z" />
    <glyph glyph-name="Acircumflex" unicode="&#xe2;" horiz-adv-x="664" 
d="M178 764c-11 0 -11 5 -6 10l133 112c11 11 13 12 24 12h6c10 0 12 -1 23 -12l133 -112c5 -5 5 -10 -6 -10h-19c-10 0 -14 1 -20 7l-115 95l-115 -95c-7 -6 -10 -7 -20 -7h-18zM37 0c-11 0 -12 5 -9 12l277 691c3 9 8 12 17 12h19c10 0 14 -3 17 -12l277 -691
c4 -7 2 -12 -9 -12h-18c-15 0 -20 2 -23 11l-88 221h-332l-88 -221c-4 -9 -8 -11 -23 -11h-17zM483 271l-142 354c-6 20 -8 39 -9 44h-3c-1 -5 -2 -24 -8 -43l-142 -355h304z" />
    <glyph glyph-name="Adieresis" unicode="&#xc4;" horiz-adv-x="664" 
d="M233 801c-17 0 -23 5 -23 22v7c0 17 6 23 23 23h6c19 0 23 -6 23 -23v-7c0 -17 -4 -22 -23 -22h-6zM425 801c-19 0 -24 5 -24 22v7c0 17 5 23 24 23h5c17 0 23 -6 23 -23v-7c0 -17 -6 -22 -23 -22h-5zM37 0c-11 0 -12 5 -9 12l277 691c3 9 8 12 17 12h19
c10 0 14 -3 17 -12l277 -691c4 -7 2 -12 -9 -12h-18c-15 0 -20 2 -23 11l-88 221h-332l-88 -221c-4 -9 -8 -11 -23 -11h-17zM483 271l-142 354c-6 20 -8 39 -9 44h-3c-1 -5 -2 -24 -8 -43l-142 -355h304z" />
    <glyph glyph-name="Adieresis" unicode="&#xe4;" horiz-adv-x="664" 
d="M233 801c-17 0 -23 5 -23 22v7c0 17 6 23 23 23h6c19 0 23 -6 23 -23v-7c0 -17 -4 -22 -23 -22h-6zM425 801c-19 0 -24 5 -24 22v7c0 17 5 23 24 23h5c17 0 23 -6 23 -23v-7c0 -17 -6 -22 -23 -22h-5zM37 0c-11 0 -12 5 -9 12l277 691c3 9 8 12 17 12h19
c10 0 14 -3 17 -12l277 -691c4 -7 2 -12 -9 -12h-18c-15 0 -20 2 -23 11l-88 221h-332l-88 -221c-4 -9 -8 -11 -23 -11h-17zM483 271l-142 354c-6 20 -8 39 -9 44h-3c-1 -5 -2 -24 -8 -43l-142 -355h304z" />
    <glyph glyph-name="Agrave" unicode="&#xc0;" horiz-adv-x="664" 
d="M231 867c-8 4 -8 8 -2 15l10 11c7 8 14 6 22 2l173 -102c6 -4 7 -7 1 -14l-7 -8c-4 -5 -8 -5 -16 -1zM37 0c-11 0 -12 5 -9 12l277 691c3 9 8 12 17 12h19c10 0 14 -3 17 -12l277 -691c4 -7 2 -12 -9 -12h-18c-15 0 -20 2 -23 11l-88 221h-332l-88 -221
c-4 -9 -8 -11 -23 -11h-17zM483 271l-142 354c-6 20 -8 39 -9 44h-3c-1 -5 -2 -24 -8 -43l-142 -355h304z" />
    <glyph glyph-name="Agrave" unicode="&#xe0;" horiz-adv-x="664" 
d="M231 867c-8 4 -8 8 -2 15l10 11c7 8 14 6 22 2l173 -102c6 -4 7 -7 1 -14l-7 -8c-4 -5 -8 -5 -16 -1zM37 0c-11 0 -12 5 -9 12l277 691c3 9 8 12 17 12h19c10 0 14 -3 17 -12l277 -691c4 -7 2 -12 -9 -12h-18c-15 0 -20 2 -23 11l-88 221h-332l-88 -221
c-4 -9 -8 -11 -23 -11h-17zM483 271l-142 354c-6 20 -8 39 -9 44h-3c-1 -5 -2 -24 -8 -43l-142 -355h304z" />
    <glyph glyph-name="Amacron" unicode="&#x100;" horiz-adv-x="664" 
d="M213 806c-9 0 -11 3 -11 12v10c0 9 3 11 11 11h238c8 0 11 -2 11 -11v-10c0 -9 -3 -12 -11 -12h-238zM37 0c-11 0 -12 5 -9 12l277 691c3 9 8 12 17 12h19c10 0 14 -3 17 -12l277 -691c4 -7 2 -12 -9 -12h-18c-15 0 -20 2 -23 11l-88 221h-332l-88 -221
c-4 -9 -8 -11 -23 -11h-17zM483 271l-142 354c-6 20 -8 39 -9 44h-3c-1 -5 -2 -24 -8 -43l-142 -355h304z" />
    <glyph glyph-name="Amacron" unicode="&#x101;" horiz-adv-x="664" 
d="M213 806c-9 0 -11 3 -11 12v10c0 9 3 11 11 11h238c8 0 11 -2 11 -11v-10c0 -9 -3 -12 -11 -12h-238zM37 0c-11 0 -12 5 -9 12l277 691c3 9 8 12 17 12h19c10 0 14 -3 17 -12l277 -691c4 -7 2 -12 -9 -12h-18c-15 0 -20 2 -23 11l-88 221h-332l-88 -221
c-4 -9 -8 -11 -23 -11h-17zM483 271l-142 354c-6 20 -8 39 -9 44h-3c-1 -5 -2 -24 -8 -43l-142 -355h304z" />
    <glyph glyph-name="Aogonek" unicode="&#x104;" horiz-adv-x="663" 
d="M561 -247c-31 0 -61 16 -70 47c-18 53 18 134 109 205c-12 0 -14 4 -17 12l-86 215h-332l-88 -221c-3 -9 -8 -11 -23 -11h-17c-10 0 -12 5 -9 12l277 691c3 9 8 12 17 12h20c9 0 14 -3 17 -12l275 -688c3 -6 4 -10 -1 -15c-78 -62 -119 -140 -104 -181
c7 -21 26 -32 43 -32c22 0 48 9 65 28c4 3 7 2 9 -2l5 -15c2 -5 1 -7 -2 -10c-23 -23 -56 -35 -88 -35zM483 271l-84 216c-26 66 -46 131 -66 180h-3c-20 -49 -40 -114 -65 -180l-86 -216h304z" />
    <glyph glyph-name="Aogonek" unicode="&#x105;" horiz-adv-x="663" 
d="M561 -247c-31 0 -61 16 -70 47c-18 53 18 134 109 205c-12 0 -14 4 -17 12l-86 215h-332l-88 -221c-3 -9 -8 -11 -23 -11h-17c-10 0 -12 5 -9 12l277 691c3 9 8 12 17 12h20c9 0 14 -3 17 -12l275 -688c3 -6 4 -10 -1 -15c-78 -62 -119 -140 -104 -181
c7 -21 26 -32 43 -32c22 0 48 9 65 28c4 3 7 2 9 -2l5 -15c2 -5 1 -7 -2 -10c-23 -23 -56 -35 -88 -35zM483 271l-84 216c-26 66 -46 131 -66 180h-3c-20 -49 -40 -114 -65 -180l-86 -216h304z" />
    <glyph glyph-name="Aring" unicode="&#xc5;" horiz-adv-x="664" 
d="M37 0c-11 0 -12 5 -9 12l274 683c-45 9 -72 42 -72 91c0 60 41 99 103 99c61 0 100 -39 100 -99c0 -50 -26 -83 -71 -92l273 -682c4 -7 2 -12 -9 -12h-18c-15 0 -20 2 -23 11l-88 221h-332l-88 -221c-4 -9 -8 -11 -23 -11h-17zM333 715c44 0 72 28 72 71s-28 71 -72 71
c-46 0 -74 -28 -74 -71s28 -71 74 -71zM483 271l-142 354c-6 20 -8 39 -9 44h-3c-1 -5 -2 -24 -8 -43l-142 -355h304z" />
    <glyph glyph-name="Aring" unicode="&#xe5;" horiz-adv-x="664" 
d="M37 0c-11 0 -12 5 -9 12l274 683c-45 9 -72 42 -72 91c0 60 41 99 103 99c61 0 100 -39 100 -99c0 -50 -26 -83 -71 -92l273 -682c4 -7 2 -12 -9 -12h-18c-15 0 -20 2 -23 11l-88 221h-332l-88 -221c-4 -9 -8 -11 -23 -11h-17zM333 715c44 0 72 28 72 71s-28 71 -72 71
c-46 0 -74 -28 -74 -71s28 -71 74 -71zM483 271l-142 354c-6 20 -8 39 -9 44h-3c-1 -5 -2 -24 -8 -43l-142 -355h304z" />
    <glyph glyph-name="Aringacute" unicode="&#x1fa;" horiz-adv-x="663" 
d="M260 862c-8 -3 -11 -2 -14 1l-6 7c-5 6 -1 9 5 13l156 72c8 4 15 6 22 -1l8 -10c5 -6 5 -8 -2 -11zM37 0c-11 0 -12 5 -9 12l272 673c-39 9 -65 38 -65 76c0 53 40 91 97 91c55 0 95 -38 95 -91c0 -38 -25 -68 -64 -76l272 -673c3 -7 2 -12 -9 -12h-18
c-15 0 -20 2 -23 11l-88 221h-332l-89 -221c-3 -9 -7 -11 -22 -11h-17zM332 703c39 0 67 25 67 59c0 38 -28 65 -67 65c-41 0 -70 -27 -70 -65c0 -34 29 -59 70 -59zM483 271l-105 265c-18 45 -34 102 -46 129h-2c-12 -27 -27 -83 -45 -128l-107 -266h305z" />
    <glyph glyph-name="Aringacute" unicode="&#x1fb;" horiz-adv-x="663" 
d="M260 862c-8 -3 -11 -2 -14 1l-6 7c-5 6 -1 9 5 13l156 72c8 4 15 6 22 -1l8 -10c5 -6 5 -8 -2 -11zM37 0c-11 0 -12 5 -9 12l272 673c-39 9 -65 38 -65 76c0 53 40 91 97 91c55 0 95 -38 95 -91c0 -38 -25 -68 -64 -76l272 -673c3 -7 2 -12 -9 -12h-18
c-15 0 -20 2 -23 11l-88 221h-332l-89 -221c-3 -9 -7 -11 -22 -11h-17zM332 703c39 0 67 25 67 59c0 38 -28 65 -67 65c-41 0 -70 -27 -70 -65c0 -34 29 -59 70 -59zM483 271l-105 265c-18 45 -34 102 -46 129h-2c-12 -27 -27 -83 -45 -128l-107 -266h305z" />
    <glyph glyph-name="Atilde" unicode="&#xc3;" horiz-adv-x="664" 
d="M184 773c-6 0 -8 2 -8 8c0 60 26 94 75 94c73 0 98 -72 156 -72c33 0 48 26 48 64c0 6 1 8 8 8h13c6 0 8 -2 8 -8c0 -59 -23 -94 -74 -94c-71 0 -97 72 -156 72c-31 0 -48 -26 -48 -64c0 -6 -2 -8 -8 -8h-14zM37 0c-11 0 -12 5 -9 12l277 691c3 9 8 12 17 12h19
c10 0 14 -3 17 -12l277 -691c4 -7 2 -12 -9 -12h-18c-15 0 -20 2 -23 11l-88 221h-332l-88 -221c-4 -9 -8 -11 -23 -11h-17zM483 271l-142 354c-6 20 -8 39 -9 44h-3c-1 -5 -2 -24 -8 -43l-142 -355h304z" />
    <glyph glyph-name="Atilde" unicode="&#xe3;" horiz-adv-x="664" 
d="M184 773c-6 0 -8 2 -8 8c0 60 26 94 75 94c73 0 98 -72 156 -72c33 0 48 26 48 64c0 6 1 8 8 8h13c6 0 8 -2 8 -8c0 -59 -23 -94 -74 -94c-71 0 -97 72 -156 72c-31 0 -48 -26 -48 -64c0 -6 -2 -8 -8 -8h-14zM37 0c-11 0 -12 5 -9 12l277 691c3 9 8 12 17 12h19
c10 0 14 -3 17 -12l277 -691c4 -7 2 -12 -9 -12h-18c-15 0 -20 2 -23 11l-88 221h-332l-88 -221c-4 -9 -8 -11 -23 -11h-17zM483 271l-142 354c-6 20 -8 39 -9 44h-3c-1 -5 -2 -24 -8 -43l-142 -355h304z" />
    <glyph glyph-name="AE" unicode="&#xc6;" horiz-adv-x="849" 
d="M22 0c-11 0 -13 5 -9 12l418 686c5 10 8 12 17 12h319c9 0 12 -3 12 -13v-18c0 -9 -3 -12 -12 -12h-283v-286h239c9 0 12 -3 12 -13v-18c0 -9 -3 -12 -12 -12h-239v-295h296c10 0 13 -3 13 -12v-18c0 -10 -3 -13 -13 -13h-328c-10 0 -13 3 -13 13v174h-269l-106 -176
c-5 -8 -8 -11 -23 -11h-19zM439 226v408l-245 -408h245z" />
    <glyph glyph-name="AE" unicode="&#xe6;" horiz-adv-x="849" 
d="M22 0c-11 0 -13 5 -9 12l418 686c5 10 8 12 17 12h319c9 0 12 -3 12 -13v-18c0 -9 -3 -12 -12 -12h-283v-286h239c9 0 12 -3 12 -13v-18c0 -9 -3 -12 -12 -12h-239v-295h296c10 0 13 -3 13 -12v-18c0 -10 -3 -13 -13 -13h-328c-10 0 -13 3 -13 13v174h-269l-106 -176
c-5 -8 -8 -11 -23 -11h-19zM439 226v408l-245 -408h245z" />
    <glyph glyph-name="AEacute" unicode="&#x1fc;" horiz-adv-x="849" 
d="M528 765c-8 -3 -12 -3 -16 1l-7 8c-5 7 -5 10 2 14l169 107c8 4 16 6 22 -2l10 -11c6 -7 6 -11 -2 -15zM22 0c-11 0 -13 5 -9 12l418 686c5 10 8 12 17 12h319c9 0 12 -3 12 -13v-18c0 -9 -3 -12 -12 -12h-283v-286h239c9 0 12 -3 12 -13v-18c0 -9 -3 -12 -12 -12h-239
v-295h296c10 0 13 -3 13 -12v-18c0 -10 -3 -13 -13 -13h-328c-10 0 -13 3 -13 13v174h-269l-106 -176c-5 -8 -8 -11 -23 -11h-19zM439 226v408l-245 -408h245z" />
    <glyph glyph-name="AEacute" unicode="&#x1fd;" horiz-adv-x="849" 
d="M528 765c-8 -3 -12 -3 -16 1l-7 8c-5 7 -5 10 2 14l169 107c8 4 16 6 22 -2l10 -11c6 -7 6 -11 -2 -15zM22 0c-11 0 -13 5 -9 12l418 686c5 10 8 12 17 12h319c9 0 12 -3 12 -13v-18c0 -9 -3 -12 -12 -12h-283v-286h239c9 0 12 -3 12 -13v-18c0 -9 -3 -12 -12 -12h-239
v-295h296c10 0 13 -3 13 -12v-18c0 -10 -3 -13 -13 -13h-328c-10 0 -13 3 -13 13v174h-269l-106 -176c-5 -8 -8 -11 -23 -11h-19zM439 226v408l-245 -408h245z" />
    <glyph glyph-name="B" unicode="B" horiz-adv-x="671" 
d="M110 0c-9 0 -12 3 -12 13v684c0 10 3 13 12 13h285c118 0 187 -63 187 -179c0 -85 -36 -140 -103 -164v-2c82 -18 128 -78 128 -176c0 -122 -77 -189 -199 -189h-298zM390 383c93 0 145 48 145 143c0 93 -51 141 -145 141h-246v-284h246zM406 43c97 0 152 52 152 150
c0 96 -55 148 -152 148h-262v-298h262z" />
    <glyph glyph-name="B" unicode="b" horiz-adv-x="671" 
d="M110 0c-9 0 -12 3 -12 13v684c0 10 3 13 12 13h285c118 0 187 -63 187 -179c0 -85 -36 -140 -103 -164v-2c82 -18 128 -78 128 -176c0 -122 -77 -189 -199 -189h-298zM390 383c93 0 145 48 145 143c0 93 -51 141 -145 141h-246v-284h246zM406 43c97 0 152 52 152 150
c0 96 -55 148 -152 148h-262v-298h262z" />
    <glyph glyph-name="C" unicode="C" horiz-adv-x="665" 
d="M346 -14c-174 0 -270 94 -270 247v245c0 152 93 246 270 246c154 0 229 -60 262 -174c4 -10 1 -13 -8 -17l-19 -6c-9 -2 -13 -2 -17 8c-29 99 -89 146 -218 146c-148 0 -223 -77 -223 -202v-247c0 -125 77 -203 223 -203c133 0 191 52 221 151c3 9 7 11 16 8l19 -7
c9 -3 12 -7 9 -17c-34 -113 -106 -178 -265 -178z" />
    <glyph glyph-name="C" unicode="c" horiz-adv-x="665" 
d="M346 -14c-174 0 -270 94 -270 247v245c0 152 93 246 270 246c154 0 229 -60 262 -174c4 -10 1 -13 -8 -17l-19 -6c-9 -2 -13 -2 -17 8c-29 99 -89 146 -218 146c-148 0 -223 -77 -223 -202v-247c0 -125 77 -203 223 -203c133 0 191 52 221 151c3 9 7 11 16 8l19 -7
c9 -3 12 -7 9 -17c-34 -113 -106 -178 -265 -178z" />
    <glyph glyph-name="Cacute" unicode="&#x106;" horiz-adv-x="665" 
d="M269 765c-8 -3 -12 -3 -16 1l-7 8c-5 7 -5 10 2 14l169 107c8 4 16 6 22 -2l10 -11c6 -7 6 -11 -2 -15zM346 -14c-174 0 -270 94 -270 247v245c0 152 93 246 270 246c154 0 229 -60 262 -174c4 -10 1 -13 -8 -17l-19 -6c-9 -2 -13 -2 -17 8c-29 99 -89 146 -218 146
c-148 0 -223 -77 -223 -202v-247c0 -125 77 -203 223 -203c133 0 191 52 221 151c3 9 7 11 16 8l19 -7c9 -3 12 -7 9 -17c-34 -113 -106 -178 -265 -178z" />
    <glyph glyph-name="Cacute" unicode="&#x107;" horiz-adv-x="665" 
d="M269 765c-8 -3 -12 -3 -16 1l-7 8c-5 7 -5 10 2 14l169 107c8 4 16 6 22 -2l10 -11c6 -7 6 -11 -2 -15zM346 -14c-174 0 -270 94 -270 247v245c0 152 93 246 270 246c154 0 229 -60 262 -174c4 -10 1 -13 -8 -17l-19 -6c-9 -2 -13 -2 -17 8c-29 99 -89 146 -218 146
c-148 0 -223 -77 -223 -202v-247c0 -125 77 -203 223 -203c133 0 191 52 221 151c3 9 7 11 16 8l19 -7c9 -3 12 -7 9 -17c-34 -113 -106 -178 -265 -178z" />
    <glyph glyph-name="Ccaron" unicode="&#x10c;" horiz-adv-x="665" 
d="M344 764c-11 0 -13 1 -24 12l-132 111c-5 4 -6 11 5 11h18c10 0 13 -1 20 -7l115 -95l115 95c6 6 10 7 20 7h19c11 0 10 -6 5 -11l-132 -111c-11 -11 -13 -12 -23 -12h-6zM346 -14c-174 0 -270 94 -270 247v245c0 152 93 246 270 246c154 0 229 -60 262 -174
c4 -10 1 -13 -8 -17l-19 -6c-9 -2 -13 -2 -17 8c-29 99 -89 146 -218 146c-148 0 -223 -77 -223 -202v-247c0 -125 77 -203 223 -203c133 0 191 52 221 151c3 9 7 11 16 8l19 -7c9 -3 12 -7 9 -17c-34 -113 -106 -178 -265 -178z" />
    <glyph glyph-name="Ccaron" unicode="&#x10d;" horiz-adv-x="665" 
d="M344 764c-11 0 -13 1 -24 12l-132 111c-5 4 -6 11 5 11h18c10 0 13 -1 20 -7l115 -95l115 95c6 6 10 7 20 7h19c11 0 10 -6 5 -11l-132 -111c-11 -11 -13 -12 -23 -12h-6zM346 -14c-174 0 -270 94 -270 247v245c0 152 93 246 270 246c154 0 229 -60 262 -174
c4 -10 1 -13 -8 -17l-19 -6c-9 -2 -13 -2 -17 8c-29 99 -89 146 -218 146c-148 0 -223 -77 -223 -202v-247c0 -125 77 -203 223 -203c133 0 191 52 221 151c3 9 7 11 16 8l19 -7c9 -3 12 -7 9 -17c-34 -113 -106 -178 -265 -178z" />
    <glyph glyph-name="Ccedilla" unicode="&#xc7;" horiz-adv-x="665" 
d="M332 -246c-40 0 -67 12 -84 22c-7 4 -9 7 -9 16v13c0 4 2 8 7 4c17 -13 40 -26 82 -26c49 0 78 24 78 66c0 33 -25 48 -68 49c-14 0 -27 -2 -38 -6c-10 -2 -13 3 -9 14l31 80c-159 8 -246 101 -246 247v245c0 152 93 246 270 246c154 0 229 -60 262 -174
c4 -10 1 -13 -8 -17l-19 -6c-9 -2 -13 -2 -17 8c-29 99 -89 146 -218 146c-148 0 -223 -77 -223 -202v-247c0 -125 77 -203 223 -203c133 0 191 52 221 151c3 9 7 11 16 8l19 -7c9 -3 12 -7 9 -17c-33 -111 -102 -176 -260 -178l-25 -67c9 2 20 3 32 3c53 0 87 -29 86 -75
c-2 -62 -48 -93 -112 -93z" />
    <glyph glyph-name="Ccedilla" unicode="&#xe7;" horiz-adv-x="665" 
d="M332 -246c-40 0 -67 12 -84 22c-7 4 -9 7 -9 16v13c0 4 2 8 7 4c17 -13 40 -26 82 -26c49 0 78 24 78 66c0 33 -25 48 -68 49c-14 0 -27 -2 -38 -6c-10 -2 -13 3 -9 14l31 80c-159 8 -246 101 -246 247v245c0 152 93 246 270 246c154 0 229 -60 262 -174
c4 -10 1 -13 -8 -17l-19 -6c-9 -2 -13 -2 -17 8c-29 99 -89 146 -218 146c-148 0 -223 -77 -223 -202v-247c0 -125 77 -203 223 -203c133 0 191 52 221 151c3 9 7 11 16 8l19 -7c9 -3 12 -7 9 -17c-33 -111 -102 -176 -260 -178l-25 -67c9 2 20 3 32 3c53 0 87 -29 86 -75
c-2 -62 -48 -93 -112 -93z" />
    <glyph glyph-name="Ccircumflex" unicode="&#x108;" horiz-adv-x="665" 
d="M194 764c-11 0 -11 5 -6 10l133 112c11 11 13 12 24 12h6c10 0 12 -1 23 -12l133 -112c5 -5 5 -10 -6 -10h-19c-10 0 -14 1 -20 7l-115 95l-115 -95c-7 -6 -10 -7 -20 -7h-18zM346 -14c-174 0 -270 94 -270 247v245c0 152 93 246 270 246c154 0 229 -60 262 -174
c4 -10 1 -13 -8 -17l-19 -6c-9 -2 -13 -2 -17 8c-29 99 -89 146 -218 146c-148 0 -223 -77 -223 -202v-247c0 -125 77 -203 223 -203c133 0 191 52 221 151c3 9 7 11 16 8l19 -7c9 -3 12 -7 9 -17c-34 -113 -106 -178 -265 -178z" />
    <glyph glyph-name="Ccircumflex" unicode="&#x109;" horiz-adv-x="665" 
d="M194 764c-11 0 -11 5 -6 10l133 112c11 11 13 12 24 12h6c10 0 12 -1 23 -12l133 -112c5 -5 5 -10 -6 -10h-19c-10 0 -14 1 -20 7l-115 95l-115 -95c-7 -6 -10 -7 -20 -7h-18zM346 -14c-174 0 -270 94 -270 247v245c0 152 93 246 270 246c154 0 229 -60 262 -174
c4 -10 1 -13 -8 -17l-19 -6c-9 -2 -13 -2 -17 8c-29 99 -89 146 -218 146c-148 0 -223 -77 -223 -202v-247c0 -125 77 -203 223 -203c133 0 191 52 221 151c3 9 7 11 16 8l19 -7c9 -3 12 -7 9 -17c-34 -113 -106 -178 -265 -178z" />
    <glyph glyph-name="Cdotaccent" unicode="&#x10a;" horiz-adv-x="665" 
d="M344 796c-18 0 -23 5 -23 24v5c0 19 5 24 23 24h5c18 0 24 -5 24 -24v-5c0 -18 -6 -24 -24 -24h-5zM346 -14c-174 0 -270 94 -270 247v245c0 152 93 246 270 246c154 0 229 -60 262 -174c4 -10 1 -13 -8 -17l-19 -6c-9 -2 -13 -2 -17 8c-29 99 -89 146 -218 146
c-148 0 -223 -77 -223 -202v-247c0 -125 77 -203 223 -203c133 0 191 52 221 151c3 9 7 11 16 8l19 -7c9 -3 12 -7 9 -17c-34 -113 -106 -178 -265 -178z" />
    <glyph glyph-name="Cdotaccent" unicode="&#x10b;" horiz-adv-x="665" 
d="M344 796c-18 0 -23 5 -23 24v5c0 19 5 24 23 24h5c18 0 24 -5 24 -24v-5c0 -18 -6 -24 -24 -24h-5zM346 -14c-174 0 -270 94 -270 247v245c0 152 93 246 270 246c154 0 229 -60 262 -174c4 -10 1 -13 -8 -17l-19 -6c-9 -2 -13 -2 -17 8c-29 99 -89 146 -218 146
c-148 0 -223 -77 -223 -202v-247c0 -125 77 -203 223 -203c133 0 191 52 221 151c3 9 7 11 16 8l19 -7c9 -3 12 -7 9 -17c-34 -113 -106 -178 -265 -178z" />
    <glyph glyph-name="D" unicode="D" horiz-adv-x="677" 
d="M110 0c-9 0 -12 3 -12 13v684c0 10 3 13 12 13h205c186 0 290 -101 290 -264v-182c0 -163 -104 -264 -290 -264h-205zM315 43c157 0 244 82 244 221v182c0 139 -86 221 -244 221h-171v-624h171z" />
    <glyph glyph-name="D" unicode="d" horiz-adv-x="677" 
d="M110 0c-9 0 -12 3 -12 13v684c0 10 3 13 12 13h205c186 0 290 -101 290 -264v-182c0 -163 -104 -264 -290 -264h-205zM315 43c157 0 244 82 244 221v182c0 139 -86 221 -244 221h-171v-624h171z" />
    <glyph glyph-name="Eth" unicode="&#xd0;" horiz-adv-x="687" 
d="M120 0c-10 0 -13 3 -13 13v328h-80c-8 0 -10 2 -10 10v13c0 8 2 10 10 10h80v323c0 10 3 13 13 13h204c186 0 290 -101 290 -264v-182c0 -163 -104 -264 -290 -264h-204zM325 43c156 0 243 82 243 221v182c0 139 -86 221 -243 221h-172v-293h192c7 0 9 -2 9 -10v-13
c0 -8 -2 -10 -9 -10h-192v-298h172z" />
    <glyph glyph-name="Eth" unicode="&#xf0;" horiz-adv-x="687" 
d="M120 0c-10 0 -13 3 -13 13v328h-80c-8 0 -10 2 -10 10v13c0 8 2 10 10 10h80v323c0 10 3 13 13 13h204c186 0 290 -101 290 -264v-182c0 -163 -104 -264 -290 -264h-204zM325 43c156 0 243 82 243 221v182c0 139 -86 221 -243 221h-172v-293h192c7 0 9 -2 9 -10v-13
c0 -8 -2 -10 -9 -10h-192v-298h172z" />
    <glyph glyph-name="Dcaron" unicode="&#x10e;" horiz-adv-x="677" 
d="M321 764c-11 0 -13 1 -24 12l-132 111c-5 4 -6 11 5 11h18c10 0 13 -1 20 -7l115 -95l115 95c6 6 10 7 20 7h19c11 0 10 -6 5 -11l-132 -111c-11 -11 -13 -12 -23 -12h-6zM110 0c-9 0 -12 3 -12 13v684c0 10 3 13 12 13h205c186 0 290 -101 290 -264v-182
c0 -163 -104 -264 -290 -264h-205zM315 43c157 0 244 82 244 221v182c0 139 -86 221 -244 221h-171v-624h171z" />
    <glyph glyph-name="Dcaron" unicode="&#x10f;" horiz-adv-x="677" 
d="M321 764c-11 0 -13 1 -24 12l-132 111c-5 4 -6 11 5 11h18c10 0 13 -1 20 -7l115 -95l115 95c6 6 10 7 20 7h19c11 0 10 -6 5 -11l-132 -111c-11 -11 -13 -12 -23 -12h-6zM110 0c-9 0 -12 3 -12 13v684c0 10 3 13 12 13h205c186 0 290 -101 290 -264v-182
c0 -163 -104 -264 -290 -264h-205zM315 43c157 0 244 82 244 221v182c0 139 -86 221 -244 221h-171v-624h171z" />
    <glyph glyph-name="Dcroat" unicode="&#x110;" horiz-adv-x="687" 
d="M120 0c-10 0 -13 3 -13 13v328h-80c-8 0 -10 2 -10 10v13c0 8 2 10 10 10h80v323c0 10 3 13 13 13h204c186 0 290 -101 290 -264v-182c0 -163 -104 -264 -290 -264h-204zM325 43c156 0 243 82 243 221v182c0 139 -86 221 -243 221h-172v-293h192c7 0 9 -2 9 -10v-13
c0 -8 -2 -10 -9 -10h-192v-298h172z" />
    <glyph glyph-name="Dcroat" unicode="&#x111;" horiz-adv-x="687" 
d="M120 0c-10 0 -13 3 -13 13v328h-80c-8 0 -10 2 -10 10v13c0 8 2 10 10 10h80v323c0 10 3 13 13 13h204c186 0 290 -101 290 -264v-182c0 -163 -104 -264 -290 -264h-204zM325 43c156 0 243 82 243 221v182c0 139 -86 221 -243 221h-172v-293h192c7 0 9 -2 9 -10v-13
c0 -8 -2 -10 -9 -10h-192v-298h172z" />
    <glyph glyph-name="E" unicode="E" horiz-adv-x="601" 
d="M110 0c-9 0 -12 3 -12 13v684c0 10 3 13 12 13h409c9 0 13 -3 13 -13v-18c0 -9 -4 -12 -13 -12h-375v-285h331c10 0 13 -4 13 -13v-18c0 -10 -3 -13 -13 -13h-331v-295h389c9 0 12 -3 12 -12v-18c0 -10 -3 -13 -12 -13h-423z" />
    <glyph glyph-name="E" unicode="e" horiz-adv-x="601" 
d="M110 0c-9 0 -12 3 -12 13v684c0 10 3 13 12 13h409c9 0 13 -3 13 -13v-18c0 -9 -4 -12 -13 -12h-375v-285h331c10 0 13 -4 13 -13v-18c0 -10 -3 -13 -13 -13h-331v-295h389c9 0 12 -3 12 -12v-18c0 -10 -3 -13 -12 -13h-423z" />
    <glyph glyph-name="Eacute" unicode="&#xc9;" horiz-adv-x="601" 
d="M237 765c-8 -3 -12 -3 -16 1l-7 8c-5 7 -5 10 2 14l169 107c8 4 16 6 22 -2l10 -11c6 -7 6 -11 -2 -15zM110 0c-9 0 -12 3 -12 13v684c0 10 3 13 12 13h409c9 0 13 -3 13 -13v-18c0 -9 -4 -12 -13 -12h-375v-285h331c10 0 13 -4 13 -13v-18c0 -10 -3 -13 -13 -13h-331
v-295h389c9 0 12 -3 12 -12v-18c0 -10 -3 -13 -12 -13h-423z" />
    <glyph glyph-name="Eacute" unicode="&#xe9;" horiz-adv-x="601" 
d="M237 765c-8 -3 -12 -3 -16 1l-7 8c-5 7 -5 10 2 14l169 107c8 4 16 6 22 -2l10 -11c6 -7 6 -11 -2 -15zM110 0c-9 0 -12 3 -12 13v684c0 10 3 13 12 13h409c9 0 13 -3 13 -13v-18c0 -9 -4 -12 -13 -12h-375v-285h331c10 0 13 -4 13 -13v-18c0 -10 -3 -13 -13 -13h-331
v-295h389c9 0 12 -3 12 -12v-18c0 -10 -3 -13 -12 -13h-423z" />
    <glyph glyph-name="Ebreve" unicode="&#x114;" horiz-adv-x="601" 
d="M315 764c-80 0 -129 36 -150 112c-2 6 0 9 5 11l17 6c7 2 10 1 12 -5c17 -62 53 -90 116 -90c62 0 99 28 116 90c2 6 4 7 11 5l17 -6c6 -2 8 -5 6 -11c-22 -76 -70 -112 -150 -112zM110 0c-9 0 -12 3 -12 13v684c0 10 3 13 12 13h409c9 0 13 -3 13 -13v-18
c0 -9 -4 -12 -13 -12h-375v-285h331c10 0 13 -4 13 -13v-18c0 -10 -3 -13 -13 -13h-331v-295h389c9 0 12 -3 12 -12v-18c0 -10 -3 -13 -12 -13h-423z" />
    <glyph glyph-name="Ebreve" unicode="&#x115;" horiz-adv-x="601" 
d="M315 764c-80 0 -129 36 -150 112c-2 6 0 9 5 11l17 6c7 2 10 1 12 -5c17 -62 53 -90 116 -90c62 0 99 28 116 90c2 6 4 7 11 5l17 -6c6 -2 8 -5 6 -11c-22 -76 -70 -112 -150 -112zM110 0c-9 0 -12 3 -12 13v684c0 10 3 13 12 13h409c9 0 13 -3 13 -13v-18
c0 -9 -4 -12 -13 -12h-375v-285h331c10 0 13 -4 13 -13v-18c0 -10 -3 -13 -13 -13h-331v-295h389c9 0 12 -3 12 -12v-18c0 -10 -3 -13 -12 -13h-423z" />
    <glyph glyph-name="Ecaron" unicode="&#x11a;" horiz-adv-x="601" 
d="M312 764c-11 0 -13 1 -24 12l-132 111c-5 4 -6 11 5 11h18c10 0 13 -1 20 -7l115 -95l115 95c6 6 10 7 20 7h19c11 0 10 -6 5 -11l-132 -111c-11 -11 -13 -12 -23 -12h-6zM110 0c-9 0 -12 3 -12 13v684c0 10 3 13 12 13h409c9 0 13 -3 13 -13v-18c0 -9 -4 -12 -13 -12
h-375v-285h331c10 0 13 -4 13 -13v-18c0 -10 -3 -13 -13 -13h-331v-295h389c9 0 12 -3 12 -12v-18c0 -10 -3 -13 -12 -13h-423z" />
    <glyph glyph-name="Ecaron" unicode="&#x11b;" horiz-adv-x="601" 
d="M312 764c-11 0 -13 1 -24 12l-132 111c-5 4 -6 11 5 11h18c10 0 13 -1 20 -7l115 -95l115 95c6 6 10 7 20 7h19c11 0 10 -6 5 -11l-132 -111c-11 -11 -13 -12 -23 -12h-6zM110 0c-9 0 -12 3 -12 13v684c0 10 3 13 12 13h409c9 0 13 -3 13 -13v-18c0 -9 -4 -12 -13 -12
h-375v-285h331c10 0 13 -4 13 -13v-18c0 -10 -3 -13 -13 -13h-331v-295h389c9 0 12 -3 12 -12v-18c0 -10 -3 -13 -12 -13h-423z" />
    <glyph glyph-name="Ecircumflex" unicode="&#xca;" horiz-adv-x="601" 
d="M162 764c-11 0 -11 5 -6 10l133 112c11 11 13 12 24 12h6c10 0 12 -1 23 -12l133 -112c5 -5 5 -10 -6 -10h-19c-10 0 -14 1 -20 7l-115 95l-115 -95c-7 -6 -10 -7 -20 -7h-18zM110 0c-9 0 -12 3 -12 13v684c0 10 3 13 12 13h409c9 0 13 -3 13 -13v-18
c0 -9 -4 -12 -13 -12h-375v-285h331c10 0 13 -4 13 -13v-18c0 -10 -3 -13 -13 -13h-331v-295h389c9 0 12 -3 12 -12v-18c0 -10 -3 -13 -12 -13h-423z" />
    <glyph glyph-name="Ecircumflex" unicode="&#xea;" horiz-adv-x="601" 
d="M162 764c-11 0 -11 5 -6 10l133 112c11 11 13 12 24 12h6c10 0 12 -1 23 -12l133 -112c5 -5 5 -10 -6 -10h-19c-10 0 -14 1 -20 7l-115 95l-115 -95c-7 -6 -10 -7 -20 -7h-18zM110 0c-9 0 -12 3 -12 13v684c0 10 3 13 12 13h409c9 0 13 -3 13 -13v-18
c0 -9 -4 -12 -13 -12h-375v-285h331c10 0 13 -4 13 -13v-18c0 -10 -3 -13 -13 -13h-331v-295h389c9 0 12 -3 12 -12v-18c0 -10 -3 -13 -12 -13h-423z" />
    <glyph glyph-name="Edieresis" unicode="&#xcb;" horiz-adv-x="601" 
d="M216 801c-17 0 -23 5 -23 22v7c0 17 6 23 23 23h6c19 0 23 -6 23 -23v-7c0 -17 -4 -22 -23 -22h-6zM408 801c-19 0 -24 5 -24 22v7c0 17 5 23 24 23h5c17 0 23 -6 23 -23v-7c0 -17 -6 -22 -23 -22h-5zM110 0c-9 0 -12 3 -12 13v684c0 10 3 13 12 13h409c9 0 13 -3 13 -13
v-18c0 -9 -4 -12 -13 -12h-375v-285h331c10 0 13 -4 13 -13v-18c0 -10 -3 -13 -13 -13h-331v-295h389c9 0 12 -3 12 -12v-18c0 -10 -3 -13 -12 -13h-423z" />
    <glyph glyph-name="Edieresis" unicode="&#xeb;" horiz-adv-x="601" 
d="M216 801c-17 0 -23 5 -23 22v7c0 17 6 23 23 23h6c19 0 23 -6 23 -23v-7c0 -17 -4 -22 -23 -22h-6zM408 801c-19 0 -24 5 -24 22v7c0 17 5 23 24 23h5c17 0 23 -6 23 -23v-7c0 -17 -6 -22 -23 -22h-5zM110 0c-9 0 -12 3 -12 13v684c0 10 3 13 12 13h409c9 0 13 -3 13 -13
v-18c0 -9 -4 -12 -13 -12h-375v-285h331c10 0 13 -4 13 -13v-18c0 -10 -3 -13 -13 -13h-331v-295h389c9 0 12 -3 12 -12v-18c0 -10 -3 -13 -12 -13h-423z" />
    <glyph glyph-name="Edotaccent" unicode="&#x116;" horiz-adv-x="601" 
d="M312 796c-18 0 -23 5 -23 24v5c0 19 5 24 23 24h5c18 0 24 -5 24 -24v-5c0 -18 -6 -24 -24 -24h-5zM110 0c-9 0 -12 3 -12 13v684c0 10 3 13 12 13h409c9 0 13 -3 13 -13v-18c0 -9 -4 -12 -13 -12h-375v-285h331c10 0 13 -4 13 -13v-18c0 -10 -3 -13 -13 -13h-331v-295
h389c9 0 12 -3 12 -12v-18c0 -10 -3 -13 -12 -13h-423z" />
    <glyph glyph-name="Edotaccent" unicode="&#x117;" horiz-adv-x="601" 
d="M312 796c-18 0 -23 5 -23 24v5c0 19 5 24 23 24h5c18 0 24 -5 24 -24v-5c0 -18 -6 -24 -24 -24h-5zM110 0c-9 0 -12 3 -12 13v684c0 10 3 13 12 13h409c9 0 13 -3 13 -13v-18c0 -9 -4 -12 -13 -12h-375v-285h331c10 0 13 -4 13 -13v-18c0 -10 -3 -13 -13 -13h-331v-295
h389c9 0 12 -3 12 -12v-18c0 -10 -3 -13 -12 -13h-423z" />
    <glyph glyph-name="Egrave" unicode="&#xc8;" horiz-adv-x="601" 
d="M214 867c-8 4 -8 8 -2 15l10 11c7 8 14 6 22 2l173 -102c6 -4 7 -7 1 -14l-7 -8c-4 -5 -8 -5 -16 -1zM110 0c-9 0 -12 3 -12 13v684c0 10 3 13 12 13h409c9 0 13 -3 13 -13v-18c0 -9 -4 -12 -13 -12h-375v-285h331c10 0 13 -4 13 -13v-18c0 -10 -3 -13 -13 -13h-331v-295
h389c9 0 12 -3 12 -12v-18c0 -10 -3 -13 -12 -13h-423z" />
    <glyph glyph-name="Egrave" unicode="&#xe8;" horiz-adv-x="601" 
d="M214 867c-8 4 -8 8 -2 15l10 11c7 8 14 6 22 2l173 -102c6 -4 7 -7 1 -14l-7 -8c-4 -5 -8 -5 -16 -1zM110 0c-9 0 -12 3 -12 13v684c0 10 3 13 12 13h409c9 0 13 -3 13 -13v-18c0 -9 -4 -12 -13 -12h-375v-285h331c10 0 13 -4 13 -13v-18c0 -10 -3 -13 -13 -13h-331v-295
h389c9 0 12 -3 12 -12v-18c0 -10 -3 -13 -12 -13h-423z" />
    <glyph glyph-name="Emacron" unicode="&#x112;" horiz-adv-x="601" 
d="M196 806c-9 0 -11 3 -11 12v10c0 9 3 11 11 11h238c8 0 11 -2 11 -11v-10c0 -9 -3 -12 -11 -12h-238zM110 0c-9 0 -12 3 -12 13v684c0 10 3 13 12 13h409c9 0 13 -3 13 -13v-18c0 -9 -4 -12 -13 -12h-375v-285h331c10 0 13 -4 13 -13v-18c0 -10 -3 -13 -13 -13h-331v-295
h389c9 0 12 -3 12 -12v-18c0 -10 -3 -13 -12 -13h-423z" />
    <glyph glyph-name="Emacron" unicode="&#x113;" horiz-adv-x="601" 
d="M196 806c-9 0 -11 3 -11 12v10c0 9 3 11 11 11h238c8 0 11 -2 11 -11v-10c0 -9 -3 -12 -11 -12h-238zM110 0c-9 0 -12 3 -12 13v684c0 10 3 13 12 13h409c9 0 13 -3 13 -13v-18c0 -9 -4 -12 -13 -12h-375v-285h331c10 0 13 -4 13 -13v-18c0 -10 -3 -13 -13 -13h-331v-295
h389c9 0 12 -3 12 -12v-18c0 -10 -3 -13 -12 -13h-423z" />
    <glyph glyph-name="Eogonek" unicode="&#x118;" horiz-adv-x="601" 
d="M460 -247c-32 0 -60 15 -71 48c-18 53 21 130 113 199h-392c-9 0 -12 3 -12 13v684c0 10 3 13 12 13h409c9 0 13 -3 13 -13v-18c0 -9 -4 -12 -13 -12h-375v-286h331c10 0 13 -3 13 -13v-18c0 -9 -3 -12 -13 -12h-331v-295h389c9 0 12 -3 12 -12v-18c0 -6 -1 -8 -4 -11
c-85 -67 -129 -139 -113 -184c7 -21 26 -30 45 -30c24 0 46 10 62 28c4 2 7 2 8 -3l6 -14c2 -5 1 -7 -2 -10c-25 -24 -52 -36 -87 -36z" />
    <glyph glyph-name="Eogonek" unicode="&#x119;" horiz-adv-x="601" 
d="M460 -247c-32 0 -60 15 -71 48c-18 53 21 130 113 199h-392c-9 0 -12 3 -12 13v684c0 10 3 13 12 13h409c9 0 13 -3 13 -13v-18c0 -9 -4 -12 -13 -12h-375v-286h331c10 0 13 -3 13 -13v-18c0 -9 -3 -12 -13 -12h-331v-295h389c9 0 12 -3 12 -12v-18c0 -6 -1 -8 -4 -11
c-85 -67 -129 -139 -113 -184c7 -21 26 -30 45 -30c24 0 46 10 62 28c4 2 7 2 8 -3l6 -14c2 -5 1 -7 -2 -10c-25 -24 -52 -36 -87 -36z" />
    <glyph glyph-name="F" unicode="F" horiz-adv-x="582" 
d="M110 0c-9 0 -12 3 -12 13v684c0 10 3 13 12 13h409c9 0 13 -3 13 -13v-18c0 -9 -4 -12 -13 -12h-375v-296h326c9 0 13 -3 13 -13v-18c0 -9 -4 -12 -13 -12h-326v-315c0 -10 -3 -13 -12 -13h-22z" />
    <glyph glyph-name="F" unicode="f" horiz-adv-x="582" 
d="M110 0c-9 0 -12 3 -12 13v684c0 10 3 13 12 13h409c9 0 13 -3 13 -13v-18c0 -9 -4 -12 -13 -12h-375v-296h326c9 0 13 -3 13 -13v-18c0 -9 -4 -12 -13 -12h-326v-315c0 -10 -3 -13 -12 -13h-22z" />
    <glyph glyph-name="G" unicode="G" horiz-adv-x="683" 
d="M346 -14c-176 0 -270 95 -270 248v244c0 152 93 246 270 246c154 0 229 -60 262 -174c4 -10 1 -13 -8 -17l-19 -6c-9 -3 -13 -2 -17 8c-29 99 -89 146 -218 146c-149 0 -223 -77 -223 -202v-245c0 -128 77 -205 223 -205c145 0 223 77 223 198v87h-214c-9 0 -12 4 -12 13
v18c0 9 3 13 12 13h247c10 0 13 -4 13 -14v-117c0 -146 -94 -241 -269 -241z" />
    <glyph glyph-name="G" unicode="g" horiz-adv-x="683" 
d="M346 -14c-176 0 -270 95 -270 248v244c0 152 93 246 270 246c154 0 229 -60 262 -174c4 -10 1 -13 -8 -17l-19 -6c-9 -3 -13 -2 -17 8c-29 99 -89 146 -218 146c-149 0 -223 -77 -223 -202v-245c0 -128 77 -205 223 -205c145 0 223 77 223 198v87h-214c-9 0 -12 4 -12 13
v18c0 9 3 13 12 13h247c10 0 13 -4 13 -14v-117c0 -146 -94 -241 -269 -241z" />
    <glyph glyph-name="Gbreve" unicode="&#x11e;" horiz-adv-x="683" 
d="M346 774c-80 0 -129 36 -150 112c-2 6 0 9 5 11l17 6c7 2 10 1 12 -5c17 -62 53 -90 116 -90c62 0 99 28 116 90c2 6 4 7 11 5l17 -6c6 -2 8 -5 6 -11c-22 -76 -70 -112 -150 -112zM346 -14c-176 0 -270 95 -270 248v244c0 152 93 246 270 246c154 0 229 -60 262 -174
c4 -10 1 -13 -8 -17l-19 -6c-9 -3 -13 -2 -17 8c-29 99 -89 146 -218 146c-149 0 -223 -77 -223 -202v-245c0 -128 77 -205 223 -205c145 0 223 77 223 198v87h-214c-9 0 -12 4 -12 13v18c0 9 3 13 12 13h247c10 0 13 -4 13 -14v-117c0 -146 -94 -241 -269 -241z" />
    <glyph glyph-name="Gbreve" unicode="&#x11f;" horiz-adv-x="683" 
d="M346 774c-80 0 -129 36 -150 112c-2 6 0 9 5 11l17 6c7 2 10 1 12 -5c17 -62 53 -90 116 -90c62 0 99 28 116 90c2 6 4 7 11 5l17 -6c6 -2 8 -5 6 -11c-22 -76 -70 -112 -150 -112zM346 -14c-176 0 -270 95 -270 248v244c0 152 93 246 270 246c154 0 229 -60 262 -174
c4 -10 1 -13 -8 -17l-19 -6c-9 -3 -13 -2 -17 8c-29 99 -89 146 -218 146c-149 0 -223 -77 -223 -202v-245c0 -128 77 -205 223 -205c145 0 223 77 223 198v87h-214c-9 0 -12 4 -12 13v18c0 9 3 13 12 13h247c10 0 13 -4 13 -14v-117c0 -146 -94 -241 -269 -241z" />
    <glyph glyph-name="Gcircumflex" unicode="&#x11c;" horiz-adv-x="683" 
d="M192 774c-11 0 -11 5 -6 10l133 112c11 11 13 12 24 12h6c10 0 12 -1 23 -12l133 -112c5 -5 5 -10 -6 -10h-19c-10 0 -14 1 -20 7l-115 95l-115 -95c-7 -6 -10 -7 -20 -7h-18zM346 -14c-176 0 -270 95 -270 248v244c0 152 93 246 270 246c154 0 229 -60 262 -174
c4 -10 1 -13 -8 -17l-19 -6c-9 -3 -13 -2 -17 8c-29 99 -89 146 -218 146c-149 0 -223 -77 -223 -202v-245c0 -128 77 -205 223 -205c145 0 223 77 223 198v87h-214c-9 0 -12 4 -12 13v18c0 9 3 13 12 13h247c10 0 13 -4 13 -14v-117c0 -146 -94 -241 -269 -241z" />
    <glyph glyph-name="Gcircumflex" unicode="&#x11d;" horiz-adv-x="683" 
d="M192 774c-11 0 -11 5 -6 10l133 112c11 11 13 12 24 12h6c10 0 12 -1 23 -12l133 -112c5 -5 5 -10 -6 -10h-19c-10 0 -14 1 -20 7l-115 95l-115 -95c-7 -6 -10 -7 -20 -7h-18zM346 -14c-176 0 -270 95 -270 248v244c0 152 93 246 270 246c154 0 229 -60 262 -174
c4 -10 1 -13 -8 -17l-19 -6c-9 -3 -13 -2 -17 8c-29 99 -89 146 -218 146c-149 0 -223 -77 -223 -202v-245c0 -128 77 -205 223 -205c145 0 223 77 223 198v87h-214c-9 0 -12 4 -12 13v18c0 9 3 13 12 13h247c10 0 13 -4 13 -14v-117c0 -146 -94 -241 -269 -241z" />
    <glyph glyph-name="uni0122" unicode="&#x122;" horiz-adv-x="683" 
d="M346 -14c-176 0 -270 95 -270 248v244c0 152 93 246 270 246c154 0 229 -60 262 -174c4 -10 1 -13 -8 -17l-19 -6c-9 -3 -13 -2 -17 8c-29 99 -89 146 -218 146c-149 0 -223 -77 -223 -202v-245c0 -128 77 -205 223 -205c145 0 223 77 223 198v87h-214c-9 0 -12 4 -12 13
v18c0 9 3 13 12 13h247c10 0 13 -4 13 -14v-117c0 -146 -94 -241 -269 -241zM313 -246c-8 0 -10 3 -9 10l40 146c1 10 5 12 15 12h18c11 0 14 -4 11 -13l-47 -143c-3 -9 -6 -12 -15 -12h-13z" />
    <glyph glyph-name="uni0122" unicode="&#x123;" horiz-adv-x="683" 
d="M346 -14c-176 0 -270 95 -270 248v244c0 152 93 246 270 246c154 0 229 -60 262 -174c4 -10 1 -13 -8 -17l-19 -6c-9 -3 -13 -2 -17 8c-29 99 -89 146 -218 146c-149 0 -223 -77 -223 -202v-245c0 -128 77 -205 223 -205c145 0 223 77 223 198v87h-214c-9 0 -12 4 -12 13
v18c0 9 3 13 12 13h247c10 0 13 -4 13 -14v-117c0 -146 -94 -241 -269 -241zM313 -246c-8 0 -10 3 -9 10l40 146c1 10 5 12 15 12h18c11 0 14 -4 11 -13l-47 -143c-3 -9 -6 -12 -15 -12h-13z" />
    <glyph glyph-name="Gdotaccent" unicode="&#x120;" horiz-adv-x="683" 
d="M343 806c-18 0 -23 5 -23 24v5c0 19 5 24 23 24h5c18 0 24 -5 24 -24v-5c0 -18 -6 -24 -24 -24h-5zM346 -14c-176 0 -270 95 -270 248v244c0 152 93 246 270 246c154 0 229 -60 262 -174c4 -10 1 -13 -8 -17l-19 -6c-9 -3 -13 -2 -17 8c-29 99 -89 146 -218 146
c-149 0 -223 -77 -223 -202v-245c0 -128 77 -205 223 -205c145 0 223 77 223 198v87h-214c-9 0 -12 4 -12 13v18c0 9 3 13 12 13h247c10 0 13 -4 13 -14v-117c0 -146 -94 -241 -269 -241z" />
    <glyph glyph-name="Gdotaccent" unicode="&#x121;" horiz-adv-x="683" 
d="M343 806c-18 0 -23 5 -23 24v5c0 19 5 24 23 24h5c18 0 24 -5 24 -24v-5c0 -18 -6 -24 -24 -24h-5zM346 -14c-176 0 -270 95 -270 248v244c0 152 93 246 270 246c154 0 229 -60 262 -174c4 -10 1 -13 -8 -17l-19 -6c-9 -3 -13 -2 -17 8c-29 99 -89 146 -218 146
c-149 0 -223 -77 -223 -202v-245c0 -128 77 -205 223 -205c145 0 223 77 223 198v87h-214c-9 0 -12 4 -12 13v18c0 9 3 13 12 13h247c10 0 13 -4 13 -14v-117c0 -146 -94 -241 -269 -241z" />
    <glyph glyph-name="H" unicode="H" horiz-adv-x="710" 
d="M110 0c-9 0 -12 3 -12 13v684c0 10 3 13 12 13h22c9 0 12 -3 12 -13v-315h422v315c0 10 3 13 13 13h21c9 0 13 -3 13 -13v-684c0 -10 -4 -13 -13 -13h-21c-10 0 -13 3 -13 13v325h-422v-325c0 -10 -3 -13 -12 -13h-22z" />
    <glyph glyph-name="H" unicode="h" horiz-adv-x="710" 
d="M110 0c-9 0 -12 3 -12 13v684c0 10 3 13 12 13h22c9 0 12 -3 12 -13v-315h422v315c0 10 3 13 13 13h21c9 0 13 -3 13 -13v-684c0 -10 -4 -13 -13 -13h-21c-10 0 -13 3 -13 13v325h-422v-325c0 -10 -3 -13 -12 -13h-22z" />
    <glyph glyph-name="Hbar" unicode="&#x126;" horiz-adv-x="717" 
d="M113 0c-9 0 -12 3 -12 13v540h-67c-7 0 -9 2 -9 11v10c0 8 3 10 9 10h67v113c0 10 3 13 12 13h22c9 0 12 -3 12 -13v-113h422v113c0 10 3 13 13 13h21c10 0 13 -3 13 -13v-113h67c8 0 10 -2 10 -10v-10c0 -9 -2 -11 -10 -11h-67v-540c0 -10 -3 -13 -13 -13h-21
c-10 0 -13 3 -13 13v325h-422v-325c0 -10 -3 -13 -12 -13h-22zM569 382v171h-422v-171h422z" />
    <glyph glyph-name="Hbar" unicode="&#x127;" horiz-adv-x="717" 
d="M113 0c-9 0 -12 3 -12 13v540h-67c-7 0 -9 2 -9 11v10c0 8 3 10 9 10h67v113c0 10 3 13 12 13h22c9 0 12 -3 12 -13v-113h422v113c0 10 3 13 13 13h21c10 0 13 -3 13 -13v-113h67c8 0 10 -2 10 -10v-10c0 -9 -2 -11 -10 -11h-67v-540c0 -10 -3 -13 -13 -13h-21
c-10 0 -13 3 -13 13v325h-422v-325c0 -10 -3 -13 -12 -13h-22zM569 382v171h-422v-171h422z" />
    <glyph glyph-name="Hcircumflex" unicode="&#x124;" horiz-adv-x="710" 
d="M202 764c-11 0 -11 5 -6 10l133 112c11 11 13 12 24 12h6c10 0 12 -1 23 -12l133 -112c5 -5 5 -10 -6 -10h-19c-10 0 -14 1 -20 7l-115 95l-115 -95c-7 -6 -10 -7 -20 -7h-18zM110 0c-9 0 -12 3 -12 13v684c0 10 3 13 12 13h22c9 0 12 -3 12 -13v-315h422v315
c0 10 3 13 13 13h21c9 0 13 -3 13 -13v-684c0 -10 -4 -13 -13 -13h-21c-10 0 -13 3 -13 13v325h-422v-325c0 -10 -3 -13 -12 -13h-22z" />
    <glyph glyph-name="Hcircumflex" unicode="&#x125;" horiz-adv-x="710" 
d="M202 764c-11 0 -11 5 -6 10l133 112c11 11 13 12 24 12h6c10 0 12 -1 23 -12l133 -112c5 -5 5 -10 -6 -10h-19c-10 0 -14 1 -20 7l-115 95l-115 -95c-7 -6 -10 -7 -20 -7h-18zM110 0c-9 0 -12 3 -12 13v684c0 10 3 13 12 13h22c9 0 12 -3 12 -13v-315h422v315
c0 10 3 13 13 13h21c9 0 13 -3 13 -13v-684c0 -10 -4 -13 -13 -13h-21c-10 0 -13 3 -13 13v325h-422v-325c0 -10 -3 -13 -12 -13h-22z" />
    <glyph glyph-name="I" unicode="I" horiz-adv-x="242" 
d="M110 0c-9 0 -12 3 -12 13v684c0 10 3 13 12 13h22c9 0 12 -3 12 -13v-684c0 -10 -3 -13 -12 -13h-22z" />
    <glyph glyph-name="I" unicode="i" horiz-adv-x="242" 
d="M110 0c-9 0 -12 3 -12 13v684c0 10 3 13 12 13h22c9 0 12 -3 12 -13v-684c0 -10 -3 -13 -12 -13h-22z" />
    <glyph glyph-name="IJ" unicode="&#x132;" horiz-adv-x="840" 
d="M110 0c-9 0 -12 3 -12 13v684c0 10 3 13 12 13h22c9 0 12 -3 12 -13v-684c0 -10 -3 -13 -12 -13h-22zM512 -15c-138 0 -208 74 -232 197c-3 9 -1 14 8 17l19 7c9 3 14 1 17 -8c20 -108 73 -169 188 -169c123 0 189 72 189 188v481c0 9 3 12 13 12h21c10 0 13 -3 13 -12
v-481c0 -142 -83 -232 -236 -232z" />
    <glyph glyph-name="IJ" unicode="&#x133;" horiz-adv-x="840" 
d="M110 0c-9 0 -12 3 -12 13v684c0 10 3 13 12 13h22c9 0 12 -3 12 -13v-684c0 -10 -3 -13 -12 -13h-22zM512 -15c-138 0 -208 74 -232 197c-3 9 -1 14 8 17l19 7c9 3 14 1 17 -8c20 -108 73 -169 188 -169c123 0 189 72 189 188v481c0 9 3 12 13 12h21c10 0 13 -3 13 -12
v-481c0 -142 -83 -232 -236 -232z" />
    <glyph glyph-name="Iacute" unicode="&#xcd;" horiz-adv-x="242" 
d="M43 765c-8 -3 -12 -3 -16 1l-7 8c-5 7 -5 10 2 14l169 107c8 4 16 6 22 -2l10 -11c6 -7 6 -11 -2 -15zM110 0c-9 0 -12 3 -12 13v684c0 10 3 13 12 13h22c9 0 12 -3 12 -13v-684c0 -10 -3 -13 -12 -13h-22z" />
    <glyph glyph-name="Iacute" unicode="&#xed;" horiz-adv-x="242" 
d="M43 765c-8 -3 -12 -3 -16 1l-7 8c-5 7 -5 10 2 14l169 107c8 4 16 6 22 -2l10 -11c6 -7 6 -11 -2 -15zM110 0c-9 0 -12 3 -12 13v684c0 10 3 13 12 13h22c9 0 12 -3 12 -13v-684c0 -10 -3 -13 -12 -13h-22z" />
    <glyph glyph-name="Ibreve" unicode="&#x12c;" horiz-adv-x="242" 
d="M121 764c-80 0 -129 36 -150 112c-2 6 0 9 5 11l17 6c7 2 10 1 12 -5c17 -62 53 -90 116 -90c62 0 99 28 116 90c2 6 4 7 11 5l17 -6c6 -2 8 -5 6 -11c-22 -76 -70 -112 -150 -112zM110 0c-9 0 -12 3 -12 13v684c0 10 3 13 12 13h22c9 0 12 -3 12 -13v-684
c0 -10 -3 -13 -12 -13h-22z" />
    <glyph glyph-name="Ibreve" unicode="&#x12d;" horiz-adv-x="242" 
d="M121 764c-80 0 -129 36 -150 112c-2 6 0 9 5 11l17 6c7 2 10 1 12 -5c17 -62 53 -90 116 -90c62 0 99 28 116 90c2 6 4 7 11 5l17 -6c6 -2 8 -5 6 -11c-22 -76 -70 -112 -150 -112zM110 0c-9 0 -12 3 -12 13v684c0 10 3 13 12 13h22c9 0 12 -3 12 -13v-684
c0 -10 -3 -13 -12 -13h-22z" />
    <glyph glyph-name="Icircumflex" unicode="&#xce;" horiz-adv-x="242" 
d="M-33 764c-11 0 -11 5 -6 10l133 112c11 11 13 12 24 12h6c10 0 12 -1 23 -12l133 -112c5 -5 5 -10 -6 -10h-19c-10 0 -14 1 -20 7l-115 95l-115 -95c-7 -6 -10 -7 -20 -7h-18zM110 0c-9 0 -12 3 -12 13v684c0 10 3 13 12 13h22c9 0 12 -3 12 -13v-684
c0 -10 -3 -13 -12 -13h-22z" />
    <glyph glyph-name="Icircumflex" unicode="&#xee;" horiz-adv-x="242" 
d="M-33 764c-11 0 -11 5 -6 10l133 112c11 11 13 12 24 12h6c10 0 12 -1 23 -12l133 -112c5 -5 5 -10 -6 -10h-19c-10 0 -14 1 -20 7l-115 95l-115 -95c-7 -6 -10 -7 -20 -7h-18zM110 0c-9 0 -12 3 -12 13v684c0 10 3 13 12 13h22c9 0 12 -3 12 -13v-684
c0 -10 -3 -13 -12 -13h-22z" />
    <glyph glyph-name="Idieresis" unicode="&#xcf;" horiz-adv-x="242" 
d="M22 801c-17 0 -23 5 -23 22v7c0 17 6 23 23 23h6c19 0 23 -6 23 -23v-7c0 -17 -4 -22 -23 -22h-6zM214 801c-19 0 -24 5 -24 22v7c0 17 5 23 24 23h5c17 0 23 -6 23 -23v-7c0 -17 -6 -22 -23 -22h-5zM110 0c-9 0 -12 3 -12 13v684c0 10 3 13 12 13h22c9 0 12 -3 12 -13
v-684c0 -10 -3 -13 -12 -13h-22z" />
    <glyph glyph-name="Idieresis" unicode="&#xef;" horiz-adv-x="242" 
d="M22 801c-17 0 -23 5 -23 22v7c0 17 6 23 23 23h6c19 0 23 -6 23 -23v-7c0 -17 -4 -22 -23 -22h-6zM214 801c-19 0 -24 5 -24 22v7c0 17 5 23 24 23h5c17 0 23 -6 23 -23v-7c0 -17 -6 -22 -23 -22h-5zM110 0c-9 0 -12 3 -12 13v684c0 10 3 13 12 13h22c9 0 12 -3 12 -13
v-684c0 -10 -3 -13 -12 -13h-22z" />
    <glyph glyph-name="Idotaccent" unicode="&#x130;" horiz-adv-x="242" 
d="M118 796c-18 0 -23 5 -23 24v5c0 19 5 24 23 24h5c18 0 24 -5 24 -24v-5c0 -18 -6 -24 -24 -24h-5zM110 0c-9 0 -12 3 -12 13v684c0 10 3 13 12 13h22c9 0 12 -3 12 -13v-684c0 -10 -3 -13 -12 -13h-22z" />
    <glyph glyph-name="Igrave" unicode="&#xcc;" horiz-adv-x="242" 
d="M20 867c-8 4 -8 8 -2 15l10 11c7 8 14 6 22 2l173 -102c6 -4 7 -7 1 -14l-7 -8c-4 -5 -8 -5 -16 -1zM110 0c-9 0 -12 3 -12 13v684c0 10 3 13 12 13h22c9 0 12 -3 12 -13v-684c0 -10 -3 -13 -12 -13h-22z" />
    <glyph glyph-name="Igrave" unicode="&#xec;" horiz-adv-x="242" 
d="M20 867c-8 4 -8 8 -2 15l10 11c7 8 14 6 22 2l173 -102c6 -4 7 -7 1 -14l-7 -8c-4 -5 -8 -5 -16 -1zM110 0c-9 0 -12 3 -12 13v684c0 10 3 13 12 13h22c9 0 12 -3 12 -13v-684c0 -10 -3 -13 -12 -13h-22z" />
    <glyph glyph-name="Imacron" unicode="&#x12a;" horiz-adv-x="242" 
d="M2 806c-9 0 -11 3 -11 12v10c0 9 3 11 11 11h238c8 0 11 -2 11 -11v-10c0 -9 -3 -12 -11 -12h-238zM110 0c-9 0 -12 3 -12 13v684c0 10 3 13 12 13h22c9 0 12 -3 12 -13v-684c0 -10 -3 -13 -12 -13h-22z" />
    <glyph glyph-name="Imacron" unicode="&#x12b;" horiz-adv-x="242" 
d="M2 806c-9 0 -11 3 -11 12v10c0 9 3 11 11 11h238c8 0 11 -2 11 -11v-10c0 -9 -3 -12 -11 -12h-238zM110 0c-9 0 -12 3 -12 13v684c0 10 3 13 12 13h22c9 0 12 -3 12 -13v-684c0 -10 -3 -13 -12 -13h-22z" />
    <glyph glyph-name="Iogonek" unicode="&#x12e;" horiz-adv-x="242" 
d="M114 -247c-30 0 -60 12 -71 47c-18 53 6 118 66 201c-9 0 -11 4 -11 12v684c0 10 3 13 12 13h22c9 0 12 -3 12 -13v-684c0 -5 -1 -8 -3 -11c-55 -78 -75 -141 -59 -183c7 -22 27 -31 45 -31c24 0 46 10 63 28c3 2 6 2 8 -3l5 -14c2 -5 2 -7 -1 -10
c-25 -24 -53 -36 -88 -36z" />
    <glyph glyph-name="Iogonek" unicode="&#x12f;" horiz-adv-x="242" 
d="M114 -247c-30 0 -60 12 -71 47c-18 53 6 118 66 201c-9 0 -11 4 -11 12v684c0 10 3 13 12 13h22c9 0 12 -3 12 -13v-684c0 -5 -1 -8 -3 -11c-55 -78 -75 -141 -59 -183c7 -22 27 -31 45 -31c24 0 46 10 63 28c3 2 6 2 8 -3l5 -14c2 -5 2 -7 -1 -10
c-25 -24 -53 -36 -88 -36z" />
    <glyph glyph-name="Itilde" unicode="&#x128;" horiz-adv-x="242" 
d="M-27 773c-6 0 -8 2 -8 8c0 60 26 94 75 94c73 0 98 -72 156 -72c33 0 48 26 48 64c0 6 1 8 8 8h13c6 0 8 -2 8 -8c0 -59 -23 -94 -74 -94c-71 0 -97 72 -156 72c-31 0 -48 -26 -48 -64c0 -6 -2 -8 -8 -8h-14zM110 0c-9 0 -12 3 -12 13v684c0 10 3 13 12 13h22
c9 0 12 -3 12 -13v-684c0 -10 -3 -13 -12 -13h-22z" />
    <glyph glyph-name="Itilde" unicode="&#x129;" horiz-adv-x="242" 
d="M-27 773c-6 0 -8 2 -8 8c0 60 26 94 75 94c73 0 98 -72 156 -72c33 0 48 26 48 64c0 6 1 8 8 8h13c6 0 8 -2 8 -8c0 -59 -23 -94 -74 -94c-71 0 -97 72 -156 72c-31 0 -48 -26 -48 -64c0 -6 -2 -8 -8 -8h-14zM110 0c-9 0 -12 3 -12 13v684c0 10 3 13 12 13h22
c9 0 12 -3 12 -13v-684c0 -10 -3 -13 -12 -13h-22z" />
    <glyph glyph-name="J" unicode="J" horiz-adv-x="598" 
d="M270 -15c-138 0 -208 74 -232 197c-3 9 -1 14 8 17l19 7c9 3 14 1 17 -8c20 -108 73 -169 188 -169c123 0 189 72 189 188v481c0 9 3 12 13 12h21c10 0 13 -3 13 -12v-481c0 -142 -83 -232 -236 -232z" />
    <glyph glyph-name="J" unicode="j" horiz-adv-x="598" 
d="M270 -15c-138 0 -208 74 -232 197c-3 9 -1 14 8 17l19 7c9 3 14 1 17 -8c20 -108 73 -169 188 -169c123 0 189 72 189 188v481c0 9 3 12 13 12h21c10 0 13 -3 13 -12v-481c0 -142 -83 -232 -236 -232z" />
    <glyph glyph-name="Jcircumflex" unicode="&#x134;" horiz-adv-x="598" 
d="M329 764c-11 0 -11 5 -6 10l133 112c11 11 13 12 24 12h6c10 0 12 -1 23 -12l133 -112c5 -5 5 -10 -6 -10h-19c-10 0 -14 1 -20 7l-115 95l-115 -95c-7 -6 -10 -7 -20 -7h-18zM270 -15c-138 0 -208 74 -232 197c-3 9 -1 14 8 17l19 7c9 3 14 1 17 -8
c20 -108 73 -169 188 -169c123 0 189 72 189 188v481c0 9 3 12 13 12h21c10 0 13 -3 13 -12v-481c0 -142 -83 -232 -236 -232z" />
    <glyph glyph-name="Jcircumflex" unicode="&#x135;" horiz-adv-x="598" 
d="M329 764c-11 0 -11 5 -6 10l133 112c11 11 13 12 24 12h6c10 0 12 -1 23 -12l133 -112c5 -5 5 -10 -6 -10h-19c-10 0 -14 1 -20 7l-115 95l-115 -95c-7 -6 -10 -7 -20 -7h-18zM270 -15c-138 0 -208 74 -232 197c-3 9 -1 14 8 17l19 7c9 3 14 1 17 -8
c20 -108 73 -169 188 -169c123 0 189 72 189 188v481c0 9 3 12 13 12h21c10 0 13 -3 13 -12v-481c0 -142 -83 -232 -236 -232z" />
    <glyph glyph-name="K" unicode="K" horiz-adv-x="631" 
d="M110 0c-9 0 -12 3 -12 13v684c0 10 3 13 12 13h22c9 0 12 -3 12 -13v-316h149l236 318c7 9 11 11 26 11h22c11 0 12 -6 7 -13l-243 -325c61 -14 97 -49 127 -110l127 -249c4 -7 2 -13 -7 -13h-20c-16 0 -21 2 -26 11l-116 233c-34 66 -71 95 -155 95h-127v-326
c0 -10 -3 -13 -12 -13h-22z" />
    <glyph glyph-name="K" unicode="k" horiz-adv-x="631" 
d="M110 0c-9 0 -12 3 -12 13v684c0 10 3 13 12 13h22c9 0 12 -3 12 -13v-316h149l236 318c7 9 11 11 26 11h22c11 0 12 -6 7 -13l-243 -325c61 -14 97 -49 127 -110l127 -249c4 -7 2 -13 -7 -13h-20c-16 0 -21 2 -26 11l-116 233c-34 66 -71 95 -155 95h-127v-326
c0 -10 -3 -13 -12 -13h-22z" />
    <glyph glyph-name="uni0136" unicode="&#x136;" horiz-adv-x="631" 
d="M110 0c-9 0 -12 3 -12 13v684c0 10 3 13 12 13h22c9 0 12 -3 12 -13v-316h149l236 318c7 9 11 11 26 11h22c11 0 12 -6 7 -13l-243 -325c61 -14 97 -49 127 -110l127 -249c4 -7 2 -13 -7 -13h-20c-16 0 -21 2 -26 11l-116 233c-34 66 -71 95 -155 95h-127v-326
c0 -10 -3 -13 -12 -13h-22zM293 -246c-8 0 -10 3 -9 10l40 146c1 10 5 12 15 12h18c11 0 14 -4 11 -13l-47 -143c-3 -9 -6 -12 -15 -12h-13z" />
    <glyph glyph-name="uni0136" unicode="&#x137;" horiz-adv-x="631" 
d="M110 0c-9 0 -12 3 -12 13v684c0 10 3 13 12 13h22c9 0 12 -3 12 -13v-316h149l236 318c7 9 11 11 26 11h22c11 0 12 -6 7 -13l-243 -325c61 -14 97 -49 127 -110l127 -249c4 -7 2 -13 -7 -13h-20c-16 0 -21 2 -26 11l-116 233c-34 66 -71 95 -155 95h-127v-326
c0 -10 -3 -13 -12 -13h-22zM293 -246c-8 0 -10 3 -9 10l40 146c1 10 5 12 15 12h18c11 0 14 -4 11 -13l-47 -143c-3 -9 -6 -12 -15 -12h-13z" />
    <glyph glyph-name="L" unicode="L" horiz-adv-x="549" 
d="M110 0c-9 0 -12 3 -12 13v684c0 10 3 13 12 13h22c9 0 12 -3 12 -13v-654h364c9 0 12 -3 12 -12v-18c0 -10 -3 -13 -12 -13h-398z" />
    <glyph glyph-name="L" unicode="l" horiz-adv-x="549" 
d="M110 0c-9 0 -12 3 -12 13v684c0 10 3 13 12 13h22c9 0 12 -3 12 -13v-654h364c9 0 12 -3 12 -12v-18c0 -10 -3 -13 -12 -13h-398z" />
    <glyph glyph-name="Lacute" unicode="&#x139;" horiz-adv-x="549" 
d="M43 765c-8 -3 -12 -3 -16 1l-7 8c-5 7 -5 10 2 14l169 107c8 4 16 6 22 -2l10 -11c6 -7 6 -11 -2 -15zM110 0c-9 0 -12 3 -12 13v684c0 10 3 13 12 13h22c9 0 12 -3 12 -13v-654h364c9 0 12 -3 12 -12v-18c0 -10 -3 -13 -12 -13h-398z" />
    <glyph glyph-name="Lacute" unicode="&#x13a;" horiz-adv-x="549" 
d="M43 765c-8 -3 -12 -3 -16 1l-7 8c-5 7 -5 10 2 14l169 107c8 4 16 6 22 -2l10 -11c6 -7 6 -11 -2 -15zM110 0c-9 0 -12 3 -12 13v684c0 10 3 13 12 13h22c9 0 12 -3 12 -13v-654h364c9 0 12 -3 12 -12v-18c0 -10 -3 -13 -12 -13h-398z" />
    <glyph glyph-name="Lcaron" unicode="&#x13d;" horiz-adv-x="550" 
d="M142 0c-10 0 -13 3 -13 13v684c0 10 3 13 13 13h21c9 0 12 -3 12 -13v-654h364c9 0 13 -3 13 -12v-18c0 -10 -4 -13 -13 -13h-397zM349 488c-7 0 -9 2 -8 10l41 200c1 10 4 12 14 12h18c11 0 14 -4 11 -13l-50 -197c-3 -9 -5 -12 -14 -12h-12z" />
    <glyph glyph-name="Lcaron" unicode="&#x13e;" horiz-adv-x="550" 
d="M142 0c-10 0 -13 3 -13 13v684c0 10 3 13 13 13h21c9 0 12 -3 12 -13v-654h364c9 0 13 -3 13 -12v-18c0 -10 -4 -13 -13 -13h-397zM349 488c-7 0 -9 2 -8 10l41 200c1 10 4 12 14 12h18c11 0 14 -4 11 -13l-50 -197c-3 -9 -5 -12 -14 -12h-12z" />
    <glyph glyph-name="uni013B" unicode="&#x13b;" horiz-adv-x="549" 
d="M110 0c-9 0 -12 3 -12 13v684c0 10 3 13 12 13h22c9 0 12 -3 12 -13v-654h364c9 0 12 -3 12 -12v-18c0 -10 -3 -13 -12 -13h-398zM259 -246c-8 0 -10 3 -9 10l40 146c1 10 5 12 15 12h18c11 0 14 -4 11 -13l-47 -143c-3 -9 -6 -12 -15 -12h-13z" />
    <glyph glyph-name="uni013B" unicode="&#x13c;" horiz-adv-x="549" 
d="M110 0c-9 0 -12 3 -12 13v684c0 10 3 13 12 13h22c9 0 12 -3 12 -13v-654h364c9 0 12 -3 12 -12v-18c0 -10 -3 -13 -12 -13h-398zM259 -246c-8 0 -10 3 -9 10l40 146c1 10 5 12 15 12h18c11 0 14 -4 11 -13l-47 -143c-3 -9 -6 -12 -15 -12h-13z" />
    <glyph glyph-name="Ldot" unicode="&#x13f;" horiz-adv-x="550" 
d="M110 0c-9 0 -12 3 -12 13v684c0 10 3 13 12 13h22c9 0 12 -3 12 -13v-654h364c9 0 12 -3 12 -12v-18c0 -10 -3 -13 -12 -13h-398zM383 322c-23 0 -29 5 -29 29v5c0 23 6 29 29 29h5c22 0 29 -6 29 -29v-5c0 -23 -7 -29 -29 -29h-5z" />
    <glyph glyph-name="Ldot" unicode="&#x140;" horiz-adv-x="550" 
d="M110 0c-9 0 -12 3 -12 13v684c0 10 3 13 12 13h22c9 0 12 -3 12 -13v-654h364c9 0 12 -3 12 -12v-18c0 -10 -3 -13 -12 -13h-398zM383 322c-23 0 -29 5 -29 29v5c0 23 6 29 29 29h5c22 0 29 -6 29 -29v-5c0 -23 -7 -29 -29 -29h-5z" />
    <glyph glyph-name="Lslash" unicode="&#x141;" horiz-adv-x="575" 
d="M136 0c-10 0 -13 3 -13 13v285l-90 -44c-6 -3 -9 -3 -13 5l-7 14c-3 6 -1 11 4 13l106 52v359c0 10 3 13 13 13h21c10 0 13 -3 13 -13v-338l235 114c8 4 11 2 15 -4l6 -14c3 -6 2 -10 -4 -13l-252 -122v-277h363c10 0 13 -3 13 -12v-18c0 -10 -3 -13 -13 -13h-397z" />
    <glyph glyph-name="Lslash" unicode="&#x142;" horiz-adv-x="575" 
d="M136 0c-10 0 -13 3 -13 13v285l-90 -44c-6 -3 -9 -3 -13 5l-7 14c-3 6 -1 11 4 13l106 52v359c0 10 3 13 13 13h21c10 0 13 -3 13 -13v-338l235 114c8 4 11 2 15 -4l6 -14c3 -6 2 -10 -4 -13l-252 -122v-277h363c10 0 13 -3 13 -12v-18c0 -10 -3 -13 -13 -13h-397z" />
    <glyph glyph-name="M" unicode="M" horiz-adv-x="827" 
d="M110 0c-9 0 -12 3 -12 13v684c0 10 3 13 12 13h17c11 0 14 -3 19 -11l268 -473l265 472c5 9 9 12 19 12h18c10 0 13 -3 13 -13v-684c0 -10 -3 -13 -13 -13h-19c-10 0 -13 3 -13 13l1 458c0 53 2 109 7 167h-3c-24 -51 -48 -96 -74 -142l-178 -316c-5 -8 -8 -11 -16 -11
h-14c-9 0 -12 2 -17 11l-180 320c-27 45 -48 88 -72 139h-2c4 -59 6 -113 6 -168v-458c0 -10 -3 -13 -13 -13h-19z" />
    <glyph glyph-name="M" unicode="m" horiz-adv-x="827" 
d="M110 0c-9 0 -12 3 -12 13v684c0 10 3 13 12 13h17c11 0 14 -3 19 -11l268 -473l265 472c5 9 9 12 19 12h18c10 0 13 -3 13 -13v-684c0 -10 -3 -13 -13 -13h-19c-10 0 -13 3 -13 13l1 458c0 53 2 109 7 167h-3c-24 -51 -48 -96 -74 -142l-178 -316c-5 -8 -8 -11 -16 -11
h-14c-9 0 -12 2 -17 11l-180 320c-27 45 -48 88 -72 139h-2c4 -59 6 -113 6 -168v-458c0 -10 -3 -13 -13 -13h-19z" />
    <glyph glyph-name="N" unicode="N" horiz-adv-x="719" 
d="M110 0c-9 0 -12 3 -12 13v684c0 10 3 13 12 13h21c8 0 11 -4 14 -7l345 -493c37 -53 67 -109 91 -142h3c0 43 -7 110 -7 179v451c0 9 3 12 12 12h20c10 0 13 -3 13 -13v-684c0 -10 -3 -13 -13 -13h-20c-7 0 -10 1 -15 8l-354 506c-33 47 -60 101 -81 130h-2
c0 -38 6 -102 6 -165v-466c0 -10 -3 -13 -13 -13h-20z" />
    <glyph glyph-name="N" unicode="n" horiz-adv-x="719" 
d="M110 0c-9 0 -12 3 -12 13v684c0 10 3 13 12 13h21c8 0 11 -4 14 -7l345 -493c37 -53 67 -109 91 -142h3c0 43 -7 110 -7 179v451c0 9 3 12 12 12h20c10 0 13 -3 13 -13v-684c0 -10 -3 -13 -13 -13h-20c-7 0 -10 1 -15 8l-354 506c-33 47 -60 101 -81 130h-2
c0 -38 6 -102 6 -165v-466c0 -10 -3 -13 -13 -13h-20z" />
    <glyph glyph-name="Nacute" unicode="&#x143;" horiz-adv-x="719" 
d="M282 765c-8 -3 -12 -3 -16 1l-7 8c-5 7 -5 10 2 14l169 107c8 4 16 6 22 -2l10 -11c6 -7 6 -11 -2 -15zM110 0c-9 0 -12 3 -12 13v684c0 10 3 13 12 13h21c8 0 11 -4 14 -7l345 -493c37 -53 67 -109 91 -142h3c0 43 -7 110 -7 179v451c0 9 3 12 12 12h20
c10 0 13 -3 13 -13v-684c0 -10 -3 -13 -13 -13h-20c-7 0 -10 1 -15 8l-354 506c-33 47 -60 101 -81 130h-2c0 -38 6 -102 6 -165v-466c0 -10 -3 -13 -13 -13h-20z" />
    <glyph glyph-name="Nacute" unicode="&#x144;" horiz-adv-x="719" 
d="M282 765c-8 -3 -12 -3 -16 1l-7 8c-5 7 -5 10 2 14l169 107c8 4 16 6 22 -2l10 -11c6 -7 6 -11 -2 -15zM110 0c-9 0 -12 3 -12 13v684c0 10 3 13 12 13h21c8 0 11 -4 14 -7l345 -493c37 -53 67 -109 91 -142h3c0 43 -7 110 -7 179v451c0 9 3 12 12 12h20
c10 0 13 -3 13 -13v-684c0 -10 -3 -13 -13 -13h-20c-7 0 -10 1 -15 8l-354 506c-33 47 -60 101 -81 130h-2c0 -38 6 -102 6 -165v-466c0 -10 -3 -13 -13 -13h-20z" />
    <glyph glyph-name="Ncaron" unicode="&#x147;" horiz-adv-x="719" 
d="M357 764c-11 0 -13 1 -24 12l-132 111c-5 4 -6 11 5 11h18c10 0 13 -1 20 -7l115 -95l115 95c6 6 10 7 20 7h19c11 0 10 -6 5 -11l-132 -111c-11 -11 -13 -12 -23 -12h-6zM110 0c-9 0 -12 3 -12 13v684c0 10 3 13 12 13h21c8 0 11 -4 14 -7l345 -493
c37 -53 67 -109 91 -142h3c0 43 -7 110 -7 179v451c0 9 3 12 12 12h20c10 0 13 -3 13 -13v-684c0 -10 -3 -13 -13 -13h-20c-7 0 -10 1 -15 8l-354 506c-33 47 -60 101 -81 130h-2c0 -38 6 -102 6 -165v-466c0 -10 -3 -13 -13 -13h-20z" />
    <glyph glyph-name="Ncaron" unicode="&#x148;" horiz-adv-x="719" 
d="M357 764c-11 0 -13 1 -24 12l-132 111c-5 4 -6 11 5 11h18c10 0 13 -1 20 -7l115 -95l115 95c6 6 10 7 20 7h19c11 0 10 -6 5 -11l-132 -111c-11 -11 -13 -12 -23 -12h-6zM110 0c-9 0 -12 3 -12 13v684c0 10 3 13 12 13h21c8 0 11 -4 14 -7l345 -493
c37 -53 67 -109 91 -142h3c0 43 -7 110 -7 179v451c0 9 3 12 12 12h20c10 0 13 -3 13 -13v-684c0 -10 -3 -13 -13 -13h-20c-7 0 -10 1 -15 8l-354 506c-33 47 -60 101 -81 130h-2c0 -38 6 -102 6 -165v-466c0 -10 -3 -13 -13 -13h-20z" />
    <glyph glyph-name="uni0145" unicode="&#x145;" horiz-adv-x="719" 
d="M110 0c-9 0 -12 3 -12 13v684c0 10 3 13 12 13h21c8 0 11 -4 14 -7l345 -493c37 -53 67 -109 91 -142h3c0 43 -7 110 -7 179v451c0 9 3 12 12 12h20c10 0 13 -3 13 -13v-684c0 -10 -3 -13 -13 -13h-20c-7 0 -10 1 -15 8l-354 506c-33 47 -60 101 -81 130h-2
c0 -38 6 -102 6 -165v-466c0 -10 -3 -13 -13 -13h-20zM313 -246c-8 0 -10 3 -9 10l40 146c1 10 5 12 15 12h18c11 0 14 -4 11 -13l-47 -143c-3 -9 -6 -12 -15 -12h-13z" />
    <glyph glyph-name="uni0145" unicode="&#x146;" horiz-adv-x="719" 
d="M110 0c-9 0 -12 3 -12 13v684c0 10 3 13 12 13h21c8 0 11 -4 14 -7l345 -493c37 -53 67 -109 91 -142h3c0 43 -7 110 -7 179v451c0 9 3 12 12 12h20c10 0 13 -3 13 -13v-684c0 -10 -3 -13 -13 -13h-20c-7 0 -10 1 -15 8l-354 506c-33 47 -60 101 -81 130h-2
c0 -38 6 -102 6 -165v-466c0 -10 -3 -13 -13 -13h-20zM313 -246c-8 0 -10 3 -9 10l40 146c1 10 5 12 15 12h18c11 0 14 -4 11 -13l-47 -143c-3 -9 -6 -12 -15 -12h-13z" />
    <glyph glyph-name="Eng" unicode="&#x14a;" horiz-adv-x="719" 
d="M400 -230c-9 0 -12 3 -12 12v17c0 9 3 12 12 12c114 0 177 67 177 178v16l-357 509c-33 47 -60 101 -81 130h-2c0 -33 6 -90 6 -148v-483c0 -10 -3 -13 -13 -13h-20c-9 0 -12 3 -12 13v684c0 10 3 13 12 13h21c8 0 11 -4 14 -7l345 -493c37 -53 67 -109 91 -142h3
c0 43 -7 110 -7 179v451c0 9 3 12 12 12h20c10 0 13 -3 13 -13v-710c0 -136 -79 -217 -222 -217z" />
    <glyph glyph-name="Eng" unicode="&#x14b;" horiz-adv-x="719" 
d="M400 -230c-9 0 -12 3 -12 12v17c0 9 3 12 12 12c114 0 177 67 177 178v16l-357 509c-33 47 -60 101 -81 130h-2c0 -33 6 -90 6 -148v-483c0 -10 -3 -13 -13 -13h-20c-9 0 -12 3 -12 13v684c0 10 3 13 12 13h21c8 0 11 -4 14 -7l345 -493c37 -53 67 -109 91 -142h3
c0 43 -7 110 -7 179v451c0 9 3 12 12 12h20c10 0 13 -3 13 -13v-710c0 -136 -79 -217 -222 -217z" />
    <glyph glyph-name="Ntilde" unicode="&#xd1;" horiz-adv-x="719" 
d="M212 773c-6 0 -8 2 -8 8c0 60 26 94 75 94c73 0 98 -72 156 -72c33 0 48 26 48 64c0 6 1 8 8 8h13c6 0 8 -2 8 -8c0 -59 -23 -94 -74 -94c-71 0 -97 72 -156 72c-31 0 -48 -26 -48 -64c0 -6 -2 -8 -8 -8h-14zM110 0c-9 0 -12 3 -12 13v684c0 10 3 13 12 13h21
c8 0 11 -4 14 -7l345 -493c37 -53 67 -109 91 -142h3c0 43 -7 110 -7 179v451c0 9 3 12 12 12h20c10 0 13 -3 13 -13v-684c0 -10 -3 -13 -13 -13h-20c-7 0 -10 1 -15 8l-354 506c-33 47 -60 101 -81 130h-2c0 -38 6 -102 6 -165v-466c0 -10 -3 -13 -13 -13h-20z" />
    <glyph glyph-name="Ntilde" unicode="&#xf1;" horiz-adv-x="719" 
d="M212 773c-6 0 -8 2 -8 8c0 60 26 94 75 94c73 0 98 -72 156 -72c33 0 48 26 48 64c0 6 1 8 8 8h13c6 0 8 -2 8 -8c0 -59 -23 -94 -74 -94c-71 0 -97 72 -156 72c-31 0 -48 -26 -48 -64c0 -6 -2 -8 -8 -8h-14zM110 0c-9 0 -12 3 -12 13v684c0 10 3 13 12 13h21
c8 0 11 -4 14 -7l345 -493c37 -53 67 -109 91 -142h3c0 43 -7 110 -7 179v451c0 9 3 12 12 12h20c10 0 13 -3 13 -13v-684c0 -10 -3 -13 -13 -13h-20c-7 0 -10 1 -15 8l-354 506c-33 47 -60 101 -81 130h-2c0 -38 6 -102 6 -165v-466c0 -10 -3 -13 -13 -13h-20z" />
    <glyph glyph-name="O" unicode="O" horiz-adv-x="691" 
d="M346 -14c-176 0 -270 94 -270 247v244c0 153 94 247 270 247c175 0 269 -94 269 -247v-244c0 -153 -94 -247 -269 -247zM346 29c145 0 223 77 223 205v242c0 128 -78 205 -223 205c-146 0 -223 -77 -223 -205v-242c0 -128 77 -205 223 -205z" />
    <glyph glyph-name="O" unicode="o" horiz-adv-x="691" 
d="M346 -14c-176 0 -270 94 -270 247v244c0 153 94 247 270 247c175 0 269 -94 269 -247v-244c0 -153 -94 -247 -269 -247zM346 29c145 0 223 77 223 205v242c0 128 -78 205 -223 205c-146 0 -223 -77 -223 -205v-242c0 -128 77 -205 223 -205z" />
    <glyph glyph-name="Oacute" unicode="&#xd3;" horiz-adv-x="691" 
d="M268 775c-8 -3 -12 -3 -16 1l-7 8c-5 7 -5 10 2 14l169 107c8 4 16 6 22 -2l10 -11c6 -7 6 -11 -2 -15zM346 -14c-176 0 -270 94 -270 247v244c0 153 94 247 270 247c175 0 269 -94 269 -247v-244c0 -153 -94 -247 -269 -247zM346 29c145 0 223 77 223 205v242
c0 128 -78 205 -223 205c-146 0 -223 -77 -223 -205v-242c0 -128 77 -205 223 -205z" />
    <glyph glyph-name="Oacute" unicode="&#xf3;" horiz-adv-x="691" 
d="M268 775c-8 -3 -12 -3 -16 1l-7 8c-5 7 -5 10 2 14l169 107c8 4 16 6 22 -2l10 -11c6 -7 6 -11 -2 -15zM346 -14c-176 0 -270 94 -270 247v244c0 153 94 247 270 247c175 0 269 -94 269 -247v-244c0 -153 -94 -247 -269 -247zM346 29c145 0 223 77 223 205v242
c0 128 -78 205 -223 205c-146 0 -223 -77 -223 -205v-242c0 -128 77 -205 223 -205z" />
    <glyph glyph-name="Obreve" unicode="&#x14e;" horiz-adv-x="691" 
d="M347 774c-80 0 -129 36 -150 112c-2 6 0 9 5 11l17 6c7 2 10 1 12 -5c17 -62 53 -90 116 -90c62 0 99 28 116 90c2 6 4 7 11 5l17 -6c6 -2 8 -5 6 -11c-22 -76 -70 -112 -150 -112zM346 -14c-176 0 -270 94 -270 247v244c0 153 94 247 270 247c175 0 269 -94 269 -247
v-244c0 -153 -94 -247 -269 -247zM346 29c145 0 223 77 223 205v242c0 128 -78 205 -223 205c-146 0 -223 -77 -223 -205v-242c0 -128 77 -205 223 -205z" />
    <glyph glyph-name="Obreve" unicode="&#x14f;" horiz-adv-x="691" 
d="M347 774c-80 0 -129 36 -150 112c-2 6 0 9 5 11l17 6c7 2 10 1 12 -5c17 -62 53 -90 116 -90c62 0 99 28 116 90c2 6 4 7 11 5l17 -6c6 -2 8 -5 6 -11c-22 -76 -70 -112 -150 -112zM346 -14c-176 0 -270 94 -270 247v244c0 153 94 247 270 247c175 0 269 -94 269 -247
v-244c0 -153 -94 -247 -269 -247zM346 29c145 0 223 77 223 205v242c0 128 -78 205 -223 205c-146 0 -223 -77 -223 -205v-242c0 -128 77 -205 223 -205z" />
    <glyph glyph-name="Ocircumflex" unicode="&#xd4;" horiz-adv-x="691" 
d="M193 774c-11 0 -11 5 -6 10l133 112c11 11 13 12 24 12h6c10 0 12 -1 23 -12l133 -112c5 -5 5 -10 -6 -10h-19c-10 0 -14 1 -20 7l-115 95l-115 -95c-7 -6 -10 -7 -20 -7h-18zM346 -14c-176 0 -270 94 -270 247v244c0 153 94 247 270 247c175 0 269 -94 269 -247v-244
c0 -153 -94 -247 -269 -247zM346 29c145 0 223 77 223 205v242c0 128 -78 205 -223 205c-146 0 -223 -77 -223 -205v-242c0 -128 77 -205 223 -205z" />
    <glyph glyph-name="Ocircumflex" unicode="&#xf4;" horiz-adv-x="691" 
d="M193 774c-11 0 -11 5 -6 10l133 112c11 11 13 12 24 12h6c10 0 12 -1 23 -12l133 -112c5 -5 5 -10 -6 -10h-19c-10 0 -14 1 -20 7l-115 95l-115 -95c-7 -6 -10 -7 -20 -7h-18zM346 -14c-176 0 -270 94 -270 247v244c0 153 94 247 270 247c175 0 269 -94 269 -247v-244
c0 -153 -94 -247 -269 -247zM346 29c145 0 223 77 223 205v242c0 128 -78 205 -223 205c-146 0 -223 -77 -223 -205v-242c0 -128 77 -205 223 -205z" />
    <glyph glyph-name="Odieresis" unicode="&#xd6;" horiz-adv-x="691" 
d="M247 811c-17 0 -23 5 -23 22v7c0 17 6 23 23 23h6c19 0 23 -6 23 -23v-7c0 -17 -4 -22 -23 -22h-6zM439 811c-19 0 -24 5 -24 22v7c0 17 5 23 24 23h5c17 0 23 -6 23 -23v-7c0 -17 -6 -22 -23 -22h-5zM346 -14c-176 0 -270 94 -270 247v244c0 153 94 247 270 247
c175 0 269 -94 269 -247v-244c0 -153 -94 -247 -269 -247zM346 29c145 0 223 77 223 205v242c0 128 -78 205 -223 205c-146 0 -223 -77 -223 -205v-242c0 -128 77 -205 223 -205z" />
    <glyph glyph-name="Odieresis" unicode="&#xf6;" horiz-adv-x="691" 
d="M247 811c-17 0 -23 5 -23 22v7c0 17 6 23 23 23h6c19 0 23 -6 23 -23v-7c0 -17 -4 -22 -23 -22h-6zM439 811c-19 0 -24 5 -24 22v7c0 17 5 23 24 23h5c17 0 23 -6 23 -23v-7c0 -17 -6 -22 -23 -22h-5zM346 -14c-176 0 -270 94 -270 247v244c0 153 94 247 270 247
c175 0 269 -94 269 -247v-244c0 -153 -94 -247 -269 -247zM346 29c145 0 223 77 223 205v242c0 128 -78 205 -223 205c-146 0 -223 -77 -223 -205v-242c0 -128 77 -205 223 -205z" />
    <glyph glyph-name="Ograve" unicode="&#xd2;" horiz-adv-x="691" 
d="M245 877c-8 4 -8 8 -2 15l10 11c7 8 14 6 22 2l173 -102c6 -4 7 -7 1 -14l-7 -8c-4 -5 -8 -5 -16 -1zM346 -14c-176 0 -270 94 -270 247v244c0 153 94 247 270 247c175 0 269 -94 269 -247v-244c0 -153 -94 -247 -269 -247zM346 29c145 0 223 77 223 205v242
c0 128 -78 205 -223 205c-146 0 -223 -77 -223 -205v-242c0 -128 77 -205 223 -205z" />
    <glyph glyph-name="Ograve" unicode="&#xf2;" horiz-adv-x="691" 
d="M245 877c-8 4 -8 8 -2 15l10 11c7 8 14 6 22 2l173 -102c6 -4 7 -7 1 -14l-7 -8c-4 -5 -8 -5 -16 -1zM346 -14c-176 0 -270 94 -270 247v244c0 153 94 247 270 247c175 0 269 -94 269 -247v-244c0 -153 -94 -247 -269 -247zM346 29c145 0 223 77 223 205v242
c0 128 -78 205 -223 205c-146 0 -223 -77 -223 -205v-242c0 -128 77 -205 223 -205z" />
    <glyph glyph-name="Ohungarumlaut" unicode="&#x150;" horiz-adv-x="691" 
d="M215 776c-8 2 -7 7 -3 12l101 113c6 7 11 10 20 8l15 -4c9 -3 10 -8 5 -14l-113 -113c-6 -6 -10 -7 -16 -5zM388 775c-8 2 -8 7 -3 12l103 114c6 7 11 10 20 8l16 -4c9 -3 10 -8 4 -14l-115 -114c-6 -6 -10 -8 -16 -5zM346 -14c-176 0 -270 94 -270 247v244
c0 153 94 247 270 247c175 0 269 -94 269 -247v-244c0 -153 -94 -247 -269 -247zM346 29c145 0 223 77 223 205v242c0 128 -78 205 -223 205c-146 0 -223 -77 -223 -205v-242c0 -128 77 -205 223 -205z" />
    <glyph glyph-name="Ohungarumlaut" unicode="&#x151;" horiz-adv-x="691" 
d="M215 776c-8 2 -7 7 -3 12l101 113c6 7 11 10 20 8l15 -4c9 -3 10 -8 5 -14l-113 -113c-6 -6 -10 -7 -16 -5zM388 775c-8 2 -8 7 -3 12l103 114c6 7 11 10 20 8l16 -4c9 -3 10 -8 4 -14l-115 -114c-6 -6 -10 -8 -16 -5zM346 -14c-176 0 -270 94 -270 247v244
c0 153 94 247 270 247c175 0 269 -94 269 -247v-244c0 -153 -94 -247 -269 -247zM346 29c145 0 223 77 223 205v242c0 128 -78 205 -223 205c-146 0 -223 -77 -223 -205v-242c0 -128 77 -205 223 -205z" />
    <glyph glyph-name="Omacron" unicode="&#x14c;" horiz-adv-x="691" 
d="M227 816c-9 0 -11 3 -11 12v10c0 9 3 11 11 11h238c8 0 11 -2 11 -11v-10c0 -9 -3 -12 -11 -12h-238zM346 -14c-176 0 -270 94 -270 247v244c0 153 94 247 270 247c175 0 269 -94 269 -247v-244c0 -153 -94 -247 -269 -247zM346 29c145 0 223 77 223 205v242
c0 128 -78 205 -223 205c-146 0 -223 -77 -223 -205v-242c0 -128 77 -205 223 -205z" />
    <glyph glyph-name="Omacron" unicode="&#x14d;" horiz-adv-x="691" 
d="M227 816c-9 0 -11 3 -11 12v10c0 9 3 11 11 11h238c8 0 11 -2 11 -11v-10c0 -9 -3 -12 -11 -12h-238zM346 -14c-176 0 -270 94 -270 247v244c0 153 94 247 270 247c175 0 269 -94 269 -247v-244c0 -153 -94 -247 -269 -247zM346 29c145 0 223 77 223 205v242
c0 128 -78 205 -223 205c-146 0 -223 -77 -223 -205v-242c0 -128 77 -205 223 -205z" />
    <glyph glyph-name="Oslash" unicode="&#xd8;" horiz-adv-x="691" 
d="M84 -43c-4 0 -5 2 -3 5l60 94c-43 42 -65 103 -65 177v244c0 153 94 247 270 247c80 0 142 -19 186 -56l49 77c3 4 5 4 10 4h26c4 0 5 -2 3 -5l-63 -98c38 -42 58 -99 58 -169v-244c0 -153 -94 -247 -269 -247c-75 0 -135 17 -179 49l-47 -73c-3 -5 -3 -5 -11 -5h-25z
M508 629c-38 34 -92 52 -162 52c-146 0 -223 -77 -223 -205v-242c0 -56 16 -102 47 -134zM346 29c145 0 223 77 223 205v242c0 51 -14 94 -40 125l-337 -527c37 -29 89 -45 154 -45z" />
    <glyph glyph-name="Oslash" unicode="&#xf8;" horiz-adv-x="691" 
d="M84 -43c-4 0 -5 2 -3 5l60 94c-43 42 -65 103 -65 177v244c0 153 94 247 270 247c80 0 142 -19 186 -56l49 77c3 4 5 4 10 4h26c4 0 5 -2 3 -5l-63 -98c38 -42 58 -99 58 -169v-244c0 -153 -94 -247 -269 -247c-75 0 -135 17 -179 49l-47 -73c-3 -5 -3 -5 -11 -5h-25z
M508 629c-38 34 -92 52 -162 52c-146 0 -223 -77 -223 -205v-242c0 -56 16 -102 47 -134zM346 29c145 0 223 77 223 205v242c0 51 -14 94 -40 125l-337 -527c37 -29 89 -45 154 -45z" />
    <glyph glyph-name="Oslashacute" unicode="&#x1fe;" horiz-adv-x="691" 
d="M274 775c-8 -3 -12 -3 -16 1l-7 8c-5 7 -5 10 2 14l169 107c8 4 16 6 22 -2l10 -11c6 -7 6 -11 -2 -15zM84 -43c-4 0 -5 2 -3 5l60 94c-43 42 -65 103 -65 177v244c0 153 94 247 270 247c80 0 142 -19 186 -56l49 77c3 4 5 4 10 4h26c4 0 5 -2 3 -5l-63 -98
c38 -42 58 -99 58 -169v-244c0 -153 -94 -247 -269 -247c-75 0 -135 17 -179 49l-47 -73c-3 -5 -3 -5 -11 -5h-25zM508 629c-38 34 -92 52 -162 52c-146 0 -223 -77 -223 -205v-242c0 -56 16 -102 47 -134zM346 29c145 0 223 77 223 205v242c0 51 -14 94 -40 125l-337 -527
c37 -29 89 -45 154 -45z" />
    <glyph glyph-name="Oslashacute" unicode="&#x1ff;" horiz-adv-x="691" 
d="M274 775c-8 -3 -12 -3 -16 1l-7 8c-5 7 -5 10 2 14l169 107c8 4 16 6 22 -2l10 -11c6 -7 6 -11 -2 -15zM84 -43c-4 0 -5 2 -3 5l60 94c-43 42 -65 103 -65 177v244c0 153 94 247 270 247c80 0 142 -19 186 -56l49 77c3 4 5 4 10 4h26c4 0 5 -2 3 -5l-63 -98
c38 -42 58 -99 58 -169v-244c0 -153 -94 -247 -269 -247c-75 0 -135 17 -179 49l-47 -73c-3 -5 -3 -5 -11 -5h-25zM508 629c-38 34 -92 52 -162 52c-146 0 -223 -77 -223 -205v-242c0 -56 16 -102 47 -134zM346 29c145 0 223 77 223 205v242c0 51 -14 94 -40 125l-337 -527
c37 -29 89 -45 154 -45z" />
    <glyph glyph-name="Otilde" unicode="&#xd5;" horiz-adv-x="691" 
d="M198 783c-6 0 -8 2 -8 8c0 60 26 94 75 94c73 0 98 -72 156 -72c33 0 48 26 48 64c0 6 1 8 8 8h13c6 0 8 -2 8 -8c0 -59 -23 -94 -74 -94c-71 0 -97 72 -156 72c-31 0 -48 -26 -48 -64c0 -6 -2 -8 -8 -8h-14zM346 -14c-176 0 -270 94 -270 247v244c0 153 94 247 270 247
c175 0 269 -94 269 -247v-244c0 -153 -94 -247 -269 -247zM346 29c145 0 223 77 223 205v242c0 128 -78 205 -223 205c-146 0 -223 -77 -223 -205v-242c0 -128 77 -205 223 -205z" />
    <glyph glyph-name="Otilde" unicode="&#xf5;" horiz-adv-x="691" 
d="M198 783c-6 0 -8 2 -8 8c0 60 26 94 75 94c73 0 98 -72 156 -72c33 0 48 26 48 64c0 6 1 8 8 8h13c6 0 8 -2 8 -8c0 -59 -23 -94 -74 -94c-71 0 -97 72 -156 72c-31 0 -48 -26 -48 -64c0 -6 -2 -8 -8 -8h-14zM346 -14c-176 0 -270 94 -270 247v244c0 153 94 247 270 247
c175 0 269 -94 269 -247v-244c0 -153 -94 -247 -269 -247zM346 29c145 0 223 77 223 205v242c0 128 -78 205 -223 205c-146 0 -223 -77 -223 -205v-242c0 -128 77 -205 223 -205z" />
    <glyph glyph-name="OE" unicode="&#x152;" horiz-adv-x="869" 
d="M346 -15c-176 0 -270 95 -270 248v244c0 153 94 248 270 248c39 0 79 -6 110 -15h331c9 0 12 -3 12 -13v-18c0 -9 -3 -12 -12 -12h-298v-286h254c9 0 13 -3 13 -13v-18c0 -9 -4 -12 -13 -12h-254v-295h312c9 0 12 -3 12 -12v-18c0 -10 -3 -13 -12 -13h-344
c-32 -9 -72 -15 -111 -15zM346 28c44 0 82 9 97 14v625c-18 6 -56 15 -97 15c-146 0 -223 -78 -223 -206v-242c0 -128 77 -206 223 -206z" />
    <glyph glyph-name="OE" unicode="&#x153;" horiz-adv-x="869" 
d="M346 -15c-176 0 -270 95 -270 248v244c0 153 94 248 270 248c39 0 79 -6 110 -15h331c9 0 12 -3 12 -13v-18c0 -9 -3 -12 -12 -12h-298v-286h254c9 0 13 -3 13 -13v-18c0 -9 -4 -12 -13 -12h-254v-295h312c9 0 12 -3 12 -12v-18c0 -10 -3 -13 -12 -13h-344
c-32 -9 -72 -15 -111 -15zM346 28c44 0 82 9 97 14v625c-18 6 -56 15 -97 15c-146 0 -223 -78 -223 -206v-242c0 -128 77 -206 223 -206z" />
    <glyph glyph-name="P" unicode="P" horiz-adv-x="649" 
d="M110 0c-9 0 -12 3 -12 13v684c0 10 3 13 12 13h270c135 0 221 -81 221 -218c0 -135 -86 -216 -221 -216h-236v-263c0 -10 -3 -13 -12 -13h-22zM375 320c110 0 177 63 177 172c0 110 -67 175 -177 175h-231v-347h231z" />
    <glyph glyph-name="P" unicode="p" horiz-adv-x="649" 
d="M110 0c-9 0 -12 3 -12 13v684c0 10 3 13 12 13h270c135 0 221 -81 221 -218c0 -135 -86 -216 -221 -216h-236v-263c0 -10 -3 -13 -12 -13h-22zM375 320c110 0 177 63 177 172c0 110 -67 175 -177 175h-231v-347h231z" />
    <glyph glyph-name="Thorn" unicode="&#xde;" horiz-adv-x="647" 
d="M110 0c-9 0 -12 3 -12 13v684c0 10 3 13 12 13h22c9 0 12 -3 12 -13v-110h226c140 0 231 -87 231 -228s-91 -226 -231 -226h-226v-120c0 -10 -3 -13 -12 -13h-22zM365 176c115 0 187 70 187 183c0 114 -72 184 -187 184h-221v-367h221z" />
    <glyph glyph-name="Thorn" unicode="&#xfe;" horiz-adv-x="647" 
d="M110 0c-9 0 -12 3 -12 13v684c0 10 3 13 12 13h22c9 0 12 -3 12 -13v-110h226c140 0 231 -87 231 -228s-91 -226 -231 -226h-226v-120c0 -10 -3 -13 -12 -13h-22zM365 176c115 0 187 70 187 183c0 114 -72 184 -187 184h-221v-367h221z" />
    <glyph glyph-name="Q" unicode="Q" horiz-adv-x="702" 
d="M518 33c-42 -31 -100 -47 -172 -47c-176 0 -270 94 -270 247v244c0 153 94 247 270 247c175 0 269 -94 269 -247v-244c0 -72 -21 -132 -62 -174l79 -94c6 -7 6 -11 -1 -18l-14 -11c-7 -6 -12 -6 -18 1zM346 29c145 0 223 77 223 205v242c0 128 -78 205 -223 205
c-146 0 -223 -77 -223 -205v-242c0 -128 77 -205 223 -205z" />
    <glyph glyph-name="Q" unicode="q" horiz-adv-x="702" 
d="M518 33c-42 -31 -100 -47 -172 -47c-176 0 -270 94 -270 247v244c0 153 94 247 270 247c175 0 269 -94 269 -247v-244c0 -72 -21 -132 -62 -174l79 -94c6 -7 6 -11 -1 -18l-14 -11c-7 -6 -12 -6 -18 1zM346 29c145 0 223 77 223 205v242c0 128 -78 205 -223 205
c-146 0 -223 -77 -223 -205v-242c0 -128 77 -205 223 -205z" />
    <glyph glyph-name="R" unicode="R" horiz-adv-x="672" 
d="M110 0c-9 0 -12 3 -12 13v684c0 10 3 13 12 13h287c127 0 204 -73 204 -200c0 -115 -69 -184 -177 -193c38 -16 61 -41 82 -82l113 -222c5 -7 3 -13 -7 -13h-20c-16 0 -20 2 -25 11l-103 206c-33 66 -71 95 -155 95h-165v-299c0 -10 -3 -13 -12 -13h-22zM393 355
c100 0 159 55 159 155s-57 157 -159 157h-249v-312h249z" />
    <glyph glyph-name="R" unicode="r" horiz-adv-x="672" 
d="M110 0c-9 0 -12 3 -12 13v684c0 10 3 13 12 13h287c127 0 204 -73 204 -200c0 -115 -69 -184 -177 -193c38 -16 61 -41 82 -82l113 -222c5 -7 3 -13 -7 -13h-20c-16 0 -20 2 -25 11l-103 206c-33 66 -71 95 -155 95h-165v-299c0 -10 -3 -13 -12 -13h-22zM393 355
c100 0 159 55 159 155s-57 157 -159 157h-249v-312h249z" />
    <glyph glyph-name="Racute" unicode="&#x154;" horiz-adv-x="672" 
d="M250 765c-8 -3 -12 -3 -16 1l-7 8c-5 7 -5 10 2 14l169 107c8 4 16 6 22 -2l10 -11c6 -7 6 -11 -2 -15zM110 0c-9 0 -12 3 -12 13v684c0 10 3 13 12 13h287c127 0 204 -73 204 -200c0 -115 -69 -184 -177 -193c38 -16 61 -41 82 -82l113 -222c5 -7 3 -13 -7 -13h-20
c-16 0 -20 2 -25 11l-103 206c-33 66 -71 95 -155 95h-165v-299c0 -10 -3 -13 -12 -13h-22zM393 355c100 0 159 55 159 155s-57 157 -159 157h-249v-312h249z" />
    <glyph glyph-name="Racute" unicode="&#x155;" horiz-adv-x="672" 
d="M250 765c-8 -3 -12 -3 -16 1l-7 8c-5 7 -5 10 2 14l169 107c8 4 16 6 22 -2l10 -11c6 -7 6 -11 -2 -15zM110 0c-9 0 -12 3 -12 13v684c0 10 3 13 12 13h287c127 0 204 -73 204 -200c0 -115 -69 -184 -177 -193c38 -16 61 -41 82 -82l113 -222c5 -7 3 -13 -7 -13h-20
c-16 0 -20 2 -25 11l-103 206c-33 66 -71 95 -155 95h-165v-299c0 -10 -3 -13 -12 -13h-22zM393 355c100 0 159 55 159 155s-57 157 -159 157h-249v-312h249z" />
    <glyph glyph-name="Rcaron" unicode="&#x158;" horiz-adv-x="672" 
d="M324 764c-11 0 -13 1 -24 12l-132 111c-5 4 -6 11 5 11h18c10 0 13 -1 20 -7l115 -95l115 95c6 6 10 7 20 7h19c11 0 10 -6 5 -11l-132 -111c-11 -11 -13 -12 -23 -12h-6zM110 0c-9 0 -12 3 -12 13v684c0 10 3 13 12 13h287c127 0 204 -73 204 -200
c0 -115 -69 -184 -177 -193c38 -16 61 -41 82 -82l113 -222c5 -7 3 -13 -7 -13h-20c-16 0 -20 2 -25 11l-103 206c-33 66 -71 95 -155 95h-165v-299c0 -10 -3 -13 -12 -13h-22zM393 355c100 0 159 55 159 155s-57 157 -159 157h-249v-312h249z" />
    <glyph glyph-name="Rcaron" unicode="&#x159;" horiz-adv-x="672" 
d="M324 764c-11 0 -13 1 -24 12l-132 111c-5 4 -6 11 5 11h18c10 0 13 -1 20 -7l115 -95l115 95c6 6 10 7 20 7h19c11 0 10 -6 5 -11l-132 -111c-11 -11 -13 -12 -23 -12h-6zM110 0c-9 0 -12 3 -12 13v684c0 10 3 13 12 13h287c127 0 204 -73 204 -200
c0 -115 -69 -184 -177 -193c38 -16 61 -41 82 -82l113 -222c5 -7 3 -13 -7 -13h-20c-16 0 -20 2 -25 11l-103 206c-33 66 -71 95 -155 95h-165v-299c0 -10 -3 -13 -12 -13h-22zM393 355c100 0 159 55 159 155s-57 157 -159 157h-249v-312h249z" />
    <glyph glyph-name="uni0156" unicode="&#x156;" horiz-adv-x="672" 
d="M110 0c-9 0 -12 3 -12 13v684c0 10 3 13 12 13h287c127 0 204 -73 204 -200c0 -115 -69 -184 -177 -193c38 -16 61 -41 82 -82l113 -222c5 -7 3 -13 -7 -13h-20c-16 0 -20 2 -25 11l-103 206c-33 66 -71 95 -155 95h-165v-299c0 -10 -3 -13 -12 -13h-22zM393 355
c100 0 159 55 159 155s-57 157 -159 157h-249v-312h249zM306 -246c-8 0 -10 3 -9 10l40 146c1 10 5 12 15 12h18c11 0 14 -4 11 -13l-47 -143c-3 -9 -6 -12 -15 -12h-13z" />
    <glyph glyph-name="uni0156" unicode="&#x157;" horiz-adv-x="672" 
d="M110 0c-9 0 -12 3 -12 13v684c0 10 3 13 12 13h287c127 0 204 -73 204 -200c0 -115 -69 -184 -177 -193c38 -16 61 -41 82 -82l113 -222c5 -7 3 -13 -7 -13h-20c-16 0 -20 2 -25 11l-103 206c-33 66 -71 95 -155 95h-165v-299c0 -10 -3 -13 -12 -13h-22zM393 355
c100 0 159 55 159 155s-57 157 -159 157h-249v-312h249zM306 -246c-8 0 -10 3 -9 10l40 146c1 10 5 12 15 12h18c11 0 14 -4 11 -13l-47 -143c-3 -9 -6 -12 -15 -12h-13z" />
    <glyph glyph-name="S" unicode="S" horiz-adv-x="654" 
d="M327 -14c-140 0 -221 56 -269 175c-4 10 -2 14 8 18l19 7c9 3 12 2 16 -8c44 -101 115 -148 226 -148c145 0 218 52 218 158c0 118 -104 133 -212 146c-125 15 -261 36 -261 191c0 122 92 199 251 199c134 0 210 -49 262 -155c5 -9 2 -14 -7 -17l-19 -9
c-9 -3 -12 -3 -17 6c-45 89 -107 131 -219 131c-129 0 -204 -56 -204 -152c0 -118 111 -136 224 -149c121 -14 249 -35 249 -189c0 -130 -91 -204 -265 -204z" />
    <glyph glyph-name="S" unicode="s" horiz-adv-x="654" 
d="M327 -14c-140 0 -221 56 -269 175c-4 10 -2 14 8 18l19 7c9 3 12 2 16 -8c44 -101 115 -148 226 -148c145 0 218 52 218 158c0 118 -104 133 -212 146c-125 15 -261 36 -261 191c0 122 92 199 251 199c134 0 210 -49 262 -155c5 -9 2 -14 -7 -17l-19 -9
c-9 -3 -12 -3 -17 6c-45 89 -107 131 -219 131c-129 0 -204 -56 -204 -152c0 -118 111 -136 224 -149c121 -14 249 -35 249 -189c0 -130 -91 -204 -265 -204z" />
    <glyph glyph-name="Sacute" unicode="&#x15a;" horiz-adv-x="654" 
d="M252 774c-8 -3 -12 -3 -16 1l-7 8c-5 7 -5 10 2 14l169 107c8 4 16 6 22 -2l10 -11c6 -7 6 -11 -2 -15zM327 -14c-140 0 -221 56 -269 175c-4 10 -2 14 8 18l19 7c9 3 12 2 16 -8c44 -101 115 -148 226 -148c145 0 218 52 218 158c0 118 -104 133 -212 146
c-125 15 -261 36 -261 191c0 122 92 199 251 199c134 0 210 -49 262 -155c5 -9 2 -14 -7 -17l-19 -9c-9 -3 -12 -3 -17 6c-45 89 -107 131 -219 131c-129 0 -204 -56 -204 -152c0 -118 111 -136 224 -149c121 -14 249 -35 249 -189c0 -130 -91 -204 -265 -204z" />
    <glyph glyph-name="Sacute" unicode="&#x15b;" horiz-adv-x="654" 
d="M252 774c-8 -3 -12 -3 -16 1l-7 8c-5 7 -5 10 2 14l169 107c8 4 16 6 22 -2l10 -11c6 -7 6 -11 -2 -15zM327 -14c-140 0 -221 56 -269 175c-4 10 -2 14 8 18l19 7c9 3 12 2 16 -8c44 -101 115 -148 226 -148c145 0 218 52 218 158c0 118 -104 133 -212 146
c-125 15 -261 36 -261 191c0 122 92 199 251 199c134 0 210 -49 262 -155c5 -9 2 -14 -7 -17l-19 -9c-9 -3 -12 -3 -17 6c-45 89 -107 131 -219 131c-129 0 -204 -56 -204 -152c0 -118 111 -136 224 -149c121 -14 249 -35 249 -189c0 -130 -91 -204 -265 -204z" />
    <glyph glyph-name="Scaron" unicode="&#x160;" horiz-adv-x="654" 
d="M327 773c-11 0 -13 1 -24 12l-132 111c-5 4 -6 11 5 11h18c10 0 13 -1 20 -7l115 -95l115 95c6 6 10 7 20 7h19c11 0 10 -6 5 -11l-132 -111c-11 -11 -13 -12 -23 -12h-6zM327 -14c-140 0 -221 56 -269 175c-4 10 -2 14 8 18l19 7c9 3 12 2 16 -8
c44 -101 115 -148 226 -148c145 0 218 52 218 158c0 118 -104 133 -212 146c-125 15 -261 36 -261 191c0 122 92 199 251 199c134 0 210 -49 262 -155c5 -9 2 -14 -7 -17l-19 -9c-9 -3 -12 -3 -17 6c-45 89 -107 131 -219 131c-129 0 -204 -56 -204 -152
c0 -118 111 -136 224 -149c121 -14 249 -35 249 -189c0 -130 -91 -204 -265 -204z" />
    <glyph glyph-name="Scaron" unicode="&#x161;" horiz-adv-x="654" 
d="M327 773c-11 0 -13 1 -24 12l-132 111c-5 4 -6 11 5 11h18c10 0 13 -1 20 -7l115 -95l115 95c6 6 10 7 20 7h19c11 0 10 -6 5 -11l-132 -111c-11 -11 -13 -12 -23 -12h-6zM327 -14c-140 0 -221 56 -269 175c-4 10 -2 14 8 18l19 7c9 3 12 2 16 -8
c44 -101 115 -148 226 -148c145 0 218 52 218 158c0 118 -104 133 -212 146c-125 15 -261 36 -261 191c0 122 92 199 251 199c134 0 210 -49 262 -155c5 -9 2 -14 -7 -17l-19 -9c-9 -3 -12 -3 -17 6c-45 89 -107 131 -219 131c-129 0 -204 -56 -204 -152
c0 -118 111 -136 224 -149c121 -14 249 -35 249 -189c0 -130 -91 -204 -265 -204z" />
    <glyph glyph-name="Scedilla" unicode="&#x15e;" horiz-adv-x="653" 
d="M329 -248c-40 0 -68 12 -84 22c-8 4 -9 7 -9 15l-1 13c0 5 3 8 8 5c17 -13 39 -27 81 -27c50 0 79 25 79 67c0 32 -25 48 -68 48c-14 0 -27 -1 -38 -5c-10 -2 -13 3 -9 13l31 83c-135 2 -213 58 -261 175c-4 10 -2 14 7 18l20 7c8 3 12 2 16 -8
c44 -101 115 -148 226 -148c145 0 218 52 218 158c0 118 -104 133 -213 146c-124 15 -261 36 -261 191c0 122 93 199 251 199c135 0 211 -49 263 -155c4 -9 2 -14 -7 -17l-19 -9c-9 -3 -12 -3 -17 6c-45 89 -108 131 -220 131c-128 0 -203 -56 -203 -152
c0 -118 110 -136 224 -149c121 -14 248 -35 248 -189c0 -125 -83 -198 -243 -204l-25 -70c8 3 20 4 31 4c54 0 88 -29 86 -75c-2 -62 -47 -93 -111 -93z" />
    <glyph glyph-name="Scedilla" unicode="&#x15f;" horiz-adv-x="653" 
d="M329 -248c-40 0 -68 12 -84 22c-8 4 -9 7 -9 15l-1 13c0 5 3 8 8 5c17 -13 39 -27 81 -27c50 0 79 25 79 67c0 32 -25 48 -68 48c-14 0 -27 -1 -38 -5c-10 -2 -13 3 -9 13l31 83c-135 2 -213 58 -261 175c-4 10 -2 14 7 18l20 7c8 3 12 2 16 -8
c44 -101 115 -148 226 -148c145 0 218 52 218 158c0 118 -104 133 -213 146c-124 15 -261 36 -261 191c0 122 93 199 251 199c135 0 211 -49 263 -155c4 -9 2 -14 -7 -17l-19 -9c-9 -3 -12 -3 -17 6c-45 89 -108 131 -220 131c-128 0 -203 -56 -203 -152
c0 -118 110 -136 224 -149c121 -14 248 -35 248 -189c0 -125 -83 -198 -243 -204l-25 -70c8 3 20 4 31 4c54 0 88 -29 86 -75c-2 -62 -47 -93 -111 -93z" />
    <glyph glyph-name="Scircumflex" unicode="&#x15c;" horiz-adv-x="654" 
d="M177 773c-11 0 -11 5 -6 10l133 112c11 11 13 12 24 12h6c10 0 12 -1 23 -12l133 -112c5 -5 5 -10 -6 -10h-19c-10 0 -14 1 -20 7l-115 95l-115 -95c-7 -6 -10 -7 -20 -7h-18zM327 -14c-140 0 -221 56 -269 175c-4 10 -2 14 8 18l19 7c9 3 12 2 16 -8
c44 -101 115 -148 226 -148c145 0 218 52 218 158c0 118 -104 133 -212 146c-125 15 -261 36 -261 191c0 122 92 199 251 199c134 0 210 -49 262 -155c5 -9 2 -14 -7 -17l-19 -9c-9 -3 -12 -3 -17 6c-45 89 -107 131 -219 131c-129 0 -204 -56 -204 -152
c0 -118 111 -136 224 -149c121 -14 249 -35 249 -189c0 -130 -91 -204 -265 -204z" />
    <glyph glyph-name="Scircumflex" unicode="&#x15d;" horiz-adv-x="654" 
d="M177 773c-11 0 -11 5 -6 10l133 112c11 11 13 12 24 12h6c10 0 12 -1 23 -12l133 -112c5 -5 5 -10 -6 -10h-19c-10 0 -14 1 -20 7l-115 95l-115 -95c-7 -6 -10 -7 -20 -7h-18zM327 -14c-140 0 -221 56 -269 175c-4 10 -2 14 8 18l19 7c9 3 12 2 16 -8
c44 -101 115 -148 226 -148c145 0 218 52 218 158c0 118 -104 133 -212 146c-125 15 -261 36 -261 191c0 122 92 199 251 199c134 0 210 -49 262 -155c5 -9 2 -14 -7 -17l-19 -9c-9 -3 -12 -3 -17 6c-45 89 -107 131 -219 131c-129 0 -204 -56 -204 -152
c0 -118 111 -136 224 -149c121 -14 249 -35 249 -189c0 -130 -91 -204 -265 -204z" />
    <glyph glyph-name="uni0218" unicode="&#x218;" horiz-adv-x="654" 
d="M327 -14c-140 0 -221 56 -269 175c-4 10 -2 14 8 18l19 7c9 3 12 2 16 -8c44 -101 115 -148 226 -148c145 0 218 52 218 158c0 118 -104 133 -212 146c-125 15 -261 36 -261 191c0 122 92 199 251 199c134 0 210 -49 262 -155c5 -9 2 -14 -7 -17l-19 -9
c-9 -3 -12 -3 -17 6c-45 89 -107 131 -219 131c-129 0 -204 -56 -204 -152c0 -118 111 -136 224 -149c121 -14 249 -35 249 -189c0 -130 -91 -204 -265 -204zM297 -253c-8 0 -10 3 -9 10l40 146c1 10 5 12 15 12h18c11 0 14 -4 11 -13l-47 -143c-3 -9 -6 -12 -15 -12h-13z
" />
    <glyph glyph-name="uni0218" unicode="&#x219;" horiz-adv-x="654" 
d="M327 -14c-140 0 -221 56 -269 175c-4 10 -2 14 8 18l19 7c9 3 12 2 16 -8c44 -101 115 -148 226 -148c145 0 218 52 218 158c0 118 -104 133 -212 146c-125 15 -261 36 -261 191c0 122 92 199 251 199c134 0 210 -49 262 -155c5 -9 2 -14 -7 -17l-19 -9
c-9 -3 -12 -3 -17 6c-45 89 -107 131 -219 131c-129 0 -204 -56 -204 -152c0 -118 111 -136 224 -149c121 -14 249 -35 249 -189c0 -130 -91 -204 -265 -204zM297 -253c-8 0 -10 3 -9 10l40 146c1 10 5 12 15 12h18c11 0 14 -4 11 -13l-47 -143c-3 -9 -6 -12 -15 -12h-13z
" />
    <glyph glyph-name="uni00DF" unicode="&#xdf;" horiz-adv-x="671" 
d="M397 406c137 0 210 -59 210 -206c0 -141 -77 -208 -237 -208c-48 0 -94 2 -153 26c-8 0 -13 4 -13 13v20c0 6 5 12 13 11c63 -27 103 -26 151 -26c135 0 190 51 190 168c0 111 -52 162 -165 162c-24 0 -43 1 -81 -5c-8 -1 -13 4 -13 12v18c0 6 1 10 6 16l204 260h-365
v-654c0 -10 -5 -13 -12 -13h-22c-9 0 -12 3 -12 13v684c0 10 3 13 12 13h443c9 0 12 -5 12 -13v-20c0 -6 -2 -11 -6 -16l-203 -257c13 2 25 2 41 2z" />
    <glyph glyph-name="uni00DF" unicode="&#x1e9e;" horiz-adv-x="671" 
d="M397 406c137 0 210 -59 210 -206c0 -141 -77 -208 -237 -208c-48 0 -94 2 -153 26c-8 0 -13 4 -13 13v20c0 6 5 12 13 11c63 -27 103 -26 151 -26c135 0 190 51 190 168c0 111 -52 162 -165 162c-24 0 -43 1 -81 -5c-8 -1 -13 4 -13 12v18c0 6 1 10 6 16l204 260h-365
v-654c0 -10 -5 -13 -12 -13h-22c-9 0 -12 3 -12 13v684c0 10 3 13 12 13h443c9 0 12 -5 12 -13v-20c0 -6 -2 -11 -6 -16l-203 -257c13 2 25 2 41 2z" />
    <glyph glyph-name="T" unicode="T" horiz-adv-x="577" 
d="M278 0c-9 0 -12 3 -12 13v654h-225c-9 0 -12 3 -12 12v18c0 10 3 13 12 13h495c9 0 12 -3 12 -13v-18c0 -9 -3 -12 -12 -12h-224v-654c0 -10 -3 -13 -13 -13h-21z" />
    <glyph glyph-name="T" unicode="t" horiz-adv-x="577" 
d="M278 0c-9 0 -12 3 -12 13v654h-225c-9 0 -12 3 -12 12v18c0 10 3 13 12 13h495c9 0 12 -3 12 -13v-18c0 -9 -3 -12 -12 -12h-224v-654c0 -10 -3 -13 -13 -13h-21z" />
    <glyph glyph-name="Tbar" unicode="&#x166;" horiz-adv-x="581" 
d="M280 0c-9 0 -13 3 -13 13v300h-151c-7 0 -9 2 -9 10v16c0 7 3 9 9 9h151v319h-224c-9 0 -12 3 -12 12v18c0 10 3 13 12 13h495c9 0 12 -3 12 -13v-18c0 -9 -3 -12 -12 -12h-224v-319h151c7 0 9 -2 9 -9v-16c0 -8 -2 -10 -9 -10h-151v-300c0 -10 -3 -13 -13 -13h-21z" />
    <glyph glyph-name="Tbar" unicode="&#x167;" horiz-adv-x="581" 
d="M280 0c-9 0 -13 3 -13 13v300h-151c-7 0 -9 2 -9 10v16c0 7 3 9 9 9h151v319h-224c-9 0 -12 3 -12 12v18c0 10 3 13 12 13h495c9 0 12 -3 12 -13v-18c0 -9 -3 -12 -12 -12h-224v-319h151c7 0 9 -2 9 -9v-16c0 -8 -2 -10 -9 -10h-151v-300c0 -10 -3 -13 -13 -13h-21z" />
    <glyph glyph-name="Tcaron" unicode="&#x164;" horiz-adv-x="577" 
d="M286 764c-11 0 -13 1 -24 12l-132 111c-5 4 -6 11 5 11h18c10 0 13 -1 20 -7l115 -95l115 95c6 6 10 7 20 7h19c11 0 10 -6 5 -11l-132 -111c-11 -11 -13 -12 -23 -12h-6zM278 0c-9 0 -12 3 -12 13v654h-225c-9 0 -12 3 -12 12v18c0 10 3 13 12 13h495c9 0 12 -3 12 -13
v-18c0 -9 -3 -12 -12 -12h-224v-654c0 -10 -3 -13 -13 -13h-21z" />
    <glyph glyph-name="Tcaron" unicode="&#x165;" horiz-adv-x="577" 
d="M286 764c-11 0 -13 1 -24 12l-132 111c-5 4 -6 11 5 11h18c10 0 13 -1 20 -7l115 -95l115 95c6 6 10 7 20 7h19c11 0 10 -6 5 -11l-132 -111c-11 -11 -13 -12 -23 -12h-6zM278 0c-9 0 -12 3 -12 13v654h-225c-9 0 -12 3 -12 12v18c0 10 3 13 12 13h495c9 0 12 -3 12 -13
v-18c0 -9 -3 -12 -12 -12h-224v-654c0 -10 -3 -13 -13 -13h-21z" />
    <glyph glyph-name="uni0163" unicode="&#x163;" horiz-adv-x="577" 
d="M278 0c-9 0 -12 3 -12 13v654h-225c-9 0 -12 3 -12 12v18c0 10 3 13 12 13h495c9 0 12 -3 12 -13v-18c0 -9 -3 -12 -12 -12h-224v-654c0 -10 -3 -13 -13 -13h-21zM236 -246c-8 0 -10 3 -9 10l40 146c1 10 5 12 15 12h18c11 0 14 -4 11 -13l-47 -143c-3 -9 -6 -12 -15 -12
h-13z" />
    <glyph glyph-name="uni0163" unicode="&#x21a;" horiz-adv-x="577" 
d="M278 0c-9 0 -12 3 -12 13v654h-225c-9 0 -12 3 -12 12v18c0 10 3 13 12 13h495c9 0 12 -3 12 -13v-18c0 -9 -3 -12 -12 -12h-224v-654c0 -10 -3 -13 -13 -13h-21zM236 -246c-8 0 -10 3 -9 10l40 146c1 10 5 12 15 12h18c11 0 14 -4 11 -13l-47 -143c-3 -9 -6 -12 -15 -12
h-13z" />
    <glyph glyph-name="U" unicode="U" horiz-adv-x="711" 
d="M355 -15c-177 0 -263 100 -263 255v457c0 10 3 13 12 13h22c9 0 12 -3 12 -13v-457c0 -129 71 -212 217 -212c147 0 217 83 217 212v457c0 10 4 13 13 13h21c10 0 13 -3 13 -13v-457c0 -155 -87 -255 -264 -255z" />
    <glyph glyph-name="U" unicode="u" horiz-adv-x="711" 
d="M355 -15c-177 0 -263 100 -263 255v457c0 10 3 13 12 13h22c9 0 12 -3 12 -13v-457c0 -129 71 -212 217 -212c147 0 217 83 217 212v457c0 10 4 13 13 13h21c10 0 13 -3 13 -13v-457c0 -155 -87 -255 -264 -255z" />
    <glyph glyph-name="Uacute" unicode="&#xda;" horiz-adv-x="711" 
d="M277 765c-8 -3 -12 -3 -16 1l-7 8c-5 7 -5 10 2 14l169 107c8 4 16 6 22 -2l10 -11c6 -7 6 -11 -2 -15zM355 -15c-177 0 -263 100 -263 255v457c0 10 3 13 12 13h22c9 0 12 -3 12 -13v-457c0 -129 71 -212 217 -212c147 0 217 83 217 212v457c0 10 4 13 13 13h21
c10 0 13 -3 13 -13v-457c0 -155 -87 -255 -264 -255z" />
    <glyph glyph-name="Uacute" unicode="&#xfa;" horiz-adv-x="711" 
d="M277 765c-8 -3 -12 -3 -16 1l-7 8c-5 7 -5 10 2 14l169 107c8 4 16 6 22 -2l10 -11c6 -7 6 -11 -2 -15zM355 -15c-177 0 -263 100 -263 255v457c0 10 3 13 12 13h22c9 0 12 -3 12 -13v-457c0 -129 71 -212 217 -212c147 0 217 83 217 212v457c0 10 4 13 13 13h21
c10 0 13 -3 13 -13v-457c0 -155 -87 -255 -264 -255z" />
    <glyph glyph-name="Ubreve" unicode="&#x16c;" horiz-adv-x="711" 
d="M356 764c-80 0 -129 36 -150 112c-2 6 0 9 5 11l17 6c7 2 10 1 12 -5c17 -62 53 -90 116 -90c62 0 99 28 116 90c2 6 4 7 11 5l17 -6c6 -2 8 -5 6 -11c-22 -76 -70 -112 -150 -112zM355 -15c-177 0 -263 100 -263 255v457c0 10 3 13 12 13h22c9 0 12 -3 12 -13v-457
c0 -129 71 -212 217 -212c147 0 217 83 217 212v457c0 10 4 13 13 13h21c10 0 13 -3 13 -13v-457c0 -155 -87 -255 -264 -255z" />
    <glyph glyph-name="Ubreve" unicode="&#x16d;" horiz-adv-x="711" 
d="M356 764c-80 0 -129 36 -150 112c-2 6 0 9 5 11l17 6c7 2 10 1 12 -5c17 -62 53 -90 116 -90c62 0 99 28 116 90c2 6 4 7 11 5l17 -6c6 -2 8 -5 6 -11c-22 -76 -70 -112 -150 -112zM355 -15c-177 0 -263 100 -263 255v457c0 10 3 13 12 13h22c9 0 12 -3 12 -13v-457
c0 -129 71 -212 217 -212c147 0 217 83 217 212v457c0 10 4 13 13 13h21c10 0 13 -3 13 -13v-457c0 -155 -87 -255 -264 -255z" />
    <glyph glyph-name="Ucircumflex" unicode="&#xdb;" horiz-adv-x="711" 
d="M202 764c-11 0 -11 5 -6 10l133 112c11 11 13 12 24 12h6c10 0 12 -1 23 -12l133 -112c5 -5 5 -10 -6 -10h-19c-10 0 -14 1 -20 7l-115 95l-115 -95c-7 -6 -10 -7 -20 -7h-18zM355 -15c-177 0 -263 100 -263 255v457c0 10 3 13 12 13h22c9 0 12 -3 12 -13v-457
c0 -129 71 -212 217 -212c147 0 217 83 217 212v457c0 10 4 13 13 13h21c10 0 13 -3 13 -13v-457c0 -155 -87 -255 -264 -255z" />
    <glyph glyph-name="Ucircumflex" unicode="&#xfb;" horiz-adv-x="711" 
d="M202 764c-11 0 -11 5 -6 10l133 112c11 11 13 12 24 12h6c10 0 12 -1 23 -12l133 -112c5 -5 5 -10 -6 -10h-19c-10 0 -14 1 -20 7l-115 95l-115 -95c-7 -6 -10 -7 -20 -7h-18zM355 -15c-177 0 -263 100 -263 255v457c0 10 3 13 12 13h22c9 0 12 -3 12 -13v-457
c0 -129 71 -212 217 -212c147 0 217 83 217 212v457c0 10 4 13 13 13h21c10 0 13 -3 13 -13v-457c0 -155 -87 -255 -264 -255z" />
    <glyph glyph-name="Udieresis" unicode="&#xdc;" horiz-adv-x="711" 
d="M256 801c-17 0 -23 5 -23 22v7c0 17 6 23 23 23h6c19 0 23 -6 23 -23v-7c0 -17 -4 -22 -23 -22h-6zM448 801c-19 0 -24 5 -24 22v7c0 17 5 23 24 23h5c17 0 23 -6 23 -23v-7c0 -17 -6 -22 -23 -22h-5zM355 -15c-177 0 -263 100 -263 255v457c0 10 3 13 12 13h22
c9 0 12 -3 12 -13v-457c0 -129 71 -212 217 -212c147 0 217 83 217 212v457c0 10 4 13 13 13h21c10 0 13 -3 13 -13v-457c0 -155 -87 -255 -264 -255z" />
    <glyph glyph-name="Udieresis" unicode="&#xfc;" horiz-adv-x="711" 
d="M256 801c-17 0 -23 5 -23 22v7c0 17 6 23 23 23h6c19 0 23 -6 23 -23v-7c0 -17 -4 -22 -23 -22h-6zM448 801c-19 0 -24 5 -24 22v7c0 17 5 23 24 23h5c17 0 23 -6 23 -23v-7c0 -17 -6 -22 -23 -22h-5zM355 -15c-177 0 -263 100 -263 255v457c0 10 3 13 12 13h22
c9 0 12 -3 12 -13v-457c0 -129 71 -212 217 -212c147 0 217 83 217 212v457c0 10 4 13 13 13h21c10 0 13 -3 13 -13v-457c0 -155 -87 -255 -264 -255z" />
    <glyph glyph-name="Ugrave" unicode="&#xd9;" horiz-adv-x="711" 
d="M254 867c-8 4 -8 8 -2 15l10 11c7 8 14 6 22 2l173 -102c6 -4 7 -7 1 -14l-7 -8c-4 -5 -8 -5 -16 -1zM355 -15c-177 0 -263 100 -263 255v457c0 10 3 13 12 13h22c9 0 12 -3 12 -13v-457c0 -129 71 -212 217 -212c147 0 217 83 217 212v457c0 10 4 13 13 13h21
c10 0 13 -3 13 -13v-457c0 -155 -87 -255 -264 -255z" />
    <glyph glyph-name="Ugrave" unicode="&#xf9;" horiz-adv-x="711" 
d="M254 867c-8 4 -8 8 -2 15l10 11c7 8 14 6 22 2l173 -102c6 -4 7 -7 1 -14l-7 -8c-4 -5 -8 -5 -16 -1zM355 -15c-177 0 -263 100 -263 255v457c0 10 3 13 12 13h22c9 0 12 -3 12 -13v-457c0 -129 71 -212 217 -212c147 0 217 83 217 212v457c0 10 4 13 13 13h21
c10 0 13 -3 13 -13v-457c0 -155 -87 -255 -264 -255z" />
    <glyph glyph-name="Uhungarumlaut" unicode="&#x170;" horiz-adv-x="711" 
d="M224 766c-8 2 -7 7 -3 12l101 113c6 7 11 10 20 8l15 -4c9 -3 10 -8 5 -14l-113 -113c-6 -6 -10 -7 -16 -5zM397 765c-8 2 -8 7 -3 12l103 114c6 7 11 10 20 8l16 -4c9 -3 10 -8 4 -14l-115 -114c-6 -6 -10 -8 -16 -5zM355 -15c-177 0 -263 100 -263 255v457
c0 10 3 13 12 13h22c9 0 12 -3 12 -13v-457c0 -129 71 -212 217 -212c147 0 217 83 217 212v457c0 10 4 13 13 13h21c10 0 13 -3 13 -13v-457c0 -155 -87 -255 -264 -255z" />
    <glyph glyph-name="Uhungarumlaut" unicode="&#x171;" horiz-adv-x="711" 
d="M224 766c-8 2 -7 7 -3 12l101 113c6 7 11 10 20 8l15 -4c9 -3 10 -8 5 -14l-113 -113c-6 -6 -10 -7 -16 -5zM397 765c-8 2 -8 7 -3 12l103 114c6 7 11 10 20 8l16 -4c9 -3 10 -8 4 -14l-115 -114c-6 -6 -10 -8 -16 -5zM355 -15c-177 0 -263 100 -263 255v457
c0 10 3 13 12 13h22c9 0 12 -3 12 -13v-457c0 -129 71 -212 217 -212c147 0 217 83 217 212v457c0 10 4 13 13 13h21c10 0 13 -3 13 -13v-457c0 -155 -87 -255 -264 -255z" />
    <glyph glyph-name="Umacron" unicode="&#x16a;" horiz-adv-x="711" 
d="M236 806c-9 0 -11 3 -11 12v10c0 9 3 11 11 11h238c8 0 11 -2 11 -11v-10c0 -9 -3 -12 -11 -12h-238zM355 -15c-177 0 -263 100 -263 255v457c0 10 3 13 12 13h22c9 0 12 -3 12 -13v-457c0 -129 71 -212 217 -212c147 0 217 83 217 212v457c0 10 4 13 13 13h21
c10 0 13 -3 13 -13v-457c0 -155 -87 -255 -264 -255z" />
    <glyph glyph-name="Umacron" unicode="&#x16b;" horiz-adv-x="711" 
d="M236 806c-9 0 -11 3 -11 12v10c0 9 3 11 11 11h238c8 0 11 -2 11 -11v-10c0 -9 -3 -12 -11 -12h-238zM355 -15c-177 0 -263 100 -263 255v457c0 10 3 13 12 13h22c9 0 12 -3 12 -13v-457c0 -129 71 -212 217 -212c147 0 217 83 217 212v457c0 10 4 13 13 13h21
c10 0 13 -3 13 -13v-457c0 -155 -87 -255 -264 -255z" />
    <glyph glyph-name="Uogonek" unicode="&#x172;" horiz-adv-x="711" 
d="M428 -247c-31 0 -61 12 -72 47c-17 52 31 134 99 200c-28 -10 -62 -15 -100 -15c-177 0 -263 100 -263 255v457c0 10 3 13 12 13h22c9 0 12 -3 12 -13v-457c0 -129 71 -212 217 -212c147 0 217 83 217 212v457c0 10 4 13 13 13h21c10 0 13 -3 13 -13v-457
c0 -91 -31 -164 -92 -207c-90 -70 -148 -172 -132 -214c7 -22 27 -31 45 -31c23 0 46 10 63 28c3 2 6 2 8 -3l5 -14c2 -5 2 -7 -1 -10c-25 -24 -53 -36 -87 -36z" />
    <glyph glyph-name="Uogonek" unicode="&#x173;" horiz-adv-x="711" 
d="M428 -247c-31 0 -61 12 -72 47c-17 52 31 134 99 200c-28 -10 -62 -15 -100 -15c-177 0 -263 100 -263 255v457c0 10 3 13 12 13h22c9 0 12 -3 12 -13v-457c0 -129 71 -212 217 -212c147 0 217 83 217 212v457c0 10 4 13 13 13h21c10 0 13 -3 13 -13v-457
c0 -91 -31 -164 -92 -207c-90 -70 -148 -172 -132 -214c7 -22 27 -31 45 -31c23 0 46 10 63 28c3 2 6 2 8 -3l5 -14c2 -5 2 -7 -1 -10c-25 -24 -53 -36 -87 -36z" />
    <glyph glyph-name="Uring" unicode="&#x16e;" horiz-adv-x="711" 
d="M357 753c-60 0 -99 37 -99 95s39 94 99 94c58 0 95 -36 95 -94s-37 -95 -95 -95zM357 778c43 0 70 27 70 70c0 42 -27 70 -70 70c-46 0 -74 -28 -74 -70c0 -43 28 -70 74 -70zM355 -15c-177 0 -263 100 -263 255v457c0 10 3 13 12 13h22c9 0 12 -3 12 -13v-457
c0 -129 71 -212 217 -212c147 0 217 83 217 212v457c0 10 4 13 13 13h21c10 0 13 -3 13 -13v-457c0 -155 -87 -255 -264 -255z" />
    <glyph glyph-name="Uring" unicode="&#x16f;" horiz-adv-x="711" 
d="M357 753c-60 0 -99 37 -99 95s39 94 99 94c58 0 95 -36 95 -94s-37 -95 -95 -95zM357 778c43 0 70 27 70 70c0 42 -27 70 -70 70c-46 0 -74 -28 -74 -70c0 -43 28 -70 74 -70zM355 -15c-177 0 -263 100 -263 255v457c0 10 3 13 12 13h22c9 0 12 -3 12 -13v-457
c0 -129 71 -212 217 -212c147 0 217 83 217 212v457c0 10 4 13 13 13h21c10 0 13 -3 13 -13v-457c0 -155 -87 -255 -264 -255z" />
    <glyph glyph-name="Utilde" unicode="&#x168;" horiz-adv-x="711" 
d="M207 773c-6 0 -8 2 -8 8c0 60 26 94 75 94c73 0 98 -72 156 -72c33 0 48 26 48 64c0 6 1 8 8 8h13c6 0 8 -2 8 -8c0 -59 -23 -94 -74 -94c-71 0 -97 72 -156 72c-31 0 -48 -26 -48 -64c0 -6 -2 -8 -8 -8h-14zM355 -15c-177 0 -263 100 -263 255v457c0 10 3 13 12 13h22
c9 0 12 -3 12 -13v-457c0 -129 71 -212 217 -212c147 0 217 83 217 212v457c0 10 4 13 13 13h21c10 0 13 -3 13 -13v-457c0 -155 -87 -255 -264 -255z" />
    <glyph glyph-name="Utilde" unicode="&#x169;" horiz-adv-x="711" 
d="M207 773c-6 0 -8 2 -8 8c0 60 26 94 75 94c73 0 98 -72 156 -72c33 0 48 26 48 64c0 6 1 8 8 8h13c6 0 8 -2 8 -8c0 -59 -23 -94 -74 -94c-71 0 -97 72 -156 72c-31 0 -48 -26 -48 -64c0 -6 -2 -8 -8 -8h-14zM355 -15c-177 0 -263 100 -263 255v457c0 10 3 13 12 13h22
c9 0 12 -3 12 -13v-457c0 -129 71 -212 217 -212c147 0 217 83 217 212v457c0 10 4 13 13 13h21c10 0 13 -3 13 -13v-457c0 -155 -87 -255 -264 -255z" />
    <glyph glyph-name="V" unicode="V" horiz-adv-x="644" 
d="M312 0c-9 0 -14 3 -16 11l-268 687c-3 7 0 12 9 12h19c15 0 19 -2 22 -11l221 -575c10 -25 18 -54 23 -67h2c6 13 13 42 22 67l221 575c3 9 8 11 22 11h19c9 0 11 -5 8 -12l-267 -686c-3 -9 -8 -12 -17 -12h-20z" />
    <glyph glyph-name="V" unicode="v" horiz-adv-x="644" 
d="M312 0c-9 0 -14 3 -16 11l-268 687c-3 7 0 12 9 12h19c15 0 19 -2 22 -11l221 -575c10 -25 18 -54 23 -67h2c6 13 13 42 22 67l221 575c3 9 8 11 22 11h19c9 0 11 -5 8 -12l-267 -686c-3 -9 -8 -12 -17 -12h-20z" />
    <glyph glyph-name="W" unicode="W" horiz-adv-x="902" 
d="M242 0c-9 0 -14 2 -17 11l-185 687c-3 8 -1 12 8 12h25c11 0 15 -2 17 -11l143 -538c7 -29 14 -71 20 -95h2c5 25 14 65 21 94l149 523c3 10 8 12 18 12h20c9 0 15 -2 17 -12l148 -524c9 -30 17 -69 22 -93h3c4 23 12 63 18 92l143 541c2 9 6 11 17 11h23
c9 0 10 -4 8 -12l-186 -686c-2 -10 -7 -12 -17 -12h-20c-9 0 -14 2 -17 11l-148 527c-8 28 -15 61 -21 91h-3c-6 -30 -14 -62 -22 -91l-149 -526c-2 -10 -7 -12 -17 -12h-20z" />
    <glyph glyph-name="W" unicode="w" horiz-adv-x="902" 
d="M242 0c-9 0 -14 2 -17 11l-185 687c-3 8 -1 12 8 12h25c11 0 15 -2 17 -11l143 -538c7 -29 14 -71 20 -95h2c5 25 14 65 21 94l149 523c3 10 8 12 18 12h20c9 0 15 -2 17 -12l148 -524c9 -30 17 -69 22 -93h3c4 23 12 63 18 92l143 541c2 9 6 11 17 11h23
c9 0 10 -4 8 -12l-186 -686c-2 -10 -7 -12 -17 -12h-20c-9 0 -14 2 -17 11l-148 527c-8 28 -15 61 -21 91h-3c-6 -30 -14 -62 -22 -91l-149 -526c-2 -10 -7 -12 -17 -12h-20z" />
    <glyph glyph-name="Wacute" unicode="&#x1e82;" horiz-adv-x="902" 
d="M375 765c-8 -3 -12 -3 -16 1l-7 8c-5 7 -5 10 2 14l169 107c8 4 16 6 22 -2l10 -11c6 -7 6 -11 -2 -15zM242 0c-9 0 -14 2 -17 11l-185 687c-3 8 -1 12 8 12h25c11 0 15 -2 17 -11l143 -538c7 -29 14 -71 20 -95h2c5 25 14 65 21 94l149 523c3 10 8 12 18 12h20
c9 0 15 -2 17 -12l148 -524c9 -30 17 -69 22 -93h3c4 23 12 63 18 92l143 541c2 9 6 11 17 11h23c9 0 10 -4 8 -12l-186 -686c-2 -10 -7 -12 -17 -12h-20c-9 0 -14 2 -17 11l-148 527c-8 28 -15 61 -21 91h-3c-6 -30 -14 -62 -22 -91l-149 -526c-2 -10 -7 -12 -17 -12h-20z
" />
    <glyph glyph-name="Wacute" unicode="&#x1e83;" horiz-adv-x="902" 
d="M375 765c-8 -3 -12 -3 -16 1l-7 8c-5 7 -5 10 2 14l169 107c8 4 16 6 22 -2l10 -11c6 -7 6 -11 -2 -15zM242 0c-9 0 -14 2 -17 11l-185 687c-3 8 -1 12 8 12h25c11 0 15 -2 17 -11l143 -538c7 -29 14 -71 20 -95h2c5 25 14 65 21 94l149 523c3 10 8 12 18 12h20
c9 0 15 -2 17 -12l148 -524c9 -30 17 -69 22 -93h3c4 23 12 63 18 92l143 541c2 9 6 11 17 11h23c9 0 10 -4 8 -12l-186 -686c-2 -10 -7 -12 -17 -12h-20c-9 0 -14 2 -17 11l-148 527c-8 28 -15 61 -21 91h-3c-6 -30 -14 -62 -22 -91l-149 -526c-2 -10 -7 -12 -17 -12h-20z
" />
    <glyph glyph-name="Wcircumflex" unicode="&#x174;" horiz-adv-x="902" 
d="M300 764c-11 0 -11 5 -6 10l133 112c11 11 13 12 24 12h6c10 0 12 -1 23 -12l133 -112c5 -5 5 -10 -6 -10h-19c-10 0 -14 1 -20 7l-115 95l-115 -95c-7 -6 -10 -7 -20 -7h-18zM242 0c-9 0 -14 2 -17 11l-185 687c-3 8 -1 12 8 12h25c11 0 15 -2 17 -11l143 -538
c7 -29 14 -71 20 -95h2c5 25 14 65 21 94l149 523c3 10 8 12 18 12h20c9 0 15 -2 17 -12l148 -524c9 -30 17 -69 22 -93h3c4 23 12 63 18 92l143 541c2 9 6 11 17 11h23c9 0 10 -4 8 -12l-186 -686c-2 -10 -7 -12 -17 -12h-20c-9 0 -14 2 -17 11l-148 527
c-8 28 -15 61 -21 91h-3c-6 -30 -14 -62 -22 -91l-149 -526c-2 -10 -7 -12 -17 -12h-20z" />
    <glyph glyph-name="Wcircumflex" unicode="&#x175;" horiz-adv-x="902" 
d="M300 764c-11 0 -11 5 -6 10l133 112c11 11 13 12 24 12h6c10 0 12 -1 23 -12l133 -112c5 -5 5 -10 -6 -10h-19c-10 0 -14 1 -20 7l-115 95l-115 -95c-7 -6 -10 -7 -20 -7h-18zM242 0c-9 0 -14 2 -17 11l-185 687c-3 8 -1 12 8 12h25c11 0 15 -2 17 -11l143 -538
c7 -29 14 -71 20 -95h2c5 25 14 65 21 94l149 523c3 10 8 12 18 12h20c9 0 15 -2 17 -12l148 -524c9 -30 17 -69 22 -93h3c4 23 12 63 18 92l143 541c2 9 6 11 17 11h23c9 0 10 -4 8 -12l-186 -686c-2 -10 -7 -12 -17 -12h-20c-9 0 -14 2 -17 11l-148 527
c-8 28 -15 61 -21 91h-3c-6 -30 -14 -62 -22 -91l-149 -526c-2 -10 -7 -12 -17 -12h-20z" />
    <glyph glyph-name="Wdieresis" unicode="&#x1e84;" horiz-adv-x="902" 
d="M354 801c-17 0 -23 5 -23 22v7c0 17 6 23 23 23h6c19 0 23 -6 23 -23v-7c0 -17 -4 -22 -23 -22h-6zM546 801c-19 0 -24 5 -24 22v7c0 17 5 23 24 23h5c17 0 23 -6 23 -23v-7c0 -17 -6 -22 -23 -22h-5zM242 0c-9 0 -14 2 -17 11l-185 687c-3 8 -1 12 8 12h25
c11 0 15 -2 17 -11l143 -538c7 -29 14 -71 20 -95h2c5 25 14 65 21 94l149 523c3 10 8 12 18 12h20c9 0 15 -2 17 -12l148 -524c9 -30 17 -69 22 -93h3c4 23 12 63 18 92l143 541c2 9 6 11 17 11h23c9 0 10 -4 8 -12l-186 -686c-2 -10 -7 -12 -17 -12h-20c-9 0 -14 2 -17 11
l-148 527c-8 28 -15 61 -21 91h-3c-6 -30 -14 -62 -22 -91l-149 -526c-2 -10 -7 -12 -17 -12h-20z" />
    <glyph glyph-name="Wdieresis" unicode="&#x1e85;" horiz-adv-x="902" 
d="M354 801c-17 0 -23 5 -23 22v7c0 17 6 23 23 23h6c19 0 23 -6 23 -23v-7c0 -17 -4 -22 -23 -22h-6zM546 801c-19 0 -24 5 -24 22v7c0 17 5 23 24 23h5c17 0 23 -6 23 -23v-7c0 -17 -6 -22 -23 -22h-5zM242 0c-9 0 -14 2 -17 11l-185 687c-3 8 -1 12 8 12h25
c11 0 15 -2 17 -11l143 -538c7 -29 14 -71 20 -95h2c5 25 14 65 21 94l149 523c3 10 8 12 18 12h20c9 0 15 -2 17 -12l148 -524c9 -30 17 -69 22 -93h3c4 23 12 63 18 92l143 541c2 9 6 11 17 11h23c9 0 10 -4 8 -12l-186 -686c-2 -10 -7 -12 -17 -12h-20c-9 0 -14 2 -17 11
l-148 527c-8 28 -15 61 -21 91h-3c-6 -30 -14 -62 -22 -91l-149 -526c-2 -10 -7 -12 -17 -12h-20z" />
    <glyph glyph-name="Wgrave" unicode="&#x1e80;" horiz-adv-x="902" 
d="M352 867c-8 4 -8 8 -2 15l10 11c7 8 14 6 22 2l173 -102c6 -4 7 -7 1 -14l-7 -8c-4 -5 -8 -5 -16 -1zM242 0c-9 0 -14 2 -17 11l-185 687c-3 8 -1 12 8 12h25c11 0 15 -2 17 -11l143 -538c7 -29 14 -71 20 -95h2c5 25 14 65 21 94l149 523c3 10 8 12 18 12h20
c9 0 15 -2 17 -12l148 -524c9 -30 17 -69 22 -93h3c4 23 12 63 18 92l143 541c2 9 6 11 17 11h23c9 0 10 -4 8 -12l-186 -686c-2 -10 -7 -12 -17 -12h-20c-9 0 -14 2 -17 11l-148 527c-8 28 -15 61 -21 91h-3c-6 -30 -14 -62 -22 -91l-149 -526c-2 -10 -7 -12 -17 -12h-20z
" />
    <glyph glyph-name="Wgrave" unicode="&#x1e81;" horiz-adv-x="902" 
d="M352 867c-8 4 -8 8 -2 15l10 11c7 8 14 6 22 2l173 -102c6 -4 7 -7 1 -14l-7 -8c-4 -5 -8 -5 -16 -1zM242 0c-9 0 -14 2 -17 11l-185 687c-3 8 -1 12 8 12h25c11 0 15 -2 17 -11l143 -538c7 -29 14 -71 20 -95h2c5 25 14 65 21 94l149 523c3 10 8 12 18 12h20
c9 0 15 -2 17 -12l148 -524c9 -30 17 -69 22 -93h3c4 23 12 63 18 92l143 541c2 9 6 11 17 11h23c9 0 10 -4 8 -12l-186 -686c-2 -10 -7 -12 -17 -12h-20c-9 0 -14 2 -17 11l-148 527c-8 28 -15 61 -21 91h-3c-6 -30 -14 -62 -22 -91l-149 -526c-2 -10 -7 -12 -17 -12h-20z
" />
    <glyph glyph-name="X" unicode="X" horiz-adv-x="638" 
d="M39 0c-11 0 -12 7 -6 15l256 345l-249 338c-4 6 -2 12 7 12h25c15 0 17 -2 24 -11l223 -302l223 302c7 9 10 11 23 11h26c9 0 11 -6 7 -12l-250 -337l257 -346c6 -8 5 -15 -5 -15h-27c-14 0 -17 1 -24 11l-232 314l-230 -314c-6 -10 -9 -11 -23 -11h-25z" />
    <glyph glyph-name="X" unicode="x" horiz-adv-x="638" 
d="M39 0c-11 0 -12 7 -6 15l256 345l-249 338c-4 6 -2 12 7 12h25c15 0 17 -2 24 -11l223 -302l223 302c7 9 10 11 23 11h26c9 0 11 -6 7 -12l-250 -337l257 -346c6 -8 5 -15 -5 -15h-27c-14 0 -17 1 -24 11l-232 314l-230 -314c-6 -10 -9 -11 -23 -11h-25z" />
    <glyph glyph-name="Y" unicode="Y" horiz-adv-x="650" 
d="M314 0c-9 0 -12 3 -12 13v280l-270 404c-4 7 -2 13 7 13h26c15 0 18 -1 24 -11l237 -359l237 359c6 10 9 11 24 11h25c9 0 11 -6 7 -13l-271 -406v-278c0 -10 -3 -13 -12 -13h-22z" />
    <glyph glyph-name="Y" unicode="y" horiz-adv-x="650" 
d="M314 0c-9 0 -12 3 -12 13v280l-270 404c-4 7 -2 13 7 13h26c15 0 18 -1 24 -11l237 -359l237 359c6 10 9 11 24 11h25c9 0 11 -6 7 -13l-271 -406v-278c0 -10 -3 -13 -12 -13h-22z" />
    <glyph glyph-name="Yacute" unicode="&#xdd;" horiz-adv-x="650" 
d="M248 765c-8 -3 -12 -3 -16 1l-7 8c-5 7 -5 10 2 14l169 107c8 4 16 6 22 -2l10 -11c6 -7 6 -11 -2 -15zM314 0c-9 0 -12 3 -12 13v280l-270 404c-4 7 -2 13 7 13h26c15 0 18 -1 24 -11l237 -359l237 359c6 10 9 11 24 11h25c9 0 11 -6 7 -13l-271 -406v-278
c0 -10 -3 -13 -12 -13h-22z" />
    <glyph glyph-name="Yacute" unicode="&#xfd;" horiz-adv-x="650" 
d="M248 765c-8 -3 -12 -3 -16 1l-7 8c-5 7 -5 10 2 14l169 107c8 4 16 6 22 -2l10 -11c6 -7 6 -11 -2 -15zM314 0c-9 0 -12 3 -12 13v280l-270 404c-4 7 -2 13 7 13h26c15 0 18 -1 24 -11l237 -359l237 359c6 10 9 11 24 11h25c9 0 11 -6 7 -13l-271 -406v-278
c0 -10 -3 -13 -12 -13h-22z" />
    <glyph glyph-name="Ycircumflex" unicode="&#x176;" horiz-adv-x="650" 
d="M173 764c-11 0 -11 5 -6 10l133 112c11 11 13 12 24 12h6c10 0 12 -1 23 -12l133 -112c5 -5 5 -10 -6 -10h-19c-10 0 -14 1 -20 7l-115 95l-115 -95c-7 -6 -10 -7 -20 -7h-18zM314 0c-9 0 -12 3 -12 13v280l-270 404c-4 7 -2 13 7 13h26c15 0 18 -1 24 -11l237 -359
l237 359c6 10 9 11 24 11h25c9 0 11 -6 7 -13l-271 -406v-278c0 -10 -3 -13 -12 -13h-22z" />
    <glyph glyph-name="Ycircumflex" unicode="&#x177;" horiz-adv-x="650" 
d="M173 764c-11 0 -11 5 -6 10l133 112c11 11 13 12 24 12h6c10 0 12 -1 23 -12l133 -112c5 -5 5 -10 -6 -10h-19c-10 0 -14 1 -20 7l-115 95l-115 -95c-7 -6 -10 -7 -20 -7h-18zM314 0c-9 0 -12 3 -12 13v280l-270 404c-4 7 -2 13 7 13h26c15 0 18 -1 24 -11l237 -359
l237 359c6 10 9 11 24 11h25c9 0 11 -6 7 -13l-271 -406v-278c0 -10 -3 -13 -12 -13h-22z" />
    <glyph glyph-name="Ydieresis" unicode="&#xff;" horiz-adv-x="650" 
d="M227 801c-17 0 -23 5 -23 22v7c0 17 6 23 23 23h6c19 0 23 -6 23 -23v-7c0 -17 -4 -22 -23 -22h-6zM419 801c-19 0 -24 5 -24 22v7c0 17 5 23 24 23h5c17 0 23 -6 23 -23v-7c0 -17 -6 -22 -23 -22h-5zM314 0c-9 0 -12 3 -12 13v280l-270 404c-4 7 -2 13 7 13h26
c15 0 18 -1 24 -11l237 -359l237 359c6 10 9 11 24 11h25c9 0 11 -6 7 -13l-271 -406v-278c0 -10 -3 -13 -12 -13h-22z" />
    <glyph glyph-name="Ydieresis" unicode="&#x178;" horiz-adv-x="650" 
d="M227 801c-17 0 -23 5 -23 22v7c0 17 6 23 23 23h6c19 0 23 -6 23 -23v-7c0 -17 -4 -22 -23 -22h-6zM419 801c-19 0 -24 5 -24 22v7c0 17 5 23 24 23h5c17 0 23 -6 23 -23v-7c0 -17 -6 -22 -23 -22h-5zM314 0c-9 0 -12 3 -12 13v280l-270 404c-4 7 -2 13 7 13h26
c15 0 18 -1 24 -11l237 -359l237 359c6 10 9 11 24 11h25c9 0 11 -6 7 -13l-271 -406v-278c0 -10 -3 -13 -12 -13h-22z" />
    <glyph glyph-name="Ygrave" unicode="&#x1ef2;" horiz-adv-x="650" 
d="M225 867c-8 4 -8 8 -2 15l10 11c7 8 14 6 22 2l173 -102c6 -4 7 -7 1 -14l-7 -8c-4 -5 -8 -5 -16 -1zM314 0c-9 0 -12 3 -12 13v280l-270 404c-4 7 -2 13 7 13h26c15 0 18 -1 24 -11l237 -359l237 359c6 10 9 11 24 11h25c9 0 11 -6 7 -13l-271 -406v-278
c0 -10 -3 -13 -12 -13h-22z" />
    <glyph glyph-name="Ygrave" unicode="&#x1ef3;" horiz-adv-x="650" 
d="M225 867c-8 4 -8 8 -2 15l10 11c7 8 14 6 22 2l173 -102c6 -4 7 -7 1 -14l-7 -8c-4 -5 -8 -5 -16 -1zM314 0c-9 0 -12 3 -12 13v280l-270 404c-4 7 -2 13 7 13h26c15 0 18 -1 24 -11l237 -359l237 359c6 10 9 11 24 11h25c9 0 11 -6 7 -13l-271 -406v-278
c0 -10 -3 -13 -12 -13h-22z" />
    <glyph glyph-name="Z" unicode="Z" horiz-adv-x="586" 
d="M60 0c-9 0 -12 3 -12 13v17c0 7 1 11 5 17l420 620h-409c-9 0 -12 3 -12 12v18c0 10 3 13 12 13h454c10 0 13 -3 13 -13v-16c0 -7 -1 -11 -5 -16l-421 -621h425c9 0 13 -3 13 -13v-18c0 -10 -4 -13 -13 -13h-470z" />
    <glyph glyph-name="Z" unicode="z" horiz-adv-x="586" 
d="M60 0c-9 0 -12 3 -12 13v17c0 7 1 11 5 17l420 620h-409c-9 0 -12 3 -12 12v18c0 10 3 13 12 13h454c10 0 13 -3 13 -13v-16c0 -7 -1 -11 -5 -16l-421 -621h425c9 0 13 -3 13 -13v-18c0 -10 -4 -13 -13 -13h-470z" />
    <glyph glyph-name="Zacute" unicode="&#x179;" horiz-adv-x="586" 
d="M219 765c-8 -3 -12 -3 -16 1l-7 8c-5 7 -5 10 2 14l169 107c8 4 16 6 22 -2l10 -11c6 -7 6 -11 -2 -15zM60 0c-9 0 -12 3 -12 13v17c0 7 1 11 5 17l420 620h-409c-9 0 -12 3 -12 12v18c0 10 3 13 12 13h454c10 0 13 -3 13 -13v-16c0 -7 -1 -11 -5 -16l-421 -621h425
c9 0 13 -3 13 -13v-18c0 -10 -4 -13 -13 -13h-470z" />
    <glyph glyph-name="Zacute" unicode="&#x17a;" horiz-adv-x="586" 
d="M219 765c-8 -3 -12 -3 -16 1l-7 8c-5 7 -5 10 2 14l169 107c8 4 16 6 22 -2l10 -11c6 -7 6 -11 -2 -15zM60 0c-9 0 -12 3 -12 13v17c0 7 1 11 5 17l420 620h-409c-9 0 -12 3 -12 12v18c0 10 3 13 12 13h454c10 0 13 -3 13 -13v-16c0 -7 -1 -11 -5 -16l-421 -621h425
c9 0 13 -3 13 -13v-18c0 -10 -4 -13 -13 -13h-470z" />
    <glyph glyph-name="Zcaron" unicode="&#x17d;" horiz-adv-x="586" 
d="M294 764c-11 0 -13 1 -24 12l-132 111c-5 4 -6 11 5 11h18c10 0 13 -1 20 -7l115 -95l115 95c6 6 10 7 20 7h19c11 0 10 -6 5 -11l-132 -111c-11 -11 -13 -12 -23 -12h-6zM60 0c-9 0 -12 3 -12 13v17c0 7 1 11 5 17l420 620h-409c-9 0 -12 3 -12 12v18c0 10 3 13 12 13
h454c10 0 13 -3 13 -13v-16c0 -7 -1 -11 -5 -16l-421 -621h425c9 0 13 -3 13 -13v-18c0 -10 -4 -13 -13 -13h-470z" />
    <glyph glyph-name="Zcaron" unicode="&#x17e;" horiz-adv-x="586" 
d="M294 764c-11 0 -13 1 -24 12l-132 111c-5 4 -6 11 5 11h18c10 0 13 -1 20 -7l115 -95l115 95c6 6 10 7 20 7h19c11 0 10 -6 5 -11l-132 -111c-11 -11 -13 -12 -23 -12h-6zM60 0c-9 0 -12 3 -12 13v17c0 7 1 11 5 17l420 620h-409c-9 0 -12 3 -12 12v18c0 10 3 13 12 13
h454c10 0 13 -3 13 -13v-16c0 -7 -1 -11 -5 -16l-421 -621h425c9 0 13 -3 13 -13v-18c0 -10 -4 -13 -13 -13h-470z" />
    <glyph glyph-name="Zdotaccent" unicode="&#x17b;" horiz-adv-x="586" 
d="M294 796c-18 0 -23 5 -23 24v5c0 19 5 24 23 24h5c18 0 24 -5 24 -24v-5c0 -18 -6 -24 -24 -24h-5zM60 0c-9 0 -12 3 -12 13v17c0 7 1 11 5 17l420 620h-409c-9 0 -12 3 -12 12v18c0 10 3 13 12 13h454c10 0 13 -3 13 -13v-16c0 -7 -1 -11 -5 -16l-421 -621h425
c9 0 13 -3 13 -13v-18c0 -10 -4 -13 -13 -13h-470z" />
    <glyph glyph-name="Zdotaccent" unicode="&#x17c;" horiz-adv-x="586" 
d="M294 796c-18 0 -23 5 -23 24v5c0 19 5 24 23 24h5c18 0 24 -5 24 -24v-5c0 -18 -6 -24 -24 -24h-5zM60 0c-9 0 -12 3 -12 13v17c0 7 1 11 5 17l420 620h-409c-9 0 -12 3 -12 12v18c0 10 3 13 12 13h454c10 0 13 -3 13 -13v-16c0 -7 -1 -11 -5 -16l-421 -621h425
c9 0 13 -3 13 -13v-18c0 -10 -4 -13 -13 -13h-470z" />
    <glyph glyph-name="uni1E9E.calt" horiz-adv-x="671" 
d="M397 406c137 0 210 -59 210 -206c0 -141 -77 -208 -237 -208c-48 0 -94 2 -153 26c-8 0 -13 4 -13 13v20c0 6 5 12 13 11c63 -27 103 -26 151 -26c135 0 190 51 190 168c0 111 -52 162 -165 162c-24 0 -43 1 -81 -5c-8 -1 -13 4 -13 12v18c0 6 1 10 6 16l204 260h-365
v-654c0 -10 -5 -13 -12 -13h-22c-9 0 -12 3 -12 13v684c0 10 3 13 12 13h443c9 0 12 -5 12 -13v-20c0 -6 -2 -11 -6 -16l-203 -257c13 2 25 2 41 2z" />
    <glyph glyph-name="ordfeminine" unicode="&#xaa;" horiz-adv-x="404" 
d="M198 355c-95 0 -126 32 -126 86c0 57 32 91 128 91c46 0 79 -4 91 -6v22c0 57 -20 91 -88 91c-41 0 -70 -16 -92 -47c-3 -4 -7 -4 -13 -2l-10 5c-10 5 -10 9 -5 16c27 40 69 59 121 59c94 0 122 -49 122 -124v-124c0 -31 -7 -40 -33 -52c-21 -10 -51 -15 -95 -15z
M197 384c38 0 59 5 74 11c16 7 20 12 20 32v71c-13 2 -46 6 -93 6c-72 0 -91 -24 -91 -62c0 -37 25 -58 90 -58z" />
    <glyph glyph-name="ordmasculine" unicode="&#xba;" horiz-adv-x="408" 
d="M203 356c-86 0 -131 44 -131 118v78c0 73 45 118 131 118c88 0 133 -45 133 -118v-78c0 -74 -45 -118 -133 -118zM203 389c64 0 97 31 97 84v80c0 52 -33 84 -97 84c-61 0 -95 -32 -95 -84v-80c0 -53 34 -84 95 -84z" />
    <glyph glyph-name="uni0410" unicode="&#x410;" horiz-adv-x="664" 
d="M37 0c-11 0 -12 5 -9 12l277 691c3 9 8 12 17 12h19c10 0 14 -3 17 -12l277 -691c4 -7 2 -12 -9 -12h-18c-15 0 -20 2 -23 11l-88 221h-332l-88 -221c-4 -9 -8 -11 -23 -11h-17zM483 271l-142 354c-6 20 -8 39 -9 44h-3c-1 -5 -2 -24 -8 -43l-142 -355h304z" />
    <glyph glyph-name="uni0410" unicode="&#x430;" horiz-adv-x="664" 
d="M37 0c-11 0 -12 5 -9 12l277 691c3 9 8 12 17 12h19c10 0 14 -3 17 -12l277 -691c4 -7 2 -12 -9 -12h-18c-15 0 -20 2 -23 11l-88 221h-332l-88 -221c-4 -9 -8 -11 -23 -11h-17zM483 271l-142 354c-6 20 -8 39 -9 44h-3c-1 -5 -2 -24 -8 -43l-142 -355h304z" />
    <glyph glyph-name="uni0411" unicode="&#x411;" horiz-adv-x="656" 
d="M110 0c-9 0 -12 3 -12 12v685c0 10 3 13 12 13h431c10 0 13 -3 13 -13v-18c0 -9 -3 -12 -13 -12h-397v-269h259c125 0 202 -72 202 -199c0 -126 -77 -199 -202 -199h-293zM398 43c100 0 159 57 159 156c0 100 -59 156 -159 156h-254v-312h254z" />
    <glyph glyph-name="uni0411" unicode="&#x431;" horiz-adv-x="656" 
d="M110 0c-9 0 -12 3 -12 12v685c0 10 3 13 12 13h431c10 0 13 -3 13 -13v-18c0 -9 -3 -12 -13 -12h-397v-269h259c125 0 202 -72 202 -199c0 -126 -77 -199 -202 -199h-293zM398 43c100 0 159 57 159 156c0 100 -59 156 -159 156h-254v-312h254z" />
    <glyph glyph-name="uni0412" unicode="&#x412;" horiz-adv-x="671" 
d="M110 0c-9 0 -12 3 -12 13v684c0 10 3 13 12 13h285c118 0 187 -63 187 -179c0 -85 -36 -140 -103 -164v-2c82 -18 128 -78 128 -176c0 -122 -77 -189 -199 -189h-298zM390 383c93 0 145 48 145 143c0 93 -51 141 -145 141h-246v-284h246zM406 43c97 0 152 52 152 150
c0 96 -55 148 -152 148h-262v-298h262z" />
    <glyph glyph-name="uni0412" unicode="&#x432;" horiz-adv-x="671" 
d="M110 0c-9 0 -12 3 -12 13v684c0 10 3 13 12 13h285c118 0 187 -63 187 -179c0 -85 -36 -140 -103 -164v-2c82 -18 128 -78 128 -176c0 -122 -77 -189 -199 -189h-298zM390 383c93 0 145 48 145 143c0 93 -51 141 -145 141h-246v-284h246zM406 43c97 0 152 52 152 150
c0 96 -55 148 -152 148h-262v-298h262z" />
    <glyph glyph-name="uni0413" unicode="&#x413;" horiz-adv-x="540" 
d="M110 0c-9 0 -12 3 -12 13v684c0 10 3 13 12 13h385c9 0 12 -3 12 -13v-18c0 -9 -3 -12 -12 -12h-351v-654c0 -10 -3 -13 -12 -13h-22z" />
    <glyph glyph-name="uni0413" unicode="&#x433;" horiz-adv-x="540" 
d="M110 0c-9 0 -12 3 -12 13v684c0 10 3 13 12 13h385c9 0 12 -3 12 -13v-18c0 -9 -3 -12 -12 -12h-351v-654c0 -10 -3 -13 -12 -13h-22z" />
    <glyph glyph-name="uni0414" unicode="&#x414;" horiz-adv-x="730" 
d="M41 -153c-9 0 -12 3 -12 13v171c0 9 3 12 12 12h42c47 33 110 93 110 453v201c0 10 3 13 12 13h394c10 0 13 -3 13 -13v-654h68c10 0 13 -3 13 -12v-171c0 -10 -3 -13 -13 -13h-20c-9 0 -13 3 -13 13v140h-573v-140c0 -10 -3 -13 -12 -13h-21zM566 43v624h-329v-171
c0 -327 -52 -411 -96 -453h425z" />
    <glyph glyph-name="uni0414" unicode="&#x434;" horiz-adv-x="730" 
d="M41 -153c-9 0 -12 3 -12 13v171c0 9 3 12 12 12h42c47 33 110 93 110 453v201c0 10 3 13 12 13h394c10 0 13 -3 13 -13v-654h68c10 0 13 -3 13 -12v-171c0 -10 -3 -13 -13 -13h-20c-9 0 -13 3 -13 13v140h-573v-140c0 -10 -3 -13 -12 -13h-21zM566 43v624h-329v-171
c0 -327 -52 -411 -96 -453h425z" />
    <glyph glyph-name="uni0415" unicode="&#x415;" horiz-adv-x="601" 
d="M110 0c-9 0 -12 3 -12 13v684c0 10 3 13 12 13h409c9 0 13 -3 13 -13v-18c0 -9 -4 -12 -13 -12h-375v-285h331c10 0 13 -4 13 -13v-18c0 -10 -3 -13 -13 -13h-331v-295h389c9 0 12 -3 12 -12v-18c0 -10 -3 -13 -12 -13h-423z" />
    <glyph glyph-name="uni0415" unicode="&#x435;" horiz-adv-x="601" 
d="M110 0c-9 0 -12 3 -12 13v684c0 10 3 13 12 13h409c9 0 13 -3 13 -13v-18c0 -9 -4 -12 -13 -12h-375v-285h331c10 0 13 -4 13 -13v-18c0 -10 -3 -13 -13 -13h-331v-295h389c9 0 12 -3 12 -12v-18c0 -10 -3 -13 -12 -13h-423z" />
    <glyph glyph-name="uni0401" unicode="&#x401;" horiz-adv-x="601" 
d="M216 801c-17 0 -23 5 -23 22v7c0 17 6 23 23 23h6c19 0 23 -6 23 -23v-7c0 -17 -4 -22 -23 -22h-6zM408 801c-19 0 -24 5 -24 22v7c0 17 5 23 24 23h5c17 0 23 -6 23 -23v-7c0 -17 -6 -22 -23 -22h-5zM110 0c-9 0 -12 3 -12 13v684c0 10 3 13 12 13h409c9 0 13 -3 13 -13
v-18c0 -9 -4 -12 -13 -12h-375v-285h331c10 0 13 -4 13 -13v-18c0 -10 -3 -13 -13 -13h-331v-295h389c9 0 12 -3 12 -12v-18c0 -10 -3 -13 -12 -13h-423z" />
    <glyph glyph-name="uni0401" unicode="&#x451;" horiz-adv-x="601" 
d="M216 801c-17 0 -23 5 -23 22v7c0 17 6 23 23 23h6c19 0 23 -6 23 -23v-7c0 -17 -4 -22 -23 -22h-6zM408 801c-19 0 -24 5 -24 22v7c0 17 5 23 24 23h5c17 0 23 -6 23 -23v-7c0 -17 -6 -22 -23 -22h-5zM110 0c-9 0 -12 3 -12 13v684c0 10 3 13 12 13h409c9 0 13 -3 13 -13
v-18c0 -9 -4 -12 -13 -12h-375v-285h331c10 0 13 -4 13 -13v-18c0 -10 -3 -13 -13 -13h-331v-295h389c9 0 12 -3 12 -12v-18c0 -10 -3 -13 -12 -13h-423z" />
    <glyph glyph-name="uni0416" unicode="&#x416;" horiz-adv-x="937" 
d="M45 0c-10 0 -12 6 -8 13l127 249c27 53 57 87 107 103l-223 332c-5 7 -3 13 7 13h22c15 0 20 -1 26 -11l214 -320c14 2 28 2 44 2h84v316c0 10 3 13 13 13h21c9 0 12 -3 12 -13v-316h84c17 0 31 0 44 -2l215 320c6 10 10 11 25 11h23c10 0 12 -6 7 -13l-224 -332
c50 -16 81 -50 108 -103l126 -249c5 -7 3 -13 -7 -13h-20c-16 0 -20 2 -25 11l-117 233c-33 66 -71 95 -155 95h-84v-326c0 -10 -3 -13 -12 -13h-21c-10 0 -13 3 -13 13v326h-84c-84 0 -121 -29 -155 -95l-116 -233c-5 -9 -10 -11 -25 -11h-20z" />
    <glyph glyph-name="uni0416" unicode="&#x436;" horiz-adv-x="937" 
d="M45 0c-10 0 -12 6 -8 13l127 249c27 53 57 87 107 103l-223 332c-5 7 -3 13 7 13h22c15 0 20 -1 26 -11l214 -320c14 2 28 2 44 2h84v316c0 10 3 13 13 13h21c9 0 12 -3 12 -13v-316h84c17 0 31 0 44 -2l215 320c6 10 10 11 25 11h23c10 0 12 -6 7 -13l-224 -332
c50 -16 81 -50 108 -103l126 -249c5 -7 3 -13 -7 -13h-20c-16 0 -20 2 -25 11l-117 233c-33 66 -71 95 -155 95h-84v-326c0 -10 -3 -13 -12 -13h-21c-10 0 -13 3 -13 13v326h-84c-84 0 -121 -29 -155 -95l-116 -233c-5 -9 -10 -11 -25 -11h-20z" />
    <glyph glyph-name="uni0417" unicode="&#x417;" horiz-adv-x="644" 
d="M331 -14c-165 0 -241 64 -274 178c-3 9 -1 13 8 16l19 7c9 4 13 1 17 -8c30 -99 88 -150 230 -150c138 0 201 62 201 164c0 90 -51 150 -146 150h-188c-10 0 -13 3 -13 12v17c0 10 3 13 13 13h183c94 0 132 66 132 139c0 101 -63 157 -184 157c-134 0 -192 -47 -222 -146
c-4 -9 -8 -10 -17 -7l-19 6c-9 3 -11 7 -8 17c33 113 108 173 268 173c150 0 228 -73 228 -197c0 -70 -28 -135 -96 -160c81 -25 117 -90 117 -175c0 -127 -79 -206 -249 -206z" />
    <glyph glyph-name="uni0417" unicode="&#x437;" horiz-adv-x="644" 
d="M331 -14c-165 0 -241 64 -274 178c-3 9 -1 13 8 16l19 7c9 4 13 1 17 -8c30 -99 88 -150 230 -150c138 0 201 62 201 164c0 90 -51 150 -146 150h-188c-10 0 -13 3 -13 12v17c0 10 3 13 13 13h183c94 0 132 66 132 139c0 101 -63 157 -184 157c-134 0 -192 -47 -222 -146
c-4 -9 -8 -10 -17 -7l-19 6c-9 3 -11 7 -8 17c33 113 108 173 268 173c150 0 228 -73 228 -197c0 -70 -28 -135 -96 -160c81 -25 117 -90 117 -175c0 -127 -79 -206 -249 -206z" />
    <glyph glyph-name="uni0418" unicode="&#x418;" horiz-adv-x="722" 
d="M110 0c-9 0 -12 3 -12 13v684c0 10 3 13 12 13h22c9 0 12 -3 12 -13v-428c0 -77 -2 -134 -7 -206h2c38 64 74 118 118 183l320 457c2 3 6 7 14 7h21c9 0 12 -3 12 -13v-684c0 -10 -3 -13 -12 -13h-22c-9 0 -12 3 -12 13v442c0 73 2 125 8 192h-2
c-36 -60 -69 -108 -110 -169l-328 -470c-5 -7 -8 -8 -15 -8h-21z" />
    <glyph glyph-name="uni0418" unicode="&#x438;" horiz-adv-x="722" 
d="M110 0c-9 0 -12 3 -12 13v684c0 10 3 13 12 13h22c9 0 12 -3 12 -13v-428c0 -77 -2 -134 -7 -206h2c38 64 74 118 118 183l320 457c2 3 6 7 14 7h21c9 0 12 -3 12 -13v-684c0 -10 -3 -13 -12 -13h-22c-9 0 -12 3 -12 13v442c0 73 2 125 8 192h-2
c-36 -60 -69 -108 -110 -169l-328 -470c-5 -7 -8 -8 -15 -8h-21z" />
    <glyph glyph-name="uni0419" unicode="&#x419;" horiz-adv-x="691" 
d="M365 770c-84 0 -135 35 -158 109c-2 6 0 9 6 11l17 6c8 2 11 1 13 -5c18 -61 56 -88 122 -88s105 27 123 88c2 6 5 7 11 5l19 -6c6 -2 8 -5 6 -11c-23 -74 -74 -109 -159 -109zM110 0c-9 0 -12 3 -12 13v684c0 10 3 13 12 13h22c9 0 12 -3 12 -13v-428
c0 -77 -2 -134 -7 -206h2c38 64 74 118 118 183l320 457c2 3 6 7 14 7h21c9 0 12 -3 12 -13v-684c0 -10 -3 -13 -12 -13h-22c-9 0 -12 3 -12 13v442c0 73 2 125 8 192h-2c-36 -60 -69 -108 -110 -169l-328 -470c-5 -7 -8 -8 -15 -8h-21z" />
    <glyph glyph-name="uni0419" unicode="&#x439;" horiz-adv-x="691" 
d="M365 770c-84 0 -135 35 -158 109c-2 6 0 9 6 11l17 6c8 2 11 1 13 -5c18 -61 56 -88 122 -88s105 27 123 88c2 6 5 7 11 5l19 -6c6 -2 8 -5 6 -11c-23 -74 -74 -109 -159 -109zM110 0c-9 0 -12 3 -12 13v684c0 10 3 13 12 13h22c9 0 12 -3 12 -13v-428
c0 -77 -2 -134 -7 -206h2c38 64 74 118 118 183l320 457c2 3 6 7 14 7h21c9 0 12 -3 12 -13v-684c0 -10 -3 -13 -12 -13h-22c-9 0 -12 3 -12 13v442c0 73 2 125 8 192h-2c-36 -60 -69 -108 -110 -169l-328 -470c-5 -7 -8 -8 -15 -8h-21z" />
    <glyph glyph-name="uni041A" unicode="&#x41a;" horiz-adv-x="631" 
d="M110 0c-9 0 -12 3 -12 13v684c0 10 3 13 12 13h22c9 0 12 -3 12 -13v-316h149l236 318c7 9 11 11 26 11h22c11 0 12 -6 7 -13l-243 -325c61 -14 97 -49 127 -110l127 -249c4 -7 2 -13 -7 -13h-20c-16 0 -21 2 -26 11l-116 233c-34 66 -71 95 -155 95h-127v-326
c0 -10 -3 -13 -12 -13h-22z" />
    <glyph glyph-name="uni041A" unicode="&#x43a;" horiz-adv-x="631" 
d="M110 0c-9 0 -12 3 -12 13v684c0 10 3 13 12 13h22c9 0 12 -3 12 -13v-316h149l236 318c7 9 11 11 26 11h22c11 0 12 -6 7 -13l-243 -325c61 -14 97 -49 127 -110l127 -249c4 -7 2 -13 -7 -13h-20c-16 0 -21 2 -26 11l-116 233c-34 66 -71 95 -155 95h-127v-326
c0 -10 -3 -13 -12 -13h-22z" />
    <glyph glyph-name="uni041B" unicode="&#x41b;" horiz-adv-x="678" 
d="M47 -12c-7 -4 -12 -3 -17 5l-9 19c-5 9 -3 13 6 17c79 40 136 70 136 436v232c0 10 3 13 13 13h392c9 0 12 -3 12 -13v-684c0 -10 -3 -13 -12 -13h-22c-9 0 -12 3 -12 13v654h-325v-202c0 -399 -72 -432 -162 -477z" />
    <glyph glyph-name="uni041B" unicode="&#x43b;" horiz-adv-x="678" 
d="M47 -12c-7 -4 -12 -3 -17 5l-9 19c-5 9 -3 13 6 17c79 40 136 70 136 436v232c0 10 3 13 13 13h392c9 0 12 -3 12 -13v-684c0 -10 -3 -13 -12 -13h-22c-9 0 -12 3 -12 13v654h-325v-202c0 -399 -72 -432 -162 -477z" />
    <glyph glyph-name="uni041C" unicode="&#x41c;" horiz-adv-x="827" 
d="M110 0c-9 0 -12 3 -12 13v684c0 10 3 13 12 13h17c11 0 14 -3 19 -11l268 -473l265 472c5 9 9 12 19 12h18c10 0 13 -3 13 -13v-684c0 -10 -3 -13 -13 -13h-19c-10 0 -13 3 -13 13l1 458c0 53 2 109 7 167h-3c-24 -51 -48 -96 -74 -142l-178 -316c-5 -8 -8 -11 -16 -11
h-14c-9 0 -12 2 -17 11l-180 320c-27 45 -48 88 -72 139h-2c4 -59 6 -113 6 -168v-458c0 -10 -3 -13 -13 -13h-19z" />
    <glyph glyph-name="uni041C" unicode="&#x43c;" horiz-adv-x="827" 
d="M110 0c-9 0 -12 3 -12 13v684c0 10 3 13 12 13h17c11 0 14 -3 19 -11l268 -473l265 472c5 9 9 12 19 12h18c10 0 13 -3 13 -13v-684c0 -10 -3 -13 -13 -13h-19c-10 0 -13 3 -13 13l1 458c0 53 2 109 7 167h-3c-24 -51 -48 -96 -74 -142l-178 -316c-5 -8 -8 -11 -16 -11
h-14c-9 0 -12 2 -17 11l-180 320c-27 45 -48 88 -72 139h-2c4 -59 6 -113 6 -168v-458c0 -10 -3 -13 -13 -13h-19z" />
    <glyph glyph-name="uni041D" unicode="&#x41d;" horiz-adv-x="710" 
d="M110 0c-9 0 -12 3 -12 13v684c0 10 3 13 12 13h22c9 0 12 -3 12 -13v-315h422v315c0 10 3 13 13 13h21c9 0 13 -3 13 -13v-684c0 -10 -4 -13 -13 -13h-21c-10 0 -13 3 -13 13v325h-422v-325c0 -10 -3 -13 -12 -13h-22z" />
    <glyph glyph-name="uni041D" unicode="&#x43d;" horiz-adv-x="710" 
d="M110 0c-9 0 -12 3 -12 13v684c0 10 3 13 12 13h22c9 0 12 -3 12 -13v-315h422v315c0 10 3 13 13 13h21c9 0 13 -3 13 -13v-684c0 -10 -4 -13 -13 -13h-21c-10 0 -13 3 -13 13v325h-422v-325c0 -10 -3 -13 -12 -13h-22z" />
    <glyph glyph-name="uni041E" unicode="&#x41e;" horiz-adv-x="691" 
d="M346 -14c-176 0 -270 94 -270 247v244c0 153 94 247 270 247c175 0 269 -94 269 -247v-244c0 -153 -94 -247 -269 -247zM346 29c145 0 223 77 223 205v242c0 128 -78 205 -223 205c-146 0 -223 -77 -223 -205v-242c0 -128 77 -205 223 -205z" />
    <glyph glyph-name="uni041E" unicode="&#x43e;" horiz-adv-x="691" 
d="M346 -14c-176 0 -270 94 -270 247v244c0 153 94 247 270 247c175 0 269 -94 269 -247v-244c0 -153 -94 -247 -269 -247zM346 29c145 0 223 77 223 205v242c0 128 -78 205 -223 205c-146 0 -223 -77 -223 -205v-242c0 -128 77 -205 223 -205z" />
    <glyph glyph-name="uni041F" unicode="&#x41f;" horiz-adv-x="704" 
d="M110 0c-9 0 -12 3 -12 13v684c0 10 3 13 12 13h483c10 0 13 -3 13 -13v-684c0 -10 -3 -13 -13 -13h-21c-9 0 -12 3 -12 13v654h-416v-654c0 -10 -3 -13 -12 -13h-22z" />
    <glyph glyph-name="uni041F" unicode="&#x43f;" horiz-adv-x="704" 
d="M110 0c-9 0 -12 3 -12 13v684c0 10 3 13 12 13h483c10 0 13 -3 13 -13v-684c0 -10 -3 -13 -13 -13h-21c-9 0 -12 3 -12 13v654h-416v-654c0 -10 -3 -13 -12 -13h-22z" />
    <glyph glyph-name="uni0420" unicode="&#x420;" horiz-adv-x="649" 
d="M110 0c-9 0 -12 3 -12 13v684c0 10 3 13 12 13h270c135 0 221 -81 221 -218c0 -135 -86 -216 -221 -216h-236v-263c0 -10 -3 -13 -12 -13h-22zM375 320c110 0 177 63 177 172c0 110 -67 175 -177 175h-231v-347h231z" />
    <glyph glyph-name="uni0420" unicode="&#x440;" horiz-adv-x="649" 
d="M110 0c-9 0 -12 3 -12 13v684c0 10 3 13 12 13h270c135 0 221 -81 221 -218c0 -135 -86 -216 -221 -216h-236v-263c0 -10 -3 -13 -12 -13h-22zM375 320c110 0 177 63 177 172c0 110 -67 175 -177 175h-231v-347h231z" />
    <glyph glyph-name="uni0421" unicode="&#x421;" horiz-adv-x="665" 
d="M346 -14c-174 0 -270 94 -270 247v245c0 152 93 246 270 246c154 0 229 -60 262 -174c4 -10 1 -13 -8 -17l-19 -6c-9 -2 -13 -2 -17 8c-29 99 -89 146 -218 146c-148 0 -223 -77 -223 -202v-247c0 -125 77 -203 223 -203c133 0 191 52 221 151c3 9 7 11 16 8l19 -7
c9 -3 12 -7 9 -17c-34 -113 -106 -178 -265 -178z" />
    <glyph glyph-name="uni0421" unicode="&#x441;" horiz-adv-x="665" 
d="M346 -14c-174 0 -270 94 -270 247v245c0 152 93 246 270 246c154 0 229 -60 262 -174c4 -10 1 -13 -8 -17l-19 -6c-9 -2 -13 -2 -17 8c-29 99 -89 146 -218 146c-148 0 -223 -77 -223 -202v-247c0 -125 77 -203 223 -203c133 0 191 52 221 151c3 9 7 11 16 8l19 -7
c9 -3 12 -7 9 -17c-34 -113 -106 -178 -265 -178z" />
    <glyph glyph-name="uni0422" unicode="&#x422;" horiz-adv-x="577" 
d="M278 0c-9 0 -12 3 -12 13v654h-225c-9 0 -12 3 -12 12v18c0 10 3 13 12 13h495c9 0 12 -3 12 -13v-18c0 -9 -3 -12 -12 -12h-224v-654c0 -10 -3 -13 -13 -13h-21z" />
    <glyph glyph-name="uni0422" unicode="&#x442;" horiz-adv-x="577" 
d="M278 0c-9 0 -12 3 -12 13v654h-225c-9 0 -12 3 -12 12v18c0 10 3 13 12 13h495c9 0 12 -3 12 -13v-18c0 -9 -3 -12 -12 -12h-224v-654c0 -10 -3 -13 -13 -13h-21z" />
    <glyph glyph-name="uni0423" unicode="&#x423;" horiz-adv-x="614" 
d="M196 0c-10 0 -11 5 -7 13l97 188l-263 496c-4 7 -2 13 7 13h22c14 0 18 -1 24 -11l235 -448l226 448c5 10 8 11 22 11h22c9 0 10 -6 7 -13l-346 -686c-5 -9 -9 -11 -22 -11h-24z" />
    <glyph glyph-name="uni0423" unicode="&#x443;" horiz-adv-x="614" 
d="M196 0c-10 0 -11 5 -7 13l97 188l-263 496c-4 7 -2 13 7 13h22c14 0 18 -1 24 -11l235 -448l226 448c5 10 8 11 22 11h22c9 0 10 -6 7 -13l-346 -686c-5 -9 -9 -11 -22 -11h-24z" />
    <glyph glyph-name="uni0424" unicode="&#x424;" horiz-adv-x="855" 
d="M417 -20c-9 0 -13 3 -13 12v73h-68c-176 0 -270 96 -270 254v77c0 158 94 254 270 254h68v72c0 10 4 13 13 13h21c10 0 13 -3 13 -13v-72h68c176 0 270 -96 270 -254v-77c0 -158 -94 -254 -270 -254h-68v-73c0 -9 -3 -12 -13 -12h-21zM404 107v501h-68
c-148 0 -224 -79 -224 -211v-79c0 -132 76 -211 224 -211h68zM519 107c148 0 224 79 224 211v79c0 132 -76 211 -224 211h-68v-501h68z" />
    <glyph glyph-name="uni0424" unicode="&#x444;" horiz-adv-x="855" 
d="M417 -20c-9 0 -13 3 -13 12v73h-68c-176 0 -270 96 -270 254v77c0 158 94 254 270 254h68v72c0 10 4 13 13 13h21c10 0 13 -3 13 -13v-72h68c176 0 270 -96 270 -254v-77c0 -158 -94 -254 -270 -254h-68v-73c0 -9 -3 -12 -13 -12h-21zM404 107v501h-68
c-148 0 -224 -79 -224 -211v-79c0 -132 76 -211 224 -211h68zM519 107c148 0 224 79 224 211v79c0 132 -76 211 -224 211h-68v-501h68z" />
    <glyph glyph-name="uni0425" unicode="&#x425;" horiz-adv-x="638" 
d="M39 0c-11 0 -12 7 -6 15l256 345l-249 338c-4 6 -2 12 7 12h25c15 0 17 -2 24 -11l223 -302l223 302c7 9 10 11 23 11h26c9 0 11 -6 7 -12l-250 -337l257 -346c6 -8 5 -15 -5 -15h-27c-14 0 -17 1 -24 11l-232 314l-230 -314c-6 -10 -9 -11 -23 -11h-25z" />
    <glyph glyph-name="uni0425" unicode="&#x445;" horiz-adv-x="638" 
d="M39 0c-11 0 -12 7 -6 15l256 345l-249 338c-4 6 -2 12 7 12h25c15 0 17 -2 24 -11l223 -302l223 302c7 9 10 11 23 11h26c9 0 11 -6 7 -12l-250 -337l257 -346c6 -8 5 -15 -5 -15h-27c-14 0 -17 1 -24 11l-232 314l-230 -314c-6 -10 -9 -11 -23 -11h-25z" />
    <glyph glyph-name="uni0427" unicode="&#x427;" horiz-adv-x="654" 
d="M522 0c-9 0 -12 3 -12 13v281c-16 -4 -100 -22 -203 -22c-184 0 -249 89 -249 245v180c0 10 3 13 12 13h21c10 0 13 -3 13 -13v-180c0 -131 51 -202 205 -202c100 0 185 19 201 23v359c0 10 3 13 12 13h22c9 0 12 -3 12 -13v-684c0 -10 -3 -13 -12 -13h-22z" />
    <glyph glyph-name="uni0427" unicode="&#x447;" horiz-adv-x="654" 
d="M522 0c-9 0 -12 3 -12 13v281c-16 -4 -100 -22 -203 -22c-184 0 -249 89 -249 245v180c0 10 3 13 12 13h21c10 0 13 -3 13 -13v-180c0 -131 51 -202 205 -202c100 0 185 19 201 23v359c0 10 3 13 12 13h22c9 0 12 -3 12 -13v-684c0 -10 -3 -13 -12 -13h-22z" />
    <glyph glyph-name="uni0426" unicode="&#x426;" horiz-adv-x="721" 
d="M651 -153c-10 0 -13 3 -13 13v140h-528c-9 0 -12 3 -12 13v684c0 10 3 13 12 13h22c9 0 12 -3 12 -13v-654h412v654c0 10 3 13 13 13h21c9 0 13 -3 13 -13v-654h67c10 0 13 -3 13 -12v-171c0 -10 -3 -13 -13 -13h-19z" />
    <glyph glyph-name="uni0426" unicode="&#x446;" horiz-adv-x="721" 
d="M651 -153c-10 0 -13 3 -13 13v140h-528c-9 0 -12 3 -12 13v684c0 10 3 13 12 13h22c9 0 12 -3 12 -13v-654h412v654c0 10 3 13 13 13h21c9 0 13 -3 13 -13v-654h67c10 0 13 -3 13 -12v-171c0 -10 -3 -13 -13 -13h-19z" />
    <glyph glyph-name="uni0428" unicode="&#x428;" horiz-adv-x="935" 
d="M110 0c-9 0 -12 3 -12 13v684c0 10 3 13 12 13h22c9 0 12 -3 12 -13v-654h301v654c0 10 3 13 12 13h21c10 0 13 -3 13 -13v-654h300v654c0 10 3 13 13 13h21c10 0 13 -3 13 -13v-684c0 -10 -3 -13 -13 -13h-715z" />
    <glyph glyph-name="uni0428" unicode="&#x448;" horiz-adv-x="935" 
d="M110 0c-9 0 -12 3 -12 13v684c0 10 3 13 12 13h22c9 0 12 -3 12 -13v-654h301v654c0 10 3 13 12 13h21c10 0 13 -3 13 -13v-654h300v654c0 10 3 13 13 13h21c10 0 13 -3 13 -13v-684c0 -10 -3 -13 -13 -13h-715z" />
    <glyph glyph-name="uni0429" unicode="&#x429;" horiz-adv-x="956" 
d="M887 -153c-9 0 -12 3 -12 13v140h-765c-9 0 -12 3 -12 13v684c0 10 3 13 12 13h22c9 0 12 -3 12 -13v-654h301v654c0 10 3 13 12 13h21c10 0 13 -3 13 -13v-654h300v654c0 10 3 13 13 13h21c10 0 13 -3 13 -13v-654h69c10 0 13 -3 13 -12v-171c0 -10 -3 -13 -13 -13h-20z
" />
    <glyph glyph-name="uni0429" unicode="&#x449;" horiz-adv-x="956" 
d="M887 -153c-9 0 -12 3 -12 13v140h-765c-9 0 -12 3 -12 13v684c0 10 3 13 12 13h22c9 0 12 -3 12 -13v-654h301v654c0 10 3 13 12 13h21c10 0 13 -3 13 -13v-654h300v654c0 10 3 13 13 13h21c10 0 13 -3 13 -13v-654h69c10 0 13 -3 13 -12v-171c0 -10 -3 -13 -13 -13h-20z
" />
    <glyph glyph-name="uni042C" unicode="&#x42c;" horiz-adv-x="649" 
d="M110 0c-9 0 -12 3 -12 13v684c0 10 3 13 12 13h22c9 0 12 -3 12 -13v-263h236c135 0 221 -81 221 -216c0 -137 -86 -218 -221 -218h-270zM375 43c110 0 177 65 177 175c0 109 -67 172 -177 172h-231v-347h231z" />
    <glyph glyph-name="uni042C" unicode="&#x44c;" horiz-adv-x="649" 
d="M110 0c-9 0 -12 3 -12 13v684c0 10 3 13 12 13h22c9 0 12 -3 12 -13v-263h236c135 0 221 -81 221 -216c0 -137 -86 -218 -221 -218h-270zM375 43c110 0 177 65 177 175c0 109 -67 172 -177 172h-231v-347h231z" />
    <glyph glyph-name="uni042A" unicode="&#x42a;" horiz-adv-x="753" 
d="M214 0c-9 0 -12 3 -12 13v654h-161c-9 0 -13 3 -13 12v18c0 10 4 13 13 13h195c9 0 12 -3 12 -13v-263h236c135 0 221 -81 221 -216c0 -137 -86 -218 -221 -218h-270zM480 43c109 0 177 65 177 175c0 109 -68 172 -177 172h-232v-347h232z" />
    <glyph glyph-name="uni042A" unicode="&#x44a;" horiz-adv-x="753" 
d="M214 0c-9 0 -12 3 -12 13v654h-161c-9 0 -13 3 -13 12v18c0 10 4 13 13 13h195c9 0 12 -3 12 -13v-263h236c135 0 221 -81 221 -216c0 -137 -86 -218 -221 -218h-270zM480 43c109 0 177 65 177 175c0 109 -68 172 -177 172h-232v-347h232z" />
    <glyph glyph-name="uni042B" unicode="&#x42b;" horiz-adv-x="873" 
d="M110 0c-9 0 -12 3 -12 13v684c0 10 3 13 12 13h22c9 0 12 -3 12 -13v-263h236c135 0 221 -81 221 -216c0 -137 -86 -218 -221 -218h-270zM741 0c-9 0 -12 3 -12 13v684c0 10 3 13 12 13h22c9 0 12 -3 12 -13v-684c0 -10 -3 -13 -12 -13h-22zM375 43c110 0 177 65 177 175
c0 109 -67 172 -177 172h-231v-347h231z" />
    <glyph glyph-name="uni042B" unicode="&#x44b;" horiz-adv-x="873" 
d="M110 0c-9 0 -12 3 -12 13v684c0 10 3 13 12 13h22c9 0 12 -3 12 -13v-263h236c135 0 221 -81 221 -216c0 -137 -86 -218 -221 -218h-270zM741 0c-9 0 -12 3 -12 13v684c0 10 3 13 12 13h22c9 0 12 -3 12 -13v-684c0 -10 -3 -13 -12 -13h-22zM375 43c110 0 177 65 177 175
c0 109 -67 172 -177 172h-231v-347h231z" />
    <glyph glyph-name="uni042D" unicode="&#x42d;" horiz-adv-x="670" 
d="M324 -14c-159 0 -231 64 -265 178c-3 9 -1 13 8 16l19 7c9 4 14 1 17 -8c30 -99 88 -150 221 -150c145 0 222 77 222 202v107h-327c-9 0 -13 3 -13 12v18c0 10 4 13 13 13h327v99c0 125 -74 201 -222 201c-130 0 -189 -47 -219 -146c-3 -9 -7 -10 -16 -7l-19 6
c-9 3 -12 7 -9 17c34 113 108 173 263 173c177 0 270 -93 270 -245v-247c0 -153 -96 -246 -270 -246z" />
    <glyph glyph-name="uni042D" unicode="&#x44d;" horiz-adv-x="670" 
d="M324 -14c-159 0 -231 64 -265 178c-3 9 -1 13 8 16l19 7c9 4 14 1 17 -8c30 -99 88 -150 221 -150c145 0 222 77 222 202v107h-327c-9 0 -13 3 -13 12v18c0 10 4 13 13 13h327v99c0 125 -74 201 -222 201c-130 0 -189 -47 -219 -146c-3 -9 -7 -10 -16 -7l-19 6
c-9 3 -12 7 -9 17c34 113 108 173 263 173c177 0 270 -93 270 -245v-247c0 -153 -96 -246 -270 -246z" />
    <glyph glyph-name="uni042E" unicode="&#x42e;" horiz-adv-x="944" 
d="M602 -14c-174 0 -266 93 -266 245v107h-192v-325c0 -10 -3 -13 -12 -13h-22c-9 0 -12 3 -12 13v684c0 10 3 13 12 13h22c9 0 12 -3 12 -13v-315h192v97c0 152 92 245 266 245c173 0 266 -93 266 -245v-248c0 -152 -93 -245 -266 -245zM602 29c143 0 219 76 219 203v246
c0 127 -76 203 -219 203c-144 0 -220 -76 -220 -203v-246c0 -127 76 -203 220 -203z" />
    <glyph glyph-name="uni042E" unicode="&#x44e;" horiz-adv-x="944" 
d="M602 -14c-174 0 -266 93 -266 245v107h-192v-325c0 -10 -3 -13 -12 -13h-22c-9 0 -12 3 -12 13v684c0 10 3 13 12 13h22c9 0 12 -3 12 -13v-315h192v97c0 152 92 245 266 245c173 0 266 -93 266 -245v-248c0 -152 -93 -245 -266 -245zM602 29c143 0 219 76 219 203v246
c0 127 -76 203 -219 203c-144 0 -220 -76 -220 -203v-246c0 -127 76 -203 220 -203z" />
    <glyph glyph-name="uni042F" unicode="&#x42f;" horiz-adv-x="670" 
d="M62 0c-9 0 -11 6 -7 13l107 222c19 40 41 67 75 82c-105 12 -167 79 -167 193c0 127 76 200 203 200h287c10 0 13 -3 13 -13v-684c0 -10 -3 -13 -13 -13h-21c-10 0 -13 3 -13 13v299h-168c-84 0 -122 -28 -154 -95l-96 -206c-5 -9 -10 -11 -26 -11h-20zM526 355v312h-249
c-101 0 -159 -57 -159 -157s59 -155 159 -155h249z" />
    <glyph glyph-name="uni042F" unicode="&#x44f;" horiz-adv-x="670" 
d="M62 0c-9 0 -11 6 -7 13l107 222c19 40 41 67 75 82c-105 12 -167 79 -167 193c0 127 76 200 203 200h287c10 0 13 -3 13 -13v-684c0 -10 -3 -13 -13 -13h-21c-10 0 -13 3 -13 13v299h-168c-84 0 -122 -28 -154 -95l-96 -206c-5 -9 -10 -11 -26 -11h-20zM526 355v312h-249
c-101 0 -159 -57 -159 -157s59 -155 159 -155h249z" />
    <glyph glyph-name="uni0414.loclBGR" horiz-adv-x="729" 
d="M43 -153c-9 0 -12 3 -12 13v171c0 9 3 12 12 12h42l252 655c3 9 7 12 17 12h19c9 0 14 -3 17 -11l252 -656h44c9 0 12 -3 12 -12v-171c0 -10 -3 -13 -12 -13h-21c-9 0 -12 3 -12 13v140h-576v-140c0 -10 -4 -13 -13 -13h-21zM592 43l-177 465c-21 58 -36 115 -50 155h-3
c-15 -40 -29 -97 -51 -155l-177 -465h458z" />
    <glyph glyph-name="uni041B.loclBGR" horiz-adv-x="644" 
d="M37 0c-11 0 -12 5 -9 12l267 686c3 9 8 12 17 12h19c10 0 14 -3 17 -11l267 -687c4 -7 2 -12 -9 -12h-17c-15 0 -20 2 -23 11l-191 497c-21 58 -37 115 -52 155h-3c-15 -39 -31 -97 -52 -154l-191 -498c-3 -9 -8 -11 -22 -11h-18z" />
    <glyph glyph-name="uni0424.loclBGR" horiz-adv-x="872" 
d="M425 -87c-9 0 -12 3 -12 12v74h-69c-176 0 -270 96 -270 254v204c0 158 94 254 270 254h69v74c0 9 3 12 12 12h22c9 0 12 -3 12 -12v-74h69c176 0 270 -96 270 -254v-204c0 -158 -94 -254 -270 -254h-69v-74c0 -9 -3 -12 -12 -12h-22zM413 41v628h-69
c-147 0 -223 -79 -223 -211v-206c0 -132 76 -211 223 -211h69zM528 41c147 0 223 79 223 211v206c0 132 -76 211 -223 211h-69v-628h69z" />
    <glyph glyph-name="uni0414.ss01" horiz-adv-x="729" 
d="M43 -153c-9 0 -12 3 -12 13v171c0 9 3 12 12 12h42l252 655c3 9 7 12 17 12h19c9 0 14 -3 17 -11l252 -656h44c9 0 12 -3 12 -12v-171c0 -10 -3 -13 -12 -13h-21c-9 0 -12 3 -12 13v140h-576v-140c0 -10 -4 -13 -13 -13h-21zM592 43l-177 465c-21 58 -36 115 -50 155h-3
c-15 -40 -29 -97 -51 -155l-177 -465h458z" />
    <glyph glyph-name="uni041B.ss01" horiz-adv-x="644" 
d="M37 0c-11 0 -12 5 -9 12l267 686c3 9 8 12 17 12h19c10 0 14 -3 17 -11l267 -687c4 -7 2 -12 -9 -12h-17c-15 0 -20 2 -23 11l-191 497c-21 58 -37 115 -52 155h-3c-15 -39 -31 -97 -52 -154l-191 -498c-3 -9 -8 -11 -22 -11h-18z" />
    <glyph glyph-name="uni0424.ss01" horiz-adv-x="872" 
d="M425 -87c-9 0 -12 3 -12 12v74h-69c-176 0 -270 96 -270 254v204c0 158 94 254 270 254h69v74c0 9 3 12 12 12h22c9 0 12 -3 12 -12v-74h69c176 0 270 -96 270 -254v-204c0 -158 -94 -254 -270 -254h-69v-74c0 -9 -3 -12 -12 -12h-22zM413 41v628h-69
c-147 0 -223 -79 -223 -211v-206c0 -132 76 -211 223 -211h69zM528 41c147 0 223 79 223 211v206c0 132 -76 211 -223 211h-69v-628h69z" />
    <glyph glyph-name="pi" unicode="&#x3c0;" horiz-adv-x="636" 
d="M528 -1c-9 -4 -12 -2 -16 7c-27 44 -34 80 -34 140v327h-274v-461c0 -9 -3 -12 -12 -12h-19c-9 0 -12 3 -12 12v461c-47 -1 -71 -10 -111 -33c-8 -3 -13 -4 -17 4l-7 16c-4 7 -3 12 6 16c48 28 87 36 148 36h411c9 0 12 -3 12 -11v-16c0 -9 -3 -12 -12 -12h-70v-329
c0 -53 6 -82 29 -119c4 -9 4 -14 -5 -18z" />
    <glyph glyph-name="zero" unicode="0" horiz-adv-x="659" 
d="M330 -14c-163 0 -254 87 -254 227v284c0 139 91 227 254 227c162 0 253 -88 253 -227v-284c0 -140 -91 -227 -253 -227zM330 29c133 0 206 69 206 184v284c0 114 -73 184 -206 184c-134 0 -207 -70 -207 -184v-284c0 -115 73 -184 207 -184z" />
    <glyph glyph-name="one" unicode="1" horiz-adv-x="476" 
d="M335 0c-10 0 -13 3 -13 13v641l-247 -137c-9 -5 -13 -4 -18 5l-10 17c-5 7 -3 12 5 16l268 150c7 4 10 5 18 5h17c10 0 13 -3 13 -13v-684c0 -10 -3 -13 -13 -13h-20z" />
    <glyph glyph-name="two" unicode="2" horiz-adv-x="617" 
d="M82 0c-10 0 -13 4 -13 13v72c0 133 104 176 213 218s218 77 218 210c0 93 -71 168 -175 168c-108 0 -170 -45 -210 -135c-4 -8 -8 -11 -16 -7l-21 7c-8 3 -11 7 -7 16c46 106 122 162 255 162c134 0 222 -95 222 -209c0 -154 -110 -199 -253 -255
c-90 -34 -178 -68 -178 -167v-50h415c9 0 13 -3 13 -12v-18c0 -10 -4 -13 -13 -13h-450z" />
    <glyph glyph-name="three" unicode="3" horiz-adv-x="624" 
d="M321 -14c-156 0 -221 64 -255 178c-3 9 0 13 9 16l19 7c9 4 13 1 16 -8c30 -99 79 -150 211 -150c131 0 189 62 189 164c0 91 -52 150 -149 150h-166c-9 0 -12 3 -12 12v17c0 10 3 13 12 13h161c94 0 135 66 135 139c0 101 -57 157 -170 157c-126 0 -175 -47 -205 -146
c-3 -9 -7 -10 -16 -7l-19 6c-9 3 -12 7 -9 17c34 113 99 173 249 173c143 0 215 -73 215 -197c0 -69 -28 -134 -96 -160c78 -24 117 -89 117 -174c0 -126 -73 -207 -236 -207z" />
    <glyph glyph-name="four" unicode="4" horiz-adv-x="631" 
d="M437 0c-9 0 -12 3 -12 13v194h-370c-10 0 -13 3 -13 13v13c0 8 0 11 4 16l371 462c6 7 9 10 18 10h20c11 0 14 -3 14 -14v-458h104c10 0 13 -3 13 -13v-16c0 -10 -3 -13 -13 -13h-104v-194c0 -10 -3 -13 -13 -13h-19zM425 249v407l-328 -407h328z" />
    <glyph glyph-name="five" unicode="5" horiz-adv-x="612" 
d="M315 -15c-141 0 -219 56 -255 156c-3 9 -2 13 7 16l21 8c8 3 12 1 16 -9c29 -83 94 -128 211 -128c118 0 188 80 188 180c0 94 -60 169 -179 169h-220c-12 0 -16 5 -15 17l30 294c2 17 8 22 24 22h370c10 0 13 -3 13 -13v-18c0 -9 -3 -12 -13 -12h-350l-25 -247h188
c154 0 226 -96 226 -212c0 -121 -88 -223 -237 -223z" />
    <glyph glyph-name="six" unicode="6" horiz-adv-x="646" 
d="M328 -14c-166 0 -253 95 -253 249v240c0 163 88 249 253 249c129 0 205 -53 242 -151c4 -9 1 -12 -8 -16l-19 -7c-9 -3 -12 0 -16 9c-32 79 -93 122 -199 122c-135 0 -206 -70 -206 -205v-105c23 9 102 37 215 37c166 0 244 -68 244 -211c0 -133 -95 -211 -253 -211z
M328 29c131 0 206 60 206 168c0 114 -61 169 -199 169c-118 0 -197 -33 -213 -41v-91c0 -128 70 -205 206 -205z" />
    <glyph glyph-name="seven" unicode="7" horiz-adv-x="541" 
d="M168 0c-9 0 -10 5 -7 13l300 654h-405c-9 0 -12 3 -12 12v18c0 10 3 13 12 13h445c10 0 13 -3 13 -13v-12c0 -7 -1 -10 -4 -18l-299 -656c-4 -10 -8 -11 -23 -11h-20z" />
    <glyph glyph-name="eight" unicode="8" horiz-adv-x="641" 
d="M320 -14c-184 0 -254 69 -254 178c0 135 124 183 182 200c-87 30 -161 74 -161 181c0 116 88 179 233 179c155 0 235 -61 235 -176c0 -126 -104 -170 -159 -186c95 -30 179 -71 179 -189c0 -111 -71 -187 -255 -187zM343 378c30 7 167 34 167 166c0 91 -66 139 -190 139
c-117 0 -186 -48 -186 -139c0 -108 94 -134 193 -161zM320 27c152 0 207 58 207 146c0 119 -105 139 -228 173c-29 -6 -186 -38 -186 -178c0 -87 56 -141 207 -141z" />
    <glyph glyph-name="nine" unicode="9" horiz-adv-x="646" 
d="M318 -14c-129 0 -205 53 -242 151c-4 9 -1 12 8 16l19 7c9 3 12 0 16 -9c32 -79 93 -122 199 -122c135 0 206 70 206 205v105c-23 -9 -102 -37 -215 -37c-166 0 -244 68 -244 211c0 133 95 211 253 211c166 0 253 -95 253 -249v-240c0 -163 -88 -249 -253 -249zM311 344
c118 0 197 33 213 41v91c0 128 -70 205 -206 205c-131 0 -206 -60 -206 -168c0 -114 61 -169 199 -169z" />
    <glyph glyph-name="zero.sinf" horiz-adv-x="404" 
d="M203 -127c-93 0 -145 51 -145 133v143c0 81 52 134 145 134c90 0 143 -53 143 -134v-143c0 -82 -53 -133 -143 -133zM203 -91c67 0 105 37 105 97v143c0 60 -38 98 -105 98c-69 0 -107 -38 -107 -98v-143c0 -60 38 -97 107 -97z" />
    <glyph glyph-name="one.sinf" horiz-adv-x="310" 
d="M209 -119c-10 0 -13 3 -13 13v334l-137 -76c-7 -4 -13 -4 -17 4l-5 10c-5 9 -2 13 5 17l156 88c5 3 9 4 16 4h8c9 0 12 -3 12 -13v-368c0 -10 -3 -13 -12 -13h-13z" />
    <glyph glyph-name="two.sinf" horiz-adv-x="382" 
d="M67 -119c-9 0 -14 3 -14 13v43c0 60 23 97 78 118l61 23c50 19 98 30 98 89c0 48 -32 81 -95 81c-89 0 -102 -81 -103 -85c-4 -9 -7 -11 -16 -9l-13 4c-8 2 -11 7 -8 16c5 14 27 109 141 109c87 0 132 -48 132 -115c0 -78 -57 -97 -120 -119l-61 -22
c-38 -13 -57 -38 -57 -79v-32h223c9 0 12 -4 12 -12v-12c0 -8 -3 -11 -12 -11h-246z" />
    <glyph glyph-name="three.sinf" horiz-adv-x="392" 
d="M203 -127c-87 0 -130 38 -152 108c-3 11 -1 14 7 17l12 4c9 3 13 1 16 -9c18 -60 48 -86 117 -86c66 0 99 34 99 81c0 43 -27 78 -71 78h-71c-9 0 -11 2 -11 11v11c0 10 1 12 12 12h68c44 0 63 33 63 71c0 48 -32 78 -88 78c-64 0 -98 -25 -115 -85c-4 -11 -8 -13 -19 -9
l-10 3c-7 3 -10 7 -7 17c22 76 68 108 151 108c79 0 124 -43 124 -109c0 -38 -12 -70 -51 -89c42 -19 62 -55 62 -100c0 -67 -45 -112 -136 -112z" />
    <glyph glyph-name="four.sinf" horiz-adv-x="384" 
d="M258 -119c-8 0 -10 2 -10 11v101h-201c-9 0 -11 2 -11 11v9c0 7 0 10 4 15l198 239c6 7 9 8 18 8h16c10 0 12 -2 12 -12v-238h49c10 0 12 -2 12 -10v-11c0 -9 -2 -11 -12 -11h-49v-101c0 -9 -2 -11 -11 -11h-15zM248 25v203l-168 -203h168z" />
    <glyph glyph-name="five.sinf" horiz-adv-x="379" 
d="M194 -127c-87 0 -129 42 -147 107c-3 10 -2 15 6 17l11 4c10 3 13 1 16 -8c15 -53 46 -86 112 -86c71 0 102 42 102 92c0 55 -32 88 -106 88h-112c-9 0 -12 4 -12 12l16 164c1 9 5 12 15 12h211c7 0 10 -2 10 -9v-15c0 -7 -2 -9 -10 -9h-193l-12 -123h88
c98 0 141 -47 141 -119c0 -69 -42 -127 -136 -127z" />
    <glyph glyph-name="six.sinf" horiz-adv-x="403" 
d="M202 -127c-100 0 -144 54 -144 152v108c0 95 49 150 149 150c74 0 115 -34 133 -73c3 -5 1 -10 -4 -12l-16 -8c-7 -4 -10 -2 -13 3c-14 28 -43 56 -100 56c-75 0 -112 -41 -112 -115v-50c20 9 67 27 124 27c93 0 133 -43 133 -116c0 -82 -53 -122 -150 -122zM202 -92
c73 0 113 28 113 87c0 52 -31 84 -100 84c-60 0 -108 -22 -120 -28v-27c0 -74 32 -116 107 -116z" />
    <glyph glyph-name="seven.sinf" horiz-adv-x="339" 
d="M122 -119c-9 0 -11 3 -7 13l151 346h-218c-8 0 -10 3 -10 10v15c0 8 3 10 10 10h251c8 0 10 -2 10 -9v-9c0 -6 0 -9 -3 -14l-153 -354c-3 -7 -4 -8 -15 -8h-16z" />
    <glyph glyph-name="eight.sinf" horiz-adv-x="404" 
d="M202 -127c-96 0 -150 37 -150 105c0 63 49 91 84 104c-52 18 -73 49 -73 94c0 68 54 107 139 107c88 0 138 -40 138 -99c0 -61 -44 -89 -75 -101c58 -15 87 -42 87 -95c0 -78 -55 -115 -150 -115zM220 95c21 5 82 25 82 85c0 42 -34 72 -100 72c-63 0 -101 -28 -101 -76
s29 -68 119 -81zM203 -96c69 0 110 26 110 83c0 51 -33 67 -130 80c-16 -4 -92 -19 -92 -86c0 -49 41 -77 112 -77z" />
    <glyph glyph-name="nine.sinf" horiz-adv-x="403" 
d="M196 -127c-74 0 -115 36 -133 75c-3 5 -1 9 4 12l16 8c7 4 10 1 13 -3c14 -29 43 -57 100 -57c75 0 112 41 112 117v49c-20 -8 -67 -26 -124 -26c-93 0 -134 42 -134 115c0 81 54 120 151 120c100 0 144 -54 144 -149v-108c0 -97 -49 -153 -149 -153zM188 80
c60 0 108 22 120 28v26c0 72 -32 115 -107 115c-73 0 -113 -29 -113 -86c0 -52 31 -83 100 -83z" />
    <glyph glyph-name="zero.tf" horiz-adv-x="645" 
d="M322 -14c-164 0 -255 87 -255 227v284c0 139 91 227 255 227s255 -88 255 -227v-284c0 -140 -91 -227 -255 -227zM322 29c135 0 208 69 208 184v284c0 114 -73 184 -208 184s-208 -70 -208 -184v-284c0 -115 73 -184 208 -184z" />
    <glyph glyph-name="one.tf" horiz-adv-x="645" 
d="M81 0c-9 0 -12 3 -12 13v18c0 9 3 12 12 12h224v611l-186 -106c-9 -5 -14 -5 -19 3l-10 18c-5 7 -3 12 5 16l208 120c7 4 10 5 18 5h18c9 0 12 -3 12 -13v-654h214c10 0 13 -3 13 -12v-18c0 -10 -3 -13 -13 -13h-484z" />
    <glyph glyph-name="two.tf" horiz-adv-x="645" 
d="M85 0c-10 0 -13 4 -13 13v72c0 133 112 176 221 218s232 77 232 210c0 93 -68 168 -186 168s-180 -44 -221 -135c-4 -8 -8 -11 -16 -7l-20 7c-8 3 -11 7 -8 16c48 109 124 162 267 162c147 0 232 -95 232 -209c0 -154 -131 -202 -266 -254c-90 -34 -187 -69 -187 -168
v-50h437c9 0 13 -3 13 -12v-18c0 -10 -4 -13 -13 -13h-472z" />
    <glyph glyph-name="three.tf" horiz-adv-x="645" 
d="M330 -14c-158 0 -226 63 -257 178c-3 9 -1 13 8 16l19 7c9 4 14 1 17 -8c30 -99 79 -150 213 -150c140 0 198 62 198 164c0 91 -52 150 -149 150h-177c-10 0 -13 3 -13 12v17c0 10 3 13 13 13h172c94 0 135 66 135 139c0 101 -57 157 -179 157c-128 0 -177 -47 -207 -146
c-3 -9 -8 -10 -17 -7l-19 6c-9 3 -11 7 -8 17c31 114 99 173 251 173s224 -73 224 -197c0 -69 -28 -134 -96 -160c79 -24 117 -89 117 -174c0 -126 -73 -207 -245 -207z" />
    <glyph glyph-name="four.tf" horiz-adv-x="645" 
d="M447 0c-10 0 -13 3 -13 13v194h-358c-9 0 -12 3 -12 13v13c0 8 0 11 4 16l358 462c6 7 10 10 18 10h21c10 0 13 -3 13 -14v-458h85c9 0 13 -3 13 -13v-16c0 -10 -4 -13 -13 -13h-85v-194c0 -10 -3 -13 -12 -13h-19zM434 249v407l-315 -407h315z" />
    <glyph glyph-name="five.tf" horiz-adv-x="645" 
d="M330 -15c-141 0 -221 55 -255 156c-3 9 -2 13 6 16l22 8c8 3 12 1 16 -9c23 -84 94 -128 211 -128c122 0 193 80 193 180c0 94 -60 169 -180 169h-224c-12 0 -16 5 -15 17l30 294c2 17 8 22 24 22h375c9 0 12 -3 12 -13v-18c0 -9 -3 -12 -12 -12h-355l-25 -247h193
c153 0 225 -96 225 -212c0 -121 -87 -223 -241 -223z" />
    <glyph glyph-name="six.tf" horiz-adv-x="645" 
d="M321 -14c-166 0 -253 95 -253 249v240c0 163 88 249 253 249c129 0 204 -53 242 -151c4 -9 1 -12 -8 -16l-19 -7c-9 -3 -13 0 -16 9c-33 79 -94 122 -199 122c-135 0 -207 -70 -207 -205v-105c24 9 102 37 216 37c168 0 245 -68 245 -211c0 -133 -95 -211 -254 -211z
M321 29c132 0 208 60 208 168c0 114 -62 169 -201 169c-119 0 -197 -33 -214 -41v-91c0 -128 71 -205 207 -205z" />
    <glyph glyph-name="seven.tf" horiz-adv-x="645" 
d="M212 0c-9 0 -9 5 -6 13l309 654h-426c-9 0 -13 3 -13 12v18c0 10 4 13 13 13h468c9 0 12 -3 12 -13v-12c0 -7 0 -10 -3 -18l-308 -656c-5 -10 -8 -11 -23 -11h-23z" />
    <glyph glyph-name="eight.tf" horiz-adv-x="645" 
d="M321 -14c-184 0 -254 69 -254 178c0 135 124 183 182 200c-87 30 -161 74 -161 181c0 116 88 179 233 179c155 0 235 -61 235 -176c0 -126 -104 -170 -159 -186c95 -30 179 -71 179 -189c0 -111 -71 -187 -255 -187zM344 378c30 7 167 34 167 166c0 91 -66 139 -190 139
c-117 0 -186 -48 -186 -139c0 -108 95 -129 193 -161zM321 27c152 0 207 58 207 146c0 119 -105 139 -228 173c-29 -6 -186 -38 -186 -178c0 -87 56 -141 207 -141z" />
    <glyph glyph-name="nine.tf" horiz-adv-x="645" 
d="M321 -14c-129 0 -204 53 -242 151c-4 9 -1 12 8 16l19 7c9 3 13 0 16 -9c32 -79 94 -122 199 -122c137 0 208 70 208 205v105c-23 -9 -102 -37 -217 -37c-166 0 -243 68 -243 211c0 133 94 211 252 211c168 0 254 -95 254 -249v-240c0 -163 -87 -249 -254 -249zM314 344
c120 0 199 33 215 41v91c0 128 -71 205 -208 205c-131 0 -206 -60 -206 -168c0 -114 61 -169 199 -169z" />
    <glyph glyph-name="zero.dnom" horiz-adv-x="404" 
d="M203 -8c-93 0 -145 51 -145 133v146c0 81 52 134 145 134c90 0 143 -53 143 -134v-146c0 -82 -53 -133 -143 -133zM203 28c67 0 105 37 105 97v146c0 59 -38 98 -105 98c-69 0 -107 -39 -107 -98v-146c0 -60 38 -97 107 -97z" />
    <glyph glyph-name="one.dnom" horiz-adv-x="310" 
d="M209 0c-10 0 -13 3 -13 13v335l-137 -76c-7 -4 -13 -4 -17 4l-5 10c-5 9 -2 13 5 17l156 88c5 3 9 4 16 4h8c9 0 12 -3 12 -13v-369c0 -10 -3 -13 -12 -13h-13z" />
    <glyph glyph-name="two.dnom" horiz-adv-x="382" 
d="M68 0c-10 0 -14 3 -14 13v43c0 60 23 97 78 118l60 23c51 19 99 29 99 87c0 48 -32 83 -95 83c-90 0 -102 -82 -104 -86c-4 -10 -6 -12 -16 -9l-12 4c-8 2 -11 7 -8 15c5 14 27 112 140 112c88 0 133 -51 133 -118c0 -77 -57 -95 -121 -117l-60 -22
c-38 -13 -58 -38 -58 -79v-32h224c9 0 12 -4 12 -12v-12c0 -8 -3 -11 -12 -11h-246z" />
    <glyph glyph-name="three.dnom" horiz-adv-x="392" 
d="M203 -8c-87 0 -130 38 -152 108c-3 11 -1 14 7 17l12 4c9 3 13 1 16 -9c18 -60 48 -86 117 -86c66 0 99 34 99 81c0 43 -27 77 -71 77h-71c-9 0 -11 2 -11 11v11c0 10 1 12 12 12h68c44 0 63 34 63 72c0 48 -32 79 -88 79c-64 0 -98 -26 -115 -86c-4 -11 -8 -13 -19 -9
l-10 3c-7 3 -10 7 -7 17c22 76 68 109 151 109c79 0 124 -44 124 -110c0 -38 -12 -71 -51 -90c42 -19 62 -54 62 -99c0 -67 -45 -112 -136 -112z" />
    <glyph glyph-name="four.dnom" horiz-adv-x="384" 
d="M258 0c-8 0 -10 2 -10 11v101h-201c-9 0 -11 2 -11 11v9c0 7 0 10 4 15l198 240c6 7 9 8 18 8h16c10 0 12 -2 12 -12v-239h50c10 0 11 -2 11 -10v-11c0 -9 -1 -11 -11 -11h-50v-101c0 -9 -2 -11 -11 -11h-15zM248 144v204l-168 -204h168z" />
    <glyph glyph-name="five.dnom" horiz-adv-x="379" 
d="M194 -8c-87 0 -129 42 -147 107c-3 10 -2 15 6 17l11 4c10 3 13 1 16 -8c15 -52 46 -86 112 -86c71 0 102 42 102 92c0 55 -32 88 -106 88h-112c-9 0 -12 4 -12 12l16 165c1 9 5 12 15 12h211c7 0 10 -2 10 -9v-15c0 -8 -2 -9 -10 -9h-193l-12 -124h88
c98 0 141 -47 141 -119c0 -69 -42 -127 -136 -127z" />
    <glyph glyph-name="six.dnom" horiz-adv-x="402" 
d="M202 -8c-100 0 -144 54 -144 152v108c0 96 49 151 149 151c74 0 115 -35 133 -73c3 -5 1 -10 -4 -13l-16 -7c-7 -4 -10 -2 -13 3c-14 28 -43 55 -100 55c-75 0 -112 -40 -112 -115v-50c20 9 67 27 124 27c93 0 133 -43 133 -116c0 -82 -53 -122 -150 -122zM202 27
c73 0 113 28 113 87c0 52 -31 84 -100 84c-60 0 -108 -22 -120 -28v-27c0 -74 32 -116 107 -116z" />
    <glyph glyph-name="seven.dnom" horiz-adv-x="338" 
d="M121 0c-9 0 -11 3 -7 13l150 347h-217c-8 0 -10 3 -10 10v15c0 8 2 10 10 10h251c8 0 10 -2 10 -9v-9c0 -6 -1 -9 -3 -14l-153 -355c-3 -7 -4 -8 -15 -8h-16z" />
    <glyph glyph-name="eight.dnom" horiz-adv-x="404" 
d="M202 -8c-96 0 -150 37 -150 105c0 63 49 91 84 104c-52 18 -73 48 -73 94c0 69 54 108 139 108c88 0 138 -39 138 -101c0 -61 -44 -88 -75 -100c58 -15 87 -42 87 -95c0 -78 -55 -115 -150 -115zM220 214c21 5 82 24 82 84c0 45 -34 74 -100 74c-63 0 -101 -27 -101 -78
c0 -48 29 -67 119 -80zM203 23c69 0 110 26 110 83c0 51 -33 67 -130 80c-16 -4 -92 -19 -92 -86c0 -49 41 -77 112 -77z" />
    <glyph glyph-name="nine.dnom" horiz-adv-x="403" 
d="M196 -8c-74 0 -115 36 -133 75c-3 5 -1 9 4 12l16 8c7 4 10 1 13 -3c14 -29 43 -57 100 -57c75 0 112 41 112 117v49c-20 -8 -67 -26 -124 -26c-93 0 -134 42 -134 114c0 83 54 122 151 122c100 0 144 -53 144 -150v-108c0 -97 -49 -153 -149 -153zM188 199
c60 0 108 22 120 28v26c0 75 -32 115 -107 115c-73 0 -113 -27 -113 -86c0 -53 31 -83 100 -83z" />
    <glyph glyph-name="zero.numr" horiz-adv-x="404" 
d="M203 312c-93 0 -145 51 -145 133v146c0 81 52 131 145 131c90 0 143 -50 143 -131v-146c0 -82 -53 -133 -143 -133zM203 348c67 0 105 37 105 97v146c0 59 -38 96 -105 96c-69 0 -107 -37 -107 -96v-146c0 -60 38 -97 107 -97z" />
    <glyph glyph-name="one.numr" horiz-adv-x="310" 
d="M209 320c-10 0 -13 3 -13 13v336l-137 -76c-7 -4 -13 -4 -17 4l-5 10c-5 9 -2 13 5 17l156 88c5 3 9 4 16 4h8c9 0 12 -3 12 -13v-370c0 -10 -3 -13 -12 -13h-13z" />
    <glyph glyph-name="two.numr" horiz-adv-x="382" 
d="M67 320c-9 0 -14 3 -14 13v45c0 60 23 97 78 118l61 23c50 19 98 30 98 89c0 48 -32 81 -95 81c-89 0 -102 -81 -103 -85c-4 -9 -7 -11 -16 -9l-13 4c-8 2 -11 7 -7 16c5 13 26 107 140 107c87 0 132 -47 132 -113c0 -78 -57 -98 -120 -119l-61 -22
c-38 -14 -57 -39 -57 -79v-34h223c9 0 12 -4 12 -12v-12c0 -8 -3 -11 -12 -11h-246z" />
    <glyph glyph-name="three.numr" horiz-adv-x="392" 
d="M204 312c-88 0 -131 39 -152 109c-3 11 -1 14 6 16l13 5c9 3 13 1 16 -9c18 -60 47 -87 117 -87c66 0 98 34 98 82c0 42 -26 77 -70 77h-71c-10 0 -12 2 -12 12v10c0 11 2 13 13 13h67c45 0 64 33 64 70c0 48 -32 80 -88 80c-64 0 -98 -25 -115 -85
c-4 -11 -9 -13 -19 -10l-10 4c-7 3 -9 7 -6 16c22 77 66 107 149 107c80 0 124 -42 124 -108c0 -38 -11 -70 -50 -89c42 -19 62 -55 62 -101c0 -66 -45 -112 -136 -112z" />
    <glyph glyph-name="four.numr" horiz-adv-x="386" 
d="M258 320c-8 0 -10 2 -10 11v102h-201c-9 0 -11 3 -11 11v9c0 8 0 10 4 15l198 238c6 8 9 8 18 8h16c10 0 12 -2 12 -12v-236h52c9 0 11 -3 11 -11v-11c0 -9 -2 -11 -11 -11h-52v-102c0 -9 -2 -11 -11 -11h-15zM248 466v201l-168 -201h168z" />
    <glyph glyph-name="five.numr" horiz-adv-x="379" 
d="M194 312c-87 0 -129 42 -147 108c-3 10 -2 14 6 17l11 4c10 3 13 1 16 -8c15 -53 46 -87 112 -87c71 0 102 42 102 93c0 54 -32 89 -106 89h-112c-9 0 -12 4 -12 13l16 162c1 9 5 12 15 12h211c7 0 10 -2 10 -9v-15c0 -8 -2 -9 -10 -9h-193l-12 -122h88
c98 0 141 -48 141 -120c0 -70 -42 -128 -136 -128z" />
    <glyph glyph-name="six.numr" horiz-adv-x="403" 
d="M203 312c-100 0 -145 56 -145 153v108c0 97 49 149 149 149c74 0 115 -32 133 -71c3 -5 1 -9 -4 -12l-16 -8c-7 -3 -10 -1 -13 4c-14 28 -43 54 -100 54c-75 0 -112 -39 -112 -115v-49c20 8 67 26 124 26c93 0 133 -42 133 -115c0 -83 -53 -124 -149 -124zM203 347
c73 0 112 29 112 89c0 52 -31 83 -100 83c-60 0 -108 -22 -120 -28v-26c0 -75 33 -118 108 -118z" />
    <glyph glyph-name="seven.numr" horiz-adv-x="338" 
d="M114 320c-9 0 -11 3 -7 13l158 346h-216c-8 0 -10 3 -10 10v15c0 9 3 10 10 10h249c9 0 11 -1 11 -9v-9c0 -6 -1 -9 -3 -14l-161 -354c-3 -7 -4 -8 -15 -8h-16z" />
    <glyph glyph-name="eight.numr" horiz-adv-x="404" 
d="M202 312c-97 0 -150 38 -150 106c0 64 49 92 84 104c-52 18 -73 50 -73 94c0 70 54 106 139 106c88 0 138 -37 138 -99c0 -61 -44 -88 -75 -100c58 -15 87 -41 87 -95c0 -79 -55 -116 -150 -116zM220 535c21 5 82 24 82 85c0 44 -34 72 -100 72c-63 0 -101 -26 -101 -76
c0 -47 29 -68 119 -81zM203 343c69 0 110 27 110 84c0 51 -33 67 -130 81c-16 -5 -92 -20 -92 -86c0 -50 41 -79 112 -79z" />
    <glyph glyph-name="nine.numr" horiz-adv-x="403" 
d="M196 312c-74 0 -115 36 -133 75c-3 5 -1 9 4 12l16 8c7 4 10 1 13 -3c14 -29 43 -57 100 -57c75 0 112 40 112 115v53c-20 -8 -67 -27 -124 -27c-93 0 -134 43 -134 116c0 79 54 118 151 118c100 0 144 -52 144 -148v-111c0 -96 -49 -151 -149 -151zM188 520
c60 0 108 22 120 28v27c0 72 -32 114 -107 114c-73 0 -113 -30 -113 -85c0 -52 31 -84 100 -84z" />
    <glyph glyph-name="zero.sups" horiz-adv-x="404" 
d="M203 408c-93 0 -145 50 -145 132v145c0 81 52 133 145 133c90 0 143 -52 143 -133v-145c0 -82 -53 -132 -143 -132zM203 444c67 0 105 36 105 96v145c0 60 -38 97 -105 97c-69 0 -107 -37 -107 -97v-145c0 -60 38 -96 107 -96z" />
    <glyph glyph-name="one.sups" horiz-adv-x="310" 
d="M209 416c-10 0 -13 3 -13 13v334l-137 -76c-7 -4 -13 -4 -17 4l-5 10c-5 9 -2 13 5 17l156 88c5 3 9 4 16 4h8c9 0 12 -3 12 -13v-368c0 -10 -3 -13 -12 -13h-13z" />
    <glyph glyph-name="two.sups" horiz-adv-x="382" 
d="M67 416c-9 0 -14 3 -14 13v43c0 60 23 97 78 118l61 23c50 19 98 30 98 87c0 48 -32 83 -95 83c-89 0 -102 -83 -103 -87c-4 -10 -7 -11 -16 -9l-13 4c-8 2 -11 7 -8 16c5 13 27 111 141 111c87 0 132 -50 132 -117c0 -76 -57 -95 -120 -117l-61 -22
c-38 -13 -57 -38 -57 -79v-32h223c9 0 12 -4 12 -12v-12c0 -8 -3 -11 -12 -11h-246z" />
    <glyph glyph-name="three.sups" horiz-adv-x="391" 
d="M203 408c-88 0 -131 38 -152 108c-3 11 -1 14 6 17l13 4c9 3 13 1 16 -9c18 -60 47 -86 117 -86c66 0 98 34 98 81c0 43 -26 77 -70 77h-71c-10 0 -12 2 -12 11v11c0 10 2 12 13 12h67c45 0 64 32 64 69c0 48 -32 81 -88 81c-64 0 -98 -27 -115 -87c-4 -11 -9 -13 -19 -9
l-10 3c-7 3 -10 7 -7 17c22 76 67 110 150 110c80 0 124 -45 124 -111c0 -38 -11 -69 -50 -88c42 -19 62 -54 62 -99c0 -67 -45 -112 -136 -112z" />
    <glyph glyph-name="four.sups" horiz-adv-x="384" 
d="M258 416c-8 0 -10 2 -10 11v98h-201c-9 0 -11 3 -11 12v9c0 7 0 10 4 14l198 242c6 7 9 8 18 8h15c10 0 12 -2 12 -12v-240h51c9 0 11 -2 11 -11v-11c0 -9 -2 -11 -11 -11h-51v-98c0 -9 -3 -11 -11 -11h-14zM248 558v205l-168 -205h168z" />
    <glyph glyph-name="five.sups" horiz-adv-x="379" 
d="M194 408c-87 0 -129 41 -147 107c-3 9 -2 14 6 16l11 4c10 3 13 1 16 -7c15 -53 46 -86 112 -86c71 0 102 41 102 92c0 54 -32 86 -106 86h-112c-9 0 -12 5 -12 13l16 165c1 9 5 12 15 12h211c7 0 10 -2 10 -9v-15c0 -7 -2 -9 -10 -9h-193l-12 -124h88
c98 0 141 -47 141 -119c0 -68 -42 -126 -136 -126z" />
    <glyph glyph-name="six.sups" horiz-adv-x="403" 
d="M202 408c-100 0 -144 53 -144 151v106c0 97 49 153 149 153c74 0 115 -36 133 -74c3 -6 1 -10 -4 -13l-16 -7c-7 -4 -10 -2 -13 3c-14 28 -43 57 -100 57c-75 0 -112 -42 -112 -117v-50c20 8 67 27 124 27c93 0 133 -42 133 -114c0 -83 -53 -122 -150 -122zM202 443
c73 0 113 27 113 86c0 53 -31 82 -100 82c-60 0 -108 -22 -120 -27v-26c0 -74 32 -115 107 -115z" />
    <glyph glyph-name="seven.sups" horiz-adv-x="340" 
d="M123 416c-10 0 -12 3 -8 13l151 346h-218c-8 0 -10 3 -10 10v15c0 8 3 10 10 10h251c8 0 10 -2 10 -9v-9c0 -6 0 -9 -2 -14l-153 -354c-3 -7 -5 -8 -16 -8h-15z" />
    <glyph glyph-name="eight.sups" horiz-adv-x="404" 
d="M202 408c-96 0 -150 36 -150 104c0 63 49 90 84 103c-52 17 -73 49 -73 94c0 70 54 109 139 109c88 0 138 -40 138 -102c0 -60 -44 -89 -75 -100c58 -16 87 -41 87 -94c0 -78 -55 -114 -150 -114zM220 627c21 6 82 26 82 86c0 44 -34 74 -100 74c-63 0 -101 -28 -101 -78
c0 -48 29 -69 119 -82zM203 439c69 0 110 25 110 82c0 51 -33 66 -130 79c-16 -4 -92 -18 -92 -84c0 -50 41 -77 112 -77z" />
    <glyph glyph-name="nine.sups" horiz-adv-x="403" 
d="M196 408c-74 0 -115 36 -133 75c-3 5 -1 9 4 12l16 8c7 4 10 1 13 -3c14 -29 43 -57 100 -57c75 0 112 41 112 114v50c-20 -8 -67 -27 -124 -27c-93 0 -134 43 -134 116c0 83 54 122 151 122c100 0 144 -54 144 -152v-107c0 -95 -49 -151 -149 -151zM188 613
c60 0 108 22 120 27v27c0 74 -32 117 -107 117c-73 0 -113 -29 -113 -88c0 -52 31 -83 100 -83z" />
    <glyph glyph-name="fraction" unicode="&#x2044;" horiz-adv-x="173" 
d="M-184 0c-10 0 -12 5 -6 13l504 685c7 10 10 12 24 12h17c10 0 12 -5 7 -13l-504 -685c-8 -10 -10 -12 -26 -12h-16z" />
    <glyph glyph-name="onehalf" unicode="&#xbd;" horiz-adv-x="874" 
d="M221 322c-10 0 -13 3 -13 12v337l-137 -76c-7 -4 -13 -3 -17 4l-5 10c-5 9 -3 13 5 17l156 88c5 3 9 4 16 4h7c10 0 13 -3 13 -13v-371c0 -9 -3 -12 -13 -12h-12zM142 0c-9 0 -12 5 -6 13l504 685c8 10 10 12 24 12h17c10 0 13 -5 7 -13l-504 -685
c-8 -10 -10 -12 -26 -12h-16zM554 0c-10 0 -14 3 -14 13v43c0 60 22 97 78 118l60 23c50 19 98 30 98 89c0 48 -31 83 -94 83c-90 0 -102 -83 -104 -87c-4 -9 -6 -11 -16 -9l-12 4c-8 2 -12 7 -8 16c5 14 27 112 140 112c88 0 133 -51 133 -118c0 -78 -57 -97 -121 -119
l-60 -22c-38 -13 -58 -38 -58 -79v-32h224c9 0 12 -4 12 -12v-12c0 -8 -3 -11 -12 -11h-246z" />
    <glyph glyph-name="uni2153" unicode="&#x2153;" horiz-adv-x="892" 
d="M221 320c-10 0 -13 3 -13 13v337l-137 -76c-7 -4 -13 -4 -17 4l-5 10c-5 9 -3 13 5 17l156 88c5 3 9 4 16 4h7c10 0 13 -3 13 -13v-371c0 -10 -3 -13 -13 -13h-12zM153 0c-10 0 -12 5 -6 13l504 685c7 10 10 12 23 12h17c10 0 13 -5 7 -13l-504 -685
c-7 -10 -10 -12 -26 -12h-15zM701 -8c-88 0 -130 38 -152 108c-3 11 -1 14 6 17l13 4c9 3 13 1 16 -9c18 -60 47 -86 117 -86c66 0 98 34 98 81c0 43 -26 78 -70 78h-71c-10 0 -12 2 -12 11v11c0 10 2 12 13 12h67c45 0 64 33 64 71c0 48 -32 81 -88 81
c-64 0 -98 -28 -115 -88c-4 -11 -9 -13 -19 -9l-10 3c-7 3 -10 7 -7 17c22 76 68 111 150 111c80 0 124 -46 124 -112c0 -38 -11 -70 -50 -89c42 -19 62 -55 62 -100c0 -67 -45 -112 -136 -112z" />
    <glyph glyph-name="uni2154" unicode="&#x2154;" horiz-adv-x="900" 
d="M78 322c-10 0 -14 3 -14 13v43c0 60 22 97 78 118l60 23c50 19 98 30 98 88c0 48 -31 83 -94 83c-90 0 -102 -82 -104 -86c-4 -10 -6 -12 -16 -9l-12 4c-8 2 -12 7 -8 16c5 13 27 111 140 111c88 0 133 -51 133 -117c0 -78 -57 -98 -121 -119l-60 -22
c-38 -14 -58 -39 -58 -79v-33h224c9 0 12 -3 12 -11v-12c0 -8 -3 -11 -12 -11h-246zM190 0c-10 0 -12 5 -6 13l504 685c7 10 10 12 23 12h18c9 0 12 -5 7 -13l-504 -685c-8 -10 -11 -12 -26 -12h-16zM710 -8c-88 0 -131 38 -152 108c-3 11 -1 14 6 17l13 4c9 3 12 1 16 -9
c18 -60 47 -86 117 -86c65 0 98 34 98 81c0 43 -27 78 -70 78h-71c-10 0 -12 2 -12 11v11c0 10 2 12 12 12h68c45 0 63 33 63 71c0 48 -31 81 -87 81c-64 0 -98 -28 -115 -88c-4 -11 -9 -13 -19 -9l-10 3c-7 3 -10 7 -7 17c22 76 67 111 150 111c79 0 124 -46 124 -112
c0 -38 -11 -70 -50 -89c42 -19 62 -55 62 -100c0 -67 -45 -112 -136 -112z" />
    <glyph glyph-name="onequarter" unicode="&#xbc;" horiz-adv-x="809" 
d="M222 320c-10 0 -13 3 -13 12v337l-137 -76c-8 -4 -13 -3 -17 4l-6 10c-4 9 -2 13 5 17l156 88c6 3 10 4 17 4h7c10 0 13 -3 13 -12v-372c0 -9 -3 -12 -13 -12h-12zM143 0c-10 0 -12 5 -7 13l505 685c7 10 10 12 23 12h17c10 0 13 -5 7 -13l-504 -685
c-7 -10 -10 -12 -26 -12h-15zM672 0c-9 0 -11 2 -11 11v101h-200c-9 0 -11 2 -11 11v9c0 7 0 10 4 15l198 242c5 7 9 8 17 8h17c10 0 12 -2 12 -13v-240h50c9 0 11 -2 11 -10v-11c0 -9 -2 -11 -11 -11h-50v-101c0 -9 -3 -11 -11 -11h-15zM661 144v205l-167 -205h167z" />
    <glyph glyph-name="threequarters" unicode="&#xbe;" horiz-adv-x="849" 
d="M210 314c-87 0 -130 38 -151 108c-3 11 -1 14 6 16l13 5c9 3 12 1 16 -9c18 -60 47 -86 116 -86c66 0 99 33 99 81c0 42 -27 77 -70 77h-71c-10 0 -12 2 -12 12v10c0 11 2 13 12 13h68c45 0 63 33 63 70c0 48 -31 81 -87 81c-64 0 -98 -27 -116 -87c-3 -11 -8 -13 -18 -9
l-10 3c-7 3 -10 7 -7 17c22 76 67 110 150 110c79 0 124 -45 124 -111c0 -38 -11 -70 -50 -89c42 -19 61 -55 61 -101c0 -66 -44 -111 -136 -111zM186 0c-10 0 -12 5 -6 13l504 685c7 10 10 12 23 12h18c9 0 12 -5 6 -13l-503 -685c-8 -10 -11 -12 -27 -12h-15zM713 0
c-8 0 -10 2 -10 11v101h-201c-9 0 -11 2 -11 11v9c0 7 0 10 4 15l198 242c5 7 9 8 18 8h16c10 0 12 -2 12 -13v-240h50c10 0 11 -2 11 -10v-11c0 -9 -1 -11 -11 -11h-50v-101c0 -9 -2 -11 -11 -11h-15zM703 144v205l-168 -205h168z" />
    <glyph glyph-name="oneeighth" unicode="&#x215b;" horiz-adv-x="881" 
d="M222 322c-10 0 -13 3 -13 12v337l-137 -76c-8 -4 -13 -3 -17 4l-6 10c-4 9 -2 13 5 17l156 88c6 3 10 4 17 4h7c10 0 13 -3 13 -13v-371c0 -9 -3 -12 -13 -12h-12zM142 0c-10 0 -12 5 -7 13l504 685c8 10 11 12 24 12h17c10 0 13 -5 7 -13l-504 -685
c-7 -10 -10 -12 -26 -12h-15zM677 -8c-95 0 -150 37 -150 105c0 63 49 91 84 104c-52 18 -73 49 -73 94c0 70 54 110 139 110c88 0 138 -40 138 -102c0 -61 -44 -89 -75 -101c58 -15 87 -42 87 -95c0 -78 -55 -115 -150 -115zM695 214c22 5 82 25 82 85c0 44 -34 74 -100 74
c-63 0 -101 -28 -101 -78c0 -48 30 -68 119 -81zM678 23c69 0 110 26 110 83c0 51 -33 67 -130 80c-15 -4 -92 -19 -92 -86c0 -49 41 -77 112 -77z" />
    <glyph glyph-name="threeeighths" unicode="&#x215c;" horiz-adv-x="913" 
d="M210 314c-88 0 -130 38 -152 108c-3 11 -1 14 6 16l13 5c9 3 13 1 16 -9c18 -60 47 -86 117 -86c66 0 98 33 98 81c0 42 -26 77 -70 77h-71c-10 0 -12 2 -12 12v10c0 11 2 13 13 13h67c45 0 64 33 64 70c0 48 -32 81 -88 81c-64 0 -98 -27 -115 -87c-4 -11 -9 -13 -19 -9
l-10 3c-7 3 -10 7 -7 17c22 76 68 110 150 110c80 0 124 -45 124 -111c0 -38 -11 -70 -50 -89c42 -19 62 -55 62 -101c0 -66 -45 -111 -136 -111zM181 0c-10 0 -12 5 -7 13l505 685c7 10 10 12 23 12h17c10 0 13 -5 7 -13l-504 -685c-7 -11 -10 -12 -26 -12h-15zM711 -8
c-96 0 -151 37 -151 105c0 63 49 91 85 104c-53 18 -74 49 -74 94c0 70 55 110 140 110c87 0 137 -40 137 -102c0 -61 -44 -89 -75 -101c58 -15 88 -42 88 -95c0 -78 -56 -115 -150 -115zM728 214c22 5 82 25 82 85c0 44 -34 74 -100 74c-63 0 -101 -28 -101 -78
c0 -48 30 -68 119 -81zM711 23c69 0 110 26 110 83c0 51 -33 67 -130 80c-15 -4 -92 -19 -92 -86c0 -49 41 -77 112 -77z" />
    <glyph glyph-name="fiveeighths" unicode="&#x215d;" horiz-adv-x="895" 
d="M199 313c-87 0 -129 42 -147 108c-3 9 -1 14 7 16l11 4c10 3 13 2 16 -7c15 -53 46 -87 112 -87c70 0 101 42 101 93c0 54 -32 88 -105 88h-113c-9 0 -13 4 -11 13l16 164c1 10 4 13 14 13h212c7 0 9 -2 9 -10v-14c0 -8 -2 -10 -9 -10h-193l-12 -124h88
c98 0 141 -47 141 -120c0 -68 -43 -127 -137 -127zM160 0c-10 0 -12 5 -6 13l504 685c7 10 10 12 24 12h17c10 0 13 -5 7 -13l-504 -685c-8 -10 -10 -12 -26 -12h-16zM692 -8c-96 0 -150 37 -150 105c0 63 49 91 84 104c-52 18 -73 49 -73 94c0 70 54 110 139 110
c88 0 138 -40 138 -102c0 -61 -44 -89 -75 -101c58 -15 87 -42 87 -95c0 -78 -55 -115 -150 -115zM710 214c22 5 82 25 82 85c0 44 -34 74 -100 74c-63 0 -101 -28 -101 -78c0 -48 29 -68 119 -81zM693 23c69 0 110 26 110 83c0 51 -33 67 -130 80c-16 -4 -92 -19 -92 -86
c0 -49 41 -77 112 -77z" />
    <glyph glyph-name="seveneighths" unicode="&#x215e;" horiz-adv-x="868" 
d="M132 322c-9 0 -11 2 -7 12l151 349h-218c-8 0 -10 3 -10 10v15c0 8 3 10 10 10h251c8 0 10 -2 10 -9v-9c0 -6 0 -9 -3 -14l-153 -356c-3 -7 -4 -8 -15 -8h-16zM106 0c-10 0 -12 5 -6 13l504 685c7 10 10 12 24 12h17c10 0 12 -5 7 -13l-504 -685c-8 -10 -10 -12 -26 -12
h-16zM664 -8c-96 0 -151 37 -151 105c0 63 50 91 85 104c-53 18 -73 49 -73 94c0 70 54 110 139 110c87 0 137 -40 137 -102c0 -61 -44 -89 -75 -101c58 -15 88 -42 88 -95c0 -78 -56 -115 -150 -115zM682 214c21 5 82 25 82 85c0 44 -35 74 -100 74
c-64 0 -102 -28 -102 -78c0 -48 30 -68 120 -81zM664 23c69 0 111 26 111 83c0 51 -34 67 -130 80c-16 -4 -92 -19 -92 -86c0 -49 40 -77 111 -77z" />
    <glyph glyph-name="period" unicode="." horiz-adv-x="197" 
d="M96 -6c-23 0 -29 5 -29 29v5c0 22 6 29 29 29h5c22 0 29 -7 29 -29v-5c0 -23 -7 -29 -29 -29h-5z" />
    <glyph glyph-name="comma" unicode="," horiz-adv-x="193" 
d="M44 -121c-8 0 -9 2 -8 9l38 157c2 12 8 15 20 15h17c12 0 16 -5 12 -15l-55 -155c-2 -8 -5 -11 -14 -11h-10z" />
    <glyph glyph-name="colon" unicode=":" horiz-adv-x="220" 
d="M107 519c-22 0 -29 6 -29 29v6c0 22 7 29 29 29h5c23 0 29 -7 29 -29v-6c0 -22 -6 -29 -29 -29h-5zM107 93c-22 0 -29 6 -29 29v5c0 23 7 29 29 29h5c23 0 29 -6 29 -29v-5c0 -23 -6 -29 -29 -29h-5z" />
    <glyph glyph-name="semicolon" unicode=";" horiz-adv-x="257" 
d="M122 420c-22 0 -29 6 -29 29v5c0 23 7 29 29 29h5c23 0 29 -6 29 -29v-5c0 -23 -6 -29 -29 -29h-5zM66 -121c-7 0 -9 2 -8 9l38 157c3 12 8 15 20 15h17c12 0 16 -5 12 -15l-54 -155c-3 -8 -6 -11 -15 -11h-10z" />
    <glyph glyph-name="ellipsis" unicode="&#x2026;" horiz-adv-x="590" 
d="M96 -6c-23 0 -29 5 -29 29v5c0 22 6 29 29 29h5c22 0 29 -7 29 -29v-5c0 -23 -7 -29 -29 -29h-5zM292 -6c-22 0 -29 5 -29 29v5c0 22 7 29 29 29h5c23 0 29 -7 29 -29v-5c0 -23 -6 -29 -29 -29h-5zM489 -6c-23 0 -29 5 -29 29v5c0 22 6 29 29 29h5c22 0 29 -7 29 -29v-5
c0 -23 -7 -29 -29 -29h-5z" />
    <glyph glyph-name="exclam" unicode="!" horiz-adv-x="221" 
d="M105 151c-9 0 -12 3 -12 12l-6 565c0 9 3 12 12 12h23c9 0 12 -3 12 -12l-6 -565c-1 -9 -3 -12 -12 -12h-11zM108 -6c-22 0 -29 5 -29 29v5c0 22 7 29 29 29h5c23 0 29 -7 29 -29v-5c0 -23 -6 -29 -29 -29h-5z" />
    <glyph glyph-name="exclamdown" unicode="&#xa1;" horiz-adv-x="210" 
d="M107 516c23 0 29 -7 29 -29v-6c0 -22 -6 -29 -29 -29h-5c-22 0 -29 7 -29 29v6c0 23 7 29 29 29h5zM110 358c9 0 11 -2 11 -11l7 -566c0 -9 -3 -12 -12 -12h-23c-9 0 -12 3 -12 12l6 566c0 9 3 11 12 11h11z" />
    <glyph glyph-name="question" unicode="?" horiz-adv-x="585" 
d="M260 141c-9 0 -12 2 -12 12c0 104 57 145 116 185c61 41 124 83 124 195c0 92 -68 165 -190 165c-115 0 -176 -57 -207 -137c-4 -9 -7 -12 -16 -8l-19 6c-9 3 -11 7 -7 16c36 95 111 165 249 165c149 0 236 -92 236 -206c0 -135 -79 -184 -144 -227
c-52 -35 -103 -73 -103 -154c0 -10 -3 -12 -12 -12h-15zM265 -6c-22 0 -29 5 -29 29v5c0 22 7 29 29 29h5c23 0 29 -7 29 -29v-5c0 -23 -6 -29 -29 -29h-5z" />
    <glyph glyph-name="questiondown" unicode="&#xbf;" horiz-adv-x="579" 
d="M314 516c22 0 29 -5 29 -29v-5c0 -23 -7 -29 -29 -29h-5c-23 0 -29 6 -29 29v5c0 23 6 29 29 29h5zM319 369c9 0 12 -2 12 -12c0 -104 -57 -145 -116 -185c-61 -42 -124 -83 -124 -195c0 -92 68 -166 190 -166c115 0 176 58 207 138c4 9 7 11 16 8l19 -6
c9 -3 11 -7 7 -16c-36 -96 -111 -165 -249 -165c-149 0 -236 92 -236 206c0 135 79 183 144 227c52 35 103 73 103 154c0 10 3 12 12 12h15z" />
    <glyph glyph-name="periodcentered" unicode="&#xb7;" horiz-adv-x="223" 
d="M109 235c-22 0 -29 6 -29 29v6c0 22 7 29 29 29h5c22 0 29 -7 29 -29v-6c0 -22 -7 -29 -29 -29h-5z" />
    <glyph glyph-name="bullet" unicode="&#x2022;" horiz-adv-x="304" 
d="M152 210c-31 0 -53 22 -53 53s22 54 53 54s53 -23 53 -54s-22 -53 -53 -53z" />
    <glyph glyph-name="asterisk" unicode="*" horiz-adv-x="419" 
d="M122 431c-6 4 -6 7 -2 12l73 89l-109 30c-7 1 -9 5 -7 10l5 15c2 6 5 7 11 4l106 -40l-5 114c-1 6 1 8 7 8h16c6 0 8 -2 7 -8l-5 -114l107 40c7 2 10 1 12 -5l4 -14c2 -6 1 -10 -6 -11l-111 -29l72 -90c5 -4 4 -8 -1 -12l-13 -9c-5 -4 -8 -3 -11 3l-63 96l-63 -96
c-3 -6 -6 -7 -12 -3z" />
    <glyph glyph-name="numbersign" unicode="#" horiz-adv-x="696" 
d="M128 0c-9 0 -12 3 -9 12l57 190h-115c-9 0 -11 3 -9 11l6 18c3 9 6 11 16 11h114l56 187h-115c-9 0 -12 3 -9 11l6 18c2 9 6 11 15 11h115l50 166c2 9 5 12 15 12h19c9 0 12 -3 9 -12l-50 -166h175l50 166c3 9 6 12 14 12h20c10 0 12 -3 9 -12l-49 -166h117
c9 0 11 -3 8 -12l-5 -18c-3 -8 -6 -10 -15 -10h-117l-56 -187h117c9 0 11 -3 9 -12l-6 -18c-2 -8 -6 -10 -15 -10h-117l-57 -190c-3 -9 -6 -12 -15 -12h-20c-9 0 -11 3 -8 12l56 190h-175l-57 -190c-2 -9 -5 -12 -14 -12h-20zM406 242l56 187h-175l-56 -187h175z" />
    <glyph glyph-name="slash" unicode="/" horiz-adv-x="423" 
d="M59 -60c-10 0 -11 4 -8 11l277 748c3 9 7 11 16 11h21c9 0 11 -4 8 -11l-277 -748c-3 -9 -7 -11 -16 -11h-21z" />
    <glyph glyph-name="backslash" unicode="\" horiz-adv-x="423" 
d="M344 -60c-10 0 -13 2 -16 11l-278 748c-3 7 -1 11 8 11h22c9 0 13 -2 16 -11l277 -748c3 -7 2 -11 -8 -11h-21z" />
    <glyph glyph-name="parenleft" unicode="(" horiz-adv-x="272" 
d="M218 -138c-85 51 -140 101 -140 224v511c0 122 55 173 140 224c8 4 11 1 15 -7l8 -16c4 -8 2 -11 -6 -16c-68 -43 -114 -82 -114 -182v-517c0 -100 46 -139 114 -183c8 -5 10 -8 6 -15l-8 -17c-4 -8 -7 -10 -15 -6z" />
    <glyph glyph-name="parenright" unicode=")" horiz-adv-x="272" 
d="M55 -138c-8 -4 -12 -2 -16 6l-8 17c-4 7 -2 10 6 15c69 44 115 83 115 183v517c0 100 -46 139 -115 182c-8 5 -9 8 -6 16l8 16c4 8 8 11 16 7c84 -51 139 -102 139 -224v-511c0 -123 -55 -173 -139 -224z" />
    <glyph glyph-name="braceleft" unicode="{" horiz-adv-x="337" 
d="M254 -160c-90 0 -122 40 -122 126v251c0 66 -23 102 -91 102h-11c-8 0 -10 4 -10 12v20c0 8 2 12 10 12h11c68 0 91 37 91 102v252c0 86 32 126 122 126h45c8 0 11 -3 11 -12v-16c0 -9 -3 -12 -11 -12h-44c-60 0 -82 -29 -82 -88v-255c0 -63 -21 -101 -65 -119
c47 -16 65 -56 65 -119v-254c0 -58 22 -88 82 -88h44c8 0 11 -3 11 -12v-16c0 -9 -3 -12 -11 -12h-45z" />
    <glyph glyph-name="braceright" unicode="}" horiz-adv-x="337" 
d="M39 -160c-9 0 -12 3 -12 12v16c0 9 3 12 12 12h43c60 0 82 30 82 88v254c0 63 18 103 66 119c-45 18 -66 56 -66 119v255c0 59 -22 88 -82 88h-43c-9 0 -12 3 -12 12v16c0 9 3 12 12 12h44c90 0 123 -40 123 -126v-252c0 -65 22 -102 91 -102h10c8 0 10 -4 10 -12v-20
c0 -8 -2 -12 -10 -12h-10c-69 0 -91 -36 -91 -102v-251c0 -86 -33 -126 -123 -126h-44z" />
    <glyph glyph-name="bracketleft" unicode="[" horiz-adv-x="288" 
d="M97 -159c-9 0 -11 2 -11 12v978c0 10 2 12 11 12h151c9 0 11 -2 11 -11v-17c0 -9 -2 -11 -11 -11h-120v-923h120c9 0 11 -2 11 -12v-17c0 -9 -2 -11 -11 -11h-151z" />
    <glyph glyph-name="bracketright" unicode="]" horiz-adv-x="288" 
d="M40 -159c-9 0 -11 2 -11 11v17c0 10 2 12 11 12h121v923h-121c-9 0 -11 2 -11 11v17c0 9 2 11 11 11h151c10 0 12 -2 12 -12v-978c0 -10 -2 -12 -12 -12h-151z" />
    <glyph glyph-name="hyphen" unicode="-" horiz-adv-x="458" 
d="M92 324c-9 0 -12 4 -12 13v17c0 9 3 12 12 12h273c10 0 13 -3 13 -12v-17c0 -9 -3 -13 -13 -13h-273z" />
    <glyph glyph-name="endash" unicode="&#x2013;" horiz-adv-x="612" 
d="M92 326c-9 0 -12 4 -12 13v17c0 9 3 12 12 12h427c10 0 13 -3 13 -12v-17c0 -9 -3 -13 -13 -13h-427z" />
    <glyph glyph-name="emdash" unicode="&#x2014;" horiz-adv-x="812" 
d="M92 326c-9 0 -12 3 -12 13v17c0 9 3 12 12 12h627c10 0 13 -3 13 -12v-17c0 -10 -3 -13 -13 -13h-627z" />
    <glyph glyph-name="underscore" unicode="_" horiz-adv-x="542" 
d="M57 -42c-9 0 -12 3 -12 13v16c0 10 3 13 12 13h427c10 0 13 -3 13 -13v-16c0 -10 -3 -13 -13 -13h-427z" />
    <glyph glyph-name="quotesinglbase" unicode="&#x201a;" horiz-adv-x="184" 
d="M83 -116c-9 0 -11 3 -11 12v202c0 9 2 12 11 12h20c9 0 12 -3 11 -12l-9 -202c-1 -9 -3 -12 -12 -12h-10z" />
    <glyph glyph-name="quotedblbase" unicode="&#x201e;" horiz-adv-x="298" 
d="M48 -121c-7 0 -9 2 -8 9l38 157c3 12 8 15 20 15h17c12 0 16 -5 12 -15l-54 -155c-3 -8 -6 -11 -15 -11h-10zM153 -121c-7 0 -9 2 -8 9l38 157c3 12 8 15 20 15h17c12 0 16 -5 12 -15l-54 -155c-3 -8 -6 -11 -15 -11h-10z" />
    <glyph glyph-name="quotedblleft" unicode="&#x201c;" horiz-adv-x="321" 
d="M142 710c8 0 10 -2 8 -9l-38 -157c-2 -12 -8 -15 -19 -15h-17c-13 0 -17 5 -13 15l55 154c3 9 6 12 14 12h10zM247 710c8 0 10 -2 8 -9l-38 -157c-2 -12 -8 -15 -19 -15h-17c-13 0 -17 5 -13 15l55 154c3 9 6 12 14 12h10z" />
    <glyph glyph-name="quotedblright" unicode="&#x201d;" horiz-adv-x="317" 
d="M72 529c-8 0 -10 2 -8 9l38 157c2 12 8 15 19 15h17c13 0 17 -5 13 -15l-55 -155c-3 -8 -6 -11 -14 -11h-10zM177 529c-8 0 -10 2 -8 9l38 157c2 12 8 15 19 15h17c13 0 17 -5 13 -15l-55 -155c-3 -8 -6 -11 -14 -11h-10z" />
    <glyph glyph-name="quoteleft" unicode="&#x2018;" horiz-adv-x="216" 
d="M142 710c8 0 10 -2 8 -9l-38 -157c-2 -12 -8 -15 -19 -15h-17c-13 0 -17 5 -13 15l55 154c3 9 6 12 14 12h10z" />
    <glyph glyph-name="quoteright" unicode="&#x2019;" horiz-adv-x="212" 
d="M83 529c-8 0 -10 2 -9 9l38 157c3 12 8 15 20 15h17c12 0 16 -5 12 -15l-54 -155c-3 -8 -6 -11 -15 -11h-9z" />
    <glyph glyph-name="guillemotleft" unicode="&#xab;" horiz-adv-x="583" 
d="M56 350c-5 6 -5 9 0 15l206 207c6 5 10 5 15 0l13 -13c5 -6 6 -10 0 -16l-184 -185l183 -183c6 -5 6 -10 0 -15l-13 -14c-5 -5 -10 -6 -16 0zM281 350c-6 6 -6 9 0 15l206 207c5 5 10 5 15 0l13 -13c5 -6 6 -10 0 -16l-185 -185l184 -183c6 -5 6 -10 0 -15l-13 -14
c-6 -5 -10 -6 -16 0z" />
    <glyph glyph-name="guillemotright" unicode="&#xbb;" horiz-adv-x="583" 
d="M98 146c-6 -6 -11 -5 -16 0l-14 14c-5 5 -5 10 0 15l184 183l-184 185c-6 6 -5 10 0 16l12 13c6 5 10 5 16 0l206 -207c5 -6 5 -9 0 -15zM322 146c-6 -6 -10 -5 -16 0l-13 14c-5 5 -5 10 0 15l184 183l-184 185c-7 6 -6 10 0 16l12 13c6 5 10 5 15 0l206 -207
c6 -6 6 -9 0 -15z" />
    <glyph glyph-name="guilsinglleft" unicode="&#x2039;" horiz-adv-x="359" 
d="M56 350c-5 6 -5 9 0 15l206 207c5 5 10 5 15 0l13 -13c5 -6 6 -10 0 -16l-184 -185l183 -183c6 -5 6 -10 0 -15l-13 -14c-5 -5 -10 -6 -16 0z" />
    <glyph glyph-name="guilsinglright" unicode="&#x203a;" horiz-adv-x="359" 
d="M98 146c-7 -6 -11 -5 -16 0l-14 14c-5 5 -5 10 0 15l184 183l-184 185c-6 6 -6 10 0 16l12 13c6 5 10 5 16 0l206 -207c5 -6 5 -9 0 -15z" />
    <glyph glyph-name="quotedbl" unicode="&#x22;" horiz-adv-x="300" 
d="M100 484c-9 0 -11 2 -11 10v205c0 9 2 11 11 11h19c9 0 12 -2 11 -11l-8 -205c0 -8 -2 -10 -11 -10h-11zM196 484c-8 0 -11 2 -11 10v205c0 9 3 11 11 11h20c9 0 11 -2 11 -11l-8 -205c0 -8 -3 -10 -11 -10h-12z" />
    <glyph glyph-name="quotesingle" unicode="'" horiz-adv-x="203" 
d="M94 484c-8 0 -11 2 -11 10v205c0 9 3 11 11 11h20c9 0 11 -2 11 -11l-8 -205c0 -8 -3 -10 -11 -10h-12z" />
    <glyph glyph-name="space" unicode=" " horiz-adv-x="244" 
 />
    <glyph glyph-name="uni00A0" unicode="&#xa0;" horiz-adv-x="244" 
 />
    <glyph glyph-name="CR" horiz-adv-x="353" 
 />
    <glyph glyph-name=".null" horiz-adv-x="174" 
 />
    <glyph glyph-name="cent" unicode="&#xa2;" horiz-adv-x="565" 
d="M274 -84c-8 0 -11 3 -11 12v59c-125 7 -190 79 -190 193v153c0 112 63 185 190 192v73c0 9 3 12 11 12h21c9 0 12 -3 12 -12v-73c111 -5 162 -54 186 -135c3 -10 0 -14 -8 -17l-17 -6c-9 -3 -13 0 -16 8c-23 77 -68 113 -167 113c-113 0 -169 -59 -169 -153v-156
c0 -95 59 -154 169 -154c95 0 146 38 169 119c4 9 7 11 17 8l17 -6c8 -3 11 -7 8 -16c-27 -89 -85 -137 -189 -143v-59c0 -9 -3 -12 -12 -12h-21z" />
    <glyph glyph-name="currency" unicode="&#xa4;" horiz-adv-x="626" 
d="M84 119c-7 6 -7 10 0 16l56 57c-34 38 -54 89 -54 144s19 104 52 143l-56 57c-6 6 -6 10 0 16l14 14c6 6 10 6 16 0l57 -56c38 33 89 53 144 53c54 0 103 -19 142 -52l56 56c6 7 11 7 17 0l13 -13c6 -6 6 -11 0 -17l-55 -56c33 -39 54 -89 54 -145
c0 -54 -20 -103 -52 -142l56 -56c6 -6 6 -11 0 -17l-14 -14c-6 -6 -11 -6 -17 0l-56 56c-39 -33 -89 -54 -144 -54c-54 0 -104 20 -143 52l-56 -56c-6 -6 -11 -6 -17 0zM313 150c104 0 186 84 186 187c0 104 -82 185 -186 185s-186 -81 -186 -185c0 -105 82 -187 186 -187z
" />
    <glyph glyph-name="dollar" unicode="$" horiz-adv-x="621" 
d="M296 -78c-9 0 -11 3 -11 12v71c-124 7 -185 73 -226 173c-4 10 -1 15 8 19l18 6c9 3 13 2 17 -8c40 -93 90 -148 208 -148c134 0 199 50 199 150c0 118 -97 126 -199 137c-115 12 -237 29 -237 177c0 119 69 190 212 194v71c0 9 2 12 11 12h20c9 0 12 -3 12 -12v-71
c119 -7 173 -62 221 -159c4 -9 2 -14 -7 -18l-18 -7c-9 -4 -13 -4 -18 5c-45 90 -91 137 -208 137c-121 0 -178 -54 -178 -152c0 -112 96 -122 197 -132c115 -12 238 -28 238 -181c0 -119 -75 -187 -227 -193v-71c0 -9 -3 -12 -12 -12h-20z" />
    <glyph glyph-name="Euro" unicode="&#x20ac;" horiz-adv-x="755" 
d="M434 -15c-170 0 -267 88 -269 239v33h-107c-10 0 -12 3 -10 12l4 13c3 9 7 11 16 11h98v114h-72c-9 0 -12 3 -9 12l4 13c3 9 6 11 15 11h61v41c0 149 95 241 269 241c133 0 204 -43 243 -121c7 -11 5 -17 -5 -21l-16 -7c-10 -5 -14 -4 -20 6c-31 61 -85 100 -202 100
c-145 0 -221 -75 -221 -196v-43h338c8 0 11 -3 8 -11l-4 -14c-2 -8 -7 -11 -16 -11h-328v-114h295c9 0 12 -3 9 -11l-4 -14c-3 -8 -7 -11 -16 -11h-282v-33c1 -121 79 -196 221 -196c122 0 179 46 206 109c6 10 10 12 20 7l16 -8c10 -5 12 -11 6 -21
c-39 -83 -109 -130 -248 -130z" />
    <glyph glyph-name="florin" unicode="&#x192;" horiz-adv-x="469" 
d="M-1 -220c-9 0 -12 3 -12 12v17c0 9 3 12 12 12c113 0 154 64 165 161l38 355h-144c-9 0 -12 3 -12 12v17c0 9 3 12 12 12h149l17 164c13 119 68 198 208 198c9 0 12 -3 12 -12v-17c0 -9 -3 -12 -12 -12c-113 0 -153 -62 -164 -159l-17 -162h153c9 0 11 -3 11 -12v-17
c0 -9 -2 -12 -11 -12h-158l-38 -358c-13 -119 -70 -199 -209 -199z" />
    <glyph glyph-name="uni20BD" unicode="&#x20bd;" horiz-adv-x="671" 
d="M129 0c-9 0 -12 3 -12 13v136h-52c-10 0 -13 3 -13 12v11c0 10 3 13 13 13h52v512c0 10 3 13 12 13h271c135 0 219 -76 219 -208c0 -130 -84 -206 -219 -206h-237v-111h368c9 0 12 -3 12 -13v-11c0 -9 -3 -12 -12 -12h-368v-136c0 -10 -3 -13 -12 -13h-22zM396 340
c109 0 175 59 175 162c0 104 -66 165 -175 165h-233v-327h233z" />
    <glyph glyph-name="sterling" unicode="&#xa3;" horiz-adv-x="661" 
d="M66 0c-9 0 -12 3 -12 13v18c0 6 2 11 8 11h21c58 3 79 60 79 107v169h-85c-9 0 -12 3 -12 13v16c0 9 3 12 12 12h85v183c0 101 61 182 207 182c110 0 180 -41 220 -155c3 -9 1 -13 -8 -16l-19 -7c-10 -4 -13 -1 -17 8c-35 97 -88 127 -175 127c-115 0 -160 -62 -160 -140
v-182h276c10 0 13 -3 13 -12v-16c0 -10 -3 -13 -13 -13h-276v-168c0 -43 -15 -83 -50 -108v-2c32 1 71 3 116 3h300c10 0 13 -3 13 -12v-18c0 -10 -3 -13 -13 -13h-510z" />
    <glyph glyph-name="yen" unicode="&#xa5;" horiz-adv-x="661" 
d="M320 0c-10 0 -13 3 -13 13v148h-166c-8 0 -11 3 -11 11v12c0 9 3 12 11 12h166v108h-166c-8 0 -11 3 -11 11v12c0 9 3 12 11 12h149l-243 358c-3 7 -2 13 7 13h24c15 0 19 -1 24 -11l230 -345l229 345c5 10 9 11 24 11h22c9 0 11 -6 7 -13l-242 -358h146
c8 0 11 -3 11 -12v-12c0 -8 -3 -11 -11 -11h-165v-108h165c8 0 11 -3 11 -12v-12c0 -8 -3 -11 -11 -11h-164v-148c0 -10 -4 -13 -13 -13h-21z" />
    <glyph glyph-name="uni2219" unicode="&#x2219;" horiz-adv-x="219" 
d="M107 187c-23 0 -29 5 -29 29v5c0 22 6 29 29 29h5c22 0 29 -7 29 -29v-5c0 -23 -7 -29 -29 -29h-5z" />
    <glyph glyph-name="uni2215" unicode="&#x2215;" horiz-adv-x="595" 
d="M28 0c-10 0 -12 6 -7 14l504 684c7 11 10 12 25 12h16c11 0 12 -7 7 -14l-503 -684c-8 -10 -11 -12 -27 -12h-15z" />
    <glyph glyph-name="plus" unicode="+" horiz-adv-x="610" 
d="M297 91c-10 0 -13 3 -13 13v203h-203c-9 0 -12 3 -12 12v16c0 9 3 13 12 13h203v202c0 10 3 13 13 13h16c9 0 12 -3 12 -13v-202h203c10 0 13 -4 13 -13v-16c0 -9 -3 -12 -13 -12h-203v-203c0 -10 -3 -13 -12 -13h-16z" />
    <glyph glyph-name="minus" unicode="&#x2212;" horiz-adv-x="634" 
d="M93 304c-9 0 -12 3 -12 13v17c0 9 3 12 12 12h447c10 0 13 -3 13 -12v-17c0 -10 -3 -13 -13 -13h-447z" />
    <glyph glyph-name="multiply" unicode="&#xd7;" horiz-adv-x="536" 
d="M267 296l-156 -156c-7 -7 -11 -7 -18 0l-10 10c-7 6 -7 10 0 18l156 156l-156 158c-7 7 -7 11 0 18l10 10c7 7 11 7 18 0l156 -158l158 158c7 7 11 7 18 0l10 -10c7 -7 7 -11 0 -18l-158 -158l158 -156c7 -8 7 -12 0 -19l-10 -10c-7 -7 -11 -7 -18 0z" />
    <glyph glyph-name="divide" unicode="&#xf7;" horiz-adv-x="622" 
d="M309 496c-21 0 -28 5 -28 27v6c0 20 7 27 28 27h5c20 0 27 -7 27 -27v-6c0 -21 -7 -27 -27 -27h-5zM88 303c-9 0 -12 4 -12 13v17c0 9 3 12 12 12h446c9 0 12 -3 12 -12v-17c0 -9 -3 -13 -12 -13h-446zM309 95c-21 0 -28 6 -28 27v6c0 21 7 27 28 27h5c20 0 27 -6 27 -27
v-6c0 -20 -7 -27 -27 -27h-5z" />
    <glyph glyph-name="equal" unicode="=" horiz-adv-x="634" 
d="M93 405c-9 0 -12 3 -12 12v17c0 10 3 13 12 13h447c10 0 13 -3 13 -13v-17c0 -9 -3 -12 -13 -12h-447zM93 207c-9 0 -12 3 -12 13v16c0 10 3 13 12 13h447c10 0 13 -3 13 -13v-16c0 -10 -3 -13 -13 -13h-447z" />
    <glyph glyph-name="notequal" unicode="&#x2260;" horiz-adv-x="651" 
d="M181 69c-4 0 -4 2 -3 5l68 133h-144c-9 0 -12 3 -12 13v16c0 10 3 13 12 13h166l79 156h-245c-9 0 -12 3 -12 12v17c0 10 3 13 12 13h267l67 132c2 4 4 4 10 4h19c3 0 4 -2 2 -5l-67 -131h149c9 0 13 -3 13 -13v-17c0 -9 -4 -12 -13 -12h-170l-80 -156h250
c9 0 13 -3 13 -13v-16c0 -10 -4 -13 -13 -13h-271l-69 -134c-2 -4 -4 -4 -10 -4h-18z" />
    <glyph glyph-name="greater" unicode="&#x3e;" horiz-adv-x="535" 
d="M95 101c-10 -6 -15 -2 -15 9v17c0 14 3 16 14 22l329 175v2l-329 176c-11 6 -14 7 -14 22v18c0 12 5 15 15 10l374 -203c9 -4 11 -7 11 -17v-12c0 -9 -2 -12 -11 -17z" />
    <glyph glyph-name="less" unicode="&#x3c;" horiz-adv-x="535" 
d="M66 303c-9 5 -11 7 -11 17v12c0 10 2 13 11 17l374 202c10 6 15 2 15 -9v-17c0 -14 -3 -16 -13 -22l-330 -175v-2l329 -176c11 -5 14 -7 14 -21v-19c0 -11 -5 -15 -15 -9z" />
    <glyph glyph-name="greaterequal" unicode="&#x2265;" horiz-adv-x="609" 
d="M119 223c-10 -5 -14 -2 -14 9v17c0 15 3 18 13 22l338 150v2l-338 149c-10 4 -13 7 -13 21v16c0 11 4 13 14 9l383 -175c8 -3 10 -7 10 -16v-12c0 -9 -2 -12 -10 -16zM119 87c-10 0 -14 2 -14 13v16c0 10 4 13 14 13h380c10 0 13 -3 13 -14v-15c0 -10 -3 -13 -13 -13
h-380z" />
    <glyph glyph-name="lessequal" unicode="&#x2264;" horiz-adv-x="609" 
d="M108 399c-9 4 -11 7 -11 16v12c0 9 2 13 11 16l382 175c10 4 14 2 14 -9v-16c0 -14 -2 -17 -12 -21l-338 -149v-2l337 -150c11 -4 13 -7 13 -22v-17c0 -11 -3 -14 -14 -9zM110 89c-10 0 -13 4 -13 14v15c0 10 3 13 13 13h381c10 0 13 -2 13 -12v-17c0 -10 -3 -13 -13 -13
h-381z" />
    <glyph glyph-name="plusminus" unicode="&#xb1;" horiz-adv-x="690" 
d="M338 234c-9 0 -12 3 -12 13v130h-204c-10 0 -13 3 -13 12v13c0 10 3 13 13 13h204v133c0 10 3 13 12 13h15c10 0 13 -3 13 -13v-133h203c9 0 12 -3 12 -13v-13c0 -9 -3 -12 -12 -12h-203v-130c0 -10 -3 -13 -13 -13h-15zM122 128c-10 0 -13 4 -13 13v13c0 9 3 13 13 13
h447c9 0 12 -4 12 -13v-13c0 -9 -3 -13 -12 -13h-447z" />
    <glyph glyph-name="approxequal" unicode="&#x2248;" horiz-adv-x="595" 
d="M396 381c-79 -1 -119 44 -189 44c-38 0 -64 -15 -91 -40c-7 -6 -11 -5 -17 1l-13 12c-7 7 -7 12 0 18c34 31 68 49 116 50c76 0 120 -45 188 -45c38 1 66 17 91 40c7 6 10 7 17 0l13 -13c6 -6 7 -11 0 -18c-34 -30 -68 -48 -115 -49zM397 198c-78 -1 -119 44 -189 44
c-38 0 -64 -15 -91 -40c-7 -6 -11 -6 -17 1l-13 12c-7 7 -7 12 0 18c33 30 67 49 115 49c77 1 119 -44 188 -44c38 0 67 17 92 40c7 6 10 6 17 -1l12 -12c7 -6 7 -12 0 -18c-33 -30 -67 -49 -114 -49z" />
    <glyph glyph-name="asciitilde" unicode="~" horiz-adv-x="594" 
d="M392 280c-79 0 -116 44 -185 44c-39 0 -64 -15 -92 -40c-7 -6 -11 -5 -17 1l-12 11c-7 7 -7 12 0 18c34 31 68 50 117 50c79 0 116 -45 185 -45c39 0 68 17 93 40c7 6 10 7 17 0l12 -12c6 -6 7 -11 0 -18c-34 -31 -69 -49 -118 -49z" />
    <glyph glyph-name="logicalnot" unicode="&#xac;" horiz-adv-x="608" 
d="M494 140c-9 0 -12 3 -12 11v186h-386c-8 0 -11 3 -11 12v17c0 9 3 12 11 12h418c9 0 12 -3 12 -12v-215c0 -8 -3 -11 -12 -11h-20z" />
    <glyph glyph-name="asciicircum" unicode="^" horiz-adv-x="626" 
d="M79 520c-12 0 -14 5 -6 15l215 265c6 7 10 10 17 10h12c9 0 11 -3 16 -10l219 -265c8 -10 5 -15 -6 -15h-20c-14 0 -16 2 -24 11l-190 233h-3l-187 -233c-8 -10 -10 -11 -24 -11h-19z" />
    <glyph glyph-name="infinity" unicode="&#x221e;" horiz-adv-x="752" 
d="M216 136c-81 0 -145 63 -145 147c0 89 63 152 149 152c88 0 135 -73 156 -115c20 41 69 115 157 115c86 0 148 -63 148 -151c0 -86 -66 -148 -146 -148c-90 0 -139 70 -159 111c-19 -38 -68 -111 -160 -111zM217 175c94 0 129 97 137 110c-8 13 -44 111 -134 111
c-66 0 -110 -47 -110 -112c0 -62 46 -109 107 -109zM536 175c61 0 106 48 106 109c0 65 -44 112 -110 112c-91 0 -127 -99 -134 -111c9 -16 45 -110 138 -110z" />
    <glyph glyph-name="integral" unicode="&#x222b;" horiz-adv-x="391" 
d="M35 -220c-9 0 -12 3 -12 12v17c0 9 3 12 12 12c106 0 138 47 138 139v601c0 118 47 179 183 179c9 0 11 -3 11 -12v-17c0 -9 -2 -12 -11 -12c-107 0 -139 -47 -139 -139v-601c0 -118 -47 -179 -182 -179z" />
    <glyph glyph-name="uni2126" unicode="&#x2126;" horiz-adv-x="774" 
d="M74 0c-9 0 -12 3 -12 13v19c0 10 3 13 12 13h182c-117 72 -183 188 -183 334c0 202 130 345 313 345c185 0 315 -143 315 -344c0 -154 -74 -269 -183 -335h181c10 0 13 -3 13 -13v-19c0 -10 -3 -13 -13 -13h-245c-7 0 -10 4 -10 11v16c0 7 2 9 8 12
c122 63 204 179 204 334c0 178 -105 308 -270 308c-162 0 -268 -130 -268 -307c0 -148 71 -263 203 -335c7 -3 8 -6 8 -13v-15c0 -7 -3 -11 -10 -11h-245z" />
    <glyph glyph-name="uni2206" unicode="&#x2206;" horiz-adv-x="639" 
d="M57 0c-10 0 -13 3 -13 13v15c0 9 2 12 6 25l242 647c3 8 7 10 17 10h22c9 0 14 -2 17 -10l241 -647c5 -13 6 -16 6 -25v-15c0 -10 -3 -13 -12 -13h-526zM546 40l-160 435c-26 71 -46 140 -65 191h-3c-19 -51 -39 -120 -64 -191l-160 -435h452z" />
    <glyph glyph-name="product" unicode="&#x220f;" horiz-adv-x="688" 
d="M142 -100c-9 0 -12 3 -12 13v754h-69c-10 0 -13 3 -13 12v18c0 10 3 13 13 13h567c9 0 12 -3 12 -13v-18c0 -9 -3 -12 -12 -12h-67v-754c0 -10 -3 -13 -13 -13h-21c-9 0 -13 3 -13 13v754h-338v-754c0 -10 -3 -13 -12 -13h-22z" />
    <glyph glyph-name="summation" unicode="&#x2211;" horiz-adv-x="596" 
d="M63 -100c-10 0 -13 3 -13 13v17c0 5 1 9 4 13l219 367l-215 355c-4 5 -5 10 -5 15v17c0 10 3 13 13 13h451c9 0 12 -3 12 -13v-18c0 -9 -3 -12 -12 -12h-408l208 -343c7 -10 7 -16 0 -28l-210 -353h414c9 0 12 -3 12 -12v-18c0 -10 -3 -13 -12 -13h-458z" />
    <glyph glyph-name="radical" unicode="&#x221a;" horiz-adv-x="703" 
d="M390 -106c-9 0 -13 1 -16 10l-171 494h-145c-9 0 -12 3 -12 13v16c0 10 3 13 12 13h159c16 0 20 -2 23 -12l122 -358c17 -48 27 -97 37 -127h3c9 30 18 80 33 128l198 669c3 9 6 10 21 10h17c9 0 11 -3 9 -12l-255 -834c-2 -9 -6 -10 -16 -10h-19z" />
    <glyph glyph-name="uni00B5" unicode="&#xb5;" horiz-adv-x="573" 
d="M92 -220c-8 0 -11 3 -11 12v709c0 8 3 11 12 11h19c9 0 12 -3 12 -11v-321c0 -101 49 -156 156 -156c66 0 117 14 149 27c19 9 21 19 21 34v416c0 8 3 11 12 11h20c8 0 11 -3 11 -11v-429c0 -30 -7 -41 -37 -54c-40 -16 -95 -33 -174 -33c-82 0 -134 30 -159 85l1 -278
c0 -9 -3 -12 -12 -12h-20z" />
    <glyph glyph-name="partialdiff" unicode="&#x2202;" horiz-adv-x="581" 
d="M285 -15c-144 0 -217 72 -217 190v140c0 118 74 190 209 190c96 0 156 -33 182 -91c-3 189 -79 287 -300 287c-10 0 -12 3 -12 12v16c0 9 2 12 11 12c252 0 342 -114 342 -340v-226c0 -118 -74 -190 -215 -190zM285 24c112 0 172 57 172 151v141c0 94 -60 150 -172 150
c-115 0 -174 -57 -174 -151v-140c0 -94 59 -151 174 -151z" />
    <glyph glyph-name="percent" unicode="%" horiz-adv-x="840" 
d="M209 359c-101 0 -155 55 -155 145v74c0 91 54 147 155 147c100 0 154 -56 154 -147v-74c0 -90 -54 -145 -154 -145zM151 0c-10 0 -12 6 -7 13l505 686c7 10 10 11 23 11h18c10 0 12 -5 6 -13l-504 -686c-8 -10 -11 -11 -26 -11h-15zM209 395c75 0 117 42 117 111v71
c0 70 -42 112 -117 112c-76 0 -117 -42 -117 -112v-71c0 -69 41 -111 117 -111zM631 -15c-101 0 -154 55 -154 145v74c0 91 53 147 154 147s155 -56 155 -147v-74c0 -90 -54 -145 -155 -145zM631 21c76 0 117 42 117 111v71c0 70 -41 112 -117 112s-117 -42 -117 -112v-71
c0 -69 41 -111 117 -111z" />
    <glyph glyph-name="perthousand" unicode="&#x2030;" horiz-adv-x="1209" 
d="M209 359c-101 0 -155 55 -155 145v74c0 90 54 146 155 146c100 0 154 -56 154 -146v-74c0 -90 -54 -145 -154 -145zM151 0c-10 0 -12 6 -7 13l505 686c7 10 10 11 23 11h18c10 0 12 -5 6 -13l-504 -686c-8 -10 -11 -11 -26 -11h-15zM209 395c75 0 117 42 117 111v70
c0 70 -42 112 -117 112c-76 0 -117 -42 -117 -112v-70c0 -69 41 -111 117 -111zM631 -14c-101 0 -154 55 -154 145v73c0 91 53 147 154 147s155 -56 155 -147v-73c0 -90 -54 -145 -155 -145zM1003 -14c-101 0 -154 55 -154 145v73c0 91 53 147 154 147s155 -56 155 -147v-73
c0 -90 -54 -145 -155 -145zM631 22c76 0 117 41 117 111v70c0 70 -41 112 -117 112s-117 -42 -117 -112v-70c0 -70 41 -111 117 -111zM1003 22c76 0 117 41 117 111v70c0 70 -41 112 -117 112s-117 -42 -117 -112v-70c0 -70 41 -111 117 -111z" />
    <glyph glyph-name="arrowup" unicode="&#x2191;" horiz-adv-x="776" 
d="M380 -4c-8 0 -11 3 -11 11v596l-212 -212c-6 -6 -10 -5 -15 0l-12 12c-5 5 -5 9 1 15l246 246c8 8 14 8 22 0l246 -246c6 -6 6 -10 0 -15l-11 -11c-5 -6 -9 -7 -15 0l-212 211v-596c0 -8 -3 -11 -11 -11h-16z" />
    <glyph glyph-name="uni2197" unicode="&#x2197;" horiz-adv-x="776" 
d="M195 511v-299c0 -8 -2 -11 -10 -11h-16c-8 0 -11 2 -11 11v348c0 11 4 15 15 15h348c8 0 11 -3 11 -10v-16c0 -8 -1 -11 -10 -11h-300l422 -422c5 -6 5 -10 0 -16l-12 -11c-5 -5 -9 -5 -15 0z" />
    <glyph glyph-name="arrowright" unicode="&#x2192;" horiz-adv-x="776" 
d="M456 88c-5 5 -6 9 0 15l211 213h-596c-8 0 -11 2 -11 10v16c0 7 3 10 11 10h596l-211 213c-6 6 -5 10 0 15l11 12c5 5 9 5 16 -1l246 -246c8 -8 8 -14 0 -22l-246 -246c-7 -6 -11 -6 -16 0z" />
    <glyph glyph-name="uni2198" unicode="&#x2198;" horiz-adv-x="776" 
d="M256 84c-8 0 -11 2 -11 10v16c0 7 2 11 11 11h300l-422 422c-5 5 -6 10 0 15l11 11c6 6 10 6 16 0l422 -422v300c0 8 2 11 10 11h16c8 0 10 -3 10 -11v-348c0 -12 -3 -15 -15 -15h-348z" />
    <glyph glyph-name="arrowdown" unicode="&#x2193;" horiz-adv-x="776" 
d="M131 247c-6 6 -6 10 -1 16l12 11c5 5 9 6 15 0l212 -211v596c0 7 3 10 11 10h16c8 0 11 -3 11 -10v-596l212 211c6 6 10 5 15 0l11 -11c6 -6 6 -10 0 -16l-246 -246c-8 -8 -14 -8 -22 0z" />
    <glyph glyph-name="uni2199" unicode="&#x2199;" horiz-adv-x="776" 
d="M172 84c-11 0 -15 3 -15 15v348c0 8 2 11 10 11h17c8 0 10 -3 10 -11v-300l422 422c5 6 9 6 15 0l11 -11c6 -5 6 -10 0 -15l-422 -422h300c9 0 11 -4 11 -11v-16c0 -8 -3 -10 -11 -10h-348z" />
    <glyph glyph-name="arrowleft" unicode="&#x2190;" horiz-adv-x="776" 
d="M309 77c-5 -6 -9 -6 -15 0l-246 246c-8 8 -8 14 0 22l246 246c6 6 10 6 15 1l12 -12c5 -5 6 -9 0 -15l-212 -213h596c8 0 11 -3 11 -10v-16c0 -8 -3 -10 -11 -10h-596l212 -213c5 -6 5 -10 0 -15z" />
    <glyph glyph-name="uni2196" unicode="&#x2196;" horiz-adv-x="776" 
d="M133 100c-6 6 -6 10 0 16l422 422h-300c-9 0 -11 3 -11 11v16c0 7 3 10 11 10h348c11 0 15 -4 15 -15v-348c0 -9 -2 -11 -10 -11h-17c-8 0 -10 3 -10 11v299l-422 -422c-5 -5 -9 -5 -15 0z" />
    <glyph glyph-name="lozenge" unicode="&#x25ca;" horiz-adv-x="546" 
d="M267 0c-8 0 -11 2 -16 10l-199 334c-5 8 -4 14 0 22l198 333c5 8 8 11 16 11h14c9 0 11 -2 16 -10l198 -334c5 -8 5 -14 0 -22l-198 -334c-5 -8 -9 -10 -17 -10h-12zM274 52l177 303l-176 304h-2l-177 -304l176 -303h2z" />
    <glyph glyph-name="at" unicode="@" horiz-adv-x="932" 
d="M463 -132c-250 0 -397 140 -397 389v69c0 245 147 398 397 398c260 0 399 -161 399 -398v-69c0 -142 -85 -210 -175 -210c-36 0 -54 13 -63 43c-26 -13 -89 -40 -187 -40c-116 0 -170 60 -170 162v158c0 101 54 164 170 164c81 0 144 -17 175 -30c26 -11 35 -20 35 -48
v-336c0 -29 16 -39 40 -39c69 0 139 51 139 176v70c0 219 -126 364 -363 364c-226 0 -361 -138 -361 -364v-70c0 -230 135 -356 361 -356c109 0 204 26 214 28c6 1 8 1 8 -4v-19c0 -8 -2 -9 -8 -11c-8 -2 -95 -27 -214 -27zM441 85c97 0 153 31 167 39v322
c0 17 -4 22 -21 29c-27 11 -80 23 -146 23c-94 0 -136 -48 -136 -129v-156c0 -82 42 -128 136 -128z" />
    <glyph glyph-name="ampersand" unicode="&#x26;" horiz-adv-x="685" 
d="M247 -14c-104 0 -188 80 -188 187c0 116 77 166 163 204c-49 49 -100 105 -100 181c0 86 67 166 175 166c101 0 173 -77 173 -164c0 -97 -56 -142 -171 -190l-10 -4l207 -199l73 69c5 6 10 6 16 0l14 -14c5 -5 5 -9 -1 -15l-73 -70l128 -125c8 -7 6 -12 -5 -12h-27
c-9 0 -13 2 -19 8l-106 102c-117 -107 -173 -124 -249 -124zM280 405c85 36 149 64 149 155c0 65 -54 126 -132 126c-81 0 -133 -62 -133 -128c0 -69 48 -115 96 -162zM249 27c66 0 116 20 218 112l-217 209c-86 -37 -147 -79 -147 -176c0 -82 67 -145 146 -145z" />
    <glyph glyph-name="paragraph" unicode="&#xb6;" horiz-adv-x="391" 
d="M177 -89c-9 0 -12 3 -12 12v586c-59 1 -99 41 -99 99c0 62 41 102 102 102h119c9 0 12 -3 12 -12v-775c0 -9 -3 -12 -12 -12h-18c-8 0 -11 3 -11 12v742h-52v-742c0 -9 -3 -12 -12 -12h-17z" />
    <glyph glyph-name="section" unicode="&#xa7;" horiz-adv-x="622" 
d="M315 -223c-124 0 -208 56 -247 170c-3 9 0 14 8 17l19 7c9 3 13 2 17 -9c33 -97 102 -142 203 -142c133 0 192 53 192 132c0 110 -98 120 -199 130c-114 12 -236 28 -236 167c0 94 70 138 114 157c-63 20 -109 61 -109 149c0 102 68 175 228 175c120 0 201 -53 242 -168
c4 -9 2 -13 -7 -17l-18 -8c-9 -4 -13 -2 -18 8c-34 95 -101 141 -199 141c-129 0 -181 -53 -181 -131c0 -109 97 -121 195 -132c110 -12 226 -36 226 -168c0 -86 -62 -132 -100 -154c62 -20 108 -59 108 -149c0 -102 -75 -175 -238 -175zM397 115c20 9 102 48 102 137
c0 99 -95 119 -189 128c-26 3 -53 6 -76 10c-24 -8 -115 -38 -115 -136c0 -104 95 -119 195 -129c28 -2 56 -5 83 -10z" />
    <glyph glyph-name="copyright" unicode="&#xa9;" horiz-adv-x="843" 
d="M422 -8c-226 0 -359 133 -359 359s133 359 359 359c225 0 358 -133 358 -359s-133 -359 -358 -359zM422 21c207 0 328 123 328 330s-121 329 -328 329s-329 -122 -329 -329s122 -330 329 -330zM418 143c-101 0 -157 56 -157 144v119c0 89 54 144 157 144
c91 0 134 -37 153 -102c3 -7 1 -10 -5 -13l-13 -4c-7 -2 -10 -1 -12 5c-18 59 -48 83 -124 83c-83 0 -123 -41 -123 -112v-120c0 -70 41 -112 123 -112c72 0 108 27 125 87c3 7 6 8 14 6l11 -4c7 -2 9 -5 6 -12c-20 -70 -67 -109 -155 -109z" />
    <glyph glyph-name="registered" unicode="&#xae;" horiz-adv-x="519" 
d="M261 322c-123 0 -195 72 -195 194s72 194 195 194c121 0 193 -72 193 -194s-72 -194 -193 -194zM262 343c107 0 171 64 171 173s-64 172 -171 172c-109 0 -174 -63 -174 -172s65 -173 174 -173zM187 413c-5 0 -6 2 -6 6v191c0 7 2 9 9 9h92c43 0 70 -24 70 -66
c0 -34 -18 -55 -48 -61l41 -70c3 -5 3 -9 -5 -9h-10c-7 0 -8 1 -10 5l-40 71h-76v-70c0 -4 -1 -6 -6 -6h-11zM282 510c29 0 47 14 47 43c0 28 -18 44 -47 44h-78v-87h78z" />
    <glyph glyph-name="uni2117" unicode="&#x2117;" horiz-adv-x="844" 
d="M423 -8c-226 0 -360 133 -360 359s134 359 360 359c225 0 358 -133 358 -359s-133 -359 -358 -359zM423 21c206 0 328 123 328 330s-122 329 -328 329c-207 0 -329 -122 -329 -329s122 -330 329 -330zM309 149c-8 0 -10 2 -10 10v374c0 9 2 11 11 11h141
c85 0 140 -49 140 -135c0 -85 -55 -133 -140 -133h-120v-117c0 -8 -2 -10 -9 -10h-13zM449 307c67 0 109 36 109 102c0 67 -42 104 -109 104h-118v-206h118z" />
    <glyph glyph-name="trademark" unicode="&#x2122;" horiz-adv-x="661" 
d="M277 695c7 0 9 -1 9 -10v-8c0 -8 -2 -9 -9 -9h-89v-215c0 -8 -3 -10 -11 -10h-7c-8 0 -11 2 -11 10v215h-90c-8 0 -9 1 -9 9v8c0 9 1 10 9 10h208zM562 695c7 0 9 -1 9 -9v-233c0 -8 -1 -10 -9 -10h-9c-8 0 -10 2 -10 10v136c0 16 1 35 1 53l-22 -36l-65 -98
c-4 -5 -6 -6 -12 -6h-4c-6 0 -7 0 -11 5l-64 96c-8 11 -16 23 -24 35c1 -17 1 -34 1 -49v-136c0 -8 0 -10 -9 -10h-9c-8 0 -10 2 -10 10v232c0 9 2 10 11 10h5c6 0 8 -1 12 -6l100 -154l101 153c3 4 5 7 11 7h7z" />
    <glyph glyph-name="degree" unicode="&#xb0;" horiz-adv-x="414" 
d="M208 409c-82 0 -147 65 -147 146c0 82 65 145 147 145c80 0 145 -63 145 -145c0 -79 -66 -146 -145 -146zM208 446c59 0 108 50 108 109c0 60 -49 109 -108 109c-61 0 -110 -49 -110 -109c0 -61 49 -109 110 -109z" />
    <glyph glyph-name="bar" unicode="|" horiz-adv-x="212" 
d="M97 -147c-9 0 -11 3 -11 12v979c0 9 2 12 11 12h18c8 0 11 -3 11 -12v-979c0 -9 -3 -12 -11 -12h-18z" />
    <glyph glyph-name="brokenbar" unicode="&#xa6;" horiz-adv-x="222" 
d="M102 431c-9 0 -12 3 -12 12v401c0 9 3 12 12 12h18c8 0 11 -3 11 -12v-401c0 -9 -3 -12 -11 -12h-18zM102 -146c-9 0 -12 3 -12 12v401c0 9 3 12 12 12h18c8 0 11 -3 11 -12v-401c0 -9 -3 -12 -11 -12h-18z" />
    <glyph glyph-name="uni2113" unicode="&#x2113;" horiz-adv-x="451" 
d="M284 -6c-102 0 -141 55 -141 158v70c-26 -20 -52 -38 -75 -55c-6 -5 -11 -4 -14 3l-11 16c-3 6 -3 11 3 15c32 23 66 46 97 70v296c0 122 62 165 133 165c74 0 127 -47 127 -150c0 -127 -98 -234 -220 -330v-90c0 -84 24 -129 102 -129c51 0 84 31 86 32c5 4 9 4 12 0
l14 -16c3 -3 6 -8 -1 -13c-5 -5 -47 -42 -112 -42zM183 305c99 81 180 172 180 277c0 81 -39 113 -88 113c-50 0 -92 -32 -92 -128v-262z" />
    <glyph glyph-name="dagger" unicode="&#x2020;" horiz-adv-x="567" 
d="M275 -100c-9 0 -12 3 -12 13v510h-201c-10 0 -13 3 -13 12v18c0 10 3 13 13 13h201v231c0 10 3 13 12 13h19c9 0 13 -3 13 -13v-231h199c9 0 12 -3 12 -13v-18c0 -9 -3 -12 -12 -12h-199v-510c0 -10 -4 -13 -13 -13h-19z" />
    <glyph glyph-name="daggerdbl" unicode="&#x2021;" horiz-adv-x="619" 
d="M301 -100c-10 0 -13 3 -13 13v230h-200c-10 0 -13 3 -13 12v18c0 10 3 13 13 13h200v237h-201c-9 0 -12 3 -12 12v18c0 10 3 13 12 13h201v231c0 10 3 13 13 13h18c10 0 13 -3 13 -13v-231h199c10 0 13 -3 13 -13v-18c0 -9 -3 -12 -13 -12h-199v-237h199
c10 0 13 -3 13 -13v-18c0 -9 -3 -12 -13 -12h-199v-230c0 -10 -3 -13 -13 -13h-18z" />
    <glyph glyph-name="estimated" unicode="&#x212e;" horiz-adv-x="855" 
d="M433 -15c-204 0 -370 166 -370 370s166 370 370 370s370 -166 370 -370v-16c0 -10 -4 -15 -16 -15h-550v-214c56 -42 125 -69 196 -69c116 0 228 66 283 179c5 10 10 12 24 12h26c12 0 14 -2 10 -14c-53 -134 -185 -233 -343 -233zM629 379v225c-55 44 -124 69 -196 69
s-140 -25 -196 -68v-226h392z" />
    <glyph glyph-name="uni2116" unicode="&#x2116;" horiz-adv-x="1068" 
d="M842 359c-101 0 -155 55 -155 145v74c0 91 54 147 155 147c100 0 154 -56 154 -147v-74c0 -90 -54 -145 -154 -145zM130 0c-9 0 -12 3 -12 13v684c0 10 3 13 12 13h21c8 0 11 -4 14 -7l345 -493c37 -53 67 -109 91 -142h3c0 43 -7 110 -7 179v451c0 9 3 12 12 12h20
c10 0 13 -3 13 -13v-684c0 -10 -3 -13 -13 -13h-20c-7 0 -10 1 -15 8l-354 506c-33 47 -60 101 -81 130h-2c0 -38 6 -102 6 -165v-466c0 -10 -3 -13 -13 -13h-20zM842 395c75 0 117 41 117 111v71c0 70 -42 112 -117 112c-76 0 -117 -42 -117 -112v-71
c0 -70 41 -111 117 -111zM698 249c-9 0 -12 3 -12 12v15c0 9 3 13 12 13h287c9 0 12 -4 12 -13v-15c0 -9 -3 -12 -12 -12h-287z" />
    <glyph glyph-name="uni0308" unicode="&#x308;" 
d="M-336 644c-20 0 -25 5 -25 25v5c0 19 5 25 25 25h4c20 0 26 -6 26 -25v-5c0 -19 -6 -25 -26 -25h-4zM-145 644c-20 0 -26 5 -26 25v5c0 19 6 25 26 25h4c20 0 25 -6 25 -25v-5c0 -19 -5 -25 -25 -25h-4z" />
    <glyph glyph-name="uni0307" unicode="&#x307;" 
d="M-125 646c-21 0 -27 4 -27 26v6c0 21 6 26 27 26h5c21 0 27 -5 27 -26v-6c0 -21 -6 -26 -27 -26h-5z" />
    <glyph glyph-name="gravecomb" unicode="&#x300;" 
d="M-243 711c-9 4 -9 8 -2 15l9 11c7 8 14 6 23 1l169 -107c7 -3 7 -6 1 -13l-7 -8c-4 -5 -7 -5 -16 -1z" />
    <glyph glyph-name="acutecomb" unicode="&#x301;" 
d="M-219 609c-8 -4 -12 -4 -16 1l-7 8c-5 7 -5 10 2 13l169 107c8 5 16 7 22 -1l10 -11c6 -7 6 -11 -2 -15z" />
    <glyph glyph-name="uni030B" unicode="&#x30b;" 
d="M-349 604c-8 2 -7 6 -3 12l101 113c6 7 10 10 20 8l15 -5c10 -2 10 -7 5 -13l-113 -113c-6 -6 -10 -8 -16 -5zM-177 604c-8 2 -8 7 -4 12l106 111c6 8 10 11 20 8l16 -4c10 -3 11 -8 5 -13l-119 -112c-6 -6 -10 -7 -15 -5z" />
    <glyph glyph-name="uni0302" unicode="&#x302;" 
d="M-355 602c-11 0 -11 4 -6 9l133 113c11 10 13 11 24 11h6c10 0 12 0 23 -11l133 -113c5 -5 5 -9 -6 -9h-19c-10 0 -14 1 -20 7l-115 95l-115 -95c-7 -6 -10 -7 -20 -7h-18z" />
    <glyph glyph-name="uni030C" unicode="&#x30c;" 
d="M-184 601c-11 0 -13 1 -24 11l-133 113c-5 5 -5 9 5 9h19c10 0 13 -1 20 -7l115 -95l115 95c6 6 10 7 20 7h19c11 0 10 -5 5 -10l-132 -112c-11 -11 -13 -11 -23 -11h-6z" />
    <glyph glyph-name="uni0306" unicode="&#x306;" 
d="M-164 606c-80 0 -125 37 -150 112c-2 6 0 9 5 11l17 6c7 2 10 1 12 -5c20 -61 53 -90 116 -90c62 0 95 29 116 90c2 6 4 7 11 5l17 -6c6 -2 8 -5 6 -11c-25 -75 -70 -112 -150 -112z" />
    <glyph glyph-name="uni030A" unicode="&#x30a;" 
d="M-133 575c-60 0 -99 37 -99 95c0 57 39 94 99 94c58 0 95 -37 95 -94c0 -58 -37 -95 -95 -95zM-133 600c43 0 70 27 70 70c0 42 -27 69 -70 69c-46 0 -74 -27 -74 -69c0 -43 28 -70 74 -70z" />
    <glyph glyph-name="tildecomb" unicode="&#x303;" 
d="M-314 617c-6 0 -8 3 -8 9c0 60 26 94 75 94c73 0 98 -72 156 -72c33 0 48 26 48 63c0 6 1 9 8 9h13c6 0 8 -3 8 -9c0 -59 -23 -94 -74 -94c-71 0 -97 72 -156 72c-31 0 -48 -25 -48 -63c0 -6 -2 -9 -8 -9h-14z" />
    <glyph glyph-name="uni0304" unicode="&#x304;" 
d="M-312 648c-9 0 -11 3 -11 12v10c0 9 3 11 11 11h238c8 0 11 -2 11 -11v-10c0 -9 -3 -12 -11 -12h-238z" />
    <glyph glyph-name="uni0326" unicode="&#x326;" 
d="M-132 -246c-8 0 -10 3 -9 10l40 146c1 10 5 12 15 12h18c11 0 14 -4 11 -13l-47 -143c-3 -9 -6 -12 -15 -12h-13z" />
    <glyph glyph-name="uni0327" unicode="&#x327;" 
d="M-143 -246c-40 0 -68 12 -84 22c-7 4 -9 7 -9 16v13c0 4 2 8 7 4c17 -13 39 -26 81 -26c50 0 79 24 79 66c0 33 -25 48 -68 49c-14 0 -27 -2 -38 -6c-10 -2 -13 3 -9 14l35 94h29l-29 -81c8 2 20 3 31 3c54 0 88 -29 87 -75c-3 -62 -48 -93 -112 -93z" />
    <glyph glyph-name="uni0328" unicode="&#x328;" 
d="M-147 -247c-30 0 -60 12 -71 47c-18 53 18 134 104 200h34c-78 -65 -115 -139 -99 -181c7 -22 27 -31 45 -31c23 0 46 10 63 28c3 2 6 2 8 -3l5 -14c2 -5 1 -7 -1 -10c-25 -24 -53 -36 -88 -36z" />
    <glyph glyph-name="acute" unicode="&#xb4;" horiz-adv-x="288" 
d="M69 593c-8 -3 -12 -3 -16 2l-7 8c-5 6 -5 9 2 13l169 107c8 4 16 6 22 -1l10 -11c6 -8 6 -12 -2 -15z" />
    <glyph glyph-name="breve" unicode="&#x2d8;" horiz-adv-x="318" 
d="M154 591c-80 0 -129 36 -150 111c-2 7 0 10 5 12l17 6c7 2 10 1 12 -5c17 -62 53 -90 116 -90c62 0 99 28 116 90c2 6 4 7 11 5l17 -6c6 -3 8 -5 6 -12c-22 -75 -70 -111 -150 -111z" />
    <glyph glyph-name="caron" unicode="&#x2c7;" horiz-adv-x="363" 
d="M179 586c-11 0 -13 0 -24 11l-133 112c-5 5 -5 10 5 10h19c10 0 13 -1 20 -7l115 -95l115 95c6 6 10 7 20 7h19c11 0 10 -5 5 -10l-132 -112c-11 -11 -13 -11 -23 -11h-6z" />
    <glyph glyph-name="cedilla" unicode="&#xb8;" horiz-adv-x="282" 
d="M139 -246c-40 0 -68 12 -84 22c-7 4 -9 7 -9 16v13c0 4 2 8 7 4c17 -13 39 -26 81 -26c50 0 79 24 79 66c0 33 -25 48 -68 49c-14 0 -27 -2 -38 -6c-10 -2 -13 3 -9 14l35 94h29l-29 -81c8 2 20 3 31 3c54 0 88 -29 87 -75c-3 -62 -48 -93 -112 -93z" />
    <glyph glyph-name="circumflex" unicode="&#x2c6;" horiz-adv-x="401" 
d="M46 586c-11 0 -11 5 -6 10l133 113c11 10 13 11 24 11h6c10 0 12 -1 23 -11l133 -113c5 -5 5 -10 -6 -10h-19c-10 0 -14 2 -20 7l-115 95l-115 -95c-7 -6 -10 -7 -20 -7h-18z" />
    <glyph glyph-name="dieresis" unicode="&#xa8;" horiz-adv-x="470" 
d="M133 624c-17 0 -23 5 -23 22v7c0 17 6 23 23 23h6c19 0 23 -6 23 -23v-7c0 -17 -4 -22 -23 -22h-6zM325 624c-19 0 -24 5 -24 22v7c0 17 5 23 24 23h5c17 0 23 -6 23 -23v-7c0 -17 -6 -22 -23 -22h-5z" />
    <glyph glyph-name="dotaccent" unicode="&#x2d9;" horiz-adv-x="247" 
d="M121 624c-18 0 -23 5 -23 24v5c0 18 5 24 23 24h5c18 0 24 -6 24 -24v-5c0 -18 -6 -24 -24 -24h-5z" />
    <glyph glyph-name="grave" unicode="`" horiz-adv-x="288" 
d="M45 696c-9 3 -9 7 -2 15l9 11c7 7 14 5 23 1l169 -107c7 -4 7 -7 1 -13l-7 -8c-4 -5 -7 -5 -16 -2z" />
    <glyph glyph-name="hungarumlaut" unicode="&#x2dd;" horiz-adv-x="426" 
d="M77 588c-8 3 -7 7 -3 13l101 112c6 8 10 11 20 8l15 -4c10 -3 10 -7 5 -13l-113 -114c-6 -5 -10 -7 -16 -5zM249 589c-8 2 -8 7 -4 12l106 111c6 7 10 10 20 8l16 -4c10 -3 11 -8 5 -14l-119 -111c-6 -6 -10 -8 -15 -5z" />
    <glyph glyph-name="macron" unicode="&#xaf;" horiz-adv-x="383" 
d="M71 633c-9 0 -11 3 -11 11v11c0 9 3 11 11 11h238c8 0 11 -2 11 -11v-11c0 -8 -3 -11 -11 -11h-238z" />
    <glyph glyph-name="ogonek" unicode="&#x2db;" horiz-adv-x="283" 
d="M136 -247c-30 0 -60 12 -71 47c-18 53 18 134 104 200h34c-78 -65 -115 -139 -99 -181c7 -22 27 -31 45 -31c23 0 46 10 63 28c3 2 6 2 8 -3l5 -14c2 -5 1 -7 -1 -10c-25 -24 -53 -36 -88 -36z" />
    <glyph glyph-name="ring" unicode="&#x2da;" horiz-adv-x="271" 
d="M138 545c-60 0 -99 36 -99 94s39 95 99 95c58 0 95 -37 95 -95s-37 -94 -95 -94zM138 569c43 0 70 28 70 70c0 43 -27 70 -70 70c-46 0 -74 -27 -74 -70c0 -42 28 -70 74 -70z" />
    <glyph glyph-name="tilde" unicode="&#x2dc;" horiz-adv-x="336" 
d="M22 602c-6 0 -8 3 -8 8c0 60 26 94 75 94c73 0 98 -72 156 -72c33 0 48 27 48 64c0 6 1 8 8 8h13c6 0 8 -2 8 -8c0 -59 -23 -94 -74 -94c-71 0 -97 72 -156 72c-31 0 -48 -25 -48 -64c0 -5 -2 -8 -8 -8h-14z" />
    <glyph glyph-name="uni0326.alt" 
d="M-155 583c-12 0 -15 4 -12 13l56 143c3 9 5 12 14 12h13c9 0 11 -3 9 -10l-47 -146c-2 -10 -5 -12 -15 -12h-18z" />
    <glyph glyph-name="uni0326.altcomb" 
d="M-155 591c-12 0 -15 4 -12 13l56 143c3 8 5 11 14 11h13c9 0 11 -2 9 -9l-47 -146c-2 -10 -5 -12 -15 -12h-18z" />
    <glyph glyph-name="uni0308.case" 
d="M-337 801c-17 0 -23 5 -23 22v7c0 17 6 23 23 23h6c19 0 23 -6 23 -23v-7c0 -17 -4 -22 -23 -22h-6zM-145 801c-19 0 -24 5 -24 22v7c0 17 5 23 24 23h5c17 0 23 -6 23 -23v-7c0 -17 -6 -22 -23 -22h-5z" />
    <glyph glyph-name="uni0307.case" 
d="M-126 796c-18 0 -23 5 -23 24v5c0 19 5 24 23 24h5c18 0 24 -5 24 -24v-5c0 -18 -6 -24 -24 -24h-5z" />
    <glyph glyph-name="gravecomb.case" 
d="M-245 867c-8 4 -8 8 -2 15l10 11c7 8 14 6 22 2l173 -102c6 -4 7 -7 1 -14l-7 -8c-4 -5 -8 -5 -16 -1z" />
    <glyph glyph-name="acutecomb.case" 
d="M-219 765c-8 -3 -12 -3 -16 1l-7 8c-5 7 -5 10 2 14l169 107c8 4 16 6 22 -2l10 -11c6 -7 6 -11 -2 -15z" />
    <glyph glyph-name="uni030B.case" 
d="M-349 766c-8 2 -7 7 -3 12l101 113c6 7 11 10 20 8l15 -4c9 -3 10 -8 5 -14l-113 -113c-6 -6 -10 -7 -16 -5zM-176 765c-8 2 -8 7 -3 12l103 114c6 7 11 10 20 8l16 -4c9 -3 10 -8 4 -14l-115 -114c-6 -6 -10 -8 -16 -5z" />
    </font>
</defs>
</svg>
