<svg viewBox="0 0 149.01 69.32" xmlns="http://www.w3.org/2000/svg"><path d="m3.38 0v4.13.18.09l.05 8.13h-.1-.25l-.49-.01v.49.26l-.01 2.38v.25.48l.48.01h.26.77v6.65h-.79v-.01h-.26-.48v.49.26l.09 13.68-1.2 1.02-.09.08-.18.14v.23.12l.01 1.62-1.19 1.78v10.29l1.2 1.78.01 11.94v.11.21l.15.14.08.08 2.19 2.11.08.07.14.14h.2.1 7.38.26.49v-.49-.26-.35h1.14v.35l.01.26v.49h.48.26 1.19.25.49v-.49-.26l-.01-.43h2.03v.43.26.49h.49.26 6.45.11.22l.15-.17.08-.08 2.15-2.44 27.01.01 2.84 2.49.07.07.14.12h.18 1.58 85.55.19l.15-.14.07-.07 2.83-2.69.08-.08.15-.14v-.21-.11l.14-64.97v-.11-.8z" fill-rule="evenodd"/></svg>