<svg viewBox="0 0 149.01 171.38" xmlns="http://www.w3.org/2000/svg"><path d="m3.38 0v4.13.18.09l.05 35.14h-.1-.25-.49v.49.25l-.01 2.38v.26.48h.48l.26.01h.77v6.64h-.79-.26-.48v.49.26l.09 13.68-1.2 1.02-.09.07-.18.15v.22.12 1.63l-1.18 1.77v10.3l1.19 1.75.02 87.02v.11.2l.15.15.08.07 2.19 2.11.08.08.14.13h.2.1 7.38.26.49v-.48-.26-.36h1.14v.36l.01.26v.48h.48.26 1.19.25.49v-.49-.26l-.01-.42 2.03-.01v.44.26.48h.49.26 6.45.11.22l.15-.16.08-.09 2.15-2.43h27.01l2.84 2.5.07.06.14.12h.18 1.58 85.55.19l.15-.13.07-.07 2.83-2.7.08-.08.15-.14v-.21-.11l.14-167.03v-.11-.8z" fill-rule="evenodd"/></svg>