<svg viewBox="0 0 149.01 171.46" xmlns="http://www.w3.org/2000/svg"><path d="m148.87 5.53-.08-.07-1.64-1.61-.07-.07-.14-.14h-.2-.11l-50.07-.03h-.09-.16l-.14.1-.06.05-3.22 2.44-11.77-.01-2.26-2.35-.07-.08-.14-.15h-.21-.11l-27.22.03-3.02-3.39-.08-.09-.15-.16h-.21-.12l-40.48.08h-.13-.23l-.15.18-.08.09-2.92 3.66-.05.07-.11.13v.17.09l.05 35.15h-.1-.25-.49v.48.26l-.01 2.38v.25.49h.48.26l.77.01v6.64h-.79-.26-.48v.49.26l.09 13.68-1.2 1.01-.09.08-.18.15v.22.12 1.62l-1.18 1.78v10.3l1.19 1.75.02 87.01v.11.21l.15.14.08.08 2.19 2.11.08.07.14.14h.2.1 7.38.26.49v-.49-.26-.35h1.14v.35l.01.26v.49h.48.26 1.19.25.49v-.49-.26l-.01-.43h2.03v.43.26.49h.49.26 6.45.11.22l.15-.17.08-.08 2.15-2.44 27.01.01 2.84 2.49.07.07.14.12h.18 1.58 85.55.19l.15-.14.07-.07 2.83-2.69.08-.08.15-.14v-.21-.11l.14-162.03v-.11-.2z" fill-rule="evenodd"/></svg>