<svg xmlns="http://www.w3.org/2000/svg" viewBox="0 0 149.01 171.46"><defs><style>.cls-1{fill-rule:evenodd;}</style></defs><g id="Layer_2" data-name="Layer 2"><g id="_ÎÓÈ_1" data-name="—ÎÓÈ_1"><polygon class="cls-1" points="148.87 5.53 148.79 5.46 147.15 3.85 147.08 3.78 146.94 3.64 146.74 3.64 146.63 3.64 96.56 3.61 96.56 3.61 96.47 3.61 96.31 3.61 96.17 3.71 96.11 3.76 92.89 6.2 81.12 6.19 78.86 3.84 78.79 3.76 78.65 3.61 78.44 3.61 78.33 3.61 51.11 3.64 48.09 0.25 48.01 0.16 47.86 0 47.65 0 47.53 0 7.05 0.08 6.92 0.08 6.69 0.08 6.54 0.26 6.46 0.35 3.54 4.01 3.49 4.08 3.38 4.21 3.38 4.38 3.38 4.47 3.43 39.62 3.33 39.62 3.08 39.62 2.59 39.62 2.59 40.1 2.59 40.36 2.58 42.74 2.58 42.99 2.58 43.48 3.06 43.48 3.32 43.48 4.09 43.49 4.09 50.13 3.3 50.13 3.3 50.13 3.04 50.13 2.56 50.13 2.56 50.62 2.56 50.88 2.65 64.56 1.45 65.57 1.45 65.57 1.36 65.65 1.18 65.8 1.18 66.02 1.18 66.14 1.18 67.76 0 69.54 0 79.84 1.19 81.59 1.21 168.6 1.21 168.6 1.21 168.71 1.21 168.92 1.36 169.06 1.44 169.14 3.63 171.25 3.71 171.32 3.85 171.46 4.05 171.46 4.15 171.46 11.53 171.46 11.79 171.46 12.28 171.46 12.28 170.97 12.28 170.71 12.28 170.36 13.42 170.36 13.42 170.71 13.43 170.97 13.43 171.46 13.91 171.46 14.17 171.46 15.36 171.46 15.61 171.46 16.1 171.46 16.1 170.97 16.1 170.71 16.09 170.28 18.12 170.28 18.12 170.71 18.12 170.97 18.12 171.46 18.61 171.46 18.87 171.46 25.32 171.46 25.43 171.46 25.65 171.46 25.8 171.29 25.88 171.21 28.03 168.77 55.04 168.78 57.88 171.27 57.95 171.34 58.09 171.46 58.27 171.46 59.85 171.46 145.4 171.46 145.59 171.46 145.74 171.32 145.81 171.25 148.64 168.56 148.72 168.48 148.87 168.34 148.87 168.13 148.87 168.02 149.01 5.99 149.01 5.88 149.01 5.68 148.87 5.53"/></g></g></svg>