<svg xmlns="http://www.w3.org/2000/svg" viewBox="0 0 149.01 171.38"><defs><style>.cls-1{fill-rule:evenodd;}</style></defs><g id="Layer_2" data-name="Layer 2"><g id="_ÎÓÈ_1" data-name="—ÎÓÈ_1"><polygon class="cls-1" points="3.38 0 3.38 4.13 3.38 4.31 3.38 4.4 3.43 39.54 3.33 39.54 3.08 39.54 2.59 39.54 2.59 40.03 2.59 40.28 2.58 42.66 2.58 42.92 2.58 43.4 3.06 43.4 3.32 43.41 4.09 43.41 4.09 50.05 3.3 50.05 3.3 50.05 3.04 50.05 2.56 50.05 2.56 50.54 2.56 50.8 2.65 64.48 1.45 65.5 1.45 65.5 1.36 65.57 1.18 65.72 1.18 65.94 1.18 66.06 1.18 67.69 0 69.46 0 79.76 1.19 81.51 1.21 168.53 1.21 168.53 1.21 168.64 1.21 168.84 1.36 168.99 1.44 169.06 3.63 171.17 3.71 171.25 3.85 171.38 4.05 171.38 4.15 171.38 11.53 171.38 11.79 171.38 12.28 171.38 12.28 170.9 12.28 170.64 12.28 170.28 13.42 170.28 13.42 170.64 13.43 170.9 13.43 171.38 13.91 171.38 14.17 171.38 15.36 171.38 15.61 171.38 16.1 171.38 16.1 170.89 16.1 170.63 16.09 170.21 18.12 170.2 18.12 170.64 18.12 170.9 18.12 171.38 18.61 171.38 18.87 171.38 25.32 171.38 25.43 171.38 25.65 171.38 25.8 171.22 25.88 171.13 28.03 168.7 55.04 168.7 57.88 171.2 57.95 171.26 58.09 171.38 58.27 171.38 59.85 171.38 145.4 171.38 145.59 171.38 145.74 171.25 145.81 171.18 148.64 168.48 148.72 168.4 148.87 168.26 148.87 168.05 148.87 167.94 149.01 0.91 149.01 0.8 149.01 0 3.38 0"/></g></g></svg>