<svg xmlns="http://www.w3.org/2000/svg" viewBox="0 0 149.01 69.32"><defs><style>.cls-1{fill-rule:evenodd;}</style></defs><g id="Layer_2" data-name="Layer 2"><g id="_ÎÓÈ_1" data-name="—ÎÓÈ_1"><polygon class="cls-1" points="3.38 0 3.38 4.13 3.38 4.31 3.38 4.4 3.43 12.53 3.33 12.53 3.08 12.53 2.59 12.52 2.59 13.01 2.59 13.27 2.58 15.65 2.58 15.9 2.58 16.38 3.06 16.39 3.32 16.39 4.09 16.39 4.09 23.04 3.3 23.04 3.3 23.03 3.04 23.03 2.56 23.03 2.56 23.52 2.56 23.78 2.65 37.46 1.45 38.48 1.45 38.48 1.36 38.56 1.18 38.7 1.18 38.93 1.18 39.05 1.19 40.67 0 42.45 0 52.74 1.2 54.52 1.21 66.46 1.21 66.46 1.21 66.57 1.21 66.78 1.36 66.92 1.44 67 3.63 69.11 3.71 69.18 3.85 69.32 4.05 69.32 4.15 69.32 11.53 69.32 11.79 69.32 12.28 69.32 12.28 68.83 12.28 68.57 12.28 68.22 13.42 68.22 13.42 68.57 13.43 68.83 13.43 69.32 13.91 69.32 14.17 69.32 15.36 69.32 15.61 69.32 16.1 69.32 16.1 68.83 16.1 68.57 16.09 68.14 18.12 68.14 18.12 68.57 18.12 68.83 18.12 69.32 18.61 69.32 18.87 69.32 25.32 69.32 25.43 69.32 25.65 69.32 25.8 69.15 25.88 69.07 28.03 66.63 55.04 66.64 57.88 69.13 57.95 69.2 58.09 69.32 58.27 69.32 59.85 69.32 145.4 69.32 145.59 69.32 145.74 69.18 145.81 69.11 148.64 66.42 148.72 66.34 148.87 66.2 148.87 65.99 148.87 65.88 149.01 0.91 149.01 0.8 149.01 0 3.38 0"/></g></g></svg>