<svg xmlns="http://www.w3.org/2000/svg" width="30" height="34" viewBox="0 0 30 34">
  <path fill="#FFF" fill-rule="evenodd" d="M17.7737143,1.52228571 C22.68179,1.52228571 26.6605714,5.61158889 26.6605714,10.656 L26.6605714,10.656 L26.6602857,15.2222857 L28.1417143,15.2228571 C30.5957521,15.2228571 32.5851429,17.2675087 32.5851429,19.7897143 L32.5851429,30.4457143 C32.5851429,32.9679198 30.5957521,35.0125714 28.1417143,35.0125714 L7.40571429,35.0125714 C4.95167645,35.0125714 2.96228571,32.9679198 2.96228571,30.4457143 L2.96228571,19.7897143 C2.96228571,17.2675087 4.95167645,15.2228571 7.40571429,15.2228571 L8.88628571,15.2222857 L8.88685714,10.656 C8.88685714,5.70166766 12.724808,1.66863682 17.511688,1.52617983 Z M28.1417143,18.2674286 L7.40571429,18.2674286 C6.58770167,18.2674286 5.92457143,18.9489791 5.92457143,19.7897143 L5.92457143,30.4457143 C5.92457143,31.2864495 6.58770167,31.968 7.40571429,31.968 L28.1417143,31.968 C28.9597269,31.968 29.6228571,31.2864495 29.6228571,30.4457143 L29.6228571,19.7897143 C29.6228571,18.9489791 28.9597269,18.2674286 28.1417143,18.2674286 Z M17.7737143,4.56685714 C14.5016638,4.56685714 11.8491429,7.29305926 11.8491429,10.656 L11.8491429,10.656 L11.8482857,15.2222857 L23.6982857,15.2222857 L23.6982857,10.656 C23.6982857,7.36948973 21.1649638,4.69110431 17.9958248,4.5710571 Z" transform="translate(-2.768 -1.088)"/>
</svg>
