<svg xmlns="http://www.w3.org/2000/svg" width="32" height="32" viewBox="0 0 32 32">
  <path fill="#022342" fill-rule="evenodd" d="M46,0 C54.836556,0 62,7.163444 62,16 C62,24.836556 54.836556,32 46,32 C37.163444,32 30,24.836556 30,16 C30,7.163444 37.163444,0 46,0 Z M46,2.90909091 C38.7700905,2.90909091 32.9090909,8.77009055 32.9090909,16 C32.9090909,23.2299095 38.7700905,29.0909091 46,29.0909091 C53.2299095,29.0909091 59.0909091,23.2299095 59.0909091,16 C59.0909091,8.77009055 53.2299095,2.90909091 46,2.90909091 Z M44.971481,22.2442083 C45.5395164,21.676173 46.4604836,21.676173 47.028519,22.2442083 C47.5965543,22.8122437 47.5965543,23.7332109 47.028519,24.3012462 C46.4604836,24.8692816 45.5395164,24.8692816 44.971481,24.3012462 C44.4034457,23.7332109 44.4034457,22.8122437 44.971481,22.2442083 Z M46.8672494,7.34997228 C49.6634517,7.82959532 51.7060416,10.2560368 51.7018296,13.0909091 C51.7018296,14.9523276 50.5990025,16.4227534 48.872293,17.5738918 C47.92841,18.2031464 47.0011032,18.6152823 46.3436036,18.8344486 C45.5815041,19.0884815 44.7577661,18.6766121 44.5037332,17.9145126 C44.2497004,17.1524132 44.6615697,16.3286752 45.4236692,16.0746423 C45.5180232,16.043191 45.7136027,15.9686846 45.974709,15.8526375 C46.4155865,15.6566922 46.8559207,15.4218475 47.258621,15.153381 C48.2591873,14.4863375 48.7927322,13.7749451 48.7927338,13.0887455 C48.7948438,11.6702245 47.7735473,10.4570019 46.3754453,10.2171902 C44.9773433,9.97737854 43.6101222,10.7809064 43.1393956,12.1190451 C42.8728179,12.8768476 42.0423937,13.2750641 41.2845912,13.0084865 C40.5267887,12.7419088 40.1285723,11.9114846 40.3951499,11.1536821 C41.3366032,8.47740469 44.0710454,6.87034895 46.8672494,7.34997228 Z" transform="translate(-30)"/>
</svg>
