<svg xmlns="http://www.w3.org/2000/svg" width="29" height="32" viewBox="0 0 29 32">
  <path fill="#022342" fill-rule="evenodd" d="M56.9444444,19.2 C61.3934049,19.2 65,22.781722 65,27.2 L65,27.2 L65,30.4 C65,31.2836556 64.278681,32 63.3888889,32 C62.4990968,32 61.7777778,31.2836556 61.7777778,30.4 L61.7777778,30.4 L61.7777778,27.2 C61.7777778,24.5490332 59.6138207,22.4 56.9444444,22.4 L56.9444444,22.4 L44.0555556,22.4 C41.3861793,22.4 39.2222222,24.5490332 39.2222222,27.2 L39.2222222,27.2 L39.2222222,30.4 C39.2222222,31.2836556 38.5009032,32 37.6111111,32 C36.721319,32 36,31.2836556 36,30.4 L36,30.4 L36,27.2 C36,22.781722 39.6065951,19.2 44.0555556,19.2 L44.0555556,19.2 Z M50.5,0 C54.9489605,0 58.5555556,3.581722 58.5555556,8 C58.5555556,12.418278 54.9489605,16 50.5,16 C46.0510395,16 42.4444444,12.418278 42.4444444,8 C42.4444444,3.581722 46.0510395,0 50.5,0 Z M50.5,3.2 C47.8306237,3.2 45.6666667,5.3490332 45.6666667,8 C45.6666667,10.6509668 47.8306237,12.8 50.5,12.8 C53.1693763,12.8 55.3333333,10.6509668 55.3333333,8 C55.3333333,5.3490332 53.1693763,3.2 50.5,3.2 Z" transform="translate(-36)"/>
</svg>
