<svg xmlns="http://www.w3.org/2000/svg" width="32" height="32" viewBox="0 0 32 32">
  <path fill="#022342" fill-rule="evenodd" d="M56.5454545,0 C59.357086,0 61.6363636,2.27927764 61.6363636,5.09090909 C61.6363636,5.87178722 61.4605523,6.61160241 61.1463534,7.27293079 L64.5454545,7.27272727 C65.3487778,7.27272727 66,7.92394945 66,8.72727273 L66,16 C66,16.8033233 65.3487778,17.4545455 64.5454545,17.4545455 L63.09,17.454 L63.0909091,30.5454545 C63.0909091,31.3015235 62.5140479,31.9228593 61.7764461,31.9933415 L61.6363636,32 L38.3636364,32 C37.6075674,32 36.9862316,31.4231388 36.9157494,30.685537 L36.9090909,30.5454545 L36.909,17.454 L35.4545455,17.4545455 C34.6512222,17.4545455 34,16.8033233 34,16 L34,8.72727273 C34,7.92394945 34.6512222,7.27272727 35.4545455,7.27272727 L38.8536466,7.27293079 C38.5394477,6.61160241 38.3636364,5.87178722 38.3636364,5.09090909 C38.3636364,2.27927764 40.642914,0 43.4545455,0 C46.3066992,0 48.4311551,1.69956474 49.9108595,4.38993636 L50,4.559 L50.0891405,4.38993636 C51.5195214,1.7892438 53.5523868,0.114405213 56.2626618,0.00563896552 Z M48.545,17.454 L39.818,17.454 L39.8181818,29.0909091 L48.545,29.09 L48.545,17.454 Z M60.181,17.454 L51.454,17.454 L51.454,29.09 L60.1818182,29.0909091 L60.181,17.454 Z M48.545,10.181 L36.9090909,10.1818182 L36.9090909,14.5454545 L48.545,14.545 L48.545,10.181 Z M63.0909091,10.1818182 L51.454,10.181 L51.454,14.545 L63.0909091,14.5454545 L63.0909091,10.1818182 Z M43.4545455,2.90909091 C42.2495605,2.90909091 41.2727273,3.88592418 41.2727273,5.09090909 C41.2727273,6.295894 42.2495605,7.27272727 43.4545455,7.27272727 L48.0425557,7.27272727 C47.8481209,6.76352502 47.6214382,6.26382797 47.3618678,5.79188182 C46.3415722,3.93679889 45.0569372,2.90909091 43.4545455,2.90909091 Z M56.5454545,2.90909091 C54.9430628,2.90909091 53.6584278,3.93679889 52.6381322,5.79188182 C52.3785618,6.26382797 52.1518791,6.76352502 51.9574471,7.27272727 L51.9574471,7.27272727 L56.5454545,7.27272727 C57.7504395,7.27272727 58.7272727,6.295894 58.7272727,5.09090909 C58.7272727,3.88592418 57.7504395,2.90909091 56.5454545,2.90909091 Z" transform="translate(-34)"/>
</svg>
