<svg xmlns="http://www.w3.org/2000/svg" width="32" height="32" viewBox="0 0 32 32">
  <path fill="#022342" fill-rule="evenodd" d="M52,0 C54.209139,0 56,1.790861 56,4 L55.9999894,4.11468225 C56.0013671,4.46011086 56.2077422,4.77173729 56.5383538,4.91351655 C56.8624819,5.05656722 57.2410436,4.98792691 57.4838576,4.75052429 L57.5633333,4.67104888 C58.3136064,3.9199407 59.3316963,3.49790225 60.3933333,3.49790225 C61.4549703,3.49790225 62.4730603,3.9199407 63.2222845,4.67 C63.9733926,5.42027303 64.3954311,6.43836301 64.3954311,7.5 C64.3954311,8.56163699 63.9733926,9.57972697 63.222809,10.3294757 L63.1531501,10.3990199 C62.9054064,10.6522897 62.8367661,11.0308514 62.9798168,11.3549795 C63.01752,11.4404086 63.0460412,11.5293252 63.0650647,11.6202329 C63.223551,11.8538747 63.4884497,11.9988549 63.7733333,12 L64,12 C66.209139,12 68,13.790861 68,16 C68,18.209139 66.209139,20 64,20 L63.8853177,19.9999894 C63.5398891,20.0013671 63.2282627,20.2077422 63.0921864,20.5252419 L63.0864834,20.5383538 C62.9434328,20.8624819 63.0120731,21.2410436 63.2494757,21.4838576 L63.3289511,21.5633333 C64.0800593,22.3136064 64.5020978,23.3316963 64.5020978,24.3933333 C64.5020978,25.4549703 64.0800593,26.4730603 63.33,27.2222845 C62.579727,27.9733926 61.561637,28.3954311 60.5,28.3954311 C59.438363,28.3954311 58.420273,27.9733926 57.6705243,27.222809 L57.6009801,27.1531501 C57.3477103,26.9054064 56.9691486,26.8367661 56.6319086,26.9855198 C56.3144089,27.121596 56.1080337,27.4332225 56.1066667,27.7733333 L56.1066667,28 C56.1066667,30.209139 54.3158057,32 52.1066667,32 C49.8975277,32 48.1066667,30.209139 48.1066667,28 L48.1070313,27.9111795 C48.0987095,27.5554106 47.8737518,27.2408864 47.4616462,27.0864834 C47.1375181,26.9434328 46.7589564,27.0120731 46.5161424,27.2494757 L46.4366667,27.3289511 C45.6863936,28.0800593 44.6683037,28.5020978 43.6066667,28.5020978 C42.5450297,28.5020978 41.5269397,28.0800593 40.7777155,27.33 C40.0266074,26.579727 39.6045689,25.561637 39.6045689,24.5 C39.6045689,23.438363 40.0266074,22.420273 40.777191,21.6705243 L40.8468499,21.6009801 C41.0945936,21.3477103 41.1632339,20.9691486 41.0144802,20.6319086 C40.878404,20.3144089 40.5667775,20.1080337 40.2266667,20.1066667 L40,20.1066667 C37.790861,20.1066667 36,18.3158057 36,16.1066667 C36,13.8975277 37.790861,12.1066667 40,12.1066667 L40.0888205,12.1070313 C40.4445894,12.0987095 40.7591136,11.8737518 40.9135166,11.4616462 C41.0565672,11.1375181 40.9879269,10.7589564 40.7505243,10.5161424 L40.6710489,10.4366667 C39.9199407,9.68639364 39.4979022,8.66830366 39.4979022,7.60666667 C39.4979022,6.54502967 39.9199407,5.5269397 40.67,4.77771554 C41.420273,4.02660737 42.438363,3.60456892 43.5,3.60456892 C44.561637,3.60456892 45.579727,4.02660737 46.3294757,4.77719096 L46.3990199,4.84684989 C46.6522897,5.09459358 47.0308514,5.16323388 47.3549795,5.02018322 C47.4404086,4.98247996 47.5293252,4.95395882 47.6202329,4.93493527 C47.8538747,4.776449 47.9988549,4.51155027 48,4.22666667 L48,4 C48,1.790861 49.790861,0 52,0 Z M52,2.66666667 C51.2636203,2.66666667 50.6666667,3.26362033 50.6666667,4 L50.6666561,4.23198441 C50.6610393,5.64027027 49.8196638,6.91074728 48.5252419,7.46551977 C48.4125751,7.51380731 48.294047,7.54621805 48.1730479,7.56205612 C46.9129571,8.00378406 45.4995064,7.69727623 44.5238576,6.74280904 L44.4433333,6.66228446 C44.1932423,6.41191507 43.853879,6.27123558 43.5,6.27123558 C43.146121,6.27123558 42.8067577,6.41191507 42.5556178,6.66333333 C42.3052484,6.91342434 42.1645689,7.25278767 42.1645689,7.60666667 C42.1645689,7.96054566 42.3052484,8.29990899 42.5561424,8.55052429 L42.6464834,8.64098005 C43.6565154,9.67354154 43.9363567,11.2169084 43.3847148,12.4602415 C42.8839126,13.8219063 41.6016217,14.7390415 40.12,14.7733333 L40,14.7733333 C39.2636203,14.7733333 38.6666667,15.370287 38.6666667,16.1066667 C38.6666667,16.8430463 39.2636203,17.44 40,17.44 L40.2319844,17.4400106 C41.6402703,17.4456273 42.9107473,18.2870028 43.4598168,19.5683129 C44.0430233,20.8897583 43.7631821,22.4331251 42.742809,23.4761424 L42.6622845,23.5566667 C42.4119151,23.8067577 42.2712356,24.146121 42.2712356,24.5 C42.2712356,24.853879 42.4119151,25.1932423 42.6633333,25.4443822 C42.9134243,25.6947516 43.2527877,25.8354311 43.6066667,25.8354311 C43.9605457,25.8354311 44.299909,25.6947516 44.5505243,25.4438576 L44.6409801,25.3535166 C45.6735415,24.3434846 47.2169084,24.0636433 48.4602415,24.6152852 C49.8219063,25.1160874 50.7390415,26.3983783 50.7733333,27.88 L50.7733333,28 C50.7733333,28.7363797 51.370287,29.3333333 52.1066667,29.3333333 C52.8430463,29.3333333 53.44,28.7363797 53.44,28 L53.4400106,27.7680156 C53.4456273,26.3597297 54.2870028,25.0892527 55.5683129,24.5401832 C56.8897583,23.9569767 58.4331251,24.2368179 59.4761424,25.257191 L59.5566667,25.3377155 C59.8067577,25.5880849 60.146121,25.7287644 60.5,25.7287644 C60.853879,25.7287644 61.1932423,25.5880849 61.4443822,25.3366667 C61.6947516,25.0865757 61.8354311,24.7472123 61.8354311,24.3933333 C61.8354311,24.0394543 61.6947516,23.700091 61.4438576,23.4494757 L61.3535166,23.3590199 C60.3451515,22.3281626 60.064569,20.7881846 60.6439694,19.4681907 C61.2002209,18.1774901 62.4687892,17.3389511 63.88,17.3333333 L64,17.3333333 C64.7363797,17.3333333 65.3333333,16.7363797 65.3333333,16 C65.3333333,15.2636203 64.7363797,14.6666667 64,14.6666667 L63.7680156,14.6666561 C62.3597297,14.6610393 61.0892527,13.8196638 60.5344802,12.5252419 C60.4861927,12.4125751 60.4537819,12.294047 60.4379439,12.1730479 C59.9962159,10.9129571 60.3027238,9.49950642 61.257191,8.52385763 L61.3377155,8.44333333 C61.5880849,8.19324232 61.7287644,7.853879 61.7287644,7.5 C61.7287644,7.146121 61.5880849,6.80675768 61.3366667,6.55561779 C61.0865757,6.3052484 60.7472123,6.16456892 60.3933333,6.16456892 C60.0394543,6.16456892 59.700091,6.3052484 59.4494757,6.55614237 L59.3590199,6.64648345 C58.3264585,7.65651543 56.7830916,7.93635667 55.4747581,7.3588531 C54.1803362,6.80408061 53.3389607,5.5336036 53.3333333,4.12 L53.3333333,4 C53.3333333,3.26362033 52.7363797,2.66666667 52,2.66666667 Z M52,10.6666667 C54.9455187,10.6666667 57.3333333,13.0544813 57.3333333,16 C57.3333333,18.9455187 54.9455187,21.3333333 52,21.3333333 C49.0544813,21.3333333 46.6666667,18.9455187 46.6666667,16 C46.6666667,13.0544813 49.0544813,10.6666667 52,10.6666667 Z M52,13.3333333 C50.5272407,13.3333333 49.3333333,14.5272407 49.3333333,16 C49.3333333,17.4727593 50.5272407,18.6666667 52,18.6666667 C53.4727593,18.6666667 54.6666667,17.4727593 54.6666667,16 C54.6666667,14.5272407 53.4727593,13.3333333 52,13.3333333 Z" transform="translate(-36)"/>
</svg>
