<svg xmlns="http://www.w3.org/2000/svg" width="19" height="33" viewBox="0 0 19 33">
  <path fill="#022342" fill-rule="evenodd" d="M50.5,0 C51.2495293,0 51.8571429,0.615608469 51.8571429,1.375 L51.8571429,1.375 L51.857,5.5 L57.2857143,5.5 C57.9911536,5.5 58.5708821,6.04531408 58.6366445,6.74257832 L58.6428571,6.875 C58.6428571,7.63439153 58.0352436,8.25 57.2857143,8.25 L57.2857143,8.25 L51.857,8.25 L51.857,15.125 L53.8928571,15.125 C57.190786,15.125 59.8781619,17.7734845 59.9959722,21.0856644 L60,21.3125 C60,24.7297618 57.265739,27.5 53.8928571,27.5 L53.8928571,27.5 L51.857,27.5 L51.8571429,31.625 C51.8571429,32.3397214 51.3189108,32.927078 50.6307019,32.9937056 L50.5,33 C49.7504707,33 49.1428571,32.3843915 49.1428571,31.625 L49.1428571,31.625 L49.142,27.5 L42.3571429,27.5 C41.6517035,27.5 41.071975,26.9546859 41.0062126,26.2574217 L41,26.125 C41,25.3656085 41.6076136,24.75 42.3571429,24.75 L42.3571429,24.75 L49.142,24.75 L49.142,17.875 L47.1071429,17.875 C43.8092139,17.875 41.1218381,15.2265156 41.0040278,11.9143356 L41,11.6875 C41,8.27023811 43.734261,5.5 47.1071429,5.5 L47.1071429,5.5 L49.142,5.5 L49.1428571,1.375 C49.1428571,0.660278559 49.6810892,0.072922045 50.3692981,0.00629436322 Z M51.857,24.75 L53.8928571,24.75 C55.7666804,24.75 57.2857143,23.2109788 57.2857143,21.3125 C57.2857143,19.4140212 55.7666804,17.875 53.8928571,17.875 L53.8928571,17.875 L51.857,17.875 L51.857,24.75 Z M49.142,15.125 L49.142,8.25 L47.1071429,8.25 C45.2957804,8.25 43.8159489,9.68812978 43.719306,11.498894 L43.7142857,11.6875 C43.7142857,13.5859788 45.2333196,15.125 47.1071429,15.125 L47.1071429,15.125 L49.142,15.125 Z" transform="translate(-41)"/>
</svg>
