<svg viewBox="0 0 209.05 160.45" xmlns="http://www.w3.org/2000/svg"><g fill="#fff"><path d="m209.05 0-42.37 65.5-79.42-15.76-80.82 12.82 21.78-33.56a9 9 0 0 0 2.53.85l-19 29.25 75.54-12 78.15 15.5 16.46-25.44h.17a6.29 6.29 0 0 0 3.1-.93l-.54-1.16-1-.62 19.95-30.75-99.46 19.3c.75-1.23 1.41-2.33 1.8-3zm-64.81 25.45a2.41 2.41 0 0 0 2.26-2.45 1.47 1.47 0 0 0 -1.5-1.55 2.44 2.44 0 0 0 -2.32 2.47 1.44 1.44 0 0 0 1.56 1.53zm-108.87-8.58h.73l10.4-16.03 53.19 20.42.23-.38 1.23-2 3.95-.24c-2.95 4.8-8.39 13.74-8.83 14.49-2.33 3.94-3.51 6-3.51 7 0 .39.16.66.62.66 1.29 0 3.81-1.9 9.08-8.53.47-.6 1.71-2.33 2.14-3l3.76-.19c-2.1 3.14-5 7.4-6.19 9.65a3.75 3.75 0 0 0 -.58 1.52c0 .36.21.55.62.55 1.43 0 4.09-2.14 8-7.68.93-1.32 1.67-2.49 2.55-3.84l3.71-.21c-1 1.68-3.15 5.16-3.38 5.53-1.76 2.86-2.72 4.73-2.72 5.55 0 .4.19.65.71.65 2.71 0 6.5-4.91 7.4-7.52a7.5 7.5 0 0 1 .91-4.18 1.7 1.7 0 0 1 1.48-.79c.58 0 1 .29 1 .66a14.71 14.71 0 0 1 -2.17 5 3.17 3.17 0 0 0 2.15 1.77c1.45-2.8 5-7.26 9.52-7.26 1.6 0 2.35.6 2.35 1.84 0 2.35-3.65 5.66-8.61 6.35a7 7 0 0 0 -.82 2.76c0 .85.39 1.47 1.61 1.47 4 0 8.8-6 11.42-9.46.2-.26 1.22-1.66 1.5-2.13l3.73-.22c-3.15 5-4.17 6.65-4.17 6.65-1 1.61-2.18 3.66-2.18 4.47a.56.56 0 0 0 .63.63c1.49 0 4.21-2.45 8.19-6.5 1.66-1.7 3.51-3.63 4.66-4.9.39-1.57 1.2-2.27 2.14-2.27a1 1 0 0 1 1.18 1.09 1.59 1.59 0 0 1 -1.41 1.51 4.54 4.54 0 0 0 0 .65c0 1.51.16 2.69.16 4.23a7.13 7.13 0 0 1 -1.16 4.28c1.93-1.55 5.8-5.2 8.11-7.36s4.63-3.08 6.44-3.08c1.5 0 2.38.53 2.38 1.84 0 3.09-5.06 6-8.59 6.33a6.78 6.78 0 0 0 -.86 2.93c0 .83.48 1.32 1.44 1.32 2.74 0 5.56-2.86 7.69-5.57 3.39-4.31 5-6.61 7.6-6.61 1.38 0 2 .72 2 1.71 0 1.25-.61 2.29-1.8 4.48 4-5.12 5.93-6.24 7.36-6.24 1 0 1.67.5 1.68 1.18a4.55 4.55 0 0 0 -2.8 3.79 1.35 1.35 0 0 0 .28.9 1 1 0 0 0 .8.31 2.68 2.68 0 0 0 1.35-.38l.3.72a4.94 4.94 0 0 1 -2.39.58c-1.8 0-2.7-.86-2.7-2.25a4.92 4.92 0 0 1 1-2.64c-2.37 2-7.12 8.25-8.87 11.08l-3.75.14c.51-.85 3.69-5.58 5.9-9.43a6 6 0 0 0 1.05-2.34.38.38 0 0 0 -.43-.41c-1.18 0-3.18 2.5-5.78 5.83-1.9 2.45-5.4 6.66-10 6.66-2.37 0-3.46-1.26-3.46-2.93a8.33 8.33 0 0 1 1.32-4.12c-1.16 1-2.22 2-3.26 2.93-2.1 1.89-4.76 4.2-8.5 4.2-2 0-3.08-.84-3.08-1.79a.86.86 0 0 1 .84-.91c1.23 0 .82 1.79 2.47 1.79 1.86 0 3.38-1.73 4.38-7.29.14-.74.43-2.22.63-3.15-2.9 3.09-4.93 5.15-5.82 6-2.52 2.44-5.43 5.26-8.18 5.26-1.58 0-2.44-.79-2.44-2.13a8 8 0 0 1 1.43-3.82c-2.17 2.32-5.67 5.93-9.88 5.93-2.49 0-3.64-1.22-3.64-3.07a7 7 0 0 1 .66-2.75 3.94 3.94 0 0 1 -2.3-1.69 25.43 25.43 0 0 1 -4.36 5.18 7.88 7.88 0 0 1 -5.2 2.33c-1.56 0-2.49-.74-2.49-2.1a6.91 6.91 0 0 1 1-3c-2 2.53-4.66 5.1-7.54 5.1-1.26 0-2.29-.6-2.29-2a7.1 7.1 0 0 1 1.41-3.38c-1.76 1.94-4.7 5.44-8 5.44-1.51 0-2.29-.78-2.29-2.06a6.94 6.94 0 0 1 .91-3c-.41.5-.87 1-1.17 1.35-2.32 2.61-4.34 3.7-6.35 3.7a2.22 2.22 0 0 1 -2.51-2.29 6.65 6.65 0 0 1 .61-2.37c-2.14 2.29-4.7 4.7-7.38 4.7-1.52 0-2.15-.86-2.15-1.9a6.11 6.11 0 0 1 .85-2.64l-.85.88c-1.87 1.93-4.23 3.64-6.41 3.64-1.42 0-2.3-.76-2.3-2 0-1 .7-2.66 2.43-5l-1.09 1.02c-5.44 5.18-11 8.34-17 8.34-4.4 0-5.81-2-5.81-4.25a6.25 6.25 0 0 1 .11-1.05l-.76 1c-2.17 2.75-3.89 4.27-6 4.27-1.77 0-3.31-.87-3.31-2.42a6.59 6.59 0 0 1 1.26-3.12c1.49-2.46 5.6-8.56 8.7-13a15.44 15.44 0 0 1 -8.24 2.27c-5.08 0-7.63-2.06-7.63-5.1-.06-3.82 3.78-6.41 10.05-6.54zm124 18.87c2.93-.48 6.42-3.5 6.42-5.67 0-.39-.17-.64-.59-.64-1.5 0-3.62 2.31-5.81 6.31zm-33.76 0c2.94-.48 6.45-3.35 6.45-5.7a.57.57 0 0 0 -.62-.63c-1.75.02-4.07 3.16-5.81 6.35zm-81.4-2.63c2.74-4 5.45-8.28 7.33-10.84-.79-.42-1.59-.81-2.4-1.18-.89 1.26-12.45 18.24-13.25 19.6a4.39 4.39 0 0 0 -.82 1.94.46.46 0 0 0 .52.49 2.76 2.76 0 0 0 1.61-.89c1.8-1.48 3.97-4.63 7.03-9.1zm5.52-3.78.91-1.33c2.59 0 4.63-.05 6.1-.74a9.08 9.08 0 0 0 5-7.1c0-1.3-.51-2.34-2.18-2.34-2.53 0-4.79 2.43-6.24 4.29a27.28 27.28 0 0 1 2.74 1.89l-.6.78a24.13 24.13 0 0 0 -2.79-1.89c-1.59 2.12-5.2 7.71-7.7 11.36a9.93 9.93 0 0 1 5.12-1.44v1c-4.78.07-7.75 3.29-7.75 6.62 0 1.79 1 3 3.55 3 6 0 10.12-6.43 10.12-10.65 0-1.91-.69-3.61-3.72-3.61h-1.43a5.86 5.86 0 0 0 -1.11.18zm43.81 1.49c0-.74-.49-1.17-1.33-1.17-1.46 0-2.92 1-4.91 3.51-1.72 2.16-3.47 5.38-3.47 6.77 0 .37.09.78.84.78s2-.53 3.72-2.49a42.71 42.71 0 0 0 5-6.69 1.57 1.57 0 0 0 .17-.69zm-54.47-13.82c.59.07 1.17.15 1.73.25a30.3 30.3 0 0 1 5.62 1.55c.33-.45.6-.82.89-1.18l4.46-.19c-.41.57-1.15 1.58-2 2.79.81.38 1.63.79 2.42 1.22 2.75-3.5 5.32-5.09 8.66-5.09 3.61 0 5 2.06 5 4.16a8.39 8.39 0 0 1 -2.48 5.49 12.51 12.51 0 0 1 -6.21 3c1.09.6 3.1 1.47 3.1 4.65a10.91 10.91 0 0 1 -3.16 7 47.43 47.43 0 0 0 10.12-9c.49-.6 1.35-1.8 1.8-2.43l3.89-.24s-5 7.51-6 9.36a4.12 4.12 0 0 0 -.76 1.86c0 .23.15.48.59.48 1.51 0 4.35-2.55 6.37-5.17.92-1.2 4.26-6.27 4.26-6.27l4-.24c-3.28 5-4.37 6.66-4.37 6.66a22.51 22.51 0 0 0 -2.1 3.94 2.2 2.2 0 0 0 -.1.61.5.5 0 0 0 .56.57c2.3 0 6.42-5.43 7.73-7.08 2.41-3 5.33-5.15 8.48-5.15a2.82 2.82 0 0 1 2.8 1.45l3.63-5.88.37-.62-50.84-19.5zm-12.07 6.45a3.39 3.39 0 0 0 1 2.46 4.32 4.32 0 0 0 1.59 1l4.9-7.54c.61-.06 1.26-.1 1.94-.1h1.19l-5.3 8.16h.78c.42 0 .82 0 1.22-.05a13.51 13.51 0 0 0 9.08-4.37l2.4-3.31a27.29 27.29 0 0 0 -9.68-1.8c-5.66 0-9.12 2.3-9.12 5.55zm147 40.55a1.56 1.56 0 0 1 -.48 1.14 1.53 1.53 0 0 1 -1.14.48 1.64 1.64 0 0 1 -1.6-1.62 1.58 1.58 0 0 1 .48-1.15 1.64 1.64 0 0 1 2.3 0 1.62 1.62 0 0 1 .44 1.15zm-.29 0a1.34 1.34 0 0 0 -.39-1 1.3 1.3 0 0 0 -1.88 0 1.39 1.39 0 0 0 0 1.93 1.25 1.25 0 0 0 .94.4 1.26 1.26 0 0 0 .94-.4 1.34 1.34 0 0 0 .42-.93zm-.52.94h-.42l-.3-.76h-.45v.82h-.4v-1.9h.87a.8.8 0 0 1 .53.15.52.52 0 0 1 .18.4.51.51 0 0 1 -.35.5zm-1.17-1h.41c.24 0 .35-.09.35-.27s-.1-.26-.32-.26h-.44z"/><path d="m152 118.75a.2.2 0 0 0 0 .2.27.27 0 0 0 .08.07l6.15 3.57a.2.2 0 0 0 .21 0s0 0 .05 0a7.84 7.84 0 0 1 2.36-2.62 8 8 0 0 1 3.26-1.36h.07a.18.18 0 0 0 .08-.2l-1.3-7a.2.2 0 0 0 0-.08.18.18 0 0 0 -.18-.08 15.63 15.63 0 0 0 -10.78 7.5"/><path d="m148.51 132.25a.18.18 0 0 0 .17.12.17.17 0 0 0 .1 0l6.63-2.56a.2.2 0 0 0 .12-.17.17.17 0 0 0 0-.07s0 0 0 0a8.06 8.06 0 0 1 .42-6.87.24.24 0 0 0 0-.08.2.2 0 0 0 -.1-.18l-6.25-3.44h-.08a.23.23 0 0 0 -.18.09 15.65 15.65 0 0 0 -1.86 6.51 15.41 15.41 0 0 0 1 6.66"/><path d="m157 143.35a.2.2 0 0 0 .19 0 .2.2 0 0 0 .05-.09l2.12-6.79a.21.21 0 0 0 -.06-.21h-.06a8 8 0 0 1 -5.13-4.6.09.09 0 0 0 0-.06.19.19 0 0 0 -.21 0l-6.53 2.82a.2.2 0 0 0 -.07.06.19.19 0 0 0 0 .19 15.6 15.6 0 0 0 9.82 8.81"/><path d="m170.81 143.68a.18.18 0 0 0 .08-.18.18.18 0 0 0 0-.1l-4-5.9a.18.18 0 0 0 -.19-.08h-.07a8 8 0 0 1 -6.79 1.11h-.1a.19.19 0 0 0 -.16.14l-1.89 6.86a.14.14 0 0 0 0 .09.18.18 0 0 0 .13.15 15.63 15.63 0 0 0 6.76.38 15.43 15.43 0 0 0 6.27-2.51"/><path d="m179.84 133.09a.22.22 0 0 0 -.1-.18h-.1l-7.08-.56a.2.2 0 0 0 -.18.11s0 0 0 .06a8 8 0 0 1 -3.34 6l-.05.06a.2.2 0 0 0 0 .21l4.2 5.74a.13.13 0 0 0 .07.06.18.18 0 0 0 .2 0 15.62 15.62 0 0 0 6.41-11.54"/><path d="m177.16 119.41a.21.21 0 0 0 -.2 0 .16.16 0 0 0 -.08.05l-4.9 5.16a.18.18 0 0 0 0 .2.33.33 0 0 0 0 .06 8.05 8.05 0 0 1 2.57 6.39.17.17 0 0 0 0 .07.23.23 0 0 0 .17.13l7.1.34a.15.15 0 0 0 .09 0 .2.2 0 0 0 .12-.16 15.62 15.62 0 0 0 -4.93-12.25"/><path d="m164.73 113.05a.25.25 0 0 0 -.16.14.17.17 0 0 0 0 .1l1 7a.19.19 0 0 0 .14.15h.11a7.93 7.93 0 0 1 3.51.21 8.08 8.08 0 0 1 3.1 1.7 0 0 0 0 0 0 0h.06a.22.22 0 0 0 .21-.06l4.65-5.38a.16.16 0 0 0 0-.07.23.23 0 0 0 -.05-.2 15.59 15.59 0 0 0 -12.67-3.68"/><path d="m169.7 129v-.17a4.11 4.11 0 0 1 -.32.7 4.21 4.21 0 0 0 -.12-.48 3.42 3.42 0 0 0 -.7-1.23l-1.63.33 1.52-.69a3.55 3.55 0 0 0 -.16-1.38 3.71 3.71 0 0 0 -.19-.46 2.87 2.87 0 0 1 .69.4 5.46 5.46 0 0 0 -3-2.21 3.22 3.22 0 0 1 .61.54 4.19 4.19 0 0 0 -.5 0 3.28 3.28 0 0 0 -1.37.28l-.19 1.65-.19-1.65a3.28 3.28 0 0 0 -1.37-.28 3.91 3.91 0 0 0 -.49 0 2.88 2.88 0 0 1 .6-.54 5.41 5.41 0 0 0 -3 2.21 2.87 2.87 0 0 1 .69-.4c-.07.15-.13.3-.19.46a3.35 3.35 0 0 0 -.15 1.38l1.52.69-1.63-.33a3.42 3.42 0 0 0 -.7 1.23 4.21 4.21 0 0 0 -.12.48 3.89 3.89 0 0 1 -.32-.71v.18a5.42 5.42 0 0 0 1.14 3.32 3.47 3.47 0 0 1 -.15-.74 3.79 3.79 0 0 0 .38.32 3.32 3.32 0 0 0 1.26.58l1.14-1.24-.83 1.46a3.44 3.44 0 0 0 .95 1l.42.26a3.41 3.41 0 0 1 -.74.09 5.5 5.5 0 0 0 3.64 0 3.41 3.41 0 0 1 -.74-.09l.42-.26a3.44 3.44 0 0 0 1-1l-.83-1.46 1.14 1.24a3.32 3.32 0 0 0 1.26-.58 2.92 2.92 0 0 0 .38-.32 3.47 3.47 0 0 1 -.15.74 5.36 5.36 0 0 0 1.02-3.32zm-3.94 2h-2.94l-.91-2.79 2.38-1.73 2.38 1.73z"/><path d="m147.22 150.33v7.9h4.53v-1.8h-2.48v-6.1z"/><path d="m155.52 153.55a1.46 1.46 0 0 0 -1.5 1.51 1.48 1.48 0 0 0 1.44 1.6 1.52 1.52 0 0 0 1.56-1.55 1.49 1.49 0 0 0 -1.5-1.56m-3.43 1.54a3.19 3.19 0 0 1 3-3.31 2.44 2.44 0 0 1 1.82.77v-.65h1.88v6.33h-1.91v-.62a2.67 2.67 0 0 1 -1.89.77c-1.75 0-2.95-1.26-2.95-3.29"/><path d="m164.5 158.23h-4.53v-7.9h2.05v6.1h2.48z"/><path d="m167.26 158.23h-1.91v-6.33h1.91zm-2.09-7.94a1.15 1.15 0 0 1 2.3 0 1.18 1.18 0 0 1 -1.18 1.18 1.13 1.13 0 0 1 -1.12-1.16"/><path d="m171.26 153.41a1.37 1.37 0 0 0 -1.33 1.52 1.34 1.34 0 0 0 1.33 1.48 1.44 1.44 0 0 0 1.46-1.47 1.39 1.39 0 0 0 -1.46-1.53m-3.18 1.53a2.9 2.9 0 0 1 2.74-3.16 2.35 2.35 0 0 1 1.89.83v-.71h1.83v5.57a2.94 2.94 0 0 1 -3.23 3c-1.55 0-2.9-.78-3.11-2.2h2.14a1 1 0 0 0 1 .51c.66 0 1.28-.31 1.28-1a3.69 3.69 0 0 0 0-.47 2.9 2.9 0 0 1 -1.81.73 2.83 2.83 0 0 1 -2.73-3.08"/><path d="m178.79 153.55a1.46 1.46 0 0 0 -1.5 1.51 1.48 1.48 0 0 0 1.44 1.6 1.52 1.52 0 0 0 1.56-1.55 1.49 1.49 0 0 0 -1.5-1.56m-3.44 1.54a3.2 3.2 0 0 1 3.06-3.31 2.41 2.41 0 0 1 1.81.77v-.65h1.89v6.33h-1.92v-.62a2.63 2.63 0 0 1 -1.88.77c-1.76 0-3-1.26-3-3.29"/></g><path d="m117.75 110.11v47.55" fill="none" stroke="#fff" stroke-miterlimit="10" stroke-width="4"/><g fill="#fff"><path d="m36.67 134.07v-12.78h4c2.64 0 4.62 1.57 4.62 4.27s-2 4.33-4.62 4.33h-1.52v4.18zm2.48-6.56h1.45a1.93 1.93 0 0 0 2.17-2 1.91 1.91 0 0 0 -2.17-1.92h-1.45zm39.48 20.6a3.85 3.85 0 0 1 -4.11-4.11v-4.5h2.32v4.34c0 1.44.66 2.07 1.79 2.07s1.8-.72 1.8-2.07v-4.34h2.32v4.5a3.87 3.87 0 0 1 -4.12 4.14m-20 0a4.4 4.4 0 0 1 -4.18-4.43 4.34 4.34 0 0 1 4.18-4.33 2.86 2.86 0 0 1 2.6 1.22l.26-1.1h2v8.42h-2l-.26-1.07a3.05 3.05 0 0 1 -2.6 1.29m.47-6.66a2.22 2.22 0 1 0 2.17 2.23 2.15 2.15 0 0 0 -2.17-2.23m15.23-15.8h2.33v8.42h-2.33zm1.2-1.13a1.43 1.43 0 1 1 1.47-1.44 1.42 1.42 0 0 1 -1.44 1.41m-4.68 4.59a1.3 1.3 0 0 0 -1.29-1.48c-.91 0-1.38.57-1.38 1.51v4.93h-2.36v-5c0-.91-.5-1.48-1.29-1.48s-1.38.57-1.38 1.51v4.93h-2.32v-8.42h2l.25 1.1a2.21 2.21 0 0 1 2.07-1.32 2.71 2.71 0 0 1 2.36 1.26l.06.09.06-.09a2.78 2.78 0 0 1 2.45-1.26 3 3 0 0 1 3 3.27v5.37h-2.26zm16.23 5v-8.42h2l.26 1.23a2.27 2.27 0 0 1 2.13-1.32 2.5 2.5 0 0 1 .66.09v2.23a3.75 3.75 0 0 0 -.82-.09 1.81 1.81 0 0 0 -1.91 2v4.24zm-40.95 0v-8.42h2l.25 1.23a2.27 2.27 0 0 1 2.13-1.32 2.5 2.5 0 0 1 .66.09v2.23a3.72 3.72 0 0 0 -.81-.09 1.82 1.82 0 0 0 -1.92 2v4.24zm-9.46 13.82v-12.51h2.48v10.12h5.41v2.35zm12.91.22a4.29 4.29 0 0 1 -4.52-4.4 4.36 4.36 0 0 1 4.46-4.46 4.16 4.16 0 0 1 4.14 4.4 4.26 4.26 0 0 1 -.06.82h-6.18a2.07 2.07 0 0 0 2.1 1.57 3 3 0 0 0 2.26-1l1.41 1.45a4.79 4.79 0 0 1 -3.64 1.6m-.12-6.81a1.9 1.9 0 0 0 -2 1.47h3.89a1.89 1.89 0 0 0 -1.91-1.47m38.63 6.81a4.29 4.29 0 0 1 -4.52-4.4 4.36 4.36 0 0 1 4.45-4.48 4.16 4.16 0 0 1 4.14 4.4 4.26 4.26 0 0 1 -.06.82h-6.08a2.09 2.09 0 0 0 2.06 1.53 3 3 0 0 0 2.26-1l1.41 1.45a4.79 4.79 0 0 1 -3.64 1.6m-.09-6.75a1.92 1.92 0 0 0 -2 1.47h3.9a1.9 1.9 0 0 0 -1.9-1.47m-5.87-7a4.29 4.29 0 0 1 -4.52-4.4 4.36 4.36 0 0 1 4.39-4.47 4.16 4.16 0 0 1 4.14 4.4 4.26 4.26 0 0 1 -.06.82h-6.08a2.09 2.09 0 0 0 2.11 1.57 3 3 0 0 0 2.26-1l1.41 1.45a4.79 4.79 0 0 1 -3.64 1.6m-.14-6.8a1.91 1.91 0 0 0 -2 1.53h3.89a1.9 1.9 0 0 0 -1.89-1.53m-26.1 6.82a4.29 4.29 0 0 1 -4.52-4.4 4.36 4.36 0 0 1 4.46-4.46 4.17 4.17 0 0 1 4.15 4.4 3.66 3.66 0 0 1 -.07.82h-6.19a2.08 2.08 0 0 0 2.1 1.57 3 3 0 0 0 2.26-1l1.42 1.45a4.79 4.79 0 0 1 -3.65 1.6m-.12-6.82a1.92 1.92 0 0 0 -2 1.48h3.89a1.9 1.9 0 0 0 -1.91-1.48m13.28 14a2.22 2.22 0 1 0 2.2 2.23 2.18 2.18 0 0 0 -2.2-2.23m2.08-.91.25-1.07h2v8a4.05 4.05 0 0 1 -1.42 3.53 5.11 5.11 0 0 1 -3.14 1 5.48 5.48 0 0 1 -4-1.57l1.23-1.75a3.76 3.76 0 0 0 2.58 1.13c1.72 0 2.48-.85 2.48-2.11v-.59a3.19 3.19 0 0 1 -2.42 1 4.38 4.38 0 0 1 .06-8.76 2.9 2.9 0 0 1 2.36 1.19m-63.92-22.54a13.18 13.18 0 0 1 3 1.89c-.09-.43-.42-2.52-.61-3.81l4 2.76c.3-.94 1.35-4 1.35-4l2.23 3.59c.4-.42 2.67-3 3.26-3.59.1 1.46.23 3.54.27 3.85a12.71 12.71 0 0 1 2.44-2.5 13.29 13.29 0 0 0 -1.08 4.32 16.72 16.72 0 0 0 -12.8 1.55 13.46 13.46 0 0 0 -2.06-4.06zm17.47 17.34v-2.14a7.41 7.41 0 0 1 -2-1.1c-2.05.31-4.54 2.37-4.54 2.37s.84 1.6 1.76 3.32c1.64.21 4.02-1.85 4.78-2.48zm2.07 3.89a4 4 0 0 0 -.87-1.72h-1.6s-2.16 1.86-3.48 1.9c0 0 .73 1.35 1.09 2.06a5.6 5.6 0 0 0 2.52-1.33 7.63 7.63 0 0 1 .27 2.39 5 5 0 0 0 2.07-3.33zm.66-7a10.45 10.45 0 0 1 -1.5 1.06v2.15a7.69 7.69 0 0 1 1.58 2.15 6.48 6.48 0 0 0 -.08-5.44zm.17-1.92.13-1a3.37 3.37 0 0 0 -.85-2.36 15.76 15.76 0 0 0 -4.41-3.15 4 4 0 0 1 -.48 1.61 16 16 0 0 0 -3.33-2 9.36 9.36 0 0 0 -4.89 2l.75.63a5.54 5.54 0 0 0 -2.43 1.7s1.33.21 1.33.21a2.75 2.75 0 0 0 1.79 2.51c1.65.82 4-.2 6.27.7a18.59 18.59 0 0 0 -2.49-2.46 6.3 6.3 0 0 0 -1-.12 5.12 5.12 0 0 1 -2.12-.22 8.13 8.13 0 0 1 -1.23-.67 5 5 0 0 1 2.54-1.29 8.55 8.55 0 0 1 2.44 1.18 2.18 2.18 0 0 1 1.47-.68 1.74 1.74 0 0 0 -.52 1.53 27.64 27.64 0 0 1 2.25 2.34c1.19-.65 3.78-.5 4.31.11a15.45 15.45 0 0 0 -2.4-2.22 7.34 7.34 0 0 0 -1.05-1.58 4.63 4.63 0 0 1 1.41.92 1.82 1.82 0 0 1 1.08-.7 1.69 1.69 0 0 1 .6 1.22 1.67 1.67 0 0 1 -.46.4l1.25 1.36.13-1m1.17 1.72a15.33 15.33 0 0 1 1.05 12c-.08-.09-1.09-1.23-1.51-1.69-.27 4.14-1.49 7.36-5 10.07 0 0-.33-1.3-.53-2.11-5.87 4.3-10.91 2.33-12.33 1.63a17 17 0 0 0 -.49-10.13 24.39 24.39 0 0 1 -4.75 5.9 17.52 17.52 0 0 1 -.3-10.08l-3 .91a15.42 15.42 0 0 1 3.88-7.72c-.32 0-1.24-.18-2-.31a14.3 14.3 0 0 1 3.74-4.19 3.17 3.17 0 0 0 1.62 3.1c-.8-1.41-.9-3.15-.06-4a2.35 2.35 0 0 1 3.15.11 3 3 0 0 0 -1.07-1.43 15.45 15.45 0 0 1 8.92-1.3 12.45 12.45 0 0 1 1.4 1.51 6.1 6.1 0 0 0 -.12-1.26 19.07 19.07 0 0 1 4.37 1.65c-2.69-2.69-8.15-3.49-12.7-2.19a16.75 16.75 0 0 0 -3 1.19 2.44 2.44 0 0 0 -2 1.17 17.73 17.73 0 0 0 -6.08 6.6c.23.05.92.14 1.55.25-1.3 1.85-3 5.37-2.89 8.53l2.67-.83c-.42 2.78-.3 7.46 1.51 10.13a19.07 19.07 0 0 0 4.69-4.83 17.64 17.64 0 0 1 -.41 7.87 12.33 12.33 0 0 0 12.92-.29l.53 2.12.7-.45a13.11 13.11 0 0 0 6-8.8c.18.2.89 1 1.15 1.24.93-2.68 2.9-9.14-1.61-14.37z"/><path d="m101.61 78.74h-2.47l-3.43 6.2h1v-.2l.84-1.53h3.76l.88 1.53v.2h2.78l-3.42-6zm-3.69 3.88 1.39-2.53h.27l1.42 2.53z"/><path d="m64.36 82.07h3.03v-.71h-3.03v-1.81h4.31l-.14-.82h-6.73v6.21h2.56z"/><path d="m54.55 82.07h3.02v-.71h-3.02v-1.81h4.31l-.14-.82h-6.73v6.21h2.56z"/><path d="m110.55 78.74h-2.65v6.2h7l.5-.83h-4.85z"/><path d="m82.63 85.14c-3.41 0-4.77-1.34-4.77-3.2 0-2.17 2.07-3.39 4.67-3.39a6 6 0 0 1 3.79 1.1l-.84.57a3.44 3.44 0 0 0 -2.56-1c-1.94 0-2.48 1.32-2.48 2.64s.57 2.54 2.47 2.54a4.24 4.24 0 0 0 3-1l.57.64a6.82 6.82 0 0 1 -3.85 1.1z"/><path d="m71.86 78.73h2.53v6.21h-2.53z"/><path d="m90.1 78.73h2.53v6.21h-2.53z"/><path d="m48.56 81.86c0-2.27-2.27-3.39-4.82-3.39s-4.82 1.21-4.82 3.39 2.23 3.35 4.82 3.35 4.82-1.21 4.82-3.35zm-4.82-2.68c1.19 0 2.21.76 2.21 2.68s-1 2.65-2.21 2.65-2.21-.73-2.21-2.65 1.03-2.68 2.21-2.68z"/><path d="m17.18 78.73v2.57h-3.46v-2.57h-2.53v6.21h2.53v-2.8h3.46v2.8h2.53v-6.21z"/><path d="m25.77 81.78h3.09v-.72h-3.09v-1.53h4.43l-.14-.79h-6.74v6.2h6.81l.5-.84h-4.86z"/><path d="m0 79.53h3.11v5.41h2.51v-5.41h2.78l.47-.79h-8.87z"/><path d="m189.68 82.07h3.03v-.71h-3.03v-1.81h4.32l-.14-.82h-6.73v6.21h2.55z"/><path d="m183.7 81.86c0-2.27-2.27-3.39-4.82-3.39s-4.82 1.21-4.82 3.39 2.23 3.35 4.82 3.35 4.82-1.21 4.82-3.35zm-4.82-2.68c1.19 0 2.2.76 2.2 2.68s-1 2.65-2.2 2.65-2.21-.73-2.21-2.65 1.03-2.68 2.21-2.68z"/><path d="m129.89 81.47c1-.33 1.3-.74 1.3-1.24 0-1-1-1.5-3.19-1.49h-4.62v6.26h4.62a11 11 0 0 0 1.37-.07c1.72-.21 2.43-.72 2.43-1.85 0-.81-.82-1.34-1.86-1.53zm-1.09-1.13c0 .65-.24 1-1.21 1h-1.76v-1.87h1.76c.73-.01 1.21.11 1.21.87zm-1.21 1.66c1.09 0 1.54.32 1.54 1.11s-.38 1.16-1.64 1.16h-1.66v-2.27z"/><path d="m165.42 85-2.26-2.78a2.58 2.58 0 0 0 .42-.12 1.74 1.74 0 0 0 1.38-1.6c0-1.32-1.29-1.71-3.1-1.71h-5v6.21h2.43v-2.66h1.43l2 2.61zm-2.92-4.42a1 1 0 0 1 -1.08 1.09h-2.15v-2.13h2.15c.56 0 1.08.21 1.08 1"/><path d="m137.75 81.79h3.09v-.72h-3.09v-1.53h4.43l-.14-.79h-6.75v6.2h6.82l.5-.84h-4.86z"/><path d="m148.37 81.79h3.09v-.72h-3.09v-1.53h4.43l-.14-.79h-6.75v6.2h6.82l.5-.84h-4.86z"/></g></svg>