<svg xmlns="http://www.w3.org/2000/svg" viewBox="0 0 209.05 160.45"><title>footer-logos</title><g id="Layer_2" data-name="Layer 2"><g id="Capa_1" data-name="Capa 1"><path id="Outline" d="M209.05,0,166.68,65.5,87.26,49.74,6.44,62.56,28.22,29a9,9,0,0,0,2.53.85l-19,29.25,75.54-12,78.15,15.5,16.46-25.44h.17a6.29,6.29,0,0,0,3.1-.93l-.54-1.16-1-.62L203.58,3.7,104.12,23c.75-1.23,1.41-2.33,1.8-3ZM144.24,25.45A2.41,2.41,0,0,0,146.5,23,1.47,1.47,0,0,0,145,21.45a2.44,2.44,0,0,0-2.32,2.47A1.44,1.44,0,0,0,144.24,25.45ZM35.37,16.87h.73L46.5.84,99.69,21.26l.23-.38,1.23-2,3.95-.24c-2.95,4.8-8.39,13.74-8.83,14.49-2.33,3.94-3.51,6-3.51,7,0,.39.16.66.62.66,1.29,0,3.81-1.9,9.08-8.53.47-.6,1.71-2.33,2.14-3l3.76-.19c-2.1,3.14-5,7.4-6.19,9.65a3.75,3.75,0,0,0-.58,1.52c0,.36.21.55.62.55,1.43,0,4.09-2.14,8-7.68.93-1.32,1.67-2.49,2.55-3.84l3.71-.21c-1,1.68-3.15,5.16-3.38,5.53-1.76,2.86-2.72,4.73-2.72,5.55,0,.4.19.65.71.65,2.71,0,6.5-4.91,7.4-7.52a7.5,7.5,0,0,1,.91-4.18,1.7,1.7,0,0,1,1.48-.79c.58,0,1,.29,1,.66a14.71,14.71,0,0,1-2.17,5,3.17,3.17,0,0,0,2.15,1.77c1.45-2.8,5-7.26,9.52-7.26,1.6,0,2.35.6,2.35,1.84,0,2.35-3.65,5.66-8.61,6.35a7,7,0,0,0-.82,2.76c0,.85.39,1.47,1.61,1.47,4,0,8.8-6,11.42-9.46.2-.26,1.22-1.66,1.5-2.13l3.73-.22c-3.15,5-4.17,6.65-4.17,6.65-1,1.61-2.18,3.66-2.18,4.47a.56.56,0,0,0,.63.63c1.49,0,4.21-2.45,8.19-6.5,1.66-1.7,3.51-3.63,4.66-4.9.39-1.57,1.2-2.27,2.14-2.27A1,1,0,0,1,153,28.25a1.59,1.59,0,0,1-1.41,1.51,4.54,4.54,0,0,0,0,.65c0,1.51.16,2.69.16,4.23a7.13,7.13,0,0,1-1.16,4.28c1.93-1.55,5.8-5.2,8.11-7.36s4.63-3.08,6.44-3.08c1.5,0,2.38.53,2.38,1.84,0,3.09-5.06,6-8.59,6.33a6.78,6.78,0,0,0-.86,2.93c0,.83.48,1.32,1.44,1.32,2.74,0,5.56-2.86,7.69-5.57,3.39-4.31,5-6.61,7.6-6.61,1.38,0,2,.72,2,1.71,0,1.25-.61,2.29-1.8,4.48,4-5.12,5.93-6.24,7.36-6.24,1,0,1.67.5,1.68,1.18a4.55,4.55,0,0,0-2.8,3.79,1.35,1.35,0,0,0,.28.9,1,1,0,0,0,.8.31,2.68,2.68,0,0,0,1.35-.38l.3.72a4.94,4.94,0,0,1-2.39.58c-1.8,0-2.7-.86-2.7-2.25a4.92,4.92,0,0,1,1-2.64c-2.37,2-7.12,8.25-8.87,11.08l-3.75.14c.51-.85,3.69-5.58,5.9-9.43a6,6,0,0,0,1.05-2.34.38.38,0,0,0-.43-.41c-1.18,0-3.18,2.5-5.78,5.83-1.9,2.45-5.4,6.66-10,6.66-2.37,0-3.46-1.26-3.46-2.93a8.33,8.33,0,0,1,1.32-4.12c-1.16,1-2.22,2-3.26,2.93-2.1,1.89-4.76,4.2-8.5,4.2-2,0-3.08-.84-3.08-1.79a.86.86,0,0,1,.84-.91c1.23,0,.82,1.79,2.47,1.79,1.86,0,3.38-1.73,4.38-7.29.14-.74.43-2.22.63-3.15-2.9,3.09-4.93,5.15-5.82,6-2.52,2.44-5.43,5.26-8.18,5.26-1.58,0-2.44-.79-2.44-2.13a8,8,0,0,1,1.43-3.82c-2.17,2.32-5.67,5.93-9.88,5.93-2.49,0-3.64-1.22-3.64-3.07a7,7,0,0,1,.66-2.75,3.94,3.94,0,0,1-2.3-1.69,25.43,25.43,0,0,1-4.36,5.18,7.88,7.88,0,0,1-5.2,2.33c-1.56,0-2.49-.74-2.49-2.1a6.91,6.91,0,0,1,1-3c-2,2.53-4.66,5.1-7.54,5.1-1.26,0-2.29-.6-2.29-2A7.1,7.1,0,0,1,99.7,37c-1.76,1.94-4.7,5.44-8,5.44-1.51,0-2.29-.78-2.29-2.06a6.94,6.94,0,0,1,.91-3c-.41.5-.87,1-1.17,1.35-2.32,2.61-4.34,3.7-6.35,3.7a2.22,2.22,0,0,1-2.51-2.29,6.65,6.65,0,0,1,.61-2.37c-2.14,2.29-4.7,4.7-7.38,4.7-1.52,0-2.15-.86-2.15-1.9a6.11,6.11,0,0,1,.85-2.64l-.85.88c-1.87,1.93-4.23,3.64-6.41,3.64-1.42,0-2.3-.76-2.3-2,0-1,.7-2.66,2.43-5L64,36.47c-5.44,5.18-11,8.34-17,8.34-4.4,0-5.81-2-5.81-4.25a6.25,6.25,0,0,1,.11-1.05l-.76,1c-2.17,2.75-3.89,4.27-6,4.27-1.77,0-3.31-.87-3.31-2.42a6.59,6.59,0,0,1,1.26-3.12c1.49-2.46,5.6-8.56,8.7-13a15.44,15.44,0,0,1-8.24,2.27c-5.08,0-7.63-2.06-7.63-5.1C25.26,19.59,29.1,17,35.37,16.87Zm124,18.87c2.93-.48,6.42-3.5,6.42-5.67,0-.39-.17-.64-.59-.64C163.7,29.43,161.58,31.74,159.39,35.74Zm-33.76,0c2.94-.48,6.45-3.35,6.45-5.7a.57.57,0,0,0-.62-.63C129.69,29.43,127.37,32.57,125.63,35.76Zm-81.4-2.63c2.74-4,5.45-8.28,7.33-10.84-.79-.42-1.59-.81-2.4-1.18-.89,1.26-12.45,18.24-13.25,19.6a4.39,4.39,0,0,0-.82,1.94.46.46,0,0,0,.52.49,2.76,2.76,0,0,0,1.61-.89C39,40.75,41.17,37.6,44.23,33.13Zm5.52-3.78L50.64,28c2.59,0,4.63-.05,6.1-.74a9.08,9.08,0,0,0,5-7.1c0-1.3-.51-2.34-2.18-2.34-2.53,0-4.79,2.43-6.24,4.29A27.28,27.28,0,0,1,56.06,24l-.6.78a24.13,24.13,0,0,0-2.79-1.89c-1.59,2.12-5.2,7.71-7.7,11.36a9.93,9.93,0,0,1,5.12-1.44v1c-4.78.07-7.75,3.29-7.75,6.62,0,1.79,1,3,3.55,3,6,0,10.12-6.43,10.12-10.65,0-1.91-.69-3.61-3.72-3.61H50.86A5.86,5.86,0,0,0,49.75,29.35Zm43.81,1.49c0-.74-.49-1.17-1.33-1.17-1.46,0-2.92,1-4.91,3.51-1.72,2.16-3.47,5.38-3.47,6.77,0,.37.09.78.84.78s2-.53,3.72-2.49a42.71,42.71,0,0,0,5-6.69A1.57,1.57,0,0,0,93.56,30.84ZM39.07,17c.59.07,1.17.15,1.73.25a30.3,30.3,0,0,1,5.62,1.55c.33-.45.6-.82.89-1.18l4.46-.19c-.41.57-1.15,1.58-2,2.79.81.38,1.63.79,2.42,1.22,2.75-3.5,5.32-5.09,8.66-5.09,3.61,0,5,2.06,5,4.16A8.39,8.39,0,0,1,63.37,26,12.51,12.51,0,0,1,57.16,29c1.09.6,3.1,1.47,3.1,4.65a10.91,10.91,0,0,1-3.16,7,47.43,47.43,0,0,0,10.12-9c.49-.6,1.35-1.8,1.8-2.43l3.89-.24s-5,7.51-6,9.36a4.12,4.12,0,0,0-.76,1.86c0,.23.15.48.59.48,1.51,0,4.35-2.55,6.37-5.17.92-1.2,4.26-6.27,4.26-6.27l4-.24C78.09,34,77,35.66,77,35.66A22.51,22.51,0,0,0,74.9,39.6a2.2,2.2,0,0,0-.1.61.5.5,0,0,0,.56.57c2.3,0,6.42-5.43,7.73-7.08,2.41-3,5.33-5.15,8.48-5.15A2.82,2.82,0,0,1,94.37,30L98,24.12l.37-.62L47.53,4ZM27,23.45a3.39,3.39,0,0,0,1,2.46,4.32,4.32,0,0,0,1.59,1l4.9-7.54c.61-.06,1.26-.1,1.94-.1.4,0,.8,0,1.19,0l-5.3,8.16.78,0c.42,0,.82,0,1.22-.05a13.51,13.51,0,0,0,9.08-4.37L45.8,19.7a27.29,27.29,0,0,0-9.68-1.8C30.46,17.9,27,20.2,27,23.45ZM174,64a1.56,1.56,0,0,1-.48,1.14,1.53,1.53,0,0,1-1.14.48A1.64,1.64,0,0,1,170.78,64a1.58,1.58,0,0,1,.48-1.15,1.64,1.64,0,0,1,2.3,0A1.62,1.62,0,0,1,174,64Zm-.29,0a1.34,1.34,0,0,0-.39-1,1.3,1.3,0,0,0-1.88,0,1.39,1.39,0,0,0,0,1.93,1.25,1.25,0,0,0,.94.4,1.26,1.26,0,0,0,.94-.4A1.34,1.34,0,0,0,173.74,64Zm-.52.94h-.42l-.3-.76h-.45V65h-.4V63.1h.87a.8.8,0,0,1,.53.15.52.52,0,0,1,.18.4.51.51,0,0,1-.35.5Zm-1.17-1h.41c.24,0,.35-.09.35-.27s-.1-.26-.32-.26h-.44Z" style="fill:#fff"/><path d="M152,118.75a.2.2,0,0,0,0,.2.27.27,0,0,0,.08.07l6.15,3.57h0a.2.2,0,0,0,.21,0s0,0,.05,0l0,0a7.84,7.84,0,0,1,2.36-2.62,8,8,0,0,1,3.26-1.36h0l.07,0a.18.18,0,0,0,.08-.2h0l-1.3-7h0a.2.2,0,0,0,0-.08.18.18,0,0,0-.18-.08h0A15.63,15.63,0,0,0,152,118.75" style="fill:#fff"/><path d="M148.51,132.25a.18.18,0,0,0,.17.12.17.17,0,0,0,.1,0l6.63-2.56h0a.2.2,0,0,0,.12-.17.17.17,0,0,0,0-.07s0,0,0,0a8.06,8.06,0,0,1,.42-6.87v0a.24.24,0,0,0,0-.08.2.2,0,0,0-.1-.18h0L149.6,119h0l-.08,0a.23.23,0,0,0-.18.09v0h0a15.65,15.65,0,0,0-1.86,6.51,15.41,15.41,0,0,0,1,6.66" style="fill:#fff"/><path d="M157,143.35a.2.2,0,0,0,.19,0,.2.2,0,0,0,.05-.09l2.12-6.79h0a.21.21,0,0,0-.06-.21l-.06,0h0a8,8,0,0,1-5.13-4.6v0a.09.09,0,0,0,0-.06.19.19,0,0,0-.21,0h0l-6.53,2.82h0a.2.2,0,0,0-.07.06.19.19,0,0,0,0,.19v0h0a15.6,15.6,0,0,0,9.82,8.81" style="fill:#fff"/><path d="M170.81,143.68a.18.18,0,0,0,.08-.18.18.18,0,0,0,0-.1l-4-5.9h0a.18.18,0,0,0-.19-.08l-.07,0,0,0a8,8,0,0,1-6.79,1.11h-.1a.19.19,0,0,0-.16.14h0l-1.89,6.86h0a.14.14,0,0,0,0,.09.18.18,0,0,0,.13.15h0a15.63,15.63,0,0,0,6.76.38,15.43,15.43,0,0,0,6.27-2.51" style="fill:#fff"/><path d="M179.84,133.09a.22.22,0,0,0-.1-.18l-.1,0-7.08-.56h0a.2.2,0,0,0-.18.11s0,0,0,.06v0a8,8,0,0,1-3.34,6h0l-.05.06a.2.2,0,0,0,0,.21h0l4.2,5.74h0a.13.13,0,0,0,.07.06.18.18,0,0,0,.2,0h0a15.62,15.62,0,0,0,6.41-11.54" style="fill:#fff"/><path d="M177.16,119.41a.21.21,0,0,0-.2,0,.16.16,0,0,0-.08.05l-4.9,5.16v0a.18.18,0,0,0,0,.2.33.33,0,0,0,0,.06l0,0a8.05,8.05,0,0,1,2.57,6.39v0a.17.17,0,0,0,0,.07.23.23,0,0,0,.17.13h0l7.1.34h0a.15.15,0,0,0,.09,0,.2.2,0,0,0,.12-.16h0a15.62,15.62,0,0,0-4.93-12.25" style="fill:#fff"/><path d="M164.73,113.05a.25.25,0,0,0-.16.14.17.17,0,0,0,0,.1l1,7v0a.19.19,0,0,0,.14.15h.11a7.93,7.93,0,0,1,3.51.21,8.08,8.08,0,0,1,3.1,1.7,0,0,0,0,0,0,0l.06,0a.22.22,0,0,0,.21-.06h0l4.65-5.38h0a.16.16,0,0,0,0-.07.23.23,0,0,0-.05-.2h0a15.59,15.59,0,0,0-12.67-3.68" style="fill:#fff"/><path d="M169.7,129v-.17a4.11,4.11,0,0,1-.32.7,4.21,4.21,0,0,0-.12-.48,3.42,3.42,0,0,0-.7-1.23l-1.63.33v0l1.52-.69a3.55,3.55,0,0,0-.16-1.38,3.71,3.71,0,0,0-.19-.46,2.87,2.87,0,0,1,.69.4,5.46,5.46,0,0,0-3-2.21,3.22,3.22,0,0,1,.61.54,4.19,4.19,0,0,0-.5,0,3.28,3.28,0,0,0-1.37.28l-.19,1.65h0l-.19-1.65a3.28,3.28,0,0,0-1.37-.28,3.91,3.91,0,0,0-.49,0,2.88,2.88,0,0,1,.6-.54,5.41,5.41,0,0,0-3,2.21,2.87,2.87,0,0,1,.69-.4c-.07.15-.13.3-.19.46a3.35,3.35,0,0,0-.15,1.38l1.52.69v0l-1.63-.33a3.42,3.42,0,0,0-.7,1.23,4.21,4.21,0,0,0-.12.48,3.89,3.89,0,0,1-.32-.71V129a5.42,5.42,0,0,0,1.14,3.32,3.47,3.47,0,0,1-.15-.74,3.79,3.79,0,0,0,.38.32,3.32,3.32,0,0,0,1.26.58l1.14-1.24h0l-.83,1.46a3.44,3.44,0,0,0,.95,1l.42.26a3.41,3.41,0,0,1-.74.09,5.5,5.5,0,0,0,3.64,0,3.41,3.41,0,0,1-.74-.09l.42-.26a3.44,3.44,0,0,0,1-1l-.83-1.46h0l1.14,1.24a3.32,3.32,0,0,0,1.26-.58,2.92,2.92,0,0,0,.38-.32,3.47,3.47,0,0,1-.15.74A5.36,5.36,0,0,0,169.7,129Zm-3.94,2h-2.94l-.91-2.79,2.38-1.73,2.38,1.73Z" style="fill:#fff"/><polygon points="147.22 150.33 147.22 158.23 151.75 158.23 151.75 156.43 149.27 156.43 149.27 150.33 147.22 150.33" style="fill:#fff"/><path d="M155.52,153.55a1.46,1.46,0,0,0-1.5,1.51,1.48,1.48,0,0,0,1.44,1.6,1.52,1.52,0,0,0,1.56-1.55,1.49,1.49,0,0,0-1.5-1.56m-3.43,1.54a3.19,3.19,0,0,1,3-3.31,2.44,2.44,0,0,1,1.82.77v-.65h1.88v6.33h-1.91v-.62a2.67,2.67,0,0,1-1.89.77c-1.75,0-2.95-1.26-2.95-3.29" style="fill:#fff"/><polygon points="164.5 158.23 159.97 158.23 159.97 150.33 162.02 150.33 162.02 156.43 164.5 156.43 164.5 158.23" style="fill:#fff"/><path d="M167.26,158.23h-1.91V151.9h1.91Zm-2.09-7.94a1.15,1.15,0,0,1,2.3,0,1.18,1.18,0,0,1-1.18,1.18,1.13,1.13,0,0,1-1.12-1.16" style="fill:#fff"/><path d="M171.26,153.41a1.37,1.37,0,0,0-1.33,1.52,1.34,1.34,0,0,0,1.33,1.48,1.44,1.44,0,0,0,1.46-1.47,1.39,1.39,0,0,0-1.46-1.53m-3.18,1.53a2.9,2.9,0,0,1,2.74-3.16,2.35,2.35,0,0,1,1.89.83v-.71h1.83v5.57a2.94,2.94,0,0,1-3.23,3c-1.55,0-2.9-.78-3.11-2.2h2.14a1,1,0,0,0,1,.51c.66,0,1.28-.31,1.28-1a3.69,3.69,0,0,0,0-.47,2.9,2.9,0,0,1-1.81.73,2.83,2.83,0,0,1-2.73-3.08" style="fill:#fff"/><path d="M178.79,153.55a1.46,1.46,0,0,0-1.5,1.51,1.48,1.48,0,0,0,1.44,1.6,1.52,1.52,0,0,0,1.56-1.55,1.49,1.49,0,0,0-1.5-1.56m-3.44,1.54a3.2,3.2,0,0,1,3.06-3.31,2.41,2.41,0,0,1,1.81.77v-.65h1.89v6.33h-1.92v-.62a2.63,2.63,0,0,1-1.88.77c-1.76,0-3-1.26-3-3.29" style="fill:#fff"/><line x1="117.75" y1="110.11" x2="117.75" y2="157.66" style="fill:none;stroke:#fff;stroke-miterlimit:10;stroke-width:4px"/><path d="M36.67,134.07V121.29h4c2.64,0,4.62,1.57,4.62,4.27s-2,4.33-4.62,4.33H39.15v4.18Zm2.48-6.56H40.6a1.93,1.93,0,0,0,2.17-2,1.91,1.91,0,0,0-2.17-1.92H39.15Zm39.48,20.6A3.85,3.85,0,0,1,74.52,144v-4.5h2.32v4.34c0,1.44.66,2.07,1.79,2.07s1.8-.72,1.8-2.07v-4.34h2.32V144a3.87,3.87,0,0,1-4.12,4.14m-20,0a4.4,4.4,0,0,1-4.18-4.43,4.34,4.34,0,0,1,4.18-4.33,2.86,2.86,0,0,1,2.6,1.22l.26-1.1h2v8.42h-2l-.26-1.07a3.05,3.05,0,0,1-2.6,1.29m.47-6.66a2.22,2.22,0,1,0,2.17,2.23,2.15,2.15,0,0,0-2.17-2.23m15.23-15.8h2.33v8.42H74.33Zm1.2-1.13A1.43,1.43,0,1,1,77,123.11a1.42,1.42,0,0,1-1.44,1.41m-4.68,4.59a1.3,1.3,0,0,0-1.29-1.48c-.91,0-1.38.57-1.38,1.51v4.93H65.85v-5c0-.91-.5-1.48-1.29-1.48s-1.38.57-1.38,1.51v4.93H60.86v-8.42h2l.25,1.1a2.21,2.21,0,0,1,2.07-1.32,2.71,2.71,0,0,1,2.36,1.26l.06.09.06-.09a2.78,2.78,0,0,1,2.45-1.26,3,3,0,0,1,3,3.27v5.37H70.85Zm16.23,5v-8.42h2l.26,1.23a2.27,2.27,0,0,1,2.13-1.32,2.5,2.5,0,0,1,.66.09v2.23a3.75,3.75,0,0,0-.82-.09,1.81,1.81,0,0,0-1.91,2v4.24Zm-40.95,0v-8.42h2l.25,1.23a2.27,2.27,0,0,1,2.13-1.32,2.5,2.5,0,0,1,.66.09v2.23a3.72,3.72,0,0,0-.81-.09,1.82,1.82,0,0,0-1.92,2v4.24Zm-9.46,13.82V135.42h2.48v10.12h5.41v2.35Zm12.91.22a4.29,4.29,0,0,1-4.52-4.4,4.36,4.36,0,0,1,4.46-4.46,4.16,4.16,0,0,1,4.14,4.4,4.26,4.26,0,0,1-.06.82H47.45a2.07,2.07,0,0,0,2.1,1.57,3,3,0,0,0,2.26-1l1.41,1.45a4.79,4.79,0,0,1-3.64,1.6m-.12-6.81a1.9,1.9,0,0,0-2,1.47h3.89a1.89,1.89,0,0,0-1.91-1.47m38.63,6.81a4.29,4.29,0,0,1-4.52-4.4A4.36,4.36,0,0,1,88,139.25a4.16,4.16,0,0,1,4.14,4.4,4.26,4.26,0,0,1-.06.82H86A2.09,2.09,0,0,0,88.06,146a3,3,0,0,0,2.26-1l1.41,1.45a4.79,4.79,0,0,1-3.64,1.6M88,141.3a1.92,1.92,0,0,0-2,1.47h3.9A1.9,1.9,0,0,0,88,141.3m-5.87-7a4.29,4.29,0,0,1-4.52-4.4A4.36,4.36,0,0,1,82,125.43a4.16,4.16,0,0,1,4.14,4.4,4.26,4.26,0,0,1-.06.82H80a2.09,2.09,0,0,0,2.11,1.57,3,3,0,0,0,2.26-1l1.41,1.45a4.79,4.79,0,0,1-3.64,1.6M82,127.47A1.91,1.91,0,0,0,80,129h3.89A1.9,1.9,0,0,0,82,127.47m-26.1,6.82a4.29,4.29,0,0,1-4.52-4.4,4.36,4.36,0,0,1,4.46-4.46,4.17,4.17,0,0,1,4.15,4.4,3.66,3.66,0,0,1-.07.82H53.73a2.08,2.08,0,0,0,2.1,1.57,3,3,0,0,0,2.26-1l1.42,1.45a4.79,4.79,0,0,1-3.65,1.6m-.12-6.82a1.92,1.92,0,0,0-2,1.48h3.89a1.9,1.9,0,0,0-1.91-1.48m13.28,14a2.22,2.22,0,1,0,2.2,2.23,2.18,2.18,0,0,0-2.2-2.23m2.08-.91.25-1.07h2v8A4.05,4.05,0,0,1,71.91,151a5.11,5.11,0,0,1-3.14,1,5.48,5.48,0,0,1-4-1.57L66,148.68a3.76,3.76,0,0,0,2.58,1.13c1.72,0,2.48-.85,2.48-2.11v-.59a3.19,3.19,0,0,1-2.42,1,4.38,4.38,0,0,1,.06-8.76,2.9,2.9,0,0,1,2.36,1.19M7.14,118a13.18,13.18,0,0,1,3,1.89c-.09-.43-.42-2.52-.61-3.81l4,2.76c.3-.94,1.35-4,1.35-4l2.23,3.59c.4-.42,2.67-3,3.26-3.59.1,1.46.23,3.54.27,3.85a12.71,12.71,0,0,1,2.44-2.5A13.29,13.29,0,0,0,22,120.51,16.72,16.72,0,0,0,9.2,122.06,13.46,13.46,0,0,0,7.14,118Zm17.47,17.34v-2.14a7.41,7.41,0,0,1-2-1.1c-2.05.31-4.54,2.37-4.54,2.37s.84,1.6,1.76,3.32C21.47,138,23.85,135.94,24.61,135.31Zm2.07,3.89a4,4,0,0,0-.87-1.72l-1.6,0s-2.16,1.86-3.48,1.9c0,0,.73,1.35,1.09,2.06a5.6,5.6,0,0,0,2.52-1.33,7.63,7.63,0,0,1,.27,2.39A5,5,0,0,0,26.68,139.2Zm.66-7a10.45,10.45,0,0,1-1.5,1.06v2.15a7.69,7.69,0,0,1,1.58,2.15A6.48,6.48,0,0,0,27.34,132.15Zm.17-1.92.13-1a3.37,3.37,0,0,0-.85-2.36,15.76,15.76,0,0,0-4.41-3.15,4,4,0,0,1-.48,1.61,16,16,0,0,0-3.33-2,9.36,9.36,0,0,0-4.89,2l.75.63A5.54,5.54,0,0,0,12,127.74s1.33.21,1.33.21a2.75,2.75,0,0,0,1.79,2.51c1.65.82,4-.2,6.27.7a18.59,18.59,0,0,0-2.49-2.46,6.3,6.3,0,0,0-1-.12,5.12,5.12,0,0,1-2.12-.22,8.13,8.13,0,0,1-1.23-.67,5,5,0,0,1,2.54-1.29,8.55,8.55,0,0,1,2.44,1.18A2.18,2.18,0,0,1,21,126.9a1.74,1.74,0,0,0-.52,1.53,27.64,27.64,0,0,1,2.25,2.34c1.19-.65,3.78-.5,4.31.11a15.45,15.45,0,0,0-2.4-2.22,7.34,7.34,0,0,0-1.05-1.58A4.63,4.63,0,0,1,25,128a1.82,1.82,0,0,1,1.08-.7,1.69,1.69,0,0,1,.6,1.22,1.67,1.67,0,0,1-.46.4l1.25,1.36.13-1M28.77,131a15.33,15.33,0,0,1,1.05,12c-.08-.09-1.09-1.23-1.51-1.69-.27,4.14-1.49,7.36-5,10.07,0,0-.33-1.3-.53-2.11-5.87,4.3-10.91,2.33-12.33,1.63a17,17,0,0,0-.49-10.13,24.39,24.39,0,0,1-4.75,5.9,17.52,17.52,0,0,1-.3-10.08l-3,.91a15.42,15.42,0,0,1,3.88-7.72c-.32,0-1.24-.18-2-.31a14.3,14.3,0,0,1,3.74-4.19,3.17,3.17,0,0,0,1.62,3.1c-.8-1.41-.9-3.15-.06-4a2.35,2.35,0,0,1,3.15.11,3,3,0,0,0-1.07-1.43,15.45,15.45,0,0,1,8.92-1.3,12.45,12.45,0,0,1,1.4,1.51,6.1,6.1,0,0,0-.12-1.26,19.07,19.07,0,0,1,4.37,1.65c-2.69-2.69-8.15-3.49-12.7-2.19a16.75,16.75,0,0,0-3,1.19,2.44,2.44,0,0,0-2,1.17,17.73,17.73,0,0,0-6.08,6.6c.23.05.92.14,1.55.25-1.3,1.85-3,5.37-2.89,8.53l2.67-.83c-.42,2.78-.3,7.46,1.51,10.13a19.07,19.07,0,0,0,4.69-4.83,17.64,17.64,0,0,1-.41,7.87A12.33,12.33,0,0,0,22,151.26l.53,2.12.7-.45a13.11,13.11,0,0,0,6-8.8c.18.2.89,1,1.15,1.24C31.31,142.69,33.28,136.23,28.77,131Z" style="fill:#fff"/><path id="A" d="M101.61,78.74H99.14l-3.43,6.2h1l0-.2.84-1.53h3.76l.88,1.53,0,.2h2.78l-3.42-6Zm-3.69,3.88,1.39-2.53h.27L101,82.62Z" style="fill:#fff"/><polygon id="F" points="64.36 82.07 67.39 82.07 67.39 81.36 64.36 81.36 64.36 79.55 68.67 79.55 68.53 78.73 61.8 78.73 61.8 84.94 64.36 84.94 64.36 82.07" style="fill:#fff"/><polygon id="F-2" data-name="F" points="54.55 82.07 57.57 82.07 57.57 81.36 54.55 81.36 54.55 79.55 58.86 79.55 58.72 78.73 51.99 78.73 51.99 84.94 54.55 84.94 54.55 82.07" style="fill:#fff"/><polygon id="L" points="110.55 78.74 107.9 78.74 107.9 84.94 114.9 84.94 115.4 84.11 110.55 84.11 110.55 78.74" style="fill:#fff"/><path id="C" d="M82.63,85.14c-3.41,0-4.77-1.34-4.77-3.2,0-2.17,2.07-3.39,4.67-3.39a6,6,0,0,1,3.79,1.1l-.84.57a3.44,3.44,0,0,0-2.56-1c-1.94,0-2.48,1.32-2.48,2.64s.57,2.54,2.47,2.54a4.24,4.24,0,0,0,3-1l.57.64A6.82,6.82,0,0,1,82.63,85.14Z" style="fill:#fff"/><rect id="I" x="71.86" y="78.73" width="2.53" height="6.21" style="fill:#fff"/><rect id="I-2" data-name="I" x="90.1" y="78.73" width="2.53" height="6.21" style="fill:#fff"/><path id="O" d="M48.56,81.86c0-2.27-2.27-3.39-4.82-3.39s-4.82,1.21-4.82,3.39,2.23,3.35,4.82,3.35S48.56,84,48.56,81.86Zm-4.82-2.68c1.19,0,2.21.76,2.21,2.68s-1,2.65-2.21,2.65-2.21-.73-2.21-2.65S42.56,79.18,43.74,79.18Z" style="fill:#fff"/><polygon id="H" points="17.18 78.73 17.18 81.3 13.72 81.3 13.72 78.73 11.19 78.73 11.19 84.94 13.72 84.94 13.72 82.14 17.18 82.14 17.18 84.94 19.71 84.94 19.71 78.73 17.18 78.73" style="fill:#fff"/><polygon id="E" points="25.77 81.78 28.86 81.78 28.86 81.06 25.77 81.06 25.77 79.53 30.2 79.53 30.06 78.74 23.32 78.74 23.32 84.94 30.13 84.94 30.63 84.1 25.77 84.1 25.77 81.78" style="fill:#fff"/><polygon id="T" points="0 79.53 3.11 79.53 3.11 84.94 5.62 84.94 5.62 79.53 8.4 79.53 8.87 78.74 0 78.74 0 79.53" style="fill:#fff"/><polygon id="F-3" data-name="F" points="189.68 82.07 192.71 82.07 192.71 81.36 189.68 81.36 189.68 79.55 194 79.55 193.86 78.73 187.13 78.73 187.13 84.94 189.68 84.94 189.68 82.07" style="fill:#fff"/><path id="O-2" data-name="O" d="M183.7,81.86c0-2.27-2.27-3.39-4.82-3.39s-4.82,1.21-4.82,3.39,2.23,3.35,4.82,3.35S183.7,84,183.7,81.86Zm-4.82-2.68c1.19,0,2.2.76,2.2,2.68s-1,2.65-2.2,2.65-2.21-.73-2.21-2.65S177.7,79.18,178.88,79.18Z" style="fill:#fff"/><path id="B" d="M129.89,81.47c1-.33,1.3-.74,1.3-1.24,0-1-1-1.5-3.19-1.49h-4.62V85H128a11,11,0,0,0,1.37-.07c1.72-.21,2.43-.72,2.43-1.85,0-.81-.82-1.34-1.86-1.53Zm-1.09-1.13c0,.65-.24,1-1.21,1h-1.76V79.47h1.76C128.32,79.46,128.8,79.58,128.8,80.34ZM127.59,82c1.09,0,1.54.32,1.54,1.11s-.38,1.16-1.64,1.16h-1.66V82Z" style="fill:#fff"/><path id="R" d="M165.42,85l-2.26-2.78a2.58,2.58,0,0,0,.42-.12,1.74,1.74,0,0,0,1.38-1.6c0-1.32-1.29-1.71-3.1-1.71h-5V85h2.43V82.34h1.43l2,2.61Zm-2.92-4.42a1,1,0,0,1-1.08,1.09h-2.15V79.54h2.15c.56,0,1.08.21,1.08,1" style="fill:#fff"/><polygon id="E-2" data-name="E" points="137.75 81.79 140.84 81.79 140.84 81.07 137.75 81.07 137.75 79.54 142.18 79.54 142.04 78.75 135.29 78.75 135.29 84.95 142.11 84.95 142.61 84.11 137.75 84.11 137.75 81.79" style="fill:#fff"/><polygon id="E-3" data-name="E" points="148.37 81.79 151.46 81.79 151.46 81.07 148.37 81.07 148.37 79.54 152.8 79.54 152.66 78.75 145.91 78.75 145.91 84.95 152.73 84.95 153.23 84.11 148.37 84.11 148.37 81.79" style="fill:#fff"/></g></g></svg>