<svg xmlns="http://www.w3.org/2000/svg" viewBox="0 0 565.71 48.52"><title>logo-goals</title><g id="Layer_2" data-name="Layer 2"><g id="Layer_1-2" data-name="Layer 1"><path d="M290.21,27.21a10.32,10.32,0,0,1-3.13,6.43,9.13,9.13,0,0,1-6.25,2.19,6.57,6.57,0,0,1-5.39-2.29q-1.89-2.28-1.27-6.33l.94-6.28a10.37,10.37,0,0,1,3.09-6.44,8.91,8.91,0,0,1,6.15-2.21,6.74,6.74,0,0,1,5.49,2.31q1.92,2.31,1.32,6.34ZM288,20.88q.45-3.12-.58-4.6A3.9,3.9,0,0,0,284,14.8a5,5,0,0,0-3.73,1.56,7.91,7.91,0,0,0-1.94,4.52l-1,6.33c-.32,2.1-.15,3.65.53,4.64a3.72,3.72,0,0,0,3.34,1.49A5.16,5.16,0,0,0,285,31.78a8,8,0,0,0,2-4.57Z" style="fill:#fff"/><path d="M315.09,25.33h-8L305.56,35.5h-3.19l3.43-22.89h12.57L318,15.06h-9.4l-1.16,7.83h8Z" style="fill:#fff"/><path d="M386.2,47.44h-6.52l7-46.77h6.52Z" style="fill:#fff"/><path d="M506.27,41.33a18,18,0,0,1-6,4.72,20.79,20.79,0,0,1-9.69,2.06q-7.07,0-11-4.51t-2.7-12.67l2.09-13.88q1.26-8.44,6.2-12.75A17.94,17.94,0,0,1,497.34,0q6.84,0,10.27,3.69t2.36,10l-.07.16h-6.16q.63-4.36-1.14-6.61T496.7,5a9.9,9.9,0,0,0-7.3,3.1q-3.07,3.11-3.94,8.88l-2.09,13.94q-.93,6.23,1.21,9.23t6.69,3a12.57,12.57,0,0,0,5.4-1A8.47,8.47,0,0,0,500,39.63l1.63-10.89H493l.74-4.75h15.15Z" style="fill:#fff"/><path d="M557.41,36.74a7.41,7.41,0,0,0-1.17-5.8q-1.68-2.16-6.47-4.28-6.67-2.44-9.68-5.8T538,11.47A12.29,12.29,0,0,1,542.88,3a16.13,16.13,0,0,1,9.91-3Q559.35,0,563,3.81t2.49,10.42l-.06.16h-6.3a8.82,8.82,0,0,0-1.33-6.78A6.72,6.72,0,0,0,552,5a7.3,7.3,0,0,0-5,1.86,7.29,7.29,0,0,0-2.51,4.53c-.38,2.51,0,4.43,1.08,5.78S549,20,552.56,21.45q6.5,2.48,9.38,5.83t2,9.4a12.23,12.23,0,0,1-5,8.51,17.13,17.13,0,0,1-10.17,2.92A16.89,16.89,0,0,1,538,44.67Q533.6,41.24,534.84,34l.09-.19h6.23Q540.4,38.89,543,41a10,10,0,0,0,6.52,2.13,8.06,8.06,0,0,0,5.17-1.84A7.1,7.1,0,0,0,557.41,36.74Z" style="fill:#fff"/><polygon points="442.16 35.04 441.96 35.07 428.99 0.68 422.47 0.68 415.47 47.44 421.99 47.44 427.13 12.97 427.32 12.94 440.29 47.44 446.85 47.44 452.93 6.8 446.38 6.8 442.16 35.04" style="fill:#fff"/><polygon points="342.83 23.89 360.59 0.68 352.14 0.68 338.27 20.97 334.93 20.97 337.98 0.68 331.43 0.68 324.43 47.44 330.98 47.44 334.13 26.43 337.21 26.43 344.12 41.8 351.45 41.8 342.83 23.89" style="fill:#fff"/><rect x="443.38" y="6.71" width="17.33" height="0.75" style="fill:#fff"/><rect x="185.81" y="6.71" width="17.33" height="0.75" style="fill:#fff"/><rect x="526.71" y="33.32" width="17.33" height="0.75" style="fill:#fff"/><rect x="227.89" y="33.6" width="17.33" height="0.75" style="fill:#fff"/><rect x="341.21" y="41.51" width="17.33" height="0.75" style="fill:#fff"/><rect x="153.12" y="41.51" width="17.33" height="0.75" style="fill:#fff"/><rect x="484.14" y="29.32" width="17.33" height="0.75" transform="matrix(0.14, -0.99, 0.99, 0.14, 393.63, 513.32)" style="fill:#fff"/><rect x="33.03" y="29.32" width="17.33" height="0.75" transform="matrix(0.14, -0.99, 0.99, 0.14, 6.4, 66.76)" style="fill:#fff"/><path d="M54.81,41.71a18.46,18.46,0,0,1-6.07,4.75A21.09,21.09,0,0,1,39,48.52q-7.11,0-11.08-4.54T25.18,31.24l2.1-14q1.26-8.49,6.24-12.82A18.07,18.07,0,0,1,45.83.13q6.89,0,10.32,3.71c2.29,2.48,3.09,5.84,2.37,10.08l-.06.16h-6.2c.43-2.93.05-5.14-1.15-6.65s-3.17-2.26-5.93-2.26a10,10,0,0,0-7.35,3.11c-2.06,2.08-3.37,5.06-4,8.94l-2.1,14q-.93,6.27,1.22,9.29t6.73,3a12.7,12.7,0,0,0,5.43-1A8.37,8.37,0,0,0,48.44,40l1.65-11H41.43l.75-4.78H57.43Z" style="fill:#fff"/><path d="M112.66,30.82q-1.34,8.68-6.45,13.2a18.73,18.73,0,0,1-12.84,4.5q-7.2,0-11.08-4.7t-2.62-13L81.61,17.9Q82.9,9.2,88,4.67A18.26,18.26,0,0,1,100.61.13q7.33,0,11.27,4.75t2.72,13Zm-4.56-13q.95-6.41-1.19-9.45c-1.42-2-3.78-3-7.08-3a10.27,10.27,0,0,0-7.67,3.21q-3.12,3.21-4,9.29l-2,13q-1,6.47,1.08,9.53t6.86,3.07A10.6,10.6,0,0,0,102,40.2q3.18-3.21,4.12-9.38Z" style="fill:#fff"/><path d="M155.61,36H141.53l-5.17,11.89h-6.82L150.7.8h6.37l6.32,41.28h-6.82Zm-11.79-5.21H154.9l-2.55-19.12-.16,0Z" style="fill:#fff"/><path d="M192.59,42.87h19l-.74,5H185.29l6-40.77h6.56Z" style="fill:#fff"/><path d="M256.9,37.09a7.46,7.46,0,0,0-1.18-5.83q-1.69-2.19-6.51-4.32-6.72-2.45-9.74-5.83t-2.12-9.45a12.34,12.34,0,0,1,4.93-8.48,16.23,16.23,0,0,1,10-3.05q6.58,0,10.22,3.82T265,14.44l-.06.16h-6.33a8.87,8.87,0,0,0-1.34-6.82,6.77,6.77,0,0,0-5.77-2.61,7.33,7.33,0,0,0-5,1.87,7.33,7.33,0,0,0-2.52,4.56c-.39,2.52,0,4.45,1.08,5.81s3.45,2.79,7,4.3q6.53,2.49,9.43,5.86t2,9.45a12.27,12.27,0,0,1-5,8.56,17.21,17.21,0,0,1-10.22,2.94,17,17,0,0,1-10.87-3.45q-4.38-3.47-3.15-10.76l.09-.2h6.27c-.52,3.43.1,5.86,1.84,7.29A10,10,0,0,0,249,43.55a8.11,8.11,0,0,0,5.2-1.86A7.13,7.13,0,0,0,256.9,37.09Z" style="fill:#fff"/><path d="M8.69,29.59H5.48l-2,6.64H1.2l2-6.64H0l.31-2.11H3.89l1.85-6H2.25l.33-2.14H6.39l2.09-6.74h2.25L8.64,19.37h3.21l2.09-6.74h2.24L14.1,19.37h3l-.32,2.14H13.44l-1.83,6h3.2l-.3,2.11H11L8.91,36.23H6.65ZM6.13,27.48H9.34l1.84-6H8Z" style="fill:#fff"/></g></g></svg>