<svg viewBox="0 0 565.71 48.52" xmlns="http://www.w3.org/2000/svg"><g fill="#fff"><path d="m290.21 27.21a10.32 10.32 0 0 1 -3.13 6.43 9.13 9.13 0 0 1 -6.25 2.19 6.57 6.57 0 0 1 -5.39-2.29q-1.89-2.28-1.27-6.33l.94-6.28a10.37 10.37 0 0 1 3.09-6.44 8.91 8.91 0 0 1 6.15-2.21 6.74 6.74 0 0 1 5.49 2.31q1.92 2.31 1.32 6.34zm-2.21-6.33q.45-3.12-.58-4.6a3.9 3.9 0 0 0 -3.42-1.48 5 5 0 0 0 -3.73 1.56 7.91 7.91 0 0 0 -1.94 4.52l-1 6.33c-.32 2.1-.15 3.65.53 4.64a3.72 3.72 0 0 0 3.34 1.49 5.16 5.16 0 0 0 3.8-1.56 8 8 0 0 0 2-4.57z"/><path d="m315.09 25.33h-8l-1.53 10.17h-3.19l3.43-22.89h12.57l-.37 2.45h-9.4l-1.16 7.83h8z"/><path d="m386.2 47.44h-6.52l7-46.77h6.52z"/><path d="m506.27 41.33a18 18 0 0 1 -6 4.72 20.79 20.79 0 0 1 -9.69 2.06q-7.07 0-11-4.51t-2.7-12.67l2.09-13.88q1.26-8.44 6.2-12.75a17.94 17.94 0 0 1 12.17-4.3q6.84 0 10.27 3.69t2.36 10l-.07.16h-6.16q.63-4.36-1.14-6.61t-5.9-2.24a9.9 9.9 0 0 0 -7.3 3.1q-3.07 3.11-3.94 8.88l-2.09 13.94q-.93 6.23 1.21 9.23t6.69 3a12.57 12.57 0 0 0 5.4-1 8.47 8.47 0 0 0 3.33-2.52l1.63-10.89h-8.63l.74-4.75h15.15z"/><path d="m557.41 36.74a7.41 7.41 0 0 0 -1.17-5.8q-1.68-2.16-6.47-4.28-6.67-2.44-9.68-5.8t-2.09-9.39a12.29 12.29 0 0 1 4.88-8.47 16.13 16.13 0 0 1 9.91-3q6.56 0 10.21 3.81t2.49 10.42l-.06.16h-6.3a8.82 8.82 0 0 0 -1.33-6.78 6.72 6.72 0 0 0 -5.8-2.61 7.3 7.3 0 0 0 -5 1.86 7.29 7.29 0 0 0 -2.51 4.53c-.38 2.51 0 4.43 1.08 5.78s3.43 2.83 6.99 4.28q6.5 2.48 9.38 5.83t2 9.4a12.23 12.23 0 0 1 -5 8.51 17.13 17.13 0 0 1 -10.17 2.92 16.89 16.89 0 0 1 -10.77-3.44q-4.4-3.43-3.16-10.67l.09-.19h6.23q-.76 5.08 1.84 7.19a10 10 0 0 0 6.52 2.13 8.06 8.06 0 0 0 5.17-1.84 7.1 7.1 0 0 0 2.72-4.55z"/><path d="m442.16 35.04-.2.03-12.97-34.39h-6.52l-7 46.76h6.52l5.14-34.47.19-.03 12.97 34.5h6.56l6.08-40.64h-6.55z"/><path d="m342.83 23.89 17.76-23.21h-8.45l-13.87 20.29h-3.34l3.05-20.29h-6.55l-7 46.76h6.55l3.15-21.01h3.08l6.91 15.37h7.33z"/><path d="m443.38 6.71h17.33v.75h-17.33z"/><path d="m185.81 6.71h17.33v.75h-17.33z"/><path d="m526.71 33.32h17.33v.75h-17.33z"/><path d="m227.89 33.6h17.33v.75h-17.33z"/><path d="m341.21 41.51h17.33v.75h-17.33z"/><path d="m153.12 41.51h17.33v.75h-17.33z"/><path d="m484.14 29.32h17.33v.75h-17.33z" transform="matrix(.14 -.99 .99 .14 393.63 513.32)"/><path d="m33.03 29.32h17.33v.75h-17.33z" transform="matrix(.14 -.99 .99 .14 6.4 66.76)"/><path d="m54.81 41.71a18.46 18.46 0 0 1 -6.07 4.75 21.09 21.09 0 0 1 -9.74 2.06q-7.11 0-11.08-4.54t-2.74-12.74l2.1-14q1.26-8.49 6.24-12.82a18.07 18.07 0 0 1 12.31-4.29q6.89 0 10.32 3.71c2.29 2.48 3.09 5.84 2.37 10.08l-.06.16h-6.2c.43-2.93.05-5.14-1.15-6.65s-3.17-2.26-5.93-2.26a10 10 0 0 0 -7.35 3.11c-2.06 2.08-3.37 5.06-4 8.94l-2.1 14q-.93 6.27 1.22 9.29t6.73 3a12.7 12.7 0 0 0 5.43-1 8.37 8.37 0 0 0 3.33-2.51l1.65-11h-8.66l.75-4.78h15.25z"/><path d="m112.66 30.82q-1.34 8.68-6.45 13.2a18.73 18.73 0 0 1 -12.84 4.5q-7.2 0-11.08-4.7t-2.62-13l1.94-12.92q1.29-8.7 6.39-13.23a18.26 18.26 0 0 1 12.61-4.54q7.33 0 11.27 4.75t2.72 13zm-4.56-13q.95-6.41-1.19-9.45c-1.42-2-3.78-3-7.08-3a10.27 10.27 0 0 0 -7.67 3.21q-3.12 3.21-4 9.29l-2 13q-1 6.47 1.08 9.53t6.86 3.07a10.6 10.6 0 0 0 7.9-3.27q3.18-3.21 4.12-9.38z"/><path d="m155.61 36h-14.08l-5.17 11.89h-6.82l21.16-47.09h6.37l6.32 41.28h-6.82zm-11.79-5.21h11.08l-2.55-19.12h-.16z"/><path d="m192.59 42.87h19l-.74 5h-25.56l6-40.77h6.56z"/><path d="m256.9 37.09a7.46 7.46 0 0 0 -1.18-5.83q-1.69-2.19-6.51-4.32-6.72-2.45-9.74-5.83t-2.12-9.45a12.34 12.34 0 0 1 4.93-8.48 16.23 16.23 0 0 1 10-3.05q6.58 0 10.22 3.82t2.5 10.49l-.06.16h-6.33a8.87 8.87 0 0 0 -1.34-6.82 6.77 6.77 0 0 0 -5.77-2.61 7.33 7.33 0 0 0 -5 1.87 7.33 7.33 0 0 0 -2.52 4.56c-.39 2.52 0 4.45 1.08 5.81s3.45 2.79 7 4.3q6.53 2.49 9.43 5.86t2 9.45a12.27 12.27 0 0 1 -5 8.56 17.21 17.21 0 0 1 -10.22 2.94 17 17 0 0 1 -10.87-3.45q-4.38-3.47-3.15-10.76l.09-.2h6.27c-.52 3.43.1 5.86 1.84 7.29a10 10 0 0 0 6.55 2.15 8.11 8.11 0 0 0 5.2-1.86 7.13 7.13 0 0 0 2.7-4.6z"/><path d="m8.69 29.59h-3.21l-2 6.64h-2.28l2-6.64h-3.2l.31-2.11h3.58l1.85-6h-3.49l.33-2.14h3.81l2.09-6.74h2.25l-2.09 6.77h3.21l2.09-6.74h2.24l-2.08 6.74h3l-.32 2.14h-3.34l-1.83 6h3.2l-.3 2.11h-3.51l-2.09 6.61h-2.26zm-2.56-2.11h3.21l1.84-6h-3.18z"/></g></svg>