<?xml version="1.0" standalone="no"?>
<!DOCTYPE svg PUBLIC "-//W3C//DTD SVG 1.1//EN" "http://www.w3.org/Graphics/SVG/1.1/DTD/svg11.dtd" >
<svg xmlns="http://www.w3.org/2000/svg" xmlns:xlink="http://www.w3.org/1999/xlink" version="1.1">
<metadata>
Created by FontForge 20190801 at Fri Jul 15 01:46:53 2016
 By Jimmy Wärting
Copyright \251 2014 Paul Barnes and Christian Schwartz under exclusive license to Commercial Type / Schwartzco Inc.
</metadata>
<defs>
<font id="CaponiDisplay-Medium" horiz-adv-x="456" >
  <font-face 
    font-family="Caponi Display"
    font-weight="500"
    font-variant="small-caps"
    font-stretch="normal"
    units-per-em="1000"
    panose-1="0 0 0 0 0 0 0 0 0 0"
    ascent="725"
    descent="-275"
    x-height="445"
    cap-height="626"
    bbox="-177 -279 1444 997"
    underline-thickness="41"
    underline-position="172"
    stemh="40"
    stemv="81"
    unicode-range="U+000D-FB04"
  />
<missing-glyph horiz-adv-x="114" 
 />
    <glyph glyph-name="f_f" unicode="ff" horiz-adv-x="579" 
d="M19 401v33c24 4 44 7 63 19v12c0 147 102 234 214 234c52 0 92 -17 111 -48c39 41 92 64 152 64c75 0 118 -37 118 -90c0 -43 -27 -63 -56 -63c-27 0 -52 15 -52 44c0 35 27 38 27 53c0 10 -11 15 -34 15c-72 0 -117 -46 -117 -154v-74h119v-45h-119l1 -360l74 -3v-38
h-228v38l55 3v360h-168l1 -360l55 -3v-38h-219v38l66 3v360h-63zM298 657c-69 0 -119 -47 -119 -154v-57h168v36c0 21 2 42 6 61c-21 4 -38 16 -38 43c0 31 26 35 26 49c0 11 -16 22 -43 22z" />
    <glyph glyph-name="f_i" unicode="fi" horiz-adv-x="523" 
d="M19 401v33c24 4 44 7 63 19v21c0 152 97 241 218 241c87 0 135 -41 135 -97c0 -47 -29 -69 -62 -69c-29 0 -56 18 -56 50c0 33 31 41 31 52s-13 23 -45 23c-79 0 -124 -51 -124 -162v-66h219l39 9l9 -5v-408l62 -4v-38h-216v38l55 4v359h-168l1 -360l55 -3v-38h-219v38
l66 3v360h-63z" />
    <glyph glyph-name="f_l" unicode="fl" horiz-adv-x="526" 
d="M19 401v33c24 4 44 7 63 19v29c0 148 98 233 214 233c39 0 73 -9 96 -28l45 21l9 -5v-661l65 -4v-38h-219v38l55 4v359h-168l1 -360l55 -3v-38h-219v38l66 3v360h-63zM301 674c-76 0 -122 -46 -122 -154v-74h168v115c-19 4 -32 18 -32 43c0 32 24 36 24 50
c0 13 -13 20 -38 20z" />
    <glyph glyph-name="f_f_i" unicode="ffi" horiz-adv-x="788" 
d="M19 401v33c24 4 44 7 63 19v12c0 147 102 234 214 234c53 0 94 -18 113 -50c39 43 95 66 156 66c88 0 136 -41 136 -97c0 -47 -31 -69 -63 -69c-29 0 -55 18 -55 50c0 33 29 41 29 52s-11 23 -43 23c-80 0 -124 -51 -124 -162v-66h218l39 9l9 -5v-408l62 -4v-38h-217v38
l56 4v359h-167l1 -360l54 -3v-38h-208v38l55 3v360h-168l1 -360l55 -3v-38h-219v38l66 3v360h-63zM298 657c-69 0 -119 -47 -119 -154v-57h168v28c0 27 2 50 7 69c-21 3 -39 16 -39 43c0 31 26 35 26 49c0 11 -16 22 -43 22z" />
    <glyph glyph-name="f_f_l" unicode="ffl" horiz-adv-x="791" 
d="M19 401v33c24 4 44 7 63 19v12c0 147 102 234 214 234c53 0 92 -18 112 -49c39 43 94 65 154 65c41 0 73 -9 96 -27l44 20l9 -5v-661l65 -4v-38h-220v38l56 4v359h-167l1 -360l54 -3v-38h-208v38l55 3v360h-168l1 -360l55 -3v-38h-219v38l66 3v360h-63zM565 674
c-75 0 -120 -46 -120 -154v-74h167v115c-19 4 -32 18 -32 43c0 32 24 36 24 50c0 12 -15 20 -39 20zM298 657c-69 0 -119 -47 -119 -154v-57h168v36c0 21 2 42 6 61c-21 3 -38 16 -38 43c0 31 26 35 26 49c0 11 -16 22 -43 22z" />
    <glyph glyph-name="f_j" unicode="fj" horiz-adv-x="518" 
d="M19 401v33c24 4 44 7 63 19v21c0 152 103 241 227 241c88 0 136 -41 136 -97c0 -47 -31 -69 -63 -69c-31 0 -56 18 -56 50c0 33 30 41 30 52s-12 23 -45 23c-80 0 -132 -51 -132 -162v-66h220l38 9l9 -5v-494c0 -120 -77 -235 -185 -235c-39 0 -64 24 -64 53
c0 31 16 48 40 48c23 0 50 -16 67 -41c28 13 44 51 44 107v513h-169l1 -360l74 -3v-38h-238v38l66 3v360h-63z" />
    <glyph glyph-name="f_b" unicode="fb" horiz-adv-x="792" 
d="M433 -7l-141 10v39l55 -2v521c-19 4 -32 18 -32 43c0 32 24 36 24 50c0 13 -13 20 -38 20c-76 0 -122 -46 -122 -154v-74h122v-45h-122l1 -360l55 -3v-38h-219v38l66 3v360h-63v33c24 4 44 7 63 19v29c0 148 98 233 214 233c39 0 73 -9 96 -28l45 21l9 -5v-297
c39 33 82 55 138 55c113 0 180 -87 180 -247c0 -144 -93 -227 -192 -227c-60 0 -93 19 -126 51v-7h-4v-38h-9zM544 402c-35 0 -66 -11 -98 -31v-294c27 -24 59 -36 94 -36c72 0 119 52 119 179c0 117 -38 182 -115 182z" />
    <glyph glyph-name="f_h" unicode="fh" horiz-adv-x="784" 
d="M292 0v38l55 4v519c-19 4 -32 18 -32 43c0 32 24 36 24 50c0 13 -13 20 -38 20c-76 0 -122 -46 -122 -154v-74h122v-45h-122l1 -360l55 -3v-38h-219v38l66 3v360h-63v33c24 4 44 7 63 19v29c0 148 98 233 214 233c39 0 73 -9 96 -28l45 21l9 -5v-328c17 20 38 38 59 54
c27 19 58 33 87 33c77 0 120 -38 120 -130v-292l57 -2v-38h-213v38l58 3v285c0 39 -20 60 -67 60c-35 0 -69 -15 -101 -39v-305l53 -4v-38h-207z" />
    <glyph glyph-name="g_y" unicode="gy" horiz-adv-x="968" 
d="M227 128c-33 0 -63 6 -91 18c-21 -8 -37 -23 -37 -50c0 -32 26 -48 78 -48c57 0 116 4 139 4c98 0 164 -35 164 -135c0 -128 -107 -192 -263 -192c-141 0 -222 43 -222 122c0 62 55 92 112 111c-51 15 -76 51 -76 94c0 47 30 85 83 106c-47 28 -78 74 -78 134
c0 100 92 169 191 169c67 0 137 -28 161 -95h2c3 61 28 90 64 90c25 0 46 -18 46 -49s-20 -40 -31 -47c-7 15 -15 18 -26 18c-16 0 -29 -18 -28 -53c0 -8 1 -24 1 -37c0 -96 -89 -160 -189 -160zM587 -263c-51 0 -75 33 -75 61c0 32 22 50 47 50c11 0 21 -3 28 -9
c-3 -31 12 -42 27 -42c31 0 60 34 95 137l15 45l-186 427l-24 2v38h198v-38l-60 -4l117 -292h2l98 281l-61 15v38h153v-38l-44 -12l-163 -463c-53 -147 -91 -196 -167 -196zM162 -50c-9 0 -18 1 -26 2c-31 -19 -56 -42 -56 -90c0 -75 56 -96 141 -96c104 0 183 29 183 112
c0 43 -26 76 -94 76c-56 0 -115 -4 -148 -4zM227 164c64 0 96 43 96 128s-32 128 -96 128c-63 0 -95 -43 -95 -128s32 -128 95 -128z" />
    <glyph glyph-name="f_f_b" unicode="ffb" horiz-adv-x="1057" 
d="M19 401v33c24 4 44 7 63 19v12c0 147 102 234 214 234c53 0 92 -18 112 -49c39 43 94 65 154 65c40 0 72 -9 95 -27l44 20l9 -5v-298c39 33 83 56 139 56c113 0 180 -87 180 -247c0 -144 -92 -227 -191 -227c-61 0 -95 20 -128 53v-9h-2v-38h-9l-143 10v39l56 -2v521
c-19 4 -32 18 -32 43c0 32 24 36 24 50c0 12 -15 20 -39 20c-75 0 -120 -46 -120 -154v-74h120v-45h-120l1 -360l54 -3v-38h-208v38l55 3v360h-168l1 -360l55 -3v-38h-219v38l66 3v360h-63zM809 402c-33 0 -66 -11 -99 -32v-291c27 -24 59 -38 96 -38c72 0 119 52 119 179
c0 117 -37 182 -116 182zM298 657c-69 0 -119 -47 -119 -154v-57h168v36c0 21 2 42 6 61c-21 3 -38 16 -38 43c0 31 26 35 26 49c0 11 -16 22 -43 22z" />
    <glyph glyph-name="f_f_h" unicode="ffh" horiz-adv-x="1050" 
d="M19 401v33c24 4 44 7 63 19v12c0 147 102 234 214 234c53 0 92 -18 112 -49c39 43 94 65 154 65c40 0 72 -9 95 -27l44 20l9 -5v-331c17 21 38 40 61 57c27 19 58 33 86 33c79 0 121 -38 121 -130v-292l57 -2v-38h-213v38l57 3v285c0 39 -20 60 -67 60
c-35 0 -69 -16 -102 -40v-304l55 -4v-38h-209v38l56 4v519c-19 4 -32 18 -32 43c0 32 24 36 24 50c0 12 -15 20 -39 20c-75 0 -120 -46 -120 -154v-74h120v-45h-120l1 -360l54 -3v-38h-208v38l55 3v360h-168l1 -360l55 -3v-38h-219v38l66 3v360h-63zM298 657
c-69 0 -119 -47 -119 -154v-57h168v36c0 21 2 42 6 61c-21 3 -38 16 -38 43c0 31 26 35 26 49c0 11 -16 22 -43 22z" />
    <glyph glyph-name="f_f_j" unicode="ffj" horiz-adv-x="783" 
d="M19 401v33c24 4 44 7 63 19v12c0 147 102 234 214 234c56 0 95 -19 114 -52c43 44 101 68 165 68c85 0 135 -41 135 -97c0 -47 -31 -69 -62 -69s-57 18 -57 50c0 33 30 41 30 52s-12 23 -44 23c-80 0 -132 -51 -132 -162v-66h218l39 9l9 -5v-494
c0 -120 -76 -235 -185 -235c-37 0 -64 24 -64 53c0 31 16 48 41 48c21 0 49 -16 66 -41c27 13 43 51 43 107v513h-167l1 -360l74 -3v-38h-228v38l55 3v360h-168l1 -360l55 -3v-38h-219v38l66 3v360h-63zM298 657c-69 0 -119 -47 -119 -154v-57h168v28c0 23 3 46 8 69
c-23 3 -40 16 -40 43c0 31 26 35 26 49c0 11 -16 22 -43 22z" />
    <glyph glyph-name="f_f_k" unicode="ffk" horiz-adv-x="1038" 
d="M19 401v33c24 4 44 7 63 19v12c0 147 102 234 214 234c53 0 92 -18 112 -49c39 43 94 65 154 65c40 0 72 -9 95 -27l44 20l9 -5v-661l55 -4v-38h-209v38l56 5v518c-19 4 -32 18 -32 43c0 32 24 36 24 50c0 12 -15 20 -39 20c-75 0 -120 -46 -120 -154v-74h120v-45h-120
l1 -360l54 -3v-38h-208v38l55 3v360h-168l1 -360l55 -3v-38h-219v38l66 3v360h-63zM826 0v38l45 2l-152 188v11l155 156l-57 13v38h179v-38l-65 -11l-128 -129l184 -228l44 -2v-38h-205zM298 657c-69 0 -119 -47 -119 -154v-57h168v36c0 21 2 42 6 61c-21 3 -38 16 -38 43
c0 31 26 35 26 49c0 11 -16 22 -43 22z" />
    <glyph glyph-name="f_k" unicode="fk" horiz-adv-x="773" 
d="M292 0v38l55 5v518c-19 4 -32 18 -32 43c0 32 24 36 24 50c0 13 -13 20 -38 20c-76 0 -122 -46 -122 -154v-74h122v-45h-122l1 -360l55 -3v-38h-219v38l66 3v360h-63v33c24 4 44 7 63 19v29c0 148 98 233 214 233c39 0 73 -9 96 -28l45 21l9 -5v-661l53 -4v-38h-207z
M561 0v38l45 2l-152 188v11l154 156l-55 13v38h178v-38l-65 -11l-128 -130l183 -227l45 -2v-38h-205z" />
    <glyph glyph-name="g_g" unicode="gg" horiz-adv-x="992" 
d="M227 128c-33 0 -63 6 -91 18c-21 -8 -37 -23 -37 -50c0 -32 26 -48 78 -48c57 0 110 4 133 4c96 0 163 -35 163 -135c0 -128 -105 -192 -256 -192c-141 0 -222 43 -222 122c0 62 55 92 112 111c-51 15 -76 51 -76 94c0 47 30 85 83 106c-47 28 -78 74 -78 134
c0 100 92 169 191 169c67 0 141 -27 165 -104h2c0 70 38 99 73 99c28 0 49 -18 49 -49s-20 -40 -32 -47c-7 12 -19 18 -30 18c-17 0 -40 -14 -39 -54c0 -7 1 -23 1 -36c0 -96 -89 -160 -189 -160zM711 128c-31 0 -61 6 -90 19c-23 -8 -38 -24 -38 -51c0 -32 26 -48 78 -48
c57 0 116 4 139 4c98 0 164 -35 164 -135c0 -128 -107 -192 -257 -192c-136 0 -215 43 -215 122c0 60 50 94 101 110c-52 15 -79 52 -79 95c0 47 29 86 84 106c-47 28 -77 74 -77 134c0 100 90 169 189 169c70 0 140 -29 164 -97h3c1 68 34 92 71 92c29 0 51 -18 51 -49
s-21 -40 -32 -47c-7 12 -17 18 -29 18c-19 0 -40 -17 -40 -53c0 -8 3 -24 3 -37c0 -96 -89 -160 -190 -160zM162 -50c-9 0 -18 1 -26 2c-31 -19 -56 -42 -56 -90c0 -75 56 -96 141 -96c100 0 177 29 177 112c0 43 -27 76 -95 76c-55 0 -108 -4 -141 -4zM646 -50
c-8 0 -14 1 -21 1c-27 -16 -48 -42 -48 -89c0 -75 52 -96 133 -96c99 0 178 29 178 112c0 43 -24 76 -95 76c-55 0 -114 -4 -147 -4zM227 164c64 0 96 43 96 128s-32 128 -96 128c-63 0 -95 -43 -95 -128s32 -128 95 -128zM711 164c64 0 96 43 96 128s-32 128 -96 128
c-63 0 -94 -43 -94 -128s31 -128 94 -128z" />
    <glyph glyph-name="g_g_y" unicode="ggy" horiz-adv-x="1451" 
d="M227 128c-33 0 -63 6 -91 18c-21 -8 -37 -23 -37 -50c0 -32 26 -48 78 -48c57 0 110 4 133 4c96 0 163 -35 163 -135c0 -128 -105 -192 -256 -192c-141 0 -222 43 -222 122c0 62 55 92 112 111c-51 15 -76 51 -76 94c0 47 30 85 83 106c-47 28 -78 74 -78 134
c0 100 92 169 191 169c67 0 141 -27 165 -104h2c0 70 38 99 73 99c28 0 49 -18 49 -49s-20 -40 -32 -47c-7 12 -19 18 -30 18c-17 0 -40 -14 -39 -54c0 -7 1 -23 1 -36c0 -96 -89 -160 -189 -160zM707 -275c-136 0 -215 43 -215 122c0 60 50 94 101 110
c-52 15 -79 52 -79 95c0 47 29 86 84 106c-47 28 -77 74 -77 134c0 100 90 169 189 169c69 0 138 -28 162 -95h2c3 61 28 90 64 90c25 0 47 -18 47 -49s-21 -40 -32 -47c-8 15 -14 18 -25 18c-16 0 -30 -18 -30 -53c0 -8 3 -24 3 -37c0 -96 -89 -160 -190 -160
c-31 0 -61 6 -90 19c-23 -8 -38 -24 -38 -51c0 -32 26 -48 78 -48c57 0 116 4 139 4c98 0 164 -35 164 -135c0 -128 -107 -192 -257 -192zM1072 -263c-53 0 -76 33 -76 61c0 32 22 50 47 50c13 0 22 -3 27 -9c-1 -31 14 -42 29 -42c31 0 58 34 93 137l16 46l-185 426l-24 2
v38h197v-38l-59 -4l117 -292l99 281l-60 15v38h151v-38l-42 -12l-164 -463c-53 -146 -91 -196 -166 -196zM162 -50c-9 0 -18 1 -26 2c-31 -19 -56 -42 -56 -90c0 -75 56 -96 141 -96c100 0 177 29 177 112c0 43 -27 76 -95 76c-55 0 -108 -4 -141 -4zM646 -50
c-8 0 -14 1 -21 1c-27 -16 -48 -42 -48 -89c0 -75 52 -96 133 -96c99 0 178 29 178 112c0 43 -24 76 -95 76c-55 0 -114 -4 -147 -4zM227 164c64 0 96 43 96 128s-32 128 -96 128c-63 0 -95 -43 -95 -128s32 -128 95 -128zM711 164c64 0 96 43 96 128s-32 128 -96 128
c-63 0 -94 -43 -94 -128s31 -128 94 -128z" />
    <glyph glyph-name=".notdef" horiz-adv-x="114" 
 />
    <glyph glyph-name="o" unicode="o" horiz-adv-x="497" 
d="M249 25c84 0 118 81 118 196s-34 197 -118 197s-118 -82 -118 -197s34 -196 118 -196zM249 -17c-114 0 -224 91 -224 238c0 146 110 240 224 240c115 0 224 -97 224 -240c0 -147 -109 -238 -224 -238z" />
    <glyph glyph-name="h" unicode="h" horiz-adv-x="520" 
d="M16 0v38l66 4v599l-68 -7v41l157 33l9 -5v-330c17 19 38 38 61 56c27 19 58 33 86 33c79 0 121 -38 121 -130v-292l57 -2v-38h-214v38l58 3v285c0 39 -22 60 -67 60c-35 0 -69 -16 -102 -40v-304l55 -4v-38h-219z" />
    <glyph glyph-name="a" unicode="a" horiz-adv-x="462" 
d="M150 -10c-68 0 -127 35 -127 116c0 89 75 136 174 136c32 0 57 -5 77 -12v115c0 45 -22 71 -73 71c-21 0 -39 -4 -54 -11c-11 -5 -16 -10 -16 -15c0 -11 27 -12 27 -48c0 -27 -22 -46 -50 -46c-31 0 -54 23 -54 56c0 72 91 110 166 110c92 0 153 -33 153 -121v-256
c0 -27 10 -34 29 -34s28 4 45 15l16 -22c-14 -17 -40 -53 -102 -53c-43 0 -71 21 -84 64c-29 -35 -68 -65 -127 -65zM197 48c35 0 62 18 77 30v117c-20 5 -36 9 -67 9c-44 0 -84 -22 -84 -81c0 -51 31 -75 74 -75z" />
    <glyph glyph-name="e" unicode="e" horiz-adv-x="450" 
d="M243 -17c-136 0 -218 101 -218 236c0 141 104 242 220 242c96 0 179 -57 179 -208l-4 -7h-289v-20c0 -113 50 -184 133 -184c64 0 109 25 134 96l31 -14c-31 -93 -89 -141 -186 -141zM239 418c-60 0 -94 -53 -105 -133h190c-1 93 -28 133 -85 133z" />
    <glyph glyph-name="s" unicode="s" horiz-adv-x="372" 
d="M173 -15c-94 0 -150 47 -150 96c0 31 16 50 45 50c19 0 30 -3 39 -10c-4 -63 21 -96 74 -96c39 0 79 23 79 66c0 47 -29 66 -92 91c-80 27 -127 61 -127 141c0 75 68 134 156 134c85 0 136 -40 136 -87c0 -28 -18 -39 -45 -39c-15 0 -27 3 -36 10c-3 49 -16 77 -65 77
c-39 0 -70 -19 -70 -62c0 -37 27 -57 92 -84c92 -33 139 -71 139 -144c0 -87 -66 -143 -175 -143z" />
    <glyph glyph-name="d" unicode="d" horiz-adv-x="526" 
d="M219 -17c-114 0 -192 96 -192 237c0 156 109 241 211 241c45 0 79 -12 107 -31v211l-79 -7v42l169 32l10 -5v-649l67 2v-37l-155 -26l-9 4l2 47c-35 -37 -72 -61 -131 -61zM262 43c40 0 60 14 83 35v303c-24 19 -47 29 -82 29c-75 0 -131 -60 -131 -191
c0 -108 53 -176 130 -176z" />
    <glyph glyph-name="t" unicode="t" horiz-adv-x="326" 
d="M184 -13c-77 0 -109 34 -109 102v315l-59 -3v34c60 13 94 45 121 110l37 -2v-97h124v-45h-124v-295c0 -40 10 -60 61 -60c25 0 42 5 73 16l9 -29c-35 -27 -82 -46 -133 -46z" />
    <glyph glyph-name="space" unicode=" " horiz-adv-x="160" 
 />
    <glyph glyph-name="i" unicode="i" horiz-adv-x="261" 
d="M16 0v38l69 4v343l-72 -9v41l161 38l10 -5v-408l62 -4v-38h-230zM133 548c-33 0 -60 26 -60 57c0 32 27 59 60 59s60 -27 60 -59c0 -31 -27 -57 -60 -57z" />
    <glyph glyph-name="l" unicode="l" horiz-adv-x="266" 
d="M16 0v38l71 5v598l-76 -11v43l166 35l9 -5v-661l65 -4v-38h-235z" />
    <glyph glyph-name="H" unicode="H" horiz-adv-x="643" 
d="M374 0v39l71 6v259h-244v-259l69 -6v-39h-244v39l64 6v537l-64 4v40h244v-40l-69 -5v-236h244v234l-71 7v40h243v-40l-61 -5v-538l61 -4v-39h-243z" />
    <glyph glyph-name="I" unicode="I" horiz-adv-x="309" 
d="M26 0v39l73 8v532l-73 7v40h257v-40l-73 -6v-532l73 -9v-39h-257z" />
    <glyph glyph-name="O" unicode="O" horiz-adv-x="644" 
d="M321 27c113 0 174 94 174 281c0 185 -61 283 -174 283c-111 0 -172 -98 -172 -283c0 -187 61 -281 172 -281zM321 -18c-149 0 -291 126 -291 326c0 197 142 328 291 328c151 0 293 -131 293 -328c0 -200 -142 -326 -293 -326z" />
    <glyph glyph-name="N" unicode="N" horiz-adv-x="614" 
d="M26 0v39l63 10v531l-63 6v40h192l269 -420v365l-75 15v40h179v-40l-54 -13v-573h-49l-349 548v-494l94 -15v-39h-207z" />
    <glyph glyph-name="w" unicode="w" horiz-adv-x="684" 
d="M462 -10l-113 302h-2l-121 -302h-41l-139 415l-37 3v38h198v-38l-54 -4l83 -269h2l89 217l-19 52l-42 4v38h196v-38l-54 -4l96 -268h2l81 259l-61 13v38h149v-38l-39 -8l-133 -410h-41z" />
    <glyph glyph-name="v" unicode="v" horiz-adv-x="463" 
d="M218 -10l-172 415l-38 3v38h213v-38l-64 -4l106 -279h3l98 266l-63 17v38h154v-38l-41 -14l-155 -404h-41z" />
    <glyph glyph-name="p" unicode="p" horiz-adv-x="529" 
d="M19 -261v38l66 5v603l-69 -13v41l157 42l9 -5v-57c36 37 84 68 145 68c104 0 175 -91 175 -232c0 -161 -102 -242 -201 -242c-51 0 -85 11 -117 30v-235l73 -5v-38h-238zM280 399c-39 0 -71 -15 -96 -38v-297c23 -15 53 -28 88 -28c76 0 126 57 126 189
c0 108 -42 174 -118 174z" />
    <glyph glyph-name="g" unicode="g" horiz-adv-x="508" 
d="M227 128c-33 0 -63 6 -91 18c-21 -8 -37 -23 -37 -50c0 -32 26 -48 78 -48c57 0 116 4 139 4c98 0 164 -35 164 -135c0 -128 -107 -192 -263 -192c-141 0 -222 43 -222 122c0 62 55 92 112 111c-51 15 -76 51 -76 94c0 47 30 85 83 106c-47 28 -78 74 -78 134
c0 100 92 169 191 169c68 0 139 -29 163 -97h2c3 68 35 92 72 92c28 0 51 -18 51 -49s-20 -40 -32 -47c-8 12 -18 18 -29 18c-20 0 -40 -17 -39 -53c0 -8 1 -24 1 -37c0 -96 -89 -160 -189 -160zM162 -50c-9 0 -18 1 -26 2c-31 -19 -56 -42 -56 -90c0 -75 56 -96 141 -96
c104 0 183 29 183 112c0 43 -26 76 -94 76c-56 0 -115 -4 -148 -4zM227 164c64 0 96 43 96 128s-32 128 -96 128c-63 0 -95 -43 -95 -128s32 -128 95 -128z" />
    <glyph glyph-name="E" unicode="E" horiz-adv-x="565" 
d="M457 451l-14 84c-8 40 -19 46 -66 46h-176v-244h82c27 0 41 11 43 32l6 76h37v-253h-36l-7 70c-3 29 -16 33 -43 33h-82v-251h183c73 0 81 4 89 55l14 95h39v-194h-500v39l64 6v536l-64 5v40h468v-175h-37z" />
    <glyph glyph-name="r" unicode="r" horiz-adv-x="391" 
d="M16 0v38l69 5v341l-72 -14v42l161 43l10 -5v-81c38 43 91 93 135 93c39 0 63 -25 63 -65c0 -39 -23 -66 -63 -66c-16 0 -28 5 -35 10c1 31 -6 42 -23 42c-13 0 -51 -21 -77 -45v-296l77 -4v-38h-245z" />
    <glyph glyph-name="R" unicode="R" horiz-adv-x="592" 
d="M26 0v39l64 5v538l-64 4v40h243c131 0 230 -53 230 -156c0 -87 -72 -140 -152 -156v-5c83 -11 117 -59 134 -139c19 -89 29 -126 70 -126c14 0 26 4 36 11l16 -31c-27 -19 -56 -33 -103 -33c-98 0 -124 73 -137 180c-13 99 -36 124 -102 124h-60v-250l70 -6v-39h-245z
M264 583h-63v-248h74c84 0 108 33 108 122c0 106 -59 126 -119 126z" />
    <glyph glyph-name="ampersand" unicode="&#x26;" horiz-adv-x="690" 
d="M220 -16c-120 0 -193 74 -193 170c0 92 63 155 159 194c-48 44 -74 79 -74 143c0 73 57 145 165 145c79 0 139 -43 139 -129c0 -60 -47 -103 -111 -132c60 -53 106 -105 154 -169c29 52 55 107 78 154l-59 8v40h170v-40l-60 -8c-39 -63 -69 -124 -106 -184
c51 -64 94 -124 131 -124c43 0 68 15 72 16l10 -30c-24 -25 -61 -53 -128 -53c-69 0 -116 57 -149 103c-49 -57 -110 -104 -198 -104zM397 117c-67 83 -121 151 -189 212c-57 -32 -86 -77 -86 -136c0 -72 52 -141 144 -144c52 -1 93 23 132 67c-1 0 -1 0 -1 1zM272 405
l12 -11c47 32 66 69 66 118c0 47 -27 80 -72 80c-43 0 -74 -30 -74 -73c0 -48 17 -71 68 -114z" />
    <glyph glyph-name="b" unicode="b" horiz-adv-x="528" 
d="M171 -7l-153 10v39l66 -3v602l-68 -7v41l157 33l9 -5v-297c39 33 83 55 139 55c113 0 179 -87 179 -247c0 -144 -91 -227 -190 -227c-61 0 -95 19 -128 52v-8h-2v-38h-9zM282 402c-35 0 -65 -11 -100 -32v-291c27 -25 59 -38 96 -38c72 0 119 52 119 179
c0 117 -38 182 -115 182z" />
    <glyph glyph-name="m" unicode="m" horiz-adv-x="771" 
d="M16 0v38l69 5v345l-68 -7v42l157 32l10 -5v-71c15 19 34 37 57 52c27 19 53 31 84 31c57 0 95 -25 110 -81c18 21 38 38 59 51c27 19 58 30 89 30c71 0 116 -38 116 -130v-292l57 -2v-38h-204v38l49 2v286c0 39 -22 60 -63 60c-35 0 -65 -9 -97 -32v-313l54 -3v-38h-201
v38l49 2v286c0 39 -22 60 -63 60c-33 0 -65 -11 -96 -34v-310l53 -4v-38h-221z" />
    <glyph glyph-name="f" unicode="f" horiz-adv-x="318" 
d="M19 401v33c24 4 44 7 63 19v29c0 148 96 233 211 233c76 0 123 -37 123 -93c0 -43 -27 -63 -58 -63c-27 0 -54 15 -54 46c0 32 30 39 30 53c0 11 -15 16 -36 16c-73 0 -119 -46 -119 -154v-74h120v-45h-120l1 -360l74 -3v-38h-238v38l66 3v360h-63z" />
    <glyph glyph-name="u" unicode="u" horiz-adv-x="516" 
d="M197 -15c-77 0 -125 40 -125 124v294l-57 3v39h155v-328c0 -43 16 -66 65 -66c32 0 69 17 102 40v311l-54 4v39h154v-395l67 4v-37l-154 -25l-9 5l2 72c-17 -20 -36 -38 -56 -51c-28 -20 -57 -33 -90 -33z" />
    <glyph glyph-name="A" unicode="A" horiz-adv-x="609" 
d="M10 0v39l61 17l200 579h66l209 -593l53 -3v-39h-244v39l73 5l-58 163h-198l-50 -148l89 -20v-39h-201zM269 492l-83 -245h170l-86 245h-1z" />
    <glyph glyph-name="D" unicode="D" horiz-adv-x="619" 
d="M26 0v39l64 5v537l-64 5v40h259c154 0 304 -80 304 -312c0 -224 -149 -314 -299 -314h-264zM278 581h-77v-537h78c110 0 190 63 190 270c0 212 -77 267 -191 267z" />
    <glyph glyph-name="V" unicode="V" horiz-adv-x="595" 
d="M263 -9l-200 591l-48 4v40h236v-40l-73 -5l150 -458h1l142 444l-78 19v40h187v-40l-56 -15l-192 -580h-69z" />
    <glyph glyph-name="W" unicode="W" horiz-adv-x="828" 
d="M524 -9l-106 315l-104 -315h-73l-177 591l-49 4v40h220v-40l-56 -4l129 -455h1l83 251l-72 204l-46 4v40h315v-40l-46 -6l-55 -163l99 -295h1l121 444l-72 20v40h175v-40l-50 -16l-165 -579h-73zM426 581l35 -109l35 109h-70z" />
    <glyph glyph-name="Q" unicode="Q" horiz-adv-x="644" 
d="M469 -188c-108 0 -171 53 -210 178c-125 29 -229 146 -229 318c0 197 142 328 291 328c151 0 293 -131 293 -328c0 -173 -106 -291 -231 -318c26 -98 69 -126 122 -126c32 0 50 5 74 14l12 -39c-28 -13 -75 -27 -122 -27zM321 26c104 0 174 95 174 282
c0 185 -70 283 -174 283c-101 0 -172 -98 -172 -283c0 -187 71 -282 172 -282z" />
    <glyph glyph-name="F" unicode="F" horiz-adv-x="513" 
d="M455 433l-12 78c-8 60 -20 70 -94 70h-148v-238h77c31 0 36 1 41 43l6 64h38v-253h-37l-7 65c-4 33 -9 39 -42 39h-76v-256l81 -6v-39h-256v39l64 6v535l-64 6v40h465v-193h-36z" />
    <glyph glyph-name="L" unicode="L" horiz-adv-x="534" 
d="M26 0v39l64 5v538l-64 4v40h254v-40l-79 -5v-537h165c64 0 78 10 89 103l9 66h39v-213h-477z" />
    <glyph glyph-name="T" unicode="T" horiz-adv-x="561" 
d="M152 0v39l73 7v537h-72c-57 0 -64 -15 -75 -84l-12 -81h-38v208h506v-208h-40l-11 78c-11 80 -30 87 -92 87h-55v-537l74 -7v-39h-258z" />
    <glyph glyph-name="G" unicode="G" horiz-adv-x="637" 
d="M329 -18c-180 0 -299 131 -299 324c0 199 148 330 301 330c75 0 132 -25 173 -74l12 54h35v-179h-38c-27 104 -77 154 -172 154c-103 0 -192 -93 -192 -281c0 -192 58 -283 191 -283c55 0 94 23 114 54c13 23 15 49 15 84v40l-76 7v40h240v-40l-60 -5v-106
c-42 -53 -117 -119 -244 -119z" />
    <glyph glyph-name="M" unicode="M" horiz-adv-x="719" 
d="M347 0h-38l-169 534v-480l73 -15v-39h-187v39l64 14v526l-64 7v40h193l139 -440l144 440h191v-40l-61 -4v-539l61 -4v-39h-244v39l75 6v493z" />
    <glyph glyph-name="S" unicode="S" horiz-adv-x="491" 
d="M254 -13c-67 0 -128 24 -167 75l-16 -48h-37v192h39c24 -139 103 -173 178 -173c67 0 130 34 130 110c0 67 -56 93 -154 125c-110 35 -183 77 -183 188c0 117 92 180 193 180c56 0 111 -26 139 -63l15 40h33v-159h-36c-21 84 -75 138 -158 138c-68 0 -111 -38 -111 -95
c0 -67 49 -88 151 -120c105 -35 192 -72 192 -195c0 -132 -104 -195 -208 -195z" />
    <glyph glyph-name="U" unicode="U" horiz-adv-x="608" 
d="M315 -13c-157 0 -234 86 -234 209v386l-56 4v40h245v-40l-80 -5v-372c0 -107 37 -168 144 -168c104 0 141 59 141 168v364l-73 13v40h181v-40l-57 -13v-372c0 -120 -55 -214 -211 -214z" />
    <glyph glyph-name="c" unicode="c" horiz-adv-x="432" 
d="M235 -17c-128 0 -210 90 -210 224c0 157 112 254 233 254c83 0 143 -37 143 -101c0 -31 -22 -48 -53 -48c-29 0 -41 13 -45 36c-5 35 2 70 -48 70c-81 0 -124 -77 -124 -193c0 -127 47 -183 123 -183c70 0 109 50 127 102l31 -9c-18 -84 -77 -152 -177 -152z" />
    <glyph glyph-name="P" unicode="P" horiz-adv-x="521" 
d="M26 0v39l64 5v538l-64 4v40h245c151 0 234 -69 234 -178c0 -121 -96 -184 -229 -184c-27 0 -56 3 -75 6v-225l76 -6v-39h-251zM262 584h-61v-275c15 -1 36 -2 57 -2c96 0 131 33 131 136c0 100 -39 141 -127 141z" />
    <glyph glyph-name="B" unicode="B" horiz-adv-x="543" 
d="M26 0v39l64 6v536l-64 5v40h253c133 0 209 -57 209 -148c0 -72 -39 -127 -131 -150v-2c101 -20 155 -76 155 -155c0 -104 -77 -171 -217 -171h-269zM275 303h-74v-260h74c97 0 129 37 129 129c0 97 -48 131 -129 131zM266 584h-65v-241h68c80 0 112 37 112 128
c0 89 -40 113 -115 113z" />
    <glyph glyph-name="period" unicode="." horiz-adv-x="204" 
d="M103 -15c-39 0 -65 28 -65 65s26 64 65 64c36 0 63 -27 63 -64s-27 -65 -63 -65z" />
    <glyph glyph-name="comma" unicode="," horiz-adv-x="249" 
d="M71 -170l-17 30c65 35 91 76 91 121c0 19 -5 29 -16 29c-8 0 -16 -18 -39 -18c-35 0 -51 23 -51 58s32 66 73 66c59 0 95 -41 95 -113c0 -86 -62 -144 -136 -173z" />
    <glyph glyph-name="hyphen" unicode="-" horiz-adv-x="307" 
d="M56 204v80h194v-80h-194z" />
    <glyph glyph-name="hyphen.uc" horiz-adv-x="325" 
d="M59 268v79h208v-79h-208z" />
    <glyph glyph-name="x" unicode="x" horiz-adv-x="461" 
d="M244 0v38l55 2l-94 143l-90 -133l61 -12v-38h-165v38l49 9l121 172l-128 186l-38 3v38h206v-38l-50 -3l85 -132l83 123l-55 12v38h147v-38l-39 -9l-112 -161l137 -199l34 -1v-38h-207z" />
    <glyph glyph-name="y" unicode="y" horiz-adv-x="474" 
d="M103 -263c-52 0 -76 33 -76 61c0 32 22 50 47 50c15 0 22 -4 29 -9c-3 -31 12 -42 27 -42c24 0 48 27 81 122l20 58l-184 428l-40 3v38h212v-38l-59 -4l117 -292h1l98 281l-60 15v38h151v-38l-42 -12l-171 -481c-45 -125 -79 -178 -151 -178z" />
    <glyph glyph-name="z" unicode="z" horiz-adv-x="426" 
d="M46 316v130h340v-31l-239 -375h92c77 0 101 9 106 74l3 29h35v-143h-351v31l243 376h-72c-90 0 -111 -7 -119 -62l-3 -29h-35z" />
    <glyph glyph-name="q" unicode="q" horiz-adv-x="523" 
d="M272 -261v38l73 5v259c-36 -33 -74 -54 -125 -54c-115 0 -193 88 -193 232c0 161 90 242 195 242c60 0 94 -19 127 -54v42l8 6l142 -14v-39l-54 3v-623l65 -5v-38h-238zM255 44c35 0 59 11 90 32v296c-27 23 -57 34 -92 34c-64 0 -121 -50 -121 -183
c0 -109 43 -179 123 -179z" />
    <glyph glyph-name="j" unicode="j" horiz-adv-x="187" 
d="M-64 -274c-39 0 -64 23 -64 54s16 48 40 48c23 0 50 -16 67 -41c28 12 44 51 44 107v491l-73 -9v41l162 38l9 -5v-489c0 -119 -77 -235 -185 -235zM72 548c-33 0 -60 25 -60 57s27 58 60 58s60 -26 60 -58s-27 -57 -60 -57z" />
    <glyph glyph-name="k" unicode="k" horiz-adv-x="503" 
d="M16 0v38l66 5v595l-66 -10v41l155 39l9 -5v-661l55 -4v-38h-219zM296 0v38l45 2l-152 188v11l155 156l-57 13v38h179v-38l-65 -11l-128 -130l184 -227l39 -2v-38h-200z" />
    <glyph glyph-name="J" unicode="J" horiz-adv-x="402" 
d="M137 -59c-80 0 -118 38 -118 90c0 43 28 66 61 66c29 0 52 -16 52 -47c0 -35 -29 -39 -29 -51c0 -11 9 -16 28 -16c51 0 73 43 73 115l-1 480l-72 8v40h249v-40l-66 -7v-416c0 -149 -76 -222 -177 -222z" />
    <glyph glyph-name="K" unicode="K" horiz-adv-x="611" 
d="M26 0v39l64 6v536l-64 5v40h246v-40l-71 -5v-536l69 -6v-39h-244zM360 0v39l60 5l-197 276v15l208 234l-63 17v40h199v-40l-80 -17l-170 -195l229 -331l46 -4v-39h-232z" />
    <glyph glyph-name="Y" unicode="Y" horiz-adv-x="556" 
d="M155 0v39l74 7v252l-170 285l-43 3v40h233v-40l-64 -4l134 -239l119 224l-66 19v40h168v-40l-50 -19l-150 -277v-245l74 -6v-39h-259z" />
    <glyph glyph-name="Z" unicode="Z" horiz-adv-x="545" 
d="M64 425v201h436v-29l-334 -553h157c102 0 119 10 127 69l17 106h38v-219h-470v27l334 554h-148c-84 0 -95 -10 -106 -70l-14 -86h-37z" />
    <glyph glyph-name="X" unicode="X" horiz-adv-x="601" 
d="M341 0v39l62 5l-133 227l-126 -216l76 -16v-39h-199v39l70 18l154 257l-157 267l-50 5v40h236v-40l-61 -4l114 -196l109 182l-69 18v40h187v-40l-65 -18l-137 -225l175 -300l53 -4v-39h-239z" />
    <glyph glyph-name="AE" unicode="&#xc6;" horiz-adv-x="837" 
d="M14 0v39l64 18l257 522l-83 7v40h510v-175h-37l-14 84c-8 40 -19 46 -65 46h-154v-249h59c27 0 41 11 43 32l7 75h36v-253h-36l-7 71c-3 28 -16 33 -43 33h-59v-246h160c73 0 81 4 89 55l15 95h37v-194h-475v39l64 7v241h-139l-112 -230l87 -18v-39h-204zM380 565
l-116 -236h118v236h-2z" />
    <glyph glyph-name="colon" unicode=":" horiz-adv-x="213" 
d="M106 -15c-36 0 -64 28 -64 65s28 64 64 64c39 0 65 -27 65 -64s-26 -65 -65 -65zM106 292c-36 0 -64 27 -64 64s28 65 64 65c39 0 65 -28 65 -65s-26 -64 -65 -64z" />
    <glyph glyph-name="semicolon" unicode=";" horiz-adv-x="257" 
d="M124 292c-37 0 -65 27 -65 64s28 65 65 65s64 -28 64 -65s-27 -64 -64 -64zM74 -170l-16 30c65 35 91 76 91 121c0 19 -5 29 -16 29c-8 0 -16 -18 -40 -18c-35 0 -51 23 -51 58s33 66 74 66c59 0 95 -41 95 -113c0 -86 -62 -144 -137 -173z" />
    <glyph glyph-name="quoteright" unicode="&#x2019;" horiz-adv-x="244" 
d="M60 397l-11 30c56 21 90 59 90 100c0 16 -5 21 -12 21c-8 0 -15 -16 -38 -16c-27 0 -47 22 -47 53c0 33 32 58 69 58c56 0 86 -34 86 -94c0 -85 -64 -133 -137 -152z" />
    <glyph glyph-name="quoteleft" unicode="&#x2018;" horiz-adv-x="244" 
d="M184 644l11 -31c-56 -20 -90 -58 -90 -99c0 -15 5 -22 14 -22c7 0 13 15 36 15c27 0 47 -20 47 -51c0 -33 -30 -58 -69 -58c-56 0 -85 35 -85 92c0 87 64 133 136 154z" />
    <glyph glyph-name="quotedblright" unicode="&#x201d;" horiz-adv-x="438" 
d="M60 397l-11 30c56 21 90 59 90 100c0 16 -5 21 -12 21c-8 0 -15 -16 -38 -16c-27 0 -47 22 -47 53c0 33 32 58 69 58c56 0 86 -34 86 -94c0 -85 -64 -133 -137 -152zM254 397l-12 30c56 21 90 59 90 100c0 16 -6 21 -13 21c-8 0 -13 -16 -37 -16c-28 0 -47 22 -47 53
c0 33 32 58 69 58c56 0 86 -34 86 -94c0 -84 -64 -133 -136 -152z" />
    <glyph glyph-name="quotedblleft" unicode="&#x201c;" horiz-adv-x="438" 
d="M377 644l12 -31c-56 -20 -90 -58 -90 -99c0 -15 4 -22 12 -22s14 15 38 15c27 0 47 -20 47 -51c0 -33 -32 -58 -69 -58c-56 0 -86 35 -86 92c0 87 63 132 136 154zM184 644l11 -31c-56 -20 -90 -58 -90 -99c0 -15 5 -22 14 -22c7 0 13 15 36 15c27 0 47 -20 47 -51
c0 -33 -30 -58 -69 -58c-56 0 -85 35 -85 92c0 87 64 133 136 154z" />
    <glyph glyph-name="zero.old" horiz-adv-x="503" 
d="M274 32c95 0 148 72 148 193c0 120 -55 193 -148 193c-96 0 -143 -72 -143 -193c0 -125 47 -193 143 -193zM258 -17c-131 0 -233 104 -233 242s102 241 233 241c141 0 220 -105 220 -241c0 -140 -79 -242 -220 -242z" />
    <glyph glyph-name="one.old" horiz-adv-x="312" 
d="M25 0v38l81 5v367l-81 4v37h262v-37l-82 -5v-366l82 -5v-38h-262z" />
    <glyph glyph-name="two.old" horiz-adv-x="457" 
d="M36 0l-3 63c112 59 254 129 254 257c0 72 -36 104 -88 104c-59 0 -82 -31 -82 -57c0 -29 31 -28 31 -67c0 -23 -23 -46 -52 -46c-37 0 -62 21 -62 69c0 76 73 144 181 144c127 0 182 -60 182 -148c0 -99 -149 -196 -258 -239h167c47 0 58 9 69 33l19 49h36l-30 -162h-364
z" />
    <glyph glyph-name="three.old" horiz-adv-x="440" 
d="M184 -168c-97 0 -177 47 -177 124c0 43 28 63 59 63c32 0 54 -20 54 -47c0 -40 -35 -44 -35 -56c0 -24 42 -41 79 -41c88 0 136 35 136 146c0 85 -53 124 -137 124h-52v43h51c68 0 113 56 113 132c0 69 -33 104 -90 104c-39 0 -70 -17 -70 -32c0 -11 29 -17 29 -50
c0 -25 -23 -46 -52 -46c-32 0 -57 23 -57 59c0 70 89 112 166 112c117 0 180 -66 180 -142c0 -66 -63 -133 -137 -151v-3c113 -13 168 -73 168 -156c0 -112 -100 -183 -228 -183z" />
    <glyph glyph-name="four.old" horiz-adv-x="546" 
d="M295 -177v205h-271v23l262 457l55 3l-248 -437h202v275l101 7v-282h130v-46h-130v-205h-101z" />
    <glyph glyph-name="five.old" horiz-adv-x="441" 
d="M177 -168c-89 0 -170 45 -170 124c0 39 27 61 59 61c27 0 51 -17 51 -48c0 -37 -33 -43 -33 -56c0 -21 41 -38 78 -38c77 0 134 49 134 164c0 93 -47 119 -114 119c-35 0 -71 -11 -92 -30l-24 10v313h259l15 64h36l-17 -151h-242v-182c29 17 63 28 102 28
c117 0 188 -57 188 -166c0 -143 -121 -212 -230 -212z" />
    <glyph glyph-name="seven.old" horiz-adv-x="446" 
d="M213 -196c-49 0 -81 31 -81 79c0 43 23 90 36 113l190 367h-190c-63 0 -70 -7 -84 -51l-17 -55h-36l26 194h383v-27l-230 -448c-13 -27 -21 -48 -21 -71c0 -19 9 -28 26 -28c21 0 31 11 39 19c21 -4 32 -16 32 -37c0 -35 -32 -55 -73 -55z" />
    <glyph glyph-name="eight.old" horiz-adv-x="489" 
d="M244 -17c-127 0 -214 76 -214 185c0 84 60 141 133 160c-68 27 -108 81 -108 150c0 91 73 168 189 168s187 -79 187 -168c0 -71 -49 -132 -104 -150c75 -19 132 -76 132 -160c0 -109 -87 -185 -215 -185zM244 24c79 0 109 63 109 144c0 85 -30 140 -109 140
c-80 0 -109 -55 -109 -140c0 -81 30 -144 109 -144zM244 345c59 0 90 48 90 133c0 79 -31 128 -90 128s-90 -49 -90 -128c0 -85 33 -133 90 -133z" />
    <glyph glyph-name="zero.oldalt" horiz-adv-x="506" 
d="M252 30c95 0 165 69 165 195c0 124 -70 195 -165 195c-89 0 -163 -71 -163 -195c0 -126 73 -195 163 -195zM252 -17c-128 0 -227 94 -227 242c0 140 99 241 227 241c140 0 229 -101 229 -241c0 -145 -89 -242 -229 -242z" />
    <glyph glyph-name="six.old" horiz-adv-x="516" 
d="M263 -17c-147 0 -228 115 -228 271c0 276 175 440 407 440v-43c-175 -15 -267 -104 -292 -287c40 25 93 44 149 44c100 0 190 -49 190 -196c0 -112 -78 -229 -226 -229zM259 357c-48 0 -82 -14 -113 -35c-3 -19 -2 -40 -2 -61c0 -161 37 -236 118 -236
c91 0 120 83 120 180c0 101 -44 152 -123 152z" />
    <glyph glyph-name="nine.old" horiz-adv-x="514" 
d="M72 -236v43c180 15 270 98 293 273c-40 -25 -92 -44 -148 -44c-101 0 -191 54 -191 198c0 109 78 232 226 232c147 0 228 -113 228 -284c0 -269 -171 -418 -408 -418zM257 87c47 0 82 14 113 35c1 20 2 39 2 62c0 160 -40 240 -119 240c-91 0 -120 -83 -120 -183
c0 -103 44 -154 124 -154z" />
    <glyph glyph-name="zero.oldalt1" horiz-adv-x="524" 
d="M262 25c93 0 131 82 131 198c0 117 -38 201 -131 201c-92 0 -131 -84 -131 -201c0 -116 39 -198 131 -198zM262 -17c-124 0 -237 95 -237 240c0 147 113 243 237 243s237 -98 237 -243s-113 -240 -237 -240z" />
    <glyph glyph-name="zero" unicode="0" horiz-adv-x="561" 
d="M280 27c87 0 133 88 133 281s-45 283 -133 283c-87 0 -133 -90 -133 -283s46 -281 133 -281zM280 -18c-128 0 -252 126 -252 326c0 197 124 328 252 328c129 0 252 -131 252 -328c0 -200 -123 -326 -252 -326z" />
    <glyph glyph-name="one" unicode="1" horiz-adv-x="344" 
d="M21 477v44l177 115h38v-589l88 -8v-39h-293v39l94 10v479z" />
    <glyph glyph-name="two" unicode="2" horiz-adv-x="462" 
d="M22 0l-5 63c161 147 293 240 293 393c0 92 -40 135 -104 135c-56 0 -87 -28 -87 -55c0 -31 37 -33 37 -71c0 -27 -27 -49 -59 -49c-40 0 -66 25 -66 73c0 82 84 147 190 147c145 0 208 -90 208 -183c0 -135 -174 -257 -329 -364h218c49 0 59 8 66 31l13 52h35l-20 -172
h-390z" />
    <glyph glyph-name="three" unicode="3" horiz-adv-x="473" 
d="M209 -15c-121 0 -192 58 -192 138c0 45 31 66 62 66c32 0 54 -21 54 -49c0 -39 -37 -44 -37 -57c0 -23 35 -52 92 -52c92 0 137 38 137 149c0 83 -50 123 -138 123h-50v45h49c72 0 120 43 120 139c0 69 -39 104 -99 104c-43 0 -74 -15 -74 -30c0 -13 30 -18 30 -53
c0 -27 -23 -47 -52 -47c-33 0 -59 25 -59 60c0 75 92 115 171 115c122 0 193 -62 193 -145c0 -76 -69 -140 -145 -156v-3c120 -15 174 -76 174 -160c0 -112 -104 -187 -236 -187z" />
    <glyph glyph-name="four" unicode="4" horiz-adv-x="506" 
d="M209 0v39l78 8v139h-263v23l154 271c15 25 23 45 23 62c0 12 -6 26 -21 26s-23 -12 -28 -24c-23 4 -32 22 -32 45c0 31 32 54 68 54c47 0 69 -32 69 -67c0 -37 -23 -77 -47 -120l-123 -227h200v211l104 15v-226h95v-43h-95v-140l73 -7v-39h-255z" />
    <glyph glyph-name="five" unicode="5" horiz-adv-x="461" 
d="M194 -15c-99 0 -175 45 -175 128c0 43 29 64 62 64c27 0 54 -17 54 -48c0 -39 -38 -46 -38 -58c0 -23 41 -40 81 -40c81 0 139 53 139 173c0 110 -54 135 -121 135c-36 0 -75 -16 -98 -35l-24 12v310h275l15 45h33l-15 -136h-258v-172c31 19 68 29 109 29
c119 0 199 -59 199 -185c0 -144 -118 -222 -238 -222z" />
    <glyph glyph-name="six" unicode="6" horiz-adv-x="507" 
d="M263 -17c-143 0 -235 113 -235 261c0 247 165 388 409 388v-45c-187 -16 -275 -94 -291 -267c37 27 85 48 145 48c100 0 192 -50 192 -181c0 -106 -79 -204 -220 -204zM258 317c-47 0 -84 -14 -115 -37v-27c0 -156 38 -226 119 -226s111 65 111 153
c0 89 -39 137 -115 137z" />
    <glyph glyph-name="seven" unicode="7" horiz-adv-x="447" 
d="M213 -11c-53 0 -83 33 -83 82c0 45 22 87 38 116l188 345h-171c-84 0 -94 -3 -107 -48l-15 -53h-37l29 195h387v-32l-229 -425c-15 -25 -21 -43 -21 -68c0 -15 9 -28 29 -28c17 0 28 8 36 17c20 -5 30 -19 30 -42c0 -37 -35 -59 -74 -59z" />
    <glyph glyph-name="eight" unicode="8" horiz-adv-x="503" 
d="M251 -17c-131 0 -224 76 -224 183c0 84 63 143 136 159c-68 25 -111 79 -111 147c0 88 79 166 199 166c121 0 196 -78 196 -166c0 -70 -51 -131 -106 -147c75 -16 134 -75 134 -159c0 -107 -93 -183 -224 -183zM251 26c80 0 112 59 112 139c0 87 -32 139 -112 139
c-81 0 -111 -52 -111 -139c0 -80 31 -139 111 -139zM251 343c60 0 92 46 92 130c0 76 -32 122 -92 122s-95 -46 -95 -122c0 -84 36 -130 95 -130z" />
    <glyph glyph-name="nine" unicode="9" horiz-adv-x="508" 
d="M66 -9v45c179 19 281 86 297 268c-37 -28 -85 -50 -145 -50c-100 0 -193 49 -193 178c0 106 81 204 221 204c144 0 234 -114 234 -267c0 -253 -171 -378 -414 -378zM251 306c47 0 83 14 115 37v20c0 157 -39 229 -120 229c-80 0 -110 -66 -110 -154s38 -132 115 -132z
" />
    <glyph glyph-name="one.oldalt" horiz-adv-x="312" 
d="M17 337v46l154 79h35v-419l81 -5v-38h-262v38l82 5v332z" />
    <glyph glyph-name="four.alt" horiz-adv-x="513" 
d="M205 0v39l79 8v133h-262v24l248 422h64l-247 -401h197v218l106 12v-230h94v-45h-94v-134l73 -7v-39h-258z" />
    <glyph glyph-name="seven.alt" horiz-adv-x="443" 
d="M125 0l226 532h-178c-74 0 -83 -5 -99 -48l-17 -51h-36l30 193h378v-32l-248 -594h-56z" />
    <glyph glyph-name="W.alt" unicode="&#xe496;" horiz-adv-x="825" 
d="M537 -9l-116 373l-113 -373h-72l-173 591l-48 4v40h219v-40l-55 -4l124 -451h1l93 311l-43 140l-46 4v40h200v-40l-44 -4l135 -451h1l108 435l-73 20v40h176v-40l-51 -16l-150 -579h-73z" />
    <glyph glyph-name="four.alt1" horiz-adv-x="513" 
d="M204 0v39l79 8v135h-261v24l256 420h112v-399h94v-45h-94v-136l73 -7v-39h-259zM83 227h200v327z" />
    <glyph glyph-name="C" unicode="C" horiz-adv-x="596" 
d="M321 -18c-176 0 -291 125 -291 325c0 198 142 329 298 329c79 0 134 -33 174 -81l14 63h33v-193h-36c-29 111 -86 166 -182 166c-103 0 -182 -94 -182 -281c0 -183 64 -274 193 -274c93 0 149 50 185 126l34 -14c-40 -103 -127 -166 -240 -166z" />
    <glyph glyph-name="slash" unicode="/" horiz-adv-x="353" 
d="M-14 -172l300 886h51l-299 -886h-52z" />
    <glyph glyph-name="backslash" unicode="\" horiz-adv-x="353" 
d="M316 -172l-300 886h51l300 -886h-51z" />
    <glyph glyph-name="bar" unicode="|" horiz-adv-x="210" 
d="M80 -172v886h50v-886h-50z" />
    <glyph glyph-name="bracketleft" unicode="[" horiz-adv-x="323" 
d="M85 -172v886h215v-40l-130 -6v-793l130 -7v-40h-215z" />
    <glyph glyph-name="bracketright" unicode="]" horiz-adv-x="331" 
d="M246 714v-886h-214v40l130 7v793l-130 6v40h214z" />
    <glyph glyph-name="parenleft" unicode="(" horiz-adv-x="333" 
d="M280 -180c-106 114 -215 245 -215 451c0 208 109 338 215 452l30 -25c-91 -115 -160 -242 -160 -427c0 -184 69 -311 160 -426z" />
    <glyph glyph-name="parenright" unicode=")" horiz-adv-x="333" 
d="M52 -180l-28 25c91 115 158 242 158 426c0 185 -67 312 -158 427l28 24c107 -112 217 -245 217 -451s-111 -337 -217 -451z" />
    <glyph glyph-name="asterisk" unicode="*" horiz-adv-x="334" 
d="M85 357l-22 20l54 92l-87 54l12 26l93 -26l17 103h30l15 -103l95 26l12 -26l-89 -54l57 -93l-23 -19l-83 77z" />
    <glyph glyph-name="braceleft" unicode="{" horiz-adv-x="336" 
d="M254 -171c-109 0 -165 48 -148 163l19 161c11 72 -17 89 -109 97v43c92 8 120 25 109 96l-19 162c-17 115 39 163 148 163h60v-40l-42 -3c-68 -3 -85 -14 -82 -110l6 -146c5 -97 -24 -122 -98 -141v-5c75 -19 103 -42 98 -141l-6 -146c-3 -97 14 -107 82 -112l42 -1v-40
h-60z" />
    <glyph glyph-name="braceright" unicode="}" horiz-adv-x="336" 
d="M83 -171h-60v40l41 2c70 3 85 16 82 111l-6 146c-5 98 25 123 98 141v5c-74 18 -103 44 -98 141l6 146c3 96 -14 106 -82 111l-41 2v40h60c109 0 164 -48 147 -164l-19 -162c-11 -71 19 -87 110 -95v-43c-91 -8 -121 -26 -110 -98l19 -160c17 -115 -38 -163 -147 -163z
" />
    <glyph glyph-name="numbersign" unicode="#" horiz-adv-x="434" 
d="M55 370l15 78h81l36 178h48l-36 -178h90l36 178h48l-36 -178h79l-15 -78h-80l-21 -100h80l-15 -77h-80l-39 -193h-48l39 193h-90l-39 -193h-48l39 193h-81l15 77h81l21 100h-80zM183 370l-21 -100h90l21 100h-90z" />
    <glyph glyph-name="exclam" unicode="!" horiz-adv-x="223" 
d="M96 195l-48 364c-7 49 24 79 64 79s69 -28 62 -79l-46 -364h-32zM112 -15c-39 0 -65 28 -65 65s26 64 65 64c36 0 64 -27 64 -64s-28 -65 -64 -65z" />
    <glyph glyph-name="question" unicode="?" horiz-adv-x="384" 
d="M157 -15c-37 0 -65 28 -65 65s28 64 65 64s64 -27 64 -64s-27 -65 -64 -65zM171 195h-42c-40 148 131 195 131 313c0 56 -33 85 -89 85c-47 0 -71 -21 -71 -54c0 -17 11 -29 30 -33c3 -7 9 -18 9 -31c0 -24 -18 -44 -49 -44c-39 0 -68 28 -68 76c0 77 70 131 163 131
c99 0 174 -54 174 -150c0 -164 -208 -174 -188 -293z" />
    <glyph glyph-name="quotesingle" unicode="'" horiz-adv-x="178" 
d="M76 402l-37 162c-15 56 12 81 51 81s64 -24 49 -81l-38 -162h-25z" />
    <glyph glyph-name="quotedbl" unicode="&#x22;" horiz-adv-x="329" 
d="M76 402l-37 162c-15 56 12 81 51 81s64 -24 49 -81l-38 -162h-25zM228 402l-38 162c-13 56 15 81 52 81s64 -24 49 -81l-37 -162h-26z" />
    <glyph glyph-name="dollar" unicode="$" horiz-adv-x="489" 
d="M215 -107v97c-124 7 -185 66 -185 135c0 51 28 72 61 72c31 0 53 -19 53 -48c0 -33 -36 -43 -36 -57c0 -33 39 -54 107 -58v237c-109 35 -168 81 -168 187c0 108 79 169 174 177v56h41v-56c88 -5 169 -48 169 -120c0 -40 -24 -65 -56 -65c-31 0 -54 20 -54 47
c0 32 26 38 26 51c0 24 -37 40 -85 43v-217c106 -37 186 -75 186 -192c0 -127 -94 -184 -190 -192v-97h-43zM366 143c0 57 -40 86 -108 113v-221c61 7 108 40 108 108zM123 498c0 -58 26 -82 98 -109v201c-59 -7 -98 -41 -98 -92z" />
    <glyph glyph-name="oe" unicode="&#x153;" horiz-adv-x="792" 
d="M249 -17c-114 0 -224 91 -224 238c0 146 110 240 224 240c69 0 133 -38 170 -105c36 65 96 105 168 105c95 0 181 -56 178 -208l-5 -7h-288v-20c0 -113 50 -184 134 -184c64 0 107 25 134 96l31 -14c-31 -93 -90 -141 -186 -141c-80 0 -136 37 -168 97
c-39 -63 -100 -97 -168 -97zM249 25c84 0 118 81 118 196s-34 197 -118 197s-118 -82 -118 -197s34 -196 118 -196zM581 418c-60 0 -95 -53 -106 -133h192c-1 96 -26 133 -86 133z" />
    <glyph glyph-name="ae" unicode="&#xe6;" horiz-adv-x="697" 
d="M164 -10c-79 0 -141 45 -141 127c0 88 66 140 186 140h68v88c0 45 -24 71 -76 71c-21 0 -39 -4 -54 -11c-11 -5 -16 -10 -16 -15c0 -11 27 -12 27 -48c0 -27 -22 -46 -50 -46c-31 0 -54 23 -54 56c0 72 92 110 160 110s117 -21 136 -73c35 45 84 72 144 72
c94 0 184 -53 179 -235l-5 -7h-285c3 -108 44 -177 128 -177c63 0 107 25 132 96l31 -14c-31 -93 -89 -141 -186 -141c-81 0 -140 35 -175 92c-37 -52 -82 -85 -149 -85zM488 418c-68 0 -99 -67 -104 -160h191c3 125 -29 160 -87 160zM197 48c49 0 75 23 102 54
c-15 35 -22 74 -22 116h-59c-56 0 -95 -22 -95 -85c0 -51 30 -85 74 -85z" />
    <glyph glyph-name="percent" unicode="%" horiz-adv-x="695" 
d="M78 -21l494 667l31 -24l-495 -665zM173 334c44 0 63 48 63 132c0 85 -19 133 -63 133c-41 0 -62 -48 -62 -133c0 -84 21 -132 62 -132zM173 296c-77 0 -149 70 -149 170c0 101 72 171 149 171c84 0 150 -73 150 -171c0 -100 -66 -170 -150 -170zM523 26
c44 0 63 48 63 132c0 85 -19 133 -63 133c-41 0 -62 -48 -62 -133c0 -84 21 -132 62 -132zM523 -11c-77 0 -149 68 -149 169c0 100 72 171 149 171c83 0 150 -72 150 -171c0 -100 -67 -169 -150 -169z" />
    <glyph glyph-name="plus" unicode="+" horiz-adv-x="438" 
d="M36 285v48h159v164h50v-164h156v-48h-156v-163h-50v163h-159z" />
    <glyph glyph-name="f.short" horiz-adv-x="316" 
d="M19 401v33c24 4 44 7 63 19v55c0 137 84 207 167 207c67 0 110 -36 110 -91c0 -44 -23 -65 -55 -65c-27 0 -51 15 -51 46c0 33 29 39 29 52c0 11 -10 17 -31 17c-41 0 -72 -35 -72 -122v-106h119v-45h-119l1 -360l74 -3v-38h-238v38l66 3v360h-63z" />
    <glyph glyph-name="f_f.short" horiz-adv-x="581" 
d="M19 401v33c24 4 44 7 63 19v12c0 147 102 234 214 234c47 0 82 -14 103 -37c32 35 74 53 115 53c67 0 111 -36 111 -91c0 -44 -24 -65 -55 -65c-27 0 -51 15 -51 46c0 33 28 39 28 52c0 11 -10 17 -31 17c-43 0 -71 -29 -71 -122v-106h118v-45h-118l1 -360l74 -3v-38
h-228v38l55 3v360h-168l1 -360l55 -3v-38h-219v38l66 3v360h-63zM298 657c-69 0 -119 -47 -119 -154v-57h168v62c0 13 -1 25 2 36c-19 5 -34 18 -34 42c0 31 26 35 26 49c0 11 -16 22 -43 22z" />
    <glyph glyph-name="R.short" horiz-adv-x="584" 
d="M26 0v39l64 5v538l-64 4v40h243c131 0 230 -53 230 -156c0 -87 -72 -140 -152 -156v-5c83 -11 117 -59 134 -139c17 -89 29 -126 68 -126c8 0 14 1 21 4l13 -33c-19 -12 -46 -24 -87 -24c-96 0 -120 73 -133 180c-13 99 -36 124 -102 124h-60v-250l70 -6v-39h-245z
M264 583h-63v-248h74c84 0 108 33 108 122c0 106 -59 126 -119 126z" />
    <glyph glyph-name="A.short" horiz-adv-x="591" 
d="M11 0v39l41 15l201 581h66l209 -593l52 -3v-39h-244v39l73 5l-57 163h-198l-50 -149l89 -19v-39h-182zM251 492l-83 -245h170l-86 245h-1z" />
    <glyph glyph-name="at" unicode="@" horiz-adv-x="855" 
d="M589 43c85 0 186 82 186 247c0 157 -104 266 -276 266c-241 0 -400 -191 -400 -407c0 -182 126 -312 318 -312c120 0 202 40 262 89l24 -31c-66 -55 -159 -104 -302 -104c-213 0 -374 138 -374 345c0 247 206 464 472 464c203 0 332 -134 332 -307
c0 -197 -139 -295 -263 -295c-65 0 -99 26 -104 77h-2c-29 -38 -81 -78 -131 -78c-52 0 -101 36 -101 124c0 139 111 285 242 285c44 0 70 -20 82 -40l10 26h92l-95 -292c-8 -26 -8 -57 28 -57zM377 60c39 0 70 31 89 56l65 208c-9 20 -25 36 -54 36
c-84 0 -144 -140 -144 -230c0 -55 23 -70 44 -70z" />
    <glyph glyph-name="Oslash" unicode="&#xd8;" horiz-adv-x="644" 
d="M75 -26l-33 25l66 84c-48 56 -78 132 -78 225c0 197 142 328 291 328c63 0 121 -22 172 -62l59 76l34 -26l-62 -78c55 -57 90 -139 90 -238c0 -200 -142 -326 -293 -326c-68 0 -132 24 -184 71zM321 27c113 0 174 94 174 281c0 72 -8 128 -23 171l-290 -369
c29 -59 75 -83 139 -83zM149 308c0 -63 5 -113 16 -152l287 367c-29 47 -72 68 -131 68c-111 0 -172 -98 -172 -283z" />
    <glyph glyph-name="oslash" unicode="&#xf8;" horiz-adv-x="497" 
d="M59 -35l-31 24l56 68c-36 41 -59 96 -59 164c0 146 110 240 224 240c47 0 91 -15 130 -45l50 61l30 -26l-50 -61c39 -43 64 -100 64 -169c0 -147 -109 -238 -224 -238c-49 0 -97 16 -136 47zM249 25c84 0 118 81 118 196c0 43 -4 77 -11 106l-203 -247
c19 -37 51 -55 96 -55zM130 221c0 -39 1 -70 8 -97l202 245c-19 33 -49 49 -91 49c-84 0 -119 -82 -119 -197z" />
    <glyph glyph-name="less" unicode="&#x3c;" horiz-adv-x="406" 
d="M366 131l-332 151v42l332 151v-54l-265 -118l265 -118v-54z" />
    <glyph glyph-name="greater" unicode="&#x3e;" horiz-adv-x="406" 
d="M40 131v54l264 118l-264 118v54l332 -151v-42z" />
    <glyph glyph-name="equal" unicode="=" horiz-adv-x="438" 
d="M36 342v48h365v-48h-365zM36 206v48h365v-48h-365z" />
    <glyph glyph-name="endash" unicode="&#x2013;" horiz-adv-x="448" 
d="M40 219v45h368v-45h-368z" />
    <glyph glyph-name="emdash" unicode="&#x2014;" horiz-adv-x="815" 
d="M40 219v45h735v-45h-735z" />
    <glyph glyph-name="underscore" unicode="_" horiz-adv-x="365" 
d="M-3 -209v45h371v-45h-371z" />
    <glyph glyph-name="minus" unicode="&#x2212;" horiz-adv-x="438" 
d="M36 285v48h365v-48h-365z" />
    <glyph glyph-name="multiply" unicode="&#xd7;" horiz-adv-x="420" 
d="M79 135l-35 33l132 132l-132 132l35 34l131 -132l131 132l34 -34l-132 -132l132 -132l-34 -33l-131 131z" />
    <glyph glyph-name="brokenbar" unicode="&#xa6;" horiz-adv-x="210" 
d="M80 -172v410h50v-410h-50zM80 319v395h50v-395h-50z" />
    <glyph glyph-name="questiondown" unicode="&#xbf;" horiz-adv-x="384" 
d="M227 459c37 0 65 -27 65 -64s-28 -64 -65 -64s-64 27 -64 64s27 64 64 64zM214 250h42c40 -147 -132 -197 -132 -314c0 -56 33 -84 89 -84c47 0 71 19 71 54c0 16 -10 29 -29 33c-4 7 -9 16 -9 31c0 23 17 44 49 44c39 0 68 -29 68 -76c0 -79 -71 -132 -164 -132
c-98 0 -174 54 -174 150c0 165 205 174 189 294z" />
    <glyph glyph-name="exclamdown" unicode="&#xa1;" horiz-adv-x="223" 
d="M128 250l47 -364c9 -49 -24 -80 -64 -80c-39 0 -74 31 -63 80l47 364h33zM111 459c39 0 65 -27 65 -64s-26 -64 -65 -64c-37 0 -64 27 -64 64s27 64 64 64z" />
    <glyph glyph-name="questiondown.uc" horiz-adv-x="384" 
d="M227 635c37 0 65 -27 65 -64s-28 -65 -65 -65s-64 28 -64 65s27 64 64 64zM214 425h42c39 -146 -132 -197 -132 -313c0 -56 33 -85 89 -85c47 0 71 21 71 54c0 19 -10 30 -29 34c-4 7 -9 17 -9 30c0 24 17 45 49 45c39 0 68 -30 68 -77c0 -78 -71 -132 -164 -132
c-98 0 -174 55 -174 151c0 164 205 174 189 293z" />
    <glyph glyph-name="exclamdown.uc" horiz-adv-x="223" 
d="M128 425l47 -363c9 -51 -24 -81 -64 -81c-39 0 -74 30 -63 81l47 363h33zM111 635c39 0 65 -27 65 -64s-26 -65 -65 -65c-37 0 -64 28 -64 65s27 64 64 64z" />
    <glyph glyph-name="endash.uc" horiz-adv-x="448" 
d="M40 285v44h368v-44h-368z" />
    <glyph glyph-name="emdash.uc" horiz-adv-x="815" 
d="M40 285v44h735v-44h-735z" />
    <glyph glyph-name="dagger" unicode="&#x2020;" horiz-adv-x="410" 
d="M254 628l-37 -133l111 33c35 12 61 -9 61 -44s-26 -57 -61 -45l-112 35c4 -23 19 -90 48 -166c-27 -97 -37 -189 -37 -335v-157h-43v157c0 147 -15 238 -39 335c28 75 44 142 49 166l-112 -35c-35 -12 -60 10 -60 45s25 56 60 44l110 -33l-37 133c-11 39 13 66 50 66
s62 -27 49 -66z" />
    <glyph glyph-name="dotlessi" unicode="&#x131;" horiz-adv-x="261" 
d="M16 0v38l69 4v343l-72 -9v41l161 38l10 -5v-408l62 -4v-38h-230z" />
    <glyph glyph-name="uni0237" unicode="&#x237;" horiz-adv-x="258" 
d="M-64 -274c-39 0 -64 23 -64 54s16 48 40 48c23 0 50 -16 67 -41c28 12 44 51 44 107v491l-73 -9v41l162 38l9 -5v-489c0 -119 -77 -235 -185 -235z" />
    <glyph glyph-name="daggerdbl" unicode="&#x2021;" horiz-adv-x="410" 
d="M263 348c-8 -5 -42 -48 -42 -96c0 -46 34 -91 42 -96c-27 -46 -41 -100 -47 -125l112 35c35 12 61 -10 61 -45s-26 -56 -61 -44l-111 32l37 -132c13 -39 -12 -67 -49 -67s-61 28 -50 67l37 133l-110 -33c-35 -12 -60 9 -60 44s25 57 60 45l111 -35c-5 23 -19 78 -47 125
c10 5 43 51 43 96c0 48 -33 91 -43 96c27 45 42 100 47 124l-111 -34c-35 -11 -60 10 -60 45s25 56 60 44l110 -33l-37 133c-11 39 13 67 50 67s62 -28 49 -67l-37 -133l111 33c35 12 61 -9 61 -44s-26 -56 -61 -45l-112 34c5 -23 18 -80 47 -124z" />
    <glyph glyph-name="periodcentered" unicode="&#xb7;" horiz-adv-x="204" 
d="M103 192c-39 0 -65 26 -65 65c0 36 26 63 65 63c36 0 63 -27 63 -63c0 -39 -27 -65 -63 -65z" />
    <glyph glyph-name="divide" unicode="&#xf7;" horiz-adv-x="438" 
d="M36 285v48h365v-48h-365zM219 100c-35 0 -62 25 -62 61c0 35 27 61 62 61s61 -26 61 -61c0 -36 -26 -61 -61 -61zM219 396c-35 0 -62 26 -62 61s27 61 62 61s61 -26 61 -61s-26 -61 -61 -61z" />
    <glyph glyph-name="ellipsis" unicode="&#x2026;" horiz-adv-x="678" 
d="M103 -15c-39 0 -65 28 -65 65s26 64 65 64c36 0 63 -27 63 -64s-27 -65 -63 -65zM340 -15c-39 0 -65 28 -65 65s26 64 65 64c36 0 64 -27 64 -64s-28 -65 -64 -65zM577 -15c-39 0 -65 28 -65 65s26 64 65 64c36 0 64 -27 64 -64s-28 -65 -64 -65z" />
    <glyph glyph-name="yen" unicode="&#xa5;" horiz-adv-x="514" 
d="M63 300v39h132l-137 244l-42 3v40h227v-40l-65 -5l120 -216l102 201l-68 20v40h164v-40l-46 -18l-119 -229h131v-39h-142v-66h142v-39h-142v-150l73 -6v-39h-258v39l74 7v149h-146v39h146v66h-146z" />
    <glyph glyph-name="Euro" unicode="&#x20ac;" horiz-adv-x="552" 
d="M22 343v40h66c29 157 133 253 257 253c89 0 173 -58 173 -140c0 -41 -27 -69 -62 -69c-32 0 -58 22 -58 51c0 37 32 46 32 60c0 31 -34 53 -75 53c-96 0 -145 -71 -158 -208h177v-40h-179c-1 -13 -1 -25 -1 -40v-25h180v-40h-178c11 -137 59 -199 147 -199
c65 0 114 36 145 109l34 -15c-32 -96 -102 -151 -203 -151c-131 0 -222 99 -238 256h-59v40h57v6c0 20 1 40 3 59h-60z" />
    <glyph glyph-name="Thorn" unicode="&#xde;" horiz-adv-x="520" 
d="M26 0v39l64 5v538l-64 4v40h244v-40l-69 -5v-94h70c151 0 234 -62 234 -162c0 -112 -89 -173 -229 -173c-27 0 -56 3 -75 6v-113l76 -6v-39h-251zM262 445h-61v-248c15 -1 36 -2 57 -2c96 0 131 32 131 125c0 88 -39 125 -127 125z" />
    <glyph glyph-name="thorn" unicode="&#xfe;" horiz-adv-x="522" 
d="M13 -261v38l66 5v859l-70 -7v41l159 33l9 -5v-309c35 37 83 67 143 67c104 0 175 -91 175 -232c0 -161 -102 -242 -201 -242c-55 0 -85 14 -117 37v-242l73 -5v-38h-237zM274 399c-40 0 -72 -15 -97 -38v-297c23 -15 54 -28 89 -28c75 0 125 57 125 189
c0 108 -41 174 -117 174z" />
    <glyph glyph-name="Eth" unicode="&#xd0;" horiz-adv-x="619" 
d="M17 300v39h73v242l-64 5v40h259c154 0 304 -80 304 -312c0 -224 -149 -314 -299 -314h-264v39l64 5v256h-73zM278 581h-77v-242h144v-39h-144v-256h78c110 0 190 63 190 270c0 212 -77 267 -191 267z" />
    <glyph glyph-name="Dcroat" unicode="&#x110;" horiz-adv-x="619" 
d="M17 300v39h73v242l-64 5v40h259c154 0 304 -80 304 -312c0 -224 -149 -314 -299 -314h-264v39l64 5v256h-73zM278 581h-77v-242h144v-39h-144v-256h78c110 0 190 63 190 270c0 212 -77 267 -191 267z" />
    <glyph glyph-name="Eng" unicode="&#x14a;" horiz-adv-x="614" 
d="M26 0v39l63 10v531l-63 6v40h193l268 -413v358l-75 15v40h179v-40l-54 -13v-582c0 -189 -67 -263 -167 -263c-61 0 -103 38 -103 90c0 44 26 69 61 69c29 0 52 -17 52 -48c0 -34 -30 -41 -30 -51c0 -11 11 -17 26 -17c56 0 111 48 111 205v30l-348 542v-494l94 -15v-39
h-207z" />
    <glyph glyph-name="IJ" unicode="&#x132;" horiz-adv-x="697" 
d="M430 -16c-79 0 -116 38 -116 89c0 43 27 67 60 67c28 0 51 -18 51 -47c0 -35 -28 -39 -28 -51c0 -9 11 -16 27 -16c53 0 73 45 73 114l-1 438l-72 8v40h250v-40l-66 -7v-374c0 -149 -77 -221 -178 -221zM26 0v39l73 8v532l-73 7v40h257v-40l-73 -6v-532l69 -9v-39h-253z
" />
    <glyph glyph-name="cent" unicode="&#xa2;" horiz-adv-x="432" 
d="M218 -107v91c-119 8 -193 94 -193 223c0 140 88 231 193 250v79h42v-75c81 -1 141 -40 141 -101c0 -31 -20 -48 -51 -48c-25 0 -40 12 -43 36c-5 34 -2 67 -47 70v-376c67 3 102 51 121 102l31 -9c-19 -77 -67 -139 -152 -150v-92h-42zM129 225c0 -107 30 -163 89 -179
v366c-59 -19 -89 -84 -89 -187z" />
    <glyph glyph-name="quotedblbase" unicode="&#x201e;" horiz-adv-x="438" 
d="M60 -97l-11 30c56 21 90 59 90 100c0 16 -5 22 -12 22c-8 0 -15 -16 -38 -16c-27 0 -47 21 -47 52c0 33 32 58 69 58c56 0 86 -34 86 -93c0 -86 -64 -131 -137 -153zM254 -97l-12 30c56 21 90 59 90 100c0 15 -4 22 -13 22c-8 0 -13 -16 -37 -16c-28 0 -47 21 -47 52
c0 33 32 58 69 58c56 0 86 -34 86 -93c0 -86 -64 -132 -136 -153z" />
    <glyph glyph-name="quotesinglbase" unicode="&#x201a;" horiz-adv-x="244" 
d="M60 -97l-11 30c56 21 90 59 90 100c0 16 -5 22 -12 22c-8 0 -15 -16 -38 -16c-27 0 -47 21 -47 52c0 33 32 58 69 58c56 0 86 -34 86 -93c0 -86 -64 -131 -137 -153z" />
    <glyph glyph-name="paragraph" unicode="&#xb6;" horiz-adv-x="496" 
d="M470 586l-63 -7v-751h-52v755h-85v-755h-51v448h-12c-119 0 -191 66 -191 177c0 102 68 173 196 173h258v-40z" />
    <glyph glyph-name="sterling" unicode="&#xa3;" horiz-adv-x="510" 
d="M57 275v41h69c-15 41 -27 81 -27 118c0 120 80 202 208 202c97 0 168 -53 168 -138c0 -49 -27 -75 -66 -75c-33 0 -58 24 -58 49c0 41 38 40 38 73c0 20 -33 46 -72 46c-57 0 -98 -45 -98 -125c0 -55 9 -103 17 -150h153v-41h-146c7 -33 10 -67 10 -102
c0 -24 -3 -45 -6 -64c40 -15 82 -26 127 -26c59 0 77 23 88 78l32 -6c-8 -100 -38 -172 -127 -172c-63 0 -105 29 -144 60c-25 -41 -62 -61 -111 -61c-61 0 -94 32 -94 77c0 56 40 84 95 84c23 0 48 -6 73 -14c-5 47 -25 97 -44 146h-85zM113 23c35 0 59 18 70 49
c-23 16 -47 27 -74 27c-28 0 -43 -15 -43 -39c0 -23 16 -37 47 -37z" />
    <glyph glyph-name="bullet" unicode="&#x2022;" horiz-adv-x="272" 
d="M137 186c-60 0 -103 42 -103 102s43 102 103 102s101 -42 101 -102s-41 -102 -101 -102z" />
    <glyph glyph-name="germandbls" unicode="&#xdf;" horiz-adv-x="523" 
d="M324 -16c-72 0 -109 31 -109 67c0 28 18 46 42 46c15 0 22 -4 29 -9c-3 -44 10 -61 37 -61c35 0 66 22 66 179c0 176 -53 202 -130 202h-24v46h26c59 0 95 23 95 116c0 64 -27 104 -80 104c-67 0 -99 -47 -99 -150l1 -480v-44h-162v38l64 2v472c0 128 82 203 197 203
c109 0 170 -66 170 -145c0 -71 -42 -115 -102 -132v-4c77 -21 150 -83 150 -233c0 -149 -79 -217 -171 -217z" />
    <glyph glyph-name="three.oldalt" horiz-adv-x="443" 
d="M192 -17c-97 0 -177 47 -177 123c0 43 28 63 59 63c32 0 54 -20 54 -47c0 -38 -35 -45 -35 -56c0 -24 42 -41 79 -41c88 0 136 46 136 155c0 87 -53 135 -137 135h-52v43h51c68 0 113 51 113 136c0 77 -32 109 -91 109c-37 0 -69 -18 -69 -31c0 -10 29 -17 29 -51
c0 -25 -23 -46 -52 -46c-32 0 -57 23 -57 59c0 70 89 112 166 112c117 0 180 -65 180 -148c0 -74 -63 -138 -138 -154v-3c113 -13 169 -84 169 -165c0 -112 -100 -193 -228 -193z" />
    <glyph glyph-name="five.oldalt" horiz-adv-x="440" 
d="M181 -17c-85 0 -166 44 -166 123c0 40 27 62 59 62c27 0 51 -19 51 -48c0 -36 -34 -44 -34 -56c0 -22 41 -39 74 -39c83 0 139 48 139 167c0 101 -49 132 -114 132c-35 0 -71 -12 -92 -31l-24 10v330h259l15 56h35l-17 -144h-241v-197c29 18 63 27 102 27
c116 0 188 -60 188 -179c0 -147 -119 -213 -234 -213z" />
    <glyph glyph-name="grave" unicode="`" 
d="M263 516l-91 89c-15 15 -23 29 -23 43c0 28 25 46 46 46c23 0 38 -13 47 -38l48 -140h-27z" />
    <glyph glyph-name="dieresis" unicode="&#xa8;" 
d="M143 548c-31 0 -54 23 -54 54s23 54 54 54s54 -23 54 -54s-23 -54 -54 -54zM316 548c-31 0 -55 23 -55 54s24 54 55 54c29 0 53 -23 53 -54s-24 -54 -53 -54z" />
    <glyph glyph-name="dotaccent" unicode="&#x2d9;" 
d="M228 551c-32 0 -59 25 -59 57s27 57 59 57c33 0 59 -25 59 -57s-26 -57 -59 -57z" />
    <glyph glyph-name="ring" unicode="&#x2da;" 
d="M228 554c29 0 50 23 50 54c0 28 -21 53 -50 53c-31 0 -49 -25 -49 -53c0 -31 18 -54 49 -54zM228 522c-49 0 -85 37 -85 86c0 48 36 86 85 86c48 0 87 -38 87 -86c0 -49 -39 -86 -87 -86z" />
    <glyph glyph-name="acute" unicode="&#xb4;" 
d="M168 516l49 140c9 27 22 38 46 38c20 0 46 -18 46 -46c0 -13 -8 -28 -23 -43l-91 -89h-27z" />
    <glyph glyph-name="circumflex" unicode="&#x2c6;" 
d="M174 516h-28l85 151h70l87 -151h-30l-92 80z" />
    <glyph glyph-name="caron" unicode="&#x2c7;" 
d="M107 675h30l91 -81l92 81h29l-86 -151h-69z" />
    <glyph glyph-name="asciicircum" unicode="^" horiz-adv-x="374" 
d="M316 397l-130 139l-128 -139h-35l126 229h76l127 -229h-36z" />
    <glyph glyph-name="tilde" unicode="&#x2dc;" 
d="M278 551c-39 0 -84 27 -113 27c-21 0 -35 -13 -43 -40h-37c13 59 43 114 95 114c37 0 83 -27 112 -27c19 0 33 13 42 40h36c-13 -59 -41 -114 -92 -114z" />
    <glyph glyph-name="macron" unicode="&#xaf;" 
d="M111 572v54h234v-54h-234z" />
    <glyph glyph-name="breve" unicode="&#x2d8;" 
d="M228 526c-77 0 -115 75 -120 155h33c9 -55 32 -85 87 -85c56 0 78 30 87 85h33c-5 -80 -41 -155 -120 -155z" />
    <glyph glyph-name="cedilla" unicode="&#xb8;" 
d="M204 -222c-40 0 -61 5 -85 16l8 32c11 -5 26 -11 57 -11s51 15 51 40c0 33 -23 46 -70 38v107h42v-66c57 5 107 -22 107 -73c0 -53 -46 -83 -110 -83z" />
    <glyph glyph-name="hungarumlaut" unicode="&#x2dd;" 
d="M109 516l31 138c7 31 24 40 45 40c19 0 42 -15 42 -42c0 -12 -9 -26 -21 -42l-69 -94h-28zM253 516l31 138c7 31 23 40 44 40c19 0 42 -15 42 -42c0 -12 -8 -26 -20 -42l-71 -94h-26z" />
    <glyph glyph-name="ogonek" unicode="&#x2db;" 
d="M212 -269c-56 0 -100 33 -100 89c0 64 69 129 125 180h40c-39 -52 -72 -108 -72 -165c0 -32 13 -52 40 -52c19 0 32 12 43 23l21 -20c-13 -21 -41 -55 -97 -55z" />
    <glyph glyph-name="eng" unicode="&#x14b;" horiz-adv-x="515" 
d="M16 0v38l69 5v342l-68 -11v41l157 40l10 -5v-77c17 21 39 39 60 56c27 19 58 33 87 33c77 0 120 -38 120 -130v-371c0 -119 -76 -235 -185 -235c-37 0 -64 23 -64 54s18 48 43 48s58 -22 75 -47c27 15 32 57 32 113v432c0 39 -20 60 -67 60c-35 0 -68 -16 -101 -40v-304
l59 -4v-38h-227z" />
    <glyph glyph-name="section" unicode="&#xa7;" horiz-adv-x="465" 
d="M218 -149c-116 0 -178 55 -178 115c0 37 22 57 53 57c21 0 36 -8 44 -24c-29 -72 15 -106 85 -106c56 0 98 27 98 88c0 56 -51 81 -134 116c-101 43 -162 76 -162 164c0 62 43 101 86 122c-27 25 -39 56 -39 103c0 98 78 154 171 154c92 0 160 -43 160 -104
c0 -35 -21 -50 -50 -50c-19 0 -35 10 -40 25c20 57 -11 88 -75 88c-53 0 -91 -31 -91 -80c0 -53 25 -70 113 -110c113 -48 182 -82 182 -178c0 -55 -44 -95 -88 -117c32 -27 49 -59 49 -103c0 -108 -83 -160 -184 -160zM233 314c-43 19 -75 34 -100 51
c-19 -15 -37 -36 -37 -71c0 -42 25 -61 124 -106c43 -19 79 -36 108 -55c20 13 36 35 36 64c0 55 -47 79 -131 117z" />
    <glyph glyph-name="degree" unicode="&#xb0;" horiz-adv-x="340" 
d="M169 408c51 0 85 41 85 94c0 51 -34 94 -85 94c-52 0 -85 -43 -85 -94c0 -53 33 -94 85 -94zM169 368c-77 0 -134 57 -134 134c0 75 57 134 134 134c76 0 135 -59 135 -134c0 -77 -59 -134 -135 -134z" />
    <glyph glyph-name="aogonek" unicode="&#x105;" horiz-adv-x="462" 
d="M370 -8c-48 -3 -79 20 -92 63c-31 -35 -69 -65 -128 -65c-68 0 -127 35 -127 116c0 89 75 136 174 136c32 0 57 -5 77 -12v115c0 45 -22 71 -73 71c-21 0 -39 -4 -54 -11c-11 -5 -16 -10 -16 -15c0 -11 27 -12 27 -48c0 -27 -22 -46 -50 -46c-31 0 -54 23 -54 56
c0 72 91 110 166 110c92 0 153 -33 153 -121v-258c0 -27 10 -34 29 -34s28 3 45 15l16 -22c-48 -56 -128 -123 -128 -213c0 -32 13 -51 41 -51c19 0 31 11 44 23l19 -21c-13 -21 -41 -55 -97 -55s-100 34 -100 90c0 72 78 130 128 177zM197 48c35 0 62 18 77 30v117
c-20 5 -36 9 -67 9c-44 0 -84 -22 -84 -81c0 -51 31 -75 74 -75z" />
    <glyph glyph-name="space_uni0326" 
d="M174 -257l-11 32c51 19 78 45 78 73c0 13 -4 20 -11 20c-8 0 -13 -14 -34 -14c-27 0 -40 19 -40 46c0 28 26 50 61 50c47 0 79 -31 79 -80c0 -72 -58 -111 -122 -127z" />
    <glyph glyph-name="caron.alt" 
d="M153 527c19 29 28 57 28 82s-9 43 -25 60c4 28 21 41 42 41c29 0 48 -25 48 -64c0 -56 -34 -100 -73 -135z" />
    <glyph glyph-name="dcaron" unicode="&#x10f;" horiz-adv-x="526" 
d="M219 -17c-114 0 -192 96 -192 237c0 156 109 241 211 241c45 0 79 -12 107 -31v211l-79 -7v42l169 32l10 -5v-649l67 2v-37l-155 -26l-9 4l2 47c-35 -37 -72 -61 -131 -61zM262 43c40 0 60 14 83 35v303c-24 19 -47 29 -82 29c-75 0 -131 -60 -131 -191
c0 -108 53 -176 130 -176zM484 527c19 29 28 57 28 82s-9 43 -25 60c4 28 21 41 42 41c29 0 48 -25 48 -64c0 -56 -34 -100 -73 -135z" />
    <glyph glyph-name="tcaron" unicode="&#x165;" horiz-adv-x="326" 
d="M184 -13c-77 0 -109 34 -109 102v315l-59 -3v34c60 13 94 45 121 110l37 -2v-97h124v-45h-124v-295c0 -40 10 -60 61 -60c25 0 42 5 73 16l9 -29c-35 -27 -82 -46 -133 -46zM227 534c19 29 28 57 28 82s-9 43 -25 60c4 28 21 41 42 41c29 0 48 -25 48 -64
c0 -56 -34 -100 -73 -135z" />
    <glyph glyph-name="space_uni0326.alt" 
d="M282 726l11 -32c-55 -16 -80 -42 -80 -73c0 -12 3 -18 10 -18c11 0 15 13 36 13c27 0 42 -19 42 -46c0 -28 -27 -49 -64 -49c-49 0 -82 29 -82 80c0 69 58 109 127 125z" />
    <glyph glyph-name="grave.uc" 
d="M290 678h-29l-84 56c-22 15 -33 31 -33 48c0 31 26 49 49 49c25 0 35 -13 50 -44z" />
    <glyph glyph-name="dieresis.uc" 
d="M135 684c-31 0 -55 24 -55 55c0 29 24 53 55 53s55 -24 55 -53c0 -31 -24 -55 -55 -55zM324 684c-31 0 -55 24 -55 55c0 29 24 53 55 53s56 -24 56 -53c0 -31 -25 -55 -56 -55z" />
    <glyph glyph-name="macron.uc" 
d="M99 706v54h258v-54h-258z" />
    <glyph glyph-name="acute.uc" 
d="M193 678h-29l47 109c13 31 25 44 50 44c21 0 49 -18 49 -49c0 -17 -11 -33 -33 -48z" />
    <glyph glyph-name="circumflex.uc" 
d="M129 678h-29l92 131h72l93 -131h-30l-100 65z" />
    <glyph glyph-name="caron.uc" 
d="M100 809h29l99 -65l99 65h30l-93 -131h-72z" />
    <glyph glyph-name="breve.uc" 
d="M228 677c-81 0 -116 71 -121 132h33c9 -40 33 -62 88 -62c56 0 79 22 88 62h33c-5 -60 -39 -132 -121 -132z" />
    <glyph glyph-name="dotaccent.uc" 
d="M228 685c-32 0 -58 25 -58 57s26 57 58 57c33 0 58 -25 58 -57s-25 -57 -58 -57z" />
    <glyph glyph-name="ring.uc" 
d="M228 711c29 0 50 23 50 54c0 28 -21 54 -50 54c-31 0 -49 -26 -49 -54c0 -31 18 -54 49 -54zM228 679c-49 0 -85 37 -85 86c0 48 36 87 85 87c48 0 87 -39 87 -87c0 -49 -39 -86 -87 -86z" />
    <glyph glyph-name="tilde.uc" 
d="M283 700c-37 0 -95 27 -126 27c-19 -1 -34 -14 -43 -41h-35c11 59 42 117 97 117c34 0 93 -27 123 -27c20 0 34 13 42 40h36c-13 -59 -42 -116 -94 -116z" />
    <glyph glyph-name="hungarumlaut.uc" 
d="M291 678h-27l21 113c7 31 23 40 46 40c19 0 43 -15 43 -42c0 -15 -9 -28 -22 -43zM145 678h-26l21 113c7 31 24 40 45 40c19 0 43 -15 43 -42c0 -13 -7 -28 -21 -43z" />
    <glyph glyph-name="Ldot" unicode="&#x13f;" horiz-adv-x="537" 
d="M26 0v39l64 5v538l-64 4v40h254v-40l-79 -5v-537h165c63 0 79 14 90 94l8 52h39v-190h-477zM450 266c-39 0 -64 27 -64 64c0 35 25 61 64 61c35 0 61 -26 61 -61c0 -37 -26 -64 -61 -64z" />
    <glyph glyph-name="ldot" unicode="&#x140;" horiz-adv-x="332" 
d="M16 0v38l71 5v598l-76 -11v43l166 35l9 -5v-661l65 -4v-38h-235zM302 274c-38 0 -63 26 -63 63c0 35 25 61 63 61c35 0 61 -26 61 -61c0 -37 -26 -63 -61 -63z" />
    <glyph glyph-name="asciitilde" unicode="~" horiz-adv-x="351" 
d="M28 172c13 72 47 127 100 127c37 0 87 -16 116 -16c23 1 34 15 42 42h37c-13 -72 -47 -126 -98 -127c-39 0 -87 16 -118 16c-21 -1 -35 -15 -43 -42h-36z" />
    <glyph glyph-name="guilsinglright" unicode="&#x203a;" horiz-adv-x="246" 
d="M34 370l20 20l158 -144v-39l-158 -143l-20 19l95 145z" />
    <glyph glyph-name="guillemotright" unicode="&#xbb;" horiz-adv-x="402" 
d="M30 370l19 20l158 -144v-39l-158 -143l-19 19l94 144zM190 370l19 20l158 -144v-39l-158 -143l-19 19l94 144z" />
    <glyph glyph-name="guilsinglleft" unicode="&#x2039;" horiz-adv-x="246" 
d="M193 390l19 -20l-95 -144l95 -143l-19 -19l-159 143v39z" />
    <glyph glyph-name="guillemotleft" unicode="&#xab;" horiz-adv-x="402" 
d="M189 390l19 -20l-95 -145l95 -142l-19 -19l-159 143v39zM349 390l19 -20l-95 -145l95 -142l-19 -19l-159 143v39z" />
    <glyph glyph-name="ij" unicode="&#x133;" horiz-adv-x="512" 
d="M254 -274c-37 0 -64 23 -64 54s16 48 40 48c23 0 49 -16 68 -41c27 12 43 51 43 107v491l-73 -9v41l162 38l9 -5v-489c0 -119 -76 -235 -185 -235zM16 0v38l69 4v343l-72 -9v41l161 38l10 -5v-408l62 -4v-38h-230zM133 549c-33 0 -60 26 -60 57c0 32 27 59 60 59
s60 -27 60 -59c0 -31 -27 -57 -60 -57zM390 549c-33 0 -59 26 -59 57c0 32 26 59 59 59s60 -27 60 -59c0 -31 -27 -57 -60 -57z" />
    <glyph glyph-name="Hbar" unicode="&#x126;" horiz-adv-x="643" 
d="M9 447v37h81v98l-64 4v40h244v-40l-69 -5v-97h244v95l-71 7v40h243v-40l-61 -5v-97h78v-37h-78v-404l61 -4v-39h-243v39l71 6v257h-244v-257l69 -6v-39h-244v39l64 6v402h-81zM201 447v-105h244v105h-244z" />
    <glyph glyph-name="Tbar" unicode="&#x166;" horiz-adv-x="561" 
d="M96 307v38h369v-38h-369zM152 0v39l73 7v537h-72c-57 0 -64 -15 -75 -84l-12 -81h-38v208h506v-208h-40l-11 78c-11 80 -30 87 -92 87h-55v-537l74 -7v-39h-258z" />
    <glyph glyph-name="dcroat" unicode="&#x111;" horiz-adv-x="526" 
d="M516 529h-343v38h343v-38zM219 -17c-114 0 -192 96 -192 237c0 156 109 241 211 241c45 0 79 -12 107 -31v211l-79 -7v42l169 32l10 -5v-649l67 2v-37l-155 -26l-9 4l2 47c-35 -37 -72 -61 -131 -61zM262 43c40 0 60 14 83 35v303c-24 19 -47 29 -82 29
c-75 0 -131 -60 -131 -191c0 -108 53 -176 130 -176z" />
    <glyph glyph-name="hbar" unicode="&#x127;" horiz-adv-x="520" 
d="M6 529v38h76v74l-68 -7v41l157 33l9 -5v-136h169v-38h-169v-156c17 19 38 38 61 56c27 19 58 33 86 33c79 0 121 -38 121 -130v-292l57 -2v-38h-214v38l58 3v285c0 39 -22 60 -67 60c-35 0 -69 -16 -102 -40v-304l55 -4v-38h-219v38l66 4v487h-76z" />
    <glyph glyph-name="tbar" unicode="&#x167;" horiz-adv-x="326" 
d="M16 259v40h282v-40h-282zM184 -13c-77 0 -109 34 -109 102v315l-59 -3v34c60 13 94 45 121 110l37 -2v-97h124v-45h-124v-295c0 -40 10 -60 61 -60c25 0 42 5 73 16l9 -29c-35 -27 -82 -46 -133 -46z" />
    <glyph glyph-name="imacron" unicode="&#x12b;" horiz-adv-x="261" 
d="M16 0v38l69 4v343l-72 -9v41l161 38l10 -5v-408l62 -4v-38h-230zM16 572v54h215v-54h-215z" />
    <glyph glyph-name="idotaccent" horiz-adv-x="261" 
d="M16 0v38l69 4v343l-72 -9v41l161 38l10 -5v-408l62 -4v-38h-230zM133 548c-33 0 -60 26 -60 57c0 32 27 59 60 59s60 -27 60 -59c0 -31 -27 -57 -60 -57z" />
    <glyph glyph-name="lcaron" unicode="&#x13e;" horiz-adv-x="266" 
d="M16 0v38l71 5v598l-76 -11v43l166 35l9 -5v-661l65 -4v-38h-235zM226 527c19 29 28 57 28 82s-9 43 -25 60c4 28 21 41 42 41c29 0 48 -25 48 -64c0 -56 -34 -100 -73 -135z" />
    <glyph glyph-name="napostrophe" unicode="&#x149;" horiz-adv-x="606" 
d="M99 0v38l69 5v342l-68 -11v41l157 40l10 -5v-77c17 21 39 39 60 56c27 19 58 33 87 33c77 0 120 -38 120 -130v-292l57 -2v-38h-209v38l53 2v286c0 39 -20 60 -67 60c-35 0 -68 -16 -101 -40v-304l59 -4v-38h-227zM-22 397l-11 30c56 21 90 59 90 100c0 16 -5 21 -12 21
c-8 0 -15 -16 -38 -16c-27 0 -47 22 -47 53c0 33 32 58 69 58c56 0 86 -34 86 -94c0 -85 -64 -133 -137 -152z" />
    <glyph glyph-name="perthousand" unicode="&#x2030;" horiz-adv-x="1027" 
d="M173 334c44 0 63 48 63 132c0 85 -19 133 -63 133c-41 0 -62 -48 -62 -133c0 -84 21 -132 62 -132zM173 296c-77 0 -149 70 -149 170c0 101 72 171 149 171c84 0 150 -73 150 -171c0 -100 -66 -170 -150 -170zM523 26c44 0 63 48 63 132c0 85 -19 133 -63 133
c-41 0 -62 -48 -62 -133c0 -84 21 -132 62 -132zM523 -11c-77 0 -149 68 -149 169c0 100 72 171 149 171c83 0 150 -72 150 -171c0 -100 -67 -169 -150 -169zM855 26c43 0 63 48 63 132c0 85 -20 133 -63 133c-41 0 -63 -48 -63 -133c0 -84 22 -132 63 -132zM855 -11
c-77 0 -150 68 -150 169c0 100 73 171 150 171c83 0 148 -72 148 -171c0 -100 -65 -169 -148 -169zM78 -21l494 667l31 -24l-495 -665z" />
    <glyph glyph-name="florin" unicode="&#x192;" horiz-adv-x="443" 
d="M34 310v45h92l5 49c16 159 97 234 214 234c76 0 124 -35 124 -91c0 -44 -28 -66 -59 -66c-27 0 -53 16 -53 47c0 33 28 39 28 52c0 11 -11 17 -34 17c-53 0 -93 -30 -109 -156l-10 -86h136v-45h-141l-39 -346c-15 -121 -72 -194 -172 -194c-64 0 -105 38 -105 85
c0 41 26 61 55 61c25 0 49 -14 49 -45c0 -27 -25 -36 -25 -47c0 -9 8 -13 23 -13c45 0 63 46 70 105l39 394h-88z" />
    <glyph glyph-name="Lslash" unicode="&#x141;" horiz-adv-x="534" 
d="M26 0v39l64 5v180l-68 -31v41l68 31v317l-64 4v40h254v-40l-79 -5v-265l198 92v-41l-198 -92v-231h165c64 0 78 10 89 103l9 66h39v-213h-477z" />
    <glyph glyph-name="lslash" unicode="&#x142;" horiz-adv-x="266" 
d="M16 0v38l71 5v241l-71 -45v45l71 45v312l-76 -11v43l166 35l9 -5v-311l72 46v-45l-72 -46v-305l65 -4v-38h-235z" />
    <glyph glyph-name="eth" unicode="&#xf0;" horiz-adv-x="498" 
d="M97 511l-21 31l113 72c-29 21 -59 41 -94 64l20 30c43 -20 83 -41 122 -64l95 61l20 -31l-81 -52c117 -80 200 -190 200 -373c0 -168 -100 -266 -225 -266c-111 0 -221 92 -221 237c0 143 104 238 208 238c41 0 73 -10 102 -27c-25 67 -64 114 -116 158zM365 236
c0 51 -5 98 -14 139c-23 23 -51 35 -104 35c-84 0 -116 -82 -116 -189c0 -108 33 -197 118 -197s116 81 116 212z" />
    <glyph glyph-name="uni2033" unicode="&#x2033;" horiz-adv-x="336" 
d="M62 402h-26l14 183c2 40 20 60 53 60c25 0 50 -13 50 -45c0 -15 -5 -30 -15 -47zM215 402h-26l14 183c2 40 20 60 54 60c23 0 49 -13 49 -45c0 -15 -5 -31 -14 -47z" />
    <glyph glyph-name="uni2032" unicode="&#x2032;" horiz-adv-x="184" 
d="M62 402h-26l14 183c2 40 20 60 53 60c25 0 50 -13 50 -45c0 -15 -5 -30 -15 -47z" />
    <glyph glyph-name="guilsinglleft.uc" horiz-adv-x="246" 
d="M193 443l19 -20l-95 -144l95 -143l-19 -20l-159 144v39z" />
    <glyph glyph-name="guilsinglright.uc" horiz-adv-x="246" 
d="M34 423l20 20l158 -144v-39l-158 -144l-20 20l95 144z" />
    <glyph glyph-name="guillemotleft.uc" horiz-adv-x="402" 
d="M189 443l20 -20l-95 -144l95 -143l-20 -20l-158 144v39zM349 443l19 -20l-95 -145l95 -142l-19 -20l-159 144v39z" />
    <glyph glyph-name="guillemotright.uc" horiz-adv-x="402" 
d="M189 423l20 20l158 -144v-39l-158 -144l-20 20l95 144zM30 423l19 20l158 -144v-39l-158 -144l-19 20l95 145z" />
    <glyph glyph-name="parenleft.uc" horiz-adv-x="333" 
d="M280 -135c-107 112 -215 232 -215 429c0 196 109 317 215 429l30 -25c-92 -113 -160 -228 -160 -404c0 -175 69 -290 160 -403z" />
    <glyph glyph-name="parenright.uc" horiz-adv-x="333" 
d="M12 -135l-30 26c91 113 160 228 160 403c0 176 -68 291 -160 404l30 25c106 -112 215 -233 215 -429c0 -197 -108 -317 -215 -429z" />
    <glyph glyph-name="bracketleft.uc" horiz-adv-x="323" 
d="M85 -127v841h215v-40l-130 -6v-747l130 -8v-40h-215z" />
    <glyph glyph-name="bracketright.uc" horiz-adv-x="323" 
d="M237 -127h-214v40l130 8v747l-130 6v40h214v-841z" />
    <glyph glyph-name="braceleft.uc" horiz-adv-x="336" 
d="M254 -125c-109 0 -166 48 -147 163l18 138c11 72 -17 88 -109 96v44c92 8 120 24 109 96l-18 139c-19 115 38 163 147 163h60v-40l-42 -3c-68 -3 -85 -14 -82 -110l6 -123c5 -96 -26 -123 -98 -142v-4c72 -19 103 -42 98 -142l-6 -123c-3 -94 14 -108 82 -111l42 -1v-40
h-60z" />
    <glyph glyph-name="braceright.uc" horiz-adv-x="336" 
d="M23 -125v40l41 1c69 3 85 17 82 111l-6 123c-5 100 26 123 98 142v4c-72 19 -103 46 -98 142l6 123c3 96 -14 107 -82 110l-41 3v40h60c111 0 166 -48 147 -163l-19 -139c-13 -72 19 -88 109 -96v-44c-91 -8 -121 -24 -108 -96l18 -138c19 -115 -36 -163 -147 -163h-60z
" />
    <glyph glyph-name="slash.uc" horiz-adv-x="353" 
d="M1 -127l285 841h51l-283 -841h-53z" />
    <glyph glyph-name="backslash.uc" horiz-adv-x="353" 
d="M301 -127l-285 841h51l285 -841h-51z" />
    <glyph glyph-name="bar.uc" horiz-adv-x="206" 
d="M127 714v-841h-47v841h47z" />
    <glyph glyph-name="at.uc" horiz-adv-x="855" 
d="M589 130c85 0 186 81 186 245c0 159 -104 268 -276 268c-241 0 -400 -192 -400 -408c0 -181 126 -313 318 -313c120 0 202 40 262 91l24 -32c-67 -54 -157 -103 -302 -103c-213 0 -374 139 -374 343c0 249 206 464 472 464c203 0 332 -133 332 -305
c0 -199 -139 -297 -263 -297c-65 0 -99 26 -104 78h-2c-29 -38 -81 -78 -131 -78c-52 0 -101 36 -101 124c0 137 111 284 242 284c44 0 70 -17 82 -40l10 28h92l-95 -292c-8 -26 -8 -57 28 -57zM377 146c39 0 70 32 89 57l65 207c-9 20 -25 37 -54 37
c-84 0 -144 -140 -144 -230c0 -55 23 -71 44 -71z" />
    <glyph glyph-name="uni2009" unicode="&#x2009;" horiz-adv-x="75" 
 />
    <glyph glyph-name="Scaron" unicode="&#x160;" horiz-adv-x="491" 
d="M254 -13c-67 0 -128 24 -167 75l-16 -48h-37v192h39c24 -139 103 -173 178 -173c67 0 130 34 130 110c0 67 -56 93 -154 125c-110 35 -183 77 -183 188c0 117 92 180 193 180c56 0 111 -26 139 -63l15 40h33v-159h-36c-21 84 -75 138 -158 138c-68 0 -111 -38 -111 -95
c0 -67 49 -88 151 -120c105 -35 192 -72 192 -195c0 -132 -104 -195 -208 -195zM121 809h29l99 -65l99 65h30l-93 -131h-72z" />
    <glyph glyph-name="scaron" unicode="&#x161;" horiz-adv-x="372" 
d="M174 -15c-94 0 -150 47 -150 96c0 31 16 50 45 50c19 0 30 -3 39 -10c-4 -63 21 -96 74 -96c39 0 79 23 79 66c0 47 -29 66 -92 91c-80 27 -127 61 -127 141c0 75 68 134 156 134c85 0 136 -40 136 -87c0 -28 -18 -39 -45 -39c-15 0 -27 3 -36 10c-3 49 -16 77 -65 77
c-39 0 -70 -19 -70 -62c0 -37 27 -57 92 -84c92 -33 139 -71 139 -144c0 -87 -66 -143 -175 -143zM69 675h30l91 -81l92 81h29l-86 -151h-69z" />
    <glyph glyph-name="Yacute" unicode="&#xdd;" horiz-adv-x="556" 
d="M155 0v39l74 7v252l-170 285l-43 3v40h233v-40l-64 -4l134 -239l119 224l-66 19v40h168v-40l-50 -19l-150 -277v-245l74 -6v-39h-259zM310 678h-29l47 109c13 31 25 44 50 44c21 0 49 -18 49 -49c0 -17 -11 -33 -33 -48z" />
    <glyph glyph-name="yacute" unicode="&#xfd;" horiz-adv-x="474" 
d="M103 -263c-52 0 -76 33 -76 61c0 32 22 50 47 50c15 0 22 -4 29 -9c-3 -31 12 -42 27 -42c24 0 48 27 81 122l20 58l-184 428l-40 3v38h212v-38l-59 -4l117 -292h1l98 281l-60 15v38h151v-38l-42 -12l-171 -481c-45 -125 -79 -178 -151 -178zM236 516l49 140
c9 27 22 38 46 38c20 0 46 -18 46 -46c0 -13 -8 -28 -23 -43l-91 -89h-27z" />
    <glyph glyph-name="Zcaron" unicode="&#x17d;" horiz-adv-x="545" 
d="M64 425v201h436v-29l-334 -553h157c102 0 119 10 127 69l17 106h38v-219h-470v27l334 554h-148c-84 0 -95 -10 -106 -70l-14 -86h-37zM165 809h29l99 -65l99 65h30l-93 -131h-72z" />
    <glyph glyph-name="zcaron" unicode="&#x17e;" horiz-adv-x="426" 
d="M46 316v130h340v-31l-239 -375h92c77 0 101 9 106 74l3 29h35v-143h-351v31l243 376h-72c-90 0 -111 -7 -119 -62l-3 -29h-35zM92 675h30l91 -81l92 81h29l-86 -151h-69z" />
    <glyph glyph-name="Adieresis" unicode="&#xc4;" horiz-adv-x="609" 
d="M10 0v39l61 17l200 579h66l209 -593l53 -3v-39h-244v39l73 5l-58 163h-198l-50 -148l89 -20v-39h-201zM269 492l-83 -245h170l-86 245h-1zM224 684c-31 0 -55 24 -55 55c0 29 24 53 55 53s55 -24 55 -53c0 -31 -24 -55 -55 -55zM413 684c-31 0 -55 24 -55 55
c0 29 24 53 55 53s56 -24 56 -53c0 -31 -25 -55 -56 -55z" />
    <glyph glyph-name="Aring" unicode="&#xc5;" horiz-adv-x="609" 
d="M10 0v39l61 17l200 579h66l209 -593l53 -3v-39h-244v39l73 5l-58 163h-198l-50 -148l89 -20v-39h-201zM269 492l-83 -245h170l-86 245h-1zM318 711c29 0 50 23 50 54c0 28 -21 54 -50 54c-31 0 -49 -26 -49 -54c0 -31 18 -54 49 -54zM318 679c-49 0 -85 37 -85 86
c0 48 36 87 85 87c48 0 87 -39 87 -87c0 -49 -39 -86 -87 -86z" />
    <glyph glyph-name="Ccedilla" unicode="&#xc7;" horiz-adv-x="596" 
d="M300 -222c-40 0 -61 5 -85 16l8 32c11 -5 26 -11 57 -11s51 15 51 40c0 33 -23 46 -70 38v94c-21 4 -41 10 -60 17c-106 46 -171 153 -171 303c0 198 142 329 298 329c79 0 134 -33 174 -81l14 63h33v-193h-36c-29 111 -86 166 -182 166c-103 0 -182 -94 -182 -281
c0 -183 64 -274 193 -274c93 0 149 50 185 126l34 -14c-40 -103 -127 -166 -240 -166c-6 0 -12 0 -18 1v-49c57 5 107 -22 107 -73c0 -53 -46 -83 -110 -83z" />
    <glyph glyph-name="Eacute" unicode="&#xc9;" horiz-adv-x="565" 
d="M457 451l-14 84c-8 40 -19 46 -66 46h-176v-244h82c27 0 41 11 43 32l6 76h37v-253h-36l-7 70c-3 29 -16 33 -43 33h-82v-251h183c73 0 81 4 89 55l14 95h39v-194h-500v39l64 6v536l-64 5v40h468v-175h-37zM280 678h-29l47 109c13 31 25 44 50 44c21 0 49 -18 49 -49
c0 -17 -11 -33 -33 -48z" />
    <glyph glyph-name="Ntilde" unicode="&#xd1;" horiz-adv-x="614" 
d="M26 0v39l63 10v531l-63 6v40h192l269 -420v365l-75 15v40h179v-40l-54 -13v-573h-49l-349 548v-494l94 -15v-39h-207zM402 700c-37 0 -95 27 -126 27c-19 -1 -34 -14 -43 -41h-35c11 59 42 117 97 117c34 0 93 -27 123 -27c20 0 34 13 42 40h36
c-13 -59 -42 -116 -94 -116z" />
    <glyph glyph-name="Odieresis" unicode="&#xd6;" horiz-adv-x="644" 
d="M321 27c113 0 174 94 174 281c0 185 -61 283 -174 283c-111 0 -172 -98 -172 -283c0 -187 61 -281 172 -281zM321 -18c-149 0 -291 126 -291 326c0 197 142 328 291 328c151 0 293 -131 293 -328c0 -200 -142 -326 -293 -326zM239 684c-31 0 -55 24 -55 55
c0 29 24 53 55 53s55 -24 55 -53c0 -31 -24 -55 -55 -55zM428 684c-31 0 -55 24 -55 55c0 29 24 53 55 53s56 -24 56 -53c0 -31 -25 -55 -56 -55z" />
    <glyph glyph-name="Udieresis" unicode="&#xdc;" horiz-adv-x="608" 
d="M315 -13c-157 0 -234 86 -234 209v386l-56 4v40h245v-40l-80 -5v-372c0 -107 37 -168 144 -168c104 0 141 59 141 168v364l-73 13v40h181v-40l-57 -13v-372c0 -120 -55 -214 -211 -214zM250 684c-31 0 -55 24 -55 55c0 29 24 53 55 53s55 -24 55 -53
c0 -31 -24 -55 -55 -55zM439 684c-31 0 -55 24 -55 55c0 29 24 53 55 53s56 -24 56 -53c0 -31 -25 -55 -56 -55z" />
    <glyph glyph-name="aacute" unicode="&#xe1;" horiz-adv-x="462" 
d="M150 -10c-68 0 -127 35 -127 116c0 89 75 136 174 136c32 0 57 -5 77 -12v115c0 45 -22 71 -73 71c-21 0 -39 -4 -54 -11c-11 -5 -16 -10 -16 -15c0 -11 27 -12 27 -48c0 -27 -22 -46 -50 -46c-31 0 -54 23 -54 56c0 72 91 110 166 110c92 0 153 -33 153 -121v-256
c0 -27 10 -34 29 -34s28 4 45 15l16 -22c-14 -17 -40 -53 -102 -53c-43 0 -71 21 -84 64c-29 -35 -68 -65 -127 -65zM197 48c35 0 62 18 77 30v117c-20 5 -36 9 -67 9c-44 0 -84 -22 -84 -81c0 -51 31 -75 74 -75zM189 516l49 140c9 27 22 38 46 38c20 0 46 -18 46 -46
c0 -13 -8 -28 -23 -43l-91 -89h-27z" />
    <glyph glyph-name="agrave" unicode="&#xe0;" horiz-adv-x="462" 
d="M150 -10c-68 0 -127 35 -127 116c0 89 75 136 174 136c32 0 57 -5 77 -12v115c0 45 -22 71 -73 71c-21 0 -39 -4 -54 -11c-11 -5 -16 -10 -16 -15c0 -11 27 -12 27 -48c0 -27 -22 -46 -50 -46c-31 0 -54 23 -54 56c0 72 91 110 166 110c92 0 153 -33 153 -121v-256
c0 -27 10 -34 29 -34s28 4 45 15l16 -22c-14 -17 -40 -53 -102 -53c-43 0 -71 21 -84 64c-29 -35 -68 -65 -127 -65zM197 48c35 0 62 18 77 30v117c-20 5 -36 9 -67 9c-44 0 -84 -22 -84 -81c0 -51 31 -75 74 -75zM227 516l-91 89c-15 15 -23 29 -23 43c0 28 25 46 46 46
c23 0 38 -13 47 -38l48 -140h-27z" />
    <glyph glyph-name="acircumflex" unicode="&#xe2;" horiz-adv-x="462" 
d="M150 -10c-68 0 -127 35 -127 116c0 89 75 136 174 136c32 0 57 -5 77 -12v115c0 45 -22 71 -73 71c-21 0 -39 -4 -54 -11c-11 -5 -16 -10 -16 -15c0 -11 27 -12 27 -48c0 -27 -22 -46 -50 -46c-31 0 -54 23 -54 56c0 72 91 110 166 110c92 0 153 -33 153 -121v-256
c0 -27 10 -34 29 -34s28 4 45 15l16 -22c-14 -17 -40 -53 -102 -53c-43 0 -71 21 -84 64c-29 -35 -68 -65 -127 -65zM197 48c35 0 62 18 77 30v117c-20 5 -36 9 -67 9c-44 0 -84 -22 -84 -81c0 -51 31 -75 74 -75zM120 516h-28l85 151h70l87 -151h-30l-92 80z" />
    <glyph glyph-name="adieresis" unicode="&#xe4;" horiz-adv-x="462" 
d="M150 -10c-68 0 -127 35 -127 116c0 89 75 136 174 136c32 0 57 -5 77 -12v115c0 45 -22 71 -73 71c-21 0 -39 -4 -54 -11c-11 -5 -16 -10 -16 -15c0 -11 27 -12 27 -48c0 -27 -22 -46 -50 -46c-31 0 -54 23 -54 56c0 72 91 110 166 110c92 0 153 -33 153 -121v-256
c0 -27 10 -34 29 -34s28 4 45 15l16 -22c-14 -17 -40 -53 -102 -53c-43 0 -71 21 -84 64c-29 -35 -68 -65 -127 -65zM197 48c35 0 62 18 77 30v117c-20 5 -36 9 -67 9c-44 0 -84 -22 -84 -81c0 -51 31 -75 74 -75zM132 548c-31 0 -54 23 -54 54s23 54 54 54s54 -23 54 -54
s-23 -54 -54 -54zM305 548c-31 0 -55 23 -55 54s24 54 55 54c29 0 53 -23 53 -54s-24 -54 -53 -54z" />
    <glyph glyph-name="atilde" unicode="&#xe3;" horiz-adv-x="462" 
d="M150 -10c-68 0 -127 35 -127 116c0 89 75 136 174 136c32 0 57 -5 77 -12v115c0 45 -22 71 -73 71c-21 0 -39 -4 -54 -11c-11 -5 -16 -10 -16 -15c0 -11 27 -12 27 -48c0 -27 -22 -46 -50 -46c-31 0 -54 23 -54 56c0 72 91 110 166 110c92 0 153 -33 153 -121v-256
c0 -27 10 -34 29 -34s28 4 45 15l16 -22c-14 -17 -40 -53 -102 -53c-43 0 -71 21 -84 64c-29 -35 -68 -65 -127 -65zM197 48c35 0 62 18 77 30v117c-20 5 -36 9 -67 9c-44 0 -84 -22 -84 -81c0 -51 31 -75 74 -75zM271 551c-39 0 -84 27 -113 27c-21 0 -35 -13 -43 -40h-37
c13 59 43 114 95 114c37 0 83 -27 112 -27c19 0 33 13 42 40h36c-13 -59 -41 -114 -92 -114z" />
    <glyph glyph-name="aring" unicode="&#xe5;" horiz-adv-x="462" 
d="M150 -10c-68 0 -127 35 -127 116c0 89 75 136 174 136c32 0 57 -5 77 -12v115c0 45 -22 71 -73 71c-21 0 -39 -4 -54 -11c-11 -5 -16 -10 -16 -15c0 -11 27 -12 27 -48c0 -27 -22 -46 -50 -46c-31 0 -54 23 -54 56c0 72 91 110 166 110c92 0 153 -33 153 -121v-256
c0 -27 10 -34 29 -34s28 4 45 15l16 -22c-14 -17 -40 -53 -102 -53c-43 0 -71 21 -84 64c-29 -35 -68 -65 -127 -65zM197 48c35 0 62 18 77 30v117c-20 5 -36 9 -67 9c-44 0 -84 -22 -84 -81c0 -51 31 -75 74 -75zM218 554c29 0 50 23 50 54c0 28 -21 53 -50 53
c-31 0 -49 -25 -49 -53c0 -31 18 -54 49 -54zM218 522c-49 0 -85 37 -85 86c0 48 36 86 85 86c48 0 87 -38 87 -86c0 -49 -39 -86 -87 -86z" />
    <glyph glyph-name="ccedilla" unicode="&#xe7;" horiz-adv-x="432" 
d="M204 -222c-40 0 -61 5 -85 16l8 32c11 -5 26 -11 57 -11s51 15 51 40c0 33 -23 46 -70 38v100c-6 2 -12 4 -17 6c-77 31 -123 108 -123 208c0 157 112 254 233 254c83 0 143 -37 143 -101c0 -31 -22 -48 -53 -48c-29 0 -41 13 -45 36c-5 35 2 70 -48 70
c-81 0 -124 -77 -124 -193c0 -127 47 -183 123 -183c70 0 109 50 127 102l31 -9c-18 -84 -77 -152 -177 -152c-10 0 -19 1 -28 2v-51c57 5 107 -22 107 -73c0 -53 -46 -83 -110 -83z" />
    <glyph glyph-name="eacute" unicode="&#xe9;" horiz-adv-x="450" 
d="M243 -17c-136 0 -218 101 -218 236c0 141 104 242 220 242c96 0 179 -57 179 -208l-4 -7h-289v-20c0 -113 50 -184 133 -184c64 0 109 25 134 96l31 -14c-31 -93 -89 -141 -186 -141zM239 418c-60 0 -94 -53 -105 -133h190c-1 93 -28 133 -85 133zM212 516l49 140
c9 27 22 38 46 38c20 0 46 -18 46 -46c0 -13 -8 -28 -23 -43l-91 -89h-27z" />
    <glyph glyph-name="egrave" unicode="&#xe8;" horiz-adv-x="450" 
d="M243 -17c-136 0 -218 101 -218 236c0 141 104 242 220 242c96 0 179 -57 179 -208l-4 -7h-289v-20c0 -113 50 -184 133 -184c64 0 109 25 134 96l31 -14c-31 -93 -89 -141 -186 -141zM239 418c-60 0 -94 -53 -105 -133h190c-1 93 -28 133 -85 133zM246 516l-91 89
c-15 15 -23 29 -23 43c0 28 25 46 46 46c23 0 38 -13 47 -38l48 -140h-27z" />
    <glyph glyph-name="ecircumflex" unicode="&#xea;" horiz-adv-x="450" 
d="M243 -17c-136 0 -218 101 -218 236c0 141 104 242 220 242c96 0 179 -57 179 -208l-4 -7h-289v-20c0 -113 50 -184 133 -184c64 0 109 25 134 96l31 -14c-31 -93 -89 -141 -186 -141zM239 418c-60 0 -94 -53 -105 -133h190c-1 93 -28 133 -85 133zM146 516h-28l85 151h70
l87 -151h-30l-92 80z" />
    <glyph glyph-name="edieresis" unicode="&#xeb;" horiz-adv-x="450" 
d="M243 -17c-136 0 -218 101 -218 236c0 141 104 242 220 242c96 0 179 -57 179 -208l-4 -7h-289v-20c0 -113 50 -184 133 -184c64 0 109 25 134 96l31 -14c-31 -93 -89 -141 -186 -141zM239 418c-60 0 -94 -53 -105 -133h190c-1 93 -28 133 -85 133zM158 548
c-31 0 -54 23 -54 54s23 54 54 54s54 -23 54 -54s-23 -54 -54 -54zM331 548c-31 0 -55 23 -55 54s24 54 55 54c29 0 53 -23 53 -54s-24 -54 -53 -54z" />
    <glyph glyph-name="iacute" unicode="&#xed;" horiz-adv-x="261" 
d="M16 0v38l69 4v343l-72 -9v41l161 38l10 -5v-408l62 -4v-38h-230zM87 516l49 140c9 27 22 38 46 38c20 0 46 -18 46 -46c0 -13 -8 -28 -23 -43l-91 -89h-27z" />
    <glyph glyph-name="igrave" unicode="&#xec;" horiz-adv-x="261" 
d="M16 0v38l69 4v343l-72 -9v41l161 38l10 -5v-408l62 -4v-38h-230zM126 516l-91 89c-15 15 -23 29 -23 43c0 28 25 46 46 46c23 0 38 -13 47 -38l48 -140h-27z" />
    <glyph glyph-name="icircumflex" unicode="&#xee;" horiz-adv-x="261" 
d="M16 0v38l69 4v343l-72 -9v41l161 38l10 -5v-408l62 -4v-38h-230zM20 516h-28l85 151h70l87 -151h-30l-92 80z" />
    <glyph glyph-name="idieresis" unicode="&#xef;" horiz-adv-x="261" 
d="M16 0v38l69 4v343l-72 -9v41l161 38l10 -5v-408l62 -4v-38h-230zM31 548c-31 0 -54 23 -54 54s23 54 54 54s54 -23 54 -54s-23 -54 -54 -54zM204 548c-31 0 -55 23 -55 54s24 54 55 54c29 0 53 -23 53 -54s-24 -54 -53 -54z" />
    <glyph glyph-name="ntilde" unicode="&#xf1;" horiz-adv-x="523" 
d="M16 0v38l69 5v342l-68 -11v41l157 40l10 -5v-77c17 21 39 39 60 56c27 19 58 33 87 33c77 0 120 -38 120 -130v-292l57 -2v-38h-209v38l53 2v286c0 39 -20 60 -67 60c-35 0 -68 -16 -101 -40v-304l59 -4v-38h-227zM322 551c-39 0 -84 27 -113 27c-21 0 -35 -13 -43 -40
h-37c13 59 43 114 95 114c37 0 83 -27 112 -27c19 0 33 13 42 40h36c-13 -59 -41 -114 -92 -114z" />
    <glyph glyph-name="oacute" unicode="&#xf3;" horiz-adv-x="497" 
d="M249 25c84 0 118 81 118 196s-34 197 -118 197s-118 -82 -118 -197s34 -196 118 -196zM249 -17c-114 0 -224 91 -224 238c0 146 110 240 224 240c115 0 224 -97 224 -240c0 -147 -109 -238 -224 -238zM220 516l49 140c9 27 22 38 46 38c20 0 46 -18 46 -46
c0 -13 -8 -28 -23 -43l-91 -89h-27z" />
    <glyph glyph-name="ograve" unicode="&#xf2;" horiz-adv-x="497" 
d="M249 25c84 0 118 81 118 196s-34 197 -118 197s-118 -82 -118 -197s34 -196 118 -196zM249 -17c-114 0 -224 91 -224 238c0 146 110 240 224 240c115 0 224 -97 224 -240c0 -147 -109 -238 -224 -238zM257 516l-91 89c-15 15 -23 29 -23 43c0 28 25 46 46 46
c23 0 38 -13 47 -38l48 -140h-27z" />
    <glyph glyph-name="ocircumflex" unicode="&#xf4;" horiz-adv-x="497" 
d="M249 25c84 0 118 81 118 196s-34 197 -118 197s-118 -82 -118 -197s34 -196 118 -196zM249 -17c-114 0 -224 91 -224 238c0 146 110 240 224 240c115 0 224 -97 224 -240c0 -147 -109 -238 -224 -238zM152 516h-28l85 151h70l87 -151h-30l-92 80z" />
    <glyph glyph-name="odieresis" unicode="&#xf6;" horiz-adv-x="497" 
d="M249 25c84 0 118 81 118 196s-34 197 -118 197s-118 -82 -118 -197s34 -196 118 -196zM249 -17c-114 0 -224 91 -224 238c0 146 110 240 224 240c115 0 224 -97 224 -240c0 -147 -109 -238 -224 -238zM164 548c-31 0 -54 23 -54 54s23 54 54 54s54 -23 54 -54
s-23 -54 -54 -54zM337 548c-31 0 -55 23 -55 54s24 54 55 54c29 0 53 -23 53 -54s-24 -54 -53 -54z" />
    <glyph glyph-name="otilde" unicode="&#xf5;" horiz-adv-x="497" 
d="M249 25c84 0 118 81 118 196s-34 197 -118 197s-118 -82 -118 -197s34 -196 118 -196zM249 -17c-114 0 -224 91 -224 238c0 146 110 240 224 240c115 0 224 -97 224 -240c0 -147 -109 -238 -224 -238zM304 551c-39 0 -84 27 -113 27c-21 0 -35 -13 -43 -40h-37
c13 59 43 114 95 114c37 0 83 -27 112 -27c19 0 33 13 42 40h36c-13 -59 -41 -114 -92 -114z" />
    <glyph glyph-name="uacute" unicode="&#xfa;" horiz-adv-x="516" 
d="M197 -15c-77 0 -125 40 -125 124v294l-57 3v39h155v-328c0 -43 16 -66 65 -66c32 0 69 17 102 40v311l-54 4v39h154v-395l67 4v-37l-154 -25l-9 5l2 72c-17 -20 -36 -38 -56 -51c-28 -20 -57 -33 -90 -33zM220 516l49 140c9 27 22 38 46 38c20 0 46 -18 46 -46
c0 -13 -8 -28 -23 -43l-91 -89h-27z" />
    <glyph glyph-name="ugrave" unicode="&#xf9;" horiz-adv-x="516" 
d="M197 -15c-77 0 -125 40 -125 124v294l-57 3v39h155v-328c0 -43 16 -66 65 -66c32 0 69 17 102 40v311l-54 4v39h154v-395l67 4v-37l-154 -25l-9 5l2 72c-17 -20 -36 -38 -56 -51c-28 -20 -57 -33 -90 -33zM257 516l-91 89c-15 15 -23 29 -23 43c0 28 25 46 46 46
c23 0 38 -13 47 -38l48 -140h-27z" />
    <glyph glyph-name="ucircumflex" unicode="&#xfb;" horiz-adv-x="516" 
d="M197 -15c-77 0 -125 40 -125 124v294l-57 3v39h155v-328c0 -43 16 -66 65 -66c32 0 69 17 102 40v311l-54 4v39h154v-395l67 4v-37l-154 -25l-9 5l2 72c-17 -20 -36 -38 -56 -51c-28 -20 -57 -33 -90 -33zM152 516h-28l85 151h70l87 -151h-30l-92 80z" />
    <glyph glyph-name="udieresis" unicode="&#xfc;" horiz-adv-x="516" 
d="M197 -15c-77 0 -125 40 -125 124v294l-57 3v39h155v-328c0 -43 16 -66 65 -66c32 0 69 17 102 40v311l-54 4v39h154v-395l67 4v-37l-154 -25l-9 5l2 72c-17 -20 -36 -38 -56 -51c-28 -20 -57 -33 -90 -33zM164 548c-31 0 -54 23 -54 54s23 54 54 54s54 -23 54 -54
s-23 -54 -54 -54zM337 548c-31 0 -55 23 -55 54s24 54 55 54c29 0 53 -23 53 -54s-24 -54 -53 -54z" />
    <glyph glyph-name="Agrave" unicode="&#xc0;" horiz-adv-x="609" 
d="M10 0v39l61 17l200 579h66l209 -593l53 -3v-39h-244v39l73 5l-58 163h-198l-50 -148l89 -20v-39h-201zM269 492l-83 -245h170l-86 245h-1zM365 678h-29l-84 56c-22 15 -33 31 -33 48c0 31 26 49 49 49c25 0 35 -13 50 -44z" />
    <glyph glyph-name="Atilde" unicode="&#xc3;" horiz-adv-x="609" 
d="M10 0v39l61 17l200 579h66l209 -593l53 -3v-39h-244v39l73 5l-58 163h-198l-50 -148l89 -20v-39h-201zM269 492l-83 -245h170l-86 245h-1zM382 700c-37 0 -95 27 -126 27c-19 -1 -34 -14 -43 -41h-35c11 59 42 117 97 117c34 0 93 -27 123 -27c20 0 34 13 42 40h36
c-13 -59 -42 -116 -94 -116z" />
    <glyph glyph-name="Otilde" unicode="&#xd5;" horiz-adv-x="644" 
d="M321 27c113 0 174 94 174 281c0 185 -61 283 -174 283c-111 0 -172 -98 -172 -283c0 -187 61 -281 172 -281zM321 -18c-149 0 -291 126 -291 326c0 197 142 328 291 328c151 0 293 -131 293 -328c0 -200 -142 -326 -293 -326zM397 700c-37 0 -95 27 -126 27
c-19 -1 -34 -14 -43 -41h-35c11 59 42 117 97 117c34 0 93 -27 123 -27c20 0 34 13 42 40h36c-13 -59 -42 -116 -94 -116z" />
    <glyph glyph-name="ydieresis" unicode="&#xff;" horiz-adv-x="474" 
d="M103 -263c-52 0 -76 33 -76 61c0 32 22 50 47 50c15 0 22 -4 29 -9c-3 -31 12 -42 27 -42c24 0 48 27 81 122l20 58l-184 428l-40 3v38h212v-38l-59 -4l117 -292h1l98 281l-60 15v38h151v-38l-42 -12l-171 -481c-45 -125 -79 -178 -151 -178zM178 548
c-31 0 -54 23 -54 54s23 54 54 54s54 -23 54 -54s-23 -54 -54 -54zM351 548c-31 0 -55 23 -55 54s24 54 55 54c29 0 53 -23 53 -54s-24 -54 -53 -54z" />
    <glyph glyph-name="Ydieresis" unicode="&#x178;" horiz-adv-x="556" 
d="M155 0v39l74 7v252l-170 285l-43 3v40h233v-40l-64 -4l134 -239l119 224l-66 19v40h168v-40l-50 -19l-150 -277v-245l74 -6v-39h-259zM225 684c-31 0 -55 24 -55 55c0 29 24 53 55 53s55 -24 55 -53c0 -31 -24 -55 -55 -55zM414 684c-31 0 -55 24 -55 55
c0 29 24 53 55 53s56 -24 56 -53c0 -31 -25 -55 -56 -55z" />
    <glyph glyph-name="Acircumflex" unicode="&#xc2;" horiz-adv-x="609" 
d="M10 0v39l61 17l200 579h66l209 -593l53 -3v-39h-244v39l73 5l-58 163h-198l-50 -148l89 -20v-39h-201zM269 492l-83 -245h170l-86 245h-1zM219 678h-29l92 131h72l93 -131h-30l-100 65z" />
    <glyph glyph-name="Ecircumflex" unicode="&#xca;" horiz-adv-x="565" 
d="M457 451l-14 84c-8 40 -19 46 -66 46h-176v-244h82c27 0 41 11 43 32l6 76h37v-253h-36l-7 70c-3 29 -16 33 -43 33h-82v-251h183c73 0 81 4 89 55l14 95h39v-194h-500v39l64 6v536l-64 5v40h468v-175h-37zM191 678h-29l92 131h72l93 -131h-30l-100 65z" />
    <glyph glyph-name="Aacute" unicode="&#xc1;" horiz-adv-x="609" 
d="M10 0v39l61 17l200 579h66l209 -593l53 -3v-39h-244v39l73 5l-58 163h-198l-50 -148l89 -20v-39h-201zM269 492l-83 -245h170l-86 245h-1zM308 678h-29l47 109c13 31 25 44 50 44c21 0 49 -18 49 -49c0 -17 -11 -33 -33 -48z" />
    <glyph glyph-name="Edieresis" unicode="&#xcb;" horiz-adv-x="565" 
d="M457 451l-14 84c-8 40 -19 46 -66 46h-176v-244h82c27 0 41 11 43 32l6 76h37v-253h-36l-7 70c-3 29 -16 33 -43 33h-82v-251h183c73 0 81 4 89 55l14 95h39v-194h-500v39l64 6v536l-64 5v40h468v-175h-37zM194 684c-31 0 -55 24 -55 55c0 29 24 53 55 53s55 -24 55 -53
c0 -31 -24 -55 -55 -55zM383 684c-31 0 -55 24 -55 55c0 29 24 53 55 53s56 -24 56 -53c0 -31 -25 -55 -56 -55z" />
    <glyph glyph-name="Egrave" unicode="&#xc8;" horiz-adv-x="565" 
d="M457 451l-14 84c-8 40 -19 46 -66 46h-176v-244h82c27 0 41 11 43 32l6 76h37v-253h-36l-7 70c-3 29 -16 33 -43 33h-82v-251h183c73 0 81 4 89 55l14 95h39v-194h-500v39l64 6v536l-64 5v40h468v-175h-37zM337 678h-29l-84 56c-22 15 -33 31 -33 48c0 31 26 49 49 49
c25 0 35 -13 50 -44z" />
    <glyph glyph-name="Iacute" unicode="&#xcd;" horiz-adv-x="309" 
d="M26 0v39l73 8v532l-73 7v40h257v-40l-73 -6v-532l73 -9v-39h-257zM129 678h-29l47 109c13 31 25 44 50 44c21 0 49 -18 49 -49c0 -17 -11 -33 -33 -48z" />
    <glyph glyph-name="Icircumflex" unicode="&#xce;" horiz-adv-x="309" 
d="M26 0v39l73 8v532l-73 7v40h257v-40l-73 -6v-532l73 -9v-39h-257zM42 678h-29l92 131h72l93 -131h-30l-100 65z" />
    <glyph glyph-name="Idieresis" unicode="&#xcf;" horiz-adv-x="309" 
d="M26 0v39l73 8v532l-73 7v40h257v-40l-73 -6v-532l73 -9v-39h-257zM46 684c-31 0 -55 24 -55 55c0 29 24 53 55 53s55 -24 55 -53c0 -31 -24 -55 -55 -55zM235 684c-31 0 -55 24 -55 55c0 29 24 53 55 53s56 -24 56 -53c0 -31 -25 -55 -56 -55z" />
    <glyph glyph-name="Igrave" unicode="&#xcc;" horiz-adv-x="309" 
d="M26 0v39l73 8v532l-73 7v40h257v-40l-73 -6v-532l73 -9v-39h-257zM193 678h-29l-84 56c-22 15 -33 31 -33 48c0 31 26 49 49 49c25 0 35 -13 50 -44z" />
    <glyph glyph-name="Oacute" unicode="&#xd3;" horiz-adv-x="644" 
d="M321 27c113 0 174 94 174 281c0 185 -61 283 -174 283c-111 0 -172 -98 -172 -283c0 -187 61 -281 172 -281zM321 -18c-149 0 -291 126 -291 326c0 197 142 328 291 328c151 0 293 -131 293 -328c0 -200 -142 -326 -293 -326zM325 678h-29l47 109c13 31 25 44 50 44
c21 0 49 -18 49 -49c0 -17 -11 -33 -33 -48z" />
    <glyph glyph-name="Ocircumflex" unicode="&#xd4;" horiz-adv-x="644" 
d="M321 27c113 0 174 94 174 281c0 185 -61 283 -174 283c-111 0 -172 -98 -172 -283c0 -187 61 -281 172 -281zM321 -18c-149 0 -291 126 -291 326c0 197 142 328 291 328c151 0 293 -131 293 -328c0 -200 -142 -326 -293 -326zM234 678h-29l92 131h72l93 -131h-30l-100 65
z" />
    <glyph glyph-name="Ograve" unicode="&#xd2;" horiz-adv-x="644" 
d="M321 27c113 0 174 94 174 281c0 185 -61 283 -174 283c-111 0 -172 -98 -172 -283c0 -187 61 -281 172 -281zM321 -18c-149 0 -291 126 -291 326c0 197 142 328 291 328c151 0 293 -131 293 -328c0 -200 -142 -326 -293 -326zM382 678h-29l-84 56c-22 15 -33 31 -33 48
c0 31 26 49 49 49c25 0 35 -13 50 -44z" />
    <glyph glyph-name="Uacute" unicode="&#xda;" horiz-adv-x="608" 
d="M315 -13c-157 0 -234 86 -234 209v386l-56 4v40h245v-40l-80 -5v-372c0 -107 37 -168 144 -168c104 0 141 59 141 168v364l-73 13v40h181v-40l-57 -13v-372c0 -120 -55 -214 -211 -214zM339 678h-29l47 109c13 31 25 44 50 44c21 0 49 -18 49 -49c0 -17 -11 -33 -33 -48z
" />
    <glyph glyph-name="Ucircumflex" unicode="&#xdb;" horiz-adv-x="608" 
d="M315 -13c-157 0 -234 86 -234 209v386l-56 4v40h245v-40l-80 -5v-372c0 -107 37 -168 144 -168c104 0 141 59 141 168v364l-73 13v40h181v-40l-57 -13v-372c0 -120 -55 -214 -211 -214zM248 678h-29l92 131h72l93 -131h-30l-100 65z" />
    <glyph glyph-name="Ugrave" unicode="&#xd9;" horiz-adv-x="608" 
d="M315 -13c-157 0 -234 86 -234 209v386l-56 4v40h245v-40l-80 -5v-372c0 -107 37 -168 144 -168c104 0 141 59 141 168v364l-73 13v40h181v-40l-57 -13v-372c0 -120 -55 -214 -211 -214zM395 678h-29l-84 56c-22 15 -33 31 -33 48c0 31 26 49 49 49c25 0 35 -13 50 -44z
" />
    <glyph glyph-name="Abreve" unicode="&#x102;" horiz-adv-x="609" 
d="M10 0v39l61 17l200 579h66l209 -593l53 -3v-39h-244v39l73 5l-58 163h-198l-50 -148l89 -20v-39h-201zM269 492l-83 -245h170l-86 245h-1zM318 677c-81 0 -116 71 -121 132h33c9 -40 33 -62 88 -62c56 0 79 22 88 62h33c-5 -60 -39 -132 -121 -132z" />
    <glyph glyph-name="Amacron" unicode="&#x100;" horiz-adv-x="609" 
d="M10 0v39l61 17l200 579h66l209 -593l53 -3v-39h-244v39l73 5l-58 163h-198l-50 -148l89 -20v-39h-201zM269 492l-83 -245h170l-86 245h-1zM189 706v54h258v-54h-258z" />
    <glyph glyph-name="Aogonek" unicode="&#x104;" horiz-adv-x="609" 
d="M10 0v39l61 17l200 579h66l210 -593l52 -3v-39h-138c-40 -55 -80 -115 -80 -171c0 -32 13 -51 41 -51c19 0 32 11 43 23l21 -21c-13 -21 -43 -55 -97 -55c-56 0 -101 33 -101 93c0 64 68 127 147 201l-66 188h-197l-50 -148l89 -20v-39h-201zM269 492l-83 -245h169
l-85 245h-1z" />
    <glyph glyph-name="Aringacute" unicode="&#x1fa;" horiz-adv-x="609" 
d="M10 0v39l61 17l200 579h66l209 -593l53 -3v-39h-244v39l73 5l-58 163h-198l-50 -148l89 -20v-39h-201zM269 492l-83 -245h170l-86 245h-1zM316 844h-29l47 109c13 31 25 44 50 44c21 0 49 -18 49 -49c0 -17 -11 -33 -33 -48zM317 648c29 0 50 23 50 54
c0 28 -21 54 -50 54c-31 0 -49 -26 -49 -54c0 -31 18 -54 49 -54zM317 616c-49 0 -85 37 -85 86c0 48 36 87 85 87c48 0 87 -39 87 -87c0 -49 -39 -86 -87 -86z" />
    <glyph glyph-name="AEacute" unicode="&#x1fc;" horiz-adv-x="837" 
d="M545 678h-29l47 109c13 31 25 44 50 44c21 0 49 -18 49 -49c0 -17 -11 -33 -33 -48zM14 0v39l64 18l257 522l-83 7v40h510v-175h-37l-14 84c-8 40 -19 46 -65 46h-154v-249h59c27 0 41 11 43 32l7 75h36v-253h-36l-7 71c-3 28 -16 33 -43 33h-59v-246h160
c73 0 81 4 89 55l15 95h37v-194h-475v39l64 7v241h-139l-112 -230l87 -18v-39h-204zM380 565l-116 -236h118v236h-2z" />
    <glyph glyph-name="Cacute" unicode="&#x106;" horiz-adv-x="596" 
d="M321 -18c-176 0 -291 125 -291 325c0 198 142 329 298 329c79 0 134 -33 174 -81l14 63h33v-193h-36c-29 111 -86 166 -182 166c-103 0 -182 -94 -182 -281c0 -183 64 -274 193 -274c93 0 149 50 185 126l34 -14c-40 -103 -127 -166 -240 -166zM326 678h-29l47 109
c13 31 25 44 50 44c21 0 49 -18 49 -49c0 -17 -11 -33 -33 -48z" />
    <glyph glyph-name="Ccaron" unicode="&#x10c;" horiz-adv-x="596" 
d="M321 -18c-176 0 -291 125 -291 325c0 198 142 329 298 329c79 0 134 -33 174 -81l14 63h33v-193h-36c-29 111 -86 166 -182 166c-103 0 -182 -94 -182 -281c0 -183 64 -274 193 -274c93 0 149 50 185 126l34 -14c-40 -103 -127 -166 -240 -166zM206 809h29l99 -65l99 65
h30l-93 -131h-72z" />
    <glyph glyph-name="Ccircumflex" unicode="&#x108;" horiz-adv-x="596" 
d="M321 -18c-176 0 -291 125 -291 325c0 198 142 329 298 329c79 0 134 -33 174 -81l14 63h33v-193h-36c-29 111 -86 166 -182 166c-103 0 -182 -94 -182 -281c0 -183 64 -274 193 -274c93 0 149 50 185 126l34 -14c-40 -103 -127 -166 -240 -166zM235 678h-29l92 131h72
l93 -131h-30l-100 65z" />
    <glyph glyph-name="Cdotaccent" unicode="&#x10a;" horiz-adv-x="596" 
d="M321 -18c-176 0 -291 125 -291 325c0 198 142 329 298 329c79 0 134 -33 174 -81l14 63h33v-193h-36c-29 111 -86 166 -182 166c-103 0 -182 -94 -182 -281c0 -183 64 -274 193 -274c93 0 149 50 185 126l34 -14c-40 -103 -127 -166 -240 -166zM332 685
c-32 0 -58 25 -58 57s26 57 58 57c33 0 58 -25 58 -57s-25 -57 -58 -57z" />
    <glyph glyph-name="Dcaron" unicode="&#x10e;" horiz-adv-x="619" 
d="M26 0v39l64 5v537l-64 5v40h259c154 0 304 -80 304 -312c0 -224 -149 -314 -299 -314h-264zM278 581h-77v-537h78c110 0 190 63 190 270c0 212 -77 267 -191 267zM174 809h29l99 -65l99 65h30l-93 -131h-72z" />
    <glyph glyph-name="Ebreve" unicode="&#x114;" horiz-adv-x="565" 
d="M457 451l-14 84c-8 40 -19 46 -66 46h-176v-244h82c27 0 41 11 43 32l6 76h37v-253h-36l-7 70c-3 29 -16 33 -43 33h-82v-251h183c73 0 81 4 89 55l14 95h39v-194h-500v39l64 6v536l-64 5v40h468v-175h-37zM290 677c-81 0 -116 71 -121 132h33c9 -40 33 -62 88 -62
c56 0 79 22 88 62h33c-5 -60 -39 -132 -121 -132z" />
    <glyph glyph-name="Ecaron" unicode="&#x11a;" horiz-adv-x="565" 
d="M457 451l-14 84c-8 40 -19 46 -66 46h-176v-244h82c27 0 41 11 43 32l6 76h37v-253h-36l-7 70c-3 29 -16 33 -43 33h-82v-251h183c73 0 81 4 89 55l14 95h39v-194h-500v39l64 6v536l-64 5v40h468v-175h-37zM162 809h29l99 -65l99 65h30l-93 -131h-72z" />
    <glyph glyph-name="Edotaccent" unicode="&#x116;" horiz-adv-x="565" 
d="M457 451l-14 84c-8 40 -19 46 -66 46h-176v-244h82c27 0 41 11 43 32l6 76h37v-253h-36l-7 70c-3 29 -16 33 -43 33h-82v-251h183c73 0 81 4 89 55l14 95h39v-194h-500v39l64 6v536l-64 5v40h468v-175h-37zM290 685c-32 0 -58 25 -58 57s26 57 58 57c33 0 58 -25 58 -57
s-25 -57 -58 -57z" />
    <glyph glyph-name="Emacron" unicode="&#x112;" horiz-adv-x="565" 
d="M457 451l-14 84c-8 40 -19 46 -66 46h-176v-244h82c27 0 41 11 43 32l6 76h37v-253h-36l-7 70c-3 29 -16 33 -43 33h-82v-251h183c73 0 81 4 89 55l14 95h39v-194h-500v39l64 6v536l-64 5v40h468v-175h-37zM161 706v54h258v-54h-258z" />
    <glyph glyph-name="Eogonek" unicode="&#x118;" horiz-adv-x="565" 
d="M457 451l-14 84c-8 40 -19 46 -66 46h-176v-244h82c27 0 41 11 43 32l6 76h37v-253h-36l-7 70c-3 29 -16 33 -43 33h-82v-251h183c73 0 81 4 89 55l14 95h39v-194h-76c-40 -55 -75 -115 -75 -171c0 -32 13 -51 40 -51c19 0 32 11 43 23l21 -21c-13 -21 -41 -55 -97 -55
s-100 34 -100 90c0 65 73 132 128 185h-384v39l64 6v536l-64 5v40h468v-175h-37z" />
    <glyph glyph-name="Gbreve" unicode="&#x11e;" horiz-adv-x="637" 
d="M329 -18c-180 0 -299 131 -299 324c0 199 148 330 301 330c75 0 132 -25 173 -74l12 54h35v-179h-38c-27 104 -77 154 -172 154c-103 0 -192 -93 -192 -281c0 -192 58 -283 191 -283c55 0 94 23 114 54c13 23 15 49 15 84v40l-76 7v40h240v-40l-60 -5v-106
c-42 -53 -117 -119 -244 -119zM340 677c-81 0 -116 71 -121 132h33c9 -40 33 -62 88 -62c56 0 79 22 88 62h33c-5 -60 -39 -132 -121 -132z" />
    <glyph glyph-name="Gcircumflex" unicode="&#x11c;" horiz-adv-x="637" 
d="M329 -18c-180 0 -299 131 -299 324c0 199 148 330 301 330c75 0 132 -25 173 -74l12 54h35v-179h-38c-27 104 -77 154 -172 154c-103 0 -192 -93 -192 -281c0 -192 58 -283 191 -283c55 0 94 23 114 54c13 23 15 49 15 84v40l-76 7v40h240v-40l-60 -5v-106
c-42 -53 -117 -119 -244 -119zM241 678h-29l92 131h72l93 -131h-30l-100 65z" />
    <glyph glyph-name="Gcommaaccent" unicode="&#x122;" horiz-adv-x="637" 
d="M288 -257l-11 32c51 19 78 45 78 73c0 13 -4 20 -11 20c-8 0 -13 -14 -34 -14c-27 0 -40 19 -40 46c0 28 26 50 61 50c47 0 79 -31 79 -80c0 -72 -58 -111 -122 -127zM329 -18c-180 0 -299 131 -299 324c0 199 148 330 301 330c75 0 132 -25 173 -74l12 54h35v-179h-38
c-27 104 -77 154 -172 154c-103 0 -192 -93 -192 -281c0 -192 58 -283 191 -283c55 0 94 23 114 54c13 23 15 49 15 84v40l-76 7v40h240v-40l-60 -5v-106c-42 -53 -117 -119 -244 -119z" />
    <glyph glyph-name="Gdotaccent" unicode="&#x120;" horiz-adv-x="637" 
d="M329 -18c-180 0 -299 131 -299 324c0 199 148 330 301 330c75 0 132 -25 173 -74l12 54h35v-179h-38c-27 104 -77 154 -172 154c-103 0 -192 -93 -192 -281c0 -192 58 -283 191 -283c55 0 94 23 114 54c13 23 15 49 15 84v40l-76 7v40h240v-40l-60 -5v-106
c-42 -53 -117 -119 -244 -119zM340 685c-32 0 -58 25 -58 57s26 57 58 57c33 0 58 -25 58 -57s-25 -57 -58 -57z" />
    <glyph glyph-name="Hcircumflex" unicode="&#x124;" horiz-adv-x="643" 
d="M374 0v39l71 6v259h-244v-259l69 -6v-39h-244v39l64 6v537l-64 4v40h244v-40l-69 -5v-236h244v234l-71 7v40h243v-40l-61 -5v-538l61 -4v-39h-243zM235 678h-29l92 131h72l93 -131h-30l-100 65z" />
    <glyph glyph-name="Idotaccent" unicode="&#x130;" horiz-adv-x="309" 
d="M26 0v39l73 8v532l-73 7v40h257v-40l-73 -6v-532l73 -9v-39h-257zM141 685c-32 0 -58 25 -58 57s26 57 58 57c33 0 58 -25 58 -57s-25 -57 -58 -57z" />
    <glyph glyph-name="Ibreve" unicode="&#x12c;" horiz-adv-x="309" 
d="M26 0v39l73 8v532l-73 7v40h257v-40l-73 -6v-532l73 -9v-39h-257zM141 677c-81 0 -116 71 -121 132h33c9 -40 33 -62 88 -62c56 0 79 22 88 62h33c-5 -60 -39 -132 -121 -132z" />
    <glyph glyph-name="Imacron" unicode="&#x12a;" horiz-adv-x="309" 
d="M26 0v39l73 8v532l-73 7v40h257v-40l-73 -6v-532l73 -9v-39h-257zM12 706v54h258v-54h-258z" />
    <glyph glyph-name="Iogonek" unicode="&#x12e;" horiz-adv-x="309" 
d="M26 0v39l73 8v532l-73 7v40h257v-40l-73 -6v-532l73 -9v-39h-81c-31 -53 -58 -111 -58 -171c0 -32 12 -51 41 -51c19 0 32 11 43 23l21 -21c-16 -21 -43 -55 -97 -55c-56 0 -102 34 -102 90c0 63 67 134 112 185h-136z" />
    <glyph glyph-name="Itilde" unicode="&#x128;" horiz-adv-x="309" 
d="M26 0v39l73 8v532l-73 7v40h257v-40l-73 -6v-532l73 -9v-39h-257zM205 700c-37 0 -95 27 -126 27c-19 -1 -34 -14 -43 -41h-35c11 59 42 117 97 117c34 0 93 -27 123 -27c20 0 34 13 42 40h36c-13 -59 -42 -116 -94 -116z" />
    <glyph glyph-name="Jcircumflex" unicode="&#x134;" horiz-adv-x="402" 
d="M137 -59c-80 0 -118 38 -118 90c0 43 28 66 61 66c29 0 52 -16 52 -47c0 -35 -29 -39 -29 -51c0 -11 9 -16 28 -16c51 0 73 43 73 115l-1 480l-72 8v40h249v-40l-66 -7v-416c0 -149 -76 -222 -177 -222zM164 678h-29l92 131h72l93 -131h-30l-100 65z" />
    <glyph glyph-name="Kcommaaccent" unicode="&#x136;" horiz-adv-x="611" 
d="M266 -257l-11 32c51 19 78 45 78 73c0 13 -4 20 -11 20c-8 0 -13 -14 -34 -14c-27 0 -40 19 -40 46c0 28 26 50 61 50c47 0 79 -31 79 -80c0 -72 -58 -111 -122 -127zM26 0v39l64 6v536l-64 5v40h246v-40l-71 -5v-536l69 -6v-39h-244zM360 0v39l60 5l-197 276v15l208 234
l-63 17v40h199v-40l-80 -17l-170 -195l229 -331l46 -4v-39h-232z" />
    <glyph glyph-name="Lacute" unicode="&#x139;" horiz-adv-x="534" 
d="M26 0v39l64 5v538l-64 4v40h254v-40l-79 -5v-537h165c64 0 78 10 89 103l9 66h39v-213h-477zM127 678h-29l47 109c13 31 25 44 50 44c21 0 49 -18 49 -49c0 -17 -11 -33 -33 -48z" />
    <glyph glyph-name="Lcaron" unicode="&#x13d;" horiz-adv-x="534" 
d="M26 0v39l64 5v538l-64 4v40h254v-40l-79 -5v-537h165c64 0 78 10 89 103l9 66h39v-213h-477zM311 477c19 29 28 57 28 82s-9 43 -25 60c4 28 21 41 42 41c29 0 48 -25 48 -64c0 -56 -34 -100 -73 -135z" />
    <glyph glyph-name="Lcommaaccent" unicode="&#x13b;" horiz-adv-x="534" 
d="M230 -257l-11 32c51 19 78 45 78 73c0 13 -4 20 -11 20c-8 0 -13 -14 -34 -14c-27 0 -40 19 -40 46c0 28 26 50 61 50c47 0 79 -31 79 -80c0 -72 -58 -111 -122 -127zM26 0v39l64 5v538l-64 4v40h254v-40l-79 -5v-537h165c64 0 78 10 89 103l9 66h39v-213h-477z" />
    <glyph glyph-name="Nacute" unicode="&#x143;" horiz-adv-x="614" 
d="M26 0v39l63 10v531l-63 6v40h192l269 -420v365l-75 15v40h179v-40l-54 -13v-573h-49l-349 548v-494l94 -15v-39h-207zM330 678h-29l47 109c13 31 25 44 50 44c21 0 49 -18 49 -49c0 -17 -11 -33 -33 -48z" />
    <glyph glyph-name="Ncaron" unicode="&#x147;" horiz-adv-x="614" 
d="M26 0v39l63 10v531l-63 6v40h192l269 -420v365l-75 15v40h179v-40l-54 -13v-573h-49l-349 548v-494l94 -15v-39h-207zM209 809h29l99 -65l99 65h30l-93 -131h-72z" />
    <glyph glyph-name="Ncommaaccent" unicode="&#x145;" horiz-adv-x="614" 
d="M287 -257l-11 32c51 19 78 45 78 73c0 13 -4 20 -11 20c-8 0 -13 -14 -34 -14c-27 0 -40 19 -40 46c0 28 26 50 61 50c47 0 79 -31 79 -80c0 -72 -58 -111 -122 -127zM26 0v39l63 10v531l-63 6v40h192l269 -420v365l-75 15v40h179v-40l-54 -13v-573h-49l-349 548v-494
l94 -15v-39h-207z" />
    <glyph glyph-name="Obreve" unicode="&#x14e;" horiz-adv-x="644" 
d="M321 27c113 0 174 94 174 281c0 185 -61 283 -174 283c-111 0 -172 -98 -172 -283c0 -187 61 -281 172 -281zM321 -18c-149 0 -291 126 -291 326c0 197 142 328 291 328c151 0 293 -131 293 -328c0 -200 -142 -326 -293 -326zM333 677c-81 0 -116 71 -121 132h33
c9 -40 33 -62 88 -62c56 0 79 22 88 62h33c-5 -60 -39 -132 -121 -132z" />
    <glyph glyph-name="Ohungarumlaut" unicode="&#x150;" horiz-adv-x="644" 
d="M321 27c113 0 174 94 174 281c0 185 -61 283 -174 283c-111 0 -172 -98 -172 -283c0 -187 61 -281 172 -281zM321 -18c-149 0 -291 126 -291 326c0 197 142 328 291 328c151 0 293 -131 293 -328c0 -200 -142 -326 -293 -326zM421 678h-27l21 113c7 31 23 40 46 40
c19 0 43 -15 43 -42c0 -15 -9 -28 -22 -43zM275 678h-26l21 113c7 31 24 40 45 40c19 0 43 -15 43 -42c0 -13 -7 -28 -21 -43z" />
    <glyph glyph-name="Omacron" unicode="&#x14c;" horiz-adv-x="644" 
d="M321 27c113 0 174 94 174 281c0 185 -61 283 -174 283c-111 0 -172 -98 -172 -283c0 -187 61 -281 172 -281zM321 -18c-149 0 -291 126 -291 326c0 197 142 328 291 328c151 0 293 -131 293 -328c0 -200 -142 -326 -293 -326zM204 706v54h258v-54h-258z" />
    <glyph glyph-name="Oslashacute" unicode="&#x1fe;" horiz-adv-x="644" 
d="M75 -26l-33 25l66 84c-48 56 -78 132 -78 225c0 197 142 328 291 328c63 0 121 -22 172 -62l59 76l34 -26l-62 -78c55 -57 90 -139 90 -238c0 -200 -142 -326 -293 -326c-68 0 -132 24 -184 71zM321 27c113 0 174 94 174 281c0 72 -8 128 -23 171l-290 -369
c29 -59 75 -83 139 -83zM149 308c0 -63 5 -113 16 -152l287 367c-29 47 -72 68 -131 68c-111 0 -172 -98 -172 -283zM325 678h-29l47 109c13 31 25 44 50 44c21 0 49 -18 49 -49c0 -17 -11 -33 -33 -48z" />
    <glyph glyph-name="Racute" unicode="&#x154;" horiz-adv-x="592" 
d="M26 0v39l64 5v538l-64 4v40h243c131 0 230 -53 230 -156c0 -87 -72 -140 -152 -156v-5c83 -11 117 -59 134 -139c19 -89 29 -126 70 -126c14 0 26 4 36 11l16 -31c-27 -19 -56 -33 -103 -33c-98 0 -124 73 -137 180c-13 99 -36 124 -102 124h-60v-250l70 -6v-39h-245z
M264 583h-63v-248h74c84 0 108 33 108 122c0 106 -59 126 -119 126zM268 678h-29l47 109c13 31 25 44 50 44c21 0 49 -18 49 -49c0 -17 -11 -33 -33 -48z" />
    <glyph glyph-name="Rcaron" unicode="&#x158;" horiz-adv-x="592" 
d="M26 0v39l64 5v538l-64 4v40h243c131 0 230 -53 230 -156c0 -87 -72 -140 -152 -156v-5c83 -11 117 -59 134 -139c19 -89 29 -126 70 -126c14 0 26 4 36 11l16 -31c-27 -19 -56 -33 -103 -33c-98 0 -124 73 -137 180c-13 99 -36 124 -102 124h-60v-250l70 -6v-39h-245z
M264 583h-63v-248h74c84 0 108 33 108 122c0 106 -59 126 -119 126zM140 809h29l99 -65l99 65h30l-93 -131h-72z" />
    <glyph glyph-name="Rcommaaccent" unicode="&#x156;" horiz-adv-x="592" 
d="M270 -257l-11 32c51 19 78 45 78 73c0 13 -4 20 -11 20c-8 0 -13 -14 -34 -14c-27 0 -40 19 -40 46c0 28 26 50 61 50c47 0 79 -31 79 -80c0 -72 -58 -111 -122 -127zM26 0v39l64 5v538l-64 4v40h243c131 0 230 -53 230 -156c0 -87 -72 -140 -152 -156v-5
c83 -11 117 -59 134 -139c19 -89 29 -126 70 -126c14 0 26 4 36 11l16 -31c-27 -19 -56 -33 -103 -33c-98 0 -124 73 -137 180c-13 99 -36 124 -102 124h-60v-250l70 -6v-39h-245zM264 583h-63v-248h74c84 0 108 33 108 122c0 106 -59 126 -119 126z" />
    <glyph glyph-name="Sacute" unicode="&#x15a;" horiz-adv-x="491" 
d="M254 -13c-67 0 -128 24 -167 75l-16 -48h-37v192h39c24 -139 103 -173 178 -173c67 0 130 34 130 110c0 67 -56 93 -154 125c-110 35 -183 77 -183 188c0 117 92 180 193 180c56 0 111 -26 139 -63l15 40h33v-159h-36c-21 84 -75 138 -158 138c-68 0 -111 -38 -111 -95
c0 -67 49 -88 151 -120c105 -35 192 -72 192 -195c0 -132 -104 -195 -208 -195zM241 678h-29l47 109c13 31 25 44 50 44c21 0 49 -18 49 -49c0 -17 -11 -33 -33 -48z" />
    <glyph glyph-name="Scedilla" unicode="&#x15e;" horiz-adv-x="491" 
d="M214 -222c-40 0 -61 5 -85 16l8 32c11 -5 26 -11 57 -11s51 15 51 40c0 33 -23 46 -70 38v107c-5 1 -10 3 -15 5c-29 13 -54 32 -73 57l-16 -48h-37v192h39c24 -139 103 -173 178 -173c67 0 130 34 130 110c0 67 -56 93 -154 125c-110 35 -183 77 -183 188
c0 117 92 180 193 180c56 0 111 -26 139 -63l15 40h33v-159h-36c-21 84 -75 138 -158 138c-68 0 -111 -38 -111 -95c0 -67 49 -88 151 -120c105 -35 192 -72 192 -195c0 -132 -104 -195 -208 -195c-13 0 -26 1 -37 3v-56c57 5 107 -22 107 -73c0 -53 -46 -83 -110 -83z" />
    <glyph glyph-name="Scircumflex" unicode="&#x15c;" horiz-adv-x="491" 
d="M254 -13c-67 0 -128 24 -167 75l-16 -48h-37v192h39c24 -139 103 -173 178 -173c67 0 130 34 130 110c0 67 -56 93 -154 125c-110 35 -183 77 -183 188c0 117 92 180 193 180c56 0 111 -26 139 -63l15 40h33v-159h-36c-21 84 -75 138 -158 138c-68 0 -111 -38 -111 -95
c0 -67 49 -88 151 -120c105 -35 192 -72 192 -195c0 -132 -104 -195 -208 -195zM150 678h-29l92 131h72l93 -131h-30l-100 65z" />
    <glyph glyph-name="Scommaaccent" unicode="&#x218;" horiz-adv-x="491" 
d="M195 -257l-11 32c51 19 78 45 78 73c0 13 -4 20 -11 20c-8 0 -13 -14 -34 -14c-27 0 -40 19 -40 46c0 28 26 50 61 50c47 0 79 -31 79 -80c0 -72 -58 -111 -122 -127zM254 -13c-67 0 -128 24 -167 75l-16 -48h-37v192h39c24 -139 103 -173 178 -173c67 0 130 34 130 110
c0 67 -56 93 -154 125c-110 35 -183 77 -183 188c0 117 92 180 193 180c56 0 111 -26 139 -63l15 40h33v-159h-36c-21 84 -75 138 -158 138c-68 0 -111 -38 -111 -95c0 -67 49 -88 151 -120c105 -35 192 -72 192 -195c0 -132 -104 -195 -208 -195z" />
    <glyph glyph-name="Tcaron" unicode="&#x164;" horiz-adv-x="561" 
d="M152 0v39l73 7v537h-72c-57 0 -64 -15 -75 -84l-12 -81h-38v208h506v-208h-40l-11 78c-11 80 -30 87 -92 87h-55v-537l74 -7v-39h-258zM159 809h29l99 -65l99 65h30l-93 -131h-72z" />
    <glyph glyph-name="Tcommaaccent" unicode="&#x162;" horiz-adv-x="561" 
d="M237 -257l-11 32c51 19 78 45 78 73c0 13 -4 20 -11 20c-8 0 -13 -14 -34 -14c-27 0 -40 19 -40 46c0 28 26 50 61 50c47 0 79 -31 79 -80c0 -72 -58 -111 -122 -127zM152 0v39l73 7v537h-72c-57 0 -64 -15 -75 -84l-12 -81h-38v208h506v-208h-40l-11 78
c-11 80 -30 87 -92 87h-55v-537l74 -7v-39h-258z" />
    <glyph glyph-name="Ubreve" unicode="&#x16c;" horiz-adv-x="608" 
d="M315 -13c-157 0 -234 86 -234 209v386l-56 4v40h245v-40l-80 -5v-372c0 -107 37 -168 144 -168c104 0 141 59 141 168v364l-73 13v40h181v-40l-57 -13v-372c0 -120 -55 -214 -211 -214zM343 677c-81 0 -116 71 -121 132h33c9 -40 33 -62 88 -62c56 0 79 22 88 62h33
c-5 -60 -39 -132 -121 -132z" />
    <glyph glyph-name="Uhungarumlaut" unicode="&#x170;" horiz-adv-x="608" 
d="M315 -13c-157 0 -234 86 -234 209v386l-56 4v40h245v-40l-80 -5v-372c0 -107 37 -168 144 -168c104 0 141 59 141 168v364l-73 13v40h181v-40l-57 -13v-372c0 -120 -55 -214 -211 -214zM432 678h-27l21 113c7 31 23 40 46 40c19 0 43 -15 43 -42c0 -15 -9 -28 -22 -43z
M286 678h-26l21 113c7 31 24 40 45 40c19 0 43 -15 43 -42c0 -13 -7 -28 -21 -43z" />
    <glyph glyph-name="Umacron" unicode="&#x16a;" horiz-adv-x="608" 
d="M315 -13c-157 0 -234 86 -234 209v386l-56 4v40h245v-40l-80 -5v-372c0 -107 37 -168 144 -168c104 0 141 59 141 168v364l-73 13v40h181v-40l-57 -13v-372c0 -120 -55 -214 -211 -214zM216 706v54h258v-54h-258z" />
    <glyph glyph-name="Uogonek" unicode="&#x172;" horiz-adv-x="608" 
d="M414 -199l20 -21c-13 -21 -42 -55 -97 -55s-100 34 -100 90c0 69 66 131 133 179c-20 -5 -40 -7 -55 -7c-157 0 -234 86 -234 209v387l-56 3v40h245v-40l-80 -6v-371c0 -107 37 -168 145 -168c103 0 140 59 140 168v363l-73 14v40h181v-40l-57 -14v-371
c0 -63 -14 -122 -62 -167l-48 -44c-47 -44 -87 -95 -87 -160c0 -32 14 -52 41 -52c19 0 32 11 44 23z" />
    <glyph glyph-name="Uring" unicode="&#x16e;" horiz-adv-x="608" 
d="M315 -13c-157 0 -234 86 -234 209v386l-56 4v40h245v-40l-80 -5v-372c0 -107 37 -168 144 -168c104 0 141 59 141 168v364l-73 13v40h181v-40l-57 -13v-372c0 -120 -55 -214 -211 -214zM349 687c29 0 50 23 50 54c0 28 -21 54 -50 54c-31 0 -49 -26 -49 -54
c0 -31 18 -54 49 -54zM349 655c-49 0 -85 37 -85 86c0 48 36 87 85 87c48 0 87 -39 87 -87c0 -49 -39 -86 -87 -86z" />
    <glyph glyph-name="Utilde" unicode="&#x168;" horiz-adv-x="608" 
d="M315 -13c-157 0 -234 86 -234 209v386l-56 4v40h245v-40l-80 -5v-372c0 -107 37 -168 144 -168c104 0 141 59 141 168v364l-73 13v40h181v-40l-57 -13v-372c0 -120 -55 -214 -211 -214zM410 700c-37 0 -95 27 -126 27c-19 -1 -34 -14 -43 -41h-35c11 59 42 117 97 117
c34 0 93 -27 123 -27c20 0 34 13 42 40h36c-13 -59 -42 -116 -94 -116z" />
    <glyph glyph-name="Wacute" unicode="&#x1e82;" horiz-adv-x="828" 
d="M524 -9l-106 315l-104 -315h-73l-177 591l-49 4v40h220v-40l-56 -4l129 -455h1l83 251l-72 204l-46 4v40h315v-40l-46 -6l-55 -163l99 -295h1l121 444l-72 20v40h175v-40l-50 -16l-165 -579h-73zM426 581l35 -109l35 109h-70zM487 678h-29l47 109c13 31 25 44 50 44
c21 0 49 -18 49 -49c0 -17 -11 -33 -33 -48z" />
    <glyph glyph-name="Wcircumflex" unicode="&#x174;" horiz-adv-x="828" 
d="M524 -9l-106 315l-104 -315h-73l-177 591l-49 4v40h220v-40l-56 -4l129 -455h1l83 251l-72 204l-46 4v40h315v-40l-46 -6l-55 -163l99 -295h1l121 444l-72 20v40h175v-40l-50 -16l-165 -579h-73zM426 581l35 -109l35 109h-70zM362 678h-29l92 131h72l93 -131h-30l-100 65
z" />
    <glyph glyph-name="Wdieresis" unicode="&#x1e84;" horiz-adv-x="828" 
d="M524 -9l-106 315l-104 -315h-73l-177 591l-49 4v40h220v-40l-56 -4l129 -455h1l83 251l-72 204l-46 4v40h315v-40l-46 -6l-55 -163l99 -295h1l121 444l-72 20v40h175v-40l-50 -16l-165 -579h-73zM426 581l35 -109l35 109h-70zM376 684c-31 0 -55 24 -55 55
c0 29 24 53 55 53s55 -24 55 -53c0 -31 -24 -55 -55 -55zM565 684c-31 0 -55 24 -55 55c0 29 24 53 55 53s56 -24 56 -53c0 -31 -25 -55 -56 -55z" />
    <glyph glyph-name="Wgrave" unicode="&#x1e80;" horiz-adv-x="828" 
d="M524 -9l-106 315l-104 -315h-73l-177 591l-49 4v40h220v-40l-56 -4l129 -455h1l83 251l-72 204l-46 4v40h315v-40l-46 -6l-55 -163l99 -295h1l121 444l-72 20v40h175v-40l-50 -16l-165 -579h-73zM426 581l35 -109l35 109h-70zM525 678h-29l-84 56c-22 15 -33 31 -33 48
c0 31 26 49 49 49c25 0 35 -13 50 -44z" />
    <glyph glyph-name="Ycircumflex" unicode="&#x176;" horiz-adv-x="556" 
d="M155 0v39l74 7v252l-170 285l-43 3v40h233v-40l-64 -4l134 -239l119 224l-66 19v40h168v-40l-50 -19l-150 -277v-245l74 -6v-39h-259zM220 678h-29l92 131h72l93 -131h-30l-100 65z" />
    <glyph glyph-name="Ygrave" unicode="&#x1ef2;" horiz-adv-x="556" 
d="M155 0v39l74 7v252l-170 285l-43 3v40h233v-40l-64 -4l134 -239l119 224l-66 19v40h168v-40l-50 -19l-150 -277v-245l74 -6v-39h-259zM368 678h-29l-84 56c-22 15 -33 31 -33 48c0 31 26 49 49 49c25 0 35 -13 50 -44z" />
    <glyph glyph-name="Zacute" unicode="&#x179;" horiz-adv-x="545" 
d="M64 425v201h436v-29l-334 -553h157c102 0 119 10 127 69l17 106h38v-219h-470v27l334 554h-148c-84 0 -95 -10 -106 -70l-14 -86h-37zM285 678h-29l47 109c13 31 25 44 50 44c21 0 49 -18 49 -49c0 -17 -11 -33 -33 -48z" />
    <glyph glyph-name="Zdotaccent" unicode="&#x17b;" horiz-adv-x="545" 
d="M64 425v201h436v-29l-334 -553h157c102 0 119 10 127 69l17 106h38v-219h-470v27l334 554h-148c-84 0 -95 -10 -106 -70l-14 -86h-37zM293 685c-32 0 -58 25 -58 57s26 57 58 57c33 0 58 -25 58 -57s-25 -57 -58 -57z" />
    <glyph glyph-name="abreve" unicode="&#x103;" horiz-adv-x="462" 
d="M150 -10c-68 0 -127 35 -127 116c0 89 75 136 174 136c32 0 57 -5 77 -12v115c0 45 -22 71 -73 71c-21 0 -39 -4 -54 -11c-11 -5 -16 -10 -16 -15c0 -11 27 -12 27 -48c0 -27 -22 -46 -50 -46c-31 0 -54 23 -54 56c0 72 91 110 166 110c92 0 153 -33 153 -121v-256
c0 -27 10 -34 29 -34s28 4 45 15l16 -22c-14 -17 -40 -53 -102 -53c-43 0 -71 21 -84 64c-29 -35 -68 -65 -127 -65zM197 48c35 0 62 18 77 30v117c-20 5 -36 9 -67 9c-44 0 -84 -22 -84 -81c0 -51 31 -75 74 -75zM218 526c-77 0 -115 75 -120 155h33c9 -55 32 -85 87 -85
c56 0 78 30 87 85h33c-5 -80 -41 -155 -120 -155z" />
    <glyph glyph-name="amacron" unicode="&#x101;" horiz-adv-x="462" 
d="M150 -10c-68 0 -127 35 -127 116c0 89 75 136 174 136c32 0 57 -5 77 -12v115c0 45 -22 71 -73 71c-21 0 -39 -4 -54 -11c-11 -5 -16 -10 -16 -15c0 -11 27 -12 27 -48c0 -27 -22 -46 -50 -46c-31 0 -54 23 -54 56c0 72 91 110 166 110c92 0 153 -33 153 -121v-256
c0 -27 10 -34 29 -34s28 4 45 15l16 -22c-14 -17 -40 -53 -102 -53c-43 0 -71 21 -84 64c-29 -35 -68 -65 -127 -65zM197 48c35 0 62 18 77 30v117c-20 5 -36 9 -67 9c-44 0 -84 -22 -84 -81c0 -51 31 -75 74 -75zM101 572v54h234v-54h-234z" />
    <glyph glyph-name="aringacute" unicode="&#x1fb;" horiz-adv-x="462" 
d="M150 -10c-68 0 -127 35 -127 116c0 89 75 136 174 136c32 0 57 -5 77 -12v115c0 45 -22 71 -73 71c-21 0 -39 -4 -54 -11c-11 -5 -16 -10 -16 -15c0 -11 27 -12 27 -48c0 -27 -22 -46 -50 -46c-31 0 -54 23 -54 56c0 72 91 110 166 110c92 0 153 -33 153 -121v-256
c0 -27 10 -34 29 -34s28 4 45 15l16 -22c-14 -17 -40 -53 -102 -53c-43 0 -71 21 -84 64c-29 -35 -68 -65 -127 -65zM197 48c35 0 62 18 77 30v117c-20 5 -36 9 -67 9c-44 0 -84 -22 -84 -81c0 -51 31 -75 74 -75zM218 544c29 0 50 23 50 54c0 28 -21 53 -50 53
c-31 0 -49 -25 -49 -53c0 -31 18 -54 49 -54zM218 512c-49 0 -85 37 -85 86c0 48 36 86 85 86c48 0 87 -38 87 -86c0 -49 -39 -86 -87 -86zM221 737h-29l47 109c13 31 25 44 50 44c21 0 49 -18 49 -49c0 -17 -11 -33 -33 -48z" />
    <glyph glyph-name="aeacute" unicode="&#x1fd;" horiz-adv-x="697" 
d="M353 516l49 140c9 27 22 38 46 38c20 0 46 -18 46 -46c0 -13 -8 -28 -23 -43l-91 -89h-27zM164 -10c-79 0 -141 45 -141 127c0 88 66 140 186 140h68v88c0 45 -24 71 -76 71c-21 0 -39 -4 -54 -11c-11 -5 -16 -10 -16 -15c0 -11 27 -12 27 -48c0 -27 -22 -46 -50 -46
c-31 0 -54 23 -54 56c0 72 92 110 160 110s117 -21 136 -73c35 45 84 72 144 72c94 0 184 -53 179 -235l-5 -7h-285c3 -108 44 -177 128 -177c63 0 107 25 132 96l31 -14c-31 -93 -89 -141 -186 -141c-81 0 -140 35 -175 92c-37 -52 -82 -85 -149 -85zM488 418
c-68 0 -99 -67 -104 -160h191c3 125 -29 160 -87 160zM197 48c49 0 75 23 102 54c-15 35 -22 74 -22 116h-59c-56 0 -95 -22 -95 -85c0 -51 30 -85 74 -85z" />
    <glyph glyph-name="cacute" unicode="&#x107;" horiz-adv-x="432" 
d="M235 -17c-128 0 -210 90 -210 224c0 157 112 254 233 254c83 0 143 -37 143 -101c0 -31 -22 -48 -53 -48c-29 0 -41 13 -45 36c-5 35 2 70 -48 70c-81 0 -124 -77 -124 -193c0 -127 47 -183 123 -183c70 0 109 50 127 102l31 -9c-18 -84 -77 -152 -177 -152zM212 516
l49 140c9 27 22 38 46 38c20 0 46 -18 46 -46c0 -13 -8 -28 -23 -43l-91 -89h-27z" />
    <glyph glyph-name="ccaron" unicode="&#x10d;" horiz-adv-x="432" 
d="M235 -17c-128 0 -210 90 -210 224c0 157 112 254 233 254c83 0 143 -37 143 -101c0 -31 -22 -48 -53 -48c-29 0 -41 13 -45 36c-5 35 2 70 -48 70c-81 0 -124 -77 -124 -193c0 -127 47 -183 123 -183c70 0 109 50 127 102l31 -9c-18 -84 -77 -152 -177 -152zM122 675h30
l91 -81l92 81h29l-86 -151h-69z" />
    <glyph glyph-name="ccircumflex" unicode="&#x109;" horiz-adv-x="432" 
d="M235 -17c-128 0 -210 90 -210 224c0 157 112 254 233 254c83 0 143 -37 143 -101c0 -31 -22 -48 -53 -48c-29 0 -41 13 -45 36c-5 35 2 70 -48 70c-81 0 -124 -77 -124 -193c0 -127 47 -183 123 -183c70 0 109 50 127 102l31 -9c-18 -84 -77 -152 -177 -152zM144 516h-28
l85 151h70l87 -151h-30l-92 80z" />
    <glyph glyph-name="cdotaccent" unicode="&#x10b;" horiz-adv-x="432" 
d="M235 -17c-128 0 -210 90 -210 224c0 157 112 254 233 254c83 0 143 -37 143 -101c0 -31 -22 -48 -53 -48c-29 0 -41 13 -45 36c-5 35 2 70 -48 70c-81 0 -124 -77 -124 -193c0 -127 47 -183 123 -183c70 0 109 50 127 102l31 -9c-18 -84 -77 -152 -177 -152zM243 551
c-32 0 -59 25 -59 57s27 57 59 57c33 0 59 -25 59 -57s-26 -57 -59 -57z" />
    <glyph glyph-name="ebreve" unicode="&#x115;" horiz-adv-x="450" 
d="M243 -17c-136 0 -218 101 -218 236c0 141 104 242 220 242c96 0 179 -57 179 -208l-4 -7h-289v-20c0 -113 50 -184 133 -184c64 0 109 25 134 96l31 -14c-31 -93 -89 -141 -186 -141zM239 418c-60 0 -94 -53 -105 -133h190c-1 93 -28 133 -85 133zM244 526
c-77 0 -115 75 -120 155h33c9 -55 32 -85 87 -85c56 0 78 30 87 85h33c-5 -80 -41 -155 -120 -155z" />
    <glyph glyph-name="ecaron" unicode="&#x11b;" horiz-adv-x="450" 
d="M243 -17c-136 0 -218 101 -218 236c0 141 104 242 220 242c96 0 179 -57 179 -208l-4 -7h-289v-20c0 -113 50 -184 133 -184c64 0 109 25 134 96l31 -14c-31 -93 -89 -141 -186 -141zM239 418c-60 0 -94 -53 -105 -133h190c-1 93 -28 133 -85 133zM122 675h30l91 -81
l92 81h29l-86 -151h-69z" />
    <glyph glyph-name="edotaccent" unicode="&#x117;" horiz-adv-x="450" 
d="M243 -17c-136 0 -218 101 -218 236c0 141 104 242 220 242c96 0 179 -57 179 -208l-4 -7h-289v-20c0 -113 50 -184 133 -184c64 0 109 25 134 96l31 -14c-31 -93 -89 -141 -186 -141zM239 418c-60 0 -94 -53 -105 -133h190c-1 93 -28 133 -85 133zM243 551
c-32 0 -59 25 -59 57s27 57 59 57c33 0 59 -25 59 -57s-26 -57 -59 -57z" />
    <glyph glyph-name="emacron" unicode="&#x113;" horiz-adv-x="450" 
d="M243 -17c-136 0 -218 101 -218 236c0 141 104 242 220 242c96 0 179 -57 179 -208l-4 -7h-289v-20c0 -113 50 -184 133 -184c64 0 109 25 134 96l31 -14c-31 -93 -89 -141 -186 -141zM239 418c-60 0 -94 -53 -105 -133h190c-1 93 -28 133 -85 133zM127 572v54h234v-54
h-234z" />
    <glyph glyph-name="eogonek" unicode="&#x119;" horiz-adv-x="450" 
d="M398 138l31 -14c-12 -35 -29 -63 -48 -86c-53 -61 -115 -126 -115 -209c0 -32 12 -51 40 -51c19 0 31 10 43 23l20 -21c-14 -22 -40 -56 -97 -56c-55 0 -100 34 -100 91c0 61 65 123 118 174c-15 -5 -32 -6 -47 -6c-136 0 -218 101 -218 236c0 141 104 242 220 242
c95 0 182 -56 179 -208l-4 -7h-289v-20c0 -113 50 -184 133 -184c64 0 109 25 134 96zM239 418c-60 0 -94 -53 -105 -133h191c0 96 -26 133 -86 133z" />
    <glyph glyph-name="gbreve" unicode="&#x11f;" horiz-adv-x="508" 
d="M227 128c-33 0 -63 6 -91 18c-21 -8 -37 -23 -37 -50c0 -32 26 -48 78 -48c57 0 116 4 139 4c98 0 164 -35 164 -135c0 -128 -107 -192 -263 -192c-141 0 -222 43 -222 122c0 62 55 92 112 111c-51 15 -76 51 -76 94c0 47 30 85 83 106c-47 28 -78 74 -78 134
c0 100 92 169 191 169c68 0 139 -29 163 -97h2c3 68 35 92 72 92c28 0 51 -18 51 -49s-20 -40 -32 -47c-8 12 -18 18 -29 18c-20 0 -40 -17 -39 -53c0 -8 1 -24 1 -37c0 -96 -89 -160 -189 -160zM162 -50c-9 0 -18 1 -26 2c-31 -19 -56 -42 -56 -90c0 -75 56 -96 141 -96
c104 0 183 29 183 112c0 43 -26 76 -94 76c-56 0 -115 -4 -148 -4zM227 164c64 0 96 43 96 128s-32 128 -96 128c-63 0 -95 -43 -95 -128s32 -128 95 -128zM238 526c-77 0 -115 75 -120 155h33c9 -55 32 -85 87 -85c56 0 78 30 87 85h33c-5 -80 -41 -155 -120 -155z" />
    <glyph glyph-name="gcircumflex" unicode="&#x11d;" horiz-adv-x="508" 
d="M227 128c-33 0 -63 6 -91 18c-21 -8 -37 -23 -37 -50c0 -32 26 -48 78 -48c57 0 116 4 139 4c98 0 164 -35 164 -135c0 -128 -107 -192 -263 -192c-141 0 -222 43 -222 122c0 62 55 92 112 111c-51 15 -76 51 -76 94c0 47 30 85 83 106c-47 28 -78 74 -78 134
c0 100 92 169 191 169c68 0 139 -29 163 -97h2c3 68 35 92 72 92c28 0 51 -18 51 -49s-20 -40 -32 -47c-8 12 -18 18 -29 18c-20 0 -40 -17 -39 -53c0 -8 1 -24 1 -37c0 -96 -89 -160 -189 -160zM162 -50c-9 0 -18 1 -26 2c-31 -19 -56 -42 -56 -90c0 -75 56 -96 141 -96
c104 0 183 29 183 112c0 43 -26 76 -94 76c-56 0 -115 -4 -148 -4zM227 164c64 0 96 43 96 128s-32 128 -96 128c-63 0 -95 -43 -95 -128s32 -128 95 -128zM140 516h-28l85 151h70l87 -151h-30l-92 80z" />
    <glyph glyph-name="gcommaaccent" unicode="&#x123;" horiz-adv-x="508" 
d="M227 128c-33 0 -63 6 -91 18c-21 -8 -37 -23 -37 -50c0 -32 26 -48 78 -48c57 0 116 4 139 4c98 0 164 -35 164 -135c0 -128 -107 -192 -263 -192c-141 0 -222 43 -222 122c0 62 55 92 112 111c-51 15 -76 51 -76 94c0 47 30 85 83 106c-47 28 -78 74 -78 134
c0 100 92 169 191 169c68 0 139 -29 163 -97h2c3 68 35 92 72 92c28 0 51 -18 51 -49s-20 -40 -32 -47c-8 12 -18 18 -29 18c-20 0 -40 -17 -39 -53c0 -8 1 -24 1 -37c0 -96 -89 -160 -189 -160zM162 -50c-9 0 -18 1 -26 2c-31 -19 -56 -42 -56 -90c0 -75 56 -96 141 -96
c104 0 183 29 183 112c0 43 -26 76 -94 76c-56 0 -115 -4 -148 -4zM227 164c64 0 96 43 96 128s-32 128 -96 128c-63 0 -95 -43 -95 -128s32 -128 95 -128zM289 726l11 -32c-55 -16 -80 -42 -80 -73c0 -12 3 -18 10 -18c11 0 15 13 36 13c27 0 42 -19 42 -46
c0 -28 -27 -49 -64 -49c-49 0 -82 29 -82 80c0 69 58 109 127 125z" />
    <glyph glyph-name="gdotaccent" unicode="&#x121;" horiz-adv-x="508" 
d="M227 128c-33 0 -63 6 -91 18c-21 -8 -37 -23 -37 -50c0 -32 26 -48 78 -48c57 0 116 4 139 4c98 0 164 -35 164 -135c0 -128 -107 -192 -263 -192c-141 0 -222 43 -222 122c0 62 55 92 112 111c-51 15 -76 51 -76 94c0 47 30 85 83 106c-47 28 -78 74 -78 134
c0 100 92 169 191 169c68 0 139 -29 163 -97h2c3 68 35 92 72 92c28 0 51 -18 51 -49s-20 -40 -32 -47c-8 12 -18 18 -29 18c-20 0 -40 -17 -39 -53c0 -8 1 -24 1 -37c0 -96 -89 -160 -189 -160zM162 -50c-9 0 -18 1 -26 2c-31 -19 -56 -42 -56 -90c0 -75 56 -96 141 -96
c104 0 183 29 183 112c0 43 -26 76 -94 76c-56 0 -115 -4 -148 -4zM227 164c64 0 96 43 96 128s-32 128 -96 128c-63 0 -95 -43 -95 -128s32 -128 95 -128zM238 551c-32 0 -59 25 -59 57s27 57 59 57c33 0 59 -25 59 -57s-26 -57 -59 -57z" />
    <glyph glyph-name="hcircumflex" unicode="&#x125;" horiz-adv-x="520" 
d="M16 0v38l66 4v599l-68 -7v41l157 33l9 -5v-330c17 19 38 38 61 56c27 19 58 33 86 33c79 0 121 -38 121 -130v-292l57 -2v-38h-214v38l58 3v285c0 39 -22 60 -67 60c-35 0 -69 -16 -102 -40v-304l55 -4v-38h-219zM164 760h-29l92 131h72l93 -131h-30l-100 65z" />
    <glyph glyph-name="ibreve" unicode="&#x12d;" horiz-adv-x="261" 
d="M16 0v38l69 4v343l-72 -9v41l161 38l10 -5v-408l62 -4v-38h-230zM117 526c-77 0 -115 75 -120 155h33c9 -55 32 -85 87 -85c56 0 78 30 87 85h33c-5 -80 -41 -155 -120 -155z" />
    <glyph glyph-name="iogonek" unicode="&#x12f;" horiz-adv-x="261" 
d="M16 0v38l69 4v343l-72 -9v41l161 38l10 -5v-408l62 -4v-38h-68c-15 -25 -28 -51 -40 -78c-13 -30 -19 -61 -19 -93s13 -51 41 -51c19 0 32 11 43 23l20 -21c-13 -21 -42 -55 -96 -55c-56 0 -101 34 -101 90c0 52 43 108 84 155c9 11 18 21 26 30h-120zM133 549
c-33 0 -60 26 -60 57c0 32 27 59 60 59s60 -27 60 -59c0 -31 -27 -57 -60 -57z" />
    <glyph glyph-name="itilde" unicode="&#x129;" horiz-adv-x="261" 
d="M16 0v38l69 4v343l-72 -9v41l161 38l10 -5v-408l62 -4v-38h-230zM172 551c-39 0 -84 27 -113 27c-21 0 -35 -13 -43 -40h-37c13 59 43 114 95 114c37 0 83 -27 112 -27c19 0 33 13 42 40h36c-13 -59 -41 -114 -92 -114z" />
    <glyph glyph-name="jcircumflex" unicode="&#x135;" horiz-adv-x="258" 
d="M-64 -274c-39 0 -64 23 -64 54s16 48 40 48c23 0 50 -16 67 -41c28 12 44 51 44 107v491l-73 -9v41l162 38l9 -5v-489c0 -119 -77 -235 -185 -235zM-51 516h-28l85 151h70l87 -151h-30l-92 80z" />
    <glyph glyph-name="kcommaaccent" unicode="&#x137;" horiz-adv-x="502" 
d="M204 -257l-11 32c51 19 78 45 78 73c0 13 -4 20 -11 20c-8 0 -13 -14 -34 -14c-27 0 -40 19 -40 46c0 28 26 50 61 50c47 0 79 -31 79 -80c0 -72 -58 -111 -122 -127zM16 0v38l66 5v595l-66 -10v41l155 39l9 -5v-661l55 -4v-38h-219zM296 0v38l45 2l-152 188v11l155 156
l-57 13v38h179v-38l-65 -11l-128 -130l184 -227l39 -2v-38h-200z" />
    <glyph glyph-name="lacute" unicode="&#x13a;" horiz-adv-x="266" 
d="M16 0v38l71 5v598l-76 -11v43l166 35l9 -5v-661l65 -4v-38h-235zM112 760h-29l47 109c13 31 25 44 50 44c21 0 49 -18 49 -49c0 -17 -11 -33 -33 -48z" />
    <glyph glyph-name="lcommaaccent" unicode="&#x13c;" horiz-adv-x="266" 
d="M69 -257l-11 32c51 19 78 45 78 73c0 13 -4 20 -11 20c-8 0 -13 -14 -34 -14c-27 0 -40 19 -40 46c0 28 26 50 61 50c47 0 79 -31 79 -80c0 -72 -58 -111 -122 -127zM16 0v38l71 5v598l-76 -11v43l166 35l9 -5v-661l65 -4v-38h-235z" />
    <glyph glyph-name="nacute" unicode="&#x144;" horiz-adv-x="523" 
d="M16 0v38l69 5v342l-68 -11v41l157 40l10 -5v-77c17 21 39 39 60 56c27 19 58 33 87 33c77 0 120 -38 120 -130v-292l57 -2v-38h-209v38l53 2v286c0 39 -20 60 -67 60c-35 0 -68 -16 -101 -40v-304l59 -4v-38h-227zM239 516l49 140c9 27 22 38 46 38c20 0 46 -18 46 -46
c0 -13 -8 -28 -23 -43l-91 -89h-27z" />
    <glyph glyph-name="ncaron" unicode="&#x148;" horiz-adv-x="523" 
d="M16 0v38l69 5v342l-68 -11v41l157 40l10 -5v-77c17 21 39 39 60 56c27 19 58 33 87 33c77 0 120 -38 120 -130v-292l57 -2v-38h-209v38l53 2v286c0 39 -20 60 -67 60c-35 0 -68 -16 -101 -40v-304l59 -4v-38h-227zM147 675h30l91 -81l92 81h29l-86 -151h-69z" />
    <glyph glyph-name="ncommaaccent" unicode="&#x146;" horiz-adv-x="523" 
d="M217 -257l-11 32c51 19 78 45 78 73c0 13 -4 20 -11 20c-8 0 -13 -14 -34 -14c-27 0 -40 19 -40 46c0 28 26 50 61 50c47 0 79 -31 79 -80c0 -72 -58 -111 -122 -127zM16 0v38l69 5v342l-68 -11v41l157 40l10 -5v-77c17 21 39 39 60 56c27 19 58 33 87 33
c77 0 120 -38 120 -130v-292l57 -2v-38h-209v38l53 2v286c0 39 -20 60 -67 60c-35 0 -68 -16 -101 -40v-304l59 -4v-38h-227z" />
    <glyph glyph-name="obreve" unicode="&#x14f;" horiz-adv-x="497" 
d="M249 25c84 0 118 81 118 196s-34 197 -118 197s-118 -82 -118 -197s34 -196 118 -196zM249 -17c-114 0 -224 91 -224 238c0 146 110 240 224 240c115 0 224 -97 224 -240c0 -147 -109 -238 -224 -238zM250 526c-77 0 -115 75 -120 155h33c9 -55 32 -85 87 -85
c56 0 78 30 87 85h33c-5 -80 -41 -155 -120 -155z" />
    <glyph glyph-name="ohungarumlaut" unicode="&#x151;" horiz-adv-x="497" 
d="M249 25c84 0 118 81 118 196s-34 197 -118 197s-118 -82 -118 -197s34 -196 118 -196zM249 -17c-114 0 -224 91 -224 238c0 146 110 240 224 240c115 0 224 -97 224 -240c0 -147 -109 -238 -224 -238zM166 516l31 138c7 31 24 40 45 40c19 0 42 -15 42 -42
c0 -12 -9 -26 -21 -42l-69 -94h-28zM310 516l31 138c7 31 23 40 44 40c19 0 42 -15 42 -42c0 -12 -8 -26 -20 -42l-71 -94h-26z" />
    <glyph glyph-name="omacron" unicode="&#x14d;" horiz-adv-x="497" 
d="M249 25c84 0 118 81 118 196s-34 197 -118 197s-118 -82 -118 -197s34 -196 118 -196zM249 -17c-114 0 -224 91 -224 238c0 146 110 240 224 240c115 0 224 -97 224 -240c0 -147 -109 -238 -224 -238zM133 572v54h234v-54h-234z" />
    <glyph glyph-name="oslashacute" unicode="&#x1ff;" horiz-adv-x="497" 
d="M59 -35l-31 24l56 68c-36 41 -59 96 -59 164c0 146 110 240 224 240c47 0 91 -15 130 -45l50 61l30 -26l-50 -61c39 -43 64 -100 64 -169c0 -147 -109 -238 -224 -238c-49 0 -97 16 -136 47zM249 25c84 0 118 81 118 196c0 43 -4 77 -11 106l-203 -247
c19 -37 51 -55 96 -55zM130 221c0 -39 1 -70 8 -97l202 245c-19 33 -49 49 -91 49c-84 0 -119 -82 -119 -197zM220 516l49 140c9 27 22 38 46 38c20 0 46 -18 46 -46c0 -13 -8 -28 -23 -43l-91 -89h-27z" />
    <glyph glyph-name="racute" unicode="&#x155;" horiz-adv-x="391" 
d="M16 0v38l69 5v341l-72 -14v42l161 43l10 -5v-81c38 43 91 93 135 93c39 0 63 -25 63 -65c0 -39 -23 -66 -63 -66c-16 0 -28 5 -35 10c1 31 -6 42 -23 42c-13 0 -51 -21 -77 -45v-296l77 -4v-38h-245zM190 516l49 140c9 27 22 38 46 38c20 0 46 -18 46 -46
c0 -13 -8 -28 -23 -43l-91 -89h-27z" />
    <glyph glyph-name="rcaron" unicode="&#x159;" horiz-adv-x="391" 
d="M16 0v38l69 5v341l-72 -14v42l161 43l10 -5v-81c38 43 91 93 135 93c39 0 63 -25 63 -65c0 -39 -23 -66 -63 -66c-16 0 -28 5 -35 10c1 31 -6 42 -23 42c-13 0 -51 -21 -77 -45v-296l77 -4v-38h-245zM99 675h30l91 -81l92 81h29l-86 -151h-69z" />
    <glyph glyph-name="rcommaaccent" unicode="&#x157;" horiz-adv-x="391" 
d="M66 -257l-11 32c51 19 78 45 78 73c0 13 -4 20 -11 20c-8 0 -13 -14 -34 -14c-27 0 -40 19 -40 46c0 28 26 50 61 50c47 0 79 -31 79 -80c0 -72 -58 -111 -122 -127zM16 0v38l69 5v341l-72 -14v42l161 43l10 -5v-81c38 43 91 93 135 93c39 0 63 -25 63 -65
c0 -39 -23 -66 -63 -66c-16 0 -28 5 -35 10c1 31 -6 42 -23 42c-13 0 -51 -21 -77 -45v-296l77 -4v-38h-245z" />
    <glyph glyph-name="sacute" unicode="&#x15b;" horiz-adv-x="372" 
d="M174 -15c-94 0 -150 47 -150 96c0 31 16 50 45 50c19 0 30 -3 39 -10c-4 -63 21 -96 74 -96c39 0 79 23 79 66c0 47 -29 66 -92 91c-80 27 -127 61 -127 141c0 75 68 134 156 134c85 0 136 -40 136 -87c0 -28 -18 -39 -45 -39c-15 0 -27 3 -36 10c-3 49 -16 77 -65 77
c-39 0 -70 -19 -70 -62c0 -37 27 -57 92 -84c92 -33 139 -71 139 -144c0 -87 -66 -143 -175 -143zM160 516l49 140c9 27 22 38 46 38c20 0 46 -18 46 -46c0 -13 -8 -28 -23 -43l-91 -89h-27z" />
    <glyph glyph-name="scedilla" unicode="&#x15f;" horiz-adv-x="372" 
d="M172 -222c-40 0 -61 5 -85 16l8 32c11 -5 26 -11 57 -11s51 15 51 40c0 33 -23 46 -70 38v95c-8 1 -15 3 -22 5c-56 16 -87 51 -87 88c0 31 16 50 45 50c19 0 30 -3 39 -10c-4 -63 21 -96 74 -96c39 0 79 23 79 66c0 47 -29 66 -92 91c-80 27 -127 61 -127 141
c0 75 68 134 156 134c85 0 136 -40 136 -87c0 -28 -18 -39 -45 -39c-15 0 -27 3 -36 10c-3 49 -16 77 -65 77c-39 0 -70 -19 -70 -62c0 -37 27 -57 92 -84c92 -33 139 -71 139 -144c0 -87 -66 -143 -174 -143v-51c57 5 107 -22 107 -73c0 -53 -46 -83 -110 -83z" />
    <glyph glyph-name="scircumflex" unicode="&#x15d;" horiz-adv-x="372" 
d="M174 -15c-94 0 -150 47 -150 96c0 31 16 50 45 50c19 0 30 -3 39 -10c-4 -63 21 -96 74 -96c39 0 79 23 79 66c0 47 -29 66 -92 91c-80 27 -127 61 -127 141c0 75 68 134 156 134c85 0 136 -40 136 -87c0 -28 -18 -39 -45 -39c-15 0 -27 3 -36 10c-3 49 -16 77 -65 77
c-39 0 -70 -19 -70 -62c0 -37 27 -57 92 -84c92 -33 139 -71 139 -144c0 -87 -66 -143 -175 -143zM92 516h-28l85 151h70l87 -151h-30l-92 80z" />
    <glyph glyph-name="scommaaccent" unicode="&#x219;" horiz-adv-x="374" 
d="M122 -257l-11 32c51 19 78 45 78 73c0 13 -4 20 -11 20c-8 0 -13 -14 -34 -14c-27 0 -40 19 -40 46c0 28 26 50 61 50c47 0 79 -31 79 -80c0 -72 -58 -111 -122 -127zM174 -15c-94 0 -150 47 -150 96c0 31 16 50 45 50c19 0 30 -3 39 -10c-4 -63 21 -96 74 -96
c39 0 79 23 79 66c0 47 -29 66 -92 91c-80 27 -127 61 -127 141c0 75 68 134 156 134c85 0 136 -40 136 -87c0 -28 -18 -39 -45 -39c-15 0 -27 3 -36 10c-3 49 -16 77 -65 77c-39 0 -70 -19 -70 -62c0 -37 27 -57 92 -84c92 -33 139 -71 139 -144c0 -87 -66 -143 -175 -143z
" />
    <glyph glyph-name="tcommaaccent" unicode="&#x163;" horiz-adv-x="326" 
d="M112 -257l-11 32c51 19 78 45 78 73c0 13 -4 20 -11 20c-8 0 -13 -14 -34 -14c-27 0 -40 19 -40 46c0 28 26 50 61 50c47 0 79 -31 79 -80c0 -72 -58 -111 -122 -127zM184 -13c-77 0 -109 34 -109 102v315l-59 -3v34c60 13 94 45 121 110l37 -2v-97h124v-45h-124v-295
c0 -40 10 -60 61 -60c25 0 42 5 73 16l9 -29c-35 -27 -82 -46 -133 -46z" />
    <glyph glyph-name="ubreve" unicode="&#x16d;" horiz-adv-x="516" 
d="M197 -15c-77 0 -125 40 -125 124v294l-57 3v39h155v-328c0 -43 16 -66 65 -66c32 0 69 17 102 40v311l-54 4v39h154v-395l67 4v-37l-154 -25l-9 5l2 72c-17 -20 -36 -38 -56 -51c-28 -20 -57 -33 -90 -33zM250 526c-77 0 -115 75 -120 155h33c9 -55 32 -85 87 -85
c56 0 78 30 87 85h33c-5 -80 -41 -155 -120 -155z" />
    <glyph glyph-name="uhungarumlaut" unicode="&#x171;" horiz-adv-x="516" 
d="M197 -15c-77 0 -125 40 -125 124v294l-57 3v39h155v-328c0 -43 16 -66 65 -66c32 0 69 17 102 40v311l-54 4v39h154v-395l67 4v-37l-154 -25l-9 5l2 72c-17 -20 -36 -38 -56 -51c-28 -20 -57 -33 -90 -33zM165 516l31 138c7 31 24 40 45 40c19 0 42 -15 42 -42
c0 -12 -9 -26 -21 -42l-69 -94h-28zM309 516l31 138c7 31 23 40 44 40c19 0 42 -15 42 -42c0 -12 -8 -26 -20 -42l-71 -94h-26z" />
    <glyph glyph-name="umacron" unicode="&#x16b;" horiz-adv-x="516" 
d="M197 -15c-77 0 -125 40 -125 124v294l-57 3v39h155v-328c0 -43 16 -66 65 -66c32 0 69 17 102 40v311l-54 4v39h154v-395l67 4v-37l-154 -25l-9 5l2 72c-17 -20 -36 -38 -56 -51c-28 -20 -57 -33 -90 -33zM133 572v54h234v-54h-234z" />
    <glyph glyph-name="uogonek" unicode="&#x173;" horiz-adv-x="516" 
d="M195 -15c-76 0 -123 40 -123 124v293l-57 3v40h155v-328c0 -43 16 -66 65 -66c32 0 67 15 99 38v312l-55 4v40h154v-395l67 4v-37l-117 -19c-36 -53 -68 -113 -68 -169c0 -32 13 -51 41 -51c19 0 32 11 43 23l21 -21c-13 -21 -43 -55 -97 -55c-56 0 -101 34 -101 90
c0 61 62 124 115 177l3 77c-17 -21 -37 -39 -58 -54c-27 -19 -55 -30 -87 -30z" />
    <glyph glyph-name="uring" unicode="&#x16f;" horiz-adv-x="516" 
d="M197 -15c-77 0 -125 40 -125 124v294l-57 3v39h155v-328c0 -43 16 -66 65 -66c32 0 69 17 102 40v311l-54 4v39h154v-395l67 4v-37l-154 -25l-9 5l2 72c-17 -20 -36 -38 -56 -51c-28 -20 -57 -33 -90 -33zM250 554c29 0 50 23 50 54c0 28 -21 53 -50 53
c-31 0 -49 -25 -49 -53c0 -31 18 -54 49 -54zM250 522c-49 0 -85 37 -85 86c0 48 36 86 85 86c48 0 87 -38 87 -86c0 -49 -39 -86 -87 -86z" />
    <glyph glyph-name="utilde" unicode="&#x169;" horiz-adv-x="516" 
d="M197 -15c-77 0 -125 40 -125 124v294l-57 3v39h155v-328c0 -43 16 -66 65 -66c32 0 69 17 102 40v311l-54 4v39h154v-395l67 4v-37l-154 -25l-9 5l2 72c-17 -20 -36 -38 -56 -51c-28 -20 -57 -33 -90 -33zM304 551c-39 0 -84 27 -113 27c-21 0 -35 -13 -43 -40h-37
c13 59 43 114 95 114c37 0 83 -27 112 -27c19 0 33 13 42 40h36c-13 -59 -41 -114 -92 -114z" />
    <glyph glyph-name="wacute" unicode="&#x1e83;" horiz-adv-x="684" 
d="M462 -10l-113 302h-2l-121 -302h-41l-139 415l-37 3v38h198v-38l-54 -4l83 -269h2l89 217l-19 52l-42 4v38h196v-38l-54 -4l96 -268h2l81 259l-61 13v38h149v-38l-39 -8l-133 -410h-41zM350 516l49 140c9 27 22 38 46 38c20 0 46 -18 46 -46c0 -13 -8 -28 -23 -43
l-91 -89h-27z" />
    <glyph glyph-name="wcircumflex" unicode="&#x175;" horiz-adv-x="684" 
d="M462 -10l-113 302h-2l-121 -302h-41l-139 415l-37 3v38h198v-38l-54 -4l83 -269h2l89 217l-19 52l-42 4v38h196v-38l-54 -4l96 -268h2l81 259l-61 13v38h149v-38l-39 -8l-133 -410h-41zM282 516h-28l85 151h70l87 -151h-30l-92 80z" />
    <glyph glyph-name="wdieresis" unicode="&#x1e85;" horiz-adv-x="684" 
d="M462 -10l-113 302h-2l-121 -302h-41l-139 415l-37 3v38h198v-38l-54 -4l83 -269h2l89 217l-19 52l-42 4v38h196v-38l-54 -4l96 -268h2l81 259l-61 13v38h149v-38l-39 -8l-133 -410h-41zM293 548c-31 0 -54 23 -54 54s23 54 54 54s54 -23 54 -54s-23 -54 -54 -54zM466 548
c-31 0 -55 23 -55 54s24 54 55 54c29 0 53 -23 53 -54s-24 -54 -53 -54z" />
    <glyph glyph-name="wgrave" unicode="&#x1e81;" horiz-adv-x="684" 
d="M462 -10l-113 302h-2l-121 -302h-41l-139 415l-37 3v38h198v-38l-54 -4l83 -269h2l89 217l-19 52l-42 4v38h196v-38l-54 -4l96 -268h2l81 259l-61 13v38h149v-38l-39 -8l-133 -410h-41zM383 516l-91 89c-15 15 -23 29 -23 43c0 28 25 46 46 46c23 0 38 -13 47 -38
l48 -140h-27z" />
    <glyph glyph-name="ycircumflex" unicode="&#x177;" horiz-adv-x="474" 
d="M103 -263c-52 0 -76 33 -76 61c0 32 22 50 47 50c15 0 22 -4 29 -9c-3 -31 12 -42 27 -42c24 0 48 27 81 122l20 58l-184 428l-40 3v38h212v-38l-59 -4l117 -292h1l98 281l-60 15v38h151v-38l-42 -12l-171 -481c-45 -125 -79 -178 -151 -178zM166 516h-28l85 151h70
l87 -151h-30l-92 80z" />
    <glyph glyph-name="ygrave" unicode="&#x1ef3;" horiz-adv-x="474" 
d="M103 -263c-52 0 -76 33 -76 61c0 32 22 50 47 50c15 0 22 -4 29 -9c-3 -31 12 -42 27 -42c24 0 48 27 81 122l20 58l-184 428l-40 3v38h212v-38l-59 -4l117 -292h1l98 281l-60 15v38h151v-38l-42 -12l-171 -481c-45 -125 -79 -178 -151 -178zM272 516l-91 89
c-15 15 -23 29 -23 43c0 28 25 46 46 46c23 0 38 -13 47 -38l48 -140h-27z" />
    <glyph glyph-name="zacute" unicode="&#x17a;" horiz-adv-x="426" 
d="M46 316v130h340v-31l-239 -375h92c77 0 101 9 106 74l3 29h35v-143h-351v31l243 376h-72c-90 0 -111 -7 -119 -62l-3 -29h-35zM184 516l49 140c9 27 22 38 46 38c20 0 46 -18 46 -46c0 -13 -8 -28 -23 -43l-91 -89h-27z" />
    <glyph glyph-name="zdotaccent" unicode="&#x17c;" horiz-adv-x="426" 
d="M46 316v130h340v-31l-239 -375h92c77 0 101 9 106 74l3 29h35v-143h-351v31l243 376h-72c-90 0 -111 -7 -119 -62l-3 -29h-35zM215 551c-32 0 -59 25 -59 57s27 57 59 57c33 0 59 -25 59 -57s-26 -57 -59 -57z" />
    <glyph glyph-name="Aacute.short" horiz-adv-x="591" 
d="M11 0v39l41 15l201 581h66l209 -593l52 -3v-39h-244v39l73 5l-57 163h-198l-50 -149l89 -19v-39h-182zM251 492l-83 -245h170l-86 245h-1zM283 678h-29l47 109c13 31 25 44 50 44c21 0 49 -18 49 -49c0 -17 -11 -33 -33 -48z" />
    <glyph glyph-name="Abreve.short" horiz-adv-x="591" 
d="M11 0v39l41 15l201 581h66l209 -593l52 -3v-39h-244v39l73 5l-57 163h-198l-50 -149l89 -19v-39h-182zM251 492l-83 -245h170l-86 245h-1zM291 677c-81 0 -116 71 -121 132h33c9 -40 33 -62 88 -62c56 0 79 22 88 62h33c-5 -60 -39 -132 -121 -132z" />
    <glyph glyph-name="Acircumflex.short" horiz-adv-x="591" 
d="M11 0v39l41 15l201 581h66l209 -593l52 -3v-39h-244v39l73 5l-57 163h-198l-50 -149l89 -19v-39h-182zM251 492l-83 -245h170l-86 245h-1zM192 678h-29l92 131h72l93 -131h-30l-100 65z" />
    <glyph glyph-name="Adieresis.short" horiz-adv-x="591" 
d="M11 0v39l41 15l201 581h66l209 -593l52 -3v-39h-244v39l73 5l-57 163h-198l-50 -149l89 -19v-39h-182zM251 492l-83 -245h170l-86 245h-1zM197 684c-31 0 -55 24 -55 55c0 29 24 53 55 53s55 -24 55 -53c0 -31 -24 -55 -55 -55zM386 684c-31 0 -55 24 -55 55
c0 29 24 53 55 53s56 -24 56 -53c0 -31 -25 -55 -56 -55z" />
    <glyph glyph-name="Agrave.short" horiz-adv-x="591" 
d="M11 0v39l41 15l201 581h66l209 -593l52 -3v-39h-244v39l73 5l-57 163h-198l-50 -149l89 -19v-39h-182zM251 492l-83 -245h170l-86 245h-1zM339 678h-29l-84 56c-22 15 -33 31 -33 48c0 31 26 49 49 49c25 0 35 -13 50 -44z" />
    <glyph glyph-name="Amacron.short" horiz-adv-x="591" 
d="M11 0v39l41 15l201 581h66l209 -593l52 -3v-39h-244v39l73 5l-57 163h-198l-50 -149l89 -19v-39h-182zM251 492l-83 -245h170l-86 245h-1zM162 706v54h258v-54h-258z" />
    <glyph glyph-name="Aogonek.short" horiz-adv-x="591" 
d="M11 0v39l41 15l201 581h66l209 -593l52 -3v-39h-138c-40 -55 -79 -115 -79 -171c0 -32 13 -51 41 -51c19 0 31 11 43 23l20 -21c-13 -21 -42 -55 -97 -55s-100 33 -100 93c0 64 67 128 147 202l-66 187h-197l-50 -149l89 -19v-39h-182zM251 492l-83 -245h169l-85 245h-1z
" />
    <glyph glyph-name="Aring.short" horiz-adv-x="591" 
d="M11 0v39l41 15l201 581h66l209 -593l52 -3v-39h-244v39l73 5l-57 163h-198l-50 -149l89 -19v-39h-182zM251 492l-83 -245h170l-86 245h-1zM291 711c29 0 50 23 50 54c0 28 -21 54 -50 54c-31 0 -49 -26 -49 -54c0 -31 18 -54 49 -54zM291 679c-49 0 -85 37 -85 86
c0 48 36 87 85 87c48 0 87 -39 87 -87c0 -49 -39 -86 -87 -86z" />
    <glyph glyph-name="Aringacute.short" horiz-adv-x="591" 
d="M15 0v39l41 15l201 581h66l209 -593l52 -3v-39h-244v39l73 5l-57 163h-198l-50 -149l89 -19v-39h-182zM255 492l-83 -245h170l-86 245h-1zM298 844h-29l47 109c13 31 25 44 50 44c21 0 49 -18 49 -49c0 -17 -11 -33 -33 -48zM300 649c29 0 50 23 50 54
c0 28 -21 54 -50 54c-31 0 -49 -26 -49 -54c0 -31 18 -54 49 -54zM300 617c-49 0 -85 37 -85 86c0 48 36 87 85 87c48 0 87 -39 87 -87c0 -49 -39 -86 -87 -86z" />
    <glyph glyph-name="Atilde.short" horiz-adv-x="591" 
d="M11 0v39l41 15l201 581h66l209 -593l52 -3v-39h-244v39l73 5l-57 163h-198l-50 -149l89 -19v-39h-182zM251 492l-83 -245h170l-86 245h-1zM355 700c-37 0 -95 27 -126 27c-19 -1 -34 -14 -43 -41h-35c11 59 42 117 97 117c34 0 93 -27 123 -27c20 0 34 13 42 40h36
c-13 -59 -42 -116 -94 -116z" />
    <glyph glyph-name="Wacute.alt" horiz-adv-x="825" 
d="M465 678h-29l47 109c13 31 25 44 50 44c21 0 49 -18 49 -49c0 -17 -11 -33 -33 -48zM537 -9l-116 373l-113 -373h-72l-173 591l-48 4v40h219v-40l-55 -4l124 -451h1l93 311l-43 140l-46 4v40h200v-40l-44 -4l135 -451h1l108 435l-73 20v40h176v-40l-51 -16l-150 -579h-73
z" />
    <glyph glyph-name="Wcircumflex.alt" horiz-adv-x="825" 
d="M363 678h-29l92 131h72l93 -131h-30l-100 65zM537 -9l-116 373l-113 -373h-72l-173 591l-48 4v40h219v-40l-55 -4l124 -451h1l93 311l-43 140l-46 4v40h200v-40l-44 -4l135 -451h1l108 435l-73 20v40h176v-40l-51 -16l-150 -579h-73z" />
    <glyph glyph-name="Wdieresis.alt" horiz-adv-x="825" 
d="M537 -9l-116 373l-113 -373h-72l-173 591l-48 4v40h219v-40l-55 -4l124 -451h1l93 311l-43 140l-46 4v40h200v-40l-44 -4l135 -451h1l108 435l-73 20v40h176v-40l-51 -16l-150 -579h-73zM364 684c-31 0 -55 24 -55 55c0 29 24 53 55 53s55 -24 55 -53
c0 -31 -24 -55 -55 -55zM553 684c-31 0 -55 24 -55 55c0 29 24 53 55 53s56 -24 56 -53c0 -31 -25 -55 -56 -55z" />
    <glyph glyph-name="Wgrave.alt" horiz-adv-x="825" 
d="M492 678h-29l-84 56c-22 15 -33 31 -33 48c0 31 26 49 49 49c25 0 35 -13 50 -44zM537 -9l-116 373l-113 -373h-72l-173 591l-48 4v40h219v-40l-55 -4l124 -451h1l93 311l-43 140l-46 4v40h200v-40l-44 -4l135 -451h1l108 435l-73 20v40h176v-40l-51 -16l-150 -579h-73z
" />
    <glyph glyph-name="Racute.short" horiz-adv-x="584" 
d="M26 0v39l64 5v538l-64 4v40h243c131 0 230 -53 230 -156c0 -87 -72 -140 -152 -156v-5c83 -11 117 -59 134 -139c17 -89 29 -126 68 -126c8 0 14 1 21 4l13 -33c-19 -12 -46 -24 -87 -24c-96 0 -120 73 -133 180c-13 99 -36 124 -102 124h-60v-250l70 -6v-39h-245z
M264 583h-63v-248h74c84 0 108 33 108 122c0 106 -59 126 -119 126zM268 678h-29l47 109c13 31 25 44 50 44c21 0 49 -18 49 -49c0 -17 -11 -33 -33 -48z" />
    <glyph glyph-name="Rcaron.short" horiz-adv-x="584" 
d="M26 0v39l64 5v538l-64 4v40h243c131 0 230 -53 230 -156c0 -87 -72 -140 -152 -156v-5c83 -11 117 -59 134 -139c17 -89 29 -126 68 -126c8 0 14 1 21 4l13 -33c-19 -12 -46 -24 -87 -24c-96 0 -120 73 -133 180c-13 99 -36 124 -102 124h-60v-250l70 -6v-39h-245z
M264 583h-63v-248h74c84 0 108 33 108 122c0 106 -59 126 -119 126zM140 809h29l99 -65l99 65h30l-93 -131h-72z" />
    <glyph glyph-name="Rcommaaccent.short" horiz-adv-x="584" 
d="M270 -257l-11 32c51 19 78 45 78 73c0 13 -4 20 -11 20c-8 0 -13 -14 -34 -14c-27 0 -40 19 -40 46c0 28 26 50 61 50c47 0 79 -31 79 -80c0 -72 -58 -111 -122 -127zM26 0v39l64 5v538l-64 4v40h243c131 0 230 -53 230 -156c0 -87 -72 -140 -152 -156v-5
c83 -11 117 -59 134 -139c17 -89 29 -126 68 -126c8 0 14 1 21 4l13 -33c-19 -12 -46 -24 -87 -24c-96 0 -120 73 -133 180c-13 99 -36 124 -102 124h-60v-250l70 -6v-39h-245zM264 583h-63v-248h74c84 0 108 33 108 122c0 106 -59 126 -119 126z" />
    <glyph glyph-name="dollar.old" horiz-adv-x="464" 
d="M206 -101v92c-119 7 -178 60 -178 128c0 47 28 67 59 67c29 0 50 -18 50 -45c0 -31 -33 -42 -33 -53c0 -33 35 -53 102 -56v224c-104 35 -160 74 -160 176c0 104 74 161 165 169v52h39v-52c83 -5 158 -46 158 -113c0 -39 -23 -63 -52 -63s-52 19 -52 46c0 30 25 33 25 47
c0 23 -34 38 -79 41v-206c100 -38 174 -70 174 -181c0 -121 -87 -173 -179 -181v-92h-39zM348 135c0 55 -38 83 -103 108v-210c59 7 103 38 103 102zM116 471c0 -57 25 -77 95 -104v192c-56 -7 -95 -39 -95 -88z" />
    <glyph glyph-name="Euro.old" horiz-adv-x="521" 
d="M21 325v36h62c27 150 126 241 244 241c84 0 162 -56 162 -133c0 -39 -23 -65 -58 -65c-31 0 -55 20 -55 47c0 35 30 45 30 57c0 29 -32 51 -71 51c-91 0 -139 -69 -152 -198h172v-36h-174c-1 -12 -1 -25 -1 -38v-24h175v-38h-173c11 -129 58 -189 143 -189
c61 0 106 35 136 104l33 -13c-31 -92 -96 -144 -192 -144c-123 0 -212 94 -225 242h-56v38h54v5c0 19 1 38 3 57h-57z" />
    <glyph glyph-name="sterling.old" horiz-adv-x="481" 
d="M56 258v37h66c-15 40 -26 79 -26 115c0 113 75 192 195 192c92 0 159 -51 159 -131c0 -47 -26 -72 -61 -72c-32 0 -56 24 -56 47c0 37 36 38 36 68c0 20 -29 45 -68 45c-55 0 -97 -45 -97 -118c0 -53 10 -99 19 -146h145v-37h-137c5 -31 10 -62 10 -94
c0 -23 -2 -44 -6 -63c39 -15 78 -26 121 -26c55 0 73 26 82 78l31 -6c-8 -96 -37 -163 -121 -163c-59 0 -99 28 -136 56c-23 -38 -59 -57 -106 -57c-56 0 -87 30 -87 73c0 52 38 79 89 79c23 0 46 -6 70 -14c-5 44 -22 90 -41 137h-81zM107 22c33 0 57 15 68 46
c-23 15 -43 25 -70 25s-41 -12 -41 -36c0 -23 14 -35 43 -35z" />
    <glyph glyph-name="yen.old" horiz-adv-x="487" 
d="M60 283v37h126l-132 231l-39 3v38h213v-38l-61 -5l114 -205l97 191l-64 19v38h156v-38l-46 -19l-111 -215h122v-37h-134v-62h134v-36h-134v-142l69 -7v-36h-242v36l70 8v141h-138v36h138v62h-138z" />
    <glyph glyph-name="percent.old" horiz-adv-x="642" 
d="M66 -2l473 579l30 -24l-474 -578zM164 323c41 0 61 42 61 109c0 68 -20 110 -61 110c-39 0 -60 -42 -60 -110c0 -67 21 -109 60 -109zM164 288c-75 0 -141 60 -141 144c0 83 66 145 141 145c79 0 140 -65 140 -145c0 -83 -61 -144 -140 -144zM478 24c41 0 60 43 60 108
c0 68 -19 111 -60 111c-39 0 -61 -43 -61 -111c0 -65 22 -108 61 -108zM478 -10c-73 0 -142 59 -142 142s69 145 142 145c78 0 141 -62 141 -145s-63 -142 -141 -142z" />
    <glyph glyph-name="perthousand.old" horiz-adv-x="960" 
d="M164 323c41 0 61 42 61 109c0 68 -20 110 -61 110c-39 0 -60 -42 -60 -110c0 -67 21 -109 60 -109zM164 288c-75 0 -141 60 -141 144c0 83 66 145 141 145c79 0 140 -65 140 -145c0 -83 -61 -144 -140 -144zM478 24c41 0 60 43 60 108c0 68 -19 111 -60 111
c-39 0 -61 -43 -61 -111c0 -65 22 -108 61 -108zM478 -10c-73 0 -142 59 -142 142s69 145 142 145c78 0 141 -62 141 -145s-63 -142 -141 -142zM796 24c41 0 60 43 60 108c0 68 -19 111 -60 111c-39 0 -61 -43 -61 -111c0 -65 22 -108 61 -108zM796 -10
c-73 0 -142 59 -142 142s69 145 142 145c78 0 141 -62 141 -145s-63 -142 -141 -142zM66 -2l473 579l30 -24l-474 -578z" />
    <glyph glyph-name="plus.old" horiz-adv-x="438" 
d="M36 210v48h159v164h50v-164h156v-48h-156v-164h-50v164h-159z" />
    <glyph glyph-name="minus.old" horiz-adv-x="438" 
d="M36 210v48h365v-48h-365z" />
    <glyph glyph-name="multiply.old" horiz-adv-x="420" 
d="M79 59l-35 33l132 132l-132 133l35 33l131 -132l131 132l34 -33l-132 -133l132 -132l-34 -33l-131 131z" />
    <glyph glyph-name="divide.old" horiz-adv-x="438" 
d="M36 210v48h365v-48h-365zM219 24c-35 0 -62 26 -62 61c0 36 27 62 62 62s61 -26 61 -62c0 -35 -26 -61 -61 -61zM219 320c-35 0 -62 25 -62 61c0 35 27 61 62 61s61 -26 61 -61c0 -36 -26 -61 -61 -61z" />
    <glyph glyph-name="equal.old" horiz-adv-x="438" 
d="M36 266v48h365v-48h-365zM36 131v48h365v-48h-365z" />
    <glyph glyph-name="less.old" horiz-adv-x="406" 
d="M366 55l-332 151v43l332 150v-54l-265 -118l265 -118v-54z" />
    <glyph glyph-name="greater.old" horiz-adv-x="406" 
d="M40 55v54l264 118l-264 118v54l332 -150v-43z" />
    <glyph glyph-name="numbersign.old" horiz-adv-x="432" 
d="M55 331l15 75h80l27 138h48l-27 -138h89l27 138h46l-27 -138h80l-14 -75h-81l-20 -103h78l-13 -75h-80l-30 -153h-47l30 153h-89l-30 -153h-46l30 153h-82l14 75h82l20 103h-80zM183 331l-21 -103h89l21 103h-89z" />
    <glyph glyph-name="OE" unicode="&#x152;" horiz-adv-x="842" 
d="M803 0h-470c-155 0 -305 81 -305 312c0 224 149 314 299 314h444v-175h-37l-14 84c-8 40 -19 46 -64 46h-158v-244h71c27 0 41 11 43 32l7 76h37v-253h-37l-7 70c-3 29 -16 33 -43 33h-71v-251h163c73 0 81 4 89 55l15 95h38v-194zM148 312c0 -212 77 -268 192 -268h48
v537h-49c-112 0 -191 -62 -191 -269z" />
    <glyph glyph-name="uni00A0" unicode="&#xa0;" horiz-adv-x="160" 
 />
    <glyph glyph-name="n" unicode="n" horiz-adv-x="523" 
d="M16 0v38l69 5v342l-68 -11v41l157 40l10 -5v-77c17 21 39 39 60 56c27 19 58 33 87 33c77 0 120 -38 120 -130v-292l57 -2v-38h-209v38l53 2v286c0 39 -20 60 -67 60c-35 0 -68 -16 -101 -40v-304l59 -4v-38h-227z" />
    <glyph glyph-name="uni24C5" unicode="&#x24c5;" horiz-adv-x="695" 
d="M347 -18c-163 0 -319 126 -319 326c0 197 156 328 319 328s319 -131 319 -328c0 -200 -156 -326 -319 -326zM347 23c141 0 272 106 272 285c0 178 -131 288 -272 288s-272 -110 -272 -288c0 -179 131 -285 272 -285zM218 131v35l33 3v279l-33 2v36h155
c87 0 134 -38 134 -103c0 -72 -55 -106 -131 -106c-16 0 -31 1 -42 2v-109l43 -4v-35h-159zM363 448h-29v-135c8 -1 16 -1 27 -1c47 0 62 15 62 66c0 49 -17 70 -60 70z" />
    <glyph glyph-name="copyright" unicode="&#xa9;" horiz-adv-x="695" 
d="M347 -18c-163 0 -319 126 -319 326c0 197 156 328 319 328s319 -131 319 -328c0 -200 -156 -326 -319 -326zM347 23c141 0 272 106 272 285c0 178 -131 288 -272 288s-272 -110 -272 -288c0 -179 131 -285 272 -285zM348 121c-107 0 -174 71 -174 188
c0 116 83 189 174 189c44 0 77 -18 98 -45l10 35h28v-119h-36c-14 58 -44 87 -90 87c-56 0 -92 -46 -92 -146c0 -97 34 -142 99 -142c44 0 73 27 92 68l34 -15c-25 -64 -75 -100 -143 -100z" />
    <glyph glyph-name="eight.den" horiz-adv-x="307" 
d="M154 -9c-76 0 -136 37 -136 98c0 47 37 75 78 84c-39 12 -62 40 -62 77c0 51 48 90 120 90s117 -41 117 -90c0 -39 -24 -68 -59 -77c45 -9 76 -37 76 -84c0 -61 -59 -98 -134 -98zM154 25c39 0 55 28 55 67c0 40 -16 65 -55 65c-41 0 -56 -25 -56 -65
c0 -39 17 -67 56 -67zM154 186c29 0 44 20 44 61c0 37 -17 57 -44 57c-29 0 -47 -19 -47 -58s18 -60 47 -60z" />
    <glyph glyph-name="eight.num" horiz-adv-x="307" 
d="M154 284c-76 0 -136 37 -136 98c0 47 37 75 78 84c-39 12 -62 40 -62 77c0 51 48 90 120 90s117 -41 117 -90c0 -39 -24 -68 -59 -77c45 -9 76 -37 76 -84c0 -61 -59 -98 -134 -98zM154 318c39 0 55 28 55 67c0 40 -16 65 -55 65c-41 0 -56 -25 -56 -65
c0 -39 17 -67 56 -67zM154 479c29 0 44 20 44 61c0 37 -17 57 -44 57c-29 0 -47 -19 -47 -58s18 -60 47 -60z" />
    <glyph glyph-name="eight.sub" horiz-adv-x="307" 
d="M154 -152c-76 0 -136 38 -136 98c0 47 37 76 78 85c-39 11 -62 40 -62 76c0 51 48 90 120 90s117 -41 117 -90c0 -37 -24 -67 -59 -76c45 -9 76 -38 76 -85c0 -60 -59 -98 -134 -98zM154 -119c39 0 55 29 55 68c0 41 -16 66 -55 66c-41 0 -56 -25 -56 -66
c0 -39 17 -68 56 -68zM154 43c29 0 44 21 44 62c0 36 -17 57 -44 57c-29 0 -47 -21 -47 -58c0 -39 18 -61 47 -61z" />
    <glyph glyph-name="eight.sup" horiz-adv-x="307" 
d="M154 324c-76 0 -136 39 -136 98c0 45 37 75 78 84c-39 12 -62 40 -62 77c0 51 48 90 120 90s117 -39 117 -90c0 -39 -24 -68 -59 -77c45 -9 76 -39 76 -84c0 -59 -59 -98 -134 -98zM154 358c39 0 55 28 55 67c0 40 -16 65 -55 65c-41 0 -56 -25 -56 -65
c0 -39 17 -67 56 -67zM154 520c29 0 44 20 44 60c0 37 -17 58 -44 58c-29 0 -47 -21 -47 -58c0 -40 18 -60 47 -60z" />
    <glyph glyph-name="five.den" horiz-adv-x="280" 
d="M121 -8c-65 0 -106 31 -106 74c0 27 18 42 41 42c19 0 34 -10 34 -29c0 -21 -18 -26 -18 -33c0 -15 20 -22 39 -22c39 0 67 26 67 82c0 52 -30 66 -59 66c-27 0 -44 -10 -55 -19l-21 12v168h158l10 31h30l-11 -90h-148v-81c16 11 39 17 67 17c63 0 112 -29 112 -98
c0 -77 -66 -120 -140 -120z" />
    <glyph glyph-name="five.num" horiz-adv-x="280" 
d="M121 285c-65 0 -106 31 -106 74c0 27 18 42 41 42c19 0 34 -10 34 -29c0 -21 -18 -26 -18 -33c0 -15 20 -22 39 -22c39 0 67 26 67 82c0 52 -30 66 -59 66c-27 0 -44 -10 -55 -19l-21 12v168h158l10 31h30l-11 -90h-148v-81c16 11 39 17 67 17c63 0 112 -29 112 -98
c0 -77 -66 -120 -140 -120z" />
    <glyph glyph-name="five.sub" horiz-adv-x="280" 
d="M121 -150c-65 0 -106 31 -106 74c0 27 18 42 41 42c19 0 34 -11 34 -30c0 -20 -18 -27 -18 -34c0 -13 20 -21 39 -21c39 0 67 27 67 83c0 52 -30 66 -59 66c-27 0 -44 -11 -55 -20l-21 13v167h158l10 31h30l-11 -90h-148v-81c16 11 39 17 67 17c64 0 112 -27 112 -99
c0 -77 -66 -118 -140 -118z" />
    <glyph glyph-name="five.sup" horiz-adv-x="280" 
d="M121 325c-65 0 -106 33 -106 74c0 27 18 42 41 42c19 0 34 -11 34 -28c0 -22 -18 -28 -18 -35c0 -12 20 -21 39 -21c39 0 67 26 67 82c0 52 -30 66 -59 66c-27 0 -44 -9 -55 -18l-21 12v167h158l10 31h30l-11 -91h-148v-79c16 9 39 16 67 16c63 0 112 -29 112 -98
c0 -77 -66 -120 -140 -120z" />
    <glyph glyph-name="fiveeighths" unicode="&#x215d;" horiz-adv-x="662" 
d="M504 -9c-76 0 -136 37 -136 98c0 47 37 75 78 84c-39 12 -62 40 -62 77c0 51 48 90 120 90s117 -41 117 -90c0 -39 -24 -68 -59 -77c45 -9 76 -37 76 -84c0 -61 -59 -98 -134 -98zM504 25c39 0 55 28 55 67c0 40 -16 65 -55 65c-41 0 -56 -25 -56 -65
c0 -39 17 -67 56 -67zM504 186c29 0 44 20 44 61c0 37 -17 57 -44 57c-29 0 -47 -19 -47 -58s18 -60 47 -60zM37 -18l514 663l32 -25l-515 -663zM126 285c-65 0 -106 31 -106 74c0 27 18 42 41 42c19 0 34 -10 34 -29c0 -21 -18 -26 -18 -33c0 -15 20 -22 39 -22
c39 0 67 26 67 82c0 52 -30 66 -59 66c-27 0 -44 -10 -55 -19l-21 12v168h158l10 31h30l-11 -90h-148v-81c16 11 39 17 67 17c63 0 112 -29 112 -98c0 -77 -66 -120 -140 -120z" />
    <glyph glyph-name="fraction" unicode="&#x2044;" horiz-adv-x="209" 
d="M-177 -18l514 663l32 -25l-515 -663z" />
    <glyph glyph-name="four.den" horiz-adv-x="300" 
d="M121 0v36l40 3v58h-146v19l73 119c11 19 15 31 15 39c0 7 -4 11 -12 11s-12 -4 -19 -11c-11 1 -18 12 -18 27c0 24 20 41 47 41c31 0 48 -19 48 -44c0 -23 -11 -46 -32 -79l-54 -89h98v103l77 14v-117h48v-33h-48v-58l39 -3v-36h-156z" />
    <glyph glyph-name="four.num" horiz-adv-x="300" 
d="M121 293v36l40 3v58h-146v19l73 119c11 19 15 31 15 39c0 7 -4 11 -12 11s-12 -4 -19 -11c-11 1 -18 12 -18 27c0 24 20 41 47 41c31 0 48 -19 48 -44c0 -23 -11 -46 -32 -79l-54 -89h98v103l77 14v-117h48v-33h-48v-58l39 -3v-36h-156z" />
    <glyph glyph-name="four.sub" horiz-adv-x="300" 
d="M121 -143v36l40 4v56h-146v21l73 118c11 20 15 31 15 39s-4 12 -12 12s-12 -5 -19 -12c-11 1 -18 14 -18 27c0 24 20 41 47 41c31 0 48 -19 48 -44c0 -23 -11 -46 -32 -79l-54 -89h98v103l77 15v-118h48v-34h-48v-56l39 -4v-36h-156z" />
    <glyph glyph-name="four.sup" horiz-adv-x="300" 
d="M121 333v36l40 3v58h-146v20l73 118c11 20 15 31 15 38c0 8 -4 12 -12 12s-12 -5 -19 -12c-11 3 -18 13 -18 28c0 24 20 41 47 41c31 0 48 -19 48 -43s-11 -47 -32 -80l-54 -89h98v104l77 13v-117h48v-33h-48v-58l39 -3v-36h-156z" />
    <glyph glyph-name="nine.den" horiz-adv-x="310" 
d="M42 -6v38c105 8 154 40 165 123c-20 -15 -47 -25 -82 -25c-56 0 -108 28 -108 97c0 60 49 112 132 112c88 0 141 -61 141 -145c0 -137 -100 -200 -248 -200zM153 168c24 0 41 5 56 16v6c0 80 -19 112 -60 112c-39 0 -53 -29 -53 -72c0 -41 19 -62 57 -62z" />
    <glyph glyph-name="nine.num" horiz-adv-x="310" 
d="M42 287v38c105 8 154 40 165 123c-20 -15 -47 -25 -82 -25c-56 0 -108 28 -108 97c0 60 49 112 132 112c88 0 141 -61 141 -145c0 -137 -100 -200 -248 -200zM153 461c24 0 41 5 56 16v6c0 80 -19 112 -60 112c-39 0 -53 -29 -53 -72c0 -41 19 -62 57 -62z" />
    <glyph glyph-name="nine.sub" horiz-adv-x="310" 
d="M42 -148v37c105 9 154 41 165 124c-20 -15 -47 -26 -82 -26c-56 0 -108 28 -108 97c0 61 48 112 132 112c88 0 141 -60 141 -145c0 -139 -100 -199 -248 -199zM153 25c24 0 41 5 56 16v7c0 80 -19 112 -60 112c-39 0 -53 -29 -53 -72c0 -40 20 -63 57 -63z" />
    <glyph glyph-name="nine.sup" horiz-adv-x="310" 
d="M42 327v38c105 8 154 41 165 124c-20 -15 -47 -26 -82 -26c-56 0 -108 28 -108 97c0 60 49 111 132 111c88 0 141 -60 141 -144c0 -136 -100 -200 -248 -200zM153 502c24 0 41 4 56 15v6c0 80 -19 113 -60 113c-39 0 -53 -30 -53 -73c0 -41 19 -61 57 -61z" />
    <glyph glyph-name="one.den" horiz-adv-x="228" 
d="M16 238v39l104 62h40v-300l52 -3v-36h-190v36l57 4v224z" />
    <glyph glyph-name="one.num" horiz-adv-x="228" 
d="M16 531v39l104 62h40v-300l52 -3v-36h-190v36l57 4v224z" />
    <glyph glyph-name="one.sub" horiz-adv-x="228" 
d="M16 96v39l104 61h40v-299l52 -4v-36h-190v36l57 5v224z" />
    <glyph glyph-name="one.sup" horiz-adv-x="228" 
d="M16 571v40l104 60h40v-299l52 -3v-36h-190v36l57 4v224z" />
    <glyph glyph-name="oneeighth" unicode="&#x215b;" horiz-adv-x="655" 
d="M497 -9c-76 0 -136 37 -136 98c0 47 37 75 78 84c-39 12 -62 40 -62 77c0 51 48 90 120 90s117 -41 117 -90c0 -39 -24 -68 -59 -77c45 -9 76 -37 76 -84c0 -61 -59 -98 -134 -98zM497 25c39 0 55 28 55 67c0 40 -16 65 -55 65c-41 0 -56 -25 -56 -65
c0 -39 17 -67 56 -67zM497 186c29 0 44 20 44 61c0 37 -17 57 -44 57c-29 0 -47 -19 -47 -58s18 -60 47 -60zM30 -18l514 663l32 -25l-515 -663zM21 531v39l104 62h40v-300l52 -3v-36h-190v36l57 4v224z" />
    <glyph glyph-name="onehalf" unicode="&#xbd;" horiz-adv-x="630" 
d="M22 -18l514 663l32 -25l-515 -663zM361 0l-4 46c89 71 161 124 161 197c0 43 -21 61 -53 61c-25 0 -41 -12 -41 -25c0 -15 20 -18 20 -40c0 -19 -15 -33 -38 -33c-27 0 -45 16 -45 48c0 49 53 85 117 85c88 0 124 -50 124 -98c0 -74 -93 -131 -182 -182h102
c35 0 42 4 49 28l5 14h30l-12 -101h-233zM21 531v39l104 62h40v-300l52 -3v-36h-190v36l57 4v224z" />
    <glyph glyph-name="two.den" horiz-adv-x="285" 
d="M21 0l-4 46c89 71 161 124 161 197c0 43 -21 61 -53 61c-25 0 -41 -12 -41 -25c0 -15 20 -18 20 -40c0 -19 -15 -33 -38 -33c-27 0 -45 16 -45 48c0 49 53 85 117 85c88 0 124 -50 124 -98c0 -74 -93 -131 -182 -182h102c35 0 42 4 49 28l5 14h30l-12 -101h-233z" />
    <glyph glyph-name="onequarter" unicode="&#xbc;" horiz-adv-x="644" 
d="M29 -18l514 663l32 -25l-515 -663zM460 0v36l40 3v58h-146v19l73 119c11 19 15 31 15 39c0 7 -4 11 -12 11s-12 -4 -19 -11c-11 1 -18 12 -18 27c0 24 20 41 47 41c31 0 48 -19 48 -44c0 -23 -11 -46 -32 -79l-54 -89h98v103l77 14v-117h48v-33h-48v-58l39 -3v-36h-156z
M21 531v39l104 62h40v-300l52 -3v-36h-190v36l57 4v224z" />
    <glyph glyph-name="onethird" unicode="&#x2153;" horiz-adv-x="644" 
d="M477 -8c-77 0 -114 35 -114 78c0 31 20 46 43 46s35 -16 35 -33c0 -21 -20 -27 -20 -34c0 -13 15 -24 43 -24c47 0 69 20 69 71c0 43 -27 60 -72 60h-27v32h27c37 0 62 20 62 67c0 32 -19 51 -50 51c-20 0 -34 -8 -34 -16c0 -7 14 -12 14 -31s-14 -32 -34 -32
c-24 0 -39 17 -39 40c0 48 56 72 109 72c72 0 114 -34 114 -81c0 -40 -33 -71 -77 -80v-2c61 -8 93 -39 93 -83c0 -61 -57 -101 -142 -101zM28 -18l514 663l32 -25l-515 -663zM21 531v39l104 62h40v-300l52 -3v-36h-190v36l57 4v224z" />
    <glyph glyph-name="three.den" horiz-adv-x="290" 
d="M128 -8c-77 0 -114 35 -114 78c0 31 20 46 43 46s35 -16 35 -33c0 -21 -20 -27 -20 -34c0 -13 15 -24 43 -24c47 0 69 20 69 71c0 43 -27 60 -72 60h-27v32h27c37 0 62 20 62 67c0 32 -19 51 -50 51c-20 0 -34 -8 -34 -16c0 -7 14 -12 14 -31s-14 -32 -34 -32
c-24 0 -39 17 -39 40c0 48 56 72 109 72c72 0 114 -34 114 -81c0 -40 -33 -71 -77 -80v-2c61 -8 93 -39 93 -83c0 -61 -57 -101 -142 -101z" />
    <glyph glyph-name="ordfeminine" unicode="&#xaa;" horiz-adv-x="409" 
d="M133 227c-59 0 -110 32 -110 101c0 77 65 118 151 118c29 0 48 -3 67 -10v96c0 39 -19 61 -63 61c-16 0 -32 -4 -43 -9c-9 -4 -14 -8 -14 -13c0 -8 23 -11 23 -41c0 -24 -21 -40 -45 -40c-27 0 -49 20 -49 49c0 64 80 96 147 96c81 0 135 -28 135 -105v-219
c0 -21 9 -28 26 -28c16 0 24 3 36 12l15 -20c-8 -15 -36 -46 -90 -46c-37 0 -63 19 -74 54c-27 -28 -61 -56 -112 -56zM178 280c29 0 51 15 63 26v98c-17 4 -30 8 -54 8c-39 0 -72 -19 -72 -68c0 -43 26 -64 63 -64z" />
    <glyph glyph-name="ordmasculine" unicode="&#xba;" horiz-adv-x="441" 
d="M221 264c69 0 97 65 97 165c0 99 -28 165 -97 165s-98 -66 -98 -165c0 -100 29 -165 98 -165zM221 222c-100 0 -196 78 -196 207c0 127 96 206 196 206s195 -81 195 -206c0 -129 -95 -207 -195 -207z" />
    <glyph glyph-name="registered" unicode="&#xae;" horiz-adv-x="478" 
d="M238 210c-108 0 -212 83 -212 216c0 132 104 218 212 218c109 0 213 -86 213 -218c0 -133 -104 -216 -213 -216zM238 242c91 0 177 68 177 184s-86 185 -177 185s-175 -69 -175 -185s84 -184 175 -184zM138 318v29l22 2v161l-22 2v28h105c51 0 86 -19 86 -58
c0 -29 -22 -48 -53 -55v-2c28 -4 40 -17 48 -44c7 -27 9 -38 20 -38c3 0 7 1 11 2l8 -17c-11 -7 -23 -13 -42 -13c-43 0 -52 24 -59 59c-4 35 -7 42 -28 42h-16v-67l21 -2v-29h-101zM236 512h-18v-71h20c23 0 32 9 32 34c0 29 -15 37 -34 37z" />
    <glyph glyph-name="registered.alt" horiz-adv-x="695" 
d="M347 -18c-163 0 -319 126 -319 326c0 197 156 328 319 328s319 -131 319 -328c0 -200 -156 -326 -319 -326zM347 23c141 0 272 106 272 285c0 178 -131 288 -272 288s-272 -110 -272 -288c0 -179 131 -285 272 -285zM194 136v35l34 3v278l-34 2v36h154
c79 0 135 -31 135 -91c0 -49 -40 -76 -84 -88v-1c44 -8 65 -31 74 -74c11 -47 15 -65 35 -65c7 0 13 2 19 6l10 -27c-15 -11 -34 -20 -63 -20c-60 0 -78 40 -86 100c-11 54 -14 68 -52 68h-27v-123l36 -4v-35h-151zM339 454h-30v-125h35c43 0 54 18 54 62
c0 51 -28 63 -59 63z" />
    <glyph glyph-name="seven.den" horiz-adv-x="286" 
d="M140 -8c-36 0 -53 27 -53 52c0 27 14 48 29 73l93 154h-86c-44 0 -53 -4 -64 -32l-9 -27h-34l19 121h235v-32l-120 -203c-7 -9 -11 -19 -11 -28c0 -7 4 -14 15 -14s16 6 19 10c12 -3 20 -15 20 -30c0 -27 -22 -44 -53 -44z" />
    <glyph glyph-name="seven.num" horiz-adv-x="286" 
d="M140 285c-36 0 -53 27 -53 52c0 27 14 48 29 73l93 154h-86c-44 0 -53 -4 -64 -32l-9 -27h-34l19 121h235v-32l-120 -203c-7 -9 -11 -19 -11 -28c0 -7 4 -14 15 -14s16 6 19 10c12 -3 20 -15 20 -30c0 -27 -22 -44 -53 -44z" />
    <glyph glyph-name="seven.sub" horiz-adv-x="286" 
d="M140 -150c-36 0 -53 27 -53 52s13 49 28 74l94 153h-86c-44 0 -53 -5 -64 -32l-9 -27h-34l19 120h235v-32l-121 -201c-7 -12 -10 -22 -10 -30c0 -7 4 -14 15 -14s16 6 19 11c13 -5 20 -15 20 -30c0 -27 -22 -44 -53 -44z" />
    <glyph glyph-name="seven.sup" horiz-adv-x="286" 
d="M140 326c-36 0 -53 25 -53 52s13 48 28 73l94 153h-86c-44 0 -53 -4 -64 -32l-9 -27h-34l19 121h235v-31l-121 -203c-5 -9 -10 -20 -10 -28s4 -15 15 -15s16 5 19 10c12 -3 20 -15 20 -30c0 -27 -22 -43 -53 -43z" />
    <glyph glyph-name="seveneighths" unicode="&#x215e;" horiz-adv-x="637" 
d="M479 -9c-76 0 -136 37 -136 98c0 47 37 75 78 84c-39 12 -62 40 -62 77c0 51 48 90 120 90s117 -41 117 -90c0 -39 -24 -68 -59 -77c45 -9 76 -37 76 -84c0 -61 -59 -98 -134 -98zM479 25c39 0 55 28 55 67c0 40 -16 65 -55 65c-41 0 -56 -25 -56 -65
c0 -39 17 -67 56 -67zM479 186c29 0 44 20 44 61c0 37 -17 57 -44 57c-29 0 -47 -19 -47 -58s18 -60 47 -60zM6 -18l514 663l32 -25l-515 -663zM145 285c-36 0 -53 27 -53 52c0 27 14 48 29 73l93 154h-86c-44 0 -53 -4 -64 -32l-9 -27h-34l19 121h235v-32l-120 -203
c-7 -9 -11 -19 -11 -28c0 -7 4 -14 15 -14s16 6 19 10c12 -3 20 -15 20 -30c0 -27 -22 -44 -53 -44z" />
    <glyph glyph-name="six.den" horiz-adv-x="310" 
d="M161 -9c-88 0 -142 59 -142 142c0 133 94 203 242 203v-36c-103 -7 -147 -45 -158 -124c20 15 48 26 83 26c57 0 106 -30 106 -98c0 -63 -47 -113 -131 -113zM157 163c-22 0 -41 -6 -56 -17v-10c0 -76 20 -109 60 -109c39 0 54 30 54 73c0 39 -21 63 -58 63z" />
    <glyph glyph-name="six.num" horiz-adv-x="310" 
d="M161 284c-88 0 -142 59 -142 142c0 133 94 203 242 203v-36c-103 -7 -147 -45 -158 -124c20 15 48 26 83 26c57 0 106 -30 106 -98c0 -63 -47 -113 -131 -113zM157 456c-22 0 -41 -6 -56 -17v-10c0 -76 20 -109 60 -109c39 0 54 30 54 73c0 39 -21 63 -58 63z" />
    <glyph glyph-name="six.sub" horiz-adv-x="310" 
d="M161 -152c-88 0 -142 59 -142 143c0 132 94 203 242 203v-37c-103 -7 -147 -44 -158 -124c20 15 48 26 83 26c57 0 106 -30 106 -99c0 -60 -48 -112 -131 -112zM157 21c-23 0 -41 -7 -56 -18v-10c0 -76 20 -109 60 -109c39 0 54 31 54 74c0 39 -21 63 -58 63z" />
    <glyph glyph-name="six.sup" horiz-adv-x="310" 
d="M161 324c-88 0 -142 59 -142 142c0 132 94 204 242 204v-37c-103 -7 -147 -45 -158 -124c20 15 48 26 83 26c57 0 106 -29 106 -98c0 -61 -48 -113 -131 -113zM157 496c-22 0 -41 -6 -56 -17v-10c0 -76 20 -109 60 -109c39 0 54 30 54 73c0 39 -21 63 -58 63z" />
    <glyph glyph-name="space.uc" horiz-adv-x="186" 
 />
    <glyph glyph-name="three.num" horiz-adv-x="290" 
d="M128 285c-77 0 -114 35 -114 78c0 31 20 46 43 46s35 -16 35 -33c0 -21 -20 -27 -20 -34c0 -13 15 -24 43 -24c47 0 69 20 69 71c0 43 -27 60 -72 60h-27v32h27c37 0 62 20 62 67c0 32 -19 51 -50 51c-20 0 -34 -8 -34 -16c0 -7 14 -12 14 -31s-14 -32 -34 -32
c-24 0 -39 17 -39 40c0 48 56 72 109 72c72 0 114 -34 114 -81c0 -40 -33 -71 -77 -80v-2c61 -8 93 -39 93 -83c0 -61 -57 -101 -142 -101z" />
    <glyph glyph-name="three.sub" horiz-adv-x="290" 
d="M128 -150c-77 0 -114 36 -114 77c0 31 20 47 43 47s35 -17 35 -33c0 -22 -20 -26 -20 -34c0 -13 15 -24 43 -24c47 0 69 18 69 69c0 43 -27 62 -72 62h-27v32h27c37 0 62 20 62 67c0 32 -19 50 -50 50c-20 0 -34 -8 -34 -16c0 -7 14 -12 14 -31s-14 -32 -34 -32
c-24 0 -39 17 -39 40c0 48 56 72 109 72c72 0 114 -34 114 -81c0 -40 -33 -71 -77 -80v-2c61 -8 93 -39 93 -83c0 -61 -57 -100 -142 -100z" />
    <glyph glyph-name="three.sup" horiz-adv-x="290" 
d="M128 325c-77 0 -114 36 -114 77c0 31 20 47 43 47s35 -16 35 -32c0 -22 -20 -26 -20 -35c0 -13 15 -23 43 -23c47 0 69 19 69 70c0 43 -27 60 -72 60h-27v32h27c37 0 62 22 62 67c0 33 -19 52 -50 52c-20 0 -34 -10 -34 -18c0 -7 14 -11 14 -30s-14 -31 -34 -31
c-24 0 -39 16 -39 40c0 48 56 70 109 70c72 0 114 -33 114 -80c0 -39 -33 -69 -77 -80v-3c61 -8 93 -38 93 -82c0 -60 -57 -101 -142 -101z" />
    <glyph glyph-name="threeeighths" unicode="&#x215c;" horiz-adv-x="676" 
d="M518 -9c-76 0 -136 37 -136 98c0 47 37 75 78 84c-39 12 -62 40 -62 77c0 51 48 90 120 90s117 -41 117 -90c0 -39 -24 -68 -59 -77c45 -9 76 -37 76 -84c0 -61 -59 -98 -134 -98zM518 25c39 0 55 28 55 67c0 40 -16 65 -55 65c-41 0 -56 -25 -56 -65
c0 -39 17 -67 56 -67zM518 186c29 0 44 20 44 61c0 37 -17 57 -44 57c-29 0 -47 -19 -47 -58s18 -60 47 -60zM50 -18l514 663l32 -25l-515 -663zM133 285c-77 0 -114 35 -114 78c0 31 20 46 43 46s35 -16 35 -33c0 -21 -20 -27 -20 -34c0 -13 15 -24 43 -24
c47 0 69 20 69 71c0 43 -27 60 -72 60h-27v32h27c37 0 62 20 62 67c0 32 -19 51 -50 51c-20 0 -34 -8 -34 -16c0 -7 14 -12 14 -31s-14 -32 -34 -32c-24 0 -39 17 -39 40c0 48 56 72 109 72c72 0 114 -34 114 -81c0 -40 -33 -71 -77 -80v-2c61 -8 93 -39 93 -83
c0 -61 -57 -101 -142 -101z" />
    <glyph glyph-name="threequarters" unicode="&#xbe;" horiz-adv-x="657" 
d="M40 -21l514 663l32 -25l-515 -663zM473 -3v36l40 3v58h-146v19l73 119c11 19 15 31 15 39c0 7 -4 11 -12 11s-12 -4 -19 -11c-11 1 -18 12 -18 27c0 24 20 41 47 41c31 0 48 -19 48 -44c0 -23 -11 -46 -32 -79l-54 -89h98v103l77 14v-117h48v-33h-48v-58l39 -3v-36h-156z
M133 285c-77 0 -114 35 -114 78c0 31 20 46 43 46s35 -16 35 -33c0 -21 -20 -27 -20 -34c0 -13 15 -24 43 -24c47 0 69 20 69 71c0 43 -27 60 -72 60h-27v32h27c37 0 62 20 62 67c0 32 -19 51 -50 51c-20 0 -34 -8 -34 -16c0 -7 14 -12 14 -31s-14 -32 -34 -32
c-24 0 -39 17 -39 40c0 48 56 72 109 72c72 0 114 -34 114 -81c0 -40 -33 -71 -77 -80v-2c61 -8 93 -39 93 -83c0 -61 -57 -101 -142 -101z" />
    <glyph glyph-name="trademark" unicode="&#x2122;" horiz-adv-x="694" 
d="M489 320h-24l-80 244v-208l33 -7v-29h-98v29l31 7v235l-31 4v31h107l66 -199l67 199h108v-31l-31 -2v-242l31 -2v-29h-130v29l37 4v217zM89 320v29l36 4v244h-30c-25 0 -28 -6 -35 -34l-9 -42h-25v105h266v-105h-26l-8 40c-7 32 -14 36 -41 36h-24v-244l36 -4v-29h-140z
" />
    <glyph glyph-name="two.num" horiz-adv-x="285" 
d="M21 293l-4 46c89 71 161 124 161 197c0 43 -21 61 -53 61c-25 0 -41 -12 -41 -25c0 -15 20 -18 20 -40c0 -19 -15 -33 -38 -33c-27 0 -45 16 -45 48c0 49 53 85 117 85c88 0 124 -50 124 -98c0 -74 -93 -131 -182 -182h102c35 0 42 4 49 28l5 14h30l-12 -101h-233z" />
    <glyph glyph-name="two.sub" horiz-adv-x="285" 
d="M21 -143l-4 46c90 71 161 124 161 197c0 43 -21 62 -53 62c-25 0 -41 -13 -41 -25c0 -15 20 -18 20 -40c0 -19 -15 -33 -38 -33c-27 0 -45 16 -45 48c0 49 53 84 117 84c88 0 124 -50 124 -98c0 -74 -93 -131 -182 -182h102c35 0 42 4 49 27l5 15h30l-12 -101h-233z" />
    <glyph glyph-name="two.sup" horiz-adv-x="285" 
d="M21 333l-4 45c90 72 161 126 161 198c0 43 -21 62 -53 62c-25 0 -41 -11 -41 -26c0 -12 20 -19 20 -40c0 -19 -15 -33 -38 -33c-27 0 -45 17 -45 48c0 51 53 84 117 84c88 0 124 -49 124 -98c0 -73 -93 -127 -182 -181h102c35 0 42 5 49 28l5 14h30l-12 -101h-233z" />
    <glyph glyph-name="twothirds" unicode="&#x2154;" horiz-adv-x="685" 
d="M518 -8c-77 0 -114 35 -114 78c0 31 20 46 43 46s35 -16 35 -33c0 -21 -20 -27 -20 -34c0 -13 15 -24 43 -24c47 0 69 20 69 71c0 43 -27 60 -72 60h-27v32h27c37 0 62 20 62 67c0 32 -19 51 -50 51c-20 0 -34 -8 -34 -16c0 -7 14 -12 14 -31s-14 -32 -34 -32
c-24 0 -39 17 -39 40c0 48 56 72 109 72c72 0 114 -34 114 -81c0 -40 -33 -71 -77 -80v-2c61 -8 93 -39 93 -83c0 -61 -57 -101 -142 -101zM71 -18l514 663l32 -25l-515 -663zM26 293l-4 46c89 71 161 124 161 197c0 43 -21 61 -53 61c-25 0 -41 -12 -41 -25
c0 -15 20 -18 20 -40c0 -19 -15 -33 -38 -33c-27 0 -45 16 -45 48c0 49 53 85 117 85c88 0 124 -50 124 -98c0 -74 -93 -131 -182 -182h102c35 0 42 4 49 28l5 14h30l-12 -101h-233z" />
    <glyph glyph-name="zero.den" horiz-adv-x="345" 
d="M172 27c43 0 69 40 69 136c0 97 -26 139 -69 139c-41 0 -67 -42 -67 -139c0 -96 26 -136 67 -136zM172 -9c-77 0 -153 66 -153 172c0 107 76 176 153 176c80 0 154 -69 154 -176c0 -106 -74 -172 -154 -172z" />
    <glyph glyph-name="zero.num" horiz-adv-x="345" 
d="M172 320c43 0 69 40 69 136c0 97 -26 139 -69 139c-41 0 -67 -42 -67 -139c0 -96 26 -136 67 -136zM172 284c-77 0 -153 66 -153 172c0 107 76 176 153 176c80 0 154 -69 154 -176c0 -106 -74 -172 -154 -172z" />
    <glyph glyph-name="zero.sub" horiz-adv-x="345" 
d="M172 -115c43 0 69 40 69 136s-26 139 -69 139c-41 0 -67 -43 -67 -139s26 -136 67 -136zM172 -152c-77 0 -153 66 -153 173c0 106 76 175 153 175c80 0 154 -69 154 -175c0 -107 -74 -173 -154 -173z" />
    <glyph glyph-name="zero.sup" horiz-adv-x="345" 
d="M172 360c43 0 69 41 69 137s-26 138 -69 138c-41 0 -67 -42 -67 -138s26 -137 67 -137zM172 324c-77 0 -153 66 -153 173c0 105 76 174 153 174c80 0 154 -69 154 -174c0 -107 -74 -173 -154 -173z" />
    <glyph glyph-name="uni021A" unicode="&#x21a;" horiz-adv-x="561" 
d="M237 -257l-11 32c51 19 78 45 78 73c0 13 -4 20 -11 20c-8 0 -13 -14 -34 -14c-27 0 -40 19 -40 46c0 28 26 50 61 50c47 0 79 -31 79 -80c0 -72 -58 -111 -122 -127zM152 0v39l73 7v537h-72c-57 0 -64 -15 -75 -84l-12 -81h-38v208h506v-208h-40l-11 78
c-11 80 -30 87 -92 87h-55v-537l74 -7v-39h-258z" />
    <glyph glyph-name="uni021B" unicode="&#x21b;" horiz-adv-x="326" 
d="M112 -257l-11 32c51 19 78 45 78 73c0 13 -4 20 -11 20c-8 0 -13 -14 -34 -14c-27 0 -40 19 -40 46c0 28 26 50 61 50c47 0 79 -31 79 -80c0 -72 -58 -111 -122 -127zM184 -13c-77 0 -109 34 -109 102v315l-59 -3v34c60 13 94 45 121 110l37 -2v-97h124v-45h-124v-295
c0 -40 10 -60 61 -60c25 0 42 5 73 16l9 -29c-35 -27 -82 -46 -133 -46z" />
    <glyph glyph-name="NULL" horiz-adv-x="0" 
 />
    <glyph glyph-name="NULL" horiz-adv-x="0" 
 />
    <glyph glyph-name="nonmarkingreturn" unicode="&#xd;" horiz-adv-x="160" 
 />
    </font>
</defs>
</svg>
