<?xml version="1.0" standalone="no"?>
<!DOCTYPE svg PUBLIC "-//W3C//DTD SVG 1.1//EN" "http://www.w3.org/Graphics/SVG/1.1/DTD/svg11.dtd" >
<svg xmlns="http://www.w3.org/2000/svg" xmlns:xlink="http://www.w3.org/1999/xlink" version="1.1">
<metadata>
Created by FontForge 20170731 at Tue Jul  7 19:34:25 2015
 By Aleksey,,,
Upstate (c) Andrew Footit. 2015. All Rights Reserved
</metadata>
<defs>
<font id="HudsonNY" horiz-adv-x="1067" >
  <font-face 
    font-family="HudsonNY"
    font-weight="400"
    font-stretch="normal"
    units-per-em="2048"
    panose-1="2 0 5 0 0 0 0 0 0 0"
    ascent="1891"
    descent="-157"
    x-height="1434"
    cap-height="1434"
    bbox="-326 -463 2087 2031"
    underline-thickness="150"
    underline-position="-442"
    unicode-range="U+001D-2122"
  />
<missing-glyph horiz-adv-x="1040" 
d="M387 0h286v277h-286v-277zM290 1430l-187 -187v-260h284l1 46v94l50 50h179l54 -54v-190l-285 -223v-308h287v178l282 220v444l-190 190h-475z" />
    <glyph glyph-name=".notdef" horiz-adv-x="1040" 
d="M387 0h286v277h-286v-277zM290 1430l-187 -187v-260h284l1 46v94l50 50h179l54 -54v-190l-285 -223v-308h287v178l282 220v444l-190 190h-475z" />
    <glyph glyph-name=".null" horiz-adv-x="0" 
 />
    <glyph glyph-name=".null" horiz-adv-x="0" 
 />
    <glyph glyph-name="nonmarkingreturn" horiz-adv-x="508" 
 />
    <glyph glyph-name="space" unicode=" " horiz-adv-x="508" 
 />
    <glyph glyph-name="space" unicode="&#xa0;" horiz-adv-x="508" 
 />
    <glyph glyph-name="exclam" unicode="!" horiz-adv-x="502" 
d="M107 433h289v1006h-289v-1006zM107 0h289v280h-289v-280z" />
    <glyph glyph-name="quotedbl" unicode="&#x22;" horiz-adv-x="867" 
d="M102 1601v-278l93 -179h91q103 175 103 179v278h-287zM506 1600v-278l93 -178h91q103 175 103 178v278h-287z" />
    <glyph glyph-name="numbersign" unicode="#" horiz-adv-x="1328" 
d="M827 1435l-52 -408h-155l52 408h-228l-52 -408h-249v-224h220l-24 -187h-252v-224h224l-50 -392h229l49 392h156l-50 -392h228l50 392h261v224h-232l24 187h263v224h-235l52 408h-229zM592 803h155l-24 -187h-155z" />
    <glyph glyph-name="dollar" unicode="$" horiz-adv-x="1094" 
d="M410 1627v-181h-100l-192 -193v-465l560 -298v-172l-55 -56h-185l-51 52l-1 123h-292v-247l192 -192h124v-181h290v181h75l195 196v456l-560 299v179l55 55l184 1l51 -52v-121h292v241l-192 194h-100v181h-290z" />
    <glyph glyph-name="percent" unicode="%" horiz-adv-x="1509" 
d="M223 1430l-124 -124v-408l124 -124h315l124 124v409l-124 123h-315zM321 944l-34 34v248l36 35l119 1l32 -34v-248l-35 -36h-118zM979 655l-124 -124v-408l124 -124h315l125 124v409l-125 123h-315zM1077 169l-33 34v247l35 36h119l32 -33v-248l-34 -36h-119zM1041 1436
l-786 -1432h230l786 1432h-230z" />
    <glyph glyph-name="ampersand" unicode="&#x26;" horiz-adv-x="1203" 
d="M298 1434l-191 -191v-460l60 -66l-60 -66v-460l191 -191h524l190 191v132h114v241h-404v-253l-49 -51h-222l-55 54v279l56 54h236v189h-236l-56 54v229l55 55h186l49 -51v-140h290v259l-190 192h-488z" />
    <glyph glyph-name="quotesingle" unicode="'" horiz-adv-x="460" 
d="M98 1559v-278l93 -179h91q103 175 103 179v278h-287z" />
    <glyph glyph-name="parenleft" unicode="(" horiz-adv-x="655" 
d="M299 1541l-196 -195v-1277l196 -196h261v266l-104 1l-56 56v1024l52 53h108v268h-261z" />
    <glyph glyph-name="parenright" unicode=")" horiz-adv-x="671" 
d="M103 1541v-268h107l53 -53v-1024l-57 -56l-103 -1v-266h261l196 196v1277l-196 195h-261z" />
    <glyph glyph-name="asterisk" unicode="*" horiz-adv-x="694" 
d="M273 1601v-137l-122 71l-72 -125l127 -73l-122 -73l72 -122l117 70v-138h147v139l119 -69l72 125l-123 71l121 72l-73 122l-116 -69v136h-147z" />
    <glyph glyph-name="plus" unicode="+" horiz-adv-x="1162" 
d="M448 1103v-330h-350v-255h350v-331h269v331h350v255h-350v330h-269z" />
    <glyph glyph-name="comma" unicode="," horiz-adv-x="498" 
d="M106 290v-287h148l-103 -184h135q117 180 117 184v287h-297z" />
    <glyph glyph-name="hyphen" unicode="-" horiz-adv-x="898" 
d="M90 603h713v256h-713v-256z" />
    <glyph glyph-name="hyphen" unicode="&#xad;" horiz-adv-x="898" 
d="M90 603h713v256h-713v-256z" />
    <glyph glyph-name="period" unicode="." horiz-adv-x="498" 
d="M102 0h299v289h-299v-289z" />
    <glyph glyph-name="slash" unicode="/" horiz-adv-x="871" 
d="M505 1541l-407 -1664h283l407 1664h-283z" />
    <glyph glyph-name="zero" unicode="0" horiz-adv-x="1056" 
d="M293 1435l-191 -191v-1053l191 -191h485l192 191v1054l-192 190h-485zM444 262l-52 52v805l55 55h185l48 -51v-805l-53 -56h-183z" />
    <glyph glyph-name="one" unicode="1" horiz-adv-x="607" 
d="M99 1430v-262l128 -1l1 -1167h287v1430h-416z" />
    <glyph glyph-name="two" unicode="2" horiz-adv-x="1036" 
d="M269 1436l-190 -192v-233h290v114l50 50h183l54 -54v-184l-555 -296v-641h845v404h-290v-142h-265v225l555 297v461l-191 191h-486z" />
    <glyph glyph-name="three" unicode="3" horiz-adv-x="1094" 
d="M288 1434l-190 -192v-232h290v113l49 51h222l55 -55v-212l-56 -55h-236v-260h236l56 -54v-224l-55 -54h-222l-49 51v140h-290v-260l190 -191h524l191 191v460l-60 66l60 66v460l-191 191h-524z" />
    <glyph glyph-name="four" unicode="4" horiz-adv-x="1168" 
d="M99 1434v-931l191 -190h290v-313h293l-1 313h191v289h-191l-2 557h-290l1 -115l-1 -442h-135l-52 51v781h-294z" />
    <glyph glyph-name="five" unicode="5" horiz-adv-x="1052" 
d="M98 1434v-717l574 -140v-263l-55 -54h-183l-50 51v143h-289v-263l190 -191h485l191 191v577l-574 140l-1 264h265l1 -162h289v424h-843z" />
    <glyph glyph-name="six" unicode="6" horiz-adv-x="1064" 
d="M288 1434l-190 -191v-1052l190 -191h484l192 190v506l-192 190h-385v233l55 55h182l50 -51v-113h290v232l-190 192h-486zM438 262l-51 51v258l55 55h183l49 -52v-257l-53 -55h-183z" />
    <glyph glyph-name="seven" unicode="7" horiz-adv-x="1068" 
d="M98 1436v-404h282v140h265l-338 -1172h308l393 1436h-910z" />
    <glyph glyph-name="eight" unicode="8" horiz-adv-x="1143" 
d="M329 1433l-190 -190v-426l42 -42l-81 -81v-504l190 -190h562l191 190v505l-81 80l42 41v428l-191 189h-484zM479 888l-51 51v180l55 54l183 1l49 -52v-179l-53 -55h-183zM440 262l-51 51v257l55 55h260l50 -51v-258l-53 -55z" />
    <glyph glyph-name="nine" unicode="9" horiz-adv-x="1064" 
d="M295 1434l-192 -191v-505l192 -190h385v-234l-55 -54h-183l-49 51v113h-290v-233l190 -191h485l191 191v1052l-191 191h-483zM392 859v258l54 55h182l52 -51v-258l-55 -55h-183z" />
    <glyph glyph-name="colon" unicode=":" horiz-adv-x="490" 
d="M106 742h285v276h-285v-276zM106 -1h285v276h-285v-276z" />
    <glyph glyph-name="semicolon" unicode=";" horiz-adv-x="505" 
d="M106 290v-287h148l-103 -184h135q117 180 117 184v287h-297zM403 737h-297v287h297v-287z" />
    <glyph glyph-name="semicolon" unicode="&#x37e;" horiz-adv-x="505" 
d="M106 290v-287h148l-103 -184h135q117 180 117 184v287h-297zM403 737h-297v287h297v-287z" />
    <glyph glyph-name="less" unicode="&#x3c;" horiz-adv-x="1064" 
d="M98 804v-207l874 -289v221l-527 172l527 171v221z" />
    <glyph glyph-name="equal" unicode="=" horiz-adv-x="1101" 
d="M90 735h921v256h-921v-256zM90 351h921v256h-921v-256z" />
    <glyph glyph-name="greater" unicode="&#x3e;" horiz-adv-x="1052" 
d="M98 1093v-221l527 -171l-527 -172v-221l874 289v207z" />
    <glyph glyph-name="question" unicode="?" horiz-adv-x="1040" 
d="M387 0h286v277h-286v-277zM290 1430l-187 -187v-260h284l1 46v94l50 50h179l54 -54v-190l-285 -223v-308h287v178l282 220v444l-190 190h-475z" />
    <glyph glyph-name="at" unicode="@" horiz-adv-x="1645" 
d="M420 1434l-211 -191l-110 -1052l171 -190h1019l64 226h-971l-49 56l91 866l65 60h777l47 -56l-27 -260l-32 -300l-54 -49h-30l-31 20l55 528h-166l-35 -51l-44 51h-260l-179 -161l-44 -428l144 -161h385l43 44l58 -44h164l210 192l17 161l57 549l-172 190h-952zM760 564
l-38 43l22 218l52 47h89l37 -43l-23 -219l-50 -46h-89z" />
    <glyph glyph-name="A" unicode="A" horiz-adv-x="850" 
d="M251 1434l-262 -1434h279l51 306h213l42 -306h281l-259 1434h-345zM425 974l65 -408h-129z" />
    <glyph glyph-name="B" unicode="B" horiz-adv-x="1073" 
d="M677 315l-64 -62h-224v221l227 118l61 -62v-215zM388 1165h224l63 -61v-162l-60 -62l-227 -117v402zM776 1434h-677v-1434h682l185 185v435l-119 118l120 119l-1 387z" />
    <glyph glyph-name="C" unicode="C" horiz-adv-x="1075" 
d="M290 1434l-191 -191v-1052l191 -191h486l192 190v237l-291 -1v-112l-54 -54h-183l-51 52v806l55 56h183l51 -52v-97l290 -2v220l-192 191h-486z" />
    <glyph glyph-name="D" unicode="D" horiz-adv-x="1073" 
d="M99 1434l2 -1434h683l185 185v1059l-190 190h-680zM392 1173h227l61 -61v-790l-64 -62h-224v913z" />
    <glyph glyph-name="E" unicode="E" horiz-adv-x="1056" 
d="M103 1434v-1328l1 -106h847l1 259l-559 1v351l421 -1v256h-421v308h559v260h-849z" />
    <glyph glyph-name="F" unicode="F" horiz-adv-x="1037" 
d="M104 1434l1 -1434h288l1 611l440 2v253h-440v308h541v260h-831z" />
    <glyph glyph-name="G" unicode="G" 
d="M290 1434l-191 -191v-1052l191 -191h485l192 190v550h-412v-258h122v-169l-53 -53h-184l-51 52v807l55 55h184l49 -52v-136h290v257l-192 191h-485z" />
    <glyph glyph-name="H" unicode="H" horiz-adv-x="1093" 
d="M670 1434l1 -590h-278l-2 590h-288v-1434h288l2 556h278l-1 -556h293l-3 1434h-290z" />
    <glyph glyph-name="I" unicode="I" horiz-adv-x="489" 
d="M99 0h289v1434h-289v-1434z" />
    <glyph glyph-name="J" unicode="J" horiz-adv-x="1069" 
d="M667 1434l1 -1091v-35l-51 -51h-190l-43 43v142l-287 1v-261l182 -182h487l188 189v1245h-287z" />
    <glyph glyph-name="K" unicode="K" horiz-adv-x="1073" 
d="M951 718l-119 118l120 120l-2 482h-290v-398l-60 -61l-212 -107v564h-288v-1434h288v580l213 108l61 -61v-629h289v718z" />
    <glyph glyph-name="L" unicode="L" horiz-adv-x="1060" 
d="M98 1436v-1436h852v259l-562 1l-1 1176h-289z" />
    <glyph glyph-name="M" unicode="M" horiz-adv-x="1308" 
d="M857 1432l-211 -565l-207 565h-339l-3 -1432h261l2 858l191 -506h193l191 506l1 -858h256v1432h-335z" />
    <glyph glyph-name="N" unicode="N" horiz-adv-x="1056" 
d="M346 1434h-247v-1434h269l-1 744l358 -744h232v1434h-267v-677z" />
    <glyph glyph-name="O" unicode="O" 
d="M292 1434l-191 -191v-1052l191 -191h485l192 191v1053l-192 190h-485zM442 262l-51 52v805l55 55h183l50 -51v-806l-53 -55h-184z" />
    <glyph glyph-name="P" unicode="P" horiz-adv-x="1081" 
d="M101 1435l-3 -1435h296l-1 510h392l185 184v552l-190 189h-679zM393 1175h227l61 -61v-282l-64 -61h-224v404z" />
    <glyph glyph-name="Q" unicode="Q" horiz-adv-x="1082" 
d="M298 1435l-191 -191v-1051l191 -191h484l1 1l122 -122l185 185l-121 122l5 5v1052l-192 190h-484zM448 264l-51 52v804l55 55h183l49 -51v-805l-53 -55h-183z" />
    <glyph glyph-name="R" unicode="R" horiz-adv-x="1081" 
d="M101 1434l1 -1434h291l-1 509h115l222 -509h320l-251 523l170 170l1 551l-190 190h-678zM392 1174h227l61 -61v-282l-64 -61h-224v404z" />
    <glyph glyph-name="S" unicode="S" horiz-adv-x="1056" 
d="M302 1434l-191 -191v-460l555 -296v-170l-55 -55l-182 -1l-51 52l-1 122l-289 -1v-244l190 -190h484l193 194v452l-554 296v177l54 55h183l50 -51v-120h289v239l-190 192h-485z" />
    <glyph glyph-name="T" unicode="T" horiz-adv-x="1114" 
d="M75 1434v-259l328 -1v-1174h291v1174l333 1v259h-952z" />
    <glyph glyph-name="U" unicode="U" horiz-adv-x="1056" 
d="M666 1434v-1122l-52 -54h-181l-51 51v1125h-285v-1246l188 -188h486l181 181l2 1253h-288z" />
    <glyph glyph-name="V" unicode="V" horiz-adv-x="1027" 
d="M708 1434l-196 -845l-193 845h-290l344 -1434h280l342 1434h-287z" />
    <glyph glyph-name="W" unicode="W" horiz-adv-x="1601" 
d="M1289 1434l-196 -845l-154 845h-267l-149 -845l-188 845h-297l346 -1434h280l145 694l143 -694h284l338 1434h-285z" />
    <glyph glyph-name="X" unicode="X" horiz-adv-x="1037" 
d="M705 1436l-189 -412l-183 412h-294l329 -718l-337 -718h299l188 412l185 -412h291l-329 718l331 718h-291z" />
    <glyph glyph-name="Y" unicode="Y" horiz-adv-x="1018" 
d="M695 1436l-182 -469l-192 469h-298l341 -824v-612h290l1 612l340 824h-300z" />
    <glyph glyph-name="Z" unicode="Z" horiz-adv-x="998" 
d="M910 260h-509v53l512 784q3 6 3 13v16h1v281l-1 27h-802l1 -260h509l-1 -56l-516 -764q-4 -6 -4 -13v-341h807v260z" />
    <glyph glyph-name="bracketleft" unicode="[" horiz-adv-x="683" 
d="M99 1540v-1662h486v282h-191v1098h191v282h-486z" />
    <glyph glyph-name="backslash" unicode="\" horiz-adv-x="801" 
d="M80 1541l407 -1664h283l-407 1664h-283z" />
    <glyph glyph-name="bracketright" unicode="]" horiz-adv-x="694" 
d="M99 1540v-282h190v-1098h-190v-282h486v1662h-486z" />
    <glyph glyph-name="asciicircum" unicode="^" horiz-adv-x="1131" 
d="M418 1294l-361 -759h276l214 457l215 -457h276l-361 759h-259z" />
    <glyph glyph-name="underscore" unicode="_" horiz-adv-x="1196" 
d="M98 -200h1003v174h-1003v-174z" />
    <glyph glyph-name="grave" unicode="`" horiz-adv-x="1024" 
d="M198 1538l310 -357h172l-170 357h-312z" />
    <glyph glyph-name="a" unicode="a" horiz-adv-x="899" 
d="M279 1434l-262 -1434h279l51 306h213l42 -306h281l-259 1434h-345zM453 974l65 -408h-129z" />
    <glyph glyph-name="b" unicode="b" horiz-adv-x="1073" 
d="M677 315l-64 -62h-224v221l227 118l61 -62v-215zM388 1165h224l63 -61v-162l-60 -62l-227 -117v402zM776 1434h-677v-1434h682l185 185v435l-119 118l120 119l-1 387z" />
    <glyph glyph-name="c" unicode="c" horiz-adv-x="1075" 
d="M290 1434l-191 -191v-1052l191 -191h486l192 190v237l-291 -1v-112l-54 -54h-183l-51 52v806l55 56h183l51 -52v-97l290 -2v220l-192 191h-486z" />
    <glyph glyph-name="d" unicode="d" horiz-adv-x="1073" 
d="M99 1434l2 -1434h683l185 185v1059l-190 190h-680zM392 1173h227l61 -61v-790l-64 -62h-224v913z" />
    <glyph glyph-name="e" unicode="e" horiz-adv-x="1056" 
d="M103 1434v-1328l1 -106h847l1 259l-559 1v351l421 -1v256h-421v308h559v260h-849z" />
    <glyph glyph-name="f" unicode="f" horiz-adv-x="1037" 
d="M104 1434l1 -1434h288l1 611l440 2v253h-440v308h541v260h-831z" />
    <glyph glyph-name="g" unicode="g" 
d="M290 1434l-191 -191v-1052l191 -191h485l192 190v550h-412v-258h122v-169l-53 -53h-184l-51 52v807l55 55h184l49 -52v-136h290v257l-192 191h-485z" />
    <glyph glyph-name="h" unicode="h" horiz-adv-x="1093" 
d="M670 1434l1 -590h-278l-2 590h-288v-1434h288l2 556h278l-1 -556h293l-3 1434h-290z" />
    <glyph glyph-name="i" unicode="i" horiz-adv-x="489" 
d="M99 0h289v1434h-289v-1434z" />
    <glyph glyph-name="j" unicode="j" horiz-adv-x="1069" 
d="M667 1434l1 -1091v-35l-51 -51h-190l-43 43v142l-287 1v-261l182 -182h487l188 189v1245h-287z" />
    <glyph glyph-name="k" unicode="k" horiz-adv-x="1073" 
d="M951 718l-119 118l120 120l-2 482h-290v-398l-60 -61l-212 -107v564h-288v-1434h288v580l213 108l61 -61v-629h289v718z" />
    <glyph glyph-name="l" unicode="l" horiz-adv-x="1060" 
d="M98 1436v-1436h852v259l-562 1l-1 1176h-289z" />
    <glyph glyph-name="m" unicode="m" horiz-adv-x="1308" 
d="M857 1432l-211 -565l-207 565h-339l-3 -1432h261l2 858l191 -506h193l191 506l1 -858h256v1432h-335z" />
    <glyph glyph-name="n" unicode="n" horiz-adv-x="1056" 
d="M346 1434h-247v-1434h269l-1 744l358 -744h232v1434h-267v-677z" />
    <glyph glyph-name="o" unicode="o" 
d="M292 1434l-191 -191v-1052l191 -191h485l192 191v1053l-192 190h-485zM442 262l-51 52v805l55 55h183l50 -51v-806l-53 -55h-184z" />
    <glyph glyph-name="p" unicode="p" horiz-adv-x="1081" 
d="M101 1435l-3 -1435h296l-1 510h392l185 184v552l-190 189h-679zM393 1175h227l61 -61v-282l-64 -61h-224v404z" />
    <glyph glyph-name="q" unicode="q" horiz-adv-x="1082" 
d="M298 1435l-191 -191v-1051l191 -191h484l1 1l122 -122l185 185l-121 122l5 5v1052l-192 190h-484zM448 264l-51 52v804l55 55h183l49 -51v-805l-53 -55h-183z" />
    <glyph glyph-name="r" unicode="r" horiz-adv-x="1081" 
d="M101 1434l1 -1434h291l-1 509h115l222 -509h320l-251 523l170 170l1 551l-190 190h-678zM392 1174h227l61 -61v-282l-64 -61h-224v404z" />
    <glyph glyph-name="s" unicode="s" horiz-adv-x="1056" 
d="M302 1434l-191 -191v-460l555 -296v-170l-55 -55l-182 -1l-51 52l-1 122l-289 -1v-244l190 -190h484l193 194v452l-554 296v177l54 55h183l50 -51v-120h289v239l-190 192h-485z" />
    <glyph glyph-name="t" unicode="t" horiz-adv-x="1114" 
d="M75 1434v-259l328 -1v-1174h291v1174l333 1v259h-952z" />
    <glyph glyph-name="u" unicode="u" horiz-adv-x="1056" 
d="M666 1434v-1122l-52 -54h-181l-51 51v1125h-285v-1246l188 -188h486l181 181l2 1253h-288z" />
    <glyph glyph-name="v" unicode="v" horiz-adv-x="1027" 
d="M708 1434l-196 -845l-193 845h-290l344 -1434h280l342 1434h-287z" />
    <glyph glyph-name="w" unicode="w" horiz-adv-x="1601" 
d="M1289 1434l-196 -845l-154 845h-267l-149 -845l-188 845h-297l346 -1434h280l145 694l143 -694h284l338 1434h-285z" />
    <glyph glyph-name="x" unicode="x" horiz-adv-x="1037" 
d="M705 1436l-189 -412l-183 412h-294l329 -718l-337 -718h299l188 412l185 -412h291l-329 718l331 718h-291z" />
    <glyph glyph-name="y" unicode="y" horiz-adv-x="1018" 
d="M695 1436l-182 -469l-192 469h-298l341 -824v-612h290l1 612l340 824h-300z" />
    <glyph glyph-name="z" unicode="z" horiz-adv-x="998" 
d="M910 260h-509v53l512 784q3 6 3 13v16h1v281l-1 27h-802l1 -260h509l-1 -56l-516 -764q-4 -6 -4 -13v-341h807v260z" />
    <glyph glyph-name="braceleft" unicode="{" horiz-adv-x="864" 
d="M304 1538v-611l-196 -134v-157l196 -136v-611h446v272h-174l1 430l-179 122l178 125v428l174 1v271h-446z" />
    <glyph glyph-name="bar" unicode="|" horiz-adv-x="1014" 
d="M106 -176h209v1784h-209v-1784z" />
    <glyph glyph-name="braceright" unicode="}" horiz-adv-x="845" 
d="M108 1538v-271l174 -1v-428l178 -125l-179 -122l1 -430h-174v-272h446v611l196 136v157l-196 134v611h-446z" />
    <glyph glyph-name="asciitilde" unicode="~" horiz-adv-x="1234" 
d="M1014 936q-3 -4 -5 -6q-32 -41 -74 -66q-54 -31 -120 -31q-77 0 -168 44q-49 24 -91 37q-60 19 -115 19q-36 0 -71 -8q-168 -40 -264 -144l-7 -7l134 -220l7 7q52 51 120 74q51 17 108 17q49 0 95 -12q19 -5 35 -11q13 -5 22 -11q122 -66 254 -52q80 8 147 49
q41 25 114 90l13 12z" />
    <glyph glyph-name="exclamdown" unicode="&#xa1;" horiz-adv-x="502" 
d="M396 591h-289v-1006h289v1006zM396 1024h-289v-280h289v280z" />
    <glyph glyph-name="cent" unicode="&#xa2;" horiz-adv-x="1201" 
d="M670 1563l-15 -133h-265l-190 -190v-1049l190 -190h99l-16 -133h123l16 133h263l192 189v237l-291 -1v-112l-53 -54h-81l103 892l32 -33v-97l290 -2v220l-192 190h-97l15 133h-123zM489 312v804l55 55h81l-104 -891z" />
    <glyph glyph-name="sterling" unicode="&#xa3;" horiz-adv-x="1197" 
d="M453 1434l-191 -191v-422h-159v-233h159v-397l-35 -191h672l191 190l2 315h-291l-1 -192l-52 -53h-145l-51 52v276h302v233h-302v298l55 55h144l49 -52l1 -36v-69h291l-2 226l-191 191h-446z" />
    <glyph glyph-name="yen" unicode="&#xa5;" horiz-adv-x="1023" 
d="M697 1436l-182 -469l-192 469h-298l216 -523h-166v-235h264l27 -66v-12h-291v-235h291v-365h290v365h288v235h-287v12l27 66h260v235h-163l216 523h-300z" />
    <glyph glyph-name="brokenbar" unicode="&#xa6;" horiz-adv-x="1014" 
d="M106 860h209v748h-209v-748zM106 -142h209v738h-209v-738z" />
    <glyph glyph-name="dieresis" unicode="&#xa8;" horiz-adv-x="1024" 
d="M547 1184h260v260h-260v-260zM203 1184h260v260h-260v-260z" />
    <glyph glyph-name="copyright" unicode="&#xa9;" horiz-adv-x="1634" 
d="M1034 878v112l-98 98h-249l-97 -98v-537l97 -97h249l98 97v121l-149 -1v-57l-27 -27h-94l-26 26v412l28 28h94l26 -26v-50zM421 326q-162 162 -162 391t162 391t391 162t391 -162t162 -391t-162 -391t-391 -162t-391 162zM533 1377q-129 -54 -228 -154q-99 -99 -154 -227
q-56 -134 -56 -279q0 -146 56 -279q55 -128 154 -228q99 -99 228 -154q133 -56 279 -56q145 0 279 56q128 55 227 154q100 100 154 228q57 133 57 279q0 145 -57 279q-54 128 -154 227q-99 100 -227 154q-134 57 -279 57q-146 0 -279 -57z" />
    <glyph glyph-name="registered" unicode="&#xae;" horiz-adv-x="1638" 
d="M753 966h117l31 -31v-146l-33 -32h-115v209zM1092 359l-130 270l89 89v285l-98 98h-351v-742h151v263h59l115 -263h165zM425 327q-163 163 -163 392t163 392q162 162 392 162q229 0 392 -162q162 -163 162 -392t-162 -392q-163 -163 -392 -163q-230 0 -392 163zM537 1381
q-129 -54 -228 -154q-100 -100 -155 -229q-56 -133 -56 -279t56 -280q55 -129 155 -228q99 -100 228 -154q134 -57 280 -57t279 57q129 54 229 154q99 99 154 228q57 134 57 280t-57 279q-55 129 -154 229q-100 100 -229 154q-133 57 -279 57t-280 -57z" />
    <glyph glyph-name="macron" unicode="&#xaf;" horiz-adv-x="1304" 
d="M98 1462h1099v174h-1099v-174z" />
    <glyph glyph-name="degree" unicode="&#xb0;" horiz-adv-x="674" 
d="M409 1232q29 -29 29 -71q0 -43 -29 -72t-71 -29q-43 0 -72 29t-29 72q0 42 29 71t72 29q42 0 71 -29zM549 949q88 88 88 212q0 123 -88 211t-211 88q-124 0 -212 -88t-88 -211q0 -124 88 -212t212 -88q123 0 211 88z" />
    <glyph glyph-name="plusminus" unicode="&#xb1;" horiz-adv-x="1162" 
d="M458 1346v-330h-350v-255h350v-331h270v331h350v255h-350v330h-270zM123 64h949v256h-949v-256z" />
    <glyph glyph-name="uni00B2" unicode="&#xb2;" horiz-adv-x="701" 
d="M210 1428l-110 -111v-135h168v66l29 29h106l32 -32v-106l-323 -172l1 -372h490v234h-169l1 -83l-154 1v130l322 172v268l-111 111h-282z" />
    <glyph glyph-name="uni00B3" unicode="&#xb3;" horiz-adv-x="755" 
d="M213 1434l-116 -116v-142h176v69l31 31h135l33 -34v-129l-33 -33h-145v-159h145l33 -33v-137l-33 -33h-135l-31 31v85h-176v-158l116 -117h320l116 116v282l-37 40l37 40v281l-116 116h-320z" />
    <glyph glyph-name="acute" unicode="&#xb4;" horiz-adv-x="1024" 
d="M483 1538l-169 -357h172l310 357h-313z" />
    <glyph glyph-name="paragraph" unicode="&#xb6;" horiz-adv-x="1024" 
d="M929 1435v-70h-127v-1365h-82v1365h-166v-1365h-84v738q-174 8 -275.5 102.5t-101.5 245.5q0 157 107.5 253t285.5 96h443z" />
    <glyph glyph-name="periodcentered" unicode="&#xb7;" horiz-adv-x="508" 
d="M145 740l82 84q15 14 29 14q13 0 31 -16l80 -86q12 -16 12 -29q0 -15 -14 -31l-80 -88q-20 -20 -29 -20q-16 0 -29 14l-88 101q-10 13 -10 26q0 15 16 31z" />
    <glyph glyph-name="periodcentered" unicode="&#x2219;" horiz-adv-x="508" 
d="M145 740l82 84q15 14 29 14q13 0 31 -16l80 -86q12 -16 12 -29q0 -15 -14 -31l-80 -88q-20 -20 -29 -20q-16 0 -29 14l-88 101q-10 13 -10 26q0 15 16 31z" />
    <glyph glyph-name="cedilla" unicode="&#xb8;" horiz-adv-x="1066" 
d="M566 -20l34 111h-177l-66 -210l68 -55l14 5q26 11 59 11q41 0 57 -17q3 -3 5 -8q3 -7 3 -17q-1 -22 -49 -47q-40 -22 -87 -33l-25 -6l43 -177l23 4h2l4 1q5 1 11 2q17 4 36 10q56 17 103 42q147 79 147 213q0 78 -64 126q-56 41 -136 45h-5z" />
    <glyph glyph-name="uni00B9" unicode="&#xb9;" horiz-adv-x="503" 
d="M103 1436v-159h78v-706h174v865h-252z" />
    <glyph glyph-name="onequarter" unicode="&#xbc;" horiz-adv-x="1594" 
d="M938 835v-543l112 -112h169v-182h171v182h111v169h-112v325h-170l1 -67l-1 -258h-79l-30 30v456h-172zM99 1439v-157h77v-699h173l-1 856h-249zM1006 1471l-839 -1529h206l839 1529h-206z" />
    <glyph glyph-name="onehalf" unicode="&#xbd;" horiz-adv-x="1393" 
d="M890 830l-110 -111v-135h168v66l29 29h106l32 -32v-106l-323 -172l1 -372h490v234h-169l1 -83l-154 1v130l322 172v268l-111 111h-282zM102 1436v-159h78v-706h174v865h-252zM1053 1442h-140q-15 0 -22 -14l-810 -1465q-7 -13 0 -26q8 -13 23 -13h139q16 0 23 14
l810 1465q7 13 0 26q-8 13 -23 13z" />
    <glyph glyph-name="threequarters" unicode="&#xbe;" horiz-adv-x="1805" 
d="M213 1434l-116 -116v-142h176v69l31 31h135l33 -34v-129l-33 -33h-145v-159h145l33 -33v-137l-33 -33h-135l-31 31v85h-176v-158l116 -117h320l116 116v282l-37 40l37 40v281l-116 116h-320zM1122 855v-555l113 -113h173v-187h175v187h113v172h-114l-1 332h-173l1 -69
v-263h-81l-31 31v465h-175zM1199 1504l-858 -1561h211l857 1561h-210z" />
    <glyph glyph-name="questiondown" unicode="&#xbf;" horiz-adv-x="1033" 
d="M664 1024h-286v-277h286v277zM761 -406l187 187v260h-284l-1 -46v-94l-50 -50h-179l-54 54v190l285 223v308h-287v-178l-282 -220v-444l190 -190h475z" />
    <glyph glyph-name="Agrave" unicode="&#xc0;" horiz-adv-x="889" 
d="M277 1435l-262 -1434h279l51 306h213l42 -306h281l-259 1434h-345zM451 975l65 -408h-129zM111 1948l310 -357h172l-170 357h-312z" />
    <glyph glyph-name="Aacute" unicode="&#xc1;" horiz-adv-x="851" 
d="M251 1434l-262 -1434h279l51 306h213l42 -306h281l-259 1434h-345zM425 974l65 -408h-129zM455 1948l-169 -357h172l310 357h-313z" />
    <glyph glyph-name="Acircumflex" unicode="&#xc2;" horiz-adv-x="890" 
d="M272 1434l-262 -1434h279l51 306h213l42 -306h281l-259 1434h-345zM446 974l65 -408h-129zM334 1917l-217 -327h233l103 151l103 -151h233l-217 327h-238z" />
    <glyph glyph-name="Atilde" unicode="&#xc3;" horiz-adv-x="883" 
d="M280 1434l-262 -1434h279l51 306h213l42 -306h281l-259 1434h-345zM454 974l65 -408h-129zM623 1885l-7 -16q-19 -45 -65 -45q-27 0 -92 17l-28 8l-28 6q-31 7 -55 7q-98 0 -165 -62q-67 -63 -88 -172l-6 -31h155l7 14q29 57 88 57q23 0 52 -7l27 -7l27 -8q65 -20 93 -20
q92 0 153 59t82 170l6 30h-156z" />
    <glyph glyph-name="Adieresis" unicode="&#xc4;" horiz-adv-x="891" 
d="M271 1434l-262 -1434h279l51 306h213l42 -306h281l-259 1434h-345zM445 974l65 -408h-129zM497 1594h260v260h-260v-260zM153 1594h260v260h-260v-260z" />
    <glyph glyph-name="Aring" unicode="&#xc5;" horiz-adv-x="858" 
d="M251 1434l-262 -1434h279l51 306h213l42 -306h281l-259 1434h-345zM425 974l65 -408h-129zM481 1862q21 -21 21 -52q0 -32 -21 -53q-22 -22 -53 -22t-52 22q-22 21 -22 53q0 31 22 52q21 22 52 22t53 -22zM584 1654q65 64 65 156q0 91 -65 155q-65 65 -156 65t-155 -65
q-65 -64 -65 -155q0 -92 65 -156q64 -65 155 -65q92 0 156 65z" />
    <glyph glyph-name="AE" unicode="&#xc6;" horiz-adv-x="1539" 
d="M251 1434l-262 -1434h279l51 306h213l42 -306h281l-259 1434h-345zM425 974l65 -408h-129zM582 1434v-1328l1 -106h847l1 259l-559 1v351l421 -1v256h-421v308h559v260h-849z" />
    <glyph glyph-name="Ccedilla" unicode="&#xc7;" horiz-adv-x="1075" 
d="M290 1434l-191 -191v-1052l191 -191h486l192 190v237l-291 -1v-112l-54 -54h-183l-51 52v806l55 56h183l51 -52v-97l290 -2v220l-192 191h-486zM536 -20l34 111h-177l-66 -210l68 -55l14 5q26 11 59 11q41 0 57 -17q3 -3 5 -8q3 -7 3 -17q-1 -22 -49 -47q-40 -22 -87 -33
l-25 -6l43 -177l23 4h2l4 1q5 1 11 2q17 4 36 10q56 17 103 42q147 79 147 213q0 78 -64 126q-56 41 -136 45h-5z" />
    <glyph glyph-name="Egrave" unicode="&#xc8;" horiz-adv-x="1064" 
d="M103 1434v-1328l1 -106h847l1 259l-559 1v351l421 -1v256h-421v308h559v260h-849zM245 1948l310 -357h172l-170 357h-312z" />
    <glyph glyph-name="Eacute" unicode="&#xc9;" horiz-adv-x="1064" 
d="M103 1434v-1328l1 -106h847l1 259l-559 1v351l421 -1v256h-421v308h559v260h-849zM515 1948l-169 -357h172l310 357h-313z" />
    <glyph glyph-name="Ecircumflex" unicode="&#xca;" horiz-adv-x="1064" 
d="M103 1434v-1328l1 -106h847l1 259l-559 1v351l421 -1v256h-421v308h559v260h-849zM448 1917l-217 -327h233l103 151l103 -151h233l-217 327h-238z" />
    <glyph glyph-name="Edieresis" unicode="&#xcb;" horiz-adv-x="1064" 
d="M103 1434v-1328l1 -106h847l1 259l-559 1v351l421 -1v256h-421v308h559v260h-849zM614 1594h260v260h-260v-260zM270 1594h260v260h-260v-260z" />
    <glyph glyph-name="Igrave" unicode="&#xcc;" horiz-adv-x="504" 
d="M103 1h289v1434h-289v-1434zM-26 1906l310 -357h172l-170 357h-312z" />
    <glyph glyph-name="Iacute" unicode="&#xcd;" horiz-adv-x="401" 
d="M36 0h289v1434h-289v-1434zM172 1899l-169 -357h172l310 357h-313z" />
    <glyph glyph-name="Icircumflex" unicode="&#xce;" horiz-adv-x="499" 
d="M31 0h289v1434h-289v-1434zM54 1917l-217 -327h233l103 151l103 -151h233l-217 327h-238z" />
    <glyph glyph-name="Idieresis" unicode="&#xcf;" horiz-adv-x="582" 
d="M95 0h289v1434h-289v-1434zM279 1594h260v260h-260v-260zM-65 1594h260v260h-260v-260z" />
    <glyph glyph-name="Eth" unicode="&#xd0;" horiz-adv-x="1194" 
d="M230 1435l2 -1434h683l185 185v1059l-190 190h-680zM523 1174h227l61 -61v-790l-64 -62h-224v913zM-22 631h1003v174h-1003v-174z" />
    <glyph glyph-name="Ntilde" unicode="&#xd1;" horiz-adv-x="1147" 
d="M346 1434h-247v-1434h269l-1 744l358 -744h232v1434h-267v-677zM758 1885l-7 -16q-19 -45 -65 -45q-27 0 -92 17l-28 8l-28 6q-31 7 -55 7q-98 0 -165 -62q-67 -63 -88 -172l-6 -31h155l7 14q29 57 88 57q23 0 52 -7l27 -7l27 -8q65 -20 93 -20q92 0 153 59t82 170l6 30
h-156z" />
    <glyph glyph-name="Ograve" unicode="&#xd2;" 
d="M292 1434l-191 -191v-1052l191 -191h485l192 191v1053l-192 190h-485zM442 262l-51 52v805l55 55h183l50 -51v-806l-53 -55h-184zM206 1948l310 -357h172l-170 357h-312z" />
    <glyph glyph-name="Oacute" unicode="&#xd3;" 
d="M292 1434l-191 -191v-1052l191 -191h485l192 191v1053l-192 190h-485zM442 262l-51 52v805l55 55h183l50 -51v-806l-53 -55h-184zM485 1948l-169 -357h172l310 357h-313z" />
    <glyph glyph-name="Ocircumflex" unicode="&#xd4;" 
d="M292 1434l-191 -191v-1052l191 -191h485l192 191v1053l-192 190h-485zM442 262l-51 52v805l55 55h183l50 -51v-806l-53 -55h-184zM408 1917l-217 -327h233l103 151l103 -151h233l-217 327h-238z" />
    <glyph glyph-name="Otilde" unicode="&#xd5;" 
d="M292 1434l-191 -191v-1052l191 -191h485l192 191v1053l-192 190h-485zM442 262l-51 52v805l55 55h183l50 -51v-806l-53 -55h-184zM726 1885l-7 -16q-19 -45 -65 -45q-27 0 -92 17l-28 8l-28 6q-31 7 -55 7q-98 0 -165 -62q-67 -63 -88 -172l-6 -31h155l7 14q29 57 88 57
q23 0 52 -7l27 -7l27 -8q65 -20 93 -20q92 0 153 59t82 170l6 30h-156z" />
    <glyph glyph-name="Odieresis" unicode="&#xd6;" 
d="M292 1434l-191 -191v-1052l191 -191h485l192 191v1053l-192 190h-485zM442 262l-51 52v805l55 55h183l50 -51v-806l-53 -55h-184zM579 1594h260v260h-260v-260zM235 1594h260v260h-260v-260z" />
    <glyph glyph-name="Oslash" unicode="&#xd8;" 
d="M292 1434l-191 -191v-1052l191 -191h485l192 191v1053l-192 190h-485zM442 262l-51 52v805l55 55h183l50 -51v-806l-53 -55h-184zM599 1541l-407 -1664h283l407 1664h-283z" />
    <glyph glyph-name="Ugrave" unicode="&#xd9;" horiz-adv-x="1127" 
d="M666 1434v-1122l-52 -54h-181l-51 51v1125h-285v-1246l188 -188h486l181 181l2 1253h-288zM237 1948l310 -357h172l-170 357h-312z" />
    <glyph glyph-name="Uacute" unicode="&#xda;" horiz-adv-x="1127" 
d="M666 1434v-1122l-52 -54h-181l-51 51v1125h-285v-1246l188 -188h486l181 181l2 1253h-288zM517 1948l-169 -357h172l310 357h-313z" />
    <glyph glyph-name="Ucircumflex" unicode="&#xdb;" horiz-adv-x="1127" 
d="M666 1434v-1122l-52 -54h-181l-51 51v1125h-285v-1246l188 -188h486l181 181l2 1253h-288zM439 1917l-217 -327h233l103 151l103 -151h233l-217 327h-238z" />
    <glyph glyph-name="Udieresis" unicode="&#xdc;" horiz-adv-x="1127" 
d="M666 1434v-1122l-52 -54h-181l-51 51v1125h-285v-1246l188 -188h486l181 181l2 1253h-288zM610 1594h260v260h-260v-260zM266 1594h260v260h-260v-260z" />
    <glyph glyph-name="Yacute" unicode="&#xdd;" horiz-adv-x="1028" 
d="M695 1436l-182 -469l-192 469h-298l341 -824v-612h290l1 612l340 824h-300zM464 1948l-169 -357h172l310 357h-313z" />
    <glyph glyph-name="agrave" unicode="&#xe0;" horiz-adv-x="889" 
d="M277 1435l-262 -1434h279l51 306h214l41 -306h282l-259 1434h-346zM452 975l64 -409h-129zM111 1948l310 -357h172l-170 357h-312z" />
    <glyph glyph-name="aacute" unicode="&#xe1;" horiz-adv-x="851" 
d="M251 1434l-262 -1434h279l51 306h213l42 -306h281l-259 1434h-345zM425 974l65 -408h-129zM456 1949l-170 -358h172l310 358h-312z" />
    <glyph glyph-name="acircumflex" unicode="&#xe2;" horiz-adv-x="890" 
d="M272 1434l-262 -1434h278l51 306h214l41 -306h282l-259 1434h-345zM446 974l65 -408h-129zM334 1917l-216 -327h233l102 151l103 -151h233l-216 327h-239z" />
    <glyph glyph-name="atilde" unicode="&#xe3;" horiz-adv-x="883" 
d="M280 1434l-262 -1434h278l51 306h214l41 -306h282l-259 1434h-345zM454 974l65 -408h-129zM623 1885l-7 -16q-19 -46 -65 -46q-27 0 -92 18l-28 7l-28 7q-31 6 -55 6q-98 0 -165 -62t-88 -172l-6 -30h154l8 14q28 57 88 57q22 0 52 -7l27 -7l27 -8q65 -20 92 -20
q93 0 154 59q60 59 82 170l6 30h-156z" />
    <glyph glyph-name="adieresis" unicode="&#xe4;" horiz-adv-x="891" 
d="M272 1434l-263 -1434h279l51 306h214l41 -306h282l-259 1434h-345zM446 974l65 -408h-130zM498 1595h259v259h-259v-259zM154 1595h259v259h-259v-259z" />
    <glyph glyph-name="aring" unicode="&#xe5;" horiz-adv-x="858" 
d="M251 1434l-262 -1434h279l51 306h213l42 -306h281l-259 1434h-345zM425 974l65 -408h-129zM481 1863q21 -22 21 -53t-21 -53q-22 -21 -53 -21t-53 21q-21 22 -21 53t21 53q22 21 53 21t53 -21zM584 1654q64 65 64 156t-64 156q-65 65 -156 65t-156 -65q-64 -65 -64 -156
t64 -156q65 -64 156 -64t156 64z" />
    <glyph glyph-name="ae" unicode="&#xe6;" horiz-adv-x="1539" 
d="M251 1434l-262 -1434h279l51 306h213l42 -306h281l-259 1434h-345zM425 974l65 -408h-129zM582 1434v-1328l1 -106h847l1 260h-559v351l420 -1v256h-420v309l559 -1v260h-849z" />
    <glyph glyph-name="ccedilla" unicode="&#xe7;" horiz-adv-x="1075" 
d="M290 1434l-191 -191v-1052l191 -191h486l192 190v237l-291 -1v-112l-54 -54h-183l-51 52v806l55 56h183l51 -52v-97l290 -2v220l-192 191h-486zM536 -20l35 111h-178l-65 -210l67 -55l14 5q26 11 59 11q41 0 57 -17q4 -3 6 -8q2 -7 2 -17q-1 -22 -48 -47q-40 -22 -88 -33
l-25 -6l43 -177l23 4h2l4 1q5 1 11 2q17 4 36 10q57 17 103 42q147 79 147 213q0 78 -64 126q-56 41 -136 45h-5z" />
    <glyph glyph-name="egrave" unicode="&#xe8;" horiz-adv-x="1064" 
d="M103 1434v-1328l1 -106h847l1 259l-559 1v351l421 -1v256h-421v308h559v260h-849zM245 1948l310 -357h172l-169 357h-313z" />
    <glyph glyph-name="eacute" unicode="&#xe9;" horiz-adv-x="1064" 
d="M103 1434v-1328l1 -106h847l1 259l-559 1v351l421 -1v256h-421v308h559v260h-849zM516 1948l-170 -357h172l310 357h-312z" />
    <glyph glyph-name="ecircumflex" unicode="&#xea;" horiz-adv-x="1064" 
d="M103 1434v-1328l1 -106h847l1 259l-559 1v351l421 -1v256h-421v308h559v260h-849zM447 1917l-216 -327h233l103 151l102 -151h233l-216 327h-239z" />
    <glyph glyph-name="edieresis" unicode="&#xeb;" horiz-adv-x="1064" 
d="M103 1434v-1328l1 -106h847l1 259l-559 1v351l421 -1v256h-421v308h559v260h-849zM614 1594h260v260h-260v-260zM270 1594h260v260h-260v-260z" />
    <glyph glyph-name="igrave" unicode="&#xec;" horiz-adv-x="504" 
d="M101 1h289v1434h-289v-1434zM-27 1906l310 -357h172l-170 357h-312z" />
    <glyph glyph-name="iacute" unicode="&#xed;" horiz-adv-x="401" 
d="M36 0h289v1434h-289v-1434zM173 1899l-169 -357h172l310 357h-313z" />
    <glyph glyph-name="icircumflex" unicode="&#xee;" horiz-adv-x="499" 
d="M173 0h289v1434h-289v-1434zM197 1917l-217 -327h233l103 151l103 -151h233l-217 327h-238z" />
    <glyph glyph-name="idieresis" unicode="&#xef;" horiz-adv-x="574" 
d="M203 0h289v1434h-289v-1434zM388 1594h260v260h-260v-260zM44 1594h260v260h-260v-260z" />
    <glyph glyph-name="eth" unicode="&#xf0;" horiz-adv-x="1194" 
d="M230 1435l2 -1434h683l185 185v1059l-190 190h-680zM523 1174h227l61 -61v-790l-64 -62h-224v913zM-22 631h1003v174h-1003v-174z" />
    <glyph glyph-name="ntilde" unicode="&#xf1;" horiz-adv-x="1147" 
d="M346 1434h-247v-1434h269l-1 744l358 -744h232v1434h-267v-677zM757 1885l-6 -16q-19 -45 -66 -45q-27 0 -92 17l-27 8l-28 6q-31 7 -55 7q-98 0 -165 -62q-67 -63 -88 -172l-6 -31h154l7 14q29 57 89 57q22 0 52 -7l27 -7l27 -8q65 -20 92 -20q93 0 153 59q61 59 83 170
l5 30h-156z" />
    <glyph glyph-name="ograve" unicode="&#xf2;" 
d="M292 1434l-191 -191v-1052l191 -191h485l192 191v1053l-192 190h-485zM442 262l-51 52v805l55 55h183l50 -51v-806l-53 -55h-184zM206 1948l309 -357h173l-170 357h-312z" />
    <glyph glyph-name="oacute" unicode="&#xf3;" 
d="M292 1434l-191 -191v-1052l191 -191h485l192 191v1053l-192 190h-485zM442 262l-51 52v805l55 55h183l50 -51v-806l-53 -55h-184zM486 1948l-170 -357h172l310 357h-312z" />
    <glyph glyph-name="ocircumflex" unicode="&#xf4;" 
d="M292 1434l-191 -191v-1052l191 -191h485l192 191v1053l-192 190h-485zM442 262l-51 52v805l55 55h183l50 -51v-806l-53 -55h-184zM408 1917l-217 -327h233l103 151l103 -151h233l-217 327h-238z" />
    <glyph glyph-name="otilde" unicode="&#xf5;" 
d="M292 1434l-191 -191v-1052l191 -191h485l192 191v1053l-192 190h-485zM442 262l-51 52v805l55 55h183l50 -51v-806l-53 -55h-184zM726 1885l-7 -16q-19 -45 -65 -45q-27 0 -92 17l-28 8l-28 6q-31 7 -55 7q-98 0 -165 -62q-67 -63 -88 -172l-6 -31h155l7 14q29 57 88 57
q23 0 52 -7l27 -7l27 -8q65 -20 92 -20q93 0 154 59t82 170l6 30h-156z" />
    <glyph glyph-name="odieresis" unicode="&#xf6;" 
d="M292 1434l-191 -191v-1052l191 -191h485l192 191v1053l-192 190h-485zM442 262l-51 52v805l55 55h183l50 -51v-806l-53 -55h-184zM579 1594h260v260h-260v-260zM235 1594h260v260h-260v-260z" />
    <glyph glyph-name="oslash" unicode="&#xf8;" 
d="M292 1434l-191 -191v-1052l191 -191h485l192 191v1053l-192 190h-485zM442 262l-51 52v805l55 55h183l50 -51v-806l-53 -55h-184zM599 1541l-407 -1664h283l407 1664h-283z" />
    <glyph glyph-name="ugrave" unicode="&#xf9;" horiz-adv-x="1127" 
d="M666 1434v-1122l-52 -54h-181l-51 51v1125h-285v-1246l188 -188h486l181 181l2 1253h-288zM237 1948l310 -357h172l-170 357h-312z" />
    <glyph glyph-name="uacute" unicode="&#xfa;" horiz-adv-x="1127" 
d="M666 1434v-1122l-52 -54h-181l-51 51v1125h-285v-1246l188 -188h486l181 181l2 1253h-288zM517 1948l-170 -357h173l310 357h-313z" />
    <glyph glyph-name="ucircumflex" unicode="&#xfb;" horiz-adv-x="1127" 
d="M666 1434v-1122l-52 -54h-181l-51 51v1125h-285v-1246l188 -188h486l181 181l2 1253h-288zM439 1917l-217 -327h233l103 151l103 -151h233l-217 327h-238z" />
    <glyph glyph-name="udieresis" unicode="&#xfc;" horiz-adv-x="1127" 
d="M666 1434v-1122l-52 -54h-181l-51 51v1125h-285v-1246l188 -188h486l181 181l2 1253h-288zM610 1594h260v260h-260v-260zM266 1594h260v260h-260v-260z" />
    <glyph glyph-name="yacute" unicode="&#xfd;" horiz-adv-x="1028" 
d="M695 1436l-182 -469l-192 469h-298l341 -824v-612h290l1 612l340 824h-300zM465 1948l-170 -357h172l310 357h-312z" />
    <glyph glyph-name="ydieresis" unicode="&#xff;" horiz-adv-x="1028" 
d="M695 1436l-182 -469l-192 469h-298l341 -824v-612h290l1 612l340 824h-300zM558 1594h259v260h-259v-260zM214 1594h259v260h-259v-260z" />
    <glyph glyph-name="dotlessi" unicode="&#x131;" horiz-adv-x="600" 
d="M99 0h289v1434h-289v-1434z" />
    <glyph glyph-name="Lslash" unicode="&#x141;" horiz-adv-x="1209" 
d="M239 1434v-768l-235 -298l149 -117l86 109v-360h851v259l-562 1l1 469l266 337l-149 117l-117 -148l1 399h-291z" />
    <glyph glyph-name="lslash" unicode="&#x142;" horiz-adv-x="1209" 
d="M239 1434v-768l-235 -298l149 -117l86 109v-360h851v259l-562 1l1 469l266 337l-149 117l-117 -148l1 399h-291z" />
    <glyph glyph-name="OE" unicode="&#x152;" horiz-adv-x="1638" 
d="M292 1434l-191 -191v-1052l191 -191h485l192 191v1053l-192 190h-485zM442 262l-51 52v805l55 55h183l50 -51v-806l-53 -55h-184zM684 1434v-1328l1 -106h847l1 259l-559 1v351l421 -1v256h-421v308h559v260h-849z" />
    <glyph glyph-name="oe" unicode="&#x153;" horiz-adv-x="1638" 
d="M292 1434l-191 -191v-1052l191 -191h485l192 191v1053l-192 190h-485zM442 262l-51 52v805l55 55h183l50 -51v-806l-53 -55h-184zM684 1434v-1328l2 -106h847l1 259h-559v352l420 -1v256h-420v308h559v260h-850z" />
    <glyph glyph-name="Scaron" unicode="&#x160;" 
d="M302 1434l-191 -191v-460l555 -296v-170l-55 -55l-182 -1l-51 52l-1 122l-289 -1v-244l190 -190h484l193 194v452l-554 296v177l54 55h183l50 -51v-120h289v239l-190 192h-485zM656 1590l217 327h-233l-103 -151l-103 151h-233l217 -327h238z" />
    <glyph glyph-name="scaron" unicode="&#x161;" 
d="M306 1435l-190 -191v-461l555 -296v-170l-55 -55h-183l-51 51v186l-290 -102v-207l190 -190h485l193 194v452l-555 296v178l55 55l183 -1l49 -50v-209l290 126v202l-190 192h-486zM656 1590l217 327h-233l-103 -151l-103 151h-233l217 -327h238z" />
    <glyph glyph-name="Ydieresis" unicode="&#x178;" horiz-adv-x="1028" 
d="M695 1436l-182 -469l-192 469h-298l341 -824v-612h290l1 612l340 824h-300zM558 1594h260v260h-260v-260zM214 1594h260v260h-260v-260z" />
    <glyph glyph-name="Zcaron" unicode="&#x17d;" horiz-adv-x="1026" 
d="M910 260h-509v53l512 784q3 6 3 13v16h1v281l-1 27h-802l1 -260h509l-1 -56l-516 -764q-4 -6 -4 -13v-341h807v260zM634 1590l217 327h-233l-103 -151l-103 151h-233l217 -327h238z" />
    <glyph glyph-name="zcaron" unicode="&#x17e;" horiz-adv-x="1026" 
d="M910 260h-509v53l512 784q3 6 3 13v16h1v281l-1 27h-802l1 -260h509l-1 -56l-516 -764q-4 -6 -4 -13v-341h807v260zM634 1590l216 327h-233l-102 -151l-103 151h-233l216 -327h239z" />
    <glyph glyph-name="circumflex" unicode="&#x2c6;" horiz-adv-x="998" 
d="M393 1507l-217 -327h233l103 151l103 -151h233l-217 327h-238z" />
    <glyph glyph-name="caron" unicode="&#x2c7;" horiz-adv-x="1024" 
d="M641 1180l217 327h-233l-103 -151l-103 151h-233l217 -327h238z" />
    <glyph glyph-name="uni02C9" unicode="&#x2c9;" horiz-adv-x="1024" 
d="M254 1185v185h516v-185h-516z" />
    <glyph glyph-name="breve" unicode="&#x2d8;" horiz-adv-x="1024" 
d="M667 1508l-3 -23q-3 -25 -10 -47q-9 -28 -24 -48q-39 -54 -116 -54t-116 54q-16 20 -25 48q-7 22 -9 47l-3 23h-167l2 -28q12 -144 96 -225t222 -81t222 81t96 225l2 28h-167z" />
    <glyph glyph-name="dotaccent" unicode="&#x2d9;" horiz-adv-x="1024" 
d="M388 1184h260v260h-260v-260z" />
    <glyph glyph-name="ring" unicode="&#x2da;" horiz-adv-x="1024" 
d="M573 1452q21 -21 21 -52q0 -32 -21 -53q-22 -22 -53 -22t-52 22q-22 21 -22 53q0 31 22 52q21 22 52 22t53 -22zM676 1244q65 64 65 156q0 91 -65 155q-65 65 -156 65t-155 -65q-65 -64 -65 -155q0 -92 65 -156q64 -65 155 -65q92 0 156 65z" />
    <glyph glyph-name="ogonek" unicode="&#x2db;" horiz-adv-x="1024" 
d="M761 -193l-23 -15q-40 -26 -71 -43q-44 -24 -74 -32q-16 -5 -29 -5q-30 0 -48 19q-23 24 -21 62q3 75 49 138q46 64 115 89l16 6v67l-29 -4q-136 -22 -236 -114q-110 -102 -109 -239q1 -86 60 -140q60 -54 153 -54q130 0 299 111l18 12z" />
    <glyph glyph-name="tilde" unicode="&#x2dc;" horiz-adv-x="1014" 
d="M703 1475l-7 -16q-19 -45 -65 -45q-27 0 -92 17l-28 8l-28 6q-31 7 -55 7q-98 0 -165 -62q-67 -63 -88 -172l-6 -31h155l7 14q29 57 88 57q23 0 52 -7l27 -7l27 -8q65 -20 93 -20q92 0 153 59t82 170l6 30h-156z" />
    <glyph glyph-name="hungarumlaut" unicode="&#x2dd;" horiz-adv-x="1024" 
d="M217 1079l144 273q24 44 45.5 63t46.5 19q28 0 48 -20t20 -47q0 -16 -10.5 -35t-30.5 -41l-205 -212h-58zM502 1079l144 273q24 44 45.5 63t46.5 19q28 0 48 -20t20 -47q0 -16 -10.5 -35t-30.5 -41l-205 -212h-58z" />
    <glyph glyph-name="endash" unicode="&#x2013;" horiz-adv-x="1207" 
d="M94 384h1003v174h-1003v-174z" />
    <glyph glyph-name="emdash" unicode="&#x2014;" horiz-adv-x="1910" 
d="M103 384h1706v174h-1706v-174z" />
    <glyph glyph-name="quoteleft" unicode="&#x2018;" horiz-adv-x="498" 
d="M403 1069v287h-149l104 184h-135q-117 -180 -117 -184v-287h297z" />
    <glyph glyph-name="quoteright" unicode="&#x2019;" horiz-adv-x="498" 
d="M106 1540v-287h148l-103 -184h135q117 180 117 184v287h-297z" />
    <glyph glyph-name="quotesinglbase" unicode="&#x201a;" horiz-adv-x="498" 
d="M106 290v-287h148l-103 -184h135q117 180 117 184v287h-297z" />
    <glyph glyph-name="quotedblleft" unicode="&#x201c;" horiz-adv-x="887" 
d="M503 1540v-287q0 -4 117 -184h134l-103 184h148v287h-296zM106 1540v-286q0 -4 117 -185h135l-104 185h149v286h-297z" />
    <glyph glyph-name="quotedblright" unicode="&#x201d;" horiz-adv-x="887" 
d="M106 1540v-287h148l-103 -184h135q117 180 117 184v287h-297zM503 1540v-286h148l-103 -185h134q117 181 117 185v286h-296z" />
    <glyph glyph-name="quotedblbase" unicode="&#x201e;" horiz-adv-x="887" 
d="M106 294v-287h148l-103 -184h135q117 180 117 184v287h-297zM503 294v-286h148l-103 -185h134q117 181 117 185v286h-296z" />
    <glyph glyph-name="bullet" unicode="&#x2022;" horiz-adv-x="681" 
d="M102 899h450v-435h-450v435z" />
    <glyph glyph-name="ellipsis" unicode="&#x2026;" horiz-adv-x="1531" 
d="M102 289h299v-289h-299v289zM602 289h298v-289h-298v289zM1122 290h298v-289h-298v289z" />
    <glyph glyph-name="fraction" unicode="&#x2044;" horiz-adv-x="402" 
d="M514 1467l-840 -1529h206l840 1529h-206z" />
    <glyph glyph-name="fraction" unicode="&#x2215;" horiz-adv-x="402" 
d="M514 1467l-840 -1529h206l840 1529h-206z" />
    <glyph glyph-name="Euro" unicode="&#x20ac;" horiz-adv-x="1234" 
d="M410 1434l-191 -191v-354h-154v-146h154v-52h-219v-146h219v-545h715l190 191v245l-289 1v-126l-50 -51h-222l-54 54v231h328v146h-328v52h328v146h-328v230l54 55h222l50 -51v-165l289 1v283l-190 192h-524z" />
    <glyph glyph-name="uni2116" unicode="&#x2116;" horiz-adv-x="2015" 
d="M347 1434h-248v-1434h269l-1 744l358 -744h232v1434h-267l1 -677zM1313 1434l-180 -180v-438l180 -179h419l180 179v439l-180 179h-419zM1454 883l-48 48v206l52 52h135l46 -48v-206l-50 -52h-135zM1133 363h779v189h-779v-189z" />
    <glyph glyph-name="trademark" unicode="&#x2122;" horiz-adv-x="2228" 
d="M1773 1433l-197 -529l-194 529h-317l-2 -1011h244l2 474l179 -473h180l179 473l1 -474h239v1011h-314zM134 1433v-242h260v-769h271v769h264v242h-795z" />
  </font>
</defs>
</svg>
